<svg width="19px" height="19px" viewBox="0 0 19 19" version="1.1" xmlns="http://www.w3.org/2000/svg" xmlns:xlink="http://www.w3.org/1999/xlink">
    <defs>
        <path d="M12.3411421,15.0042614 C12.2372881,15.3731273 12.1832386,15.7632169 12.1832386,16.1656161 C12.1832386,16.2615468 12.1874834,16.3573359 12.1951238,16.453125 L9.57528409,16.453125 L9.57528409,15.0042614 L12.3411421,15.0042614 Z M19.6448864,2.18181818 L5.44602273,2.18181818 C4.24759742,2.18181818 3.27272727,3.15668833 3.27272727,4.35511364 L3.27272727,18.5539773 C3.27272727,19.7524026 4.24759742,20.7272727 5.44602273,20.7272727 L15.139543,20.7272727 C14.8281222,20.4940962 14.4912331,20.2210194 14.1612771,19.9149753 C13.9340432,19.7040128 13.7264765,19.4917769 13.538011,19.2784091 L5.44602273,19.2784091 C5.04659478,19.2784091 4.72159091,18.9534052 4.72159091,18.5539773 L4.72159091,4.35511364 C4.72159091,3.95568569 5.04659478,3.63068182 5.44602273,3.63068182 L19.6448864,3.63068182 C20.0443143,3.63068182 20.3693182,3.95568569 20.3693182,4.35511364 L20.3693182,12.3309381 C20.9004738,12.4623829 21.3928611,12.7036244 21.8181818,13.0426358 L21.8181818,4.35511364 C21.8181818,3.15668833 20.8433117,2.18181818 19.6448864,2.18181818 Z M6.67755682,16.453125 L8.12642045,16.453125 L8.12642045,15.0042614 L6.67755682,15.0042614 L6.67755682,16.453125 Z M8.12642045,10.7301136 L6.67755682,10.7301136 L6.67755682,12.1789773 L8.12642045,12.1789773 L8.12642045,10.7301136 Z M8.12642045,6.45596591 L6.67755682,6.45596591 L6.67755682,7.90482955 L8.12642045,7.90482955 L8.12642045,6.45596591 Z M18.3771307,10.7301136 L9.57528409,10.7301136 L9.57528409,12.1789773 L18.3771307,12.1789773 L18.3771307,10.7301136 Z M18.4133523,6.45596591 L9.57528409,6.45596591 L9.57528409,7.90482955 L18.4133523,7.90482955 L18.4133523,6.45596591 Z M21.1142661,14.3539706 C21.5681679,14.8107022 21.8181818,15.4542014 21.8181818,16.1656161 C21.8181818,17.016399 21.3085327,17.9205239 20.3035251,18.8528054 C19.4426963,19.6513783 18.4996615,20.2115395 18.3194025,20.3158181 C18.2468179,20.3576993 18.0855186,20.4502341 18.0855186,20.4502341 L17.7252835,20.6568104 L17.364907,20.4503757 C17.364907,20.4503757 17.2034662,20.3578408 17.1310231,20.3158181 C16.9504811,20.2115395 16.0074463,19.6513783 15.146759,18.8528054 C14.1416099,17.9205239 13.6321023,17.016399 13.6321023,16.1656161 C13.6321023,15.4542014 13.8821162,14.8107022 14.336018,14.3539706 C14.7780346,13.9091242 15.3834728,13.6640625 16.0408381,13.6640625 C16.8511547,13.6640625 17.3886774,13.949449 17.7269814,14.2426175 C18.1204667,13.9040305 18.6780812,13.6640625 19.409446,13.6640625 C20.0668113,13.6640625 20.6722495,13.9091242 21.1142661,14.3539706 L21.1142661,14.3539706 Z M20.3693182,16.1656161 C20.3693182,15.5260787 19.9925287,15.1129261 19.409446,15.1129261 C19.3368614,15.1129261 19.2702193,15.1173124 19.2081049,15.1248113 C18.9469133,15.1964056 18.6862876,15.4135936 18.4582048,15.6650224 C18.4516962,15.6880854 18.4494324,15.7022344 18.4492909,15.7033664 C18.4492909,15.7030834 18.4495739,15.6999706 18.4495739,15.6941695 L18.432029,15.6941695 C18.0255266,16.1518915 17.7285378,16.7066761 17.7285378,16.7066761 C17.7285378,16.7066761 17.4263139,16.1518915 17.0089167,15.6941695 L17.0007102,15.6941695 C17.0007102,15.6999706 17.0009932,15.7030834 17.0009932,15.7033664 C17.0009932,15.7025174 16.9995783,15.694028 16.996041,15.6800204 C16.7518283,15.4148671 16.4692716,15.1849448 16.1851585,15.1188687 C16.1395985,15.1150485 16.0916332,15.1129261 16.0408381,15.1129261 C15.4577554,15.1129261 15.0809659,15.5260787 15.0809659,16.1656161 C15.0809659,17.0236151 16.5848694,18.2963229 17.725142,18.9841087 C18.8652732,18.2963229 20.3693182,17.0236151 20.3693182,16.1656161 Z" id="path-1"></path>
    </defs>
    <g id="AddToPlaylist" stroke="none" stroke-width="1" fill="none" fill-rule="evenodd">
        <g id="Icons" transform="translate(-527.000000, -316.000000)">
            <g id="Icon-add-to-playlist" transform="translate(524.000000, 314.000000)">
                <mask id="playlist-mask-2" fill="white">
                    <use xlink:href="#path-1"></use>
                </mask>
                <use id="Shape" fill="#999999" fill-rule="nonzero" xlink:href="#path-1"></use>
                <g id="Group" mask="url(#playlist-mask-2)" fill="#999999">
                    <g id="COLOR/-black">
                        <rect id="Rectangle-2-Copy-3" x="0" y="0" width="23.5636373" height="23.5636373"></rect>
                    </g>
                </g>
            </g>
        </g>
    </g>
</svg>
