<svg xmlns="http://www.w3.org/2000/svg" viewBox="0 0 32 32">
    <path d="M2.667 23.246c0-.954.56-1.826 1.43-2.22a4.79 4.79 0 0 1 6.167 2.068l.33.61c.332.61 1.078.865 1.714.582a23.56 23.56 0 0 0 11.979-11.979c.283-.636.03-1.382-.582-1.714l-.61-.33a4.79 4.79 0 0 1-2.069-6.167c.395-.868 1.266-1.43 2.22-1.43.652 0 1.264.253 1.725.714l2.617 2.617c1.353 1.354 1.977 3.263 1.67 5.107-1.557 9.3-8.852 16.594-18.15 18.15-1.843.308-3.753-.316-5.107-1.67L3.38 24.97c-.46-.46-.714-1.073-.714-1.725m-2.667 0a5.07 5.07 0 0 0 1.496 3.61l2.617 2.617C5.74 31.1 7.933 32 10.17 32c.457 0 .917-.037 1.373-.114 10.422-1.745 18.596-9.92 20.34-20.34.45-2.693-.452-5.47-2.413-7.433l-2.617-2.617A5.07 5.07 0 0 0 23.245 0c-1.997 0-3.82 1.175-4.648 2.993-1.528 3.363-.325 7.345 2.73 9.322a20.89 20.89 0 0 1-9.014 9.014c-1.977-3.055-5.958-4.26-9.322-2.73A5.12 5.12 0 0 0 0 23.246" fill="#000" fill-rule="evenodd"/>
</svg>

