<svg viewBox="0 0 39 48" fill="none" xmlns="http://www.w3.org/2000/svg">
  <path fill-rule="evenodd" clip-rule="evenodd" d="M33.6 0H4.8C2.14903 0 0 2.14903 0 4.8V43.2C0 45.851 2.14903 48 4.8 48H33.6C36.251 48 38.4 45.851 38.4 43.2V4.8C38.4 2.14903 36.251 0 33.6 0ZM25.2 4.8C25.8627 4.8 26.4 5.33726 26.4 6V8.4C26.4 9.06274 25.8627 9.6 25.2 9.6L6 9.6C5.33726 9.6 4.8 9.06274 4.8 8.4V6C4.8 5.33726 5.33726 4.8 6 4.8L25.2 4.8ZM32.4 9.6C33.0627 9.6 33.6 9.06274 33.6 8.4V6C33.6 5.33726 33.0627 4.8 32.4 4.8H30C29.3373 4.8 28.8 5.33726 28.8 6V8.4C28.8 9.06274 29.3373 9.6 30 9.6H32.4ZM7.2 28.8C7.2 22.1726 12.5726 16.8 19.2 16.8C25.8274 16.8 31.2 22.1726 31.2 28.8C31.2 35.4274 25.8274 40.8 19.2 40.8C16.0174 40.8 12.9652 39.5357 10.7147 37.2853C8.46428 35.0348 7.2 31.9826 7.2 28.8ZM31.2 38.4C29.8745 38.4 28.8 39.4745 28.8 40.8C28.8 41.4365 29.0529 42.047 29.5029 42.4971C29.953 42.9471 30.5635 43.2 31.2 43.2C32.5255 43.2 33.6 42.1255 33.6 40.8C33.6 39.4745 32.5255 38.4 31.2 38.4Z" fill="currentColor"/>
</svg>
