<svg width="16px" height="16px" viewBox="0 0 16 16" xmlns="http://www.w3.org/2000/svg" xmlns:xlink="http://www.w3.org/1999/xlink">
    <g id="article-small" stroke="none" stroke-width="1" fill="none" fill-rule="evenodd">
        <g id="Article-Icons-55" transform="translate(-127.000000, -283.000000)">
            <g id="Article-icon-variations-00" transform="translate(127.000000, 193.000000)">
                <g id="Icon-article-V2" transform="translate(0.000000, 90.000000)">
                    <g transform="translate(2.000000, 0.000000)">
                        <path fill="#666666" d="M7.94444444,3.8191672e-14 C7.98015908,3.8191672e-14 8.01526823,0.00255248913 8.04959399,0.00748230013 L7.94444444,3.8191672e-14 C7.9947031,3.8191672e-14 8.04442165,0.00515797547 8.09287008,0.0151761989 C8.11327149,0.0192318641 8.13323454,0.0242429232 8.15284625,0.0300527692 C8.16494685,0.0338437189 8.17666571,0.0376521279 8.18827456,0.0417520354 C8.21113607,0.0496144446 8.23357087,0.0588354382 8.25540002,0.0691039735 C8.26686008,0.0746534122 8.27888645,0.0806978651 8.29073963,0.0870742524 C8.30791484,0.0962034155 8.3240298,0.105739917 8.3397203,0.11586164 C8.35273329,0.124318533 8.36596475,0.133458011 8.37889581,0.143045899 C8.3813246,0.144803353 8.38355389,0.146479925 8.38577292,0.148168933 L8.45513268,0.208279622 L8.45513268,0.208279622 L12.788466,4.47494629 C12.8131531,4.49925361 12.8360613,4.52531248 12.8569818,4.55291734 L12.788466,4.47494629 C12.820402,4.50639099 12.8490383,4.54047734 12.8741553,4.57668374 C12.8895113,4.59866284 12.9035775,4.6215491 12.9163247,4.64522928 C12.9198891,4.652155 12.9236843,4.6595156 12.9273474,4.66693715 C12.939955,4.6920978 12.9508149,4.71779822 12.9601381,4.74420669 C12.9625644,4.75166787 12.9650438,4.7590816 12.9673994,4.76653617 C12.9748164,4.78938018 12.980942,4.81294871 12.9858398,4.83695446 C12.9883859,4.85008658 12.9906344,4.86287265 12.992528,4.87573148 C12.9974554,4.90868401 13,4.94293831 13,4.97777778 L13,4.97777778 L13,13.5111111 C13,14.6893186 12.0299503,15.6444444 10.8333333,15.6444444 L2.16666667,15.6444444 C0.970049709,15.6444444 0,14.6893186 0,13.5111111 L0,2.13333333 C0,0.955125867 0.970049709,3.8191672e-14 2.16666667,3.8191672e-14 Z M7.222,1.422 L2.16666667,1.42222222 C1.76779435,1.42222222 1.44444444,1.74059751 1.44444444,2.13333333 L1.44444444,13.5111111 C1.44444444,13.9038469 1.76779435,14.2222222 2.16666667,14.2222222 L10.8333333,14.2222222 C11.2322057,14.2222222 11.5555556,13.9038469 11.5555556,13.5111111 L11.555,5.688 L7.94444444,5.68888889 C7.57881149,5.68888889 7.27663833,5.42136521 7.22881526,5.07427134 L7.22222222,4.97777778 L7.222,1.422 Z M9.38888889,10.6666667 C9.78776121,10.6666667 10.1111111,10.985042 10.1111111,11.3777778 C10.1111111,11.7705136 9.78776121,12.0888889 9.38888889,12.0888889 L9.38888889,12.0888889 L3.61111111,12.0888889 C3.21223879,12.0888889 2.88888889,11.7705136 2.88888889,11.3777778 C2.88888889,10.985042 3.21223879,10.6666667 3.61111111,10.6666667 L3.61111111,10.6666667 Z M9.38888889,7.82222222 C9.78776121,7.82222222 10.1111111,8.14059751 10.1111111,8.53333333 C10.1111111,8.92606916 9.78776121,9.24444444 9.38888889,9.24444444 L9.38888889,9.24444444 L3.61111111,9.24444444 C3.21223879,9.24444444 2.88888889,8.92606916 2.88888889,8.53333333 C2.88888889,8.14059751 3.21223879,7.82222222 3.61111111,7.82222222 L3.61111111,7.82222222 Z M5.05555556,4.97777778 C5.45442787,4.97777778 5.77777778,5.29615307 5.77777778,5.68888889 C5.77777778,6.08162471 5.45442787,6.4 5.05555556,6.4 L5.05555556,6.4 L3.61111111,6.4 C3.21223879,6.4 2.88888889,6.08162471 2.88888889,5.68888889 C2.88888889,5.29615307 3.21223879,4.97777778 3.61111111,4.97777778 L3.61111111,4.97777778 Z M8.666,2.427 L8.66666667,4.26666667 L10.533,4.266 L8.666,2.427 Z" />
                    </g>
                </g>
            </g>
        </g>
    </g>
</svg>
