<svg width="16px" height="16px" viewBox="0 0 16 16" version="1.1" xmlns="http://www.w3.org/2000/svg" xmlns:xlink="http://www.w3.org/1999/xlink">
    <g id="ASSET-TIME-SYSTEM" stroke="none" stroke-width="1" fill="none" fill-rule="evenodd">
        <g id="Icons" transform="translate(-128.000000, -428.000000)">
            <g id="asset-icon-variations" transform="translate(127.000000, 193.000000)">
                <g id="asset-time" transform="translate(1.000000, 235.000000)">
                    <path fill="#999999" d="M7.82222222,1.5187851e-13 C12.1423163,1.5187851e-13 15.6444444,3.50212818 15.6444444,7.82222222 C15.6444444,12.1423163 12.1423163,15.6444444 7.82222222,15.6444444 C3.50212818,15.6444444 -3.02868841e-13,12.1423163 -3.02868841e-13,7.82222222 C-3.02868841e-13,3.50212818 3.50212818,1.5187851e-13 7.82222222,1.5187851e-13 Z M7.82222222,1.42222222 C4.28759982,1.42222222 1.42222222,4.28759982 1.42222222,7.82222222 C1.42222222,11.3568446 4.28759982,14.2222222 7.82222222,14.2222222 C11.3568446,14.2222222 14.2222222,11.3568446 14.2222222,7.82222222 C14.2222222,4.28759982 11.3568446,1.42222222 7.82222222,1.42222222 Z M7.82222222,2.84444444 C8.21495804,2.84444444 8.53333333,3.16281973 8.53333333,3.55555556 L8.53333333,3.55555556 L8.53333333,7.52767036 L10.458387,9.45272407 C10.7360932,9.73043023 10.7360932,10.1806809 10.458387,10.458387 C10.1806809,10.7360932 9.73043023,10.7360932 9.45272407,10.458387 L9.45272407,10.458387 L7.31939073,8.32505371 C7.18603153,8.19169451 7.11111111,8.01082061 7.11111111,7.82222222 L7.11111111,7.82222222 L7.11111111,3.55555556 C7.11111111,3.16281973 7.4294864,2.84444444 7.82222222,2.84444444 Z"></path>
                </g>
            </g>
        </g>
    </g>
</svg>
