<svg width="16px" height="16px" viewBox="0 0 16 16" version="1.1" xmlns="http://www.w3.org/2000/svg" xmlns:xlink="http://www.w3.org/1999/xlink">
    <g id="ASSET" stroke="none" stroke-width="1" fill="none" fill-rule="evenodd">
        <g id="Icons" transform="translate(-127.000000, -390.000000)">
            <g id="Asset-icon-variations" transform="translate(127.000000, 193.000000)">
                <g id="Icon-asset" transform="translate(0.000000, 197.000000)">
                    <g transform="translate(1.000000, 0.000000)">
                        <path fill="#999999" d="M8.22338174,0.208938862 L13.556715,2.87560548 C14.2363727,3.21333549 14.6663122,3.90666151 14.6667151,4.66595924 L14.6667151,11.0196463 C14.6663122,11.7785903 14.2363727,12.4719163 13.5581908,12.8089107 L8.2250484,15.4754819 C7.66168047,15.7573914 6.99841634,15.7573914 6.43523934,15.4755774 L1.10006455,12.8079864 C0.421056952,12.4658554 -0.0052267901,11.7683001 -3.82804899e-13,11.0126259 L-3.82804899e-13,4.66560548 C0.000451221332,3.90666151 0.430390818,3.21333549 1.10857267,2.87634111 L6.44338174,0.208938862 C7.00401436,-0.0696462873 7.66274911,-0.0696462873 8.22338174,0.208938862 Z M1.333,4.918 L1.33334936,11.0172654 C1.33160181,11.2707033 1.47369639,11.5032217 1.6981908,11.6163411 L6.666,14.1 L6.666,7.584 L1.333,4.918 Z M13.333,4.917 L8,7.584 L8,14.097 L12.9633818,11.6156055 C13.1899344,11.5030288 13.3332476,11.2719201 13.3333818,11.0192926 L13.333,4.917 Z M7.0381908,1.40224404 L2.16,3.84 L7.33338174,6.42726992 L12.506,3.84 L7.62943636,1.40267588 C7.44269157,1.31011801 7.22339025,1.31021846 7.0381908,1.40224404 Z" ></path>
                    </g>
                </g>
            </g>
        </g>
    </g>
</svg>
