<svg width="12" height="24" viewBox="0 0 12 24" fill="none" xmlns="http://www.w3.org/2000/svg">
<path d="M3.9 1.95C3.81716 1.95 3.75 2.01716 3.75 2.1C3.75 2.18284 3.81716 2.25 3.9 2.25H8.1C8.18284 2.25 8.25 2.18284 8.25 2.1C8.25 2.01716 8.18284 1.95 8.1 1.95H3.9Z" fill="black"/>
<path d="M7.5937 11.2171C7.65839 11.1654 7.66888 11.071 7.61713 11.0063C7.56538 10.9416 7.47098 10.9311 7.4063 10.9829L6 12.1079L4.5937 10.9829C4.52902 10.9311 4.43462 10.9416 4.38287 11.0063C4.33112 11.071 4.34161 11.1654 4.4063 11.2171L5.75988 12.3L4.4063 13.3829C4.34161 13.4346 4.33112 13.529 4.38287 13.5937C4.43462 13.6584 4.52902 13.6689 4.5937 13.6171L6 12.4921L7.4063 13.6171C7.47098 13.6689 7.56538 13.6584 7.61713 13.5937C7.66888 13.529 7.65839 13.4346 7.5937 13.3829L6.24012 12.3L7.5937 11.2171Z" fill="black"/>
<path fill-rule="evenodd" clip-rule="evenodd" d="M4.58143 6.98143C4.71499 6.84788 4.90122 6.75 5.1 6.75H6.9C7.09879 6.75 7.28501 6.84788 7.41857 6.98143C7.55212 7.11499 7.65 7.30122 7.65 7.5V7.95H8.1C8.29879 7.95 8.48501 8.04788 8.61857 8.18143C8.75212 8.31499 8.85 8.50121 8.85 8.7V15.9C8.85 16.0988 8.75212 16.285 8.61857 16.4186C8.48501 16.5521 8.29879 16.65 8.1 16.65H3.9C3.70122 16.65 3.51499 16.5521 3.38143 16.4186C3.24788 16.285 3.15 16.0988 3.15 15.9V8.7C3.15 8.50121 3.24788 8.31499 3.38143 8.18143C3.51499 8.04788 3.70122 7.95 3.9 7.95H4.35V7.5C4.35 7.30122 4.44788 7.11499 4.58143 6.98143ZM4.79357 7.19357C4.70212 7.28501 4.65 7.39879 4.65 7.5V8.25H3.9C3.79878 8.25 3.68501 8.30212 3.59357 8.39357C3.50212 8.48501 3.45 8.59879 3.45 8.7V15.9C3.45 16.0012 3.50212 16.115 3.59357 16.2064C3.68501 16.2979 3.79878 16.35 3.9 16.35H8.1C8.20122 16.35 8.31499 16.2979 8.40643 16.2064C8.49788 16.115 8.55 16.0012 8.55 15.9V8.7C8.55 8.59879 8.49788 8.48501 8.40643 8.39357C8.31499 8.30212 8.20122 8.25 8.1 8.25H7.35V7.5C7.35 7.39879 7.29788 7.28501 7.20643 7.19357C7.11499 7.10212 7.00122 7.05 6.9 7.05H5.1C4.99879 7.05 4.88501 7.10212 4.79357 7.19357Z" fill="black"/>
<path fill-rule="evenodd" clip-rule="evenodd" d="M1.8 0H10.2C11.22 0 12 0.78 12 1.8V22.2C12 23.22 11.16 24 10.2 24H1.8C0.78 24 0 23.16 0 22.2V1.8C0 0.78 0.84 0 1.8 0ZM11.4 1.8C11.4 1.14 10.86 0.6 10.2 0.6H1.8C1.14 0.6 0.6 1.14 0.6 1.8V22.2C0.6 22.86 1.14 23.4 1.8 23.4H10.2C10.86 23.4 11.4 22.86 11.4 22.2V1.8Z" fill="black"/>
</svg>
