<svg width="15px" height="18px" viewBox="0 0 15 18" version="1.1" xmlns="http://www.w3.org/2000/svg" xmlns:xlink="http://www.w3.org/1999/xlink">
<path  fill="#999999" d="M13.6764706,1.2857924 L13.6764706,16.7153011 L7.5,10.7149366 L1.32352941,16.7153011 L1.32352941,1.2857924 L13.6764706,1.2857924 L13.6764706,1.2857924 Z M13.6764706,0 L1.32352941,0 C0.592564302,0 0,0.575668864 0,1.2857924 L0,16.7153011 C0.000470530739,17.2350041 0.322932444,17.703331 0.8171938,17.9021509 C1.31145516,18.1009708 1.88031738,17.9911849 2.25882353,17.6239278 L7.5,12.4293265 L12.7411765,17.6239278 C13.1196826,17.9911849 13.6885448,18.1009708 14.1828062,17.9021509 C14.6770676,17.703331 14.9995295,17.2350041 15,16.7153011 L15,1.2857924 C15,0.575668864 14.4074357,0 13.6764706,0 Z" />
</svg>
