<svg width="18px" height="18px" viewBox="0 0 18 18" version="1.1" xmlns="http://www.w3.org/2000/svg" xmlns:xlink="http://www.w3.org/1999/xlink">
    <g id="CLOSE" stroke="none" stroke-width="1" fill="none" fill-rule="evenodd">
        <g id="Icons" transform="translate(-527.000000, -425.000000)">
            <g id="CLOSE-Icon-close" transform="translate(527.000000, 425.000000)">
                <path fill="#999999" d="M10.3970418,9.0207476 L17.7710632,1.50140307 C18.0883131,1.15531665 18.074161,0.620047882 17.7390666,0.291209727 C17.4039722,-0.0376284278 16.8685435,-0.0416798217 16.5285116,0.282049899 L9.16610283,7.78978154 L1.50176564,0.270437012 C1.282343,0.0399546877 0.954687684,-0.052506292 0.647151681,0.0292736894 C0.339615679,0.111053671 0.101162394,0.354054263 0.0252008148,0.663085168 C-0.0507607645,0.972116072 0.0478633527,1.29797588 0.282439272,1.51301595 L7.93516383,9.0207476 L0.282439272,16.5284792 C-0.0412833344,16.8685186 -0.0372320296,17.4039591 0.291598899,17.7390609 C0.620429827,18.0741626 1.15568683,18.088315 1.50176564,17.7710582 L9.16610283,10.2517137 L16.5285116,17.7594453 C16.8685435,18.083175 17.4039722,18.0791236 17.7390666,17.7502855 C18.074161,17.4214473 18.0883131,16.8861785 17.7710632,16.5400921 L10.3970418,9.0207476 Z"></path>
            </g>
        </g>
    </g>
</svg>
