<?xml version="1.0" encoding="UTF-8"?>
<svg width="30px" height="30px" viewBox="0 0 48 48" version="1.1" xmlns="http://www.w3.org/2000/svg" xmlns:xlink="http://www.w3.org/1999/xlink">
    <title>mm_icons/star-outlined</title>
    <g id="mm_icons/star-outlined" stroke="none" stroke-width="1" fill="none" fill-rule="evenodd">
        <path d="M27.72,19.74 L37.34,20.5 L30,26.76 L32.24,36.12 L24,31.1 L15.74,36.12 L18,26.76 L10.66,20.5 L20.28,19.74 L24,10.82 L27.72,19.74 Z M23.74,3.99977771 C23.3184952,3.99446539 22.9370084,4.24878994 22.78,4.63999996 L17.88,16.42 L5.09999996,17.44 C4.68866475,17.4650999 4.33697781,17.7448508 4.21999996,18.14 L3.99999996,18.64 C3.86393183,19.0273011 3.98367166,19.4583645 4.29999996,19.72 L14,28 L11.12,40.44 C11.0224846,40.8375743 11.1721034,41.2549319 11.5,41.5 L12,41.8 C12.1708958,41.9339677 12.3829027,42.0046367 12.6,42.0002178 C12.7831403,42.0039009 12.9635736,41.9553227 13.12,41.86 L24,35.2 L34.94,41.86 C35.0964264,41.9553227 35.2768597,42.0039009 35.46,42.0002178 C35.6770973,42.0046367 35.8891042,41.9339677 36.06,41.8 L36.5,41.5 C36.8278966,41.2549319 36.9775154,40.8375743 36.88,40.44 L34,28 L43.72,19.7 C44.0207333,19.4368089 44.1315276,19.0173732 44,18.64 L43.84,18.14 C43.7230222,17.7448508 43.3713353,17.4650999 42.96,17.44 L30.18,16.42 L25.2,4.63999996 C25.0551356,4.24809567 24.6777273,3.99113684 24.26,3.99977771 L23.74,3.99977771 Z" id="star-outlined" fill="#000000"></path>
    </g>
</svg>