<svg viewBox="0 0 96 48" fill="none" xmlns="http://www.w3.org/2000/svg">
  <path fill-rule="evenodd" clip-rule="evenodd" d="M4.8 0H33.6C36.251 0 38.4 2.14903 38.4 4.8V43.2C38.4 45.851 36.251 48 33.6 48H4.8C2.14903 48 0 45.851 0 43.2V38.4H10.8C8.16 38.4 6 36.0738 6 33.2308V29.3538H3.6C2.4 29.3538 1.2 28.32 1.2 26.7692C1.2 25.2185 2.4 24.1846 3.6 24.1846H6V21.6H20.4V33.2308C20.4 36.0738 18.24 38.4 15.6 38.4H28.8V9.6H16.8L15.36 16.8H11.04L9.6 9.6H0V4.8C0 2.14903 2.14903 0 4.8 0Z" fill="currentColor"/>
  <path fill-rule="evenodd" clip-rule="evenodd" d="M95.9551 45.5798L93.5603 37.5829C93.4787 37.2568 93.2901 36.9672 93.0244 36.7603C92.7588 36.5533 92.4313 36.4409 92.0942 36.4408H87.5839V13.561C87.5839 9.96439 86.1508 6.5151 83.5998 3.97192C81.0488 1.42874 77.5889 0 73.9812 0C70.3736 0 66.9137 1.42874 64.3627 3.97192C61.8117 6.5151 60.3786 9.96439 60.3786 13.561V14.2037H54.4969C52.9193 14.2037 51.6403 15.5679 51.6403 17.2507L48 44.953C48 46.6358 49.2789 48 50.8566 48H59.4629C57.4906 46.2074 56.2523 43.6214 56.2523 40.7461C56.2523 35.3339 60.6398 30.9464 66.0521 30.9464C67.7962 30.9464 69.434 31.4021 70.8528 32.2009V17.2507C70.8528 15.5679 69.5739 14.2037 67.9962 14.2037H63.4014V13.561C63.4014 10.7636 64.5161 8.08085 66.5002 6.10282C68.4843 4.1248 71.1753 3.01355 73.9812 3.01355C76.7872 3.01355 79.4782 4.1248 81.4623 6.10282C83.4464 8.08085 84.5611 10.7636 84.5611 13.561V36.4408H80.0508C79.7137 36.4409 79.3863 36.5533 79.1206 36.7603C78.855 36.9672 78.6664 37.2568 78.5848 37.5829L75.8937 45.5798C75.8381 45.8019 75.834 46.0337 75.8817 46.2575C75.9294 46.4814 76.0277 46.6915 76.169 46.8719C76.3103 47.0523 76.491 47.1982 76.6973 47.2986C76.9036 47.399 77.1302 47.4512 77.3597 47.4512H94.489C94.7186 47.4512 94.9451 47.399 95.1515 47.2986C95.3578 47.1982 95.5385 47.0523 95.6798 46.8719C95.8211 46.6915 95.9193 46.4814 95.967 46.2575C96.0147 46.0337 96.0106 45.8019 95.9551 45.5798ZM66.0521 47.4514C69.7552 47.4514 72.7572 44.4494 72.7572 40.7463C72.7572 37.0432 69.7552 34.0413 66.0521 34.0413C62.349 34.0413 59.347 37.0432 59.347 40.7463C59.347 44.4494 62.349 47.4514 66.0521 47.4514Z" fill="currentColor"/>
</svg>
