<svg width="20px" height="20px" viewBox="0 0 20 20" version="1.1" xmlns="http://www.w3.org/2000/svg" xmlns:xlink="http://www.w3.org/1999/xlink">
    <defs>
        <path d="M10,0 C15.5140625,0 20,4.4859375 20,10 C20,15.5140625 15.5140625,20 10,20 C4.4859375,20 0,15.5140625 0,10 C0,4.4859375 4.4859375,0 10,0 Z M10,1.62160156 C5.38023438,1.62160156 1.62160156,5.38027344 1.62160156,10 C1.62160156,14.6200391 5.38027344,18.3783984 10,18.3783984 C14.62,18.3783984 18.3783984,14.62 18.3783984,10 C18.3783984,5.38023438 14.62,1.62160156 10,1.62160156 Z M13.8475781,6.68214844 C14.1726953,6.37351563 14.6859375,6.3878125 14.9937891,6.71242188 C15.3021484,7.03730469 15.2883984,7.55054688 14.9635547,7.85867188 L14.9635547,7.85867188 L9.20679688,13.318125 C9.04976563,13.4664844 8.84921875,13.5405469 8.64867188,13.5405469 C8.43730469,13.5405469 8.22648438,13.4583984 8.06785156,13.2954297 L8.06785156,13.2954297 L5.04082031,10.1875781 C4.72839844,9.86675781 4.73515625,9.35351563 5.05597656,9.04109375 C5.37707031,8.72835938 5.88976563,8.73539063 6.20246094,9.05621094 L6.20246094,9.05621094 L8.67136719,11.5910938 Z" id="path-1"></path>
    </defs>
    <g id="COMPLETE-DESIGN-SYSTEM" stroke="none" stroke-width="1" fill="none" fill-rule="evenodd">
        <g id="Icons" transform="translate(-527.000000, -820.000000)">
            <g id="Complete-Icon-complete" transform="translate(527.000000, 820.000000)">
                <mask id="complete-mask-2" fill="white">
                    <use xlink:href="#path-1"></use>
                </mask>
                <use id="Combined-Shape" fill="#000000" fill-rule="nonzero" xlink:href="#path-1"></use>
                <g id="Group" mask="url(#complete-mask-2)" fill="#999999">
                    <g id="COLOR/-black">
                        <rect id="Rectangle-2" x="0" y="0" width="20" height="20"></rect>
                    </g>
                </g>
                <g id="Tick" mask="url(#complete-mask-2)"></g>
            </g>
        </g>
    </g>
</svg>
