<svg xmlns="http://www.w3.org/2000/svg" xmlns:xlink="http://www.w3.org/1999/xlink" width="59" height="24"><g fill-rule="evenodd"><path d="M57.646 23.744H.746c-.334 0-.606-.272-.606-.606V.786C.14.45.412.18.746.18h56.9c.334 0 .606.272.606.606v22.352c0 .334-.272.606-.606.606" fill="#fffffe"/><path d="M.61.388a.27.27 0 0 0-.269.27v22.607a.27.27 0 0 0 .269.27h57.173a.27.27 0 0 0 .269-.27V.658a.27.27 0 0 0-.269-.27H.61zm57.173 23.49H.61A.61.61 0 0 1 0 23.265V.658A.61.61 0 0 1 .609.045h57.173a.61.61 0 0 1 .609.613v22.607a.61.61 0 0 1-.609.613z" fill="#9ca2a8"/><g fill="#1b5c92"><path d="M29.655 12.9c-.784 0-1.504-.2-2.1-.504l.198-1.306c.595.315 1.207.496 1.873.496.74 0 1.063-.27 1.063-.74 0-1.063-3.108-.613-3.108-2.874 0-1.144.74-2.072 2.45-2.072.658 0 1.37.135 1.892.35l-.2 1.28c-.56-.18-1.117-.288-1.63-.288-.838 0-1.063.288-1.063.648 0 1.054 3.108.568 3.108 2.855 0 1.333-.928 2.153-2.504 2.153m8.37-1.448v1.324H33.42V6.018h4.594V7.36h-3.07v1.342h2.495V9.9h-2.495v1.54h3.07m3.767-4.152h-.9V9.36h.9c.748 0 1.072-.2 1.072-1.036 0-.8-.288-1.036-1.072-1.036zm0 3.288h-.9v2.198H39.36V6.018h2.423c1.874 0 2.64.738 2.64 2.315 0 1.423-.757 2.243-2.64 2.243zm5.875-2.702l-.676 2.315h1.72l-.65-2.315-.18-.712h-.027l-.2.712zm1.405 3.585h-2.45l-.378 1.315H44.63l2.333-6.756h1.8l2.36 6.756H49.44l-.378-1.315zm-19.462 5.7l-.017.636h-1.987v-3.137h.7v2.5H29.6"/><path d="M31.404 16.707a1.03 1.03 0 0 0-.359-.054c-.29 0-.423.113-.423.335 0 .247.146.335.36.335.22 0 .422-.134.422-.297v-.318zm.096.845l-.012-.004c-.155.184-.397.29-.686.29-.48 0-.786-.272-.786-.84 0-.468.326-.8.904-.8a1.63 1.63 0 0 1 .485.071v-.146c0-.255-.134-.373-.48-.373-.28 0-.464.042-.7.138l-.054-.52c.255-.11.544-.167.87-.167.75 0 1.008.322 1.008 1.016v1.57h-.498l-.05-.243z"/><use xlink:href="#B"/><path d="M35.692 15.745v1.297c0 .197.1.28.3.28.067 0 .155-.012.2-.03l.038.473c-.088.038-.255.07-.435.07-.506 0-.753-.293-.753-.774v-1.317h-.284v-.485h.314l.11-.573.51-.046v.62h.565v.485h-.565"/><use xlink:href="#B" x="4.06"/><path d="M40.678 15.88c-.13-.046-.284-.08-.43-.08-.473 0-.627.197-.627.732 0 .544.222.757.615.757a1.09 1.09 0 0 0 .46-.096l.046.506c-.15.092-.376.147-.648.147-.75 0-1.146-.427-1.146-1.313 0-.84.347-1.314 1.16-1.314a1.81 1.81 0 0 1 .611.109l-.038.552m2.135 1.914V16.18c0-.26-.13-.393-.406-.393-.188 0-.35.084-.43.192v1.815h-.648V14.54l.648-.033v.577l-.008.335.012.01c.188-.16.418-.218.632-.218.535 0 .85.36.85.97v1.614h-.648m1.328-.001v-2.518l.52-.025.06.422h.012c.16-.305.406-.456.694-.456a.96.96 0 0 1 .276.038l-.042.64a.93.93 0 0 0-.276-.042c-.34 0-.6.247-.6.67v1.272h-.652m2.188-.001v-2.518l.665-.03v2.547h-.665zm.335-2.807c-.25 0-.372-.07-.372-.276 0-.18.12-.28.372-.28s.368.096.368.28-.113.276-.368.276zm1.263 2.807V15.74h-.318v-.48h.318v-.1c0-.38.264-.694.87-.694.142 0 .3.02.4.054l-.038.418a1.13 1.13 0 0 0-.243-.025c-.255 0-.35.1-.35.264v.092h.54v.48h-.54v2.054h-.648m2.527-2.048v1.297c0 .197.1.28.3.28a.65.65 0 0 0 .2-.03l.038.473c-.088.038-.255.07-.435.07-.506 0-.753-.293-.753-.774v-1.317h-.284v-.485h.314l.1-.573.5-.046v.62h.564v.485h-.564"/></g><path d="M13.327 11.352c-.02.028-.054.043-.087.05a.15.15 0 0 1-.109-.028l-5.8-4.358a.15.15 0 0 1-.057-.097c-.002-.034.002-.07.024-.098l.474-.63.977-1.28 6.03 4.53-.977 1.28-.474.63zm-3.27-7.957l5.79 4.35c.066.05.08.143.03.208l-.414.57-6.03-4.53.414-.57c.05-.065.142-.078.208-.028zm5.99 4.098l-5.8-4.358a.46.46 0 0 0-.641.09l-2.553 3.4a.45.45 0 0 0-.078.173.46.46 0 0 0 .168.479l5.79 4.35a.46.46 0 0 0 .507.028.45.45 0 0 0 .145-.123l2.553-3.4a.46.46 0 0 0-.092-.64z" fill="#9ca2a8"/><g fill="#1b5c92"><path d="M6.653 19.747l2.037-6.765h5.52l-.476.637-.685.946-.078.14-.072.163-.074.183-.077.194-.074.212-.073.208-.07.21-.068.205-.06.195-.056.18-.05.157-.067.23-.024.062s-.005.013-.016.03-.097.096-.165.045-.058-.22-.052-.302l.06-.75c.007-.088-.1-.138-.17-.098-.304.175-.486.388-.653.63l.046-.17c.07-.258.17-.525.207-.8.022-.15-.017-.33-.194-.36-.2-.033-.33.176-.427.314-.295.416-.47.945-.835 1.307-.138.137-.29.237-.49.18-.23-.065-.32.205.087.242.398.036.695-.385.876-.68l.375-.653.196-.304c.03-.042.088-.153.142-.168.07-.02.053.02.048.077-.01.126-.063.256-.096.377l-.34 1.25c-.035.13.135.19.206.087.284-.405.425-.748.775-1.018l-.022.267c-.012.147-.04.302-.03.45.016.24.198.407.426.302.12-.055.205-.14.205-.14l.014-.01.048-.036.088-.058.12-.082.133-.1.147-.103.172-.12.524-.386.17-.13.16-.12.147-.12.13-.1.102-.095.08-.077.003-.004.002.002.544-.643 1.392-1.86h2.47l1.92 6.766H6.653zm9.915-7.058l4.375-5.85.446-.588.013-.02c.032-.044.026-.1-.018-.133L20.147 5.2c-.043-.03-.1-.02-.132.024L20 5.242l-.168.214-5.403 7.232H8.48l-2.23 7.35h14.89l-2.103-7.35H16.57z"/><path d="M21.95 6.526l-.164-.123c-.033-.025-.08-.018-.104.015l-2.08 2.767c-.024.033-.018.08.015.104l.163.123c.033.024.08.018.104-.015l2.08-2.767c.024-.033.018-.08-.015-.104m-8.352 11.782h4.138l-.088-.328h-8.1l-.088.328h4.137"/></g></g><defs ><path id="B" d="M33.45 17.844c-.305 0-.58-.06-.795-.176l.067-.535c.21.12.506.18.724.18.26 0 .368-.105.368-.255 0-.406-1.175-.17-1.175-1.058 0-.456.31-.782.962-.782a1.92 1.92 0 0 1 .719.138l-.054.53c-.21-.088-.5-.13-.678-.13-.213 0-.33.084-.33.213 0 .385 1.16.155 1.16 1.03 0 .506-.28.845-.966.845"/></defs></svg>