<svg width="4px" height="18px" viewBox="0 0 4 18" version="1.1" xmlns="http://www.w3.org/2000/svg" xmlns:xlink="http://www.w3.org/1999/xlink">
    <defs>
        <path d="M12,17 C13.1045695,17 14,17.8954305 14,19 C14,20.1045695 13.1045695,21 12,21 C10.8954305,21 10,20.1045695 10,19 C10,17.8954305 10.8954305,17 12,17 Z M12,10 C13.1045695,10 14,10.8954305 14,12 C14,13.1045695 13.1045695,14 12,14 C10.8954305,14 10,13.1045695 10,12 C10,10.8954305 10.8954305,10 12,10 Z M12,3 C13.1045695,3 14,3.8954305 14,5 C14,6.1045695 13.1045695,7 12,7 C10.8954305,7 10,6.1045695 10,5 C10,3.8954305 10.8954305,3 12,3 Z" id="path-1"></path>
    </defs>
    <g id="DOTNAV-VERTICAL" stroke="none" stroke-width="1" fill="none" fill-rule="evenodd">
        <g id="DotNav-Icons" transform="translate(-133.000000, -499.000000)">
            <g id="Icon-dot-nav-vertical" transform="translate(123.000000, 496.000000)">
                <mask id="mask-2" fill="white">
                    <use xlink:href="#path-1"></use>
                </mask>
                <use id="Combined-Shape" fill="#999999" xlink:href="#path-1"></use>
                <g id="Group" mask="url(#mask-2)" fill="#999999">
                    <g id="COLOR/-black">
                        <rect id="Rectangle-2" x="0" y="0" width="24" height="24"></rect>
                    </g>
                </g>
            </g>
        </g>
    </g>
</svg>
