<?xml version="1.0" encoding="UTF-8"?>
<svg width="18px" height="20px" viewBox="0 0 18 20" version="1.1" xmlns="http://www.w3.org/2000/svg" xmlns:xlink="http://www.w3.org/1999/xlink">
    <title>3B386545-F6F5-41FE-942E-461F15EB9344</title>
    <g id="DESIGN-SYSTEM" stroke="none" stroke-width="1" fill="none" fill-rule="evenodd">
        <g id="Icons" transform="translate(-529.000000, -461.000000)">
            <g id="Icon-edit" transform="translate(529.000000, 461.000000)">
                <path fill="#999999" d="M9,0 L9,1.36363636 L1.35,1.36363636 L1.35,18.6363636 L14.85,18.6363636 L14.85,10 L16.2,10 L16.2,18.6363636 C16.2,19.3894792 15.5955844,20 14.85,20 L14.85,20 L1.35,20 C0.604415588,20 0,19.3894792 0,18.6363636 L0,18.6363636 L0,1.36363636 C0,0.610520796 0.604415588,0 1.35,0 L1.35,0 L9,0 Z M14.6125975,1.31944962 C15.1608034,0.772304673 16.0488979,0.772304673 16.5971038,1.31944962 L16.5971038,1.31944962 L17.5893569,2.31101559 C18.136881,2.86351905 18.136881,3.75099849 17.5893569,4.29882475 C17.5893569,4.29882475 9.91811686,12.2126438 9.45007293,12.3342509 L9.45007293,12.3342509 L8.04594113,12.6850408 C7.56711856,12.8051218 7.06036829,12.6651029 6.71129058,12.316267 C6.36221287,11.967431 6.222097,11.4610317 6.34226121,10.9825407 L6.34226121,10.9825407 L6.69329416,9.5793813 C6.74746591,9.36067899 8.44886018,7.57408879 10.26066,5.71823425 L10.696825,5.27226658 C11.9341728,4.00927155 13.1657222,2.76968576 13.9082488,2.02472441 L14.2530083,1.67913331 C14.2856484,1.64644428 14.3163013,1.61575449 14.3448687,1.58715986 Z M15.6048506,2.31569279 L9.01479207,8.90118759 L9.04755514,8.92925078 L10.0070452,9.88807637 L16.5971038,3.30725877 L15.6048506,2.31569279 Z"></path>
            </g>
        </g>
    </g>
</svg>
