<svg height="44" viewBox="0 0 63 44" width="63" xmlns="http://www.w3.org/2000/svg"><path d="m70 261.103516 15.625 21.875-15.625 21.875h-43.75c-.8463584 0-1.5787729-.301104-2.1972656-.903321-.6184927-.602216-.9277344-1.342769-.9277344-2.221679v-37.5c0-.846359.3092417-1.578773.9277344-2.197266s1.3509072-.927734 2.1972656-.927734zm-21.5820312 25.097656c-.0325523-.358075-.0569661-.805662-.0732422-1.342774-.0162762-.537112-.0244141-1.163733-.0244141-1.879882 0-.71615.0081379-1.350909.0244141-1.904297.0162761-.553388.0406899-1.041665.0732422-1.464844.0325522-.423179.0732419-.797524.1220703-1.123047.0488283-.325522.1220698-.602212.2197265-.830078.0976568-.227866.2115879-.415038.3417969-.561523.130209-.146486.2766919-.268555.4394531-.366211.1953135-.065105.4150379-.113933.6591797-.146485.2441419-.032552.5126939-.048828.8056641-.048828.1627612 0 .32552.008138.4882812.024414.1627613.016276.32552.04069.4882813.073242.1627612 0 .32552.016276.4882812.048829.1627613.032552.3092442.065104.4394531.097656.130209.032552.2766919.065104.4394532.097656.1627612.032552.32552.08138.4882812.146484l.2929688-4.785156c-.130209-.032552-.3173816-.08138-.5615235-.146484-.2441418-.065105-.5289697-.146484-.8544921-.244141-.3580748-.065104-.73242-.12207-1.1230469-.170898-.390627-.048829-.8300757-.073243-1.3183594-.073243-.7812539 0-1.4892546.073242-2.1240234.219727s-1.1962867.36621-1.6845703.65918c-.4882837.29297-.9195945.634763-1.2939454 1.02539-.3743508.390627-.6917304.846352-.9521484 1.367188s-.4801423 1.082354-.6591797 1.68457c-.1790373.602217-.3011064 1.245114-.3662109 1.928711-.0976568.683597-.1627603 1.399736-.1953125 2.148438-.0325523.748701-.0488281 1.529943-.0488281 2.34375 0 .813806.0081379 1.58691.024414 2.319336.0162761.732425.0569658 1.407874.1220703 2.026367.0325523.618492.1139317 1.188148.2441407 1.708984.1302089.520836.3092436.992837.5371093 1.416016.1953135.423179.4557276.797524.78125 1.123047.3255225.325522.6998677.585936 1.1230469.78125.4231792.227865.9358694.390624 1.5380859.488281.6022166.097657 1.2939414.146484 2.0751953.146484h.5615235c.2115896 0 .431314-.016276.6591797-.048828.1953135-.032552.4068999-.056966.6347656-.073242s.4394521-.056966.6347656-.12207c.2278657-.032553.4394522-.065104.6347656-.097657.1953135-.032552.3743482-.08138.5371094-.146484.1953135-.032552.3662102-.073242.5126953-.12207.1464851-.048829.2522784-.089518.3173829-.122071v-4.785156c-.260418.097657-.5533838.179036-.8789063.244141-.3255225.065104-.6835918.113932-1.0742187.146484-.390627.065105-.7731102.105794-1.147461.12207-.3743508.016277-.756834.024414-1.1474609.024414h-.9277344c-.0651045-.227865-.1220701-.488279-.1708984-.78125-.0488284-.29297-.0895181-.634763-.1220703-1.02539z" transform="translate(-23 -261)"/></svg>