<svg viewBox="0 0 55 40" fill="none" xmlns="http://www.w3.org/2000/svg">
  <path fill-rule="evenodd" clip-rule="evenodd" d="M53.4991 14.0248L51.4241 5.6749C50.5872 2.33897 47.5886 -0.000196974 44.1492 1.24406e-08H37.0244C36.5481 0.00486208 36.1142 0.27483 35.8994 0.699988L35.3494 1.79997C35.1346 2.22513 34.7007 2.4951 34.2244 2.49996H20.7746C20.2983 2.4951 19.8645 2.22513 19.6497 1.79997L19.0997 0.699988C18.8849 0.27483 18.451 0.00486208 17.9747 1.24406e-08H10.8498C7.41051 -0.000196974 4.41184 2.33897 3.57494 5.6749L1.49998 14.0248C0.503236 17.9893 -0.000560837 22.0616 4.68514e-07 26.1496V34.9994C4.68514e-07 37.7608 2.23854 39.9993 4.99992 39.9993H6.57489C10.2822 40.049 13.4695 37.3823 14.0748 33.7244L14.7497 29.5995C14.9478 28.3769 16.0112 27.4836 17.2497 27.4995H37.9993C39.2378 27.4836 40.3012 28.3769 40.4993 29.5995L41.1743 33.7244C41.7795 37.3823 44.9668 40.049 48.6742 39.9993H49.9991C52.7605 39.9993 54.9991 37.7608 54.9991 34.9994V26.1496C54.9996 22.0616 54.4958 17.9893 53.4991 14.0248ZM13.7498 19.9997C10.298 19.9997 7.49987 17.2015 7.49987 13.7498C7.49987 10.298 10.298 7.49987 13.7498 7.49987C17.2015 7.49987 19.9997 10.298 19.9997 13.7498C19.9997 15.4073 19.3412 16.997 18.1691 18.1691C16.997 19.3412 15.4073 19.9997 13.7498 19.9997ZM48.7492 17.1997C49.4395 17.1997 49.9991 16.6401 49.9991 15.9497V14.0498C49.9991 13.3594 49.4395 12.7998 48.7492 12.7998H44.6992V8.74985C44.6992 8.05951 44.1396 7.49987 43.4493 7.49987H41.5493C40.8589 7.49987 40.2993 8.05951 40.2993 8.74985V12.7998H36.2494C35.559 12.7998 34.9994 13.3594 34.9994 14.0498V15.9497C34.9994 16.6401 35.559 17.1997 36.2494 17.1997H40.2993V21.2496C40.2993 21.94 40.8589 22.4996 41.5493 22.4996H43.4493C44.1396 22.4996 44.6992 21.94 44.6992 21.2496V17.1997H48.7492Z" fill="currentColor"/>
</svg>
