<svg width="24" height="24" viewBox="0 0 48 48" fill="none" xmlns="http://www.w3.org/2000/svg">
<path d="M48 32V42.6667C48 45.6122 45.6122 48 42.6667 48H37.3333C35.8606 48 34.6667 46.8061 34.6667 45.3333V29.3333C34.6667 27.8606 35.8606 26.6667 37.3333 26.6667V18.6667C37.3333 11.3029 31.3638 5.33333 24 5.33333C16.6362 5.33333 10.6667 11.3029 10.6667 18.6667V26.6667C12.1394 26.6667 13.3333 27.8606 13.3333 29.3333V45.3333C13.3333 46.8061 12.1394 48 10.6667 48H5.33333C2.38781 48 0 45.6122 0 42.6667V32C0 29.0545 2.38781 26.6667 5.33333 26.6667V18.6667C5.33333 8.35735 13.6907 0 24 0C34.3093 0 42.6667 8.35735 42.6667 18.6667V26.6667C44.0812 26.6667 45.4377 27.2286 46.4379 28.2288C47.4381 29.229 48 30.5855 48 32Z" fill="black"/>
</svg>
