<?xml version="1.0" encoding="UTF-8"?>
<svg width="20px" height="20px" viewBox="0 0 20 20" version="1.1" xmlns="http://www.w3.org/2000/svg" xmlns:xlink="http://www.w3.org/1999/xlink">
    <title>Icon launch</title>
    <defs>
        <path d="M9.07563025,2.85714286 C9.63255605,2.85714286 10.0840336,3.30862042 10.0840336,3.86554622 C10.0840336,4.42247202 9.63255605,4.87394958 9.07563025,4.87394958 L9.07563025,4.87394958 L3.02521008,4.87394958 C2.46828429,4.87394958 2.01680672,5.32542714 2.01680672,5.88235294 L2.01680672,5.88235294 L2.01680672,16.9747899 C2.01680672,17.5317157 2.46828429,17.9831933 3.02521008,17.9831933 L3.02521008,17.9831933 L14.1176471,17.9831933 C14.6745729,17.9831933 15.1260504,17.5317157 15.1260504,16.9747899 L15.1260504,16.9747899 L15.1260504,10.9243697 C15.1260504,10.3674439 15.577528,9.91596639 16.1344538,9.91596639 C16.6913796,9.91596639 17.1428571,10.3674439 17.1428571,10.9243697 L17.1428571,10.9243697 L17.1428571,16.9747899 C17.1428571,18.6455673 15.7884245,20 14.1176471,20 L14.1176471,20 L3.02521008,20 C1.35443269,20 0,18.6455673 0,16.9747899 L0,16.9747899 L0,5.88235294 C0,4.21157555 1.35443269,2.85714286 3.02521008,2.85714286 L3.02521008,2.85714286 Z M19.0693717,0.00171405096 C19.302684,0.0154264586 19.5320641,0.111413312 19.7103254,0.289674612 C19.9160115,0.495360727 20.0121606,0.769104399 19.9987728,1.03841829 L20,1.07142857 L20,7.5 C20,8.09173366 19.5203051,8.57142857 18.9285714,8.57142857 C18.3368378,8.57142857 17.8571429,8.09173366 17.8571429,7.5 L17.8571429,7.5 L17.857,3.541 L8.83120451,12.5674682 C8.47468191,12.9239908 7.91368416,12.9514157 7.52570385,12.6497427 L7.43253175,12.5674682 C7.04629894,12.1812354 7.04629894,11.5550283 7.43253175,11.1687955 L7.43253175,11.1687955 L16.458,2.142 L12.5,2.14285714 C11.9477153,2.14285714 11.4930287,1.72498958 11.4348584,1.18817252 L11.4285714,1.07142857 C11.4285714,0.479694911 11.9082663,0 12.5,0 L12.5,0 L18.9285714,0 C18.9363263,0 18.944062,8.23884897e-05 18.9517776,0.000246337919 Z" id="path-1"></path>
    </defs>
    <g id="LAUNCH-DESIGN-SYSTEM" stroke="none" stroke-width="1" fill="none" fill-rule="evenodd">
        <g id="Icons" transform="translate(-527.000000, -784.000000)">
            <g id="Icon-launch" transform="translate(527.000000, 784.000000)">
                <mask id="mask-2" fill="white">
                    <use xlink:href="#path-1"></use>
                </mask>
                <use id="Combined-Shape" fill="#FFFFFF" fill-rule="nonzero" xlink:href="#path-1"></use>
                <g id="Group" mask="url(#mask-2)" fill="#999999">
                    <g id="COLOR/-black">
                        <rect id="Rectangle-2" x="0" y="0" width="20" height="20"></rect>
                    </g>
                </g>
            </g>
        </g>
    </g>
</svg>
