<?xml version="1.0" encoding="UTF-8"?>
<svg viewBox="0 0 32 40" version="1.1" xmlns="http://www.w3.org/2000/svg" xmlns:xlink="http://www.w3.org/1999/xlink">
    <title>icons/shopping-cart</title>
    <g id="concepts" stroke="none" stroke-width="1" fill="none" fill-rule="evenodd">
        <g id="registration_account_with_club_desktop" transform="translate(-1152.000000, -136.000000)" fill="#FFFFFF">
            <g id="icons/shopping-cart" transform="translate(1144.000000, 132.000000)">
                <path d="M36,20 L36,16 C36,9.37258297 30.627417,3.99999996 24,3.99999996 C17.372583,3.99999996 12,9.37258297 12,16 L12,20 C9.79086097,20 7.99999997,21.790861 7.99999997,24 L7.99999997,40 C7.99999997,42.209139 9.79086097,44 12,44 L36,44 C38.209139,44 40,42.209139 40,40 L40,24 C40,21.790861 38.209139,20 36,20 Z M16,16 C16,11.581722 19.581722,7.99999997 24,7.99999997 C28.418278,7.99999997 32,11.581722 32,16 L32,20 L16,20 L16,16 Z M28,34 C28,35.1045695 27.1045695,36 26,36 L22,36 C20.8954305,36 20,35.1045695 20,34 L20,30 C20,28.8954305 20.8954305,28 22,28 L26,28 C27.1045695,28 28,28.8954305 28,30 L28,34 Z" id="lock"></path>
            </g>
        </g>
    </g>
</svg>