<svg viewBox="0 0 80 80" xmlns="http://www.w3.org/2000/svg"><path d="m4.725591 9.506519c-2.659391 0-4.558957 2.279478-4.558957 4.93887s2.279478 4.558957 4.93887 4.558957h70.283915c2.659391 0 4.558957-1.899565 4.558957-4.558957s-1.899565-4.93887-4.558957-4.93887h-70.663828zm0 25.834088c-2.659391 0-4.558957 1.899565-4.558957 4.558957s2.279478 4.558957 4.93887 4.558957h70.283915c2.659391 0 4.558957-1.899565 4.558957-4.558957s-1.899565-4.558957-4.558957-4.558957h-70.663828zm0 25.454175c-2.659391 0-4.93887 2.279478-4.93887 4.93887s2.279478 4.558957 4.93887 4.558957h70.283915c2.659391 0 4.93887-2.279478 4.93887-4.93887s-2.279478-4.93887-4.93887-4.93887h-70.283915v.379913z"/></svg>
