<svg viewBox="0 0 96 48" fill="none" xmlns="http://www.w3.org/2000/svg">
  <path fill-rule="evenodd" clip-rule="evenodd" d="M33.6 0C36.251 0 38.4 2.14903 38.4 4.8V43.2C38.4 45.851 36.251 48 33.6 48H4.8C2.14903 48 0 45.851 0 43.2V4.8C0 2.14903 2.14903 0 4.8 0H33.6ZM10.8 40.8C11.4627 40.8 12 40.2627 12 39.6V37.2C12 36.5373 11.4627 36 10.8 36H8.4C7.73726 36 7.2 36.5373 7.2 37.2V39.6C7.2 40.2627 7.73726 40.8 8.4 40.8H10.8ZM12 30C12 30.6627 11.4627 31.2 10.8 31.2H8.4C7.73726 31.2 7.2 30.6627 7.2 30V27.6C7.2 26.9373 7.73726 26.4 8.4 26.4H10.8C11.4627 26.4 12 26.9373 12 27.6V30ZM10.8 21.6C11.4627 21.6 12 21.0627 12 20.4V18C12 17.3373 11.4627 16.8 10.8 16.8H8.4C7.73726 16.8 7.2 17.3373 7.2 18V20.4C7.2 21.0627 7.73726 21.6 8.4 21.6H10.8ZM21.6 39.6C21.6 40.2627 21.0627 40.8 20.4 40.8H18C17.3373 40.8 16.8 40.2627 16.8 39.6V37.2C16.8 36.5373 17.3373 36 18 36H20.4C21.0627 36 21.6 36.5373 21.6 37.2V39.6ZM20.4 31.2C21.0627 31.2 21.6 30.6627 21.6 30V27.6C21.6 26.9373 21.0627 26.4 20.4 26.4H18C17.3373 26.4 16.8 26.9373 16.8 27.6V30C16.8 30.6627 17.3373 31.2 18 31.2H20.4ZM21.6 20.4C21.6 21.0627 21.0627 21.6 20.4 21.6H18C17.3373 21.6 16.8 21.0627 16.8 20.4V18C16.8 17.3373 17.3373 16.8 18 16.8H20.4C21.0627 16.8 21.6 17.3373 21.6 18V20.4ZM30 40.8C30.6627 40.8 31.2 40.2627 31.2 39.6V27.6C31.2 26.9373 30.6627 26.4 30 26.4H27.6C26.9373 26.4 26.4 26.9373 26.4 27.6V39.6C26.4 40.2627 26.9373 40.8 27.6 40.8H30ZM31.2 20.4C31.2 21.0627 30.6627 21.6 30 21.6H27.6C26.9373 21.6 26.4 21.0627 26.4 20.4V18C26.4 17.3373 26.9373 16.8 27.6 16.8H30C30.6627 16.8 31.2 17.3373 31.2 18V20.4ZM30 12C30.6627 12 31.2 11.4627 31.2 10.8V6C31.2 5.33726 30.6627 4.8 30 4.8H8.4C7.73726 4.8 7.2 5.33726 7.2 6V10.8C7.2 11.4627 7.73726 12 8.4 12H30Z" fill="currentColor"/>
  <path fill-rule="evenodd" clip-rule="evenodd" d="M48 24C48 10.7452 58.7452 0 72 0C78.3652 0 84.4697 2.52856 88.9706 7.02944C93.4714 11.5303 96 17.6348 96 24C96 37.2548 85.2548 48 72 48C58.7452 48 48 37.2548 48 24ZM71.6317 42.794C71.8672 42.5675 72.0002 42.2548 72 41.928L71.952 34.776C71.9688 34.1565 71.5112 33.6261 70.896 33.552C69.1446 33.3208 67.4872 32.6247 66.096 31.536C65.6314 31.1204 64.9286 31.1204 64.464 31.536L59.352 36.648C59.1096 36.8749 58.9721 37.192 58.9721 37.524C58.9721 37.856 59.1096 38.1731 59.352 38.4C62.5281 41.1876 66.5352 42.8495 70.752 43.128C71.0785 43.1411 71.3962 43.0204 71.6317 42.794ZM72 28.8C69.349 28.8 67.2 26.651 67.2 24C67.2 21.349 69.349 19.2 72 19.2C74.651 19.2 76.8 21.349 76.8 24C76.8 26.651 74.651 28.8 72 28.8ZM79.584 16.416L84.696 11.304C85.1403 10.8244 85.119 10.0774 84.648 9.62396C81.4815 6.81021 77.4735 5.12259 73.248 4.82396C72.9215 4.81089 72.6038 4.93152 72.3683 5.158C72.1327 5.38448 71.9997 5.69721 72 6.02396V13.224C72.0122 13.8591 72.5173 14.3747 73.152 14.4C74.9034 14.6311 76.5608 15.3273 77.952 16.416C78.4166 16.8315 79.1194 16.8315 79.584 16.416Z" fill="currentColor"/>
</svg>
