<svg viewBox="0 0 48 16" xmlns="http://www.w3.org/2000/svg"><g fill="none"><path d="m4.3561285 2c-.52178889 0-.96940686.11172596-1.34299791.33955928-.22064052.13363301-.43652833.3439407-.64449498.62800212v-.75579325h-1.65984461v8.54374965h1.65984461v-3.09619643c.5007618.58535639 1.17535721.8799332 2.01989767.8799332.70037521 0 1.30540837-.19102948 1.81466742-.56958331.4769983-.35299561.81112754-.81187529 1.00454804-1.37649301.11507296.33327926.27983324.63472028.49687322.90549142.56024257.69270094 1.3007997 1.0405849 2.22152739 1.0405849.84886105 0 1.54808415-.35007467 2.09550885-1.05153842v.83611909h1.6598446v-5.74694958l1.9838923 5.60455375-.5832859 1.69414524c.5956718-.12866741 1.1982566.08777425 1.587834.52942035l3.0388478-8.19323685h-1.76426l-1.4078075 3.63291921-1.2205798-3.63291921h-3.2944855v.77404912c-.2419557-.28829678-.4771424-.50123331-.7021035-.63895564-.3735911-.22797937-.79917378-.34321045-1.27458784-.34321045-.57306045 0-1.08664014.14312606-1.54462763.42718748-.45424294.27544465-.80522267.64801055-1.05135494 1.11725957-.08986924.16897639-.16447224.3439407-.22683343.52211804-.21214326-.64304495-.60834565-1.16545509-1.19177563-1.56270293-.49658518-.33999743-1.05466742-.50751334-1.67424673-.50751334zm-.33124881 1.41300476c.46230813 0 .84670077.17364988 1.15216979.52211803.30561304.34876025.45726739.8137739.45726739 1.39474888 0 .44734197-.1106083.83422049-.33124882 1.16107368-.30993367.46034015-.75107068.69007209-1.32859579.69007209-.46662877 0-.85073337-.16225822-1.1521698-.48925746-.3012924-.32714529-.45366685-.7749254-.45366685-1.34728361 0-.48210115.10801592-.88854996.32404775-1.2158413.31828691-.4775737.76345651-.71563031 1.33219633-.71563031zm6.36573811.01094768c.5389274 0 .9613417.20534209 1.2709873.60974624.2546295.33576206.3852568.74410948.3852568 1.230446s-.1440213.91527657-.4284632 1.28521363c-.3266401.42178374-.7414212.63165329-1.24218303.63165329-.41607731 0-.7722418-.1510126-1.06935759-.45639689-.35213189-.35723097-.52567746-.8283786-.52567746-1.40935358 0-.48619047.12630661-.91206353.38525677-1.27791128.29279515-.40893161.70195945-.61339741 1.22418041-.61339741zm4.8751184 7.06137256c-.1258169.0008179-.2555743.0176717-.3816562.0584188-.6731552.217464-1.0424256.9490135-.828122 1.6320753.2143035.6826237.9326814 1.0570882 1.6058366.8397703.6731552-.217464 1.0460262-.9458004.8317226-1.6284241-.1740042-.5546316-.6825742-.9054447-1.227781-.9018403zm-10.85199921 1.4422142c-.10025836.000701-.20193619.0149879-.30244457.0474653-.53662308.1732117-.83301876.7555011-.66249763 1.2998183.17095319.5441711.7417093.8453201 1.27818836.6718162.53619102-.1730657.83316279-.7557932.66249764-1.2998183-.1390162-.44202-.54128937-.7222048-.9757438-.7192815zm7.41349251.4892575c-.1738601.0011683-.3513392.0277033-.5256775.083977-.93008903.3004187-1.44078829 1.3101877-1.14496869 2.252775.29639568.9436097 1.28783779 1.4616384 2.21792689 1.1610737.929657-.3001266 1.4448209-1.3056602 1.1485692-2.2491239-.2402366-.7660901-.9424553-1.2537481-1.6958499-1.2487018zm-4.25222664.7448397c-.12491594.0008178-.25270309.0216243-.37805571.06207-.66782642.2157114-1.03724086.9398124-.82452151 1.6174705.21243131.677366.92735266 1.0515384 1.59503506.8361191.6684025-.2160035 1.03738488-.9401046.82452151-1.6174706-.17295106-.5505972-.6756773-.9018694-1.21697935-.898189z" fill="#0d933a"/><path d="m29.6126556 2.35471792h-1.6358609v-1.31372712h1.6358609zm-3.9718935-2.35471792v3.23302129c-.2923763-.32537486-.5807824-.55128821-.8649347-.67893298-.3507948-.15374037-.7163361-.23068511-1.0967656-.23068511-.7602918 0-1.4329557.28556043-2.0177083.85683042-.6353725.61958413-.9525625 1.46567807-.9525625 2.53753624 0 .94048546.2441668 1.70262613.7329258 2.28716759.5514313.66342474 1.2869094.99506255 2.2060089.99506255.4849306 0 .9132859-.10751388 1.2849243-.32283986.2382115-.1362936.4741543-.37339078.7081121-.71158976v.8171651h1.6358609v-8.78273548zm-.3885117 6.98333195c-.3049958.42185403-.7059852.63270649-1.2033935.63270649-.4343107 0-.8063744-.16686273-1.1154822-.50073731-.3258394-.34729517-.4889008-.81090216-.4889008-1.39082097 0-.45704581.1067698-.85891807.319884-1.20651147.3089661-.50058819.7412916-.75125508 1.2971185-.75125508.4595497 0 .8377105.18460774 1.1344824.55382321.2969136.36474195.4448033.82819982.4448033 1.39067186 0 .49208848-.1293149.91617927-.3885117 1.27212327zm4.3604052 1.79940353h-1.6358609v-6.24191865h1.6358609zm16.5354245-4.83141413v2.99234529c0 .1582139.0353064.26364013.1062027.3164278.0795456.05711209.1983678.08574269.3574591.08574269h1.0970491v1.43689835h-2.1185228c-.3804295 0-.6621714-.09886505-.8462181-.29644603-.1545539-.17178361-.2318309-.47016817-.2318309-.89649573v-7.2917074h1.6358609v2.2097755h1.5607109v1.44345953zm-1.7922581-1.41050452h-1.8865502l-1.6608164 2.39259382v-4.61206196h-1.6357191v4.27759091c-.1183968-.40768785-.3054212-.77526303-.5622076-1.10242731-.6141036-.78212244-1.4478439-1.1731091-2.5007956-1.1731091-.6184992 0-1.1700723.14494242-1.6545775.43482727-.2295622.13763566-.4327509.30315632-.6108424.49507083v-.73261536h-1.862729c-.3468247.03310414-.6566415.12346947-.9321444.27139425-.2299876.12302212-.4433854.30613868-.6380666.54860409-.1958155.24276365-.2930852.57798029-.2930852 1.0047552v4.42730511h1.6369952v-4.21749646c.0262316-.09856682.0747247-.18863392.1461882-.27124514.0618215-.06546268.1484568-.12734653.2594804-.18475685.1110235-.05755944.2550848-.08619005.4324673-.08619005h.7427095c-.2397712.50357055-.3600113 1.04993787-.3600113 1.63895287 0 .93153839.267279 1.69382818.8021206 2.28716759.6352307.70726535 1.4455752 1.06082346 2.4317426 1.06082346.7353363 0 1.3977912-.24127247 1.9867975-.72486124.363698-.29868279.6621713-.69220445.8961291-1.17996852l-1.4916579-.43482727c-.1043593.20667716-.2464355.37339077-.4262285.50088642-.2882643.20637893-.6038945.30971751-.9461818.30971751-.4931546 0-.8940022-.18878304-1.2033936-.56679646-.1796512-.21517687-.29663-.49432524-.3509366-.83699776h4.4982276v2.7155828h1.6357191v-2.59047303l1.6545776 2.59047303h1.892789l-2.0245143-3.24942424zm-9.6875522 2.54424655c.0625306-.32940105.1732706-.5931903.33222-.79106951.2841523-.34684782.6600445-.52056996 1.1282435-.52056996.488759 0 .8813827.17372214 1.1781545.52056996.1712855.19787921.2840106.46166846.3384589.79106951z" fill="#004d86"/></g></svg>
