<svg width="16px" height="16px" viewBox="0 0 16 16" version="1.1" xmlns="http://www.w3.org/2000/svg" xmlns:xlink="http://www.w3.org/1999/xlink">
    <g id="PERCENTAGE-SYSTEM" stroke="none" stroke-width="1" fill="none" fill-rule="evenodd">
        <g id="Icons" transform="translate(-128.000000, -463.000000)" fill="#999999">
            <g id="Card-icon-variations" transform="translate(127.000000, 193.000000)">
                <g id="Icon-percentage" transform="translate(1.000000, 270.000000)">
                    <path d="M15.9890894,8.15570554 L15.9890894,7.99571276 C15.9929798,7.17578353 15.8703079,6.36016339 15.6254036,5.57764011 C15.6173928,5.50047606 15.5925646,5.42600499 15.5526664,5.35946815 C15.344295,4.76383203 15.0659466,4.19503002 14.7234628,3.66499919 C14.7352992,3.51010231 14.6796101,3.35764781 14.5707148,3.24683625 C14.5055496,3.1840885 14.4254292,3.13902898 14.3379558,3.11593307 C14.002521,2.68091969 13.6235344,2.28128918 13.2068929,1.92325965 C13.1476564,1.78881994 13.027083,1.69129505 12.8832126,1.66145329 C9.95096522,-0.596122649 5.85280661,-0.548472148 2.9738632,1.77667222 C0.0949197925,4.10181659 -0.813418182,8.09760345 0.777501565,11.4384867 C2.36842131,14.7793699 6.04337647,16.5933952 9.66354479,15.8248006 C13.2837131,15.0562061 15.9042483,11.9055912 16,8.20661233 C16,8.20661233 15.9890894,8.17388653 15.9890894,8.15570554 Z M11.0356886,10.4501474 L14.7780157,6.70849815 C14.8567239,7.11843883 14.8981109,7.53466797 14.9016688,7.95207837 L11.7230548,11.1301167 L11.0356886,10.4501474 Z M9.58094539,8.99566761 L13.9924543,4.58132146 C14.1620631,4.87899373 14.3091602,5.18893566 14.4325141,5.50855232 L10.2646747,9.67563691 L9.58094539,8.99566761 Z M8.35532419,4.39587529 L8.37714534,4.39587529 L10.922946,1.85053566 C10.9393087,1.82870397 10.9539025,1.80560136 10.9665883,1.78144787 C11.2743406,1.92663842 11.5709455,2.09435996 11.8539817,2.2832434 L8.35168733,5.78490348 L8.35532419,4.39587529 Z M8.35532419,2.86139911 L8.35532419,1.10511477 C8.86602399,1.1314436 9.37222248,1.21437195 9.86462032,1.35237633 L8.35532419,2.86139911 Z M8.35532419,7.77026839 L8.35532419,7.30483486 L8.37714534,7.30483486 L12.7086434,2.97412129 C12.9454334,3.19357131 13.1666073,3.42928551 13.3705516,3.67954399 L8.80993146,8.23933812 L8.35532419,7.77026839 Z M1.08160792,7.99571276 C1.08243447,4.46224017 3.7497881,1.49887636 7.26426675,1.12693196 L7.26426675,7.99571276 C7.26439408,8.14032103 7.32195279,8.27896008 7.42428851,8.3811499 L8.18439186,9.14111559 C8.20040859,9.39927649 8.40624947,9.60508009 8.66445713,9.62109392 L9.63913512,10.5955954 C9.65515185,10.8537563 9.86099273,11.0595599 10.1192004,11.0755737 L11.0938784,12.0500752 C11.1098951,12.3082361 11.315736,12.5140397 11.5739436,12.5300535 L12.3776893,13.3336536 C10.3127558,15.0295302 7.45491682,15.3829846 5.03891044,14.2413056 C2.62290406,13.0996265 1.08186657,10.6674919 1.08160792,7.99571276 Z M13.1596138,12.5736879 L12.4904319,11.9046272 L14.6725468,9.72290751 C14.401445,10.7796629 13.882867,11.7568061 13.1596138,12.5736879 L13.1596138,12.5736879 Z"></path>
                </g>
            </g>
        </g>
    </g>
</svg>
