<svg width="12" height="24" viewBox="0 0 12 24" fill="none" xmlns="http://www.w3.org/2000/svg">
<path d="M3.75 2.1C3.75 2.01716 3.81716 1.95 3.9 1.95H8.1C8.18284 1.95 8.25 2.01716 8.25 2.1C8.25 2.18284 8.18284 2.25 8.1 2.25H3.9C3.81716 2.25 3.75 2.18284 3.75 2.1Z" fill="black"/>
<path d="M9.08725 7.99132C9.14702 7.9572 9.21633 7.94365 9.28456 7.95277C9.35279 7.96189 9.4161 7.99317 9.46482 8.04175L9.46511 8.04203L9.95864 8.5368C10.0071 8.58563 10.0382 8.64898 10.0472 8.71712C10.0563 8.78526 10.0427 8.85473 10.0088 8.91452L9.35111 10.0683L9.35072 10.069C9.32838 10.1077 9.29805 10.1412 9.26173 10.1673C9.2254 10.1934 9.18392 10.2115 9.14005 10.2202L9.13946 10.2203L8.41006 10.3632L7.27015 11.5059L7.05775 11.2941L8.26242 10.0864L9.08136 9.92603C9.08327 9.92563 9.0851 9.92483 9.08672 9.92366C9.08834 9.9225 9.08982 9.92083 9.09087 9.91907L9.74807 8.7661C9.74966 8.76326 9.7503 8.75995 9.74987 8.75667C9.74943 8.75341 9.74789 8.75036 9.74567 8.74809L9.25293 8.25412C9.25068 8.2519 9.24782 8.25053 9.24482 8.25012C9.2418 8.24972 9.23867 8.25034 9.23597 8.25186L8.08247 8.91265L8.07962 8.91413C8.07783 8.91505 8.07623 8.91636 8.07493 8.91799C8.07402 8.91914 8.07327 8.92043 8.07273 8.92181L7.91052 9.7349L6.7062 10.9422L6.4938 10.7304L7.63406 9.58725L7.78053 8.85309L7.78153 8.84918C7.79253 8.80622 7.81248 8.76605 7.84009 8.73131C7.86692 8.69755 7.90041 8.66967 7.93847 8.6494L9.08725 7.99132Z" fill="black"/>
<path d="M2.28742 14.0834L4.17686 12.1939L4.38899 12.4061L2.49955 14.2955C2.33977 14.4553 2.25 14.672 2.25 14.898C2.25 15.1239 2.33977 15.3407 2.49955 15.5004C2.65934 15.6602 2.87605 15.75 3.10203 15.75C3.328 15.75 3.54471 15.6602 3.7045 15.5004L5.59393 13.611L5.80607 13.8231L3.91663 15.7126C3.70058 15.9286 3.40756 16.05 3.10203 16.05C2.79649 16.05 2.50347 15.9286 2.28742 15.7126C2.07137 15.4965 1.95 15.2035 1.95 14.898C1.95 14.5924 2.07137 14.2994 2.28742 14.0834Z" fill="black"/>
<path fill-rule="evenodd" clip-rule="evenodd" d="M3.6145 7.9688C3.93917 7.92322 4.27009 7.96085 4.57623 8.07815C4.88248 8.19548 5.15388 8.3887 5.36496 8.63966C5.57604 8.89062 5.71988 9.19109 5.78297 9.51287C5.8401 9.80423 5.82933 10.1044 5.75203 10.3902L9.75741 14.398C9.84879 14.4865 9.92171 14.5922 9.97193 14.7091C10.0223 14.8264 10.0489 14.9526 10.05 15.0802C10.0511 15.2079 10.0267 15.3345 9.97839 15.4526C9.93004 15.5708 9.85863 15.6781 9.76834 15.7684C9.67806 15.8587 9.57069 15.9301 9.45252 15.9784C9.33435 16.0268 9.20773 16.0511 9.08005 16.05C8.95238 16.0489 8.8262 16.0223 8.70888 15.972C8.59198 15.9217 8.4862 15.8488 8.39768 15.7575L4.39067 11.7497C4.10481 11.827 3.80459 11.8377 3.51318 11.7806C3.19135 11.7175 2.89082 11.5737 2.63981 11.3627C2.3888 11.1517 2.19554 10.8803 2.07818 10.5741C1.96081 10.2679 1.92319 9.93695 1.96885 9.61224C1.9768 9.55476 2.00062 9.50062 2.03762 9.45592C2.07477 9.41105 2.12372 9.37747 2.17894 9.35895C2.23416 9.34044 2.29346 9.33774 2.35014 9.35115C2.40654 9.3645 2.45812 9.39327 2.49909 9.43426L3.34109 10.2647C3.34397 10.2676 3.34673 10.2705 3.34936 10.2736C3.34936 10.2736 3.35296 10.2774 3.36063 10.2825C3.36846 10.2877 3.37955 10.2936 3.39403 10.299C3.42268 10.3097 3.46402 10.3177 3.518 10.313C3.62487 10.3036 3.79428 10.242 4.01272 10.0236C4.44613 9.59032 4.2774 9.35306 4.26594 9.3416L4.26512 9.34078L3.43613 8.49899C3.39518 8.45803 3.36641 8.40649 3.35307 8.35011C3.33965 8.29343 3.34235 8.23412 3.36087 8.17889C3.37939 8.12367 3.41299 8.07473 3.45787 8.03759C3.50266 8.00053 3.55691 7.9767 3.6145 7.9688ZM4.4689 8.35829C4.21012 8.25914 3.93038 8.22735 3.65594 8.26592L3.65532 8.26601C3.65304 8.26632 3.65089 8.26726 3.64912 8.26873C3.64735 8.27019 3.64603 8.27211 3.6453 8.27428C3.64458 8.27645 3.64447 8.27878 3.645 8.281C3.64552 8.28323 3.64666 8.28526 3.64829 8.28688L3.64942 8.28802L4.47852 9.12992C4.6453 9.29731 4.7324 9.72833 4.22483 10.2358C3.7246 10.7359 3.29101 10.6573 3.12676 10.4747L2.28799 9.64742L2.28696 9.64639C2.28535 9.64476 2.2833 9.64362 2.28106 9.64309C2.27882 9.64256 2.27647 9.64266 2.27429 9.6434C2.27211 9.64413 2.27018 9.64545 2.26872 9.64722C2.26725 9.64899 2.26632 9.65112 2.26601 9.65339L2.26592 9.65401C2.22735 9.92837 2.25914 10.208 2.3583 10.4668C2.45747 10.7255 2.62077 10.9547 2.83287 11.1331C3.04497 11.3114 3.29892 11.4329 3.57088 11.4862C3.84284 11.5395 4.12388 11.5229 4.38763 11.4378C4.44121 11.4205 4.49995 11.4347 4.53975 11.4745L8.61071 15.5462L8.61252 15.5481C8.67355 15.6112 8.74655 15.6616 8.82727 15.6963C8.90799 15.731 8.99481 15.7492 9.08266 15.75C9.17051 15.7507 9.25763 15.734 9.33894 15.7007C9.42025 15.6675 9.49412 15.6184 9.55624 15.5563C9.61835 15.4942 9.66748 15.4203 9.70074 15.339C9.734 15.2577 9.75074 15.1706 9.74998 15.0828C9.74921 14.995 9.73096 14.9082 9.69629 14.8275C9.66162 14.7468 9.61122 14.6738 9.54803 14.6128L9.54613 14.611L5.4768 10.5392C5.43701 10.4994 5.42286 10.4407 5.44014 10.3871C5.52522 10.1234 5.54189 9.84248 5.48858 9.57059C5.43527 9.29871 5.31373 9.04482 5.13537 8.83276C4.95701 8.62071 4.72768 8.45744 4.4689 8.35829Z" fill="black"/>
<path fill-rule="evenodd" clip-rule="evenodd" d="M10.2 0H1.8C0.84 0 0 0.78 0 1.8V22.2C0 23.16 0.78 24 1.8 24H10.2C11.16 24 12 23.22 12 22.2V1.8C12 0.78 11.22 0 10.2 0ZM10.2 0.600001C10.86 0.600001 11.4 1.14 11.4 1.8V22.2C11.4 22.86 10.86 23.4 10.2 23.4H1.80001C1.14001 23.4 0.600006 22.86 0.600006 22.2V1.8C0.600006 1.14 1.14001 0.600001 1.80001 0.600001H10.2Z" fill="black"/>
</svg>
