<svg id="logo" xmlns="http://www.w3.org/2000/svg" viewBox="0 0 595.28 161.57"><path id="background" d="M0,0H595.28V161.57H0Z" style="fill:#05171c;fill-rule:evenodd"/><g id="logo-2" data-name="logo"><path id="text" d="M287.32,37.06h24.77l15.46,87.45H308.28l-7.92-67.63h-.88l-8.28,67.63H271.86l15.46-87.46M462.66,80v1.34l10.53,43.09h19.12l-11.24-38v-.24l.42-.34c5.16-4.25,8.11-12.07,8.11-21.7v-1.5c0-7.93-2.47-14.55-7.13-19.15-4.33-4.27-10.09-6.5-17-6.47h-24v87.38h18.45V51.33h2.93c6.9,0,8.28,7.14,8.42,12.17,0,.08,0,3.85,0,4.28-.34,8.41-4,11.38-6.89,11.93,0,0-.07,0-.08,0l-1.59.27m-244-20.12c0,13.66,8.32,20.55,15.95,26.72l2,1.63c6.7,5.5,10.59,11,10.59,15.42V104c0,6.28-2.64,7.68-5.37,7.68s-5.57-2.68-5.57-8.11V97H217.92v5.75c0,14,9.61,23.42,23.9,23.42,15.29,0,24.36-8.53,24.36-22.91v-.77c0-13.92-6.06-19.31-15.68-27.58l-4.28-3.64c-4.8-4-8.56-7.69-8.56-12.5v-.48c0-2.64.87-7.36,5.42-7.36,4.22,0,5.18,5.46,5.18,8.27v5.88h17.81v-6c0-14.42-9-23.73-23-23.73-11.77,0-24.43,7.31-24.43,23.37M325.28,37.06V52.19h13.89v72.25H357.9V52.19h11.9V37.06H325.28m84.2,0v66.26c0,6.64-3.53,7.53-5.38,7.53-3.2,0-5.37-2.64-5.37-7.53V37.06H380.06v68.37c0,12.56,9.44,20.66,24,20.66s24-8.1,24-20.66V37.06H409.48m130.5,0,1,62.57h-.47l-14.2-62.57H501.74v87.46h18.65L518.88,61.7h.47l14.46,62.81h24.3V37.06H540" style="fill:#fff"/><path id="signet" d="M168.59,73.87c0,.11.15,1.69.2,2.82,0,.78,0,2,0,2.06l.21.17C178.85,87,189.31,98,191.1,106.11a8.68,8.68,0,0,1-.5,6c-1,2-3,3.47-5.75,4.4-14.12,4.83-47.79-4.43-75.26-18C90,88.8,72.73,77.24,61.07,65.93c-10.83-10.49-13.77-18.7-11-23.64a10.05,10.05,0,0,1,5.35-4.2c9-3.49,26.14-1.05,43.06,4a45.55,45.55,0,0,0-16.17,22.1v.09c-.79,7.38,9.9,17,20.7,22.42,0,0,.58.22.58.18s-.11-.75-.11-.78c-2.53-18.35,11.37-45.81,26-51.84.94-.38,1.75-.61,1.87-.65-.1,0-4.68-.35-5.34-.36a44.44,44.44,0,0,0-23.46,6.15C74.32,29.7,53.66,28.57,45,31.45c-3.43,1.15-5.75,2.9-6.9,5.19s-1.21,5.45,0,9C42,57.4,59.2,73.47,81,87.74c3.16,16.6,18,33.63,39.35,35.9l1,.1s.37,0,.35,0l-1.19-.91c-6.59-5.07-12.51-13.44-14.54-20.7.42.22,1.94,1,2.27,1.13,34.39,17,70.48,25.67,86.46,20.33,3.57-1.2,6.2-2.88,7.41-5.3s1-5.37-.2-8.81c-3-9-15.89-22.66-32.25-34.87l-1-.74" style="fill:#ef7d00"/></g></svg>