<?xml version="1.0" encoding="UTF-8"?>
<svg viewBox="0 0 609 113" version="1.1" xmlns="http://www.w3.org/2000/svg" xmlns:xlink="http://www.w3.org/1999/xlink">
    <!-- Generator: Sketch 58 (84663) - https://sketch.com -->
    <title>Group 16</title>
    <desc>Created with Sketch.</desc>
    <defs>
        <polygon id="path-1" points="0 0.687 193.532435 0.687 193.532435 111.823383 0 111.823383"></polygon>
    </defs>
    <g id="Page-1" stroke="none" stroke-width="1" fill="none" fill-rule="evenodd">
        <g id="Group-16" transform="translate(0.000000, -1.000000)">
            <polygon id="Fill-1" fill="#FFFFFF" points="292.2906 9.1748 274.2236 111.3868 296.8256 111.3908 306.5036 32.3488 307.5246 32.3488 316.7896 111.3838 339.3076 111.3868 321.2396 9.1868"></polygon>
            <g id="Group-15" transform="translate(0.000000, 0.313000)">
                <path d="M497.2086,59.064 L497.2086,60.632 L509.5006,110.98 L531.8596,110.98 L518.7166,66.602 L518.7166,66.31 L519.2156,65.91 C525.2456,60.949 528.6866,51.806 528.6866,40.559 L528.6866,38.808 C528.6866,29.543 525.8056,21.798 520.3576,16.424 C515.2886,11.439 508.5646,8.826 500.4796,8.86163298 L472.3936,8.86163298 L472.3936,110.98 L491.1896,110.98 L493.9496,110.91 L493.9496,25.738 L493.9626,25.543 L497.3916,25.543 C505.4516,25.543 507.0686,33.884 507.2276,39.756 C507.2276,39.854 507.2386,40.632 507.2386,41.386 C507.2386,42.006 507.2516,42.869 507.2516,42.869 C507.2516,43.416 507.2386,44.255 507.2026,44.766 C506.8016,54.602 502.4976,58.067 499.1666,58.711 C499.1536,58.711 499.0686,58.736 499.0566,58.736 L497.2086,59.064" id="Fill-2" fill="#FFFFFF"></path>
                <path d="M212.0333,34.188 L212.0333,35.55 C212.0333,51.514 221.7603,59.563 230.6723,66.773 L233.0183,68.669 C240.8363,75.101 245.3953,81.545 245.3953,86.695 L245.3953,87.076 C245.3953,94.408 242.3073,96.042 239.1103,96.042 C236.0953,96.042 232.6053,92.916 232.6053,86.574 L232.6053,78.917 L211.1943,78.917 L211.1943,85.631 C211.1943,102.003 222.4163,113 239.1103,113 C256.9833,113 267.5973,103.038 267.5973,86.233 L267.5973,85.33 C267.5973,69.071 260.4963,62.772 249.2623,53.094 L247.4873,51.575 C247.4743,51.563 244.2533,48.851 244.2533,48.851 C238.6483,44.17 234.2593,39.866 234.2593,34.237 L234.2593,33.677 C234.2593,30.589 235.2673,25.069 240.5933,25.069 C245.5173,25.069 246.6483,31.452 246.6483,34.735 L246.6483,41.605 L267.4513,41.605 L267.4513,34.602 C267.4513,17.762 256.9093,6.88 240.5933,6.88 C226.8293,6.88 212.0333,15.428 212.0333,34.188" id="Fill-4" fill="#FFFFFF"></path>
                <polygon id="Fill-6" fill="#FFFFFF" points="336.6568 8.8618 336.6568 26.5518 352.8768 26.5518 352.8768 110.9798 374.7728 110.9798 374.7728 26.5518 388.6818 26.5518 388.6818 8.8618"></polygon>
                <path d="M435.0553,8.8618 L435.0553,86.2998 C435.0553,94.0648 430.9333,95.1048 428.7693,95.1048 C425.0243,95.1048 422.4953,92.0178 422.4953,86.2998 L422.4953,8.8618 L400.6703,8.8618 L400.6703,88.7718 C400.6703,103.4418 411.6993,112.9098 428.7693,112.9098 C445.8393,112.9098 456.8793,103.4418 456.8793,88.7718 L456.8793,8.8618 L435.0553,8.8618" id="Fill-8" fill="#FFFFFF"></path>
                <polygon id="Fill-10" fill="#FFFFFF" points="587.5582 8.8618 588.7012 81.9898 588.1542 81.9898 571.5452 8.8618 542.8752 8.8618 542.8752 111.0738 564.6632 111.0738 562.9122 37.6658 563.4592 37.6658 580.3602 111.0658 608.7492 111.0738 608.7492 8.8618"></polygon>
                <g id="Group-14">
                    <mask id="mask-2" fill="white">
                        <use xlink:href="#path-1"></use>
                    </mask>
                    <g id="Clip-13"></g>
                    <path d="M153.5269,51.8906 C153.5389,52.0126 153.7089,53.8606 153.7699,55.1736 C153.8189,56.0856 153.7699,57.5076 153.7699,57.5926 C153.7949,57.5926 154.0009,57.7756 154.0129,57.7876 C165.5269,67.2226 177.7459,80.0986 179.8499,89.5566 C180.4329,92.1756 180.2999,94.5386 179.2659,96.5586 C178.0379,98.9246 175.7279,100.6176 172.5429,101.7066 C156.0439,107.3426 116.6989,96.5286 84.5889,80.6646 C61.6459,69.3256 41.5109,55.8176 27.8869,42.6136 C15.2239,30.3336 11.7949,20.7526 15.0659,14.9776 C16.3099,12.7886 18.4519,11.1716 21.3199,10.0656 C31.7929,5.9806 51.8679,8.8376 71.6279,14.7346 C62.2779,21.7136 55.7609,31.1366 52.7449,40.5586 C52.7449,40.5716 52.7339,40.6076 52.7339,40.6076 C52.7339,40.6196 52.7259,40.6566 52.7259,40.6566 C51.8009,49.2886 64.2969,60.5716 76.9169,66.8696 C76.9039,66.8206 77.5979,67.1256 77.5979,67.0766 C77.5859,67.0276 77.4759,66.2006 77.4639,66.1646 C74.5089,44.7176 90.7529,12.6196 107.8229,5.5786 C108.9179,5.1296 109.8659,4.8616 109.9999,4.8136 C109.8899,4.8016 107.9079,4.6066 107.7989,4.5946 C107.2029,4.5456 106.6079,4.4966 105.9629,4.4726 C105.2699,4.4366 104.5409,4.4116 103.7619,4.3996 C93.2569,4.2536 84.0289,7.0506 76.3449,11.5856 C43.3669,0.2656 19.2159,-1.0594 9.1239,2.3086 C5.1139,3.6586 2.4009,5.6886 1.0619,8.3756 C-0.3451,11.1966 -0.3551,14.7466 1.0389,18.9046 C5.6329,32.6436 25.7029,51.4166 51.1269,68.0856 C54.8129,87.4926 72.2119,107.3996 97.1119,110.0486 C97.1599,110.0516 98.1939,110.1626 98.2549,110.1676 C98.2309,110.1476 98.6799,110.1776 98.6559,110.1626 C98.5829,110.0966 97.3429,109.1596 97.2699,109.1036 C89.5619,103.1726 82.6429,93.3916 80.2729,84.9066 C80.7709,85.1606 81.2699,85.4076 81.7679,85.6616 C82.1569,85.8576 82.5339,86.0466 82.9229,86.2346 C123.1189,106.1036 165.2959,116.2326 183.9599,109.9886 C188.1419,108.5916 191.2179,106.6206 192.6289,103.7966 C193.9779,101.0946 193.7469,97.5156 192.3969,93.4946 C188.8829,83.0076 173.8189,67.0156 154.6939,52.7536 C154.6329,52.7046 153.5999,51.9276 153.5269,51.8906" id="Fill-12" fill="#EB680B" mask="url(#mask-2)"></path>
                </g>
            </g>
        </g>
    </g>
</svg>
