<svg xmlns="http://www.w3.org/2000/svg" xmlns:xlink="http://www.w3.org/1999/xlink" viewBox="0 0 100 100" version="1.1">
    <g id="1--Shopping-cart" stroke="none" stroke-width="1" fill="none" fill-rule="evenodd">
        <g id="Empty-Cart---XL" transform="translate(-566.000000, -249.000000)" fill-rule="nonzero">
            <g id="003-bag-1" transform="translate(566.000000, 249.000000)">
                <polygon id="Path" fill="#4C4A4A" points="4.54545455 0 94.6969697 0 94.6969697 77.2727273 4.62300432 77.2727273"/>
                <path d="M0,18.7499876 L0,94.2968284 C0,97.9687497 2.96871994,100 6.64064127,100 L93.3593587,100 C97.0312801,100 100,97.9687497 100,94.2968284 L100,18.7499876 C100,18.8281431 0.0781555295,18.7499876 0,18.7499876 Z M14.0624411,6.32801915 L4.68754649,0 L4.68754649,15.6249566 L14.0626395,15.6249566 L14.0624411,6.32801915 L14.0624411,6.32801915 Z M95.3124535,0 L85.9373605,6.25006199 L85.9373605,15.6249566 L95.3124535,15.6249566 L95.3124535,0 Z" id="Shape" fill="#CDCACA"/>
                <path d="M14.1075192,18.9393939 L14.1075192,6.81818182 L0,18.9393939 L14.1075192,18.9393939 Z M85.8145081,6.81818182 L85.8145081,18.9392016 L100,18.9392016 L85.8145081,6.81818182 Z" id="Shape" fill="#958F8F"/>
                <path d="M22.4552414,37.1212121 C20.1244088,37.1212121 18.1818182,39.0150816 18.1818182,41.2878788 C18.1818182,43.560676 20.0464843,45.4545455 22.4552414,45.4545455 C24.786074,45.4545455 26.7286647,43.560676 26.7286647,41.2878788 C26.806392,39.0152739 24.8638013,37.1212121 22.4552414,37.1212121 Z M74.5122126,37.1212121 C72.18138,37.1212121 70.2387893,39.0150816 70.2387893,41.2878788 C70.2387893,43.560676 72.1034554,45.4545455 74.5122126,45.4545455 C76.8430452,45.4545455 78.7856358,43.560676 78.7856358,41.2878788 C78.8631658,39.0152739 76.9207725,37.1212121 74.5122126,37.1212121 Z" id="Shape" fill="#958F8F"/>
                <path d="M48.4850462,71.969697 C32.9905263,71.969697 20.4545455,58.318939 20.4545455,41.4881177 C20.4545455,40.3246416 21.3109698,39.3939394 22.4010723,39.3939394 C23.4911748,39.3939394 24.3475992,40.3246416 24.3475992,41.4881177 C24.3475992,55.9919866 35.1705336,67.7037489 48.4848485,67.7037489 C61.7991633,67.7037489 72.6220978,55.9143953 72.6220978,41.4881177 C72.6220978,40.3246416 73.4785222,39.3939394 74.5686247,39.3939394 C75.6587271,39.3939394 76.5151515,40.3246416 76.5151515,41.4881177 C76.5151515,58.318939 63.901871,71.969697 48.4850462,71.969697 Z" id="Path" fill="#958F8F"/>
                <path d="M48.4850462,69.6969697 C32.9905263,69.6969697 20.4545455,56.9992709 20.4545455,41.3414064 C20.4545455,40.2507774 21.3109698,39.3939394 22.4010723,39.3939394 C23.4911748,39.3939394 24.3475992,40.2507774 24.3475992,41.3414064 C24.3475992,54.8180129 35.1705336,65.8020356 48.4848485,65.8020356 C61.7991633,65.8020356 72.6220978,54.8182107 72.6220978,41.3414064 C72.6220978,40.2507774 73.4785222,39.3939394 74.5686247,39.3939394 C75.6587271,39.3939394 76.5151515,40.2507774 76.5151515,41.3414064 C76.5151515,56.9994687 63.901871,69.6969697 48.4850462,69.6969697 Z" id="Path" fill="#FFFFFF"/>
            </g>
        </g>
    </g>
</svg>
