<svg width="15" height="24" viewBox="0 0 31 48" fill="none" xmlns="http://www.w3.org/2000/svg">
<path fill-rule="evenodd" clip-rule="evenodd" d="M6.54545 0H24C27.615 0 30.5455 2.9305 30.5455 6.54545V41.4545C30.5455 45.0695 27.615 48 24 48H6.54545C2.9305 48 0 45.0695 0 41.4545V6.54545C0 2.9305 2.9305 0 6.54545 0ZM6.54544 43.6364H24C25.205 43.6364 26.1818 42.6595 26.1818 41.4545V6.54545C26.1818 5.34047 25.205 4.36364 24 4.36364C22.795 4.36364 21.8182 5.34047 21.8182 6.54545C21.8182 7.75044 20.8413 8.72727 19.6364 8.72727H10.9091C9.7041 8.72727 8.72726 7.75044 8.72726 6.54545C8.72726 5.34047 7.75043 4.36364 6.54544 4.36364C5.34046 4.36364 4.36363 5.34047 4.36363 6.54545V41.4545C4.36363 42.6595 5.34046 43.6364 6.54544 43.6364Z" fill="black"/>
</svg>
