<svg width="103" height="24" viewBox="0 0 107 48" fill="none" xmlns="http://www.w3.org/2000/svg">
<path fill-rule="evenodd" clip-rule="evenodd" d="M78 0H102C104.651 0 106.8 2.14903 106.8 4.8V43.2C106.8 45.851 104.651 48 102 48H78C75.349 48 73.2 45.851 73.2 43.2V4.8C73.2 2.14903 75.349 0 78 0ZM94.7999 9.59997C94.7999 6.949 92.6509 4.79997 89.9999 4.79997C87.349 4.79997 85.1999 6.949 85.1999 9.59997C85.1999 12.2509 87.349 14.4 89.9999 14.4C92.6509 14.4 94.7999 12.2509 94.7999 9.59997ZM90 43.2C83.3726 43.2 78 37.8274 78 31.2C78 24.5726 83.3726 19.2 90 19.2C96.6275 19.2 102 24.5726 102 31.2C102 37.8274 96.6275 43.2 90 43.2ZM85.1999 31.2C85.1999 28.5491 87.349 26.4 89.9999 26.4C92.6509 26.4 94.7999 28.5491 94.7999 31.2C94.7999 33.851 92.6509 36 89.9999 36C87.349 36 85.1999 33.851 85.1999 31.2Z" fill="black"/>
<path fill-rule="evenodd" clip-rule="evenodd" d="M2.66667 0H61.3333C62.8061 0 64 1.19391 64 2.66667V40C64 41.4728 62.8061 42.6667 61.3333 42.6667H45.3333V46.6667C45.3333 47.403 44.7364 48 44 48H20C19.2636 48 18.6667 47.403 18.6667 46.6667V42.6667H2.66667C1.19391 42.6667 0 41.4728 0 40V2.66667C0 1.19391 1.19391 0 2.66667 0ZM5.3334 37.3334H58.6667V5.3334H5.3334V37.3334Z" fill="black"/>
</svg>
