<svg viewBox="0 0 18 15" fill="none" xmlns="http://www.w3.org/2000/svg">
<path fill-rule="evenodd" clip-rule="evenodd" d="M16.3321 11.1861C17.7916 9.72738 17.7916 7.36372 16.3321 5.90505C14.8725 4.44637 12.5075 4.44637 11.0479 5.90505C9.58833 7.36372 9.58833 9.72738 11.0479 11.1861C12.5134 12.6388 14.8725 12.6388 16.3321 11.1861ZM11.6853 10.549C10.5773 9.4416 10.5773 7.64355 11.6853 6.53615C12.7934 5.42874 14.5925 5.42874 15.7006 6.53615C16.8087 7.64355 16.8087 9.4416 15.7006 10.549C14.5925 11.6564 12.7934 11.6564 11.6853 10.549ZM11.0538 12.0613V11.1861H10.1722L7.53304 13.8236V14.2642L7.97388 14.7048H8.41473L11.0538 12.0613Z" fill="white"/>
<path fill-rule="evenodd" clip-rule="evenodd" d="M9.50278 4.19257C9.50278 4.70787 9.4156 5.19095 9.24125 5.64184C9.06689 6.09273 8.82716 6.48564 8.52204 6.82059C8.21691 7.15553 7.86167 7.41962 7.4563 7.61286C7.05092 7.8061 6.61722 7.90271 6.15518 7.90271C5.69314 7.90271 5.25943 7.8061 4.85406 7.61286C4.44868 7.41962 4.09344 7.15553 3.78832 6.82059C3.4832 6.48564 3.24346 6.09273 3.06911 5.64184C2.89475 5.19095 2.80758 4.70787 2.80758 4.19257C2.80758 3.67727 2.89475 3.19418 3.06911 2.74329C3.24346 2.2924 3.4832 1.89949 3.78832 1.56455C4.09344 1.2296 4.44868 0.965515 4.85406 0.772277C5.25943 0.579039 5.69314 0.482422 6.15518 0.482422C6.61722 0.482422 7.05092 0.579039 7.4563 0.772277C7.86167 0.965515 8.21691 1.2296 8.52204 1.56455C8.82716 1.89949 9.06689 2.2924 9.24125 2.74329C9.4156 3.19418 9.50278 3.67727 9.50278 4.19257ZM6.15518 8.72719C6.96593 8.72719 7.72654 8.7916 8.43704 8.92043C8.62415 8.95435 8.80507 8.99156 8.97979 9.03203C9.01731 9.3976 9.09464 9.75136 9.20737 10.0889L6.44672 12.8496H0.296875V11.2006C0.296875 10.8571 0.449433 10.535 0.754555 10.2344C1.05968 9.93384 1.47812 9.6719 2.00991 9.44861C2.54169 9.22531 3.16282 9.04925 3.87332 8.92043C4.58381 8.7916 5.34443 8.72719 6.15518 8.72719Z" fill="white"/>
</svg>
