<svg viewBox="0 0 53 15" xmlns="http://www.w3.org/2000/svg" xmlns:xlink="http://www.w3.org/1999/xlink"><mask id="a" fill="#fff"><path d="m.4536.26h1.86362511v1.8475h-1.86362511z" fill="#fff" fill-rule="evenodd"/></mask><mask id="b" fill="#fff"><path d="m0 .6245h16.0417v10.375h-16.0417z" fill="#fff" fill-rule="evenodd"/></mask><g fill="none" fill-rule="evenodd"><path d="m26.1279 10.4129c-.033.263-.086.475-.159.635-.072.16-.168.273-.285.34-.118.066-.262.099-.431.099-.097 0-.182-.006-.254-.018s-.133-.024-.181-.036c-.024-.084-.048-.181-.073-.29-.024-.109-.045-.24-.063-.395-.018-.153-.033-.332-.046-.534-.012-.203-.018-.437-.018-.703 0-.399.017-.73.05-.993s.086-.474.159-.634c.072-.16.168-.274.285-.34.119-.067.262-.1.431-.1.091 0 .172.006.245.018.072.013.136.024.19.036.025.085.048.182.073.29.024.109.045.239.063.39.018.152.034.328.046.531.011.202.018.439.018.711 0 .399-.017.73-.05.993m.879-3.386c-.142-.236-.332-.405-.571-.508s-.539-.154-.902-.154c-.768 0-1.318.271-1.65.812-.333.541-.499 1.331-.499 2.37 0 .562.031 1.037.091 1.424.06.386.163.698.308.933.145.236.337.405.576.508s.536.154.893.154c.387 0 .715-.068.983-.204.269-.136.49-.338.663-.607.172-.269.297-.601.375-.997.079-.396.119-.857.119-1.383 0-.562-.029-1.035-.087-1.419-.057-.383-.157-.693-.299-.929m3.6537 1.8811c-.027.13-.072.233-.136.308-.063.076-.147.127-.249.154-.103.028-.227.041-.372.041h-.363v-1.931c.067-.012.147-.019.241-.023.093-.003.192-.004.295-.004.114 0 .215.006.303.018s.153.024.195.036c.03.067.059.172.086.318.027.145.041.338.041.58 0 .205-.014.373-.041.503m1.061.548c.118-.314.177-.725.177-1.233 0-.326-.028-.602-.082-.829s-.147-.412-.277-.558c-.129-.145-.306-.25-.53-.317-.224-.066-.502-.1-.834-.1-.447 0-.81.007-1.088.018-.278.013-.532.025-.761.037v5.983h1.214v-2.13h.445l.843 2.194 1.278-.091-.997-2.285c.29-.145.494-.374.612-.689m4.9908-2.9821h-1.27l-1.124 2.438-.244.01v-2.448h-1.215v5.983h1.215v-2.493h.217l1.179 2.548 1.314-.081-1.487-2.993zm1.8945 3.8257.417-2.04c.037-.181.062-.335.077-.462s.029-.242.041-.345h.027c.006.103.019.218.037.345s.042.278.072.453l.371 2.049zm-.163-3.826-1.478 5.984h1.215l.245-1.188h1.396l.218 1.188h1.26l-1.351-5.984zm5.621 2.9378-.526-.589c-.157-.163-.276-.31-.358-.44s-.122-.274-.122-.431c0-.175.052-.297.158-.367.106-.069.256-.104.449-.104.217 0 .405.015.562.045.157.031.287.057.39.082l.072-1.088c-.084-.025-.222-.053-.412-.087-.191-.033-.44-.049-.748-.049-.556 0-.984.131-1.283.394s-.449.657-.449 1.183c0 .163.021.316.064.458.042.142.098.277.167.404.07.127.146.243.227.348.082.106.162.201.24.286l.535.599c.091.103.168.194.232.276.063.081.113.16.149.236.036.075.064.149.082.222.018.072.027.154.027.245 0 .06-.003.117-.009.172-.006.054-.018.109-.036.163-.14.036-.312.054-.517.054-.254 0-.481-.022-.68-.068-.2-.045-.354-.086-.463-.122l-.018 1.16c.097.031.253.064.467.101.215.036.455.054.721.054.58 0 1.021-.148 1.324-.445.302-.296.453-.701.453-1.214 0-.327-.071-.606-.213-.839s-.304-.446-.485-.639m3.6807 0-.526-.589c-.157-.163-.276-.31-.358-.44s-.122-.274-.122-.431c0-.175.052-.297.158-.367.106-.069.256-.104.449-.104.218 0 .405.015.562.045.157.031.287.057.39.082l.072-1.088c-.084-.025-.222-.053-.412-.087-.191-.033-.44-.049-.748-.049-.556 0-.984.131-1.283.394s-.449.657-.449 1.183c0 .163.021.316.064.458.042.142.098.277.167.404.07.127.146.243.227.348.082.106.162.201.241.286l.534.599c.091.103.168.194.232.276.063.081.113.16.149.236.036.075.064.149.082.222.018.072.027.154.027.245 0 .06-.003.117-.009.172-.006.054-.018.109-.036.163-.14.036-.312.054-.517.054-.254 0-.48-.022-.68-.068-.199-.045-.354-.086-.463-.122l-.018 1.16c.097.031.253.064.467.101.215.036.455.054.721.054.58 0 1.021-.148 1.324-.445.302-.296.453-.701.453-1.214 0-.327-.071-.606-.213-.839s-.304-.446-.485-.639m2.7832 1.9307v-1.378h1.523v-1.06h-1.523v-1.333h1.577l.055-1.097h-2.847v5.983h2.856v-1.115zm-29.5005-1.2417c-.049.235-.086.462-.113.68-.028.217-.054.432-.077.643h-.028c-.018-.211-.041-.428-.068-.652s-.059-.447-.095-.671l-.524-2.952-1.016.91.933 4.399h1.559l1.387-5.983h-1.251z" fill="#979797"/><g fill="#dc1f26"><path d="m12.2461 12.3855 1.419-.474-1.29-1.29-.473 1.42c-.071.213.132.415.344.344m.7715-2.6606 1.545 1.545c.81-.81 7.622-7.603 8.819-8.801l-1.545-1.545z"/><path d="m1.9976.5625c-.191-.192-.473-.303-.771-.303-.299 0-.581.111-.773.303l1.545 1.545c.425-.425.425-1.118-.001-1.545" mask="url(#a)" transform="translate(22 -.26)"/><path d="m8.5557 3.4165v-1.06h2.934l-.906 1.06zm-6.306 5.773h6.306v-1.06h-6.306zm0-2.847h5.167v-1.06h-5.167zm0-2.926h5.167v-1.06h-5.167zm13.125 5.036-.027.009-.009.009-.004-.005-3.609 1.205c-.546.183-1.066-.337-.884-.884l1.203-3.61 1.467-1.563 2.53-2.525v-.464h-16.042v10.375h16.042v-3.231c-.314.313-.549.547-.676.675z" mask="url(#b)" transform="translate(0 3.74)"/></g></g></svg>
