<svg viewBox="0 0 610 546" xmlns="http://www.w3.org/2000/svg"><g fill="none" fill-rule="evenodd"><g fill="#0075bf"><path d="m105 152h200v256h-200z"/><path d="m191 152h314v256h-314z"/></g><path d="m150 118h314v324h-314z" fill="#009fe3"/><g fill="#fff" transform="translate(200 342)"><path d="m0 0h214v42h-214z"/><path d="m34 53h146v13h-146z"/></g><path d="m167.75 30.5c-17.467333.5442801-33.970549 8.1357591-45.75 21.045-11.779451-12.9092409-28.2826666-20.5007199-45.75-21.045-30.8819223 0-55.9166667 25.0347444-55.9166667 55.9166667 0 39.8533333 48.2916667 83.8750003 71.1666667 106.7500003l8.0316667 8.031666 15.1483333 15.148334 7.32 7.32 7.32-7.116667 7.523333-7.523333 15.656667-15.86c22.875-22.875 71.166667-66.896667 71.166667-106.7500003 0-14.8300221-5.891204-29.0526451-16.377613-39.5390542-10.486409-10.4864092-24.709032-16.3776125-39.539054-16.3776125z" fill="#ef7c00" transform="translate(183 53)"/></g></svg>