<svg id="Layer_1" data-name="Layer 1" xmlns="http://www.w3.org/2000/svg" viewBox="0 0 24 24"><title>appointment_cancelled</title><path d="M21,6a2,2,0,0,0-2-2H18V2.5a.5.5,0,0,0-.5-.5h-1a.5.5,0,0,0-.5.5V4H8V2.5A.5.5,0,0,0,7.5,2h-1a.5.5,0,0,0-.5.5V4H5A2,2,0,0,0,3,6V19a2,2,0,0,0,2,2H19a2,2,0,0,0,2-2ZM19,19H5V8H19Zm-5.76-6,1.61-1.62a.48.48,0,0,0,0-.7l-.53-.53a.48.48,0,0,0-.7,0L12,11.76l-1.62-1.61a.48.48,0,0,0-.7,0l-.53.53a.48.48,0,0,0,0,.7L10.76,13,9.15,14.62a.48.48,0,0,0,0,.7l.53.53a.48.48,0,0,0,.7,0L12,14.24l1.62,1.61a.48.48,0,0,0,.7,0l.53-.53a.48.48,0,0,0,0-.7Z"/></svg>