<svg id="Layer_1" data-name="Layer 1" xmlns="http://www.w3.org/2000/svg" viewBox="0 0 24 24"><title>calendar_month</title><path d="M19,4H18V2.5a.5.5,0,0,0-.5-.5h-1a.5.5,0,0,0-.5.5V4H8V2.5A.5.5,0,0,0,7.5,2h-1a.5.5,0,0,0-.5.5V4H5A2,2,0,0,0,3,6V19a2,2,0,0,0,2,2H19a2,2,0,0,0,2-2V6A2,2,0,0,0,19,4Zm0,15H5V8H19Zm-7.5-7h1a.5.5,0,0,0,.5-.5v-1a.5.5,0,0,0-.5-.5h-1a.5.5,0,0,0-.5.5v1A.5.5,0,0,0,11.5,12Zm4,0h1a.5.5,0,0,0,.5-.5v-1a.5.5,0,0,0-.5-.5h-1a.5.5,0,0,0-.5.5v1A.5.5,0,0,0,15.5,12Zm-8,0h1a.5.5,0,0,0,.5-.5v-1a.5.5,0,0,0-.5-.5h-1a.5.5,0,0,0-.5.5v1A.5.5,0,0,0,7.5,12Zm4,4h1a.5.5,0,0,0,.5-.5v-1a.5.5,0,0,0-.5-.5h-1a.5.5,0,0,0-.5.5v1A.5.5,0,0,0,11.5,16Zm-4,0h1a.5.5,0,0,0,.5-.5v-1a.5.5,0,0,0-.5-.5h-1a.5.5,0,0,0-.5.5v1A.5.5,0,0,0,7.5,16Z"/></svg>