<svg id="Layer_1" data-name="Layer 1" xmlns="http://www.w3.org/2000/svg" viewBox="0 0 24 24"><title>credit_card_add</title><path d="M22,9a5,5,0,0,0-5-5,4.94,4.94,0,0,0-3,1H4A2,2,0,0,0,2,7V18a2,2,0,0,0,2,2H19a2,2,0,0,0,2-2V12A4.94,4.94,0,0,0,22,9ZM16.12,6.5a.5.5,0,0,1,.5-.5h.76a.5.5,0,0,1,.5.5V8.12H19.5a.5.5,0,0,1,.5.5v.76a.5.5,0,0,1-.5.5H17.88V11.5a.5.5,0,0,1-.5.5h-.76a.5.5,0,0,1-.5-.5V9.88H14.5a.5.5,0,0,1-.5-.5V8.62a.5.5,0,0,1,.5-.5h1.62ZM4,7h8.42A4.94,4.94,0,0,0,12,9a5.47,5.47,0,0,0,.1,1H4ZM4,18V13H14a4.93,4.93,0,0,0,5,.58V18Z"/></svg>