<svg id="Layer_1" data-name="Layer 1" xmlns="http://www.w3.org/2000/svg" viewBox="0 0 24 24"><title>cube</title><path d="M20.73,7.12l-.14-.25a2.07,2.07,0,0,0-.74-.73L13.14,2.27a2,2,0,0,0-1-.27h-.29a2,2,0,0,0-1,.27L4.14,6.15a2,2,0,0,0-.73.73l-.14.25a2,2,0,0,0-.27,1v7.75a2,2,0,0,0,.27,1l.14.25a2.13,2.13,0,0,0,.73.73l6.72,3.87a1.92,1.92,0,0,0,1,.27h.28a2,2,0,0,0,1-.27l6.71-3.88a1.9,1.9,0,0,0,.73-.73l.15-.25a2.05,2.05,0,0,0,.27-1V8.12A2,2,0,0,0,20.73,7.12ZM11.85,4h.29L18,7.38l-6,3.46L6,7.38Zm7,12.12L13,19.5V12.58l6-3.47v6.76Z"/></svg>