<svg id="Layer_1" data-name="Layer 1" xmlns="http://www.w3.org/2000/svg" viewBox="0 0 24 24"><title>euro_outlined</title><path d="M12,2A10,10,0,1,0,22,12,10,10,0,0,0,12,2Zm0,18a8,8,0,1,1,8-8A8,8,0,0,1,12,20ZM12,8.75a3.21,3.21,0,0,1,2,.67.5.5,0,0,0,.66-.05l.53-.54a.46.46,0,0,0,.15-.38.52.52,0,0,0-.19-.36A5,5,0,0,0,7.1,11H6.5a.5.5,0,0,0-.5.5v1a.5.5,0,0,0,.5.5h.6a5,5,0,0,0,8,2.91.52.52,0,0,0,.19-.36.46.46,0,0,0-.15-.38l-.53-.54a.5.5,0,0,0-.66-.05,3.21,3.21,0,0,1-2,.67A3.26,3.26,0,0,1,8.92,13h3.62a.76.76,0,0,0,.67-.41l.61-1.23a.25.25,0,0,0,0-.24A.25.25,0,0,0,13.6,11H8.92A3.26,3.26,0,0,1,12,8.75Z"/></svg>