<svg id="Layer_1" data-name="Layer 1" xmlns="http://www.w3.org/2000/svg" viewBox="0 0 24 24"><title>euro</title><path d="M12,2A10,10,0,1,0,22,12,10,10,0,0,0,12,2Zm1.6,9a.25.25,0,0,1,.21.12.25.25,0,0,1,0,.24l-.61,1.23a.76.76,0,0,1-.67.41H8.92A3.26,3.26,0,0,0,12,15.25a3.21,3.21,0,0,0,2-.67.5.5,0,0,1,.66.05l.53.54a.46.46,0,0,1,.15.38.52.52,0,0,1-.19.36A5,5,0,0,1,7.1,13H6.5a.5.5,0,0,1-.5-.5v-1a.5.5,0,0,1,.5-.5h.6a5,5,0,0,1,8-2.91.52.52,0,0,1,.19.36.46.46,0,0,1-.15.38l-.53.54a.5.5,0,0,1-.66.05,3.21,3.21,0,0,0-2-.67A3.26,3.26,0,0,0,8.92,11Z"/></svg>