<svg viewBox="0 0 80 80" xmlns="http://www.w3.org/2000/svg"><path transform="scale(0.27, 0.27)" d="m69.970781.03896h-59.941562c-5.494643 0-9.99026 4.495617-9.99026 9.99026v59.941562c0 5.494643 4.495617 9.99026 9.99026 9.99026h32.698122v-30.949826h-10.414846v-12.063239h10.414846v-8.896327c0-10.324934 6.303854-15.944455 15.514874-15.944455 4.4107 0 8.202004.329679 9.305927.474537v10.789481l-6.388771.004995c-5.010116 0-5.979171 2.377682-5.979171 5.874273v7.702491h11.943356l-1.54849 12.058244h-10.389871v30.949826h14.785585c5.494643 0 9.99026-4.495617 9.99026-9.99026v-59.941562c0-5.494643-4.495617-9.99026-9.99026-9.99026z"/></svg>
