<svg id="Layer_1" data-name="Layer 1" xmlns="http://www.w3.org/2000/svg" viewBox="0 0 24 24"><title>help</title><path d="M12,2A10,10,0,1,0,22,12,10,10,0,0,0,12,2Zm1,15.5a.5.5,0,0,1-.5.5h-1a.5.5,0,0,1-.5-.5v-1a.5.5,0,0,1,.5-.5h1a.5.5,0,0,1,.5.5Zm2.88-7.94a2.89,2.89,0,0,1-2,2.73L13,12.6a.13.13,0,0,0-.08.12v.78a.5.5,0,0,1-.5.5h-.76a.5.5,0,0,1-.5-.5v-.78a1.88,1.88,0,0,1,1.29-1.78l.95-.31a1.13,1.13,0,0,0,.76-1.07V9A1.12,1.12,0,0,0,13,7.88H11A1.12,1.12,0,0,0,9.88,9v.5a.5.5,0,0,1-.5.5H8.62a.5.5,0,0,1-.5-.5V9A2.88,2.88,0,0,1,11,6.12h2A2.88,2.88,0,0,1,15.88,9Z"/></svg>