<svg id="Layer_1" data-name="Layer 1" xmlns="http://www.w3.org/2000/svg" viewBox="0 0 24 24"><title>hidden</title><path d="M4.38,3.15a.48.48,0,0,0-.7,0l-.53.53a.48.48,0,0,0,0,.7L5.75,7a9.66,9.66,0,0,0-3.69,4.68h0A1,1,0,0,0,2,12a.81.81,0,0,0,.06.31h0A10.65,10.65,0,0,0,12,19a11,11,0,0,0,4.67-1.09l2.95,2.94a.48.48,0,0,0,.7,0l.53-.53a.48.48,0,0,0,0-.7ZM12,15a3,3,0,0,1-3-3,2.89,2.89,0,0,1,.37-1.4l4,4A2.89,2.89,0,0,1,12,15Zm10-3.3v0A10.67,10.67,0,0,0,9.12,5.41L19.61,15.9a9.41,9.41,0,0,0,2.33-3.57h0A.81.81,0,0,0,22,12v0A.93.93,0,0,0,22,11.7Z"/></svg>