<svg id="Layer_1" data-name="Layer 1" xmlns="http://www.w3.org/2000/svg" viewBox="0 0 24 24"><title>settings</title><path d="M21,14.73l-.8-.66a2,2,0,0,1-.72-1.64c0-.14,0-.29,0-.43s0-.29,0-.43a2,2,0,0,1,.72-1.64l.8-.66A1,1,0,0,0,21.24,8L20.08,6a1,1,0,0,0-1.21-.43l-1,.36a2,2,0,0,1-1.78-.19,5.48,5.48,0,0,0-.74-.43,2,2,0,0,1-1.06-1.45l-.17-1a1,1,0,0,0-1-.84h-2.3a1,1,0,0,0-1,.84l-.17,1A2,2,0,0,1,8.63,5.31a5.48,5.48,0,0,0-.74.43,2,2,0,0,1-1.78.19l-1-.36A1,1,0,0,0,3.92,6L2.76,8A1,1,0,0,0,3,9.27l.8.66a2,2,0,0,1,.72,1.64c0,.14,0,.29,0,.43s0,.29,0,.43a2,2,0,0,1-.72,1.64l-.8.66A1,1,0,0,0,2.76,16l1.16,2a1,1,0,0,0,1.21.43l1-.36a2,2,0,0,1,1.78.19,5.48,5.48,0,0,0,.74.43,2,2,0,0,1,1.06,1.45l.17,1a1,1,0,0,0,1,.84h2.3a1,1,0,0,0,1-.84l.17-1a2,2,0,0,1,1.06-1.45,5.48,5.48,0,0,0,.74-.43,2,2,0,0,1,1.78-.19l1,.36A1,1,0,0,0,20.08,18l1.16-2A1,1,0,0,0,21,14.73ZM12,15a3,3,0,1,1,3-3A3,3,0,0,1,12,15Z"/></svg>