<svg id="Layer_1" data-name="Layer 1" xmlns="http://www.w3.org/2000/svg" viewBox="0 0 24 24"><title>shopping_cart_off</title><path d="M3.38,2.15a.48.48,0,0,0-.7,0l-.53.53a.48.48,0,0,0,0,.7L4.3,5.53l3.4,6a2.19,2.19,0,0,0,.27.35l-1.86,3.7a.77.77,0,0,0,0,.71l.22.38A.76.76,0,0,0,7,17h8.76L17,18.26A2,2,0,1,0,19.74,21l.88.88a.48.48,0,0,0,.7,0l.53-.53a.48.48,0,0,0,0-.7ZM8.62,15l1-2.09a2.74,2.74,0,0,0,.64.09h1.46l2,2ZM21.5,4H7.71l9,9A2.94,2.94,0,0,0,19,11.49l2.35-4.13A4.76,4.76,0,0,0,22,5V4.5A.5.5,0,0,0,21.5,4ZM8,18a2,2,0,1,0,2,2A2,2,0,0,0,8,18Z"/></svg>