<svg id="Layer_1" data-name="Layer 1" xmlns="http://www.w3.org/2000/svg" viewBox="0 0 24 24"><title>star_half</title><path d="M22,9.32l-.08-.25a.49.49,0,0,0-.44-.35l-6.39-.51L12.6,2.32A.49.49,0,0,0,12.13,2h-.26a.51.51,0,0,0-.48.32L8.94,8.21l-6.39.51a.49.49,0,0,0-.44.35L2,9.32a.49.49,0,0,0,.15.54L7,14,5.56,20.22a.51.51,0,0,0,.19.53L6,20.9a.47.47,0,0,0,.3.1.48.48,0,0,0,.26-.07L12,17.6l5.47,3.33a.48.48,0,0,0,.26.07.47.47,0,0,0,.3-.1l.22-.15a.51.51,0,0,0,.19-.53L17,14l4.86-4.15A.49.49,0,0,0,22,9.32Zm-7,4.06,1.12,4.68L12,15.55V5.41l1.86,4.46,4.81.38Z"/></svg>