<svg id="Layer_1" data-name="Layer 1" xmlns="http://www.w3.org/2000/svg" viewBox="0 0 24 24"><title>top_security</title><path d="M20.12,5.12,16.59,1.59A2,2,0,0,0,15.17,1H8.83a2,2,0,0,0-1.42.59L3.88,5.12A3,3,0,0,0,3,7.24v5.85A8,8,0,0,0,6.09,19.4l4.08,3.18A2,2,0,0,0,11.4,23h1.2a2,2,0,0,0,1.23-.42l4.08-3.18A8,8,0,0,0,21,13.09V7.24A3,3,0,0,0,20.12,5.12Zm-3.75,5-2,1.7L15,14.38a.5.5,0,0,1-.74.55L12,13.56,9.75,14.93A.5.5,0,0,1,9,14.38l.61-2.54-2-1.7a.51.51,0,0,1,.29-.88l2.6-.2,1-2.43a.5.5,0,0,1,.92,0l1,2.43,2.6.2A.51.51,0,0,1,16.37,10.14Z"/></svg>