<svg id="Layer_1" data-name="Layer 1" xmlns="http://www.w3.org/2000/svg" viewBox="0 0 24 24"><title>verified_outlined</title><path d="M14.79,4a1.25,1.25,0,0,1,1.15.74l.21.46a5.3,5.3,0,0,0,2.66,2.66l.44.19a1.29,1.29,0,0,1,.66,1.64l-.16.43a5.16,5.16,0,0,0,0,3.73l.17.49a1.25,1.25,0,0,1-.65,1.6l-.46.21a5.3,5.3,0,0,0-2.66,2.66l-.19.44a1.27,1.27,0,0,1-1.16.75,1.45,1.45,0,0,1-.48-.09l-.43-.16A5.06,5.06,0,0,0,12,19.4a5,5,0,0,0-1.85.34l-.49.17a1.17,1.17,0,0,1-.45.09,1.25,1.25,0,0,1-1.15-.74l-.21-.46a5.3,5.3,0,0,0-2.66-2.66L4.75,16a1.29,1.29,0,0,1-.66-1.64l.16-.43a5.16,5.16,0,0,0,0-3.73l-.17-.49a1.25,1.25,0,0,1,.65-1.6l.46-.21A5.3,5.3,0,0,0,7.86,5.19l.19-.44A1.27,1.27,0,0,1,9.21,4a1.45,1.45,0,0,1,.48.09l.43.16A5.06,5.06,0,0,0,12,4.6a5,5,0,0,0,1.85-.34l.49-.17A1.17,1.17,0,0,1,14.79,4m0-2a3.23,3.23,0,0,0-1.17.22l-.46.17A3.3,3.3,0,0,1,12,2.6a3.3,3.3,0,0,1-1.16-.21l-.46-.17A3.26,3.26,0,0,0,6.23,3.93L6,4.38A3.31,3.31,0,0,1,4.38,6l-.45.2a3.27,3.27,0,0,0-1.71,4.15l.17.46a3.2,3.2,0,0,1,0,2.32l-.17.46a3.27,3.27,0,0,0,1.71,4.15l.45.2A3.31,3.31,0,0,1,6,19.62l.2.45a3.26,3.26,0,0,0,4.15,1.71l.46-.17a3.31,3.31,0,0,1,2.32,0l.46.17a3.26,3.26,0,0,0,4.15-1.71l.2-.45A3.31,3.31,0,0,1,19.62,18l.45-.2a3.27,3.27,0,0,0,1.71-4.15l-.17-.46a3.2,3.2,0,0,1,0-2.32l.17-.46a3.27,3.27,0,0,0-1.71-4.15L19.62,6A3.31,3.31,0,0,1,18,4.38l-.2-.45a3.26,3.26,0,0,0-3-1.93Zm.68,6.35a.5.5,0,0,0-.35.14l-4.74,4.74-1.5-1.49a.48.48,0,0,0-.7,0l-.53.53a.5.5,0,0,0,0,.71L10,15.35a.47.47,0,0,0,.35.15.49.49,0,0,0,.35-.15l5.62-5.62a.5.5,0,0,0,0-.71l-.53-.53a.5.5,0,0,0-.35-.14Z"/></svg>