<svg id="Layer_1" data-name="Layer 1" xmlns="http://www.w3.org/2000/svg" viewBox="0 0 24 24"><title>youtube_outlined</title><path d="M20,4.49l-1.46-.15a63.65,63.65,0,0,0-13.14,0L4,4.49A3.38,3.38,0,0,0,1,7.9v8.2a3.38,3.38,0,0,0,3,3.41l1.46.15A62.85,62.85,0,0,0,12,20a62.85,62.85,0,0,0,6.57-.34L20,19.51a3.38,3.38,0,0,0,3-3.41V7.9A3.38,3.38,0,0,0,20,4.49ZM21,16.1a1.38,1.38,0,0,1-1.18,1.42l-1.46.15A61.29,61.29,0,0,1,12,18a61.29,61.29,0,0,1-6.36-.33l-1.46-.15A1.38,1.38,0,0,1,3,16.1V7.9A1.38,1.38,0,0,1,4.18,6.48l1.46-.15a61.45,61.45,0,0,1,12.72,0l1.46.15A1.38,1.38,0,0,1,21,7.9ZM11.17,8.78A.75.75,0,0,0,10,9.4v5.2a.75.75,0,0,0,1.17.62l3.89-2.6a.74.74,0,0,0,0-1.24Z"/></svg>