<?xml version="1.0" encoding="UTF-8"?>
<svg width="379px" height="305px" viewBox="0 0 379 305" version="1.1" xmlns="http://www.w3.org/2000/svg" xmlns:xlink="http://www.w3.org/1999/xlink">
    <title>Illustration 01</title>
    <defs>
        <linearGradient x1="136.044917%" y1="84.7409831%" x2="9.09219048%" y2="38.7340252%" id="linearGradient-1">
            <stop stop-color="#000000" offset="1%"></stop>
            <stop stop-color="#000000" stop-opacity="0.69" offset="13%"></stop>
            <stop stop-color="#000000" stop-opacity="0.32" offset="25%"></stop>
            <stop stop-color="#000000" stop-opacity="0" offset="100%"></stop>
        </linearGradient>
    </defs>
    <g id="DESIGN-SYSTEM" stroke="none" stroke-width="1" fill="none" fill-rule="evenodd">
        <g id="Illustrations" transform="translate(-970.000000, -1159.000000)" fill-rule="nonzero">
            <g id="Illustration-01" transform="translate(970.000000, 1159.000000)">
                <path d="M117.46,21.34 C83.77,43.1 60.96,77.83 39.14,111.52 C30.24,125.27 21.3,139.1 14.72,154.1 C7.99,169.46 3.84,185.88 1.46,202.49 C-2.09,227.27 -0.21,256.04 18.93,272.18 C28.98,280.65 42.25,284.18 55.18,286.49 C106.58,295.75 159.54,290.07 211.41,296.09 C239.79,299.39 268.02,306.2 296.56,304.7 C325.1,303.2 355.2,291.46 369.4,266.7 C385.97,237.77 376.22,200.89 360.98,171.24 C345.74,141.59 325.12,113.6 319.75,80.7 C317.54,67.19 317.86,52.76 311.18,40.82 C303.71,27.45 288.98,19.96 274.61,14.67 C225.34,-3.51 163.56,-8.47 117.46,21.34 Z" id="Path" fill="#DDDDDD" opacity="0.18"></path>
                <path d="M48.16,137.88 C51.97,141.7 56.77,144.35 61.5,146.94 L84.5,159.59 C85.2248836,160.061476 86.050395,160.356057 86.91,160.45 C87.8425516,160.400193 88.7458219,160.107147 89.53,159.6 C101.975974,153.024223 113.912612,145.526638 125.24,137.17 C122.62,134.84 119.8,132.41 116.33,131.84 C114.425671,131.636716 112.50181,131.714209 110.62,132.07 C96.6792172,133.938802 82.5909022,134.461211 68.55,133.63 C66.3263439,133.530461 64.1097414,133.310136 61.91,132.97 C60.22,132.68 57.76,131.45 56.07,131.76 C54.74,132.01 48.58,138.3 48.16,137.88 Z" id="Path" fill="#DDDDDD" opacity="0.18"></path>
                <path d="M125.85,207.83 C132.14,214.13 140.06,218.5 147.85,222.83 L185.85,243.69 C187.052859,244.473518 188.423034,244.963355 189.85,245.12 C191.393274,245.027991 192.887331,244.542594 194.19,243.71 C214.717386,232.85521 234.408437,220.487718 253.1,206.71 C248.78,202.86 244.1,198.85 238.41,197.92 C235.262256,197.578547 232.081362,197.703222 228.97,198.29 C205.969512,201.372791 182.72588,202.236767 159.56,200.87 C155.893006,200.698728 152.23779,200.331537 148.61,199.77 C145.83,199.3 141.76,197.26 138.98,197.77 C136.71,198.15 126.54,208.52 125.85,207.83 Z" id="Path" fill="#DDDDDD" opacity="0.18"></path>
                <path d="M256.51,144.95 C260.03,148.47 264.45,150.95 268.8,153.31 L290,164.95 C291.367139,166.003887 293.272861,166.003887 294.64,164.95 C306.105143,158.887249 317.102292,151.978098 327.54,144.28 C325.12,142.13 322.54,139.9 319.33,139.37 C317.572409,139.185163 315.797311,139.255898 314.06,139.58 C301.216258,141.304022 288.23626,141.786252 275.3,141.02 C273.253844,140.926711 271.214213,140.723082 269.19,140.41 C267.64,140.14 265.36,139.01 263.81,139.3 C262.58,139.55 256.9,145.34 256.51,144.95 Z" id="Path" fill="#DDDDDD" opacity="0.18"></path>
                <path d="M244.71,265.1 C248.22,268.61 252.65,271.1 257,273.45 L278.2,285.1 C278.869392,285.532306 279.628718,285.805937 280.42,285.9 C281.280476,285.845462 282.11308,285.573662 282.84,285.11 C294.302832,279.047005 305.299721,272.141359 315.74,264.45 C313.32,262.3 310.74,260.06 307.53,259.54 C305.772746,259.345204 303.996182,259.415997 302.26,259.75 C289.415832,261.469028 276.436314,261.951239 263.5,261.19 C261.4533,261.098319 259.413397,260.891324 257.39,260.57 C255.84,260.31 253.56,259.17 252.01,259.46 C250.78,259.65 245.06,265.44 244.71,265.1 Z" id="Path" fill="#DDDDDD" opacity="0.18"></path>
                <path d="M36.35,263.39 C39.87,266.91 44.29,269.39 48.65,271.75 L69.84,283.39 C71.207139,284.443887 73.112861,284.443887 74.48,283.39 C85.9451428,277.327249 96.9422923,270.418098 107.38,262.72 C104.96,260.57 102.38,258.34 99.17,257.81 C97.4124088,257.625163 95.6373109,257.695898 93.9,258.02 C81.0562583,259.744022 68.0762596,260.226252 55.14,259.46 C53.0938442,259.366711 51.0542125,259.163082 49.03,258.85 C47.48,258.58 45.21,257.45 43.65,257.74 C42.42,257.99 36.74,263.78 36.35,263.39 Z" id="Path" fill="#DDDDDD" opacity="0.18"></path>
                <polygon id="Path" fill="#DDDDDD" points="186.57 233.39 128.88 200.08 128.88 191 186.21 166.98 243.9 191.21 243.9 200.29"></polygon>
                <polygon id="Path" fill="#blue" points="186.57 224.31 128.88 191 186.21 157.9 243.9 191.21"></polygon>
                <polygon id="Path" fill="#DDDDDD" points="186.53 216.12 143.06 191.02 186.25 166.08 229.72 191.18"></polygon>
                <polygon id="Path" fill="#FFFFFF" points="186.5 212.03 150.15 191.04 186.28 170.18 222.63 191.17"></polygon>
                <path d="M177.33,194.89 L138.89,183.89 C139.746582,183.076339 140.725053,182.401532 141.79,181.89 L172.32,165.45 C172.762209,165.084937 173.33604,164.919666 173.904683,164.99359 C174.473327,165.067513 174.985828,165.374007 175.32,165.84 L199.52,187.47 C200.270103,187.994872 200.806131,188.772291 201.03,189.66 C201.063268,190.733821 200.425085,191.715027 199.43,192.12 C198.447012,192.485677 197.394417,192.625795 196.35,192.53 C193.615799,192.437253 190.895177,192.102614 188.22,191.53 C187.08968,191.207784 185.913605,191.075982 184.74,191.14 C183.537553,191.226562 182.497067,192.008883 182.08,193.14" id="Path" fill="url(#linearGradient-1)"></path>
                <path d="M187.69,182.48 C187.648523,183.755289 187.883926,185.024418 188.38,186.2 C189.005889,187.291282 189.951885,188.163971 191.09,188.7 C193.520392,189.969802 196.34802,190.24934 198.98,189.48 C199.340992,189.415723 199.665271,189.21973 199.89,188.93 C200.02763,188.694659 200.083864,188.420519 200.05,188.15 C199.854054,186.696039 199.114387,185.370356 197.98,184.44 C196.857143,183.516475 195.897156,182.411138 195.14,181.17 C193.93,178.73 194.83,172.22 190.23,173.27 C186.38,174.1 187.58,179.76 187.69,182.48 Z" id="Path" fill="#FFBBAB"></path>
                <path d="M187.06,186.88 C187.06,186.88 186.41,188.49 187.21,189.43 C188.01,190.37 196.28,195.52 201.85,191.38 C207.42,187.24 194.3,186.7 194.3,186.7 L187.06,186.88 Z" id="Path" fill="#DDDDDD"></path>
                <path d="M187.37,183.1 C187.894732,182.843254 188.528343,183.009099 188.86,183.49 C189.96652,184.743708 191.639851,185.340517 193.29,185.07 C195.11,184.64 195.83,182.55 196.74,182.539982 C197.65,182.53 202.45,186.63 202.74,188.39 C203.03,190.15 200.56,191.39 197.84,191.61 C195.12,191.83 188.96,189.9 187.84,188.47 C186.813856,186.864817 186.638303,184.859035 187.37,183.1 L187.37,183.1 Z" id="Path" fill="#FFFFFF"></path>
                <path d="M171.9,185 C171.858523,186.275289 172.093926,187.544418 172.59,188.72 C173.215889,189.811282 174.161885,190.683971 175.3,191.22 C177.730088,192.49082 180.558119,192.770397 183.19,192 C183.550992,191.935723 183.875271,191.73973 184.1,191.45 C184.23763,191.214659 184.293864,190.940519 184.26,190.67 C184.064054,189.216039 183.324387,187.890356 182.19,186.96 C181.067143,186.036475 180.107156,184.931138 179.35,183.69 C178.14,181.25 179.04,174.69 174.44,175.79 C170.59,176.66 171.79,182.28 171.9,185 Z" id="Path" fill="#FFBBAB"></path>
                <path d="M171.26,189.4 C171.26,189.4 170.61,191.01 171.41,191.95 C172.21,192.89 180.48,198.04 186.05,193.95 C191.62,189.86 178.5,189.27 178.5,189.27 L171.26,189.4 Z" id="Path" fill="#DDDDDD"></path>
                <path d="M171.58,185.66 C172.114146,185.418763 172.744398,185.606135 173.06,186.1 C174.16652,187.353708 175.839851,187.950517 177.49,187.68 C179.31,187.25 180.03,185.16 180.94,185.149982 C181.85,185.14 186.65,189.24 186.94,191 C187.23,192.76 184.76,194.05 182.04,194.22 C179.32,194.39 173.16,192.51 171.99,191.08 C170.961107,189.453733 170.807456,187.422538 171.58,185.66 L171.58,185.66 Z" id="Path" fill="#FFFFFF"></path>
                <path d="M168.6,117.02 C168.6,117.02 167.74,164.32 171.25,180.1 L180.14,181.19 L186.29,116.43 L168.6,117.02 Z" id="Path" fill="#473F47"></path>
                <path d="M196.06,111.85 C196.06,111.85 200.25,137.37 195.17,178.34 L186.28,179.44 L180.13,114.68 L196.06,111.85 Z" id="Path" fill="#473F47"></path>
                <path d="M206.490047,91.51 C206.39,93.22 205.83,94.71 204.35,95.2 C204.227799,95.2484421 204.100217,95.2820164 203.97,95.3 C201.24,95.85 197.66,93.77 195.16,91.96 C194.11432,91.2080801 193.112672,90.3967451 192.16,89.53 L192.16,71.26 L205.44,84.86 C206.140318,87.0069876 206.494744,89.2516869 206.490047,91.51 Z" id="Path" fill="#FFFFFF"></path>
                <path d="M195.97,92.72 C195.97,93.57 196.08,94.44 196.08,95.3 C196.08,100.02 194.99,104.89 196.39,109.52 C196.853905,110.5046 196.993938,111.610863 196.79,112.68 C196.369725,113.530455 195.660875,114.203862 194.79,114.58 C190.63,116.85 185.79,117.58 181.13,118.21 C177.6,118.7 172.59,119.75 169.32,117.85 C167.93,117.04 167.46,115.53 167.02,114.02 C165.6,109.24 165.19,104.09 164.81,99.13 C164.81,98.48 164.72,97.83 164.68,97.13 C164.413333,92.61 164.323333,88.09 164.41,83.57 C164.47,80.28 164.73,76.74 166.87,74.26 C169.72,70.96 175.24,68.78 179.42,68.01 C180.778317,67.7341418 182.169452,67.6566694 183.55,67.78 C185.504099,68.0930795 187.390889,68.7355351 189.13,69.68 C191.21,70.68 193.06,71.57 194.08,73.63 C195.201291,76.0018068 195.982323,78.51996 196.4,81.11 C196.778176,83.5392624 196.821915,86.0088695 196.53,88.45 C196.41,89.65 196.1,90.84 195.98,92.03 C195.98,92.29 195.97,92.5 195.97,92.72 Z" id="Path" fill="#FFFFFF"></path>
                <path d="M176.63,119.3 C176.100618,119.450742 175.546583,119.494929 175,119.43 C173.69,119.36 172.42,118.65 171.14,118.43 C170.51,118.31 169.94,118 169.32,117.85 C166.19,117.07 165.82,108.29 165.51,105.93 C164.7,99.68 163.51,93.21 163.38,86.93 C163.246919,84.5134824 163.527623,82.0919883 164.21,79.77 C164.92481,77.4245796 166.64237,75.5165868 168.9,74.56 C169.334401,74.3721819 169.81539,74.3199005 170.28,74.41 C172.11,74.88 172.05,76.97 172.66,78.35 C173.36,79.9 175.33,81.16 177.13,80.35 C178.93,79.54 179.19,76.93 179.88,74.95 C180.354454,73.4826173 181.355484,72.2429075 182.69,71.47 C185.96,69.73 188.51,72.4 189.61,75.3 C190.71,78.2 189.51,82 188.93,85.11 C187.48,92.81 185.45,100.53 181.49,107.35 C179.89,110.11 176.83,113.41 176.85,116.64 C176.85,118.21 177.29,119.01 176.63,119.3 Z" id="Path" fill="#020202" opacity="0.1"></path>
                <path d="M184.28,65.97 C183.639185,66.3399653 182.885727,66.464357 182.16,66.32 C181.55162,66.2030862 180.955641,66.0289799 180.38,65.8 C179.45,65.47 179.63,66.7 179.58,67.43 C179.521517,68.3546617 179.558377,69.2828877 179.69,70.2 C179.763341,70.5292992 179.763341,70.8707008 179.69,71.2 C179.540246,71.7021988 179.131168,72.0845149 178.62,72.2 C178.133358,72.3149126 177.626642,72.3149126 177.14,72.2 C176.583365,72.0938123 176.037717,71.9364784 175.51,71.73 C175.064833,71.585654 174.667311,71.3229436 174.36,70.97 C174.025707,70.3892802 173.895451,69.7133612 173.99,69.05 C174.15,64.28 173.82,58.95 175.76,54.47 C176.148672,53.2258434 177.062161,52.2139791 178.260224,51.7005236 C179.458287,51.187068 180.821009,51.223413 181.99,51.8 C183.865659,52.339656 185.543835,53.4132716 186.82,54.89 C187.182297,55.4156961 187.292217,56.0752181 187.12,56.69 C187.013333,57.7766667 186.853333,58.8566667 186.64,59.93 C186.4,61.14 186.11,62.35 185.76,63.54 C185.563619,64.4972101 185.040387,65.3563001 184.28,65.97 Z" id="Path" fill="#FFBBAB"></path>
                <path d="M185.42,54.97 C185.180384,54.989188 184.939616,54.989188 184.7,54.97 C183.585616,54.5858522 182.418435,54.3767042 181.24,54.35 C179.222492,54.7069829 177.77385,56.4922204 177.84,58.54 C177.28,58.54 177.47,57.63 177.2,57.13 C176.93,56.63 175.88,56.87 175.63,57.48 C175.460644,58.1359112 175.460644,58.8240888 175.63,59.48 C175.766875,60.7464179 175.463159,62.0213189 174.77,63.09 C174.6,63.34 174.3,63.61 174.05,63.45 C173.8,63.29 173.74,62.76 173.64,62.45 C173.468783,62.0440791 173.264774,61.6527844 173.03,61.28 C172.59,60.55 172.03,59.86 171.59,59.14 C170.77,57.86 170.12,56.27 170.59,54.83 C170.810105,54.2457006 171.187304,53.7335397 171.68,53.35 C172.17,52.96 172.83,52.91 173.31,52.57 C173.79,52.23 173.57,51.92 173.73,51.48 C174.348104,50.2263403 175.273518,49.1495585 176.42,48.35 C178.337555,46.6560597 180.873918,45.8371768 183.42,46.09 C186.124345,46.603024 188.227699,48.7382462 188.7,51.45 C189.620916,52.0023387 190.148203,53.029774 190.06,54.1 C190.069029,54.5735034 189.991071,55.0446427 189.83,55.49 C189.37971,56.6000006 188.287386,57.3135986 187.09,57.28 C187.238178,56.7364983 187.282286,56.1698851 187.22,55.61 C187.209249,55.4867169 187.171708,55.3672682 187.11,55.26 C186.94,54.94 186.06,54.96 185.42,54.97 Z" id="Path" fill="#473F47"></path>
                <path d="M180.59,65.87 L180.26,65.75 C180.179191,65.7209941 180.090809,65.7209941 180.01,65.75 C179.91,65.75 179.86,65.89 179.82,65.98 C179.522152,66.7288493 179.405647,67.5375286 179.48,68.34 L179.61,69.59 C179.61,69.59 175.52,67.59 176.94,63.46 C178.060017,64.394104 179.276974,65.2054089 180.57,65.88 L180.59,65.87 Z" id="Path" fill="#E0A194"></path>
                <path d="M217.56,86.79 C215.816055,89.2592712 213.657463,91.4077124 211.18,93.14 C209.396282,94.3570186 207.330721,95.097178 205.18,95.29 C204.896786,95.3201534 204.610398,95.2894689 204.34,95.2 C203.881608,95.0618708 203.478922,94.7817416 203.19,94.4 C202.291767,93.3295147 201.753009,92.0036107 201.65,90.61 C201.5,86.97 205.45,84.86 205.45,84.86 C205.45,84.86 214.45,81.99 215.45,82.46 C216.04,82.71 216.59,83.98 216.97,85.07 C217.35,85.99 217.56,86.79 217.56,86.79 Z" id="Path" fill="#FFFFFF"></path>
                <path d="M204.48,84.95 L209.74,68.41 C210.102942,67.260773 211.20807,66.5116038 212.41,66.6 L216.6,66.91 C217.429041,66.9718451 218.179028,67.4249386 218.619462,68.1300281 C219.059896,68.8351176 219.138085,69.7078493 218.83,70.48 L212.25,86.86 C211.836774,87.8875192 210.815946,88.5385983 209.71,88.48 L206.83,88.34 C206.024457,88.2968678 205.284127,87.8836656 204.82454,87.2206873 C204.364954,86.557709 204.237764,85.7194686 204.48,84.95 L204.48,84.95 Z" id="Path" fill="#DDDDDD"></path>
                <path d="M177.93,103.82 L177.93,103.82 C174.42044,105.061363 170.568405,103.227061 169.32,99.72 L163.21,82.5 C161.968637,78.9904405 163.802939,75.1384051 167.31,73.89 L167.31,73.89 C170.82,72.65 171.42,74.89 172.66,78.36 L177.94,94.1 C179.19,97.59 181.44,102.57 177.93,103.82 Z" id="Path" fill="#FFFFFF"></path>
                <path d="M217.56,86.79 C215.816055,89.2592712 213.657463,91.4077124 211.18,93.14 C209.396282,94.3570186 207.330721,95.097178 205.18,95.29 C204.896786,95.3201534 204.610398,95.2894689 204.34,95.2 C204.217799,95.2484421 204.090217,95.2820164 203.96,95.3 C201.23,95.85 197.65,93.77 195.15,91.96 L195.15,91.9 L196,86.44 C197.635804,88.1287511 199.537765,89.5374858 201.63,90.61 C203.107549,91.4040831 204.79561,91.7186287 206.46,91.51 C206.907015,91.4394666 207.3415,91.3047426 207.75,91.11 C211.085021,89.5277153 214.195471,87.5101265 217,85.11 C217.35,85.99 217.56,86.79 217.56,86.79 Z" id="Path" fill="#020202" opacity="0.1"></path>
                <path d="M182.48,66.1 C182.61,65.57 182.86,64.94 183.4,64.83 C184.11,64.7 184.64,65.57 185.4,65.64 C185.78,65.64 186.19,65.49 186.54,65.64 C186.712895,65.7326685 186.863151,65.8624351 186.98,66.02 C188.116657,67.4886753 188.558129,69.3791975 188.189482,71.1993888 C187.820836,73.0195801 186.678548,74.5893408 185.06,75.5 C184.609918,75.7866937 184.083272,75.9296903 183.55,75.91 C183.05961,75.8187681 182.5953,75.6207536 182.19,75.33 C180.84,74.49 181.48,73.06 181.62,71.74 C181.783961,69.8433282 182.071235,67.9593435 182.48,66.1 L182.48,66.1 Z" id="Path" fill="#FFBBAB"></path>
                <path d="M177.25,103.9 C175.43,104.27 168.66,101.85 173.92,89.51 C176.32,83.86 177.56,78.51 180.74,73.24 C180.898117,72.9058522 181.156889,72.6295965 181.48,72.45 C181.805795,72.3497436 182.154205,72.3497436 182.48,72.45 C183.995151,72.7037733 185.491778,73.0578858 186.96,73.51 C187.175257,73.548678 187.369996,73.661981 187.51,73.83 C187.601411,74.0158537 187.632859,74.2255057 187.6,74.43 C187.21,79.53 185.22,84.36 184.41,89.43 C183.89,92.72 183.83,96.19 182.24,99.12 C181.69,100.1 178.38,103.67 177.25,103.9 Z" id="Path" fill="#FFFFFF"></path>
                <path d="M215.7,78.32 C214.6912,77.4907996 213.29826,77.3084369 212.11,77.85 C210.680772,78.6888255 209.773643,80.1944347 209.7,81.85 C209.525917,83.1047774 209.753449,84.3824588 210.35,85.5 C211.498535,87.4141742 213.85769,88.2244743 215.94,87.42 C217.695151,86.5920577 218.696245,84.7078852 218.4,82.79 C218.179715,82.1459364 217.84051,81.5489362 217.4,81.03 C216.973832,80.0457939 216.400626,79.1320371 215.7,78.32 Z" id="Path" fill="#FFBBAB"></path>
                <path d="M132.64,209.61 L132.42,209.61 C132.117519,209.551906 131.85056,209.375898 131.677979,209.120779 C131.505399,208.865659 131.441367,208.552377 131.5,208.25 C132.419886,204.446072 135.136919,201.329694 138.78,199.9 C139.066276,199.781579 139.388027,199.782592 139.673552,199.902813 C139.959077,200.023034 140.184649,200.252473 140.3,200.54 C140.539619,201.139222 140.248792,201.819309 139.65,202.06 C136.741775,203.195666 134.559844,205.664302 133.79,208.69 C133.668561,209.227602 133.191147,209.609533 132.64,209.61 L132.64,209.61 Z" id="Path" fill="#FFFFFF"></path>
                <path d="M141.83,215.27 C141.757,215.279882 141.683,215.279882 141.61,215.27 C140.979254,215.148782 140.564155,214.541754 140.68,213.91 C141.606756,210.104085 144.325637,206.986136 147.97,205.55 C148.361823,205.373319 148.818974,205.425701 149.160678,205.686432 C149.502381,205.947163 149.673613,206.374259 149.606661,206.798828 C149.53971,207.223398 149.245357,207.577074 148.84,207.72 C145.928837,208.851455 143.745304,211.321903 142.98,214.35 C142.858561,214.887602 142.381147,215.269533 141.83,215.27 Z" id="Path" fill="#FFFFFF"></path>
                <path d="M151.06,220.94 L150.84,220.94 C150.209254,220.818782 149.794155,220.211754 149.91,219.58 C150.836256,215.777074 153.550485,212.660184 157.19,211.22 C157.786453,210.979259 158.465386,211.265125 158.71,211.86 C158.828421,212.146276 158.827408,212.468027 158.707187,212.753552 C158.586966,213.039077 158.357527,213.264649 158.07,213.38 C155.160798,214.514267 152.978335,216.983504 152.21,220.01 C152.092596,220.551575 151.614153,220.938491 151.06,220.94 L151.06,220.94 Z" id="Path" fill="#FFFFFF"></path>
                <path d="M160.21,226.610004 L159.99,226.610004 C159.359254,226.488782 158.944155,225.881754 159.06,225.25 C159.976986,221.442283 162.694465,218.321661 166.34,216.89 C166.921245,216.706272 167.546164,216.999618 167.776161,217.564157 C168.006158,218.128695 167.764155,218.775232 167.22,219.05 C164.30793,220.183039 162.121889,222.65211 161.35,225.68 C161.24033,226.222148 160.763128,226.611445 160.21,226.610004 Z" id="Path" fill="#FFFFFF"></path>
                <path d="M169.4,232.27 C169.323649,232.279837 169.246351,232.279837 169.17,232.27 C168.867519,232.211906 168.60056,232.035898 168.427979,231.780779 C168.255399,231.525659 168.191367,231.212377 168.25,230.91 C169.166986,227.102283 171.884465,223.981661 175.53,222.55 C176.129229,222.306995 176.811995,222.595771 177.055,223.195 C177.298005,223.794229 177.009229,224.476995 176.41,224.72 C173.49793,225.853039 171.311889,228.32211 170.54,231.35 C170.426197,231.888171 169.950067,232.272417 169.4,232.27 L169.4,232.27 Z" id="Path" fill="#FFFFFF"></path>
                <path d="M239.6,209.6 C239.673,209.609882 239.747,209.609882 239.82,209.6 C240.450746,209.478782 240.865845,208.871754 240.75,208.24 C239.828086,204.433868 237.106931,201.317045 233.46,199.89 C233.074153,199.734589 232.634705,199.796831 232.307193,200.053279 C231.97968,200.309727 231.813859,200.721421 231.872193,201.133279 C231.930526,201.545137 232.204153,201.894589 232.59,202.05 C235.501163,203.181455 237.684696,205.651903 238.45,208.68 C238.568041,209.21972 239.047532,209.603313 239.6,209.6 Z" id="Path" fill="#FFFFFF"></path>
                <path d="M230.41,215.27 C230.482965,215.280394 230.557035,215.280394 230.63,215.27 C231.260746,215.148782 231.675845,214.541754 231.56,213.91 C230.643014,210.102283 227.925535,206.981661 224.28,205.55 C223.680778,205.310381 223.000691,205.601208 222.76,206.2 C222.641579,206.486276 222.642592,206.808027 222.762813,207.093552 C222.883034,207.379077 223.112473,207.604649 223.4,207.72 C226.31207,208.853039 228.498111,211.32211 229.27,214.35 C229.387247,214.886051 229.861278,215.268603 230.41,215.27 Z" id="Path" fill="#FFFFFF"></path>
                <path d="M221.22,220.94 L221.44,220.94 C221.744322,220.884219 222.01375,220.709179 222.188391,220.45379 C222.363032,220.1984 222.428413,219.883827 222.37,219.58 C221.452754,215.758084 218.722005,212.627621 215.06,211.2 C214.478755,211.016272 213.853836,211.309618 213.623839,211.874157 C213.393842,212.438695 213.635845,213.085232 214.18,213.36 C217.090121,214.495834 219.2751,216.963706 220.05,219.99 C220.156952,220.549133 220.65082,220.950137 221.22,220.94 Z" id="Path" fill="#FFFFFF"></path>
                <path d="M212.06,226.61 L212.28,226.61 C212.906685,226.484091 213.316326,225.878534 213.2,225.25 C212.283014,221.442283 209.565535,218.321661 205.92,216.89 C205.633724,216.771579 205.311973,216.772592 205.026448,216.892813 C204.740923,217.013034 204.515351,217.242473 204.4,217.53 C204.159259,218.126453 204.445125,218.805386 205.04,219.05 C207.95207,220.183039 210.138111,222.65211 210.91,225.68 C211.027404,226.221575 211.505847,226.608491 212.06,226.61 Z" id="Path" fill="#FFFFFF"></path>
                <path d="M202.85,232.27 C202.923031,232.279419 202.996969,232.279419 203.07,232.27 C203.372481,232.211906 203.63944,232.035898 203.812021,231.780779 C203.984601,231.525659 204.048633,231.212377 203.99,230.91 C203.073014,227.102283 200.355535,223.981661 196.71,222.55 C196.118755,222.341531 195.468265,222.636133 195.23497,223.21803 C195.001675,223.799926 195.268494,224.462297 195.84,224.72 C198.748225,225.855666 200.930156,228.324302 201.7,231.35 C201.818041,231.88972 202.297532,232.273313 202.85,232.27 L202.85,232.27 Z" id="Path" fill="#FFFFFF"></path>
                <polygon id="Path" fill="#DDDDDD" points="280.61 278.37 249.21 260.24 249.21 255.29 280.42 242.22 311.82 255.41 311.82 260.35"></polygon>
                <polygon id="Path" fill="#FFFFFF" points="280.61 273.43 249.21 255.29 280.42 237.27 311.82 255.41"></polygon>
                <polygon id="Path" fill="#DDDDDD" points="280.59 268.97 256.93 255.31 280.44 241.73 304.11 255.39"></polygon>
                <polygon id="Path" fill="#FFFFFF" points="280.58 266.74 260.78 255.31 280.45 243.96 300.25 255.38"></polygon>
                <path d="M251.26,265.42 L251.13,265.42 C250.79033,265.349599 250.568579,265.021408 250.63,264.68 C251.136547,262.599169 252.63122,260.898978 254.63,260.13 C254.785141,260.067553 254.958746,260.069354 255.112558,260.135006 C255.266371,260.200658 255.387768,260.324772 255.45,260.48 C255.515607,260.636297 255.515463,260.812437 255.4496,260.968627 C255.383737,261.124816 255.257713,261.247874 255.1,261.31 C253.514741,261.925649 252.325888,263.271028 251.91,264.92 C251.842594,265.221821 251.569013,265.432268 251.26,265.42 Z" id="Path" fill="#FFFFFF"></path>
                <path d="M256.26,268.51 L256.14,268.51 C255.97353,268.480874 255.825742,268.386087 255.72984,268.246935 C255.633938,268.107783 255.597964,267.935934 255.63,267.77 C256.142772,265.692416 257.635238,263.994736 259.63,263.22 C259.955763,263.094977 260.322123,263.249466 260.46,263.57 C260.589624,263.898607 260.428496,264.270096 260.1,264.4 C258.517677,265.019854 257.330422,266.363424 256.91,268.01 C256.842594,268.311821 256.569013,268.522268 256.26,268.51 L256.26,268.51 Z" id="Path" fill="#FFFFFF"></path>
                <path d="M261.26,271.59 L261.14,271.59 C260.975369,271.558545 260.830059,271.462783 260.736222,271.323904 C260.642385,271.185025 260.607757,271.014478 260.64,270.85 C261.141813,268.766708 262.638173,267.064598 264.64,266.3 C264.796297,266.234393 264.972437,266.234537 265.128627,266.3004 C265.284816,266.366263 265.407874,266.492287 265.47,266.65 C265.595023,266.975763 265.440534,267.342123 265.12,267.48 C263.531877,268.094422 262.339447,269.439632 261.92,271.09 C261.855793,271.398138 261.574014,271.611607 261.26,271.59 Z" id="Path" fill="#FFFFFF"></path>
                <path d="M266.26,274.68 L266.14,274.68 C265.974036,274.651092 265.82698,274.555894 265.732664,274.416308 C265.638349,274.276721 265.604895,274.104765 265.64,273.94 C266.149672,271.860797 267.643236,270.161869 269.64,269.39 C269.955657,269.296284 270.290912,269.457374 270.414982,269.76238 C270.539052,270.067386 270.411444,270.41676 270.12,270.57 C268.534741,271.185649 267.345888,272.531028 266.93,274.18 C266.861411,274.489658 266.576373,274.702372 266.26,274.68 Z" id="Path" fill="#FFFFFF"></path>
                <path d="M271.26,277.76 L271.14,277.76 C270.975369,277.728545 270.830059,277.632783 270.736222,277.493904 C270.642385,277.355025 270.607757,277.184478 270.64,277.02 C271.146547,274.939169 272.64122,273.238978 274.64,272.47 C274.955657,272.376284 275.290912,272.537374 275.414982,272.84238 C275.539052,273.147386 275.411444,273.49676 275.12,273.65 C273.535723,274.267058 272.347407,275.61183 271.93,277.26 C271.861411,277.569658 271.576373,277.782372 271.26,277.76 Z" id="Path" fill="#FFFFFF"></path>
                <path d="M309.48,265.42 L309.6,265.42 C309.943728,265.354256 310.170912,265.024617 310.11,264.68 C309.600328,262.600797 308.106764,260.901869 306.11,260.13 C305.797604,260.048582 305.473478,260.212575 305.35402,260.512491 C305.234562,260.812407 305.357176,261.154339 305.64,261.31 C307.225259,261.925649 308.414112,263.271028 308.83,264.92 C308.897406,265.221821 309.170987,265.432268 309.48,265.42 Z" id="Path" fill="#FFFFFF"></path>
                <path d="M304.48,268.51 L304.6,268.51 C304.76647,268.480874 304.914258,268.386087 305.01016,268.246935 C305.106062,268.107783 305.142036,267.935934 305.11,267.77 C304.597228,265.692416 303.104762,263.994736 301.11,263.22 C300.794343,263.126284 300.459088,263.287374 300.335018,263.59238 C300.210948,263.897386 300.338556,264.24676 300.63,264.4 C302.216169,265.017231 303.40753,266.361236 303.83,268.01 C303.897406,268.311821 304.170987,268.522268 304.48,268.51 L304.48,268.51 Z" id="Path" fill="#FFFFFF"></path>
                <path d="M299.48,271.59 L299.6,271.59 C299.764631,271.558545 299.909941,271.462783 300.003778,271.323904 C300.097615,271.185025 300.132243,271.014478 300.1,270.85 C299.598187,268.766708 298.101827,267.064598 296.1,266.3 C295.943703,266.234393 295.767563,266.234537 295.611373,266.3004 C295.455184,266.366263 295.332126,266.492287 295.27,266.65 C295.144977,266.975763 295.299466,267.342123 295.62,267.48 C297.208123,268.094422 298.400553,269.439632 298.82,271.09 C298.884207,271.398138 299.165986,271.611607 299.48,271.59 L299.48,271.59 Z" id="Path" fill="#FFFFFF"></path>
                <path d="M294.48,274.68 L294.6,274.68 C294.765964,274.651092 294.91302,274.555894 295.007336,274.416308 C295.101651,274.276721 295.135105,274.104765 295.1,273.94 C294.590328,271.860797 293.096764,270.161869 291.1,269.39 C290.784343,269.296284 290.449088,269.457374 290.325018,269.76238 C290.200948,270.067386 290.328556,270.41676 290.62,270.57 C292.205259,271.185649 293.394112,272.531028 293.81,274.18 C293.878589,274.489658 294.163627,274.702372 294.48,274.68 Z" id="Path" fill="#FFFFFF"></path>
                <path d="M289.48,277.76 L289.6,277.76 C289.93967,277.689599 290.161421,277.361408 290.1,277.02 C289.593453,274.939169 288.09878,273.238978 286.1,272.47 C285.884375,272.356625 285.623082,272.375499 285.425989,272.518685 C285.228896,272.66187 285.130185,272.904535 285.171361,273.144644 C285.212538,273.384754 285.386461,273.580664 285.62,273.65 C287.204277,274.267058 288.392593,275.61183 288.81,277.26 C288.878589,277.569658 289.163627,277.782372 289.48,277.76 Z" id="Path" fill="#FFFFFF"></path>
                <polygon id="Path" fill="#DDDDDD" points="87 150.25 55.6 132.12 55.6 127.18 86.81 114.1 118.22 127.29 118.22 132.24"></polygon>
                <polygon id="Path" fill="#FFFFFF" points="87 145.31 55.6 127.18 86.81 109.16 118.22 127.29"></polygon>
                <polygon id="Path" fill="#DDDDDD" points="86.98 140.85 63.32 127.19 86.83 113.61 110.5 127.28"></polygon>
                <polygon id="Path" fill="#FFFFFF" points="86.97 138.63 67.17 127.2 86.84 115.84 106.64 127.27"></polygon>
                <path d="M57.65,137.31 L57.53,137.31 C57.3635301,137.280874 57.215742,137.186087 57.1198398,137.046935 C57.0239376,136.907783 56.9879635,136.735934 57.02,136.57 C57.5327723,134.492416 59.0252381,132.794736 61.02,132.02 C61.1751414,131.957553 61.3487459,131.959354 61.5025584,132.025006 C61.6563709,132.090658 61.7777684,132.214772 61.84,132.37 C61.9056072,132.526297 61.905463,132.702437 61.8396001,132.858627 C61.7737372,133.014816 61.647713,133.137874 61.49,133.2 C59.9076766,133.819854 58.7204219,135.163424 58.3,136.81 C58.2290709,137.10956 57.957731,137.318283 57.65,137.31 L57.65,137.31 Z" id="Path" fill="#FFFFFF"></path>
                <path d="M62.65,140.39 L62.53,140.39 C62.1862722,140.324256 61.9590882,139.994617 62.02,139.65 C62.5296722,137.570797 64.0232357,135.871869 66.02,135.1 C66.3458343,134.969262 66.7161652,135.125425 66.85,135.45 C66.9750229,135.775763 66.8205338,136.142123 66.5,136.28 C64.9099072,136.891585 63.7163935,138.238017 63.3,139.89 C63.2363096,140.194172 62.9603318,140.406462 62.65,140.39 L62.65,140.39 Z" id="Path" fill="#FFFFFF"></path>
                <path d="M67.65,143.48 L67.53,143.48 C67.3640357,143.451092 67.2169797,143.355894 67.1226644,143.216308 C67.0283491,143.076721 66.9948955,142.904765 67.03,142.74 C67.5396722,140.660797 69.0332357,138.961869 71.03,138.19 C71.2456251,138.076625 71.5069176,138.095499 71.704011,138.238685 C71.9011044,138.38187 71.9998155,138.624535 71.9586388,138.864644 C71.917462,139.104754 71.7435391,139.300664 71.51,139.37 C69.9238315,139.987231 68.7324702,141.331236 68.31,142.98 C68.2457928,143.288138 67.9640136,143.501607 67.65,143.48 L67.65,143.48 Z" id="Path" fill="#FFFFFF"></path>
                <path d="M72.65,146.56 L72.53,146.56 C72.3653691,146.528545 72.2200591,146.432783 72.1262219,146.293904 C72.0323848,146.155025 71.9977568,145.984478 72.03,145.82 C72.5365473,143.739169 74.0312204,142.038978 76.03,141.27 C76.2456251,141.156625 76.5069176,141.175499 76.704011,141.318685 C76.9011044,141.46187 76.9998155,141.704535 76.9586388,141.944644 C76.917462,142.184754 76.7435391,142.380664 76.51,142.45 C74.9247411,143.065649 73.735888,144.411028 73.32,146.06 C73.2514106,146.369658 72.9663734,146.582372 72.65,146.56 Z" id="Path" fill="#FFFFFF"></path>
                <path d="M77.66,149.65 L77.53,149.65 C77.3653691,149.618545 77.2200591,149.522783 77.1262219,149.383904 C77.0323848,149.245025 76.9977568,149.074478 77.03,148.91 C77.5427723,146.832416 79.0352381,145.134736 81.03,144.36 C81.3423957,144.278582 81.6665217,144.442575 81.7859798,144.742491 C81.905438,145.042407 81.7828242,145.384339 81.5,145.54 C79.9176766,146.159854 78.7304219,147.503424 78.31,149.15 C78.2390709,149.44956 77.967731,149.658283 77.66,149.65 L77.66,149.65 Z" id="Path" fill="#FFFFFF"></path>
                <path d="M115.88,137.3 L116,137.3 C116.165964,137.271092 116.31302,137.175894 116.407336,137.036308 C116.501651,136.896721 116.535105,136.724765 116.5,136.56 C115.991887,134.479984 114.49777,132.780427 112.5,132.01 C112.187604,131.928582 111.863478,132.092575 111.74402,132.392491 C111.624562,132.692407 111.747176,133.034339 112.03,133.19 C113.612323,133.809854 114.799578,135.153424 115.22,136.8 C115.288032,137.105701 115.567297,137.317265 115.88,137.3 L115.88,137.3 Z" id="Path" fill="#FFFFFF"></path>
                <path d="M110.87,140.39 L110.99,140.39 C111.333728,140.324256 111.560912,139.994617 111.5,139.65 C110.990328,137.570797 109.496764,135.871869 107.5,135.1 C107.187604,135.018582 106.863478,135.182575 106.74402,135.482491 C106.624562,135.782407 106.747176,136.124339 107.03,136.28 C108.615259,136.895649 109.804112,138.241028 110.22,139.89 C110.287406,140.191821 110.560987,140.402268 110.87,140.39 Z" id="Path" fill="#FFFFFF"></path>
                <path d="M105.87,143.48 L105.99,143.48 C106.333728,143.414256 106.560912,143.084617 106.5,142.74 C105.987228,140.662416 104.494762,138.964736 102.5,138.19 C102.284375,138.076625 102.023082,138.095499 101.825989,138.238685 C101.628896,138.38187 101.530185,138.624535 101.571361,138.864644 C101.612538,139.104754 101.786461,139.300664 102.02,139.37 C103.606169,139.987231 104.79753,141.331236 105.22,142.98 C105.287406,143.281821 105.560987,143.492268 105.87,143.48 Z" id="Path" fill="#FFFFFF"></path>
                <path d="M100.87,146.56 L100.99,146.56 C101.154631,146.528545 101.299941,146.432783 101.393778,146.293904 C101.487615,146.155025 101.522243,145.984478 101.49,145.82 C100.983453,143.739169 99.4887796,142.038978 97.49,141.27 C97.3337032,141.204393 97.1575627,141.204537 97.0013735,141.2704 C96.8451843,141.336263 96.7221256,141.462287 96.66,141.62 C96.5292617,141.945834 96.6854253,142.316165 97.01,142.45 C98.5982296,143.061381 99.7887135,144.408606 100.2,146.06 C100.268589,146.369658 100.553627,146.582372 100.87,146.56 Z" id="Path" fill="#FFFFFF"></path>
                <path d="M95.87,149.65 L95.99,149.65 C96.1559643,149.621092 96.3030203,149.525894 96.3973356,149.386308 C96.4916509,149.246721 96.5251045,149.074765 96.49,148.91 C95.9803278,146.830797 94.4867643,145.131869 92.49,144.36 C92.1641657,144.229262 91.7938348,144.385425 91.66,144.71 C91.5943928,144.866297 91.594537,145.042437 91.6603999,145.198627 C91.7262628,145.354816 91.852287,145.477874 92.01,145.54 C93.5923234,146.159854 94.7795781,147.503424 95.2,149.15 C95.2723172,149.457231 95.5548924,149.668108 95.87,149.65 L95.87,149.65 Z" id="Path" fill="#FFFFFF"></path>
                <polygon id="Path" fill="#DDDDDD" points="71.96 275.9 40.55 257.76 40.55 252.82 71.77 239.75 103.17 252.93 103.17 257.88"></polygon>
                <polygon id="Path" fill="#FFFFFF" points="71.96 270.95 40.55 252.82 71.77 234.8 103.17 252.93"></polygon>
                <polygon id="Path" fill="#DDDDDD" points="71.94 266.5 48.27 252.83 71.79 239.26 95.46 252.92"></polygon>
                <polygon id="Path" fill="#FFFFFF" points="71.93 264.27 52.13 252.84 71.8 241.49 91.6 252.91"></polygon>
                <path d="M42.6,262.95 L42.48,262.95 C42.3153691,262.918545 42.1700591,262.822783 42.0762219,262.683904 C41.9823848,262.545025 41.9477568,262.374478 41.98,262.21 C42.4865473,260.129169 43.9812204,258.428978 45.98,257.66 C46.1348846,257.594706 46.3096423,257.595096 46.464234,257.66108 C46.6188257,257.727065 46.740002,257.852988 46.8,258.01 C46.8624466,258.165141 46.8606457,258.338746 46.794994,258.492558 C46.7293423,258.646371 46.6052278,258.767768 46.45,258.83 C44.8676766,259.449854 43.6804219,260.793424 43.26,262.44 C43.1961958,262.7497 42.9157798,262.966386 42.6,262.95 Z" id="Path" fill="#FFFFFF"></path>
                <path d="M47.61,266.03 L47.49,266.03 C47.3235301,266.000874 47.175742,265.906087 47.0798398,265.766935 C46.9839376,265.627783 46.9479635,265.455934 46.98,265.29 C47.4927723,263.212416 48.9852381,261.514736 50.98,260.74 C51.1351414,260.677553 51.3087459,260.679354 51.4625584,260.745006 C51.6163709,260.810658 51.7377684,260.934772 51.8,261.09 C51.8656072,261.246297 51.865463,261.422437 51.7996001,261.578627 C51.7337372,261.734816 51.607713,261.857874 51.45,261.92 C49.8676766,262.539854 48.6804219,263.883424 48.26,265.53 C48.1925936,265.831821 47.9190127,266.042268 47.61,266.03 Z" id="Path" fill="#FFFFFF"></path>
                <path d="M52.61,269.1 L52.49,269.1 C52.1493886,269.02952 51.9246238,268.703391 51.98,268.36 C52.4896722,266.280797 53.9832357,264.581869 55.98,263.81 C56.1362968,263.744393 56.3124373,263.744537 56.4686265,263.8104 C56.6248157,263.876263 56.7478744,264.002287 56.81,264.16 C56.8724466,264.315141 56.8706457,264.488746 56.804994,264.642558 C56.7393423,264.796371 56.6152278,264.917768 56.46,264.98 C54.8738315,265.597231 53.6824702,266.941236 53.26,268.59 C53.2006101,268.898172 52.9234529,269.115634 52.61,269.1 Z" id="Path" fill="#FFFFFF"></path>
                <path d="M57.61,272.2 L57.49,272.2 C57.3240357,272.171092 57.1769797,272.075894 57.0826644,271.936308 C56.9883491,271.796721 56.9548955,271.624765 56.99,271.46 C57.4996722,269.380797 58.9932357,267.681869 60.99,266.91 C61.305657,266.816284 61.6409117,266.977374 61.7649819,267.28238 C61.8890522,267.587386 61.761444,267.93676 61.47,268.09 C59.8847411,268.705649 58.695888,270.051028 58.28,271.7 C58.2114106,272.009658 57.9263734,272.222372 57.61,272.2 Z" id="Path" fill="#FFFFFF"></path>
                <path d="M62.61,275.29 L62.49,275.29 C62.3253691,275.258545 62.1800591,275.162783 62.0862219,275.023904 C61.9923848,274.885025 61.9577568,274.714478 61.99,274.55 C62.4965473,272.469169 63.9912204,270.768978 65.99,270 C66.1462968,269.934393 66.3224373,269.934537 66.4786265,270.0004 C66.6348157,270.066263 66.7578744,270.192287 66.82,270.35 C66.9507383,270.675834 66.7945747,271.046165 66.47,271.18 C64.8847411,271.795649 63.695888,273.141028 63.28,274.79 C63.2114106,275.099658 62.9263734,275.312372 62.61,275.29 Z" id="Path" fill="#FFFFFF"></path>
                <path d="M100.83,262.95 L100.95,262.95 C101.293728,262.884256 101.520912,262.554617 101.46,262.21 C100.950328,260.130797 99.4567643,258.431869 97.46,257.66 C97.1369134,257.530213 96.7697869,257.686913 96.64,258.01 C96.5102131,258.333087 96.6669134,258.700213 96.99,258.83 C98.5723234,259.449854 99.7595781,260.793424 100.18,262.44 C100.243226,262.745813 100.517925,262.961347 100.83,262.95 Z" id="Path" fill="#FFFFFF"></path>
                <path d="M95.83,266.03 L95.95,266.03 C96.1164699,266.000874 96.264258,265.906087 96.3601602,265.766935 C96.4560624,265.627783 96.4920365,265.455934 96.46,265.29 C95.9472277,263.212416 94.4547619,261.514736 92.46,260.74 C92.2443749,260.626625 91.9830824,260.645499 91.785989,260.788685 C91.5888956,260.93187 91.4901845,261.174535 91.5313612,261.414644 C91.572538,261.654754 91.7464609,261.850664 91.98,261.92 C93.5661685,262.537231 94.7575298,263.881236 95.18,265.53 C95.2436904,265.834172 95.5196682,266.046462 95.83,266.03 L95.83,266.03 Z" id="Path" fill="#FFFFFF"></path>
                <path d="M90.83,269.1 L90.95,269.1 C91.1146309,269.068545 91.2599409,268.972783 91.3537781,268.833904 C91.4476152,268.695025 91.4822432,268.524478 91.45,268.36 C90.9434527,266.279169 89.4487796,264.578978 87.45,263.81 C87.2937032,263.744393 87.1175627,263.744537 86.9613735,263.8104 C86.8051843,263.876263 86.6821256,264.002287 86.62,264.16 C86.5575534,264.315141 86.5593543,264.488746 86.625006,264.642558 C86.6906577,264.796371 86.8147722,264.917768 86.97,264.98 C88.5561685,265.597231 89.7475298,266.941236 90.17,268.59 C90.2256803,268.904693 90.5114389,269.125506 90.83,269.1 L90.83,269.1 Z" id="Path" fill="#FFFFFF"></path>
                <path d="M85.83,272.2 L85.95,272.2 C86.1159643,272.171092 86.2630203,272.075894 86.3573356,271.936308 C86.4516509,271.796721 86.4851045,271.624765 86.45,271.46 C85.9403278,269.380797 84.4467643,267.681869 82.45,266.91 C82.1241657,266.779262 81.7538348,266.935425 81.62,267.26 C81.5543928,267.416297 81.554537,267.592437 81.6203999,267.748627 C81.6862628,267.904816 81.812287,268.027874 81.97,268.09 C83.5523234,268.709854 84.7395781,270.053424 85.16,271.7 C85.2285894,272.009658 85.5136266,272.222372 85.83,272.2 Z" id="Path" fill="#FFFFFF"></path>
                <path d="M80.82,275.29 L80.95,275.29 C81.2896702,275.219599 81.5114205,274.891408 81.45,274.55 C80.9403278,272.470797 79.4467643,270.771869 77.45,270 C77.2948586,269.937553 77.1212541,269.939354 76.9674416,270.005006 C76.8136291,270.070658 76.6922316,270.194772 76.63,270.35 C76.4992617,270.675834 76.6554253,271.046165 76.98,271.18 C78.5652589,271.795649 79.754112,273.141028 80.17,274.79 C80.2374064,275.091821 80.5109873,275.302268 80.82,275.29 Z" id="Path" fill="#FFFFFF"></path>
                <polygon id="Path" fill="#DDDDDD" points="292.79 160.33 261.38 142.2 261.38 137.25 292.59 124.18 324 137.37 324 142.31"></polygon>
                <polygon id="Path" fill="#FFFFFF" points="292.79 155.38 261.38 137.25 292.59 119.23 324 137.37"></polygon>
                <polygon id="Path" fill="#DDDDDD" points="292.76 150.93 269.1 137.27 292.61 123.69 316.28 137.35"></polygon>
                <polygon id="Path" fill="#FFFFFF" points="292.75 148.7 272.96 137.27 292.63 125.92 312.42 137.34"></polygon>
                <path d="M263.43,147.38 L263.31,147.38 C262.966272,147.314256 262.739088,146.984617 262.8,146.64 C263.309672,144.560797 264.803236,142.861869 266.8,142.09 C267.125834,141.959262 267.496165,142.115425 267.63,142.44 C267.75382,142.768487 267.594443,143.13594 267.27,143.27 C265.684741,143.885649 264.495888,145.231028 264.08,146.88 C264.01631,147.184172 263.740332,147.396462 263.43,147.38 L263.43,147.38 Z" id="Path" fill="#FFFFFF"></path>
                <path d="M268.43,150.47 L268.31,150.47 C268.144036,150.441092 267.99698,150.345894 267.902664,150.206308 C267.808349,150.066721 267.774895,149.894765 267.81,149.73 C268.314976,147.648351 269.810208,145.947524 271.81,145.18 C272.125657,145.086284 272.460912,145.247374 272.584982,145.55238 C272.709052,145.857386 272.581444,146.20676 272.29,146.36 C270.703831,146.977231 269.51247,148.321236 269.09,149.97 C269.021968,150.275701 268.742703,150.487265 268.43,150.47 Z" id="Path" fill="#FFFFFF"></path>
                <path d="M273.43,153.55 L273.31,153.55 C273.145369,153.518545 273.000059,153.422783 272.906222,153.283904 C272.812385,153.145025 272.777757,152.974478 272.81,152.81 C273.316547,150.729169 274.81122,149.028978 276.81,148.26 C276.966297,148.194393 277.142437,148.194537 277.298627,148.2604 C277.454816,148.326263 277.577874,148.452287 277.64,148.61 C277.765023,148.935763 277.610534,149.302123 277.29,149.44 C275.70177,150.051381 274.511286,151.398606 274.1,153.05 C274.031411,153.359658 273.746373,153.572372 273.43,153.55 L273.43,153.55 Z" id="Path" fill="#FFFFFF"></path>
                <path d="M278.43,156.64 L278.31,156.64 C278.144036,156.611092 277.99698,156.515894 277.902664,156.376308 C277.808349,156.236721 277.774895,156.064765 277.81,155.9 C278.319672,153.820797 279.813236,152.121869 281.81,151.35 C282.135834,151.219262 282.506165,151.375425 282.64,151.7 C282.705607,151.856297 282.705463,152.032437 282.6396,152.188627 C282.573737,152.344816 282.447713,152.467874 282.29,152.53 C280.701888,153.131345 279.499931,154.459824 279.06,156.1 C279.007147,156.40806 278.742519,156.634884 278.43,156.64 L278.43,156.64 Z" id="Path" fill="#FFFFFF"></path>
                <path d="M283.44,159.72 L283.32,159.72 C282.976272,159.654256 282.749088,159.324617 282.81,158.98 C283.319672,156.900797 284.813236,155.201869 286.81,154.43 C287.122396,154.348582 287.446522,154.512575 287.56598,154.812491 C287.685438,155.112407 287.562824,155.454339 287.28,155.61 C285.694741,156.225649 284.505888,157.571028 284.09,159.22 C284.022594,159.521821 283.749013,159.732268 283.44,159.72 L283.44,159.72 Z" id="Path" fill="#FFFFFF"></path>
                <path d="M321.66,147.38 L321.78,147.38 C321.944631,147.348545 322.089941,147.252783 322.183778,147.113904 C322.277615,146.975025 322.312243,146.804478 322.28,146.64 C321.773453,144.559169 320.27878,142.858978 318.28,142.09 C318.123703,142.024393 317.947563,142.024537 317.791373,142.0904 C317.635184,142.156263 317.512126,142.282287 317.45,142.44 C317.319262,142.765834 317.475425,143.136165 317.8,143.27 C319.385259,143.885649 320.574112,145.231028 320.99,146.88 C321.058589,147.189658 321.343627,147.402372 321.66,147.38 L321.66,147.38 Z" id="Path" fill="#FFFFFF"></path>
                <path d="M316.65,150.47 L316.78,150.47 C316.944631,150.438545 317.089941,150.342783 317.183778,150.203904 C317.277615,150.065025 317.312243,149.894478 317.28,149.73 C316.767228,147.652416 315.274762,145.954736 313.28,145.18 C312.967604,145.098582 312.643478,145.262575 312.52402,145.562491 C312.404562,145.862407 312.527176,146.204339 312.81,146.36 C314.392323,146.979854 315.579578,148.323424 316,149.97 C316.070929,150.26956 316.342269,150.478283 316.65,150.47 L316.65,150.47 Z" id="Path" fill="#FFFFFF"></path>
                <path d="M311.65,153.55 L311.77,153.55 C312.113728,153.484256 312.340912,153.154617 312.28,152.81 C311.770328,150.730797 310.276764,149.031869 308.28,148.26 C308.063019,148.140578 307.796612,148.15707 307.596018,148.302342 C307.395423,148.447615 307.296655,148.695586 307.342437,148.938991 C307.388219,149.182397 307.570332,149.377537 307.81,149.44 C309.395259,150.055649 310.584112,151.401028 311,153.05 C311.06369,153.354172 311.339668,153.566462 311.65,153.55 L311.65,153.55 Z" id="Path" fill="#FFFFFF"></path>
                <path d="M306.65,156.64 L306.77,156.64 C306.935964,156.611092 307.08302,156.515894 307.177336,156.376308 C307.271651,156.236721 307.305105,156.064765 307.27,155.9 C306.765024,153.818351 305.269792,152.117524 303.27,151.35 C303.054375,151.236625 302.793082,151.255499 302.595989,151.398685 C302.398896,151.54187 302.300185,151.784535 302.341361,152.024644 C302.382538,152.264754 302.556461,152.460664 302.79,152.53 C304.393481,153.120731 305.611924,154.450957 306.06,156.1 C306.106129,156.395856 306.351226,156.620182 306.65,156.64 L306.65,156.64 Z" id="Path" fill="#FFFFFF"></path>
                <path d="M301.65,159.72 L301.77,159.72 C301.934631,159.688545 302.079941,159.592783 302.173778,159.453904 C302.267615,159.315025 302.302243,159.144478 302.27,158.98 C301.763453,156.899169 300.26878,155.198978 298.27,154.43 C298.113703,154.364393 297.937563,154.364537 297.781373,154.4304 C297.625184,154.496263 297.502126,154.622287 297.44,154.78 C297.309262,155.105834 297.465425,155.476165 297.79,155.61 C299.37823,156.221381 300.568714,157.568606 300.98,159.22 C301.048589,159.529658 301.333627,159.742372 301.65,159.72 L301.65,159.72 Z" id="Path" fill="#FFFFFF"></path>
                <g id="Group" opacity="0.57" transform="translate(88.000000, 221.000000)" fill="#ffffff">
                    <polygon id="Path" points="1.53 24.65 0.55 22.9 28.47 7.33 50.85 17.62 81.47 0.58 82.45 2.33 50.93 19.86 28.56 9.57"></polygon>
                </g>
                <g id="Group" opacity="0.57" transform="translate(95.000000, 210.000000)" fill="#FFFFFF">
                    <polygon id="Path" points="1.12 19.02 0.17 17.26 23.17 4.92 34.38 9.8 47.47 0.31 48.64 1.93 34.62 12.09 23.26 7.14"></polygon>
                </g>
                <g id="Group" opacity="0.57" transform="translate(209.000000, 215.000000)" fill="#FFFFFF">
                    <polygon id="Path" points="23.86 54.86 0.67 42.69 39.51 17.46 3.81 2.04 4.6 0.2 43.73 17.1 4.62 42.51 24.79 53.08"></polygon>
                </g>
                <g id="Group" opacity="0.57" transform="translate(77.000000, 136.000000)" fill="#FFFFFF">
                    <polygon id="Path" points="19.5 49.2 0.43 38.55 65.55 0.44 66.56 2.17 4.46 38.51 19.51 46.91 54.48 27.86 75.6 39.47 74.63 41.22 54.47 30.14"></polygon>
                </g>
            </g>
        </g>
    </g>
</svg>