<?xml version="1.0" encoding="UTF-8"?>
<svg width="480px" height="343px" viewBox="0 0 480 343" version="1.1" xmlns="http://www.w3.org/2000/svg" xmlns:xlink="http://www.w3.org/1999/xlink">
    <title>Illustration 02</title>
    <defs>
        <linearGradient x1="48.5897627%" y1="-32.4534709%" x2="50.2760782%" y2="66.0378247%" id="linearGradient-1">
            <stop stop-color="#000000" offset="0%"></stop>
            <stop stop-color="#000000" stop-opacity="0" offset="100%"></stop>
        </linearGradient>
        <linearGradient x1="49.4247324%" y1="158.945082%" x2="50.1668715%" y2="16.2724864%" id="linearGradient-2">
            <stop stop-color="#000000" offset="0%"></stop>
            <stop stop-color="#000000" stop-opacity="0" offset="100%"></stop>
        </linearGradient>
        <linearGradient x1="-69.9756148%" y1="298.134733%" x2="70.394993%" y2="-0.853544212%" id="linearGradient-3">
            <stop stop-color="#000000" offset="0%"></stop>
            <stop stop-color="#000000" stop-opacity="0" offset="100%"></stop>
        </linearGradient>
        <linearGradient x1="287.642094%" y1="275.093353%" x2="15.8491848%" y2="18.5586258%" id="linearGradient-4">
            <stop stop-color="#000000" offset="0%"></stop>
            <stop stop-color="#000000" stop-opacity="0" offset="100%"></stop>
        </linearGradient>
        <linearGradient x1="-223.087855%" y1="236.793767%" x2="68.0631231%" y2="18.4306611%" id="linearGradient-5">
            <stop stop-color="#000000" offset="0%"></stop>
            <stop stop-color="#000000" stop-opacity="0" offset="100%"></stop>
        </linearGradient>
        <linearGradient x1="84.8310811%" y1="92.9230782%" x2="46.7905405%" y2="42.4801218%" id="linearGradient-6">
            <stop stop-color="#000000" offset="0%"></stop>
            <stop stop-color="#000000" stop-opacity="0" offset="100%"></stop>
        </linearGradient>
    </defs>
    <g id="DESIGN-SYSTEM" stroke="none" stroke-width="1" fill="none" fill-rule="evenodd">
        <g id="Illustrations" transform="translate(-90.000000, -1574.000000)" fill-rule="nonzero">
            <g id="Illustration-02" transform="translate(90.000000, 1574.000000)">
                <path d="M232.855493,8.85081429 C217.949534,13.295824 203.750826,19.8305074 190.684081,28.2593976 C177.184238,37.0543012 168.101165,49.4369276 155.749184,59.2782503 C131.606674,78.3878568 101.462848,91.2189485 72.5666977,101.15993 C61.0756119,105.121374 49.3100375,108.933329 39.341115,115.884542 C24.0446207,126.548051 14.387617,143.652021 8.33639369,161.266743 C-4.98877428,199.921964 -2.69305246,244.544265 17.7812927,280.010399 C37.7440912,314.467486 76.8961296,340.827282 117.520425,339.805778 C168.8872,338.560041 220.703139,342.297252 272.232113,342.297252 C308.12772,343.144353 344.160571,343.978997 379.844073,339.967724 C394.753788,338.285979 409.788271,335.694846 423.313067,329.167184 C448.678297,316.896674 470.23812,295.320508 477.37482,267.590401 C483.101995,244.831696 479.371681,220.727895 467.031595,200.756608 C459.470685,188.648044 448.890402,178.433 442.901563,165.477334 C434.85406,148.037016 436.076781,128.005564 433.718675,108.970702 C430.522102,83.6197314 420.807919,59.5264918 405.521223,39.0350232 C396.300905,26.7645132 384.759912,15.6276239 370.548895,9.56088441 C360.754647,5.38766527 350.07455,3.7682071 339.494267,2.53492741 C305.382835,-1.40160168 270.335647,-1.48880328 237.184925,7.60507723 C235.762575,8.00371309 234.315272,8.41480632 232.855493,8.85081429 Z" id="Path" fill="#DDDDDD" opacity="0.18"></path>
                <rect id="Rectangle" fill="#DDDDDD" x="216" y="270" width="84" height="44"></rect>
                <rect id="Rectangle" fill="url(#linearGradient-1)" x="216" y="270" width="84" height="44"></rect>
                <path d="M396,123.211168 L396,247.726472 C396.01649,254.6889 393.264503,261.371845 388.351121,266.300889 C383.437738,271.229934 376.766731,274 369.809881,274 L138.190119,274 C131.233269,274 124.562262,271.229934 119.648879,266.300889 C114.735497,261.371845 111.98351,254.6889 112,247.726472 L112,123.211168 C112,108.735166 123.725757,97 138.190119,97 L369.759996,97 C376.714667,96.9867899 383.38903,99.7424569 388.31141,104.659433 C393.233791,109.57641 396,116.250888 396,123.211168 L396,123.211168 Z" id="Path" fill="#FFFFFF"></path>
                <path d="M396,123.211168 L396,247.726472 C396.01649,254.6889 393.264503,261.371845 388.351121,266.300889 C383.437738,271.229934 376.766731,274 369.809881,274 L138.190119,274 C131.233269,274 124.562262,271.229934 119.648879,266.300889 C114.735497,261.371845 111.98351,254.6889 112,247.726472 L112,123.211168 C112,108.735166 123.725757,97 138.190119,97 L369.759996,97 C376.714667,96.9867899 383.38903,99.7424569 388.31141,104.659433 C393.233791,109.57641 396,116.250888 396,123.211168 L396,123.211168 Z" id="Path" fill="url(#linearGradient-2)"></path>
                <path d="M396,238 L396,246.734403 C396.01649,253.694729 393.264503,260.375657 388.351121,265.303213 C383.437738,270.23077 376.766731,273 369.809881,273 L138.190119,273 C131.233269,273 124.562262,270.23077 119.648879,265.303213 C114.735497,260.375657 111.98351,253.694729 112,246.734403 L112,238 L396,238 Z" id="Path" fill="#DDDDDD"></path>
                <path d="M383.829832,173.971326 C383.829832,173.971326 376.114515,199.66629 378.435282,205.243978 C380.75605,210.821665 405.5932,235 405.5932,235 L412,229.59779 L393.248692,202.248321 C393.248692,202.248321 400.383818,173.783314 394.396731,166.124961 C388.409645,158.466608 383.829832,173.971326 383.829832,173.971326 Z" id="Path" fill="#282328"></path>
                <path d="M395.478442,162 C400.011089,165.396146 403.596744,169.897024 405.892907,175.072713 C409.648122,183.591869 403.727399,203.720094 403.727399,203.720094 L429,217.243159 L425.783032,226 C425.783032,226 395.190542,214.741204 391.735744,210.600469 C388.280946,206.459734 384,177.724785 384,177.724785 L395.478442,162 Z" id="Path" fill="#473F47"></path>
                <path d="M356.833279,133.461844 L346.669298,129.634587 C345.865398,129.296593 345.028856,129.036937 344.172005,128.859446 C343.285467,128.714107 342.386441,128.750442 341.499902,128.677773 C339.296068,128.289972 337.134718,127.70199 335.044401,126.921595 C334.159404,126.713577 333.315711,126.365773 332.547108,125.892111 C331.787671,125.418862 331.242874,124.682511 331.02376,123.833143 C330.834197,122.263987 331.79492,120.778018 333.333755,120.260229 C334.858703,119.812024 336.502618,119.946348 337.928774,120.635688 C339.876662,121.483498 341.82455,122.040631 343.759952,122.912664 C346.107407,123.966371 348.479835,124.983743 350.86475,125.989003 C357.42585,128.799974 364.604058,129.986087 371.754603,129.440802 C373.602599,130.337058 375.562974,135.012125 376,136.9742 C374.901191,137.240655 361.940242,135.399696 356.833279,133.461844 Z" id="Path" fill="#FFBBAB"></path>
                <path d="M166.124102,138.337487 L177.043226,138.522022 C177.94087,138.50299 178.83805,138.577215 179.71985,138.743465 C180.595381,138.940302 181.408374,139.309373 182.221367,139.567723 C184.876813,140.35286 187.741237,140.060486 190.176193,138.755767 C192.002301,137.759276 193.553242,136.196877 195.579471,135.643271 C195.990185,135.588303 196.37867,135.426968 196.705154,135.175782 C197.098282,134.694301 197.098282,134.008747 196.705154,133.527266 C196.320267,133.057136 195.795429,132.717287 195.204243,132.55538 C193.056523,131.970123 190.780944,132.021478 188.662775,132.703009 C187.329396,133.005447 185.966156,133.162226 184.597809,133.170498 C181.233268,133.367336 177.868727,133.465755 174.491678,133.539569 C167.349052,133.724742 160.271197,132.165013 153.891681,129 C151.827929,129.159931 148.175713,132.826032 147,134.499152 C147.888039,135.151177 160.608255,138.239068 166.124102,138.337487 Z" id="Path" fill="#FFBBAB"></path>
                <path d="M154.43725,126.601965 C154.740093,126.79674 154.945101,127.113292 155,127.470905 C154.947281,127.799627 154.767426,128.093943 154.499778,128.289472 L150.18536,132.382307 C149.573234,133.051316 148.815631,133.568551 147.971875,133.893508 C147.047126,134.080968 146.089678,134.020165 145.195641,133.717201 C140.883848,132.614256 136.743214,130.919256 132.890171,128.679866 C131.635009,128.006387 130.495071,127.134803 129.513669,126.098231 C128.524264,125.049715 127.981208,123.653169 128.000497,122.206889 C128.145673,120.620442 129.008274,119.189716 130.339036,118.328141 C133.302854,116.313207 136.279177,116.905094 139.393062,118.038494 C142.861404,119.293823 146.182695,120.928118 149.297465,122.912116 C151.083951,124.035206 152.800428,125.267463 154.43725,126.601965 L154.43725,126.601965 Z" id="Path" fill="#DDDDDD"></path>
                <path d="M365,130.042532 L365,256.957479 C364.993139,260.844111 361.849309,263.993139 357.969094,264 L169.030906,264 C165.150691,263.993139 162.006861,260.844111 162,256.957479 L162,130.042532 C161.9967,128.173724 162.73639,126.380504 164.055657,125.059056 C165.374924,123.737607 167.165184,122.996695 169.030906,123 L357.969094,123 C359.834816,122.996695 361.625076,123.737607 362.944343,125.059056 C364.26361,126.380504 365.0033,128.173724 365,130.042532 L365,130.042532 Z" id="Path" fill="#FFFFFF"></path>
                <path d="M365,129.761971 L365,132 L162,132 L162,129.761971 C161.9967,127.967613 162.73639,126.245831 164.055657,124.977027 C165.374924,123.708222 167.165184,122.996826 169.030906,123 L357.969094,123 C359.834816,122.996826 361.625076,123.708222 362.944343,124.977027 C364.26361,126.245831 365.0033,127.967613 365,129.761971 L365,129.761971 Z" id="Path" fill="#DDDDDD"></path>
                <path d="M116,160.786255 C116,160.786255 112.344444,169.722103 108.191534,169.984187 C104.038624,170.246272 69.9822751,167.163654 69.9822751,167.163654 L69,163.082618 C69,163.082618 90.4981481,159.600633 95.1111111,160.773775 C97.4840078,161.401661 99.886755,161.909828 102.310317,162.296363 L105.393915,160 L116,160.786255 Z" id="Path" fill="#EF9786"></path>
                <path d="M126.003536,161 C127.332155,162.903879 127.332155,165.417108 126.003536,167.320988 C123.734408,170.666667 83.8930296,190 83.8930296,190 L82,185.728395 C82,185.728395 102.923619,166.950617 107.662461,166.580247 C108.853171,166.619431 109.997473,166.123774 110.77281,165.232992 C111.548146,164.34221 111.870537,163.152787 111.649106,162 L126.003536,161 Z" id="Path" fill="#FFBBAB"></path>
                <path d="M139,141.771263 C139,141.771263 139.333302,145.716411 144.764896,147.605299 C150.19649,149.494188 173.219042,147.605299 173.219042,147.605299 C175.601536,147.605299 177.959342,149.422458 180.292458,148.908393 C182.625575,148.394329 184.637733,146.015285 183.81065,143.851432 C183.318291,142.758448 182.365318,141.922613 181.193609,141.556074 C180.027263,141.199097 178.812187,141.013721 177.589006,141.006144 C175.473937,140.743256 173.324806,140.951797 171.305639,141.615849 C170.506445,142.058824 169.682177,142.457953 168.836733,142.811348 C167.843966,143.046422 166.818917,143.127129 165.799978,143.050448 L153.294968,142.679843 C150.887784,142.608113 148.023853,142.285328 146.912845,140.217115 C146.530164,139.51177 146.357341,138.615146 145.678392,138.208676 C145.208615,137.993635 144.676395,137.942938 144.172359,138.065216 C141.789864,138.423866 140.71589,140.25298 139,141.771263 Z" id="Path" fill="#FFBBAB"></path>
                <path d="M137.239062,141.239593 C137.428911,141.482154 137.665197,141.682168 137.933319,141.827277 C138.259878,141.969011 138.615718,142.024881 138.968615,141.989828 C141.344949,141.720618 143.637514,140.93184 145.691948,139.676604 C145.816049,139.631525 145.917098,139.536808 145.972087,139.414022 C146.009304,139.321966 146.009304,139.218489 145.972087,139.126432 L143.536097,130.77382 C143.327809,129.867633 142.937884,129.01594 142.391181,128.273038 C141.545502,127.351646 140.328883,126.889061 139.102594,127.022647 C137.901282,127.186883 136.758615,127.655247 135.777468,128.385573 C134.738602,129.049229 133.89624,129.991825 133.341477,131.111425 C132.525421,132.936996 133.341477,134.38745 134.023555,136.05047 C134.7887,137.961428 135.877333,139.718243 137.239062,141.239593 L137.239062,141.239593 Z" id="Path" fill="#DDDDDD"></path>
                <path d="M155.373051,114.834659 C155.338067,115.253777 155.338067,115.675158 155.373051,116.094277 C155.45453,116.486538 155.38824,116.895621 155.187305,117.24053 C154.914877,117.555434 154.444321,117.555434 154.060446,117.706588 C152.822139,118.160051 152.562095,119.973901 151.37332,120.54073 C150.98245,120.709677 150.559266,120.787161 150.135014,120.767461 C148.826232,120.891889 147.532658,120.405401 146.618223,119.444862 C146.395327,119.167746 146.098134,118.802456 145.788557,118.966207 C145.47898,119.129957 145.590428,119.192938 145.51613,119.331496 C144.649315,121.258712 142.135552,122.971793 140.265709,121.359481 C139.173864,120.210515 138.437593,118.760808 138.148205,117.190145 C137.652882,115.439275 138.494931,113.600233 139.262681,112.038306 C140.082159,110.315432 141.025849,108.656603 142.08602,107.07541 C143.757734,104.669539 146.048601,102.440015 148.90909,102.036937 C151.304105,101.797372 153.668009,102.73301 155.273986,104.556173 C156.069673,105.442621 156.605821,106.537735 156.82187,107.717815 C156.997547,108.330844 157.043965,108.974703 156.958083,109.607243 C156.797517,110.384705 156.573855,111.147287 156.289398,111.887152 C155.965319,112.703814 155.708518,113.546459 155.521648,114.406388 C155.4102,114.53235 155.385434,114.683504 155.373051,114.834659 Z" id="Path" fill="#FFBBAB"></path>
                <path d="M135.413537,135.500044 C134.958902,135.75068 134.483565,135.962209 133.992715,136.132321 C131.500044,137.049744 128.483911,137.260503 126.601945,139.03336 C125.423366,140.391834 124.750111,142.112052 124.695051,143.905618 C123.990803,150.126251 124.887128,156.422882 127.299893,162.204479 C125.931171,162.501671 124.544997,162.712848 123.149595,162.836756 C118.122118,163.207942 113.067635,162.945512 108.106325,162.055707 C101.750013,161.076297 95.4310916,159.687765 89,159.415018 C91.0066003,157.617366 91.9912054,154.989074 93.237541,152.608735 C97.8115926,143.806437 106.261748,137.7936 113.565274,131.049305 C116.930381,127.937506 120.108536,124.614949 123.747836,121.813091 C125.551983,120.310751 127.623507,119.1585 129.854881,118.416148 C135.961925,116.630893 140.137149,120.821283 140.922341,126.561373 C141.483192,130.888136 138.940667,133.466837 135.413537,135.500044 Z" id="Path" fill="#DDDDDD"></path>
                <path d="M157.675321,107.043428 C157.452141,107.655717 156.522224,109.829966 155.604706,108.692858 C155.530313,108.605389 155.480718,108.492928 155.369128,108.45544 C155.257538,108.417953 155.096352,108.45544 154.972363,108.605389 C152.1807,110.80673 148.245472,110.754751 145.512013,108.480432 L145.202041,108.917781 L142.833853,112.229137 C143.106629,111.566865 142.114718,110.979568 141.482375,111.304456 C140.890283,111.717599 140.505649,112.36974 140.428469,113.091339 C140.19467,114.344726 139.824606,115.568349 139.324968,116.740078 C138.810046,117.931022 137.811909,118.841365 136.584814,119.239214 C135.344926,119.551606 134.018245,119.101762 132.865149,119.464137 C131.042512,119.988955 130.162191,121.963273 129.071089,123.537729 C126.442525,127.286434 121.631757,129.023334 117.118563,128.998342 C116.073984,129.015891 115.031695,128.894042 114.018841,128.635968 C111.570609,127.956433 109.562641,126.190344 108.563331,123.837625 C108.421686,123.484184 108.305658,123.120857 108.216162,122.750501 C107.508875,119.85616 108.570082,116.814487 110.919119,115.003178 C112.228179,114.327627 113.473245,113.532929 114.638785,112.628998 C115.509393,111.426945 116.268899,110.147036 116.907781,108.80532 C118.56664,106.613911 121.036041,105.193741 123.751967,104.86918 C126.436661,104.571237 129.135137,104.416907 131.836041,104.406839 C133.32846,104.415246 134.790309,103.980656 136.039263,103.157271 C137.279152,102.195104 137.961091,100.583161 139.151384,99.5085319 C140.203287,98.664117 141.433402,98.0741821 142.747061,97.7841277 C146.193952,96.8469515 150.00041,96.5345595 153.22412,98.0715284 C155.518139,99.1474194 157.208206,101.208778 157.824107,103.68209 C158.101589,104.793107 158.049861,105.961725 157.675321,107.043428 L157.675321,107.043428 Z" id="Path" fill="#FC682D"></path>
                <path d="M81.4171425,185.038723 C79.9230344,185.261565 78.4792176,185.726773 77.1473733,186.414471 C76.5382315,186.637011 75.9967401,187.002471 75.5722451,187.477548 C75.1744382,188.109715 74.9797159,188.840638 75.0124887,189.578689 C74.8775811,193.614112 75.8376044,197.613848 77.7982528,201.184992 C77.9046739,201.423788 78.0699799,201.634116 78.2799036,201.797824 C78.6075045,201.989267 79.0008726,202.047756 79.373381,201.960413 C80.717772,201.700353 81.8694956,200.873898 82.51062,199.70919 C83.1452519,198.55152 83.4843524,197.265489 83.4999568,195.957153 C83.483485,195.174948 83.5665451,194.393739 83.747291,193.630889 C84.124801,192.455251 85.0490499,191.542255 85.582771,190.404137 C86.9496179,187.227412 84.8017157,184.651013 81.4171425,185.038723 Z" id="Path" fill="#DDDDDD"></path>
                <path d="M71.4378772,161.803934 C70.1229359,161.295051 68.731363,161.034895 67.3286631,161.035713 C66.7255748,160.949984 66.1115176,161.019158 65.5399464,161.237213 C64.9238765,161.612492 64.4277802,162.168863 64.1138073,162.836625 C62.1346922,166.335644 61.0642005,170.311424 61.0077249,174.372541 C60.9823544,174.638161 61.0196965,174.906216 61.1164982,175.153356 C61.2959692,175.469052 61.5864378,175.699446 61.9262551,175.79564 C63.1497132,176.196116 64.4811547,176.001882 65.5520323,175.2667 C66.5927714,174.531449 67.4537326,173.552358 68.0659044,172.407909 C68.4181548,171.711113 68.8481709,171.06012 69.3470124,170.468465 C70.205113,169.599493 71.4137053,169.209085 72.3443215,168.466051 C74.9065373,166.350294 74.4110145,163.088501 71.4378772,161.803934 Z" id="Path" fill="#DDDDDD"></path>
                <path d="M394.37824,139.334271 C393.586013,140.534523 392.363405,141.381597 390.964977,141.69912 C389.578247,141.999652 388.152615,142.075685 386.741998,141.924344 C386.168969,141.924344 385.608396,141.836757 385.035367,141.774194 C382.618981,141.544855 380.224091,141.126504 377.872498,140.522951 C376.489752,140.160091 375.131922,139.734668 373.786548,139.271709 C372.882139,139.01998 372.058101,138.537159 371.394772,137.870317 C370.869233,137.127598 370.527594,136.269711 370.398199,135.367831 C370.286085,134.879846 370.186428,134.404374 370.074313,133.916389 L369.102654,129.574576 C368.940841,129.257105 368.972184,128.874941 369.183539,128.588347 C369.394893,128.301752 369.749722,128.160271 370.099227,128.223234 C374.385217,127.820307 378.704728,127.963247 382.955021,128.648657 C384.412509,128.886393 385.85754,129.186691 387.277656,129.549552 C390.46669,130.375372 393.257095,131.55154 394.590012,134.867334 C395.203255,136.310488 395.125235,137.956177 394.37824,139.334271 Z" id="Path" fill="#DDDDDD"></path>
                <path d="M407.804699,175.486029 C407.569809,175.92792 407.233486,176.308782 406.822897,176.59785 C403.235543,179.471097 398.33912,180.345563 393.744789,179.883345 C391.611315,179.668831 389.503678,179.250479 387.451185,178.634108 C385.072203,177.959519 382.74357,177.110038 380.427524,176.260556 C380.328663,173.868572 380.661154,171.478294 381.409326,169.202364 C382.466651,164.630155 383.045663,159.208464 381.736593,154.648747 L381.623309,154.29896 C380.880663,151.925409 379.533832,149.764228 378.803774,147.390677 C378.139468,145.150936 377.883705,142.811417 378.048542,140.482393 C378.144773,138.786365 378.449114,137.108321 378.954821,135.485443 C379.444994,133.868372 380.15652,132.325737 381.069471,130.900741 C381.588269,129.984347 382.311645,129.198047 383.184122,128.602144 L383.272233,128.602144 C384.823313,127.944814 386.551456,127.821677 388.181243,128.252358 C392.146214,128.851992 396.123771,129.663996 398.628625,133.036937 C401.13348,136.409879 401.85095,139.483003 402.706881,143.692934 C404.708246,153.686834 407.376734,163.593288 407.968333,173.812051 C408.042276,174.375141 407.986323,174.947546 407.804699,175.486029 Z" id="Path" fill="#DDDDDD"></path>
                <path d="M394.6282,155.971353 C394.017891,156.389163 393.475481,156.89458 393.019259,157.470562 C392.738951,158.021697 392.587491,158.626908 392.57585,159.242354 C392.149238,163.886314 392.204417,168.560583 392.740545,173.193672 C392.917909,174.668101 393.019259,176.452284 391.815721,177.369155 C391.061163,177.836621 390.172673,178.053857 389.281955,177.988663 C388.648514,177.988663 388.015073,177.988663 387.3943,177.988663 C384.999892,177.319595 382.656159,176.477064 380.325094,175.634533 C380.225593,173.262121 380.560239,170.891402 381.313263,168.634094 C382.377444,164.099296 382.96021,158.721968 381.642652,154.19956 L381.528633,153.852636 C380.781172,151.498506 379.425608,149.355008 378.690816,147.000878 C378.022202,144.779464 377.764781,142.459088 377.930686,140.149121 C376.524446,139.789807 375.143544,139.368541 373.775311,138.910105 C372.855535,138.660837 372.017495,138.182733 371.342896,137.522408 C370.808427,136.786947 370.460983,135.937443 370.32939,135.044376 C370.21537,134.56116 370.114019,134.090334 370,133.607118 L370.228039,133 C372.82505,133.2847 375.377336,133.875455 377.829335,134.759402 C380.25733,135.727413 382.298075,137.440632 383.644327,139.641125 L384.987223,138.984446 C385.063236,139.802197 385.12658,140.619947 385.215262,141.462478 C385.303944,142.305009 385.367288,143.246661 385.455969,144.126362 C385.456763,144.556949 385.560907,144.98134 385.760021,145.365378 C386.043914,145.738483 386.418358,146.036559 386.84954,146.232689 C388.661183,147.236291 390.650189,148.277065 392.715208,147.781458 C394.780226,147.285852 395.451674,145.737082 396.515856,144.361775 C396.814306,145.864204 396.96701,147.390841 396.971934,148.921353 C397.136628,151.523286 396.604538,154.323462 394.6282,155.971353 Z" id="Path" fill="url(#linearGradient-3)"></path>
                <path d="M393.992076,148.603059 C394.041696,149.140622 393.856576,149.673401 393.484322,150.064383 L388.134327,156.590805 C387.847969,156.982627 387.496027,157.321995 387.09405,157.593917 C386.633658,157.817986 386.131919,157.944473 385.620325,157.965441 C381.793592,158.250275 378.065933,156.72703 374.58596,155.141865 C371.8136,153.669262 368.911731,152.454637 365.916986,151.513323 C363.824048,150.956038 361.582499,150.844581 359.415256,150.398754 C357.049865,150.113919 354.461557,151.637164 352.220008,150.894118 C349.978459,150.151072 348.244664,147.389417 349.334478,145.271735 C349.956203,144.198286 351.013784,143.448045 352.232392,143.215974 C353.457012,142.984817 354.709406,142.938897 355.947667,143.079749 C358.090078,143.067535 360.207313,143.54179 362.139791,144.466769 C363.496789,145.286836 364.948038,145.939683 366.461893,146.411073 C368.283859,146.979105 370.141429,147.42591 372.02242,147.748556 C375.818415,148.272774 379.572131,149.067377 383.254933,150.126304 C383.43533,150.211227 383.644212,150.211227 383.824609,150.126304 C383.980678,150.002866 384.086358,149.826735 384.121831,149.630939 C384.70389,147.438953 386.85875,143.129285 389.694742,144.008557 C390.908273,144.448073 391.949641,145.263801 392.666962,146.336768 C393.278353,146.979282 393.731999,147.755134 393.992076,148.603059 Z" id="Path" fill="#FFBBAB"></path>
                <path d="M395.939085,147.466365 C395.694509,147.66692 395.416935,147.824885 395.118333,147.933448 C394.756231,148.022184 394.377551,148.022184 394.015449,147.933448 C391.561536,147.374036 389.260102,146.297289 387.269897,144.77748 C387.154479,144.701736 387.026237,144.613369 387.000588,144.487131 C386.996021,144.386511 387.018118,144.286453 387.064709,144.196781 L390.578552,136.130126 C391.078697,134.993977 391.642964,133.8957 392.20723,132.797423 C392.438212,132.233088 392.813763,131.737276 393.297291,131.358301 C393.798789,131.100536 394.360853,130.978553 394.92597,131.004833 C395.436819,130.981752 395.94805,131.041459 396.43923,131.181567 C397.308156,131.579552 398.042625,132.21491 398.55523,133.012029 C399.050597,133.571108 399.449192,134.206573 399.735061,134.892986 C399.941989,135.519814 400.028957,136.178998 399.991545,136.837063 C399.890973,138.968177 399.372768,141.06005 398.465461,142.997513 C397.914018,144.272525 397.170212,146.431207 395.939085,147.466365 Z" id="Path" fill="#DDDDDD"></path>
                <path d="M376.087506,112.325465 C375.413142,113.922545 375.120494,115.667048 374.433406,117.239558 C374.254387,117.600438 374.117814,117.97955 374.026243,118.369799 C373.945637,118.7698 374.052813,119.183722 374.318892,119.50004 C374.726055,119.893167 375.451314,119.905453 375.782134,120.360006 C375.926525,120.586281 376.009659,120.843985 376.023887,121.109405 L376.354707,123.369888 C376.370233,123.648944 376.448379,123.921411 376.583736,124.168428 C376.786006,124.42283 377.053541,124.621857 377.359891,124.745834 C378.80336,125.434982 380.393839,125.788393 382.004095,125.777793 C382.356395,126.602051 382.396936,127.519747 382.11861,128.369977 C382.012428,129.113593 382.033922,129.869023 382.182229,130.605889 C382.195083,130.713767 382.239183,130.81596 382.309467,130.900734 C382.408373,130.971629 382.53007,131.006444 382.653011,130.999016 C383.232369,130.994259 383.807487,130.903092 384.358007,130.728741 L388.5696,129.610785 C389.335257,129.509407 390.022397,129.104212 390.465453,128.492829 C390.628089,128.06357 390.714135,127.610784 390.71993,127.153739 C390.914861,126.314355 391.183018,125.492406 391.521533,124.696693 C391.871734,123.423178 392.026071,122.106863 391.979591,120.789989 C392.037006,119.031059 391.973246,117.270388 391.788734,115.519625 C391.655452,113.432946 390.78922,111.452523 389.333031,109.905275 C388.051051,108.800533 386.41745,108.150552 384.701551,108.06249 C382.838574,107.861946 380.953948,108.146135 379.24302,108.885601 C377.783405,109.611787 376.657839,110.83878 376.087506,112.325465 Z" id="Path" fill="#FFBBAB"></path>
                <path d="M375.194999,105.572002 C374.897235,106.557067 374.941532,107.613619 375.320709,108.570416 C376.240505,110.980409 378.544553,112.583025 381.12851,112.610121 C381.365822,112.59093 381.604634,112.616465 381.832485,112.685395 C382.003464,112.758806 382.160734,112.860614 382.297612,112.986491 L384.91238,115.1318 C385.491858,115.548455 385.99029,116.067141 386.383187,116.662371 C386.720375,117.333035 386.929273,118.060577 386.999166,118.80768 C387.125344,118.292576 387.365933,117.812367 387.703141,117.402565 C388.075048,117.009209 388.657679,116.897974 389.148806,117.126561 C389.423037,117.342663 389.610399,117.649852 389.676788,117.992212 C389.981283,119.322426 389.492128,120.708826 388.419688,121.555181 C389.236803,121.743366 389.588791,122.684291 389.802498,123.487213 L390.732752,127 C391.151514,126.934252 391.497078,126.637958 391.625293,126.234714 C391.625293,126.422899 391.889284,126.510719 392.052707,126.410354 C392.205239,126.299226 392.315922,126.140163 392.366982,125.95871 C393.221809,123.687944 394.013782,121.379542 394.7429,119.071139 C395.569248,116.885644 395.995058,114.569659 396,112.233751 C395.99825,111.627122 395.865323,111.028017 395.610299,110.477358 C395.345648,109.924874 394.831238,109.532843 394.227489,109.423522 C394.117996,109.414977 394.011233,109.385144 393.913214,109.335702 C393.806187,109.229705 393.747158,109.084697 393.749791,108.934241 C393.697004,108.114975 393.540724,107.305645 393.284664,106.525473 C392.805124,105.279734 391.831725,104.286702 390.594313,103.78086 C389.356901,103.275019 387.96517,103.301209 386.747746,103.853246 C386.569471,103.969 386.352522,104.009596 386.144338,103.966157 C386.015196,103.906181 385.906091,103.810362 385.830063,103.690152 C385.111036,102.889972 384.139756,102.358836 383.077014,102.184672 C382.026584,102.008883 380.958938,101.958346 379.896552,102.034124 C379.35104,102.014064 378.806275,102.090517 378.287464,102.259946 C377.533204,102.548497 377.369781,103.276145 376.778944,103.690152 C376.048223,104.115089 375.488275,104.780351 375.194999,105.572002 L375.194999,105.572002 Z" id="Path" fill="#FC682D"></path>
                <path d="M434.776541,220.648799 C435.157156,221.132225 434.978743,221.888352 434.776541,222.458547 L430.827653,235.01522 C430.713305,235.515173 430.49844,235.98414 430.197258,236.391124 C429.205057,237.274286 427.721547,237.186877 426.831188,236.192795 C426.00787,235.188315 425.508543,233.939423 425.403879,232.622882 C424.904024,229.494567 424.867921,226.304824 425.296831,223.165092 C425.487139,221.789188 426.02238,218.45479 427.675679,218.045738 C429.328979,217.636685 433.254078,220.091 434.776541,220.648799 Z" id="Path" fill="#473F47"></path>
                <path d="M417,236.579979 C417,237.21342 416.481817,237.720173 415.963635,238.100238 L405.195549,246.220955 C404.800379,246.562949 404.340421,246.821486 403.843218,246.981085 C403.175904,247.063259 402.503424,246.87556 401.974511,246.459501 C401.445598,246.043442 401.103836,245.433308 401.024811,244.76404 C400.909064,243.441492 401.200167,242.115135 401.858958,240.963392 C403.251438,238.035487 405.084346,235.33937 407.293556,232.969363 C408.266728,231.93052 410.6807,229.460099 412.348996,230.106209 C414.017291,230.752319 416.001551,235.173739 417,236.579979 Z" id="Path" fill="#473F47"></path>
                <circle id="Oval" fill="#FFFFFF" cx="168.5" cy="127.5" r="2.5"></circle>
                <circle id="Oval" fill="#FFFFFF" cx="175.5" cy="127.5" r="2.5"></circle>
                <circle id="Oval" fill="#FFFFFF" cx="182.5" cy="127.5" r="2.5"></circle>
                <rect id="Rectangle" fill="#DDDDDD" x="200" y="310" width="114" height="8"></rect>
                <path d="M127.266583,161.371546 C125.892119,161.666941 124.500129,161.876841 123.098874,162 L114.012516,161.691934 C110.570713,161.568708 106.966208,161.396191 104,159.658701 C107.754693,158.266243 110.057572,154.458551 111.196496,150.663181 C112.335419,146.867812 112.635795,142.838312 113.974969,139.104556 C114.3175,137.836739 115.068471,136.712521 116.115144,135.900672 C117.066411,135.40115 118.108409,135.091278 119.181477,134.988798 C123.50933,134.112229 127.491844,132.034091 130.658323,129 C130.320401,129.320388 132.911139,133.448469 133.161452,133.929052 C133.411765,134.409634 133.774718,134.964152 134,135.432412 C131.496871,136.344287 128.468085,136.553771 126.578223,138.315907 C125.3947,139.666166 124.71862,141.375981 124.663329,143.158701 C123.947867,149.34878 124.843717,155.616314 127.266583,161.371546 L127.266583,161.371546 Z" id="Path" fill="url(#linearGradient-4)"></path>
                <path d="M142.1768,123.114051 C142.474117,122.961983 142.825201,122.961983 143.122518,123.114051 C146.45268,124.499325 149.630811,126.232428 152.605256,128.28519 C152.780361,128.381307 152.916181,128.537017 152.988656,128.724737 C153.052555,129.00915 152.835296,129.267707 152.618036,129.461625 C151.442279,130.586347 150.240962,131.672287 149.001305,132.719442 C146.892609,134.503485 145.359013,134.581052 144.413295,131.943771 C144.055456,131.000038 141.282202,123.747516 142.1768,123.114051 Z" id="Path" fill="url(#linearGradient-5)"></path>
                <rect id="Rectangle" fill="#DDDDDD" opacity="0.28" x="270" y="146" width="70" height="46"></rect>
                <rect id="Rectangle" fill="#DDDDDD" opacity="0.18" x="186" y="206" width="154" height="39"></rect>
                <path d="M142.55,112.057699 C142.825,111.388657 141.825,110.795357 141.1875,111.123566 C140.59058,111.540932 140.202809,112.19974 140.125,112.928714 C139.889294,114.194914 139.516212,115.431046 139.0125,116.614752 C138.493378,117.81787 137.487102,118.737519 136.25,119.139436 C135,119.455021 133.6625,119.000578 132.5,119.366658 C130.6625,119.896841 129.775,121.891341 128.675,123.481892 C126.025,127.268917 121.175,129.023572 116.625,128.998325 C115.571903,129.016054 114.521114,128.892959 113.5,128.632246 C111.031803,127.945765 109.00746,126.161622 108,123.784854 C110.283332,124.353357 112.673622,124.314213 114.9375,123.671243 L115.1625,122.69924 C122.0625,122.573006 126.975,114.973708 133.8375,114.355161 C133.388624,113.632372 132.629323,113.164812 131.7875,113.092819 C134.770803,110.414448 138.455405,108.661335 142.4,108.043452 C143.333355,107.88641 144.287305,108.159673 145,108.788233 L142.55,112.057699 Z" id="Path" fill="url(#linearGradient-6)"></path>
            </g>
        </g>
    </g>
</svg>