<?xml version="1.0" encoding="UTF-8"?>
<svg width="300px" height="238px" viewBox="0 0 300 238" version="1.1" xmlns="http://www.w3.org/2000/svg" xmlns:xlink="http://www.w3.org/1999/xlink">
    <title>Illustration 03</title>
    <defs>
        <linearGradient x1="15.1563076%" y1="-11.0717749%" x2="91.6084371%" y2="122.519985%" id="linearGradient-1">
            <stop stop-color="#FFFFFF" offset="1%"></stop>
            <stop stop-color="#FFFFFF" stop-opacity="0" offset="100%"></stop>
        </linearGradient>
        <linearGradient x1="-108.85029%" y1="-30.2215195%" x2="309.649776%" y2="202.861767%" id="linearGradient-2">
            <stop stop-color="#000000" offset="1%"></stop>
            <stop stop-color="#000000" stop-opacity="0.69" offset="8%"></stop>
            <stop stop-color="#000000" stop-opacity="0.32" offset="21%"></stop>
            <stop stop-color="#000000" stop-opacity="0" offset="100%"></stop>
        </linearGradient>
        <linearGradient x1="117.181403%" y1="118.419407%" x2="-51.8634701%" y2="-62.9663491%" id="linearGradient-3">
            <stop stop-color="#000000" offset="1%"></stop>
            <stop stop-color="#000000" stop-opacity="0.69" offset="8%"></stop>
            <stop stop-color="#000000" stop-opacity="0.32" offset="21%"></stop>
            <stop stop-color="#000000" stop-opacity="0" offset="100%"></stop>
        </linearGradient>
        <linearGradient x1="55.1309058%" y1="36.317347%" x2="18.3117665%" y2="126.434622%" id="linearGradient-4">
            <stop stop-color="#000000" offset="1%"></stop>
            <stop stop-color="#000000" stop-opacity="0.69" offset="8%"></stop>
            <stop stop-color="#000000" stop-opacity="0.32" offset="21%"></stop>
            <stop stop-color="#000000" stop-opacity="0" offset="100%"></stop>
        </linearGradient>
        <linearGradient x1="11.0803913%" y1="33.5152951%" x2="196.214377%" y2="106.795735%" id="linearGradient-5">
            <stop stop-color="#000000" offset="1%"></stop>
            <stop stop-color="#000000" stop-opacity="0.69" offset="8%"></stop>
            <stop stop-color="#000000" stop-opacity="0.32" offset="21%"></stop>
            <stop stop-color="#000000" stop-opacity="0" offset="100%"></stop>
        </linearGradient>
        <linearGradient x1="-25.5140899%" y1="51.1878491%" x2="388.068038%" y2="44.6843336%" id="linearGradient-6">
            <stop stop-color="#000000" offset="1%"></stop>
            <stop stop-color="#000000" stop-opacity="0.69" offset="8%"></stop>
            <stop stop-color="#000000" stop-opacity="0.32" offset="21%"></stop>
            <stop stop-color="#000000" stop-opacity="0" offset="100%"></stop>
        </linearGradient>
        <linearGradient x1="20.6563141%" y1="23.1423456%" x2="186.903018%" y2="175.276037%" id="linearGradient-7">
            <stop stop-color="#000000" offset="1%"></stop>
            <stop stop-color="#000000" stop-opacity="0.69" offset="8%"></stop>
            <stop stop-color="#000000" stop-opacity="0.32" offset="21%"></stop>
            <stop stop-color="#000000" stop-opacity="0" offset="100%"></stop>
        </linearGradient>
        <linearGradient x1="29.6648551%" y1="36.3966006%" x2="122.282609%" y2="97.0001049%" id="linearGradient-8">
            <stop stop-color="#000000" offset="1%"></stop>
            <stop stop-color="#000000" stop-opacity="0.69" offset="8%"></stop>
            <stop stop-color="#000000" stop-opacity="0.32" offset="21%"></stop>
            <stop stop-color="#000000" stop-opacity="0" offset="100%"></stop>
        </linearGradient>
        <linearGradient x1="60.1720432%" y1="44.417688%" x2="-82.9798996%" y2="122.870713%" id="linearGradient-9">
            <stop stop-color="#000000" offset="1%"></stop>
            <stop stop-color="#000000" stop-opacity="0.69" offset="8%"></stop>
            <stop stop-color="#000000" stop-opacity="0.32" offset="21%"></stop>
            <stop stop-color="#000000" stop-opacity="0" offset="100%"></stop>
        </linearGradient>
        <linearGradient x1="35.1225514%" y1="-3.12815518%" x2="67.6754848%" y2="104.645236%" id="linearGradient-10">
            <stop stop-color="#FFFFFF" offset="1%"></stop>
            <stop stop-color="#FFFFFF" stop-opacity="0" offset="100%"></stop>
        </linearGradient>
        <linearGradient x1="-74.076322%" y1="-31.6197403%" x2="249.604577%" y2="211.231997%" id="linearGradient-11">
            <stop stop-color="#000000" offset="1%"></stop>
            <stop stop-color="#000000" stop-opacity="0.69" offset="8%"></stop>
            <stop stop-color="#000000" stop-opacity="0.32" offset="21%"></stop>
            <stop stop-color="#000000" stop-opacity="0" offset="100%"></stop>
        </linearGradient>
        <linearGradient x1="80.8379035%" y1="11.2498458%" x2="13.328701%" y2="81.6364545%" id="linearGradient-12">
            <stop stop-color="#FFFFFF" offset="1%"></stop>
            <stop stop-color="#FFFFFF" stop-opacity="0" offset="100%"></stop>
        </linearGradient>
        <linearGradient x1="21.8050981%" y1="-34.1035856%" x2="95.4148286%" y2="214.318747%" id="linearGradient-13">
            <stop stop-color="#000000" offset="1%"></stop>
            <stop stop-color="#000000" stop-opacity="0.69" offset="8%"></stop>
            <stop stop-color="#000000" stop-opacity="0.32" offset="21%"></stop>
            <stop stop-color="#000000" stop-opacity="0" offset="100%"></stop>
        </linearGradient>
    </defs>
    <g id="DESIGN-SYSTEM" stroke="none" stroke-width="1" fill="none" fill-rule="evenodd">
        <g id="Illustrations" transform="translate(-570.000000, -1193.000000)" fill-rule="nonzero">
            <g id="Illustration-03" transform="translate(570.000000, 1193.000000)">
                <path d="M59.9024429,34.6981764 C80.936929,31.6417013 102.594659,33.7469265 123.449962,29.5520704 C145.263503,25.1622861 165.129407,14.1137524 186.156102,6.77665283 C207.182798,-0.560446778 231.465943,-3.85863289 250.973482,6.89360979 C262.916395,13.4821849 271.704136,24.6398783 278.598773,36.4447336 C292.188104,59.7245304 299.553328,86.1167165 299.983834,113.07493 C300.178598,126.439211 298.628278,139.897058 294.530449,152.621975 C280.834661,195.147524 239.381143,224.581691 195.668364,233.65755 C147.662993,243.63008 95.4663054,231.474354 56.7005267,201.447605 C23.6919648,175.834032 -8.95044132,130.16624 2.24457958,88.5685496 C9.66897409,60.9043314 28.366295,39.282889 59.9024429,34.6981764 Z" id="Path" fill="#DDDDDD" opacity="0.18"></path>
                <path d="M224.882983,149.207355 L201.216917,166.947027 C200.168491,167.73164 198.690809,167.508362 197.914138,166.447977 L188.098186,153.012612 C187.913186,152.762222 187.782054,152.475339 187.713247,152.170465 C187.477864,151.233064 187.824501,150.244473 188.590909,149.667417 L212.264674,131.927745 C212.830955,131.505835 213.552878,131.360167 214.235563,131.530065 C214.767118,131.667266 215.236798,131.98349 215.567453,132.426796 L225.383404,145.869958 C225.754225,146.379656 225.909838,147.017729 225.81598,147.643682 C225.722122,148.269636 225.38649,148.832145 224.882983,149.207355 Z" id="Path" fill="#DDDDDD"></path>
                <path d="M214.606742,131.52844 L210.164994,150.992427 L187.714263,151.685393 C187.475595,150.769948 187.827069,149.804512 188.604174,149.240972 L212.608346,131.916806 C213.18253,131.504777 213.914528,131.362521 214.606742,131.52844 Z" id="Path" fill="url(#linearGradient-1)"></path>
                <polygon id="Path" fill="url(#linearGradient-2)" points="202.247191 151.137219 202.990481 165.168539 225.842697 148.649286 212.012757 143.820225 210.407567 150.882244"></polygon>
                <path d="M229.213483,35.8333393 L202.392871,73.9585252 L197.238065,59.6917736 C179.437099,64.4086371 161.912418,70.1080085 144.744956,76.7635665 C124.953625,84.6254738 105.896463,94.3963676 100.421434,104.494516 C87.8702623,127.690649 117.354191,137.944633 117.354191,137.944633 C111.744877,138.39213 106.104119,138.256342 100.522968,137.539461 C85.8161502,135.614891 67.5556402,128.508786 72.8432216,104.494516 C77.0217386,85.5215287 104.225056,69.5639606 130.951945,58.1957516 L130.990996,58.1957516 C134.896152,56.543894 138.801309,54.9933295 142.59712,53.5206828 L142.706465,53.4739322 C157.004558,48.0199309 171.586699,43.3380824 186.389541,39.4487258 L183.819948,26.9662921 L229.213483,35.8333393 Z" id="Path" fill="#DDDDDD"></path>
                <path d="M101.522871,104.22998 C89.0541234,127.608155 118.344431,137.942612 118.344431,137.942612 C112.771953,138.39362 107.168238,138.256767 101.623739,137.534259 C99.4283227,134.94765 97.3767717,132.239441 95.4785935,129.422182 C78.6647932,104.669744 114.728727,85.1630637 114.728727,85.1630637 C117.731468,74.0668724 131.852888,64.8867963 131.852888,64.8867963 L131.852888,57.5678648 L131.891683,57.5678648 L143.421589,52.8561063 L143.530216,52.8089888 L146.067416,74.2631957 L145.55532,76.2656931 C125.893959,84.2050061 106.961946,94.0525813 101.522871,104.22998 Z" id="Path" fill="url(#linearGradient-3)"></path>
                <path d="M183.339552,183.986172 C182.613313,185.17891 182.163931,186.509749 182.022472,187.886684 C182.046859,189.264882 182.509433,190.602507 183.347486,191.718228 C185.069414,194.185342 187.709125,195.917031 190.718372,196.553636 C191.112099,196.670371 191.535582,196.65141 191.916438,196.499994 C192.177261,196.345518 192.380185,196.114625 192.495636,195.840969 C193.217649,194.423297 192.924083,192.737418 192.448031,191.243116 C191.971978,189.748814 191.321372,188.231523 191.39278,186.645264 C191.511793,183.679649 195.899414,177.955322 190.78978,176.560641 C186.529106,175.365199 184.696302,181.342407 183.339552,183.986172 Z" id="Path" fill="#B2857F"></path>
                <path d="M179.891999,188.764045 C179.891999,188.764045 178.405547,189.98988 178.68719,191.341442 C178.968834,192.693003 184.312237,202.114645 191.924435,201.03811 C199.536632,199.961576 187.034791,192.394402 187.034791,192.394402 L179.891999,188.764045 Z" id="Path" fill="#DDDDDD"></path>
                <path d="M182.245604,185.393258 C182.883855,185.416495 183.408321,185.905197 183.477153,186.540826 C183.876883,188.341404 185.177407,189.807517 186.916196,190.417745 C188.883576,190.952759 190.680554,189.308946 191.563551,189.774176 C192.446549,190.239406 194.925138,196.71386 194.274508,198.559273 C193.623879,200.404686 190.572115,200.358163 187.861158,199.094288 C185.150201,197.830412 180.208513,192.782665 179.828979,190.789929 C179.449445,188.797193 181.168967,185.928273 182.245604,185.393258 Z" id="Path" fill="#FFFFFF"></path>
                <path d="M150.699528,195.288093 C149.95575,196.651573 149.525348,198.156488 149.438202,199.69836 C149.546595,201.219759 150.123583,202.673854 151.093693,203.870442 C153.118145,206.544676 156.122339,208.355424 159.481511,208.926115 C159.920654,209.039143 160.386572,208.998355 160.79802,208.810864 C161.075601,208.618801 161.28937,208.351688 161.412917,208.042525 C162.138179,206.429012 161.720365,204.561948 161.129118,202.902335 C160.537872,201.242722 159.749543,199.606159 159.71801,197.854346 C159.71801,194.550487 164.266667,187.950453 158.559166,186.636593 C153.789777,185.537868 152.055454,192.283886 150.699528,195.288093 Z" id="Path" fill="#B2857F"></path>
                <path d="M147.338472,200 C147.338472,200 145.765341,201.466225 146.119296,202.980523 C146.47325,204.494821 152.907353,214.91864 161.370794,213.316208 C169.834235,211.713776 155.503018,203.8218 155.503018,203.8218 L147.338472,200 Z" id="Path" fill="#DDDDDD"></path>
                <path d="M149.739419,195.505618 C150.46785,195.498047 151.090087,196.019936 151.196363,196.727684 C151.731752,198.700056 153.274542,200.256191 155.267933,200.834474 C157.52029,201.329454 159.481259,199.434608 160.473556,199.898652 C161.465854,200.362696 164.616004,207.439368 163.954473,209.504364 C163.292941,211.56936 159.851402,211.677637 156.724877,210.40925 C153.598353,209.140863 147.762699,203.77342 147.274426,201.584678 C146.786152,199.395937 148.550237,196.155363 149.739419,195.505618 Z" id="Path" fill="#FFFFFF"></path>
                <path d="M168.12015,113.550228 C168.330787,113.587263 168.537963,113.642071 168.739492,113.714075 C173.632296,115.58661 179.523789,123.934999 182.852753,127.898533 C187.18023,132.918105 190.782214,138.528756 193.55189,144.564102 C199.172421,157.211521 199.69112,172.925217 191.794506,184.269663 L185.724953,182.990097 C185.194921,182.930973 184.695337,182.710528 184.292724,182.358116 C183.8742,181.739772 183.725868,180.9754 183.882409,180.243711 C184.203069,175.873924 184.002937,171.481154 183.286293,167.159367 C182.885754,164.197325 181.985021,161.326247 180.623121,158.670538 C178.718644,155.214149 175.714834,152.537983 172.788442,149.916433 C163.498308,141.62266 155.168156,133.048007 150.561798,121.321251 C154.719132,119.261462 163.63766,112.7544 168.12015,113.550228 Z" id="Path" fill="#473F47"></path>
                <path d="M153.599105,119.542205 C153.798457,119.623092 153.987335,119.728563 154.161518,119.856262 C158.468214,122.839805 162.251019,132.418548 164.562306,137.066594 C167.589379,143.006 169.783393,149.349025 171.080133,155.910022 C173.599435,169.610765 170.494607,185.109485 160.2402,194.382022 L154.654592,191.688982 C154.157387,191.505508 153.725406,191.17465 153.414202,190.73896 C153.152671,190.031502 153.186068,189.245872 153.506653,188.564114 C154.824222,184.36343 155.641601,180.01659 155.941208,175.617108 C156.236485,172.624351 156.025404,169.602147 155.317161,166.682182 C154.277082,162.858537 151.981204,159.529531 149.754665,156.263337 C142.705242,145.962262 136.588038,135.590525 134.831461,123.028239 C139.32306,121.991851 149.454198,117.736376 153.599105,119.542205 Z" id="Path" fill="#473F47"></path>
                <path d="M179.485769,90.1716958 C179.489624,90.2052178 179.489624,90.23907 179.485769,90.272592 C179.555745,91.5687196 179.983372,92.7096224 179.649045,94.0290337 C179.291393,95.4959087 177.922986,96.8230813 176.430178,96.6057665 C175.186171,96.4272579 174.338692,95.3096389 173.382361,94.4947083 C172.381507,93.6947495 171.271453,93.0413984 170.085744,92.5543975 C168.530735,91.8326019 166.929077,91.1573737 165.327418,90.5364742 C164.301112,90.1328896 162.341802,89.8845298 161.9064,88.8367619 C161.470997,87.7889941 161.610948,86.1358493 161.486547,85.0259915 L159.550562,67.4157303 L177.565334,82.1620927 C178.304203,83.7746315 178.879824,85.4568278 179.283618,87.1836171 C179.455675,88.1698245 179.523431,89.1713508 179.485769,90.1716958 Z" id="Path" fill="#FFFFFF"></path>
                <path d="M165.911336,91.8255 C166.020749,92.8739992 166.263022,93.9146739 166.388066,94.9553485 C167.044547,100.737744 166.333359,106.864422 168.677936,112.349482 C169.209373,113.570123 169.897116,114.86901 169.584505,116.167897 C169.202634,117.268695 168.432952,118.192307 167.41968,118.765672 C162.636744,122.11461 156.830009,123.609112 151.171765,125.025369 C146.912451,126.105167 140.91815,128.069147 136.666652,126.175588 C134.853513,125.393126 134.071987,123.577814 133.329538,121.7938 C130.984961,116.113125 129.750151,109.853428 128.640385,103.797171 C128.49971,103.014709 128.35122,102.232247 128.218361,101.410661 C127.296161,95.9490755 126.574553,90.440542 126.053536,84.8850607 C125.694034,80.8475561 125.529913,76.4657681 127.827598,73.1481286 C130.875548,68.7193928 137.330948,65.3235071 142.356157,63.7585828 C143.981279,63.2347988 145.6744,62.9527131 147.381366,62.9213483 C149.813408,63.035138 152.208116,63.5644046 154.461987,64.4862726 C157.14262,65.4643503 159.526272,66.2781109 161.050247,68.6567958 C162.739836,71.4200529 164.034135,74.4068298 164.895352,77.5299166 C165.706331,80.454488 166.108734,83.4774429 166.091086,86.512582 C166.091086,87.9992601 165.88789,89.5015874 165.895705,90.9804409 C165.871021,91.261887 165.876261,91.5451618 165.911336,91.8255 L165.911336,91.8255 Z" id="Path" fill="#FFFFFF"></path>
                <path d="M146.006194,127.873331 C144.366077,128.547792 140.297324,127.439195 138.980499,127.353918 C138.191981,127.307404 137.403463,126.997307 136.614945,126.904277 C132.672355,126.36936 130.992812,115.748536 130.306801,112.949911 C128.461669,105.468819 126.048804,97.7784127 125.086812,90.1810351 C124.724094,87.2428656 124.463883,84.2426767 125.134123,81.3665267 C125.804363,78.4903766 127.499677,75.7150081 130.220064,74.3893432 C134.951172,72.1101299 138.14467,87.2971326 139.177628,90.3981031 C140.470798,94.2743161 141.771852,98.1505291 143.057137,102.026742 C143.62487,103.763286 143.806229,105.69364 144.776106,107.282887 C146.250635,109.693892 147.496493,109.236498 149.964554,108.833372 C155.145117,107.949596 159.986618,105.786669 165.088329,104.57729 C165.512276,104.42143 165.982763,104.443857 166.389384,104.63931 C166.664261,104.861596 166.851199,105.171572 166.917691,105.515334 C167.218181,106.494301 167.382632,107.508725 167.406572,108.531028 C167.436405,108.823688 167.393096,109.119084 167.280409,109.391547 C167.10235,109.669809 166.855485,109.899182 166.562858,110.058256 C163.114729,112.300838 159.327827,113.993653 155.342247,115.074075 C152.188175,115.942347 149.199692,117.399803 147.070693,119.989113 C145.154595,122.314841 147.646311,124.764608 146.605468,127.284146 C146.495678,127.552597 146.279242,127.765389 146.006194,127.873331 L146.006194,127.873331 Z" id="Path" fill="#020202" opacity="0.1"></path>
                <polygon id="Path" fill="#DDDDDD" points="142.696629 115.581131 172.513331 105.617978 194.382022 117.977528 163.950945 130.337079"></polygon>
                <polygon id="Path" fill="url(#linearGradient-4)" points="142.696629 115.581131 172.513331 105.617978 194.382022 117.977528 163.950945 130.337079"></polygon>
                <polygon id="Path" fill="#DDDDDD" points="143.820225 114.457536 173.636926 104.494382 195.505618 116.853933 165.07454 129.213483"></polygon>
                <polygon id="Path" fill="url(#linearGradient-5)" points="165.997735 128.089888 191.011236 116.900853 178.804143 110.11236 153.932584 119.648196"></polygon>
                <polygon id="Path" fill="#DDDDDD" points="165.168539 129.213483 194.754585 129.213483 220.224719 113.483146 195.787475 116.765797"></polygon>
                <path d="M154.531545,57.06035 C154.232061,58.1739552 153.909539,59.2875605 153.56398,60.3932679 C152.796072,62.9205989 151.260255,65.2267886 148.587934,65.8349276 C147.997324,65.9518322 147.399431,66.0257295 146.798707,66.0560691 C146.683521,66.0560691 146.552976,66.0560691 146.399395,66.0560691 C146.382428,66.0645594 146.362608,66.0645594 146.345641,66.0560691 L146.276529,66.0560691 C145.976665,66.0415654 145.676384,66.0735141 145.385756,66.150844 C145.304532,66.1551829 145.225516,66.1795631 145.155383,66.2219252 C144.387475,66.585229 144.448907,67.8646904 144.502661,68.5912981 C144.691783,69.408804 144.599515,70.2684596 144.241572,71.0238543 C144.241572,71.0238543 144.241572,71.0712417 144.195498,71.1028334 C143.765481,71.5852529 143.165087,71.8698167 142.529136,71.8926243 C141.205151,72.002669 139.890065,71.5904059 138.850855,70.7395295 C138.256176,70.1716323 137.778323,69.486796 137.445583,68.7255626 C137.341462,68.5092266 137.254159,68.284751 137.184494,68.0542402 C137.097375,67.6634342 137.063774,67.2620257 137.084666,66.8616559 C137.098688,66.2475383 137.155143,65.635223 137.253605,65.0293408 C137.536854,63.8336009 137.759845,62.6236078 137.921686,61.4042003 C137.931785,60.7864033 137.972794,60.1695504 138.044551,59.5560894 C138.142811,59.1641217 138.214653,58.765647 138.259565,58.3635051 C138.259565,57.2025123 137.683634,56.0810092 137.675955,54.9042206 C137.665747,53.7404781 137.771243,52.5787108 137.990798,51.4370383 C138.400505,49.1724619 139.35928,47.0508594 140.778305,45.2687708 C143.412231,42.109607 148.081114,40.530025 151.751717,42.3307484 C153.585934,43.2308564 155.009133,44.8276796 155.721803,46.7851695 C156.950457,50.1101895 155.41464,53.8143091 154.531545,57.06035 Z" id="Path" fill="#B2857F"></path>
                <path d="M151.160224,112.592971 C151.798129,112.51435 152.443628,112.44359 153.081533,112.388555 C153.461994,112.333192 153.849311,112.357251 154.220649,112.459314 C154.592431,112.560031 154.882776,112.860625 154.980059,113.245532 C154.97606,113.389281 155.004671,113.531999 155.063594,113.662227 C155.160807,113.778709 155.295904,113.854237 155.4433,113.874506 C157.721532,114.487756 160.075705,115.446941 161.43505,117.388899 C161.764245,117.762778 161.879584,118.288182 161.738814,118.772642 C161.427456,119.433065 160.516163,119.338719 159.832693,119.142164 C160.033461,119.439667 160.033461,119.835296 159.832693,120.132799 C159.624876,120.4224 159.292393,120.587155 158.944183,120.573081 C158.718266,120.529924 158.48663,120.529924 158.260713,120.573081 C158.105817,120.647695 157.962494,120.745733 157.835443,120.863981 C157.188979,121.306066 156.395511,121.453875 155.640747,121.272814 C154.881336,121.154882 154.121925,120.887568 153.362515,120.82467 C152.185428,120.730324 151.129847,121.131295 150.036296,120.635978 C148.830579,120.01804 147.555017,119.558475 146.239243,119.267959 C145.820735,119.19836 145.434802,118.991693 145.138097,118.678296 C144.879061,118.138449 144.879061,117.504188 145.138097,116.964342 C145.334684,115.999758 145.689119,115.077074 146.186084,114.236166 C146.831583,113.292705 147.909946,113.127599 148.965527,112.938907 C149.740126,112.80525 150.431189,112.703042 151.160224,112.592971 Z" id="Path" fill="#B2857F"></path>
                <path d="M127.076592,73.534299 C121.24325,82.997126 115.481336,93.9606313 113.822604,104.986341 C113.386095,107.886616 113.147999,111.307852 114.53689,114.029289 C116.806735,118.461344 124.528969,119.324429 128.973421,119.767634 C134.295518,120.296272 139.65469,120.366521 144.989318,119.977574 C145.226323,120.021509 145.470071,119.946625 145.639031,119.777969 C145.80799,119.609313 145.879856,119.369152 145.83059,119.137816 L146.052812,114.107044 C146.0896,113.872197 146.056535,113.631938 145.957574,113.415022 C145.675528,113.093616 145.25397,112.923215 144.822652,112.956265 C141.714103,112.712306 138.659689,112.017909 135.759145,110.895748 C133.005173,109.822724 127.624212,107.00798 128.013102,103.462336 C128.227388,101.471799 130.45755,99.0458317 131.560726,97.4751735 C134.211524,93.7040387 137.068671,90.0495369 139.989311,86.4727904 C139.989311,86.4727904 140.275025,66.1242134 127.076592,73.534299 Z" id="Path" fill="#FFFFFF"></path>
                <path d="M154.046544,51.3622336 C154.843289,51.1824956 155.523384,50.6796434 155.915747,49.9801711 C156.240482,50.8680884 157.77703,50.5978527 158.165127,49.7253775 C158.553225,48.8529023 158.165127,47.8646118 157.816632,46.9921366 C158.555764,46.8225052 159.157213,46.3007958 159.415942,45.6048614 C159.674672,44.908927 159.555754,44.1327156 159.099729,43.540841 C158.838357,43.2551633 158.474021,43.0080907 158.402738,42.6220397 C158.385801,42.3278134 158.431649,42.0333607 158.537384,41.7572855 C158.637993,40.8346348 158.223936,39.9301346 157.452296,39.3869326 C156.673649,38.8633618 155.804246,38.4814537 154.886101,38.2596638 C155.396116,37.4511191 155.209442,36.3989711 154.450482,35.8043796 C153.699399,35.2453638 152.78902,34.9270627 151.844686,34.8932993 C150.474465,34.7466 148.961677,34.8083681 147.884509,35.6654013 C146.37125,34.7498821 144.41341,34.9534625 143.132298,36.1595465 C142.911065,36.4585704 142.601637,36.6848006 142.245218,36.8081121 C141.99046,36.8260491 141.73503,36.7836659 141.500705,36.6845758 C140.502042,36.2682379 139.397103,36.157832 138.332564,36.368014 C137.22953,36.6243759 136.510713,37.6603788 136.67721,38.753809 C135.871722,38.8481207 135.211436,39.4209556 135.021856,40.1899186 C135.003838,40.4254295 134.92776,40.6532186 134.800086,40.8539263 C134.570396,41.1164409 134.166458,41.1009989 133.825883,41.131883 C132.478547,41.2462898 131.448341,42.352021 131.460674,43.6703654 C131.473231,44.9887097 132.524138,46.0757716 133.873405,46.1659876 C133.722042,46.7931152 133.845447,47.4533634 134.21398,47.9881481 C134.633759,48.6444348 135.196104,48.6907609 135.750529,49.0999749 C136.075263,49.3470475 135.948537,49.3702106 135.932697,49.8720769 C135.91673,50.3338973 135.940575,50.7962092 136.00398,51.2541393 C136.112044,52.1361922 136.338387,53.0006059 136.67721,53.8252388 C136.914821,54.4197573 137.215794,54.9911127 137.429643,55.5933522 C137.724251,56.515779 137.920655,57.4653231 138.01575,58.4269663 L139.354289,54.736319 C139.369251,54.6858788 139.369251,54.6323389 139.354289,54.5818987 C139.327467,54.5133855 139.277076,54.4560754 139.211723,54.4197573 C138.009261,53.5062944 137.620489,51.9004146 138.277121,50.5592476 C138.458125,50.1439946 138.848617,49.8511758 139.306767,49.7871456 C139.845351,49.7871456 140.257209,50.2426858 140.518581,50.6982259 C140.79671,51.183525 141.007137,51.7028462 141.144289,52.2424298 C141.506661,51.3975369 142.00682,50.6153363 142.625395,49.926124 C142.886767,49.6404463 143.203581,49.1540221 143.623359,49.3007214 C144.043138,49.4474208 144.241147,50.1886386 144.415395,50.4588743 C145.039376,50.2222544 145.607832,49.8650774 146.086589,49.4088157 C145.973912,50.5029388 146.524344,51.5610249 147.496412,52.1188935 C148.494376,52.5744336 149.943801,51.925868 149.943801,50.8449253 C149.943801,51.3313495 152.106057,50.5129215 152.264464,50.4202692 C152.606255,51.0587645 153.311159,51.4313602 154.046544,51.3622336 Z" id="Path" fill="#473F47"></path>
                <path d="M144.041358,65.7109017 C144.712877,65.7964468 145.390928,65.8235378 146.067416,65.7918513 C145.979226,65.7962985 145.893433,65.8212869 145.817285,65.864706 C144.983517,66.2370742 145.050218,67.5484579 145.108582,68.2931943 C145.313924,69.1310968 145.213743,70.0122006 144.825101,70.7864423 C144.56546,70.7883701 144.306959,70.7529062 144.058034,70.6812078 C143.803041,70.5938232 143.567998,70.4591022 143.366006,70.2845547 C141.819188,69.0482514 141.199187,67.0246698 141.798521,65.1685393 C142.520321,65.438171 143.273621,65.6203337 144.041358,65.7109017 Z" id="Path" fill="#96625E"></path>
                <path d="M173.789336,79.7752809 C173.789336,79.7752809 188.33624,90.1954779 186.326209,100.600249 C184.459184,110.280003 182.782834,117.977528 182.782834,117.977528 L175.974152,114.121053 C175.974152,114.121053 180.526515,99.5358618 171.02455,93.195816 C161.522586,86.8557701 173.789336,79.7752809 173.789336,79.7752809 Z" id="Path" fill="#FFFFFF"></path>
                <path d="M174.923453,115.011614 L174.259284,118.203279 C174.142349,118.607613 174.125734,119.031256 174.210687,119.442396 C174.303198,119.864735 174.693983,120.174417 175.158342,120.193376 C175.644319,120.193376 176.057399,119.697729 176.543376,119.787847 C176.71694,119.835753 176.881038,119.909291 177.029353,120.005631 C178.066104,120.531317 179.321544,120.005631 180.414993,119.532514 C180.5896,119.441479 180.791997,119.407119 180.990065,119.434886 C181.224954,119.494965 181.370747,119.712749 181.573238,119.847925 C181.987561,120.07905 182.51273,120.049177 182.893475,119.772827 C183.260447,119.49005 183.53994,119.12207 183.703437,118.706436 C184.589396,116.901804 184.427763,114.803721 183.274157,113.134164 C182.008345,111.683083 179.990512,110.986535 178.009407,111.316792 C175.903507,111.624694 175.304135,113.156693 174.923453,115.011614 Z" id="Path" fill="#B2857F"></path>
                <polygon id="Path" fill="#DDDDDD" points="162.921348 130.337079 192.507394 130.337079 217.977528 114.606742 193.540284 117.889392"></polygon>
                <polygon id="Path" fill="url(#linearGradient-6)" points="165.261816 129.213483 164.044944 130.337079 193.165151 130.337079 194.382022 129.213483"></polygon>
                <polygon id="Path" fill="#DDDDDD" points="220.224719 113.483146 218.976353 115.148924 193.258427 131.460674 194.506793 129.794896"></polygon>
                <polygon id="Path" fill="url(#linearGradient-7)" points="220.224719 113.483146 218.976353 115.148924 193.258427 131.460674 194.506793 129.794896"></polygon>
                <polygon id="Path" fill="#FFFFFF" points="195.638298 117.461531 215.730337 114.606742 194.775879 127.686579 171.910112 128.089888"></polygon>
                <polygon id="Path" fill="url(#linearGradient-8)" points="160.735222 115.730337 171.910112 111.697489 166.521128 107.865169 155.05618 111.697489"></polygon>
                <path d="M136.982919,158.778264 L91.4738676,179.415055 C89.4575082,180.327542 87.0780156,179.446884 86.1544243,177.446311 L74.5127561,152.109437 C74.2900182,151.639087 74.1698793,151.127286 74.1602157,150.607589 C74.0983246,148.991954 75.0274562,147.499951 76.5104852,146.833516 L122.019537,126.196725 C123.111568,125.708865 124.364961,125.725958 125.443096,126.243415 C126.281116,126.645254 126.951643,127.325036 127.33898,128.165469 L138.96498,153.510124 C139.405568,154.469782 139.444259,155.563992 139.07254,156.551987 C138.700821,157.539983 137.949149,158.340813 136.982919,158.778264 L136.982919,158.778264 Z" id="Path" fill="#DDDDDD"></path>
                <path d="M136.982919,158.778264 L91.4738676,179.415055 C89.4575082,180.327542 87.0780156,179.446884 86.1544243,177.446311 L74.5127561,152.109437 C74.2900182,151.639087 74.1698793,151.127286 74.1602157,150.607589 C74.0983246,148.991954 75.0274562,147.499951 76.5104852,146.833516 L122.019537,126.196725 C123.111568,125.708865 124.364961,125.725958 125.443096,126.243415 C126.281116,126.645254 126.951643,127.325036 127.33898,128.165469 L138.96498,153.510124 C139.405568,154.469782 139.444259,155.563992 139.07254,156.551987 C138.700821,157.539983 137.949149,158.340813 136.982919,158.778264 L136.982919,158.778264 Z" id="Path" fill="url(#linearGradient-9)"></path>
                <path d="M139.224126,158.77719 L93.7248776,179.415036 C91.7089525,180.32757 89.3299725,179.446867 88.4065802,177.446192 L76.7674196,152.115803 C76.5475471,151.6441 76.4250365,151.133406 76.4071226,150.613879 C76.348468,148.99707 77.275877,147.504363 78.7568858,146.83183 L124.256135,126.201765 C126.270109,125.292826 128.64495,126.168521 129.574432,128.162828 L141.213593,153.50878 C141.653582,154.46945 141.691131,155.564499 141.317967,156.552692 C140.944804,157.540885 140.191543,158.34115 139.224126,158.77719 Z" id="Path" fill="#DDDDDD"></path>
                <path d="M126.966292,125.118388 L112.951256,156.179775 L76.4070869,149.57396 C76.3492298,147.951687 77.2640283,146.453936 78.7248989,145.77913 L123.605465,125.079346 C124.675555,124.585707 125.907711,124.600021 126.966292,125.118388 Z" id="Path" fill="url(#linearGradient-10)"></path>
                <polygon id="Path" fill="url(#linearGradient-11)" points="100.342984 153.798069 96.6292135 177.52809 139.325843 157.80978 118.677281 144.94382 113.603098 156.203513"></polygon>
                <path d="M235.512566,108.943049 L206.409462,103.159012 C205.790932,103.036473 205.246252,102.671354 204.895561,102.144189 C204.54487,101.617024 204.41698,100.971123 204.540099,100.348953 L207.759126,83.9569443 C207.81554,83.649618 207.934368,83.357313 208.108177,83.0983153 C208.638686,82.2868699 209.604659,81.8795229 210.551535,82.0679605 L239.654639,87.8519978 C240.352629,87.9840167 240.952497,88.4295747 241.283544,89.0618842 C241.545863,89.550957 241.63348,90.1157988 241.531758,90.6620565 L238.304975,107.054065 C238.184987,107.677942 237.822906,108.227988 237.298845,108.582501 C236.774783,108.937013 236.131946,109.066765 235.512566,108.943049 Z" id="Path" fill="#DDDDDD"></path>
                <path d="M241.573034,88.9255289 L223.646004,98.8764045 L207.865169,83.0774759 C208.404824,82.2817484 209.38745,81.8822919 210.35065,82.0670793 L239.955498,87.7390784 C240.65084,87.8791498 241.244616,88.3146802 241.573034,88.9255289 L241.573034,88.9255289 Z" id="Path" fill="url(#linearGradient-12)"></path>
                <polygon id="Path" fill="url(#linearGradient-13)" points="218.770354 93.258427 208.988764 103.479194 235.955056 108.988764 230.479201 95.440122 224.269153 99.1158037"></polygon>
            </g>
        </g>
    </g>
</svg>