<?xml version="1.0" encoding="UTF-8"?>
<svg width="300px" height="236px" viewBox="0 0 300 236" version="1.1" xmlns="http://www.w3.org/2000/svg" xmlns:xlink="http://www.w3.org/1999/xlink">
    <title>Illustration 04</title>
    <defs>
        <linearGradient x1="-26.4758446%" y1="1.94318648%" x2="92.9168395%" y2="83.7113123%" id="linearGradient-1">
            <stop stop-color="#FFFFFF" offset="1%"></stop>
            <stop stop-color="#FFFFFF" stop-opacity="0" offset="100%"></stop>
        </linearGradient>
        <radialGradient cx="50%" cy="50%" fx="50%" fy="50%" r="50%" id="radialGradient-2">
            <stop stop-color="#FFFFFF" offset="1%"></stop>
            <stop stop-color="#FFFFFF" stop-opacity="0.69" offset="66%"></stop>
            <stop stop-color="#FFFFFF" stop-opacity="0.61" offset="67%"></stop>
            <stop stop-color="#FFFFFF" stop-opacity="0.47" offset="68%"></stop>
            <stop stop-color="#FFFFFF" stop-opacity="0.34" offset="70%"></stop>
            <stop stop-color="#FFFFFF" stop-opacity="0.23" offset="72%"></stop>
            <stop stop-color="#FFFFFF" stop-opacity="0.15" offset="75%"></stop>
            <stop stop-color="#FFFFFF" stop-opacity="0.08" offset="78%"></stop>
            <stop stop-color="#FFFFFF" stop-opacity="0.03" offset="81%"></stop>
            <stop stop-color="#FFFFFF" stop-opacity="0.01" offset="86%"></stop>
            <stop stop-color="#FFFFFF" stop-opacity="0" offset="100%"></stop>
        </radialGradient>
        <linearGradient x1="107.848589%" y1="-10.5872235%" x2="7.89136014%" y2="79.8823573%" id="linearGradient-3">
            <stop stop-color="#FFFFFF" offset="1%"></stop>
            <stop stop-color="#FFFFFF" stop-opacity="0" offset="100%"></stop>
        </linearGradient>
        <linearGradient x1="93.5105373%" y1="140.860215%" x2="15.749374%" y2="-36.3831867%" id="linearGradient-4">
            <stop stop-color="#FFFFFF" offset="1%"></stop>
            <stop stop-color="#FFFFFF" stop-opacity="0" offset="100%"></stop>
        </linearGradient>
        <linearGradient x1="49.0276897%" y1="-30.0100468%" x2="54.3159099%" y2="369.093224%" id="linearGradient-5">
            <stop stop-color="#FFFFFF" offset="1%"></stop>
            <stop stop-color="#FFFFFF" stop-opacity="0.69" offset="13%"></stop>
            <stop stop-color="#FFFFFF" stop-opacity="0.61" offset="15%"></stop>
            <stop stop-color="#FFFFFF" stop-opacity="0.47" offset="20%"></stop>
            <stop stop-color="#FFFFFF" stop-opacity="0.34" offset="25%"></stop>
            <stop stop-color="#FFFFFF" stop-opacity="0.23" offset="30%"></stop>
            <stop stop-color="#FFFFFF" stop-opacity="0.15" offset="36%"></stop>
            <stop stop-color="#FFFFFF" stop-opacity="0.08" offset="44%"></stop>
            <stop stop-color="#FFFFFF" stop-opacity="0.03" offset="52%"></stop>
            <stop stop-color="#FFFFFF" stop-opacity="0.01" offset="65%"></stop>
            <stop stop-color="#FFFFFF" stop-opacity="0" offset="100%"></stop>
        </linearGradient>
    </defs>
    <g id="DESIGN-SYSTEM" stroke="none" stroke-width="1" fill="none" fill-rule="evenodd">
        <g id="Illustrations" transform="translate(-1047.000000, -826.000000)" fill-rule="nonzero">
            <g id="Illustration-04" transform="translate(1047.000000, 826.000000)">
                <path d="M210.56608,38.0947679 C216.274023,48.7525541 222.078712,60.3458902 226.499205,71.4976468 C230.96435,82.8365134 240.63883,92.4539679 249.569119,100.357495 C259.39988,109.114243 270.08646,116.905504 279.336751,126.283458 C288.587043,135.661411 296.497791,146.962856 299.072691,159.910868 C301.982477,174.542871 297.748032,189.84847 290.507055,202.89378 C288.155412,207.12995 285.454,211.223917 281.926535,214.532022 C278.399071,217.840127 274.023229,220.339917 269.647387,222.547815 C257.963592,228.42307 245.677002,232.981069 232.705756,234.739903 C219.198693,236.566097 205.468373,235.757782 191.983636,234.081276 C173.855148,231.835956 155.897824,228.011427 137.657708,226.926189 C124.507856,226.177749 111.313354,226.79147 98.1709441,227.779411 C84.1206218,228.842196 69.8023909,230.271716 56.0943965,226.986065 C38.0998631,222.660081 22.5090659,210.146164 12.9759818,194.196907 C4.71546397,180.298375 -4.66134005,153.84102 2.60940402,138.258498 C10.3564302,121.650614 31.3351687,110.386591 45.0803727,99.5117574 C50.6543618,95.1034456 56.1613737,90.2610386 59.3241845,83.8843294 C62.8516489,76.7816335 63.1121157,68.5637619 64.5781716,60.7650167 C69.3335507,35.4827122 88.3550675,13.4336687 112.571036,5.13346867 C146.632649,-6.53471152 187.734306,1.21164287 207.827458,33.2748141 C208.77258,34.8390538 209.687935,36.4407154 210.56608,38.0947679 Z" id="Path" fill="#DDDDDD" opacity="0.18"></path>
                <path d="M168.807339,97.1371402 L234.345246,180.733945 L269.724771,139.130128 L180.728701,83.4862385 C180.728701,83.4862385 170.781907,89.0992738 168.807339,97.1371402 Z" id="Path" fill="url(#linearGradient-1)"></path>
                <circle id="Oval" fill="url(#radialGradient-2)" cx="144.495413" cy="69.266055" r="65.5963303"></circle>
                <path d="M114.295917,88.0733945 L21.1009174,139.362838 L55.9483916,181.651376 L125.688073,102.259359 C125.688073,102.259359 121.870806,91.3954241 114.295917,88.0733945 Z" id="Path" fill="url(#linearGradient-3)"></path>
                <path d="M99.0825688,11.6279695 L118.298907,40.3669725 L135.779817,30.4608679 L125.493862,1.83486239 C125.493862,1.83486239 103.395073,4.91592456 99.0825688,11.6279695 Z" id="Path" fill="url(#linearGradient-4)"></path>
                <path d="M225.798341,202.74668 C227.525682,203.677534 229.307003,204.646538 230.479128,206.210677 C231.55935,207.810781 232.126432,209.696174 232.106222,211.620313 C232.198096,215.811508 230.651094,219.87599 227.787868,222.966049 C227.443397,223.411925 226.952514,223.724933 226.399826,223.851124 C225.978478,223.869973 225.561389,223.76081 225.204567,223.538296 C223.230462,222.477732 222.181719,220.303196 221.479987,218.19733 C220.778254,216.091464 220.261594,213.855888 218.896686,212.093369 C216.328808,208.774341 206.705047,205.607911 211.331855,200.030417 C215.133549,195.315108 222.12774,200.793412 225.798341,202.74668 Z" id="Path" fill="#FFBBAB"></path>
                <path d="M195.816303,151.727402 C192.947236,156.323538 190.361342,161.090396 188.073032,166.001408 C184.076748,174.611126 184.031421,181.914281 190.618868,189.104151 C196.662397,195.682277 202.751253,202.328375 210.184794,207.229873 C211.929863,208.39294 213.961999,209.495588 216.024354,209.087759 C219.046118,208.491121 220.557,204.752691 219.952648,201.716632 C219.348295,198.680574 217.172624,196.218497 215.185814,193.839496 C211.801438,189.806523 202.879678,181.604633 204.730509,176.416146 C207.208356,169.498162 214.445482,164.332331 218.094262,157.995881 C218.55527,157.374227 218.740963,156.590703 218.607962,155.828347 C218.419102,155.254365 220.579664,150.89664 220.118845,150.541678 C215.397337,147.173314 207.593631,148.351486 202.199781,146.214162 C201.668985,145.949674 201.076131,145.83479 200.484929,145.881857 C199.645675,146.152799 198.947722,146.744677 198.543446,147.528277 C197.606699,148.940572 196.700169,150.330211 195.816303,151.727402 Z" id="Path" fill="#282328"></path>
                <path d="M231.966815,205.504587 C231.966815,205.504587 234.531558,205.700952 235.246443,207.415366 C235.961328,209.12978 237.376359,223.804258 228.25973,228.562324 C219.1431,233.320389 226.999468,215.17932 226.999468,215.17932 L231.966815,205.504587 Z" id="Path" fill="#DDDDDD"></path>
                <path d="M226.461974,201.85803 C225.764386,202.393743 225.561294,203.349633 225.98193,204.117449 C226.743905,205.495695 226.987737,209.005325 225.166617,211.166836 C223.345496,213.328347 219.992806,212.921651 219.367986,214.134206 C218.743167,215.346761 221.105289,224.602847 223.330257,226.139252 C225.555224,227.675657 228.991731,225.220422 231.064304,221.620414 C233.136876,218.020407 234.714164,208.463065 233.548342,205.924984 C232.38252,203.386904 228.12308,201.609494 226.461974,201.85803 Z" id="Path" fill="#FFFFFF"></path>
                <path d="M183.281311,206.028947 C183.491852,207.952978 183.687355,209.953057 183.070771,211.785829 C182.37996,213.571179 181.168313,215.101643 179.596847,216.173836 C176.250656,218.627927 172.09749,219.682117 168.002063,219.116918 C167.444295,219.092391 166.912456,218.871856 166.4982,218.493319 C166.248297,218.161868 166.104052,217.761344 166.084638,217.344985 C165.851539,215.147179 167.032071,213.055842 168.340432,211.261094 C169.648793,209.466346 171.190253,207.808485 171.859472,205.701938 C173.107678,201.747409 170.355609,192.142466 177.423765,192.682411 C183.401621,193.161518 182.830153,201.899506 183.281311,206.028947 Z" id="Path" fill="#FFBBAB"></path>
                <path d="M207.476439,153.808953 C202.159232,154.061961 196.862688,154.644167 191.617069,155.552244 C182.420863,157.146537 176.493099,161.214218 174.368612,170.593723 C172.422403,179.168633 170.468767,187.855292 170.654474,196.668601 C170.699043,198.739691 170.944176,201.00448 172.422403,202.442323 C174.613745,204.580463 178.491305,203.708817 180.593507,201.488728 C182.695709,199.268638 183.483107,196.154553 184.307645,193.204367 C185.681876,188.19799 187.278956,176.352546 192.545604,174.944503 C201.459535,172.545614 210.685454,178.013888 219.354252,174.482605 C222.434411,173.329597 225.359004,171.795459 228.060192,169.915777 C230.774787,168.009296 232.847302,165.320151 234.002813,162.205063 C234.523291,160.550835 234.798601,158.828888 234.819923,157.094387 C234.911775,155.661925 234.854515,154.223763 234.649073,152.803207 C234.351942,151.171665 234.069667,151.365364 232.42059,151.402614 C229.62013,151.462214 226.834526,151.715512 224.056351,152.035861 C218.54457,152.624408 213.047646,153.525854 207.476439,153.808953 Z" id="Path" fill="#473F47"></path>
                <path d="M185.543494,212.844037 C185.543494,212.844037 186.853504,215.026059 185.876547,216.553475 C184.899591,218.080891 173.901427,227.267207 164.827571,222.488577 C155.753716,217.709947 174.885784,214.138704 174.885784,214.138704 L185.543494,212.844037 Z" id="Path" fill="#DDDDDD"></path>
                <path d="M183.980483,207.422682 C183.147478,207.161221 182.243342,207.532965 181.855389,208.296434 C181.107116,209.636185 178.420817,211.776876 175.637242,211.536594 C172.853668,211.296313 171.312226,208.442059 169.972818,208.62409 C168.633409,208.806122 162.392815,215.767006 162.385321,218.337291 C162.377849,220.907576 166.298798,222.276453 170.369402,221.977921 C174.440006,221.67939 183.157383,217.609165 184.586584,215.286443 C186.015785,212.963721 185.110375,208.587684 183.980483,207.422682 Z" id="Path" fill="#FFFFFF"></path>
                <path d="M186.262543,118.977211 C186.383972,121.120202 187.055402,122.990716 188.862549,123.609312 C189.013528,123.666536 189.168813,123.710871 189.326836,123.741868 C192.648272,124.426741 197.005424,121.819804 200.041145,119.544257 C201.304919,118.601248 202.516351,117.585842 203.669725,116.50283 L203.669725,93.5779817 L187.512546,110.633538 C187.512546,110.633538 186.033972,115.214089 186.262543,118.977211 Z" id="Path" fill="#FFFFFF"></path>
                <path d="M200.292189,119.839198 C200.292189,120.922499 200.158093,122.028213 200.150643,123.118984 C200.150643,129.095815 201.543753,135.326662 199.755804,141.21384 C199.353515,142.528743 198.794781,143.933298 199.256668,145.233259 C199.776587,146.316247 200.667732,147.175459 201.767247,147.653876 C207.041697,150.545168 213.150523,151.434221 219.102903,152.270978 C223.572776,152.906016 229.942345,154.235861 234.084427,151.815244 C235.850027,150.784241 236.44601,148.864184 237.012194,146.951598 C238.807593,140.85523 239.336528,134.303129 239.805864,127.997573 C239.865463,127.168287 239.925061,126.331531 239.977209,125.502246 C240.3199,119.749546 240.436613,113.994355 240.327349,108.236675 C240.245402,104.060364 239.917611,99.5478567 237.198438,96.3950783 C233.577841,92.1963544 226.582491,89.417128 221.270792,88.4384219 C219.556018,88.0864749 217.799086,87.9883095 216.05594,88.1470514 C213.575365,88.5442283 211.179859,89.3601651 208.971192,90.5601969 C206.333967,91.8676287 203.987284,92.9733425 202.69102,95.5882061 C201.270535,98.6096787 200.279983,101.816151 199.748354,105.113781 C199.263094,108.206492 199.205436,111.351541 199.577009,114.46005 C199.733455,115.954258 200.128293,117.500763 200.277289,119.009913 C200.277289,119.286341 200.292189,119.56277 200.292189,119.839198 Z" id="Path" fill="#FFFFFF"></path>
                <path d="M224.273457,154.027363 C226.018802,154.537496 230.048827,152.96274 231.389672,152.726156 C232.191182,152.585685 232.887822,152.193844 233.711805,151.986834 C237.696886,151.003536 238.168803,139.943277 238.565813,136.971202 C239.599537,129.097421 241.180086,120.957484 241.277465,113.061524 C241.314919,110.02291 241.232521,106.917757 240.221269,104.049187 C239.210018,101.180617 237.14257,98.519057 234.228667,97.4913992 C233.671615,97.2562087 233.056416,97.189315 232.460849,97.2991754 C230.026355,97.9128128 229.524474,101.868186 229.104992,103.790424 C228.475769,106.747706 227.412082,109.778933 224.820282,111.590272 C218.520558,116.026205 207.89118,112.736222 201.082086,111.642025 C200.474949,111.481602 199.832997,111.504782 199.239361,111.708564 C198.36199,112.249648 197.962511,113.3051 198.265563,114.281405 C198.582546,115.220675 199.007282,116.1211 199.5315,116.965144 C201.164484,120.195982 200.730021,124.047851 201.651383,127.544844 C202.760015,131.751587 205.808751,135.233795 209.329405,137.843602 C212.850059,140.453409 216.865102,142.279535 220.752803,144.349637 C221.649113,144.753149 222.461859,145.317171 223.149844,146.013111 C223.963675,147.021749 224.376529,148.288878 224.31091,149.576644 C224.31091,150.404685 223.247223,152.91838 223.561835,153.502445 C223.715227,153.76707 223.972874,153.95712 224.273457,154.027363 L224.273457,154.027363 Z" id="Path" fill="#020202" opacity="0.1"></path>
                <path d="M211.873922,83.4596148 C212.511447,84.1574538 213.379427,84.5958846 214.314559,84.6924199 C215.095405,84.7788254 215.882373,84.7939207 216.665903,84.7375226 L217.10492,84.7375226 C217.215261,84.7183237 217.328759,84.7396557 217.424882,84.7976594 C217.515994,84.8921754 217.566758,85.0190344 217.56626,85.1509633 C217.737365,86.731148 217.767249,88.3236896 217.655552,89.9092903 L217.655552,89.9092903 C217.655552,90.1949403 217.610906,90.4805902 217.581142,90.7662402 C217.523043,91.065603 217.548813,91.3754065 217.655552,91.6607756 C217.877564,91.9905428 218.220178,92.217684 218.607995,92.2922123 C219.294041,92.5262401 220.012076,92.6505189 220.736111,92.6605505 C222.283831,92.6605505 223.712496,91.8712545 225.066752,91.1195441 C224.962256,88.4084777 225.104229,85.6934434 225.490887,83.0085886 C225.989431,79.5432035 226.889788,76.0703013 226.51774,72.5898821 C226.434407,71.2212411 225.941366,69.9104895 225.103957,68.8313299 C223.861316,67.4256314 221.859696,66.9670881 219.992014,66.9746052 C217.517561,66.929488 215.082254,67.6025934 212.975185,68.9140181 C212.231089,69.4477325 212.112033,70.1242719 211.93345,71.0112902 C211.665575,72.3794031 211.449788,73.7625503 211.300968,75.1456975 C211.127346,76.7242894 211.030613,78.3103984 211.010771,79.9040245 C210.995889,81.1217954 211.070298,82.4974255 211.873922,83.4596148 Z" id="Path" fill="#FFBBAB"></path>
                <path d="M214.843723,69.0353662 C216.618078,69.3353595 218.565357,69.0353662 220.241972,69.7103511 C222.587729,70.6628299 223.587683,73.7002622 222.805764,76.1077085 C223.482425,76.3477031 223.60272,75.1327302 224.129011,74.6077419 C224.655303,74.0827536 225.8357,74.7727382 225.918403,75.6202193 C225.870309,76.4722093 225.61205,77.2991692 225.166558,78.0276657 C224.523193,79.5230102 224.411771,81.1928499 224.850783,82.7600601 C224.956041,83.1275519 225.226705,83.5700421 225.602628,83.4725442 C225.978551,83.3750464 226.234178,82.722561 226.459732,82.4675666 C226.82488,82.0383374 227.221979,81.6372074 227.647647,81.2675934 C228.474677,80.5176101 229.376891,79.9101237 230.226476,79.2051394 C231.730167,77.9601672 233.113562,76.2577051 233.02334,74.3077486 C232.990066,73.5021155 232.729455,72.7222206 232.271495,72.0577988 C231.875033,71.4877364 231.36269,71.0073273 230.767805,70.6478302 C230.534733,70.4978336 230.25655,70.3328373 230.203921,70.0553434 C230.194303,69.9004079 230.214725,69.7450758 230.264068,69.5978536 C230.782842,67.6253976 229.677629,65.502945 228.008533,64.2654726 C226.299285,63.1299262 224.347796,62.4082765 222.309546,62.1580196 C221.001335,61.9255247 219.685606,61.7455288 218.369877,61.5880323 C217.275036,61.5348604 216.19943,61.2806088 215.19709,60.838049 C215.459963,60.1234051 215.813715,59.445379 216.249673,58.820594 C215.310733,59.0953631 214.416743,59.5046202 213.59566,60.0355669 C213.647805,59.5797996 213.769507,59.1346655 213.956546,58.7155963 C212.520521,59.2105853 211.001794,59.7505732 210.054469,60.9655462 C208.932386,62.5215783 208.878707,64.6039272 209.919137,66.2154291 C210.941646,67.8128935 212.543076,68.4653789 214.302394,68.8853695 C214.502886,68.9653678 214.683329,69.0153666 214.843723,69.0353662 Z" id="Path" fill="#FC682D"></path>
                <path d="M217.431193,84.2976555 L217.808492,84.2976555 C217.90332,84.2768275 218.000863,84.2999696 218.083473,84.362895 C218.161776,84.4654308 218.205404,84.6030541 218.204976,84.7461774 C218.352027,86.4604435 218.37771,88.1881151 218.281715,89.9082569 L218.281715,89.9082569 C218.281715,89.9082569 222.118656,88.6605505 222.016338,82.5688073 C220.54786,83.3441585 219.019638,83.9208802 217.456772,84.2895005 L217.431193,84.2976555 Z" id="Path" fill="#E0A194"></path>
                <path d="M162.108237,100.699562 C163.086273,101.324497 164.400509,101.509663 165.034705,102.504929 C165.798795,103.66993 165.034705,105.158972 164.874246,106.52457 C164.70512,108.030148 165.127611,109.542643 166.050945,110.737093 C166.330362,111.11165 166.647924,111.455575 166.998418,111.76322 C168.514015,113.007107 170.394621,113.7097 172.347053,113.761468 C172.347053,113.761468 173.424421,109.394641 173.393857,108.947156 C173.263962,107.404108 172.217158,105.999934 172.049058,104.402879 C171.981056,102.709073 171.828041,101.019837 171.590603,99.3416793 C170.890226,96.0557407 168.695334,93.2961581 165.6689,91.8964702 C165.294496,91.7267348 164.759632,91.6264367 164.553328,91.9890531 C164.482079,92.1431911 164.463275,92.3167836 164.499841,92.4828286 L164.499841,92.4828286 C164.729068,94.2341887 165.859923,95.7155153 166.952572,97.1119742 C165.965261,96.5417458 164.906394,96.1083693 163.804519,95.8235287 C163.315501,95.6923696 162.589614,95.769522 162.581974,96.278728 C162.619167,96.5229046 162.754667,96.7406967 162.956378,96.8805169 L165.905768,99.5499909 C164.708844,99.1578359 163.444789,99.0186452 162.192287,99.141083 C161.982322,99.1427502 161.778557,99.2131375 161.611578,99.3416793 C161.244815,99.7351567 161.642142,100.406383 162.108237,100.699562 Z" id="Path" fill="#FFBBAB"></path>
                <path d="M162.129133,99.7518414 C163.152796,100.357543 164.528343,100.53701 165.192125,101.501646 C165.991861,102.630794 165.192125,104.074009 165.02418,105.397579 C164.847164,106.856821 165.289365,108.322767 166.255774,109.480457 C166.618928,109.686285 167.005105,109.854292 167.407395,109.98147 C167.685845,110.100031 167.999863,110.123838 168.295103,110.04877 C168.777718,109.800897 169.002906,109.266644 168.830927,108.777544 C168.645743,108.310324 168.415538,107.859804 168.143153,107.43154 C167.767617,106.66476 167.718994,105.792922 168.007198,104.993778 C168.368784,104.37904 168.594516,103.702609 168.670979,103.004684 C168.595193,102.570024 168.417691,102.156375 168.151151,101.79328 L167.215459,100.297721 C167.051063,100.073615 166.941813,99.8182349 166.895564,99.5499408 C166.849932,99.2846793 166.987602,99.0212401 167.239451,98.8918946 C167.550532,98.8226525 167.87801,98.9041192 168.111164,99.1087507 C168.630993,99.4602073 169.870585,100.948289 169.710637,99.5648964 C169.51809,98.6281848 169.152764,97.7299255 168.630993,96.910278 C167.6264,95.235139 166.450628,93.6549294 165.120148,92.1917872 C164.980194,92.0295614 164.824956,91.8794035 164.656301,91.7431193 L164.656301,91.7431193 C164.896222,93.4405795 166.079832,94.8763168 167.223456,96.2297983 C166.190085,95.6771193 165.08182,95.2570803 163.92854,94.981006 C163.416709,94.8538834 162.656959,94.9286614 162.648962,95.4221961 C162.68789,95.6588579 162.829711,95.8699473 163.040833,96.0054644 L166.127817,98.5927826 C164.875054,98.2126966 163.552029,98.0777896 162.241096,98.1964593 C162.021336,98.1980752 161.808064,98.2662963 161.633296,98.3908821 C161.22543,98.8171166 161.641293,99.4676851 162.129133,99.7518414 Z" id="Path" fill="#E0A194"></path>
                <path d="M186.922481,98.8646997 C187.976043,99.4896343 189.412063,99.6362239 190.068736,100.670066 C190.855299,101.835068 190.068736,103.32411 189.902764,104.689708 C189.728361,106.223652 190.189671,107.762479 191.165595,108.90223 C191.470628,109.280998 191.811616,109.624884 192.183077,109.928358 C193.877594,111.195817 195.888251,111.891786 197.956021,111.926606 C197.956021,111.926606 199.117826,107.559778 199.081745,107.112294 C198.944638,105.569246 197.818914,104.165071 197.638509,102.568016 C197.559815,100.872436 197.39359,99.182796 197.140593,97.506817 C196.261677,94.0729808 193.889955,91.3017505 190.768705,90.0616078 C190.364599,89.8918725 189.787305,89.7915743 189.563603,90.1541907 C189.490495,90.3063522 189.470047,90.4812461 189.505874,90.6479662 L189.505874,90.6479662 C189.751224,92.3993263 190.94911,93.8806529 192.146996,95.2771118 C191.070125,94.7006349 189.931044,94.2679066 188.755391,93.9886663 C188.235826,93.8575072 187.449262,93.9346596 187.442046,94.4438656 C187.442046,94.6907534 187.658531,94.8836345 187.846152,95.0456546 L191.021272,97.7151285 C189.722879,97.3208896 188.368262,97.1823337 187.023507,97.3062207 C186.80045,97.3064189 186.582283,97.3761274 186.3957,97.506817 C185.991594,97.9002943 186.438997,98.5715205 186.922481,98.8646997 Z" id="Path" fill="#FFBBAB"></path>
                <path d="M186.032393,98.8175362 C187.167297,99.4242276 188.714187,99.566538 189.421559,100.5702 C190.26885,101.701193 189.421559,103.146766 189.242773,104.472499 C189.054905,105.961664 189.551831,107.455569 190.603103,108.562048 C191.009465,108.770173 191.436565,108.9383 191.877926,109.06388 C192.192168,109.182805 192.53663,109.206326 192.865137,109.13129 C193.377168,108.920861 193.634622,108.365964 193.455909,107.857987 C193.244564,107.384516 192.984132,106.932823 192.678578,106.509784 C192.271089,105.753175 192.217374,104.865137 192.530885,104.068038 C192.802951,103.401427 193.308216,102.772265 193.261576,102.075694 C193.176448,101.631765 192.978856,101.214964 192.686351,100.862311 L191.6525,99.3643075 C191.472415,99.1460499 191.349742,98.889088 191.294928,98.6153058 C191.275767,98.3348881 191.454226,98.076955 191.730233,97.9861444 C192.071518,97.9168095 192.427158,97.996311 192.701898,98.2033549 C193.277123,98.5553857 194.645226,100.045899 194.481987,98.6602459 C194.260166,97.7092381 193.854025,96.807125 193.284896,96.0012898 C192.157597,94.3039519 190.855451,92.7205336 189.398239,91.2750891 C189.242009,91.1103313 189.070261,90.9598869 188.8852,90.8256881 L188.8852,90.8256881 C189.149493,92.5259219 190.439863,93.9640052 191.730233,95.3196983 C190.570221,94.76005 189.343196,94.3399541 188.076775,94.0688654 C187.517097,93.9415352 186.669805,94.0164353 186.662032,94.5107765 C186.662032,94.750457 186.895231,94.9377074 187.097338,95.0949978 L190.517596,97.6865437 C189.11896,97.3038135 187.659757,97.1693024 186.21118,97.2895728 C185.9709,97.2897652 185.73589,97.3574387 185.534901,97.4843132 C185.029636,97.8812841 185.511581,98.5329156 186.032393,98.8175362 Z" id="Path" fill="#E0A194"></path>
                <path d="M170.642202,112.955105 C172.94974,116.119108 175.808044,118.871838 179.089785,121.09067 C181.453132,122.643618 184.185977,123.590571 187.031758,123.842627 C187.40713,123.874674 187.78534,123.833769 188.144101,123.722322 C188.763089,123.55234 189.308739,123.193681 189.699826,122.699738 C190.887956,121.329426 191.600834,119.633013 191.737825,117.849978 C191.93229,113.188194 186.705056,110.473833 186.705056,110.473833 C186.705056,110.473833 174.803765,106.804557 173.388055,107.406078 C172.610193,107.729395 171.879003,109.345982 171.365614,110.752036 C170.906675,111.93252 170.642202,112.955105 170.642202,112.955105 Z" id="Path" fill="#FFFFFF"></path>
                <path d="M228.337487,95.8500357 C233.071043,95.8585414 236.90622,99.6937487 236.914688,104.427305 L236.956511,127.80534 C236.96494,132.517012 233.152208,136.343411 228.440535,136.35184 C228.430338,136.351858 228.420141,136.351858 228.409943,136.35184 C223.676387,136.343334 219.84121,132.508127 219.832742,127.77457 L219.790919,104.396536 C219.78249,99.6848631 223.595222,95.8584646 228.306895,95.8500356 C228.317092,95.8500173 228.327289,95.8500174 228.337487,95.8500357 Z" id="Rectangle" fill="#FFFFFF" transform="translate(228.373715, 116.100938) rotate(-160.470000) translate(-228.373715, -116.100938) "></path>
                <path d="M219.969331,114.841869 L200.922708,104.587156 L193.577982,112.813219 C193.577982,112.813219 217.561223,136.696298 224.642563,135.752567 C231.723903,134.808836 228.72882,127.400177 228.72882,127.400177 C228.72882,127.400177 231.400314,119.463921 219.969331,114.841869 Z" id="Path" fill="#FFFFFF"></path>
                <path d="M171.559633,114.067133 C173.771133,117.141314 176.510475,119.815899 179.655633,121.971742 C181.920618,123.480605 184.539723,124.400675 187.267065,124.645575 C187.626813,124.676713 187.989283,124.636969 188.333113,124.528686 C188.490686,124.585455 188.652754,124.629436 188.81768,124.660186 C192.284199,125.339603 196.831676,122.753437 200,120.49602 L200,120.422965 L198.926497,113.6288 C196.849037,115.731387 194.433946,117.486064 191.777267,118.823048 C189.902227,119.808838 187.760134,120.197008 185.649356,119.933493 C185.080057,119.844365 184.52579,119.679696 184.001828,119.444021 C179.767963,117.450681 175.818196,114.92346 172.252937,111.926606 C171.813099,113.073577 171.559633,114.067133 171.559633,114.067133 Z" id="Path" fill="#020202" opacity="0.1"></path>
                <g id="I4ccdY" transform="translate(80.733945, 29.357798)" fill="#DDDDDD">
                    <path d="M84.6990826,94.9670804 C87.4546141,98.3651916 87.4769563,101.793308 84.6320561,105.25143 C86.071195,106.703553 86.8340013,108.700676 86.732218,110.749919 C86.5517305,114.57352 83.390076,117.562163 79.5901781,117.501133 C78.1602806,117.501133 76.7303832,117.501133 75.2334593,117.501133 C75.0994064,117.92871 74.9653535,118.251268 74.8610901,118.656341 C73.4808011,123.686051 68.9427041,127.17342 63.761938,127.185686 C58.5811718,127.197887 54.0268917,123.731986 52.6232056,118.708851 C52.3625472,117.793686 52.0125202,117.418618 51.0443605,117.486131 C49.7839746,117.563683 48.5197163,117.551149 47.2610901,117.448624 C44.6114987,117.352202 42.2712335,115.681519 41.303184,113.195359 C40.1871763,110.780397 40.5712443,107.931766 42.2862385,105.904047 C42.4202914,105.731516 42.5468969,105.551484 42.6735024,105.371452 C42.7003482,105.301578 42.7178781,105.228428 42.7256341,105.153913 C39.9775499,101.778305 39.9775499,98.3051808 42.7703184,94.8095521 C40.9337218,92.9683365 40.2474504,90.2609627 40.9829466,87.7582839 C41.4176093,85.7883128 42.7883277,84.1607159 44.6470588,83.4075013 C45.6747976,83.0099298 45.6226659,82.3648138 45.5184026,81.5696708 C44.8551383,75.4071551 42.2444894,69.6221086 38.07102,65.0667026 C34.4143551,61.120993 31.1449541,56.9577442 29.1788451,51.8868322 C28.6426336,50.4990826 28.2702644,49.0513222 27.7266055,47.6710739 C27.5776579,47.2885051 27.0861306,46.7859147 26.7509984,46.7784134 C21.3069617,46.7259039 15.8703724,46.7409066 10.3146249,46.7409066 C10.277388,47.1159741 10.2029142,47.4460335 10.2029142,47.7760928 C10.2029142,51.6767944 10.2029142,55.5849973 10.2029142,59.4856989 C10.1008678,60.1351536 10.5029064,60.7571597 11.133837,60.9259579 C14.6622307,62.2701304 16.7005304,65.994895 15.9448462,69.7175391 C15.1702411,73.4449105 11.8763666,76.092717 8.09617659,76.0267531 C4.31598655,75.9607892 1.11514442,73.1996506 0.469185105,69.4474906 C-0.150040691,65.8035902 1.88783547,62.2303537 5.32487858,60.9334593 C5.99933366,60.7434094 6.41898376,60.0671038 6.29303832,59.3731786 C6.29303832,54.8723691 6.29303832,50.3340529 6.29303832,45.8107393 C6.29303832,43.1102536 6.82924987,42.5626552 9.46562331,42.5626552 L26.49034,42.5626552 C25.1051268,30.1554236 28.6053967,19.5185105 37.2815974,10.7794387 C43.8194635,4.05346091 52.7226944,0.18935355 62.0664868,0.0225040475 C73.5652455,-0.322558014 83.2989746,3.90820291 90.9697787,12.5197518 C98.6405828,21.1313006 101.626983,31.2281166 100.130059,42.7351862 L116.357906,42.7351862 C116.357906,42.2776039 116.424933,41.8950351 116.424933,41.5124663 C116.424933,37.6942795 116.424933,33.8760928 116.424933,30.0654074 C116.571715,29.4029728 116.174472,28.7416157 115.523799,28.5651376 C111.996636,27.2254568 109.948875,23.5127773 110.683001,19.7885591 C111.426319,16.0442114 114.713678,13.3653535 118.504355,13.4149636 C122.295033,13.4645738 125.51218,16.228559 126.158662,19.9910955 C126.776123,23.6800192 124.717097,27.2937133 121.243389,28.6176471 C120.960389,28.7301673 120.684835,28.8576902 120.357151,29.0002159 L120.357151,43.8828926 C120.357151,46.2383162 119.858176,46.7409066 117.534593,46.7409066 C112.053319,46.7409066 106.564598,46.7409066 101.075877,46.7409066 C100.724726,46.6855109 100.366399,46.7778276 100.08478,46.9962457 C99.8031609,47.2146637 99.6229739,47.5400073 99.5864004,47.8961144 C98.0158984,53.5018776 95.1060718,58.6348374 91.111279,62.8463033 C87.4769563,66.7320022 84.4533189,70.9627631 83.0830005,76.1912035 C82.6282167,78.148085 82.2998435,80.1326015 82.099946,82.132272 C82.1144125,82.6112543 82.3551755,83.0544579 82.7478683,83.3249865 C87.0896924,85.8754452 88.0206152,90.6463033 84.9076093,94.5770103 C84.8306781,94.7028673 84.7610525,94.833109 84.6990826,94.9670804 Z M63.4442526,92.7166757 C68.6574204,92.7166757 73.7961144,92.7166757 78.9794927,92.7166757 C80.037318,92.8270529 81.0733327,92.3610417 81.6977874,91.4939557 C82.4617709,90.5499687 82.6155654,89.2463948 82.0924987,88.148354 C81.480047,86.9386731 80.1945529,86.2302487 78.8528872,86.3630329 C68.590394,86.3630329 58.3204533,86.3630329 48.0505127,86.3630329 C45.779061,86.3630329 44.4385321,87.6157582 44.4683216,89.6186185 C44.4981112,91.6214787 45.7865084,92.701673 48.0430653,92.701673 L63.4442526,92.7166757 Z M63.4889369,96.6998921 L60.3535888,96.6998921 C56.2202914,96.6998921 52.0795467,96.6998921 47.9462493,96.6998921 C45.7120345,96.6998921 44.222558,98.3351862 44.4981112,100.375553 C44.7215326,102.048354 46.0248246,103.038532 48.1175391,103.038532 C54.5222882,103.038532 60.9220723,103.038532 67.3168915,103.038532 C71.1076093,103.038532 74.898327,103.038532 78.6815974,103.038532 C80.5508904,103.038532 81.8020507,102.115866 82.1222882,100.623098 C82.3722821,99.6461099 82.142621,98.6076221 81.5045697,97.8298817 C80.8665185,97.0521413 79.8972644,96.6292343 78.8975715,96.6923907 C73.7588775,96.6923907 68.6276309,96.6923907 63.4889369,96.6923907 L63.4889369,96.6998921 Z M63.4442526,107.02925 L47.5291959,107.02925 C46.31398,106.934673 45.1757576,107.63647 44.7066379,108.769563 C44.1554633,109.820251 44.3487603,111.110123 45.1832704,111.950135 C45.8620677,112.600324 46.7380986,113.001885 47.6706962,113.09034 C58.1938478,113.165353 68.7244468,113.142849 79.2475985,113.127847 C79.6811416,113.117736 80.1095992,113.031424 80.5136535,112.872801 C81.789194,112.405647 82.5700413,111.107289 82.390394,109.75224 C82.2352426,108.350057 81.1442844,107.238777 79.7540205,107.066757 C79.2787896,107.02168 78.801221,107.006648 78.324123,107.021749 L63.4442526,107.02925 Z M56.2053967,117.163573 C56.6894765,120.464166 60.0184566,123.007124 63.6527793,122.864598 C67.0785753,122.729574 70.2586077,120.059093 70.4298975,117.163573 L56.2053967,117.163573 Z M114.510886,21.4088505 C114.575881,23.6190032 116.397389,25.3633137 118.592121,25.3170534 C120.698609,25.2486273 122.375384,23.5166504 122.390286,21.3938478 C122.365752,19.1808588 120.573336,17.4022509 118.376147,17.4106019 C116.219557,17.4556874 114.498282,19.2362031 114.510886,21.4088505 Z M8.25169995,71.9379385 C9.28325633,71.9459487 10.2751902,71.5382807 11.0067275,70.805669 C11.7382648,70.0730574 12.1486994,69.0762972 12.1466885,68.0372369 C12.0288915,65.8500518 10.2758675,64.1135909 8.10275229,64.0315165 C5.96521747,64.1470941 4.2905715,65.926121 4.28969239,68.082245 C4.34645384,70.2402756 6.10851035,71.9550501 8.25169995,71.9379385 Z" id="Shape"></path>
                </g>
                <path d="M158.600047,111.009174 C158.959709,108.909012 159.191991,106.944344 159.634075,104.987204 C161.132666,98.5512235 164.564441,93.2368349 169.052722,88.5020608 C174.145826,83.1954754 177.249408,76.278689 177.834467,68.9306578 C178.805027,58.5539251 174.937426,48.3106089 167.360681,41.1909005 C159.783935,34.0711922 149.352273,30.8777911 139.110866,32.5429032 C118.572671,35.8022945 105.819659,57.7599032 113.050362,77.3689435 C114.923601,82.4650358 118.025685,86.6954698 121.652277,90.6473877 C125.848985,95.1254011 128.705448,100.700286 129.894529,106.733576 C130.171769,108.141211 130.314135,109.571429 130.523938,110.994119 L158.600047,111.009174 Z" id="Path" fill="url(#linearGradient-5)"></path>
                <path d="M152.06753,85.2125018 C151.648506,87.1006344 151.319273,88.6977109 150.945144,90.3022505 C150.511155,92.3396425 150.137026,92.6605505 148.034423,92.6605505 C145.40804,92.6605505 142.796622,92.6605505 140.162756,92.6605505 C138.194839,92.6605505 137.738402,92.2799388 137.356791,90.3321024 C136.997628,88.5036736 136.608534,86.6752448 136.24937,84.6154638 L131.610175,87.6678204 C130.203451,88.5932293 129.425264,88.5335255 128.2505,87.3767644 C126.327478,85.4737059 124.404457,83.5631844 122.503883,81.6377369 C121.321637,80.4511239 121.254294,79.6675116 122.167168,78.2868613 C123.22221,76.6897847 124.292218,75.1076341 125.452017,73.368761 L120.528484,72.1373702 C118.732667,71.6895917 118.373503,71.2418132 118.36602,69.4357734 C118.36602,66.6446209 118.36602,63.8534684 118.36602,61.0623158 C118.292474,60.4924205 118.454072,59.9171642 118.81379,59.4683423 C119.173509,59.0195204 119.700518,58.7355991 120.274077,58.6816269 C122.189615,58.2860893 124.097671,57.8532367 126.260135,57.3756064 L123.267106,52.9724513 C122.234511,51.4798564 122.301854,50.7335589 123.588856,49.4200754 C125.424581,47.5593071 127.280259,45.7060017 129.155891,43.8601593 C130.442893,42.5914536 131.213599,42.5242868 132.725078,43.5243254 L137.536373,46.7110156 C137.917984,44.8676609 138.28463,43.1735656 138.628829,41.4869334 C138.965544,39.9047827 139.511772,39.4570043 141.157938,39.4495413 C144.041223,39.4495413 146.927002,39.4495413 149.815275,39.4495413 C151.379133,39.4495413 151.925361,39.9047827 152.262077,41.4197666 C152.688584,43.3228251 153.107608,45.2258837 153.564045,47.3155166 C155.157833,46.2408482 156.557074,45.2631985 158.053588,44.3303267 C159.550103,43.3974549 160.29836,43.3974549 161.510537,44.6064568 C163.401134,46.4821511 165.286743,48.3653083 167.167363,50.2559286 C168.387022,51.4798564 168.461848,52.3007836 167.526526,53.7187488 C166.449036,55.3456773 165.364062,56.9651428 164.174333,58.7487937 L169.576751,59.8980918 C171.073266,60.2264627 171.55215,60.7414079 171.559633,62.3235586 C171.559633,65.1594889 171.559633,67.9954193 171.559633,70.8313496 C171.559633,72.4732041 171.103196,72.9582974 169.464513,73.2866683 L163.478454,74.4732813 L166.471483,79.0033069 C167.496596,80.5630686 167.436735,81.2421993 166.127285,82.5482198 C164.33895,84.3467967 162.543132,86.1304476 160.747315,87.9215616 C159.2508,89.4141565 158.599816,89.4813233 156.871342,88.3544141 L152.06753,85.2125018 Z M121.890312,62.5698367 C121.890312,64.6520066 121.890312,66.6595468 121.927725,68.659624 C122.04368,69.0641701 122.346931,69.3888257 122.743326,69.5327921 C123.925572,69.838774 125.145232,69.9954965 126.342443,70.2343117 C127.627626,70.4183638 128.718767,71.2679129 129.209711,72.4667303 C129.700655,73.6655478 129.517866,75.0340716 128.729384,76.0628949 C128.460012,76.4658955 128.190639,76.8614331 127.928749,77.2644338 C126.058106,80.0630493 126.058106,80.0630493 128.415116,82.4138863 C130.412963,84.3990375 130.472824,84.4811303 132.777456,82.8616648 C134.543344,81.615348 136.174545,80.9138284 138.262182,82.19746 C139.137644,82.7422572 139.803593,83.2348135 139.998139,84.2945559 C140.260029,85.7050581 140.58178,87.1080973 140.940944,88.5036736 C141.023252,88.8021926 141.352485,89.249971 141.584445,89.249971 C143.447606,89.3171378 145.325732,89.249971 147.203857,89.249971 C147.510643,87.7573761 147.787498,86.3617999 148.064353,85.0035385 C148.376201,83.7826032 149.240658,82.7763239 150.402514,82.2817797 C151.564371,81.7872355 152.890928,81.8609102 153.990551,82.4810531 C155.344897,83.3467581 156.69176,84.2273891 158.23317,85.2199647 C158.981428,84.3542597 159.729685,83.5184065 160.477942,82.7497201 C162.415929,80.7869578 162.520685,80.727254 160.911931,78.5032876 C159.602481,76.6897847 158.95898,75.0180784 160.245982,72.9135196 C160.622299,72.0792614 161.361362,71.4631551 162.251312,71.2418132 C163.702931,70.9507572 165.162033,70.6597012 166.598687,70.2790895 C166.966006,70.1497745 167.245886,69.8482954 167.346944,69.4730883 C167.414287,67.6969003 167.384357,65.9132494 167.384357,64.0475057 C165.798052,63.7489867 164.294054,63.4728566 162.805022,63.1743377 C161.690257,62.8611716 160.774306,62.0672237 160.307975,61.0098941 C159.841644,59.9525645 159.873799,58.7426459 160.395634,57.7114402 C161.181304,56.4054197 162.01187,55.1143251 162.879848,53.8605453 C163.29139,53.2635073 163.35125,52.8530437 162.752644,52.3157096 C161.720049,51.3828377 160.73235,50.3827991 159.759615,49.3305197 C159.2508,48.7782596 158.846741,48.6737779 158.210723,49.1364824 C157.267918,49.838002 156.250288,50.4425029 155.255106,51.0843187 C154.206658,51.743193 152.899131,51.8415287 151.763476,51.346915 C150.627822,50.8523013 149.811406,49.8289215 149.583316,48.6140741 C149.2466,46.9274419 148.887436,45.2408096 148.550721,43.6064182 L142.624523,43.6064182 C142.422493,44.4870492 142.235429,45.2855875 142.055847,46.0915887 C141.876265,46.89759 141.704166,47.8006099 141.502137,48.643926 C141.203454,49.6930007 140.436321,50.5460303 139.423038,50.9558238 C138.409754,51.3656172 137.263602,51.2863609 136.316713,50.7410219 C134.73789,49.7335203 133.181515,48.7036298 131.438076,47.5767207 L128.070918,51.1141706 L127.270282,52.0694314 L129.784427,55.9277893 C130.374612,56.9396878 130.454466,58.1691768 130.00011,59.248563 C129.545754,60.3279491 128.609857,61.1321052 127.472312,61.4205386 L121.890312,62.5698367 Z" id="Shape" fill="#FFFFFF"></path>
                <path d="M157.79791,66.640186 C157.727952,73.9807883 151.725039,79.8773987 144.384268,79.8160392 C137.043496,79.7546797 131.139994,73.758547 131.193015,66.4178053 C131.246036,59.0770636 137.235535,53.1668293 144.576427,53.211258 C151.930561,53.2808283 157.842922,59.2859587 157.79791,66.640186 L157.79791,66.640186 Z M135.085026,66.2620179 C135.027342,71.4655486 139.194953,75.7326494 144.398463,75.797787 C149.545995,75.7512785 153.729004,71.6306574 153.852788,66.4844698 C153.892425,63.9840377 152.930377,61.5716082 151.180963,59.7846104 C149.431549,57.9976126 147.040093,56.9844918 144.539351,56.9709459 C139.392236,56.9977348 135.20139,61.1162152 135.085026,66.2620179 L135.085026,66.2620179 Z" id="Shape" fill="#FFFFFF"></path>
            </g>
        </g>
    </g>
</svg>