<?xml version="1.0" encoding="UTF-8"?>
<svg width="300px" height="250px" viewBox="0 0 300 250" version="1.1" xmlns="http://www.w3.org/2000/svg" xmlns:xlink="http://www.w3.org/1999/xlink">
    <title>Illustration 05</title>
    <defs>
        <linearGradient x1="53.521411%" y1="61.3714792%" x2="45.6826914%" y2="38.3768018%" id="linearGradient-1">
            <stop stop-color="#000000" offset="1%"></stop>
            <stop stop-color="#000000" stop-opacity="0.69" offset="13%"></stop>
            <stop stop-color="#000000" stop-opacity="0.32" offset="25%"></stop>
            <stop stop-color="#000000" stop-opacity="0" offset="100%"></stop>
        </linearGradient>
        <linearGradient x1="-20.5653214%" y1="125.868946%" x2="115.22715%" y2="-9.68660969%" id="linearGradient-2">
            <stop stop-color="#000000" offset="1%"></stop>
            <stop stop-color="#000000" stop-opacity="0.69" offset="13%"></stop>
            <stop stop-color="#000000" stop-opacity="0.32" offset="25%"></stop>
            <stop stop-color="#000000" stop-opacity="0" offset="100%"></stop>
        </linearGradient>
        <linearGradient x1="52.8326999%" y1="141.062265%" x2="45.489159%" y2="-177.266507%" id="linearGradient-3">
            <stop stop-color="#000000" offset="1%"></stop>
            <stop stop-color="#000000" stop-opacity="0.69" offset="13%"></stop>
            <stop stop-color="#000000" stop-opacity="0.32" offset="25%"></stop>
            <stop stop-color="#000000" stop-opacity="0" offset="100%"></stop>
        </linearGradient>
        <linearGradient x1="55.0294218%" y1="174.227528%" x2="38.2131483%" y2="-261.399813%" id="linearGradient-4">
            <stop stop-color="#000000" offset="1%"></stop>
            <stop stop-color="#000000" stop-opacity="0.69" offset="13%"></stop>
            <stop stop-color="#000000" stop-opacity="0.32" offset="25%"></stop>
            <stop stop-color="#000000" stop-opacity="0" offset="100%"></stop>
        </linearGradient>
        <linearGradient x1="93.9019934%" y1="33.5516027%" x2="-64.0370529%" y2="93.0136272%" id="linearGradient-5">
            <stop stop-color="#000000" offset="1%"></stop>
            <stop stop-color="#000000" stop-opacity="0.69" offset="13%"></stop>
            <stop stop-color="#000000" stop-opacity="0.32" offset="25%"></stop>
            <stop stop-color="#000000" stop-opacity="0" offset="100%"></stop>
        </linearGradient>
        <linearGradient x1="75.6213706%" y1="81.4761774%" x2="10.1921909%" y2="4.4594239%" id="linearGradient-6">
            <stop stop-color="#000000" offset="1%"></stop>
            <stop stop-color="#000000" stop-opacity="0.69" offset="13%"></stop>
            <stop stop-color="#000000" stop-opacity="0.32" offset="25%"></stop>
            <stop stop-color="#000000" stop-opacity="0" offset="100%"></stop>
        </linearGradient>
        <linearGradient x1="104.069734%" y1="-26.8840613%" x2="-49.3816528%" y2="163.639587%" id="linearGradient-7">
            <stop stop-color="#000000" offset="1%"></stop>
            <stop stop-color="#000000" stop-opacity="0.69" offset="13%"></stop>
            <stop stop-color="#000000" stop-opacity="0.32" offset="25%"></stop>
            <stop stop-color="#000000" stop-opacity="0" offset="100%"></stop>
        </linearGradient>
        <linearGradient x1="110.674668%" y1="-8.56494116%" x2="-78.6372962%" y2="159.039632%" id="linearGradient-8">
            <stop stop-color="#000000" offset="1%"></stop>
            <stop stop-color="#000000" stop-opacity="0.69" offset="13%"></stop>
            <stop stop-color="#000000" stop-opacity="0.32" offset="25%"></stop>
            <stop stop-color="#000000" stop-opacity="0" offset="100%"></stop>
        </linearGradient>
        <linearGradient x1="72.6941421%" y1="-35.0991626%" x2="11.5111158%" y2="196.730538%" id="linearGradient-9">
            <stop stop-color="#000000" offset="1%"></stop>
            <stop stop-color="#000000" stop-opacity="0.69" offset="13%"></stop>
            <stop stop-color="#000000" stop-opacity="0.32" offset="25%"></stop>
            <stop stop-color="#000000" stop-opacity="0" offset="100%"></stop>
        </linearGradient>
        <linearGradient x1="53.5294144%" y1="61.3625809%" x2="45.6747436%" y2="38.3849333%" id="linearGradient-10">
            <stop stop-color="#000000" offset="1%"></stop>
            <stop stop-color="#000000" stop-opacity="0.69" offset="13%"></stop>
            <stop stop-color="#000000" stop-opacity="0.32" offset="25%"></stop>
            <stop stop-color="#000000" stop-opacity="0" offset="100%"></stop>
        </linearGradient>
        <linearGradient x1="-20.5123117%" y1="125.811966%" x2="115.306961%" y2="-9.68660969%" id="linearGradient-11">
            <stop stop-color="#000000" offset="1%"></stop>
            <stop stop-color="#000000" stop-opacity="0.69" offset="13%"></stop>
            <stop stop-color="#000000" stop-opacity="0.32" offset="25%"></stop>
            <stop stop-color="#000000" stop-opacity="0" offset="100%"></stop>
        </linearGradient>
        <linearGradient x1="53.5229299%" y1="61.3687111%" x2="45.6642372%" y2="38.3755753%" id="linearGradient-12">
            <stop stop-color="#000000" offset="1%"></stop>
            <stop stop-color="#000000" stop-opacity="0.69" offset="13%"></stop>
            <stop stop-color="#000000" stop-opacity="0.32" offset="25%"></stop>
            <stop stop-color="#000000" stop-opacity="0" offset="100%"></stop>
        </linearGradient>
        <linearGradient x1="-20.4856466%" y1="125.868946%" x2="115.306824%" y2="-9.68660969%" id="linearGradient-13">
            <stop stop-color="#000000" offset="1%"></stop>
            <stop stop-color="#000000" stop-opacity="0.69" offset="13%"></stop>
            <stop stop-color="#000000" stop-opacity="0.32" offset="25%"></stop>
            <stop stop-color="#000000" stop-opacity="0" offset="100%"></stop>
        </linearGradient>
        <linearGradient x1="143.017473%" y1="74.8250955%" x2="-70.9835932%" y2="8.32049535%" id="linearGradient-14">
            <stop stop-color="#000000" offset="1%"></stop>
            <stop stop-color="#000000" stop-opacity="0.69" offset="13%"></stop>
            <stop stop-color="#000000" stop-opacity="0.32" offset="25%"></stop>
            <stop stop-color="#000000" stop-opacity="0" offset="100%"></stop>
        </linearGradient>
    </defs>
    <g id="DESIGN-SYSTEM" stroke="none" stroke-width="1" fill="none" fill-rule="evenodd">
        <g id="Illustrations" transform="translate(-629.000000, -826.000000)" fill-rule="nonzero">
            <g id="Illustration-05" transform="translate(629.000000, 826.000000)">
                <path d="M67.267148,27.1191336 C57.0758123,39.6714801 50.7292419,55.2779783 41.9458484,68.9891697 C35.4476534,79.234657 27.5198556,88.4079422 20.9133574,98.6101083 C7.74368231,118.927798 -0.205776173,143.696751 1.24548736,168.444043 C2.6967509,193.191336 14.2418773,217.624549 33.4873646,231.173285 C45.3032491,239.501805 59.2851986,243.454874 73.1913357,246.021661 C120.01083,254.685921 170.404332,248.01444 210.411552,220.386282 C217.277978,215.642599 223.851986,210.292419 231.303249,206.696751 C250.440433,197.447653 275.263538,199.592058 289.137184,182.610108 C297.487365,172.386282 299.32852,157.765343 299.046931,144.129964 C298.711191,127.754513 295.505415,110.555957 285.530686,98.2743682 C272.534296,82.1696751 251.306859,77.8592058 233.740072,67.9494585 C216.617329,58.3429603 202.808664,43.234657 188.101083,29.7400722 C152.718412,-2.7400722 101.815884,-15.433213 67.267148,27.1191336 Z" id="Path" fill="#DDDDDD" opacity="0.18"></path>
                <path d="M237.021677,161.534296 C237.025997,163.560034 236.190815,165.497027 234.714801,166.884477 C233.464571,168.072413 231.850835,168.804889 230.133574,168.963899 C229.812851,168.99113 229.490398,168.99113 229.169675,168.963899 L175.375451,167.880866 C171.087046,167.834506 167.615278,164.381945 167.545072,160.093863 C167.53734,158.068667 168.363876,156.129637 169.830325,154.732852 C171.323996,153.312959 173.31483,152.535289 175.375451,152.566787 L177.205776,152.566787 C176.827269,151.238716 176.634106,149.864709 176.631769,148.483755 C176.625655,144.494513 178.263146,140.678924 181.158845,137.935018 C182.423207,136.725863 183.889349,135.747213 185.490975,135.043321 C187.566099,134.138985 189.812706,133.695576 192.075812,133.743682 L196.646209,133.841155 C202.437236,133.959337 207.704387,137.221733 210.389892,142.353791 C211.707839,141.727004 213.154759,141.41907 214.613718,141.454874 L215.794224,141.454874 C220.885342,141.506909 225.009754,145.602512 225.097473,150.693141 L225.097473,151.137184 C225.096684,151.98101 224.972631,152.820195 224.729242,153.628159 L229.180505,153.714801 C233.478401,153.772793 236.95178,157.236577 237.021677,161.534296 L237.021677,161.534296 Z" id="Path" fill="#FFFFFF"></path>
                <path d="M230.133574,168.963899 C229.812851,168.99113 229.490398,168.99113 229.169675,168.963899 L175.375451,167.880866 C171.087046,167.834506 167.615278,164.381945 167.545072,160.093863 C167.53734,158.068667 168.363876,156.129637 169.830325,154.732852 C167.66426,168.021661 181.581227,166.115523 181.581227,166.115523 L216.530686,166.115523 L230.133574,168.963899 Z" id="Path" fill="url(#linearGradient-1)"></path>
                <path d="M181.148014,154.169675 L177.238267,152.685921 C176.859759,151.35785 176.666597,149.983843 176.664243,148.602888 C176.658146,144.613646 178.295637,140.798057 181.191336,138.054152 C182.455698,136.844996 183.92184,135.866346 185.523466,135.162455 C174.703971,144.433213 181.148014,154.169675 181.148014,154.169675 Z" id="Path" fill="url(#linearGradient-2)"></path>
                <ellipse id="Oval" fill="#DDDDDD" opacity="0.23" cx="115.884477" cy="174.99639" rx="68.8158845" ry="62.1552347"></ellipse>
                <path d="M201.324963,164.696751 C201.343129,179.126746 196.646369,193.167587 187.949458,204.68231 L187.949458,204.68231 L187.808664,204.877256 C168.126007,230.818301 132.547815,238.679727 103.767363,223.447184 C74.9869107,208.214641 61.4801542,174.374173 71.8622736,143.510661 C82.2443931,112.647148 113.457814,93.8500172 145.593297,99.1088722 C177.728779,104.367727 201.322298,132.133815 201.324963,164.696751 L201.324963,164.696751 Z" id="Path" fill="#DDDDDD"></path>
                <path d="M113.469314,132 C109.819495,133.505415 105.790614,133.862816 102.043321,135.097473 C98.2960289,136.33213 94.5379061,138.823105 93.5740072,142.6787 C93.0758123,144.617329 93.3357401,146.772563 92.3826715,148.527076 C91.1155235,150.888087 88.1480144,151.776173 86.3501805,153.725632 C82.9277978,157.494585 85.1805054,163.960289 89.3610108,166.873646 C93.5415162,169.787004 98.8808664,170.231047 103.884477,171.086643 C105.25372,171.195905 106.558876,171.712687 107.631769,172.570397 C110.545126,175.353791 107.31769,180.389892 108.552347,184.223827 C109.245487,186.389892 111.292419,187.873646 112.223827,189.953069 C114.01083,193.916968 111.303249,198.292419 109.516245,202.256318 C106.293017,209.487852 106.001819,217.688011 108.703971,225.129964 C108.579434,225.309486 108.44188,225.479619 108.292419,225.638989 C101.164968,222.511332 94.637577,218.164625 89.0036101,212.794224 C83.5126354,205.093863 79.1696751,196.700361 79.6245487,187.472924 C79.8736462,182.469314 81.5415162,177.638989 81.8555957,172.65704 C82.3754513,164.566787 79.4512635,155.783394 83.4151625,148.722022 C85.5812274,144.812274 89.8050542,140.523466 87.4440433,136.732852 C83.2743682,137.33935 78.7797834,137.436823 74.9566787,135.98556 C84.4816489,116.143018 103.207871,102.299076 124.971119,99.0108303 C129.086643,110.772563 125.815884,126.801444 113.469314,132 Z" id="Path" fill="url(#linearGradient-3)"></path>
                <path d="M201.324948,164.696751 C201.329443,168.901621 200.934163,173.097397 200.144404,177.227437 C198.378556,178.663415 196.724005,180.231076 195.194946,181.916968 C189.942238,188.068592 188.805054,196.602888 187.949458,204.66065 L187.949458,204.66065 C187.949458,204.833935 187.949458,205.00722 187.895307,205.169675 C187.895307,205.061372 187.895307,204.963899 187.808664,204.855596 C187.390709,202.786275 186.488867,200.845273 185.176895,199.191336 C183.68231,197.577617 181.028881,196.776173 179.209386,198.043321 C178.34296,195.877256 177.472924,193.729242 176.599278,191.599278 C171.184116,191.599278 165.595668,191.599278 160.505415,189.68231 C155.415162,187.765343 151.202166,184.093863 147.129964,180.509025 C147.664562,174.297324 147.548407,168.046756 146.783394,161.859206 C162.602004,160.14243 177.233907,152.658761 187.884477,140.837545 C178.359252,140.362662 168.915208,142.799225 160.808664,147.823105 C159.075812,148.906137 157.3213,150.119134 155.296029,150.292419 C154.012735,150.324489 152.732693,150.148941 151.505415,149.772563 L138.411552,146.447653 C136.776173,138.021661 142.613718,129.563177 150.119134,125.393502 C155.750903,122.274368 162.584838,122.880866 167.98917,120.151625 C171.693141,118.288809 172.776173,115.028881 176.01444,112.635379 L176.079422,112.635379 C192.016851,125.212497 201.318498,144.394399 201.324948,164.696751 Z" id="Path" fill="url(#linearGradient-4)"></path>
                <path d="M155.425993,151.234657 C155.036101,152.512635 154.66787,154.00722 155.425993,155.079422 C155.798553,155.537903 156.289067,155.88613 156.844765,156.086643 C158.163696,156.716297 159.724318,156.553122 160.884477,155.66426 C161.478895,155.01393 161.899803,154.224262 162.108303,153.368231 C163.12077,150.260707 163.845834,147.0668 164.274368,143.826715 C164.35592,143.528949 164.35592,143.214734 164.274368,142.916968 C164.105146,142.604557 163.833652,142.35983 163.505415,142.223827 C161.783394,141.303249 159.086643,140.566787 158.090253,142.602888 C156.866426,145.223827 156.292419,148.462094 155.425993,151.234657 Z" id="Path" fill="#FBC4D6"></path>
                <path d="M160.635379,152.718412 C160.999115,152.668533 161.369427,152.701861 161.718412,152.815884 C161.956089,152.947533 162.162876,153.128471 162.32491,153.34657 L166.061372,157.537906 C166.787004,158.350181 167.545126,159.465704 167.036101,160.429603 C166.67291,160.972799 166.083913,161.323013 165.433213,161.382671 C163.623472,161.54824 161.80422,161.191156 160.191336,160.353791 C159.043321,159.855596 157.906137,159.270758 156.790614,158.729242 C155.961751,158.352862 155.236928,157.780438 154.6787,157.061372 C153.823105,155.761733 153.595668,152.642599 155.090253,151.646209 C155.859206,151.158845 156.530686,151.505415 157.256318,151.841155 C158.293683,152.406267 159.454126,152.707536 160.635379,152.718412 Z" id="Path" fill="#DDDDDD"></path>
                <path d="M176.133574,165.509025 C176.162743,165.749959 176.136821,165.994371 176.057762,166.223827 C175.928741,166.446571 175.741551,166.630017 175.516245,166.754513 C174.805968,167.243663 173.973315,167.524965 173.111913,167.566787 C172.239819,167.599538 171.402506,167.222947 170.848375,166.548736 C170.44973,165.918407 170.208302,165.201552 170.144404,164.458484 C169.827038,162.860838 169.67102,161.235343 169.6787,159.606498 C169.640397,159.412787 169.689298,159.212035 169.812397,159.05764 C169.935496,158.903244 170.120313,158.810858 170.31769,158.805054 C171.66065,158.523466 174.33574,157.819495 175.018051,159.465704 C175.713203,161.406848 176.089905,163.447625 176.133574,165.509025 L176.133574,165.509025 Z" id="Path" fill="#FBC4D6"></path>
                <path d="M181.819495,165.34657 C182.973645,165.408886 184.114007,165.627485 185.209386,165.99639 C186.309965,166.377178 187.203827,167.196552 187.6787,168.259928 C187.897447,168.77495 187.924344,169.351321 187.754513,169.884477 C187.38047,170.675515 186.723553,171.297654 185.913357,171.628159 C182.064213,173.67378 177.721622,174.607549 173.371841,174.32491 C172.25571,174.369758 171.165393,173.981744 170.32852,173.241877 C169.724441,172.347467 169.441876,171.274484 169.527076,170.198556 L169.375451,165.108303 C170.355507,165.151958 171.312038,165.422604 172.169675,165.898917 C173.772563,166.440433 174.400722,165.140794 175.722022,164.815884 C177.444043,164.415162 180.064982,165.173285 181.819495,165.34657 Z" id="Path" fill="#DDDDDD"></path>
                <path d="M160.635379,152.718412 C160.999115,152.668533 161.369427,152.701861 161.718412,152.815884 C161.956089,152.947533 162.162876,153.128471 162.32491,153.34657 L166.061372,157.537906 C166.787004,158.350181 167.545126,159.465704 167.036101,160.429603 C166.67291,160.972799 166.083913,161.323013 165.433213,161.382671 C163.623472,161.54824 161.80422,161.191156 160.191336,160.353791 C159.043321,159.855596 157.906137,159.270758 156.790614,158.729242 C155.961751,158.352862 155.236928,157.780438 154.6787,157.061372 C153.823105,155.761733 153.595668,152.642599 155.090253,151.646209 C155.859206,151.158845 156.530686,151.505415 157.256318,151.841155 C158.293683,152.406267 159.454126,152.707536 160.635379,152.718412 Z" id="Path" fill="url(#linearGradient-5)"></path>
                <path d="M181.819495,165.34657 C182.973645,165.408886 184.114007,165.627485 185.209386,165.99639 C186.309965,166.377178 187.203827,167.196552 187.6787,168.259928 C187.897447,168.77495 187.924344,169.351321 187.754513,169.884477 C187.38047,170.675515 186.723553,171.297654 185.913357,171.628159 C182.064213,173.67378 177.721622,174.607549 173.371841,174.32491 C172.25571,174.369758 171.165393,173.981744 170.32852,173.241877 C169.724441,172.347467 169.441876,171.274484 169.527076,170.198556 L169.375451,165.108303 C170.355507,165.151958 171.312038,165.422604 172.169675,165.898917 C173.772563,166.440433 174.400722,165.140794 175.722022,164.815884 C177.444043,164.415162 180.064982,165.173285 181.819495,165.34657 Z" id="Path" fill="url(#linearGradient-6)"></path>
                <path d="M120.119134,110.198556 C117.789401,109.996287 115.445099,110.032577 113.122744,110.306859 C112.819071,110.322388 112.524469,110.415616 112.267148,110.577617 C111.968184,110.859194 111.796229,111.25 111.790614,111.66065 C111.465704,114.801444 113.956679,117.530686 116.642599,119.187726 C123.909747,123.693141 133.072202,123.519856 141.097473,126.465704 C141.863151,126.668584 142.542999,127.112954 143.036101,127.732852 C143.370804,128.404647 143.534491,129.148679 143.512635,129.898917 C143.870036,134.133574 146.220217,137.945848 147,142.115523 C147.779783,146.285199 146.945848,150.649819 147.584838,154.851986 C150.216606,152.046931 154.700361,151.602888 157.33213,148.830325 C159.801444,146.274368 160.288809,142.462094 160.65704,138.931408 L161.65343,129.249097 C162.035462,127.804513 161.283804,126.301197 159.898917,125.740072 C148.050542,118.083032 134.166065,111.411552 120.119134,110.198556 Z" id="Path" fill="url(#linearGradient-7)"></path>
                <path d="M168.032491,109.223827 C169.127177,109.443402 170.141644,109.956251 170.967509,110.707581 C171.814454,111.88682 172.199769,113.335605 172.050542,114.779783 C172.024897,125.056263 170.081897,135.237731 166.3213,144.801444 C166.249534,145.483996 165.843912,146.086514 165.238521,146.409823 C164.63313,146.733132 163.906801,146.735132 163.299639,146.415162 C161.047462,145.807292 158.82794,145.084321 156.649819,144.249097 L159.595668,124.754513 C159.736291,124.213512 159.706025,123.642247 159.509025,123.119134 C159.291441,122.748132 158.98659,122.435846 158.620939,122.209386 C155.260962,119.765276 151.711859,117.592355 148.00722,115.711191 C145.050542,114.216606 141.66065,112.462094 140.859206,109.299639 C140.52176,108.202991 140.740011,107.010698 141.444043,106.104693 C141.912462,105.644522 142.463658,105.277059 143.068592,105.021661 C145.028881,104.057762 147.498195,102.855596 149.750903,103.050542 C151.559567,103.234657 152.252708,104.274368 153.758123,105.043321 C157.938628,107.122744 163.494585,107.902527 168.032491,109.223827 Z" id="Path" fill="#282328"></path>
                <path d="M147.909747,78.2166065 C149.361011,82.2129964 150.075812,86.4476534 151.353791,90.4873646 C151.633631,91.5581243 152.135459,92.5580899 152.826715,93.4223827 C153.745419,94.3035838 154.858377,94.9565193 156.075812,95.3285199 C157.772563,95.9855596 159.498195,96.5595668 161.252708,97.0505415 C162.422383,97.3646209 163.819495,97.9061372 163.949458,99.0974729 C163.977085,99.4947719 163.894642,99.8919968 163.711191,100.245487 C162.790991,101.886103 161.085318,102.931647 159.205776,103.00722 C157.360778,103.056665 155.523172,102.755298 153.790614,102.119134 C152.213045,101.799802 150.765689,101.019587 149.631769,99.8772563 C148.98721,98.9271845 148.534673,97.860229 148.299639,96.7364621 C146.522306,90.4273308 144.056205,84.3329022 140.945848,78.5631769 C140.015467,77.0394697 139.287331,75.4011641 138.779783,73.6895307 C138.064982,70.700361 138.054152,63.6173285 141.140794,66.2166065 C143.631769,68.3176895 146.815884,75.2490975 147.909747,78.2166065 Z" id="Path" fill="#FBC4D6"></path>
                <path d="M136.093863,108.844765 C137.919619,108.137254 139.696129,107.308698 141.411552,106.364621 C147.909747,102.768953 142.592058,101.00361 140.425993,96.6823105 C138.877256,93.6173285 139.505415,89.9458484 140.306859,86.6209386 C141.725632,80.7725632 143.620939,74.7075812 142.256318,68.8700361 C142.085763,67.9226328 141.716669,67.0220413 141.173285,66.2274368 C140.775855,65.7344844 140.317297,65.2941227 139.808664,64.9169675 C138.436826,63.7319723 136.858027,62.8103942 135.151625,62.198556 C131.902527,61.1155235 128.220217,61.9061372 125.133574,63.4548736 C113.00361,69.5415162 110.415162,84.9097473 110.902527,97.2021661 C111.032491,100.613718 111.563177,104.220217 113.761733,106.830325 C115.960289,109.440433 119.068592,110.436823 122.252708,110.826715 C126.95908,111.307806 131.711621,110.627278 136.093863,108.844765 L136.093863,108.844765 Z" id="Path" fill="#FFFFFF"></path>
                <path d="M118.00722,101.891697 C118.105049,103.045376 118.476308,104.159153 119.090253,105.140794 C120.173285,106.66787 122.166065,107.231047 123.99639,107.67509 L132.238267,109.711191 C133.242737,110.0157 134.286137,110.172575 135.33574,110.176895 C137.588448,110.068592 139.527076,108.628159 141.314079,107.241877 C141.770758,106.929406 142.167048,106.536784 142.483755,106.083032 C137.935018,105.649819 133.397112,105.194946 128.870036,104.534296 C126.205776,104.144404 123.389892,103.602888 121.429603,101.772563 C120.416855,100.772125 119.64631,99.55333 119.176895,98.2093863 C118.851986,97.3754513 118.700361,95.2527076 117.758123,95.0685921 C117.520829,97.3433898 117.604683,99.6402579 118.00722,101.891697 Z" id="Path" fill="url(#linearGradient-8)"></path>
                <path d="M134.274368,71.7184116 C134.273532,72.0599044 134.137198,72.3871054 133.895307,72.6281588 C133.670139,72.7607551 133.407055,72.8141344 133.148014,72.7797834 C131.430863,72.6992992 129.832583,71.8795734 128.765306,70.5319807 C127.698029,69.184388 127.266221,67.4408305 127.581227,65.7509025 C127.776173,64.66787 128.241877,63.7364621 128.534296,62.7184116 C129.108303,60.6823105 129.01083,58.3862816 130.299639,56.7075812 C131.415454,59.2606064 132.68866,61.7419114 134.111913,64.1371841 C134.848647,65.1017864 135.111243,66.3471275 134.826715,67.5270758 L134.274368,71.7184116 Z" id="Path" fill="#FBC4D6"></path>
                <path d="M134.913357,66.4765343 L134.425993,69.7256318 C134.425993,69.7256318 128.848375,66.9638989 129.574007,61.8411552 C130.299639,56.7184116 134.913357,66.4765343 134.913357,66.4765343 Z" id="Path" fill="url(#linearGradient-9)"></path>
                <path d="M141.433213,63.3140794 C141.147149,64.354932 140.540921,65.2794295 139.700361,65.9566787 C139.299406,66.2284268 138.851326,66.4230846 138.379061,66.5306859 C134.977018,67.1907915 131.536616,65.5864364 129.855596,62.5559567 C128.292663,59.5278879 128.126588,55.9691295 129.400722,52.8086643 C129.916138,51.0956967 131.082652,49.6531077 132.649819,48.7906137 C134.390076,48.1043264 136.358487,48.3361434 137.891697,49.4079422 C139.943237,50.840311 141.528745,52.8438513 142.451264,55.1696751 C143.241877,57.5415162 142.245487,61.0505415 141.433213,63.3140794 Z" id="Path" fill="#FBC4D6"></path>
                <path d="M165.920578,122.837545 C167.308632,124.605186 168.405477,126.583164 169.169675,128.696751 C173.429001,138.968361 176.197109,149.79644 177.389892,160.851986 C173.912358,161.285221 170.394501,161.285221 166.916968,160.851986 C166.644702,153.047157 165.441233,145.302779 163.33213,137.783394 C162.959445,136.164961 162.318849,134.620209 161.436823,133.212996 C159.888087,130.971119 157.34296,129.67148 154.938628,128.458484 C149.312748,125.72464 143.432712,123.548193 137.382671,121.960289 C134.826715,121.256318 132.249097,120.606498 129.736462,119.794224 C127.624549,119.079422 121.700361,116.458484 119.98917,115.039711 C118.177101,113.665879 117.003708,111.612442 116.740072,109.353791 C116.740072,109.916968 133.245487,111.043321 134.425993,110.913357 C138.400722,110.490975 143.090253,108.216606 147.01083,109.830325 C150.075812,111.086643 152.880866,113.707581 155.67509,115.516245 C159.064982,117.638989 163.202166,119.696751 165.920578,122.837545 Z" id="Path" fill="#473F47"></path>
                <polygon id="Path" fill="#DDDDDD" points="147.833935 122.00361 127.689531 112.158845 151.310469 102.140794 171.465704 110.945848"></polygon>
                <path d="M117.151625,75.7797834 C117.151625,76.1588448 117.054152,76.5270758 117.01083,76.8628159 C116.415162,82.4079422 116.956679,87.8447653 117.162455,93.3574007 C117.292419,96.7689531 117.736462,103.267148 121.364621,105.01083 C128.144404,108.259928 141.227437,107.025271 141.227437,107.025271 C142.74437,106.78209 144.294616,106.844689 145.787004,107.209386 C146.599278,107.458484 147.34657,107.880866 148.137184,108.184116 C150.99639,109.267148 154.191336,108.725632 157.202166,108.184116 C157.720961,108.122553 158.221964,107.95678 158.67509,107.696751 C159.768337,106.72567 159.87928,105.0567 158.924188,103.949458 C157.946722,102.92245 156.675727,102.222646 155.285199,101.945848 C151.482975,100.704702 147.41019,100.547191 143.523466,101.490975 C143.026721,101.65831 142.520399,101.79574 142.00722,101.902527 C141.405813,102.000033 140.796886,102.043528 140.187726,102.032491 L135.574007,102.032491 C130.267148,102.032491 125.263538,102.097473 124.462094,95.8916968 C124.166199,93.5933284 124.10813,91.2705715 124.288809,88.9602888 C124.602888,84.7906137 125.696751,80.6534296 125.469314,76.4837545 C125.455556,75.1613432 125.125023,73.8614932 124.505415,72.6931408 C123.866753,71.513464 122.660839,70.7505387 121.3213,70.6787004 C119.9338,70.7822794 118.701467,71.6038341 118.072202,72.8447653 C117.592743,73.760367 117.280972,74.7543679 117.151625,75.7797834 Z" id="Path" fill="#FBC4D6"></path>
                <polygon id="Path" fill="#DDDDDD" points="179.761733 91.0830325 151.602888 105.411552 147.833935 122.00361 171.465704 110.945848"></polygon>
                <path d="M142.819495,57.3357401 C142.788615,56.3046378 142.406517,55.3150025 141.736462,54.5306859 C141.396235,54.1359217 140.993828,53.7993632 140.545126,53.534296 C139.916968,53.166065 139.765343,53.133574 139.353791,53.7292419 C138.823105,54.4981949 138.649819,55.3971119 138.162455,56.198556 C137.629179,57.0874315 136.885265,57.831345 135.99639,58.3646209 C134.997415,58.9844863 133.835324,59.2901011 132.66065,59.2418773 C132.193985,59.171354 131.719372,59.171354 131.252708,59.2418773 C130.93532,59.3019107 130.661295,59.5004797 130.505415,59.7833935 C130.393662,60.1884846 130.353347,60.6099501 130.386282,61.0288809 C130.288809,62.1119134 129.216606,62.8808664 128.620939,63.8231047 C128.025271,64.765343 127.851986,66.1624549 127.137184,67.1696751 C127.004497,67.3717585 126.821643,67.5359539 126.606498,67.6462094 C126.097473,67.8628159 125.523466,67.5812274 124.99278,67.4837545 C123.422383,67.2129964 122.155235,68.6750903 120.812274,69.5631769 C118.115523,71.3393502 114.584838,70.8844765 111.400722,70.3537906 C110.425892,70.2358677 109.475663,69.9654179 108.584838,69.5523466 C107.622711,68.9845319 106.768434,68.251247 106.061372,67.3862816 C104.880866,66.0866426 103.711191,64.765343 102.552347,63.4440433 C102.121695,63.0210111 101.779334,62.5166732 101.545126,61.9602888 C101.421167,61.5722864 101.387821,61.1610273 101.447653,60.7581227 C101.553328,60.0060146 101.776251,59.2751208 102.108303,58.5920578 C102.953069,56.6967509 103.938628,54.6389892 105.844765,53.7833935 C107.750903,52.9277978 110.00361,53.566787 112.104693,53.3501805 C112.360671,53.3496242 112.610261,53.2702093 112.819495,53.1227437 C112.986764,52.9338079 113.10569,52.7071054 113.166065,52.4620939 C114.043321,49.5487365 115.137184,46.3862816 117.758123,44.8808664 C119.777736,43.9107118 122.054415,43.6109491 124.256318,44.0252708 C126.436426,44.4372089 128.660759,44.5646257 130.873646,44.4043321 C131.956679,44.2310469 133.039711,43.8736462 134.122744,43.6570397 C136.655353,43.0942822 139.306401,43.479609 141.574007,44.7400722 C143.847355,46.0928463 145.288076,48.4981173 145.407942,51.1407942 C145.364522,51.6488936 145.364522,52.1597707 145.407942,52.66787 C145.483755,53.1444043 145.689531,53.6101083 145.765343,54.0866426 C145.855049,54.919763 145.584384,55.7515008 145.021552,56.3722717 C144.458719,56.9930427 143.657393,57.3436477 142.819495,57.3357401 Z" id="Path" fill="#FF681C"></path>
                <path d="M116.166065,78.8555957 C115.832144,81.9206981 115.795874,85.010937 116.057762,88.0830325 C116.044677,88.3496299 116.112642,88.6139392 116.252708,88.8411552 C116.482924,89.0931747 116.800468,89.2480741 117.140794,89.2743682 C118.89483,89.6008726 120.67436,89.7712146 122.458484,89.7833935 C122.965299,89.945393 123.517943,89.8731229 123.966057,89.5862458 C124.414172,89.2993687 124.711143,88.8277263 124.776173,88.299639 C125.750903,84.2274368 126.714801,80.1552347 127.451264,76.0288809 C127.743682,74.3718412 127.949458,72.5090253 126.953069,71.166065 C125.512635,69.2166065 121.624549,69 119.750903,70.4187726 C117.487365,72.1624549 116.523466,76.234657 116.166065,78.8555957 Z" id="Path" fill="#FFFFFF"></path>
                <path d="M146.815884,73.6570397 L149.880866,81 C150.032465,81.2854616 150.092942,81.610525 150.054152,81.9314079 C149.976192,82.1947894 149.826138,82.4311243 149.620939,82.6137184 C148.123738,84.1969113 146.346534,85.4894237 144.379061,86.4259928 C142.565044,84.8052306 141.092305,82.839124 140.046931,80.6425993 C139.028881,78.032491 139.256318,75.1299639 139.559567,72.3465704 C139.743682,70.5812274 139.6787,64.9061372 142.6787,67.1046931 C144.768953,68.6101083 145.873646,71.3935018 146.815884,73.6570397 Z" id="Path" fill="#FFFFFF"></path>
                <path d="M91.3754593,142.537906 C91.3774391,144.56096 90.5471246,146.49575 89.0794224,147.888087 C87.8277653,149.073905 86.2148005,149.806031 84.4981949,149.967509 C84.1771057,149.983954 83.8553852,149.983954 83.534296,149.967509 L29.7400722,148.884477 C25.4456861,148.838114 21.9690706,145.380706 21.8989134,141.086643 C21.8969291,139.063588 22.7272437,137.128799 24.1949458,135.736462 C25.6821732,134.306463 27.6773394,133.527102 29.7400722,133.570397 L31.5703971,133.570397 C31.1867105,132.239727 30.993455,130.861414 30.9963899,129.476534 C30.9889909,125.487029 32.6266909,121.670953 35.5234657,118.927798 C36.7862839,117.719505 38.2529343,116.744182 39.8555957,116.046931 C41.9304095,115.141603 44.1772368,114.69815 46.4404332,114.747292 L51.0108303,114.844765 C56.7642165,114.951821 62.0113867,118.157275 64.732852,123.227437 C66.0542055,122.610761 67.4987244,122.303337 68.9566787,122.32852 L70.1371841,122.32852 C75.2258341,122.392187 79.342158,126.48932 79.4296029,131.577617 L79.4296029,132.021661 C79.4339418,132.861512 79.3134936,133.69735 79.0722022,134.501805 L83.5234657,134.599278 C87.8764569,134.640903 91.3815973,138.18472 91.3754593,142.537906 L91.3754593,142.537906 Z" id="Path" fill="#FFFFFF"></path>
                <path d="M84.4981949,149.967509 C84.1771057,149.983954 83.8553852,149.983954 83.534296,149.967509 L29.7400722,148.884477 C25.4456861,148.838114 21.9690706,145.380706 21.8989134,141.086643 C21.8969291,139.063588 22.7272437,137.128799 24.1949458,135.736462 C22.0830325,149.01444 35.9458484,147.119134 35.9458484,147.119134 L70.8953069,147.119134 L84.4981949,149.967509 Z" id="Path" fill="url(#linearGradient-10)"></path>
                <path d="M35.4693141,135.173285 L31.5703971,133.689531 C31.1867105,132.35886 30.993455,130.980547 30.996357,129.595668 C30.9889909,125.606163 32.6266909,121.790087 35.5234657,119.046931 C36.7862839,117.838638 38.2529343,116.863316 39.8555957,116.166065 C29.0577617,125.436823 35.4693141,135.173285 35.4693141,135.173285 Z" id="Path" fill="url(#linearGradient-11)"></path>
                <path d="M233.274371,79.5920578 C233.276113,81.6172626 232.441357,83.5532706 230.967509,84.9422383 C229.711588,86.1281414 228.095218,86.8600824 226.375451,87.0216606 C226.05474,87.0491539 225.732264,87.0491539 225.411552,87.0216606 L171.628159,85.9386282 C167.372892,85.8816924 163.923904,82.4709733 163.819036,78.2166065 C163.796712,76.1726362 164.624463,74.211143 166.104693,72.801444 C167.60295,71.3818897 169.596926,70.6045108 171.66065,70.6353791 L173.480144,70.6353791 C173.101637,69.3073081 172.908474,67.933301 172.906137,66.5523466 C172.900024,62.5631046 174.537515,58.7475159 177.433213,56.0036101 C178.696308,54.7928748 180.162744,53.8140284 181.765343,53.1119134 C183.839845,52.2055876 186.086894,51.7620911 188.350181,51.8122744 L192.920578,51.9097473 C198.674363,52.0159955 203.920237,55.2273326 206.631769,60.3032491 C207.950107,59.6776178 209.396749,59.3697428 210.855596,59.4043321 L212.036101,59.4043321 C217.127219,59.4563673 221.251631,63.5519707 221.33935,68.6425993 L221.33935,69.0866426 C221.338561,69.9304687 221.214508,70.7696538 220.971119,71.5776173 L225.422383,71.6642599 C229.766211,71.7175109 233.262858,75.2479186 233.274371,79.5920578 Z" id="Path" fill="#FFFFFF"></path>
                <path d="M226.386282,87.0216606 C226.06557,87.0491539 225.743094,87.0491539 225.422383,87.0216606 L171.638989,85.9386282 C167.379503,85.8874661 163.92408,82.475116 163.819036,78.2166065 C163.796712,76.1726362 164.624463,74.211143 166.104693,72.801444 C163.938628,86.0902527 177.855596,84.1841155 177.855596,84.1841155 L212.805054,84.1841155 L226.386282,87.0216606 Z" id="Path" fill="url(#linearGradient-12)"></path>
                <path d="M177.368231,72.2274368 L173.458484,70.7436823 C173.079976,69.4156113 172.886813,68.0416042 172.884459,66.6606498 C172.878363,62.6714078 174.515854,58.8558192 177.411552,56.1119134 C178.674647,54.9011781 180.141084,53.9223316 181.743682,53.2202166 C170.956679,62.4909747 177.368231,72.2274368 177.368231,72.2274368 Z" id="Path" fill="url(#linearGradient-13)"></path>
                <path d="M131.32852,59.2635379 C131.011133,59.3235713 130.737107,59.5221404 130.581227,59.8050542 C130.469474,60.2101452 130.42916,60.6316108 130.462094,61.0505415 C130.364621,62.133574 129.292419,62.9025271 128.696751,63.8447653 C128.101083,64.7870036 127.927798,66.1841155 127.212996,67.1913357 C127.080309,67.3934192 126.897455,67.5576145 126.68231,67.66787 C126.173285,67.8844765 125.599278,67.6028881 125.068592,67.5054152 C123.498195,67.234657 122.231047,68.6967509 120.888087,69.5848375 C118.191336,71.3610108 114.66065,70.9061372 111.476534,70.3754513 C110.474608,70.2585539 109.498137,69.980607 108.584838,69.5523466 C107.622711,68.9845319 106.768434,68.251247 106.061372,67.3862816 C104.880866,66.0866426 103.711191,64.765343 102.552347,63.4440433 C102.121695,63.0210111 101.779334,62.5166732 101.545126,61.9602888 C101.421167,61.5722864 101.387821,61.1610273 101.447653,60.7581227 C101.952724,60.4531909 102.477324,60.1818459 103.018051,59.9458484 C104.678262,59.0548296 106.619018,58.8413465 108.433213,59.3501805 C109.884477,59.9133574 110.913357,61.2021661 112.158845,62.1227437 C115.746344,64.6345986 120.625654,64.1760168 123.68231,61.0397112 C124.228105,60.3206538 124.86939,59.6793688 125.588448,59.133574 C126.877256,58.4296029 129.498195,58.5379061 131.32852,59.2635379 Z" id="Path" fill="url(#linearGradient-14)"></path>
            </g>
        </g>
    </g>
</svg>