<?xml version="1.0" encoding="UTF-8"?>
<svg width="300px" height="239px" viewBox="0 0 300 239" version="1.1" xmlns="http://www.w3.org/2000/svg" xmlns:xlink="http://www.w3.org/1999/xlink">
    <title>Illustration 06</title>
    <defs>
        <linearGradient x1="0%" y1="50%" x2="100%" y2="50%" id="linearGradient-1">
            <stop stop-color="#000000" offset="1%"></stop>
            <stop stop-color="#000000" stop-opacity="0.69" offset="8%"></stop>
            <stop stop-color="#000000" stop-opacity="0.32" offset="21%"></stop>
            <stop stop-color="#000000" stop-opacity="0" offset="100%"></stop>
        </linearGradient>
        <linearGradient x1="10.7786822%" y1="-63.6703667%" x2="179.736946%" y2="420.673971%" id="linearGradient-2">
            <stop stop-color="#000000" offset="1%"></stop>
            <stop stop-color="#000000" stop-opacity="0.69" offset="8%"></stop>
            <stop stop-color="#000000" stop-opacity="0.32" offset="21%"></stop>
            <stop stop-color="#000000" stop-opacity="0" offset="100%"></stop>
        </linearGradient>
        <linearGradient x1="-642.066118%" y1="-244.859496%" x2="1195.55406%" y2="560.768633%" id="linearGradient-3">
            <stop stop-color="#000000" offset="1%"></stop>
            <stop stop-color="#000000" stop-opacity="0.69" offset="8%"></stop>
            <stop stop-color="#000000" stop-opacity="0.32" offset="21%"></stop>
            <stop stop-color="#000000" stop-opacity="0" offset="100%"></stop>
        </linearGradient>
        <linearGradient x1="34.3727039%" y1="56.1618605%" x2="96.0013649%" y2="30.5303452%" id="linearGradient-4">
            <stop stop-color="#000000" offset="1%"></stop>
            <stop stop-color="#000000" stop-opacity="0.69" offset="8%"></stop>
            <stop stop-color="#000000" stop-opacity="0.32" offset="21%"></stop>
            <stop stop-color="#000000" stop-opacity="0" offset="100%"></stop>
        </linearGradient>
        <linearGradient x1="57.5699679%" y1="-150.18507%" x2="39.5685792%" y2="579.640747%" id="linearGradient-5">
            <stop stop-color="#000000" offset="1%"></stop>
            <stop stop-color="#000000" stop-opacity="0.69" offset="8%"></stop>
            <stop stop-color="#000000" stop-opacity="0.32" offset="21%"></stop>
            <stop stop-color="#000000" stop-opacity="0" offset="100%"></stop>
        </linearGradient>
        <linearGradient x1="55.1946592%" y1="-122.788969%" x2="43.6919172%" y2="439.871703%" id="linearGradient-6">
            <stop stop-color="#000000" offset="1%"></stop>
            <stop stop-color="#000000" stop-opacity="0.69" offset="8%"></stop>
            <stop stop-color="#000000" stop-opacity="0.32" offset="21%"></stop>
            <stop stop-color="#000000" stop-opacity="0" offset="100%"></stop>
        </linearGradient>
        <linearGradient x1="-22.4007444%" y1="-38.0161724%" x2="185.90187%" y2="174.465279%" id="linearGradient-7">
            <stop stop-color="#000000" offset="1%"></stop>
            <stop stop-color="#000000" stop-opacity="0.69" offset="8%"></stop>
            <stop stop-color="#000000" stop-opacity="0.32" offset="21%"></stop>
            <stop stop-color="#000000" stop-opacity="0" offset="100%"></stop>
        </linearGradient>
        <linearGradient x1="95.800142%" y1="21.2962519%" x2="-38.0204948%" y2="103.246764%" id="linearGradient-8">
            <stop stop-color="#000000" offset="1%"></stop>
            <stop stop-color="#000000" stop-opacity="0.69" offset="13%"></stop>
            <stop stop-color="#000000" stop-opacity="0.32" offset="25%"></stop>
            <stop stop-color="#000000" stop-opacity="0" offset="100%"></stop>
        </linearGradient>
        <linearGradient x1="27.1092369%" y1="96.0991655%" x2="77.2511019%" y2="-1.08038457%" id="linearGradient-9">
            <stop stop-color="#000000" offset="1%"></stop>
            <stop stop-color="#000000" stop-opacity="0.69" offset="13%"></stop>
            <stop stop-color="#000000" stop-opacity="0.32" offset="25%"></stop>
            <stop stop-color="#000000" stop-opacity="0" offset="100%"></stop>
        </linearGradient>
    </defs>
    <g id="DESIGN-SYSTEM" stroke="none" stroke-width="1" fill="none" fill-rule="evenodd">
        <g id="Illustrations" transform="translate(-1100.000000, -379.000000)" fill-rule="nonzero">
            <g id="Illustration-06" transform="translate(1100.000000, 379.000000)">
                <path d="M50.6497918,232.250232 C39.7636597,230.457648 29.5157009,225.902548 20.880286,219.018027 C10.7238662,210.998509 -0.33223633,200.192209 0.00764385733,186.779566 C0.367516997,172.56497 5.66564933,158.871644 11.4036266,146.060464 C19.1608921,128.758354 29.9570863,110.513951 27.0980941,91.2470598 C24.2391019,71.9801682 28.0777488,48.9240545 38.1941826,32.6043358 C54.1885443,6.90178123 82.1786774,0.66660614 110.168811,0.065142305 C128.662291,-0.315784791 147.695582,0.786898908 164.549641,8.42548962 C182.263396,16.4450074 196.538364,31.2811154 214.532021,38.1578519 C226.527792,42.6888794 239.643169,43.5910752 251.379032,48.683469 C266.153824,55.119132 277.549806,67.8701654 284.927206,82.2251022 C292.304605,96.5800391 296.06328,112.518831 298.922272,128.33733 C303.600623,155.082421 292.484542,188.483713 276.470187,210.376997 C265.793951,224.932422 247.920251,241.793458 229.546728,238.26487 C135.999705,220.46154 153.973369,249.07117 50.6497918,232.250232 Z" id="Path" fill="#DDDDDD" opacity="0.18"></path>
                <polygon id="Path" fill="#DDDDDD" points="176.576577 43.2432432 239.63964 51.32229 195.324511 55.8558559"></polygon>
                <polygon id="Path" fill="#DDDDDD" points="195.495495 56.0244974 198.841874 75.6756757 204.192072 59.3596059 239.63964 51.3513514"></polygon>
                <polygon id="Path" fill="url(#linearGradient-1)" points="195.495495 56.0244974 198.841874 75.6756757 204.192072 59.3596059 239.63964 51.3513514"></polygon>
                <polygon id="Path" fill="#DDDDDD" points="217.752178 77.4774775 204.504505 59.3978771 239.63964 51.3513514"></polygon>
                <polygon id="Path" fill="#FFFFFF" points="199.099099 75.6756757 211.711712 69.4630983 204.352715 59.4594595"></polygon>
                <polygon id="Path" fill="#DDDDDD" opacity="0.59" points="199.099099 75.6756757 211.711712 69.4630983 204.352715 59.4594595"></polygon>
                <path d="M187.924226,77.4774775 L187.387387,75.2223561 C188.013492,75.107638 188.631652,74.958177 189.238554,74.7747748 L190.09009,76.9266081 C189.381764,77.1537714 188.658277,77.3377841 187.924226,77.4774775 L187.924226,77.4774775 Z" id="Path" fill="#DDDDDD"></path>
                <path d="M107.157337,199.099099 C105.698014,198.619643 104.278672,198.140187 102.899312,197.620776 L103.818885,195.12361 C105.158264,195.623043 106.557615,196.102499 107.976957,196.561978 L107.157337,199.099099 Z M94.563178,194.124743 C93.163827,193.445514 91.8044575,192.746307 90.5650324,192.12701 L91.8244482,189.709752 C93.0438826,190.388982 94.34328,191.068211 95.7026495,191.707486 L94.563178,194.124743 Z M202.51311,192.486602 L198.015196,192.486602 L198.015196,189.809639 L202.433147,189.929503 L202.51311,192.486602 Z M211.508937,192.326783 L211.369002,189.669798 C212.868307,189.669798 214.347621,189.490002 215.766962,189.35016 L215.98686,192.007146 C214.587509,192.146987 213.088205,192.246874 211.548919,192.326783 L211.508937,192.326783 Z M189.07934,191.707486 L184.621408,191.248007 L184.921269,188.591022 C186.400583,188.770818 187.859906,188.910659 189.319229,189.0505 L189.07934,191.707486 Z M225.062651,190.748574 L224.602864,188.131543 C226.062187,187.871838 227.52151,187.572178 228.900871,187.25254 L229.500593,189.849594 C228.001288,190.269118 226.501983,190.568778 224.982688,190.828483 L225.062651,190.748574 Z M238.196559,187.232563 L237.256995,184.755374 C238.656346,184.215986 239.995725,183.65662 241.255141,183.0573 L242.414603,185.45458 C240.995261,186.173764 239.57592,186.773084 238.116596,187.312472 L238.196559,187.232563 Z M83.0485186,186.872971 C81.8515861,185.90622 80.7165472,184.865353 79.6500948,183.756507 L81.6491676,181.918592 C82.6407311,182.948841 83.6956235,183.91629 84.8077027,184.815306 L83.0485186,186.872971 Z M250.250968,180.679998 L248.611729,178.5624 C249.311404,178.023012 249.991089,177.44367 250.610801,176.84435 L251.750273,175.725619 L253.609411,177.623466 L252.369985,178.802128 C251.750273,179.521312 250.930653,180.160587 250.171005,180.759907 L250.250968,180.679998 Z M74.3325612,176.125166 C73.6521592,174.717961 73.1163312,173.245421 72.7333029,171.730152 L75.3320976,171.15081 C75.6294039,172.528011 76.0786083,173.868022 76.6714763,175.146276 L74.3325612,176.125166 Z M124.109474,175.485891 L119.811468,173.727886 L120.890967,171.290651 C122.230346,171.869994 123.589715,172.449336 124.889112,173.008702 L124.109474,175.485891 Z M259.686592,170.711308 L257.507603,169.173054 C258.326631,168.011288 259.067904,166.796681 259.726573,165.537179 L262.085479,166.755796 C261.345386,168.15619 260.510498,169.504465 259.586638,170.791218 L259.686592,170.711308 Z M111.755204,169.95217 C110.395835,169.292918 109.056456,168.613688 107.757059,167.954436 L108.956502,165.736952 C110.2559,166.416182 111.575288,167.095411 112.954648,167.734686 L111.755204,169.95217 Z M99.8207395,163.739219 C98.5213421,162.98008 97.2219448,162.200964 95.9825197,161.401871 L97.4018614,159.144432 C98.6212958,159.923548 99.9007024,160.702664 101.180109,161.461803 L99.8207395,163.739219 Z M75.2321439,162.960103 L72.6133585,162.46067 C72.9216669,160.937791 73.3494571,159.441528 73.8927651,157.985747 L76.3916061,158.904704 C75.9185875,160.192923 75.5443469,161.515244 75.2721254,162.860216 L75.2321439,162.960103 Z M264.744246,158.005724 L262.085479,157.726042 C262.161581,157.062788 262.201621,156.395897 262.205424,155.728308 C262.203049,155.060674 262.163004,154.393704 262.085479,153.730575 L264.744246,153.450892 C264.824078,154.227455 264.864112,155.00759 264.864191,155.78824 C264.869558,156.494951 264.842877,157.201541 264.784228,157.905838 L264.744246,158.005724 Z M88.5259781,156.367583 C87.3065437,155.468603 86.0871093,154.569623 84.927647,153.650666 L86.5668867,151.553046 C87.7063582,152.452026 88.8858112,153.331028 90.0852549,154.210031 L88.5259781,156.367583 Z M80.4297332,151.233408 L78.2107624,149.755086 C79.050373,148.536468 79.9699465,147.317851 80.9494922,146.099234 L82.948565,147.77733 C82.0889637,148.916038 81.2093716,150.0947 80.4297332,151.233408 Z M78.1108088,147.757352 C76.991328,146.718531 75.9118287,145.639755 74.8923015,144.580956 L76.8913744,142.723064 C77.8909108,143.761886 78.8904472,144.720798 80.0099279,145.819551 L78.1108088,147.757352 Z M259.606629,145.619778 C258.937962,144.37026 258.183158,143.168722 257.347677,142.023858 L259.506675,140.445648 C260.414526,141.721191 261.23598,143.055993 261.965535,144.441115 L259.606629,145.619778 Z M89.0057556,141.424538 L87.1865993,139.426804 C88.2660986,138.427938 89.4055701,137.429071 90.5850231,136.430204 L92.284235,138.427938 C91.1447635,139.466759 90.0452734,140.445648 89.0057556,141.424538 Z M69.0150275,137.58889 C68.095454,136.350295 67.215862,135.091723 66.4362236,133.833151 L68.6951758,132.41476 C69.4348328,133.6134 70.2744434,134.81204 71.1540354,135.990703 L69.0150275,137.58889 Z M251.530375,135.591156 C250.510848,134.652222 249.391367,133.713287 248.211914,132.79433 L249.851154,130.796596 C251.090579,131.755508 252.250041,132.79433 253.32954,133.733264 L251.530375,135.591156 Z M99.2809898,133.193876 L97.8216667,130.99637 C99.0411011,130.157322 100.320508,129.318273 101.579924,128.499203 L103.019256,130.756642 C101.819812,131.535758 100.480433,132.354828 99.2809898,133.193876 Z M240.995261,127.780019 C239.775827,127.02088 238.49642,126.281719 237.197023,125.562535 L238.49642,123.225187 C239.835799,123.964348 241.155187,124.743464 242.394612,125.502603 L240.995261,127.780019 Z M110.55576,126.301696 L109.296345,123.964348 C110.595742,123.245164 111.955111,122.545957 113.29449,121.966615 L114.493934,124.363895 C113.174546,124.883305 111.815176,125.582512 110.55576,126.281719 L110.55576,126.301696 Z M62.2581614,125.782285 C61.698421,124.343917 61.1986528,122.865595 60.7988382,121.427227 L63.3776422,120.72802 C63.757466,122.066501 64.2172527,123.444937 64.7370117,124.723487 L62.2581614,125.782285 Z M229.340667,121.607023 L225.342521,119.82904 L226.382039,117.371828 C227.761399,117.971148 229.16075,118.570468 230.500129,119.189765 L229.340667,121.607023 Z M122.490225,120.588179 L121.450707,118.130967 C122.810077,117.551624 124.229418,116.972281 125.608779,116.432893 L126.588324,118.910083 C125.228955,119.369561 123.809613,119.948904 122.490225,120.528247 L122.490225,120.588179 Z M217.06636,116.592712 C215.686999,116.113256 214.287648,115.6338 212.868307,115.174321 L213.687927,112.6372 C215.127259,113.096679 216.566591,113.596112 217.945952,114.075568 L217.06636,116.592712 Z M134.904467,115.793619 L134.064857,113.256497 C135.504189,112.797019 136.943522,112.33754 138.382854,111.918016 L139.142502,114.475115 C137.803123,114.954571 136.303818,115.394072 134.904467,115.793619 Z M204.372247,112.617223 C202.952906,112.257631 201.493583,111.898039 200.074241,111.578401 L200.673963,108.981348 C202.113295,109.300985 203.592609,109.660577 205.051932,110.040147 L204.372247,112.617223 Z M59.4594595,112.237653 C59.4594595,111.518469 59.4594595,110.819263 59.4594595,110.120056 C59.4594595,109.420849 59.4594595,108.481915 59.4594595,107.682821 L62.1182263,107.802685 C62.1182263,108.561824 62.1182263,109.320963 62.1182263,110.120056 C62.1182263,110.919149 62.1182263,111.458537 62.1182263,112.117789 L59.4594595,112.237653 Z M147.678543,112.237653 L147.078821,109.800419 C148.538144,109.460804 150.017458,109.141167 151.476781,108.841507 L151.99654,111.458537 C150.557207,111.638333 149.097884,111.957971 147.678543,112.277608 L147.678543,112.237653 Z M191.418256,109.920283 L189.779016,109.800419 L187.100258,109.480781 L187.380128,106.823796 L190.15884,107.163411 L191.858052,107.423116 L191.418256,109.920283 Z M160.712497,109.920283 L160.352664,107.283275 C161.851969,107.083501 163.351273,106.923683 164.830587,106.783841 L165.090467,109.420849 C163.631144,109.540713 162.17182,109.800419 160.712497,109.900305 L160.712497,109.920283 Z M173.886387,108.881461 L173.886387,106.224476 C175.385692,106.224476 176.884996,106.224476 178.384301,106.224476 L178.384301,108.901439 C176.825024,108.821529 175.34571,108.841507 173.886387,108.861484 L173.886387,108.881461 Z M63.2377071,99.272364 L60.6389124,98.6930214 C60.9587641,97.1947214 61.3785694,95.7163987 61.8383561,94.2780307 L64.3771786,95.1170787 C63.9223599,96.4805381 63.5419759,97.8676759 63.2377071,99.272364 L63.2377071,99.272364 Z M67.875556,87.285964 L65.5766223,85.9474827 C66.3508487,84.6272285 67.1915377,83.3470369 68.095454,82.1118346 L70.2544526,83.690044 C69.3820093,84.8359775 68.5744528,86.0298267 67.8355745,87.2659867 L67.875556,87.285964 Z M179.143949,78.0364586 C177.60958,77.9589506 176.081032,77.7921904 174.566072,77.5370253 L175.005868,74.9000173 C176.421925,75.1386209 177.850116,75.2986846 179.283884,75.3794733 L179.143949,78.0364586 Z M76.031773,77.27732 L74.2326075,75.2795866 C75.3520883,74.28072 76.5315412,73.2818533 77.7709664,72.3628959 L79.3702246,74.5004706 C78.2107624,75.3994506 77.0712909,76.318408 76.031773,77.27732 Z M165.790142,74.939972 C164.374715,74.3514029 162.993212,73.6844576 161.652061,72.9422386 L162.931468,70.6048906 C164.192382,71.2884459 165.486734,71.9085186 166.809669,72.4627826 L165.790142,74.939972 Z M86.7268126,69.8457519 L85.4673967,67.4884266 C86.7867848,66.8091973 88.166145,66.1299679 89.4655423,65.4906933 L90.5450416,67.9279279 C89.3056165,68.5672026 87.9662377,69.2064773 86.7268126,69.8457519 Z M154.055585,67.8480186 C152.915428,67.0692286 151.70389,66.4003191 150.437263,65.8502853 L151.556744,63.4330279 C152.958574,64.0875707 154.296965,64.8700047 155.554889,65.7703759 L154.055585,67.8480186 Z M98.8611845,64.9313279 L98.0815461,62.3742292 C99.5008878,61.9547052 100.980202,61.5551586 102.459516,61.1755892 L103.079228,63.7726426 C101.659886,64.1122572 100.240545,64.5118039 98.8611845,64.9313279 Z M142.241064,63.0734359 C140.881695,62.7537986 139.442363,62.4741159 137.963049,62.2343879 L138.382854,59.6173572 C139.92214,59.8570852 141.421445,60.1567452 142.860777,60.4963599 L142.241064,63.0734359 Z M111.815176,62.1145239 L111.435352,59.4775159 C112.914666,59.2777426 114.433962,59.0979466 115.933266,58.9581052 L116.173155,61.6150906 C114.613878,61.8548186 113.154555,61.8548186 111.815176,62.1145239 Z M129.347045,61.3354079 C127.907712,61.3354079 126.428399,61.2155439 124.949085,61.2155439 L124.949085,58.5585586 C126.46838,58.5585586 127.987675,58.5585586 129.466989,58.6784226 L129.347045,61.3354079 Z" id="Shape" fill="#DDDDDD"></path>
                <path d="M118.378378,202.702703 L116.216216,202.266783 L116.853282,200 C117.548263,200.174368 118.223938,200.331299 118.918919,200.470793 L118.378378,202.702703 Z" id="Path" fill="#DDDDDD"></path>
                <path d="M146.222191,95.535543 C146.160157,96.4412805 145.949311,97.3306675 145.598094,98.1680957 C144.97794,99.1110027 143.964386,99.7239457 142.839989,99.8360489 C141.73272,100.016911 140.60532,99.936528 139.498051,100.037007 C138.390783,100.137486 137.182853,100.780553 137.303646,101.805439 C137.360547,102.119728 137.491674,102.415953 137.686157,102.66956 L139.035012,104.940388 C139.209668,105.162925 139.295715,105.442072 139.276597,105.724125 C139.276597,106.105945 138.773294,106.306904 138.410915,106.46767 C136.565138,107.406933 135.199229,109.076604 134.646202,111.069613 C134.096912,113.041796 134.096912,115.126177 134.646202,117.09836 C134.680214,117.377315 134.825347,117.630841 135.048845,117.801714 C135.233783,117.90209 135.442465,117.950695 135.65281,117.942384 C136.929513,118.159047 138.063146,118.884423 138.793426,119.951967 C139.492268,121.048296 140.117729,122.189549 140.665716,123.368256 C143.732038,129.109005 149.544618,132.868212 156.046682,133.315688 C156.570424,133.367228 157.099142,133.305541 157.596858,133.134826 C158.192481,132.834035 158.673237,132.347089 158.965845,131.748214 C160.354964,129.216141 159.95232,126.181671 160.052981,123.408448 C160.046925,122.032106 160.30667,120.667499 160.818003,119.389284 C161.140118,118.665834 161.4421,118.625642 161.905139,118.20363 C162.352751,117.909426 162.624431,117.412245 162.629897,116.877306 C162.522845,116.193734 162.354398,115.521162 162.126593,114.867724 C161.959712,113.604928 162.244906,112.323869 162.931879,111.250476 C163.613989,110.199588 164.238988,109.112844 164.80417,107.994953 C165.196876,106.955834 165.440863,105.86664 165.528927,104.759525 C166.103717,101.934332 165.623991,98.9968464 164.180073,96.5001425 C163.037405,94.8865667 161.255934,93.8401032 159.287959,93.62644 C158.489286,93.6033954 157.694267,93.5092414 156.912365,93.3450985 C155.724568,92.9632778 155.321925,91.7374327 154.073731,91.3355163 C152.993289,90.9591362 151.829378,90.8895668 150.711661,91.134558 C148.488379,91.6113149 146.739969,93.3252651 146.222191,95.535543 L146.222191,95.535543 Z" id="Path" fill="#473F47"></path>
                <path d="M151.975755,215.513873 C152.741999,216.145426 153.39903,216.886251 153.923054,217.70952 C154.026009,217.862314 154.070355,218.043852 154.048687,218.223815 C154.048687,218.500744 153.650851,218.658988 153.336771,218.738111 C150.665805,219.389591 147.868348,218.239513 146.552632,215.949046 C145.583226,214.637171 145.057582,213.078489 145.045045,211.478631 L145.401003,208.907154 C145.444009,208.507657 145.542572,208.115258 145.694145,207.740098 C145.896209,207.37427 146.157614,207.040559 146.468877,206.751068 C146.985944,206.200247 147.611848,205.750063 148.311482,205.425768 C148.392772,205.398618 148.481458,205.398618 148.562747,205.425768 C148.730256,205.425768 148.814011,205.623574 148.855889,205.762038 C148.972624,206.421896 148.929672,207.09816 148.730256,207.740098 C148.486507,209.624284 148.953585,211.529341 150.049395,213.120421 C150.578994,213.993738 151.226542,214.7983 151.975755,215.513873 Z" id="Path" fill="#F89659"></path>
                <path d="M159.08615,201.446738 C159.12363,201.658465 159.204619,201.858844 159.323364,202.033641 C159.42731,202.178023 159.563059,202.293176 159.718721,202.369014 C160.393154,202.666143 161.130054,202.767432 161.853645,202.662465 C162.743197,202.662465 163.612981,202.473818 164.482765,202.327092 C164.985847,202.332428 165.456213,202.063259 165.728138,201.614425 C165.859717,201.102114 165.637762,200.561681 165.194407,200.314855 C164.763324,200.08085 164.293263,199.938442 163.810659,199.895639 C163.324103,199.829178 162.872143,199.593246 162.525751,199.224893 C162.031556,198.575108 162.249002,197.548029 161.735038,196.919205 C161.09506,196.411086 160.262778,196.2627 159.501274,196.520949 C157.900081,197.04497 158.750097,200.251973 159.08615,201.446738 Z" id="Path" fill="#F89659"></path>
                <path d="M165.50158,177.491775 C165.402844,177.912641 165.323855,178.333506 165.244866,178.754372 C164.35624,183.965088 163.270142,189.155764 162.263033,194.346439 C162.1376,195.489062 161.684426,196.56918 160.959716,197.452827 C160.557824,197.95815 159.939591,198.234521 159.300948,198.194353 L159.123223,198.194353 C158.293839,197.913775 157.819905,196.731344 157.819905,195.548912 L158.254344,174.305222 C158.322524,174.056082 158.322524,173.792796 158.254344,173.543656 C158.090874,173.318178 157.873361,173.138818 157.622433,173.022584 C157.030016,172.701925 156.457346,172.361224 155.884676,172.020523 C154.127172,170.998421 152.409163,169.896154 150.730648,168.753805 C148.479463,167.210631 146.28752,165.587292 144.174566,163.843707 C142.639056,162.894468 141.42102,161.497668 140.679305,159.835463 C139.97641,157.791491 139.172333,155.784817 138.270142,153.823098 C137.22624,151.346197 135.984614,148.960029 134.557662,146.688425 C134.379937,146.427889 133.708531,145.105169 133.333333,145.045045 L147.689573,146.648342 C148.962674,146.591766 150.208018,147.036997 151.165087,147.890898 C152.729541,149.744347 154.155313,151.713872 155.43049,153.783016 C158.412322,157.791259 161.35466,161.939791 164.395735,166.008158 C165.643701,167.368983 166.438185,169.093789 166.666667,170.938297 C166.497248,173.1571 166.106895,175.352791 165.50158,177.491775 L165.50158,177.491775 Z" id="Path" fill="#473F47"></path>
                <path d="M149.142656,207.220702 C148.948991,207.493385 148.716382,207.735462 148.452438,207.939012 C148.046604,208.296931 147.595681,208.598855 147.111444,208.8369 L146.973401,208.8369 C146.423993,209.066379 145.807125,209.066379 145.257717,208.8369 C143.818121,208.218355 144.251972,204.646757 144.17309,203.250042 C144.035047,201.055205 143.916724,198.88032 143.77868,196.685483 C143.542034,192.415527 143.285668,188.14557 143.049022,183.855661 C142.930699,181.860354 142.792655,179.865048 142.694053,177.869741 L141.964394,176.572792 L141.629146,175.994153 L141.234736,175.295795 L140.820605,174.517626 C140.583959,174.118565 140.347313,173.679597 140.090947,173.220677 C139.676816,172.442507 139.282406,171.624431 138.868276,170.826309 C138.610191,170.290371 138.320432,169.77065 138.000574,169.269969 C137.895048,169.101032 137.776347,168.940898 137.645605,168.791096 C136.855935,167.925647 136.005759,167.118791 135.101661,166.376775 C132.374007,163.805885 130.558358,160.398207 129.93489,156.679584 C129.77144,155.66415 129.705398,154.635106 129.737685,153.606812 C129.758806,152.008561 130.01128,150.422067 130.487064,148.897888 C130.860001,147.810035 131.335482,146.760995 131.90694,145.765257 C132.355739,144.880065 132.956734,144.082801 133.681785,143.410795 C134.021058,143.093217 134.406893,142.830717 134.825574,142.632625 C137.547003,141.375582 140.307872,144.508214 142.20104,146.164318 C144.094208,147.820423 147.367811,150.154932 148.393277,152.649065 C149.418743,155.143198 151.351351,176.093918 151.351351,176.093918 C151.351351,181.241809 151.351351,186.389701 151.055544,191.517639 C150.937221,194.570458 150.799177,197.623277 150.50337,200.656143 C150.48997,202.914568 150.027199,205.147134 149.142656,207.220702 Z" id="Path" fill="#473F47"></path>
                <path d="M147.653052,208.836461 L147.510707,208.836461 C146.94418,209.066525 146.308091,209.066525 145.741564,208.836461 C144.25711,208.216336 144.70448,204.635614 144.62314,203.235332 C144.480795,201.034889 144.358785,198.854449 144.21644,196.654006 C143.972421,192.373143 143.708066,188.092281 143.464046,183.791414 C143.342036,181.791011 143.199691,179.790608 143.098016,177.790205 L142.345622,176.489943 L141.999927,175.909826 L141.593228,175.209685 L141.166193,174.429528 C140.922173,174.029447 140.678153,173.589358 140.413799,173.129266 L138.970015,170.588754 L137.892261,168.588351 C137.077985,167.720691 136.201318,166.911775 135.269048,166.167863 C132.475777,163.616555 130.605164,160.23823 129.941283,156.545924 C129.77274,155.527896 129.704639,154.496224 129.737933,153.465303 C129.759712,151.86297 130.020054,150.272424 130.510663,148.744352 C130.89522,147.65372 131.385517,146.602 131.974781,145.603719 C132.437564,144.716266 133.057286,143.916966 133.80493,143.243243 C133.968555,143.391175 134.112085,143.559264 134.231964,143.743344 C135.777423,145.923783 135.696083,148.78436 135.858763,151.444896 C135.961062,154.763758 136.649141,158.039856 137.892261,161.126847 L137.892261,161.126847 L138.441305,162.227069 L138.441305,162.227069 C138.514594,162.384437 138.596041,162.538003 138.685325,162.687161 C140.80513,165.994534 142.687314,169.443634 144.318115,173.009241 C147.510707,181.010854 146.351613,189.772619 146.758313,198.254328 C146.883975,200.600401 147.141949,202.937802 147.531042,205.255739 C147.770683,206.434697 147.811902,207.644364 147.653052,208.836461 L147.653052,208.836461 Z" id="Path" fill="url(#linearGradient-2)"></path>
                <path d="M192.147227,143.024991 L192.147227,143.024991 C191.329315,143.024991 190.511404,143.024991 189.713441,143.024991 C188.875167,142.958168 188.053243,142.755534 187.279656,142.424975 C186.54154,142.084966 185.923119,141.564952 185.165055,141.244944 C183.609028,140.564926 181.913358,140.244917 180.397229,139.464896 C178.103087,138.304866 175.888742,136.98483 173.694345,135.684796 L168.387895,132.524712 C166.595115,131.496404 164.857176,130.374844 163.18119,129.164622 L162.203686,128.404602 C161.724908,128.004591 161.126436,127.564579 160.527964,127.744584 C160.285102,127.859852 160.067969,128.023122 159.889594,128.224597 C159.195386,129.177797 158.755879,130.293169 158.612855,131.464683 C158.350181,132.485657 157.954442,133.46747 157.43586,134.384761 C156.458356,136.184809 155.540699,138.024858 154.483399,139.764904 C153.715195,141.466915 152.632123,143.007488 151.291549,144.305025 C150.410892,144.772257 149.405088,144.947326 148.418884,144.805039 C146.310124,144.521733 144.179164,144.441365 142.055134,144.565032 C141.083502,144.79464 140.096885,144.955045 139.102673,145.045045 C137.566227,145.012328 136.079251,144.494393 134.853523,143.565006 C133.776273,142.724983 134.255051,141.564952 134.69393,140.464923 C136.369651,136.084806 138.025423,133.524738 136.070415,129.024618 C136.449447,129.904642 128.33018,133.024725 127.312777,133.024725 C123.063627,133.024725 120.530097,129.904642 117.338247,127.484577 C115.440343,126.088242 113.43972,124.837969 111.353528,123.744478 C110.719492,123.37444 110.051452,123.066349 109.358622,122.824453 C108.700303,122.604447 107.842494,122.624448 107.363716,122.164436 C107.16421,121.981695 106.989794,121.7732 106.845041,121.544419 C106.580565,121.131472 106.366256,120.688318 106.206671,120.224384 C106.072783,119.671696 105.789822,119.166588 105.388759,118.764345 C104.786965,118.411001 104.072566,118.303564 103.393853,118.464337 C103.029198,118.504153 102.661309,118.504153 102.296655,118.464337 C102.156437,118.459976 102.025182,118.394179 101.937571,118.284332 C101.834488,118.148409 101.834488,117.960243 101.937571,117.82432 C102.076594,117.729291 102.232264,117.661434 102.3964,117.624315 L105.129421,117.044299 C104.351408,116.364281 103.134515,116.544286 102.17696,116.224277 C102.047948,116.189601 101.930739,116.120476 101.837826,116.024272 C101.740467,115.792287 101.847136,115.524928 102.077215,115.424256 C102.311335,115.353043 102.561261,115.353043 102.795381,115.424256 L105.747842,115.764265 C104.870083,114.684236 102.994872,115.004245 102.097164,113.944217 C102.806161,113.468279 103.707565,113.385437 104.491051,113.724211 C105.640097,113.888602 106.75305,114.247018 107.782646,114.784239 C108.408135,115.149387 108.984653,115.592973 109.498266,116.104274 C111.470469,118.250443 113.590262,120.255408 115.842067,122.104434 C117.416212,123.133476 119.120268,123.947345 120.909129,124.524498 C121.687142,124.804506 122.505054,124.984511 123.283067,125.244518 C124.06108,125.504525 125.038584,125.984537 125.896394,126.344547 C126.215801,126.514874 126.571968,126.604145 126.933745,126.604554 C127.223602,126.54891 127.500824,126.440447 127.751657,126.284545 C129.552816,125.178044 131.146312,123.763214 132.459635,122.104434 C133.876019,120.424389 135.531791,118.94435 137.02797,117.344307 C137.608094,116.657759 138.329448,116.105113 139.142571,115.724264 C140.658699,115.20425 142.274573,115.96427 143.890447,116.024272 C145.253192,116.091727 146.580343,115.575493 147.541126,114.604234 C148.478731,113.504205 148.438833,111.864161 149.536032,110.764132 C150.152294,110.178678 150.919088,109.776977 151.750377,109.604101 C152.662424,109.308386 153.549618,108.940554 154.403603,108.504072 C155.081871,108.184063 155.93968,107.884055 156.538152,108.344067 C156.726842,108.467165 156.839709,108.678394 156.837388,108.904082 C156.833369,109.098145 156.770769,109.286428 156.657847,109.444097 C156.233739,110.276603 155.854169,111.13117 155.52075,112.004165 C155.091205,112.884721 154.924928,113.871065 155.041973,114.844241 C155.321259,116.224277 157.036879,117.004298 158.193924,117.504311 C159.869645,118.224331 161.724908,118.344334 163.400629,119.024352 C165.071484,119.798021 166.570622,120.899772 167.809372,122.264438 C169.804278,124.264492 171.46005,126.264545 173.275415,128.264598 C174.193071,129.264625 175.130677,130.264651 176.148079,131.204676 C177.499536,132.161022 178.927416,133.003905 180.417179,133.724744 C182.063839,134.809374 183.791192,135.765547 185.583985,136.58482 C186.863895,137.159525 188.201438,137.595348 189.573798,137.884854 C190.131995,138.046531 190.697929,138.180036 191.269468,138.284865 C191.86794,138.284865 192.187125,138.08486 192.685851,137.784852 C193.446653,137.386795 194.326007,137.280147 195.159535,137.484844 C196.95959,137.885787 198.644769,138.692929 200.086953,139.844907 C200.505883,140.124914 200.964712,140.544925 200.884915,141.044938 C200.906229,141.109895 200.906229,141.179988 200.884915,141.244944 C200.725323,141.384948 200.485934,141.244944 200.306393,141.10494 C199.688898,140.6578 198.930036,140.451596 198.171843,140.524925 C198.730417,140.964936 199.328889,141.504951 199.269041,142.204969 C199.289072,142.256414 199.289072,142.313529 199.269041,142.364974 C199.212576,142.3935 199.145965,142.3935 199.0895,142.364974 C198.471079,142.364974 198.012251,141.784958 197.433728,141.504951 C196.871893,141.247728 196.254149,141.137623 195.638312,141.184942 C195.359025,141.184942 194.461318,141.184942 194.461318,141.544952 C194.444139,141.603717 194.444139,141.666191 194.461318,141.724957 C194.628375,141.942524 194.822833,142.137484 195.03984,142.304972 C195.261119,142.472133 195.362878,142.754656 195.299178,143.024991 C195.159535,143.304999 194.780503,143.345 194.461318,143.324999 C193.623457,143.284998 192.905291,143.104993 192.147227,143.024991 Z" id="Path" fill="#F89659"></path>
                <path d="M189.189189,142.982017 C188.973325,143.118844 188.73166,143.207845 188.479883,143.243243 C187.664385,143.185367 186.892755,142.845062 186.292854,142.278716 C184.265721,141.250715 182.172376,140.36452 180.027312,139.626268 C177.761472,138.460798 175.574443,137.134573 173.407118,135.828443 L168.205536,132.713825 C166.434873,131.680697 164.718373,130.553878 163.063063,129.337982 C163.516231,129.679585 165.388012,126.786004 165.70326,126.524778 C167.535635,124.997611 166.885437,128.272983 166.846032,129.37817 C166.806405,129.59736 166.806405,129.822092 166.846032,130.041282 C166.988102,130.327216 167.215865,130.559503 167.496229,130.704395 C170.806327,132.914769 174.214939,134.964388 177.722066,136.853253 C179.495332,137.797686 181.327708,138.661741 183.120677,139.586079 C184.598399,140.349663 186.194339,140.791738 187.73117,141.414661 C188.381368,141.675887 189.110377,142.077773 189.13008,142.781074 C189.159809,142.844552 189.179747,142.912332 189.189189,142.982017 Z" id="Path" fill="#D57439"></path>
                <path d="M148.292046,112.109677 C148.340802,112.842926 148.169642,113.573924 147.801525,114.204622 C147.270128,114.937852 150.826404,115.901527 151.889199,114.854054 C152.997889,113.577847 154.022091,112.227087 154.954955,110.810811 L148.292046,112.109677 Z" id="Path" fill="#D57439"></path>
                <path d="M152.586984,112.211101 C151.443536,112.637652 150.193255,112.726727 148.996641,112.466891 C147.796698,112.182623 146.794297,111.394746 146.26798,110.322189 C146.009778,109.601811 145.905125,108.839022 145.960236,108.079107 C146.090447,104.395268 147.409433,100.84096 149.735226,97.906531 C150.077669,97.4204283 150.525564,97.0110087 151.048266,96.7062852 C151.757247,96.3775881 152.566747,96.3076464 153.325569,96.5095235 C154.786223,96.879506 156.082156,97.6942744 157.018494,98.8313106 C157.945315,99.9518006 158.730408,101.173685 159.357346,102.471401 C159.808704,103.278123 160.64987,104.557074 160.260061,105.50153 C159.691358,106.374414 159.001116,107.168789 158.208437,107.862669 C156.785001,109.778337 154.840525,111.282471 152.586984,112.211101 L152.586984,112.211101 Z" id="Path" fill="#F89659"></path>
                <path d="M153.37769,144.873499 C152.430285,146.411805 150.724487,147.286185 148.949738,147.143238 C145.5146,147.426956 142.059606,146.515007 138.644324,147.143238 C137.591941,147.325628 136.658696,147.649876 135.507031,147.730938 L135.209187,147.730938 C134.037188,147.84359 132.881789,147.385425 132.09175,146.494741 C131.01951,145.055889 131.694624,142.988805 132.389594,141.306767 C133.680253,138.287204 136.10272,134.821799 134.71278,131.457721 L134.71278,131.457721 C134.534073,131.092942 134.295798,130.768694 134.136947,130.403914 C133.973745,130.008045 133.860324,129.592675 133.79939,129.167717 L133.283127,126.57373 C132.925714,124.85116 132.588157,123.12859 132.230744,121.385755 C132.151199,121.039177 132.151199,120.678526 132.230744,120.331948 C132.405807,119.878757 132.719086,119.495074 133.124277,119.237609 L136.718265,116.319374 C137.417574,115.650012 138.260844,115.15722 139.180444,114.880522 C140.156017,114.793287 141.138784,114.847873 142.099319,115.042646 C143.377682,114.995137 144.64515,114.784078 145.872013,114.414414 C146.030863,114.414414 146.20957,114.414414 146.328708,114.414414 C146.452418,114.537059 146.523764,114.704537 146.527271,114.880522 C146.665124,115.450289 146.92257,115.982707 147.28181,116.440967 C147.538935,116.764147 147.817584,117.068852 148.115774,117.352916 L148.493043,117.717695 L150.657378,119.744248 C151.11198,120.233939 151.641823,120.644646 152.226025,120.960179 C154.211654,121.872128 155.62145,119.440265 155.522169,117.636633 C155.40801,116.624033 155.11183,115.641609 154.648492,114.738663 C155.561882,115.103442 156.475271,115.508753 157.38866,115.934329 C158.216141,116.437695 159.078928,116.87798 159.969977,117.251588 C161.359918,117.636633 162.690289,117.251588 163.941235,118.143271 C165.593889,119.239941 167.11354,120.532416 168.468468,121.993721 L167.555079,124.141867 C166.343846,126.735854 164.934049,129.532496 162.352732,130.667366 C161.677618,130.951083 160.982648,131.133473 160.367103,131.457721 C159.255151,132.025156 159.136013,132.916839 158.639606,133.930116 C157.785786,135.693216 156.931965,137.456317 156.15757,139.239683 C155.381784,141.191275 154.452107,143.075397 153.37769,144.873499 Z" id="Path" fill="#FFFFFF"></path>
                <path d="M156.897977,119.920313 C157.062677,119.723511 157.271482,119.566607 157.508146,119.461807 C157.701468,119.411966 157.904654,119.411966 158.097976,119.461807 C160.660686,119.661158 163.223395,119.940248 165.765766,120.279144 C162.613226,117.528107 157.63018,117.647717 154.253912,115.315315 C153.786115,116.172523 154.253912,117.169276 154.497979,118.106223 C154.640617,118.951041 154.640617,119.813093 154.497979,120.657911 C155.375264,120.857108 156.2938,120.574812 156.897977,119.920313 L156.897977,119.920313 Z" id="Path" fill="url(#linearGradient-3)"></path>
                <path d="M108.466298,122.435037 C107.941026,122.590744 107.384591,122.537495 106.889721,122.284165 C106.634323,121.841446 106.430043,121.363373 106.281884,120.861657 C106.154401,120.266064 105.884974,119.721745 105.503093,119.288276 C104.929427,118.909615 104.249934,118.793964 103.603604,118.964979 C103.962317,118.707691 104.376015,118.566121 104.800282,118.555469 C105.263404,118.539269 105.689741,118.26514 105.939976,117.822661 C105.939976,117.650236 105.939976,117.434704 106.129925,117.283832 C106.319874,117.13296 106.623792,117.089854 106.889721,117.13296 C107.426502,117.279878 107.948468,117.489338 108.447303,117.758002 C108.805313,117.907407 109.134324,118.134329 109.416043,118.42615 C109.690638,118.659201 109.869117,119.00971 109.90991,119.396042 C109.738956,119.396042 109.492022,119.18051 109.321068,119.072744 C109.10345,118.944315 108.874162,118.843138 108.637252,118.771 C108.154617,118.624975 107.653487,118.573944 107.15565,118.620128 C107.15565,118.620128 107.00369,118.620128 106.984696,118.620128 C106.965701,118.620128 106.984696,118.814107 107.098665,118.878766 C107.801476,119.503808 108.694236,119.805552 109.378053,120.4737 C109.489367,120.547843 109.576128,120.661435 109.624986,120.796997 C109.690416,120.976414 109.690416,121.177962 109.624986,121.357379 C109.435726,121.925325 108.994241,122.335935 108.466298,122.435037 Z" id="Path" fill="#D57439"></path>
                <path d="M167.211086,200.291938 C166.58437,199.9656 165.835343,199.909958 165.160724,200.139625 C164.853393,200.332263 164.558964,200.54208 164.279069,200.767914 C163.396568,201.09237 162.414084,201.09237 161.531583,200.767914 C160.562181,200.486875 159.566973,200.289304 158.558559,200.177703 C158.558559,200.177703 158.558559,202.081609 158.927624,202.252961 C159.409847,202.409217 159.914124,202.49902 160.424388,202.519508 C162.466313,202.763768 164.533549,202.763768 166.575474,202.519508 C167.149575,202.405273 169.076916,202.119688 169.343463,201.529477 C169.61001,200.939266 167.74418,200.463289 167.211086,200.291938 Z" id="Path" fill="#DDDDDD"></path>
                <path d="M155.215454,218.224183 C155.565365,218.643565 155.788422,219.167774 155.854945,219.727061 C155.863718,219.921916 155.808868,220.113928 155.699917,220.269767 C155.570025,220.37498 155.415901,220.439942 155.254211,220.457626 C153.98089,220.75956 152.666343,220.802039 151.378508,220.582866 C150.108311,220.369016 148.945093,219.690953 148.084159,218.662522 C147.522182,217.931957 147.15399,217.055278 146.63077,216.303839 C146.10755,215.5524 145.623087,215.072314 145.216138,214.383495 C144.80919,213.694676 145.216138,212.463151 145.526195,211.711712 C145.875008,211.711712 145.758737,212.442277 145.913765,212.77625 C146.441254,214.003376 147.192542,215.103658 148.122916,216.011613 C148.927252,217.004948 150.078028,217.594486 151.300993,217.63973 C151.747818,217.639964 152.166922,217.406465 152.424948,217.013531 C152.618733,216.679558 152.424948,215.907246 152.754382,215.782006 C153.083817,215.656766 154.905398,217.89021 155.215454,218.224183 Z" id="Path" fill="#DDDDDD"></path>
                <path d="M159.205549,198.198198 L159.028194,198.198198 C158.200537,197.918214 157.72759,196.738282 157.72759,195.558349 L158.0823,174.35956 C158.150338,174.110947 158.150338,173.848217 158.0823,173.599604 C157.91917,173.374603 157.70211,173.195622 157.451704,173.079634 C156.860521,172.759652 156.289043,172.419671 155.717566,172.079691 C153.963721,171.059749 152.249288,169.959812 150.574268,168.819877 L149.54955,160.36036 C149.54955,160.36036 159.934676,167.339962 161.018512,170.619774 C162.102349,173.899587 159.205549,198.198198 159.205549,198.198198 Z" id="Path" fill="url(#linearGradient-4)"></path>
                <path d="M154.23247,103.05139 C155.017444,103.334783 155.822987,103.560521 156.64238,103.726722 C157.452268,103.996855 158.262155,104.595007 158.281909,105.405405 C158.973276,105.405405 159.34859,104.633597 159.546124,103.996855 C159.946155,102.932586 160.211501,101.824542 160.336258,100.697375 C160.447861,99.5672771 160.169764,98.4331505 159.546124,97.4750748 C158.420182,95.9121629 154.252223,92.9792912 152.928748,95.7192108 C151.921327,97.8416837 151.802807,101.816497 154.23247,103.05139 Z" id="Path" fill="#473F47"></path>
                <path d="M175.286398,190.990991 C173.914655,190.735114 172.542913,190.479237 171.171171,190.180713 L171.616061,187.387387 C172.969266,187.664588 174.322471,187.941788 175.675676,188.176342 L175.286398,190.990991 Z" id="Path" fill="#DDDDDD"></path>
                <path d="M162.534194,188.288288 C161.202903,187.967968 159.889849,187.627628 158.558559,187.267267 L159.123901,184.684685 L163.063063,185.685686 L162.534194,188.288288 Z" id="Path" fill="#DDDDDD"></path>
                <path d="M149.67825,184.684685 L145.045045,183.496062 L145.881596,181.081081 C147.404547,181.496156 148.927499,181.873497 150.45045,182.250837 L149.67825,184.684685 Z" id="Path" fill="#DDDDDD"></path>
                <path d="M136.90514,180.18018 C135.421304,179.747748 133.916269,179.297297 132.432432,178.828829 L133.407525,176.576577 L137.837838,177.90991 L136.90514,180.18018 Z" id="Path" fill="#DDDDDD"></path>
                <polygon id="Path" fill="#DDDDDD" points="201.801802 144.752252 222.495813 100.900901 259.459459 109.719492 238.403454 154.054054"></polygon>
                <polygon id="Path" fill="#FFFFFF" points="47.7477477 50.8964159 111.171171 30.6306306 127.027027 96.2283062 73.940016 123.423423"></polygon>
                <polygon id="Path" fill="#DDDDDD" points="44.1441441 180.367681 74.488981 199.099099 84.6846847 165.756776 51.2104734 143.243243"></polygon>
                <polygon id="Path" fill="#FFFFFF" points="202.702703 216.216216 208.463341 178.551319 252.252252 175.675676 242.845895 212.1139"></polygon>
                <polygon id="Path" fill="#FFFFFF" points="216.64017 138.738739 212.612613 137.821846 215.771065 131.531532 219.81982 132.448425"></polygon>
                <polygon id="Path" fill="#DDDDDD" points="221.834133 139.63964 218.018018 138.815799 224.111813 127.027027 227.927928 127.850868"></polygon>
                <polygon id="Path" fill="#FFFFFF" points="226.18363 140.540541 222.522523 139.688099 226.08779 132.432432 229.72973 133.284874"></polygon>
                <polygon id="Path" fill="#DDDDDD" points="230.785853 142.342342 227.027027 141.459805 234.979912 125.225225 238.738739 126.107762"></polygon>
                <polygon id="Path" fill="url(#linearGradient-5)" points="221.834133 139.63964 218.018018 138.815799 224.111813 127.027027 227.927928 127.850868"></polygon>
                <polygon id="Path" fill="url(#linearGradient-6)" points="230.785853 142.342342 227.027027 141.459805 234.979912 125.225225 238.738739 126.107762"></polygon>
                <polygon id="Path" fill="#FFFFFF" points="235.421785 142.342342 231.531532 141.497801 242.055692 121.621622 245.945946 122.466163"></polygon>
                <path d="M80.5407863,72.1054617 C80.5319172,70.3835495 80.9070252,68.6809457 81.6393132,67.1192813 L74.2092766,63.0630631 C72.7956407,65.8711396 72.0638129,68.9675658 72.0720721,72.1054617 C72.1026933,81.4552612 78.5217247,89.5973887 87.6712247,91.8918919 L89.1891892,83.5222319 C84.0887146,82.0105382 80.580531,77.3793795 80.5407863,72.1054617 L80.5407863,72.1054617 Z" id="Path" fill="#473F47"></path>
                <path d="M109.90991,82.6274622 C106.203784,88.95228 99.5557436,92.8100836 92.3923924,92.7927928 C90.7042228,92.7931774 89.0226984,92.5746038 87.3873874,92.1421571 L88.8849479,83.5423367 C90.0228506,83.8940946 91.2045142,84.0721788 92.3923924,84.0709309 C96.4777261,84.0789775 100.283504,81.9315934 102.481221,78.3783784 L109.90991,82.6274622 Z" id="Path" fill="#DDDDDD" opacity="0.18"></path>
                <path d="M113.412593,72.1835287 C113.417831,75.9523841 112.392101,79.6513915 110.445675,82.8828829 L102.836641,78.7600114 C105.339217,74.9132744 105.468047,69.9937152 103.170212,66.0221578 C100.872377,62.0506004 96.5352759,59.6966212 91.940474,59.9271721 C87.3456721,60.157723 83.2678205,62.9339347 81.381992,67.1154136 L73.8738739,62.9925421 C78.1582408,54.3001944 87.892539,49.7002623 97.358264,51.895019 C106.823989,54.0897757 113.52035,62.4993789 113.513514,72.1835287 L113.412593,72.1835287 Z" id="Path" fill="#DDDDDD"></path>
                <g id="G8KHDO" transform="translate(214.414414, 184.684685)" fill="#DDDDDD">
                    <path d="M1.8036036,20.6003861 C1.79257846,20.3696989 1.87896945,20.1450729 2.04144144,19.981982 C2.41032169,19.6039451 2.67649156,19.1368405 2.81441441,18.6254826 C2.98745133,17.9657308 2.72459383,17.268243 2.16036036,16.8899614 C1.82223582,16.6335948 1.43889238,16.444063 1.03063063,16.3314028 C0.611823163,16.2157048 0.341425731,15.8074749 0.396396396,15.3738739 C0.396396396,15.1145431 0.396396396,14.8352638 0.396396396,14.5759331 C0.411661725,14.3323698 0.522694795,14.1049598 0.704943672,13.9439886 C0.88719255,13.7830173 1.12564277,13.7017465 1.36756757,13.7181467 C1.75808047,13.7126876 2.14304981,13.6243175 2.4972973,13.458816 C3.28877203,13.150984 3.71176547,12.2821265 3.46846847,11.463964 C3.3725298,11.1144775 3.24652808,10.7740662 3.09189189,10.4465894 C2.90365907,10.0556923 3.02051678,9.58522621 3.36936937,9.32947233 C3.57612697,9.18096132 3.77462413,9.02113244 3.96396396,8.85070785 C4.32655379,8.57134648 4.83020297,8.57134648 5.19279279,8.85070785 C5.48298803,9.14549306 5.82595011,9.38238754 6.2036036,9.54890605 C6.91269045,9.85306237 7.73652606,9.62089052 8.18558559,8.99034749 C8.44720517,8.6294571 8.64192137,8.22398002 8.76036036,7.79343629 C8.90087848,7.37863735 9.32385188,7.13171977 9.75135135,7.21492921 L10.5441441,7.21492921 C10.9836219,7.25625131 11.3190306,7.62846235 11.3171171,8.07271557 C11.3385783,8.58831934 11.4739962,9.09261906 11.7135135,9.54890605 C12.0734189,10.1541111 12.7679729,10.4718675 13.4576577,10.3468468 C13.8438621,10.2650261 14.217242,10.1308103 14.5675676,9.94787645 C14.9905302,9.69915418 15.5331713,9.83129082 15.7963964,10.2471042 C15.9351351,10.4864865 16.1531532,10.6859717 16.3117117,10.9253539 C16.5317489,11.2708782 16.4909483,11.7225991 16.2126126,12.0225225 C15.9121384,12.3312944 15.6762543,12.6975932 15.5189189,13.0997426 C15.1533314,13.9152606 15.5065331,14.8750976 16.3117117,15.2541828 C16.6001112,15.4257461 16.9057109,15.5661649 17.2234234,15.6731017 C17.6107562,15.7833019 17.8728352,16.1460006 17.8576577,16.5508366 C17.8576577,16.8700129 17.8576577,17.1891892 17.7387387,17.528314 C17.6781903,17.9625137 17.3020567,18.2808617 16.8666667,18.2664093 C16.3992921,18.2868144 15.9408487,18.4021694 15.5189189,18.6055341 C14.860261,18.9191682 14.4940647,19.6399354 14.627027,20.3610039 C14.6910211,20.7706376 14.8180721,21.1677262 15.0036036,21.5379665 C15.1349493,21.7375528 15.1795995,21.9824764 15.1272098,22.2159945 C15.0748201,22.4495126 14.9299369,22.6513604 14.7261261,22.7747748 L14.1711712,23.1936937 C13.8311231,23.5334837 13.2823904,23.5334837 12.9423423,23.1936937 C12.6188443,22.8834504 12.2338564,22.6455192 11.8126126,22.4954955 C11.085177,22.2072343 10.256655,22.4740829 9.83063063,23.1338481 C9.58568197,23.4773462 9.40439321,23.8625521 9.2954955,24.2709138 C9.17297355,24.6734527 8.77831499,24.9269982 8.36396396,24.8693694 L7.43243243,24.7496782 C7.04187487,24.6781511 6.74859425,24.3501677 6.71891892,23.9517375 C6.71259609,23.4689284 6.60450772,22.9929711 6.4018018,22.5553411 C6.06632531,21.7901119 5.21134204,21.4028711 4.41981982,21.6576577 C4.04635375,21.7608187 3.68179937,21.8942447 3.32972973,22.0566281 C2.96329259,22.2454689 2.51658166,22.1637214 2.23963964,21.8571429 C2.04144144,21.5978121 1.84324324,21.3584299 1.66486486,21.0791506 C1.57511228,20.92347 1.50834662,20.755472 1.46666667,20.5804376 L1.8036036,20.6003861 Z M9.21621622,13.1196911 C8.04405616,13.1116103 6.98284277,13.8160678 6.52870243,14.9037238 C6.07456208,15.9913797 6.31721807,17.2473488 7.14322664,18.0844546 C7.96923521,18.9215605 9.21540405,19.1744184 10.2991385,18.7248151 C11.382873,18.2752118 12.0900901,17.2119742 12.0900901,16.032175 C12.0901628,15.2527737 11.779857,14.505861 11.2285804,13.9585028 C10.6773039,13.4111446 9.93105703,13.1090144 9.15675676,13.1196911 L9.21621622,13.1196911 Z" id="Shape"></path>
                    <path d="M23.7243243,12.1422136 C23.7338882,12.2550503 23.7338882,12.3685018 23.7243243,12.4813385 C23.7113508,12.76606 23.5067145,13.0049795 23.2288288,13.0598456 L22.6342342,13.2194337 C22.3132451,13.3073693 21.9765285,13.1463903 21.8414414,12.8404118 C21.7027027,12.6010296 21.563964,12.3616474 21.4054054,12.1422136 C21.1943526,11.8594299 20.8762065,11.6774359 20.5268212,11.6396237 C20.177436,11.6018114 19.8281211,11.7115694 19.5621622,11.9427284 C19.3632752,12.0925977 19.1776021,12.2594538 19.0072072,12.4414414 C18.793956,12.6891229 18.435247,12.7478966 18.154955,12.5810811 L17.6792793,12.3018018 C17.3346025,12.1314444 17.1856952,11.7170862 17.3423423,11.3642214 C17.4395242,11.0875734 17.4995153,10.7990882 17.5207207,10.506435 C17.5673061,9.84423636 17.086172,9.26312633 16.4306306,9.18983269 C16.1204322,9.17001662 15.8092975,9.17001662 15.4990991,9.18983269 C15.1784017,9.18115332 14.914645,8.93281095 14.8846847,8.61132561 C14.8567106,8.44248747 14.8169729,8.27583864 14.7657658,8.11261261 C14.665037,7.77781878 14.8260101,7.41967303 15.1423423,7.27477477 C15.4396532,7.13090643 15.7136249,6.94258885 15.954955,6.71621622 C16.4013351,6.3116438 16.4778622,5.6355442 16.1333333,5.14028314 C15.972364,4.92526842 15.8003585,4.71885315 15.618018,4.52187902 C15.4496601,4.41382302 15.3357289,4.23798916 15.3053668,4.03935402 C15.2750047,3.84071888 15.3311566,3.63854846 15.4594595,3.48455598 L15.6972973,3.04568855 C15.8771013,2.7454371 16.2502407,2.62593998 16.5693694,2.76640927 C16.907136,2.90927378 17.2752272,2.96415992 17.6396396,2.92599743 C18.1531784,2.91236915 18.5929248,2.55173057 18.7099099,2.04826255 C18.7830631,1.72107123 18.8163413,1.38612868 18.809009,1.05083655 C18.7813604,0.735053276 18.9685527,0.440154178 19.2648649,0.332689833 L19.9585586,0.173101673 C20.2861211,0.0816960542 20.6270407,0.266460159 20.7315315,0.592020592 C20.8850236,0.950217309 21.1231627,1.26523258 21.4252252,1.50965251 C21.8830594,1.89875831 22.5529767,1.89875831 23.0108108,1.50965251 C23.1896795,1.37241952 23.3555514,1.21882645 23.5063063,1.05083655 C23.7197296,0.79345634 24.0816852,0.71893922 24.3783784,0.871299871 L24.9531532,1.21042471 C25.2280118,1.38153897 25.3374893,1.72905638 25.2108108,2.02831403 C25.0846798,2.35211284 25.0240355,2.69799536 25.0324324,3.04568855 C25.035905,3.66774008 25.4909924,4.19364069 26.1027027,4.28249678 L26.9351351,4.28249678 C27.2831027,4.24670241 27.5974643,4.49279359 27.6486486,4.84105534 C27.6486486,5.04054054 27.7477477,5.24002574 27.7873874,5.43951094 C27.8791913,5.74740816 27.71292,6.07330221 27.4108108,6.17760618 C27.0887425,6.3157665 26.7985719,6.51952566 26.5585586,6.77606178 C26.1725141,7.15215111 26.0907587,7.7446126 26.3603604,8.21235521 C26.5319507,8.49056 26.7384573,8.74534083 26.9747748,8.97039897 C27.2664012,9.19985827 27.3352571,9.61567613 27.1333333,9.92792793 L26.8558559,10.3867439 C26.7792336,10.5475767 26.6410485,10.6702313 26.4729267,10.7266358 C26.304805,10.7830403 26.1211389,10.7683661 25.963964,10.6859717 C25.5388211,10.5472386 25.0809987,10.5472386 24.6558559,10.6859717 C24.2163325,10.8198055 23.8876196,11.1891234 23.8036036,11.6435006 C23.7830303,11.8691097 23.7830303,12.0961412 23.8036036,12.3217503 L23.7243243,12.1422136 Z M21.2666667,4.48198198 C20.6902771,4.47665944 20.1356756,4.70339432 19.7262326,5.11174961 C19.3167897,5.52010491 19.0864622,6.07621392 19.0864865,6.65637066 C19.0784538,7.54566788 19.6045144,8.35190491 20.418523,8.69784094 C21.2325315,9.04377698 22.173498,8.86099479 22.8011414,8.23501871 C23.4287848,7.60904263 23.6189733,6.66367463 23.2827171,5.84125531 C22.946461,5.01883599 22.150263,4.48201873 21.2666667,4.48198198 Z" id="Shape"></path>
                </g>
                <circle id="Oval" fill="#473F47" cx="61.7117117" cy="171.621622" r="9.45945946"></circle>
                <path d="M62.1621622,160.466904 L62.1621622,172.072072 L72.0720721,164.703393 C72.0720721,164.703393 67.4967699,159.563388 62.1621622,160.466904 Z" id="Path" fill="#FFFFFF"></path>
                <polygon id="Path" fill="#DDDDDD" points="128.114368 203.603604 115.315315 207.067908 119.744972 215.315315 128.828829 212.854872"></polygon>
                <polygon id="Path" fill="url(#linearGradient-7)" points="128.114368 203.603604 115.315315 207.067908 119.744972 215.315315 128.828829 212.854872"></polygon>
                <path d="M107.259999,186.486486 C107.147171,187.193905 107.215848,187.917896 107.45977,188.592465 C108.173924,191.763777 109.444931,194.787786 111.21547,197.528114 C113.99229,201.464523 118.327326,203.924779 122.522523,206.306306 C122.162934,206.011076 122.222866,203.826369 122.162934,203.334317 L121.863277,200.421375 C121.607809,198.883073 120.999748,197.422397 120.085313,196.150371 C118.255181,193.183225 115.735398,190.687169 112.733731,188.868014 C111.032514,187.823382 109.189611,187.021567 107.259999,186.486486 L107.259999,186.486486 Z" id="Path" fill="#DDDDDD"></path>
                <path d="M107.259999,186.486486 C107.147171,187.193905 107.215848,187.917896 107.45977,188.592465 C108.173924,191.763777 109.444931,194.787786 111.21547,197.528114 C113.99229,201.464523 118.327326,203.924779 122.522523,206.306306 C122.162934,206.011076 122.222866,203.826369 122.162934,203.334317 L121.863277,200.421375 C121.607809,198.883073 120.999748,197.422397 120.085313,196.150371 C118.255181,193.183225 115.735398,190.687169 112.733731,188.868014 C111.032514,187.823382 109.189611,187.021567 107.259999,186.486486 L107.259999,186.486486 Z" id="Path" fill="url(#linearGradient-8)"></path>
                <path d="M124.846507,192.413862 C125.26448,189.758673 125.336863,187.058291 125.061756,184.383548 C124.751021,181.661651 123.399676,179.177673 121.304685,177.477477 L118.232497,188.559311 C117.531955,190.66137 117.155629,192.862761 117.117117,195.083942 C117.445391,199.506202 119.576991,203.581138 122.98754,206.306306 C123.965944,204.720319 123.750695,201.869558 123.965944,200.002509 L124.846507,192.413862 Z" id="Path" fill="#DDDDDD"></path>
                <path d="M124.846507,192.413862 C125.26448,189.758673 125.336863,187.058291 125.061756,184.383548 C124.751021,181.661651 123.399676,179.177673 121.304685,177.477477 L118.232497,188.559311 C117.531955,190.66137 117.155629,192.862761 117.117117,195.083942 C117.445391,199.506202 119.576991,203.581138 122.98754,206.306306 C123.965944,204.720319 123.750695,201.869558 123.965944,200.002509 L124.846507,192.413862 Z" id="Path" fill="url(#linearGradient-9)"></path>
                <path d="M113.108139,202.086071 L129.208954,202.077365 C129.791614,202.07705 130.264209,202.549135 130.264524,203.131795 C130.264524,203.132175 130.264524,203.132555 130.264524,203.132935 L130.263382,205.248261 C130.263068,205.830476 129.791168,206.302377 129.208953,206.302692 L113.108138,206.311397 C112.525478,206.311712 112.052883,205.839628 112.052568,205.256968 C112.052568,205.256588 112.052568,205.256208 112.052568,205.255828 L112.05371,203.140501 C112.054024,202.558286 112.525924,202.086386 113.108139,202.086071 Z" id="Rectangle" fill="#DDDDDD" transform="translate(121.158546, 204.194381) rotate(-15.730000) translate(-121.158546, -204.194381) "></path>
            </g>
        </g>
    </g>
</svg>