<?xml version="1.0" encoding="UTF-8"?>
<svg width="300px" height="267px" viewBox="0 0 300 267" version="1.1" xmlns="http://www.w3.org/2000/svg" xmlns:xlink="http://www.w3.org/1999/xlink">
    <title>Illustration 07</title>
    <defs>
        <linearGradient x1="50%" y1="-249.103586%" x2="50%" y2="136.055777%" id="linearGradient-1">
            <stop stop-color="#000000" offset="1%"></stop>
            <stop stop-color="#000000" stop-opacity="0.69" offset="8%"></stop>
            <stop stop-color="#000000" stop-opacity="0.32" offset="21%"></stop>
            <stop stop-color="#000000" stop-opacity="0" offset="100%"></stop>
        </linearGradient>
        <linearGradient x1="57.0039094%" y1="143.697236%" x2="58.8484553%" y2="-141.640811%" id="linearGradient-2">
            <stop stop-color="#000000" offset="1%"></stop>
            <stop stop-color="#000000" stop-opacity="0.69" offset="8%"></stop>
            <stop stop-color="#000000" stop-opacity="0.32" offset="21%"></stop>
            <stop stop-color="#000000" stop-opacity="0" offset="100%"></stop>
        </linearGradient>
        <linearGradient x1="65.4611365%" y1="149.183147%" x2="69.3327978%" y2="-253.267412%" id="linearGradient-3">
            <stop stop-color="#000000" offset="1%"></stop>
            <stop stop-color="#000000" stop-opacity="0.69" offset="8%"></stop>
            <stop stop-color="#000000" stop-opacity="0.32" offset="21%"></stop>
            <stop stop-color="#000000" stop-opacity="0" offset="100%"></stop>
        </linearGradient>
        <linearGradient x1="85.6884925%" y1="169.071827%" x2="94.6089661%" y2="-438.848803%" id="linearGradient-4">
            <stop stop-color="#000000" offset="1%"></stop>
            <stop stop-color="#000000" stop-opacity="0.69" offset="8%"></stop>
            <stop stop-color="#000000" stop-opacity="0.32" offset="21%"></stop>
            <stop stop-color="#000000" stop-opacity="0" offset="100%"></stop>
        </linearGradient>
        <linearGradient x1="-52.2183964%" y1="20.7045401%" x2="103.957246%" y2="66.4220405%" id="linearGradient-5">
            <stop stop-color="#000000" offset="1%"></stop>
            <stop stop-color="#000000" stop-opacity="0.69" offset="8%"></stop>
            <stop stop-color="#000000" stop-opacity="0.32" offset="21%"></stop>
            <stop stop-color="#000000" stop-opacity="0" offset="100%"></stop>
        </linearGradient>
        <linearGradient x1="45.8485021%" y1="155.909091%" x2="52.2179236%" y2="-7%" id="linearGradient-6">
            <stop stop-color="#000000" offset="1%"></stop>
            <stop stop-color="#000000" stop-opacity="0.69" offset="8%"></stop>
            <stop stop-color="#000000" stop-opacity="0.32" offset="21%"></stop>
            <stop stop-color="#000000" stop-opacity="0" offset="100%"></stop>
        </linearGradient>
        <linearGradient x1="106.15395%" y1="-38.0825684%" x2="44.934901%" y2="63.5287255%" id="linearGradient-7">
            <stop stop-color="#000000" offset="1%"></stop>
            <stop stop-color="#000000" stop-opacity="0.69" offset="8%"></stop>
            <stop stop-color="#000000" stop-opacity="0.32" offset="21%"></stop>
            <stop stop-color="#000000" stop-opacity="0" offset="100%"></stop>
        </linearGradient>
        <linearGradient x1="-80.7397761%" y1="40.891421%" x2="83.7057685%" y2="52.6452353%" id="linearGradient-8">
            <stop stop-color="#000000" offset="1%"></stop>
            <stop stop-color="#000000" stop-opacity="0.69" offset="8%"></stop>
            <stop stop-color="#000000" stop-opacity="0.32" offset="21%"></stop>
            <stop stop-color="#000000" stop-opacity="0" offset="100%"></stop>
        </linearGradient>
    </defs>
    <g id="DESIGN-SYSTEM" stroke="none" stroke-width="1" fill="none" fill-rule="evenodd">
        <g id="Illustrations" transform="translate(-130.000000, -1193.000000)" fill-rule="nonzero">
            <g id="Illustration-07" transform="translate(130.000000, 1193.000000)">
                <path d="M251.626062,52.3427762 C244.878187,37.1983003 234.84136,23.082153 220.886686,14.1501416 C209.889518,7.14730878 196.997167,3.58640227 184.104816,1.52974504 C174.288952,-0.0424929178 164.175637,-0.807365439 154.453258,1.24929178 C132.356941,5.93201133 115.810198,24.2549575 103.461756,43.1728045 C91.1133144,62.0906516 80.9405099,82.9716714 64.1813031,98.1246459 C53.9830028,107.33711 41.796034,113.991501 30.5609065,121.92068 C19.325779,129.849858 8.65155807,139.512748 3.60339943,152.294618 C-1.30878187,164.728045 -0.35694051,178.640227 1.54674221,191.88102 C3.85835694,208.028329 7.79320113,224.634561 18.3569405,237.033994 C33.8328612,255.203966 59.5665722,260.056657 83.2521246,263.014164 C96.101983,264.611898 109.036827,265.997167 121.971671,265.402266 C144.322946,264.365439 165.968839,257.464589 188.133144,254.354108 C215.124646,250.580737 245.124646,251.609065 266.065156,234.161473 C276.654391,225.339943 283.419263,212.787535 288.926346,200.167139 C297.611898,180.246459 303.832861,157.572238 296.88102,136.997167 C291.339943,120.594901 279.033994,111.110482 268.070822,98.796034 C263.141643,93.2804533 262.606232,85.878187 260.711048,78.8498584 C258.372478,69.7926028 255.335043,60.93034 251.626062,52.3427762 Z" id="Path" fill="#DDDDDD" opacity="0.18"></path>
                <ellipse id="Oval" fill="url(#linearGradient-1)" cx="142.478754" cy="222.450425" rx="126.679887" ry="12.7988669"></ellipse>
                <path d="M194.03966,66.8838527 C194.565671,67.3192953 195.194934,67.6119756 195.866856,67.733711 C196.486593,67.7594707 197.104457,67.6492415 197.677054,67.4107649 L206.430595,64.4957507 C207.797742,65.5672498 208.112179,67.5093605 207.152975,68.9575071 C206.298254,69.9097383 205.180277,70.5870313 203.94051,70.9036827 L197.932011,73.0623229 C195.122931,74.3820962 191.867583,74.3602273 189.076487,73.0028329 C187.283286,72.407932 185.320113,71.6685552 184.461756,69.9858357 C183.603399,68.3031161 184.223796,66.0679887 183.968839,64.0963173 C183.798867,62.8130312 183.229462,61.5467422 183.263456,60.2889518 C183.263456,59.184136 184.164306,57.5184136 185.490085,57.7393768 C186.628895,57.9348442 187.385269,59.9150142 187.988669,60.7478754 C189.674661,63.0951243 191.716153,65.1652887 194.03966,66.8838527 L194.03966,66.8838527 Z" id="Path" fill="#FFFFFF"></path>
                <path d="M207.569405,64.01983 C207.668771,63.7865944 207.809896,63.5734664 207.985836,63.3909348 C208.168254,63.2075953 208.44245,63.1507498 208.68272,63.2464589 C208.918663,63.391044 209.048273,63.6602338 209.014164,63.9348442 C209.001292,64.0269754 209.022442,64.1206398 209.073654,64.1983003 C209.159324,64.2408042 209.25994,64.2408042 209.345609,64.1983003 C210.348442,64.0113314 211.351275,63.8583569 212.362606,63.7563739 C212.444541,63.7479031 212.527131,63.7479031 212.609065,63.7563739 C212.781143,63.808848 212.924503,63.9290076 213.006237,64.0892697 C213.08797,64.2495317 213.101057,64.4361308 213.042493,64.6062323 L213.042493,64.6062323 C212.93268,64.9393916 212.769041,65.2523156 212.558074,65.5325779 C212.03966,66.3824363 211.852691,67.4872521 211.028329,68.0311615 C210.515453,68.3309678 209.918082,68.453429 209.328612,68.3796034 C208.750708,68.3796034 208.181303,68.2436261 207.628895,68.2691218 C207.246417,68.3537245 206.846816,68.3119751 206.490085,68.1501416 C206.226333,67.9496702 206.079747,67.6310061 206.09915,67.3002833 C206.159316,66.7787781 206.346037,66.2798824 206.643059,65.8470255 C206.932011,65.2521246 207.229462,64.6402266 207.569405,64.01983 Z" id="Path" fill="#FDB9A9"></path>
                <path d="M183.101983,129.951841 C186.458924,129.195467 185.804533,133.954674 186.688385,135.713881 C187.240053,136.616112 187.937964,137.420289 188.753541,138.093484 C189.57982,138.77195 190.119981,139.736956 190.266289,140.796034 C190.282258,140.993331 190.240944,141.191044 190.147309,141.365439 C189.983678,141.577918 189.747839,141.72305 189.484419,141.773371 C187.567127,142.326044 185.51088,142.122245 183.739377,141.203966 C182.914802,140.80492 182.228228,140.168654 181.767705,139.376771 C181.404742,138.520275 181.230815,137.59556 181.25779,136.665722 C181.223796,134.685552 180.305949,130.580737 183.101983,129.951841 Z" id="Path" fill="#FDB9A9"></path>
                <path d="M186.067989,139.725212 C186.067989,139.725212 195.620397,140.133144 191.575071,143.124646 C187.529745,146.116147 181.495751,142.393768 180.909348,141.705382 C180.322946,141.016997 180.798867,139.852691 180.798867,139.852691 L186.067989,139.725212 Z" id="Path" fill="#DDDDDD"></path>
                <path d="M181.325779,141.05949 C182.175637,142.096317 186.66289,143.490085 188.643059,143.354108 C190.623229,143.21813 192.407932,142.283286 192.212465,141 C192.016997,139.716714 188.515581,136.750708 187.852691,136.750708 C187.189802,136.750708 186.671388,138.280453 185.303116,138.594901 C184.099315,138.792614 182.878632,138.355739 182.073654,137.439093 C181.833337,137.085114 181.367342,136.964975 180.985836,137.15864 C180.457611,138.436768 180.584429,139.892001 181.325779,141.05949 L181.325779,141.05949 Z" id="Path" fill="#FFFFFF"></path>
                <path d="M171.594901,131.830028 C174.994334,131.056657 174.29745,135.807365 175.181303,137.575071 C175.731166,138.481158 176.432582,139.286062 177.254958,139.954674 C178.078068,140.634573 178.615091,141.599395 178.759207,142.657224 C178.779937,142.854791 178.738333,143.053893 178.640227,143.226629 C178.478505,143.43968 178.241266,143.582632 177.977337,143.626062 C176.061534,144.185772 174.003658,143.984856 172.232295,143.065156 C171.40772,142.66611 170.721145,142.029844 170.260623,141.23796 C169.896371,140.382081 169.725173,139.456456 169.759207,138.526912 C169.68272,136.521246 168.798867,132.424929 171.594901,131.830028 Z" id="Path" fill="#FDB9A9"></path>
                <path d="M174.569405,141.577904 C174.569405,141.577904 184.113314,141.977337 180.067989,144.977337 C176.022663,147.977337 169.988669,144.246459 169.402266,143.566572 C168.815864,142.886686 169.291785,141.705382 169.291785,141.705382 L174.569405,141.577904 Z" id="Path" fill="#DDDDDD"></path>
                <path d="M169.818697,142.878187 C170.668555,143.923513 175.155807,145.308782 177.135977,145.172805 C179.116147,145.036827 180.90085,144.101983 180.705382,142.818697 C180.509915,141.535411 177.008499,138.569405 176.354108,138.569405 C175.699717,138.569405 175.164306,140.09915 173.804533,140.413598 C172.600731,140.611311 171.380049,140.174435 170.575071,139.25779 C170.335504,138.908333 169.875135,138.788709 169.495751,138.977337 C168.962466,140.252741 169.082932,141.707846 169.818697,142.878187 L169.818697,142.878187 Z" id="Path" fill="#FFFFFF"></path>
                <path d="M180.246459,88.5382436 L175.759207,135.730878 L169.300283,134.932011 C166.750708,123.416431 167.371105,88.9631728 167.371105,88.9631728 L180.246459,88.5382436 Z" id="Path" fill="#473F47"></path>
                <path d="M175.759207,87.2634561 L180.246459,134.456091 L186.72238,133.657224 C190.419263,103.793201 187.376771,85.2152975 187.376771,85.2152975 L175.759207,87.2634561 Z" id="Path" fill="#473F47"></path>
                <path d="M186.807365,70.1898017 C186.883853,69.3399433 187.113314,68.490085 187.206799,67.5892351 C187.419461,65.8083486 187.385142,64.0066238 187.104816,62.2351275 C186.796321,60.3485854 186.22415,58.5147776 185.405099,56.7875354 C184.657224,55.2832861 183.305949,54.6458924 181.793201,53.9065156 C180.524491,53.2175804 179.147971,52.7491615 177.72238,52.5212465 C176.716663,52.4286201 175.702765,52.4859024 174.713881,52.6912181 C171.671388,53.2691218 167.651558,54.8413598 165.569405,57.2464589 C164.005666,59.0481586 163.869688,61.631728 163.776204,64.0453258 C163.708215,67.3427762 163.776204,70.6373938 163.98017,73.9291785 C163.98017,74.4135977 164.03966,74.8895184 164.073654,75.3654391 C164.243923,79.017635 164.787838,82.6427856 165.696884,86.184136 C166.01983,87.2804533 166.359773,88.3767705 167.396601,88.9631728 C169.784703,90.3484419 173.430595,89.592068 176.005666,89.2266289 C179.405099,88.7422096 182.932011,88.2407932 185.957507,86.5835694 C186.593671,86.3118024 187.107826,85.8157943 187.402266,85.1898017 C187.550252,84.4135935 187.449118,83.6104708 187.113314,82.8951841 C186.084986,79.4957507 186.883853,75.9773371 186.883853,72.5354108 C186.883853,71.9150142 186.807365,71.2776204 186.807365,70.6487252 C186.794595,70.4960172 186.794595,70.3425097 186.807365,70.1898017 L186.807365,70.1898017 Z" id="Path" fill="#FFFFFF"></path>
                <path d="M177.254958,86.0396601 C177.281023,85.6747032 177.188626,85.3110773 176.991501,85.0028329 C176.609065,84.5269122 175.869688,84.6288952 175.291785,84.7818697 L171.441926,85.733711 C169.997167,86.0906516 167.76204,87.5184136 167.388102,88.9631728 C165.909348,87.9263456 165.526912,86.184136 165.254958,84.3994334 C164.983003,82.6147309 164.966006,79.1388102 164.643059,77.3626062 C166.508601,78.7052719 168.728677,79.4679612 171.025496,79.5552408 C173.209632,79.6062323 175.954674,79.5552408 176.745042,77.1671388 C177.654391,74.4135977 177.977337,71.5240793 178.580737,68.6685552 C178.595955,68.5321576 178.65922,68.4056282 178.759207,68.3116147 C178.859112,68.2448374 178.980271,68.2175766 179.09915,68.2351275 L187.402266,68.3286119 C187.530766,68.3170683 187.659992,68.3405639 187.776204,68.3966006 C188.022663,68.5410765 188.022663,68.8895184 187.98017,69.1614731 C187.668146,71.037772 186.727068,72.752093 185.311615,74.0226629 C184.665618,74.4497622 184.216123,75.1163608 184.062323,75.8753541 C183.909348,76.9121813 183.951841,78.0169972 183.84136,79.0623229 C183.661859,81.2766155 183.178574,83.4556855 182.405099,85.5382436 C181.223796,88.5382436 177.475921,90.8498584 177.254958,86.0396601 Z" id="Path" fill="#020202" opacity="0.1"></path>
                <polygon id="Path" fill="#DDDDDD" points="179.515581 88.427762 191.872521 88.427762 193.402266 69.2209632 181.045326 69.2209632"></polygon>
                <path d="M180.229462,47.7790368 C180.222752,46.8759892 180.168854,45.9739092 180.067989,45.0764873 C179.974504,44.2266289 179.855524,43.4957507 179.70255,42.7223796 C179.685853,42.2540486 179.465459,41.8163647 179.09915,41.5240793 C177.886516,40.7854072 176.490624,40.4025676 175.070822,40.4192635 C173.985704,40.3499868 172.920601,40.7347785 172.130312,41.4815864 C171.628524,42.091425 171.331214,42.8436178 171.280453,43.631728 C171.05949,45.611898 171.577904,47.5835694 171.866856,49.5807365 C172.090522,51.1081334 172.170192,52.653166 172.104816,54.1954674 C172.852937,54.6779558 173.707901,54.9697525 174.594901,55.0453258 C175.011442,55.0390319 175.424409,54.9673363 175.818697,54.8328612 C176.021777,54.8291167 176.209763,54.7248446 176.320458,54.5545445 C176.431154,54.3842443 176.450128,54.1701146 176.371105,53.9830028 C176.362608,53.8216415 176.362608,53.6599449 176.371105,53.4985836 L176.371105,53.4985836 C176.303075,52.5953006 176.320148,51.6876213 176.422096,50.7875354 C176.421705,50.7124654 176.448928,50.6398717 176.498584,50.5835694 C176.559743,50.5665364 176.624393,50.5665364 176.685552,50.5835694 L176.94051,50.5835694 C177.389934,50.6260409 177.842361,50.6260409 178.291785,50.5835694 C178.829113,50.5257025 179.327278,50.2751104 179.694051,49.878187 C180.142163,49.276362 180.334579,48.521969 180.229462,47.7790368 Z" id="Path" fill="#FDB9A9"></path>
                <path d="M178.402266,41.9915014 C178.725212,42.0509915 178.997167,42.1614731 179.252125,41.9915014 C179.538716,41.7433537 179.790304,41.4574586 180,41.1416431 C180.500807,40.4692504 180.747658,39.6413966 180.696884,38.8045326 C180.689102,38.4274443 180.577346,38.0598274 180.373938,37.7422096 C180.145761,37.4647757 179.854305,37.2461841 179.524079,37.1048159 C178.8739,36.7906198 178.154375,36.6472998 177.433428,36.6883853 C176.383432,36.8251392 175.404184,37.2924402 174.637394,38.0226629 C174.476281,38.1943915 174.278838,38.3279563 174.05949,38.4135977 C173.857729,38.45601 173.649353,38.45601 173.447592,38.4135977 C172.114135,38.2984052 170.78821,38.706851 169.750708,39.5524079 C169.217758,40.1276301 168.650126,40.6697185 168.050992,41.1756374 C167.388102,41.6260623 166.844193,41.8045326 166.521246,42.3739377 C166.255904,42.9300723 166.328331,43.5884947 166.708215,44.0736544 C167.105969,44.5235053 167.645878,44.8234547 168.23796,44.9235127 C167.966627,45.6275369 168.316404,46.4183374 169.01983,46.6912181 L169.087819,46.6912181 C169.329367,46.7250293 169.562679,46.8027999 169.776204,46.9206799 C169.92068,47.0311615 169.988669,47.2096317 170.133144,47.3286119 C170.481586,47.6090652 170.932011,47.7110482 171.076487,48.1784703 C171.117725,48.3855228 171.137659,48.5962529 171.135977,48.8073654 C171.158352,49.1221743 171.283796,49.4208488 171.492918,49.6572238 C171.628895,49.8016997 171.866856,50.1756374 172.070822,50.2096317 C172.274788,50.2436261 172.444759,50.0141643 172.512748,49.8101983 C172.758047,48.9141467 172.692133,47.9613847 172.325779,47.1076487 C172.070582,46.6906274 171.919041,46.2185198 171.883853,45.7308782 C171.934844,45.2549575 172.589235,44.8810198 172.903683,45.1529745 C173.21813,45.4249292 173.27762,46.1303116 173.660057,46.0028329 C173.172031,44.595277 173.790839,43.0428283 175.113314,42.3569405 C175.820753,42.1407914 176.55785,42.0375406 177.29745,42.0509915 C177.650448,41.9815389 178.008638,41.94174 178.368272,41.9320113 L178.402266,41.9915014 Z" id="Path" fill="#473F47"></path>
                <path d="M176.974504,50.5580737 C175.928479,50.3585553 174.905998,50.0509567 173.923513,49.6402266 C173.743722,51.3502983 174.785969,52.9526645 176.422096,53.4815864 L176.422096,53.4815864 C176.361183,52.5779346 176.381092,51.6706482 176.481586,50.7705382 C176.479497,50.6951747 176.506945,50.6219789 176.558074,50.5665722 C176.617786,50.5410627 176.68533,50.5410627 176.745042,50.5665722 L176.974504,50.5665722 L176.974504,50.5580737 Z" id="Path" fill="#DE9F93"></path>
                <path d="M161.677054,68.5580737 L160.206799,75 C159.657637,76.5757207 160.186102,78.3258325 161.515581,79.3342776 C162.350713,80.4466022 163.403169,81.377621 164.609065,82.0708215 C165.448345,82.4426816 166.339755,82.6834482 167.252125,82.7847025 C169.655739,83.1512203 172.089108,83.2849845 174.518414,83.184136 C174.711335,83.1902478 174.903127,83.1524708 175.07932,83.0736544 C175.255036,82.9660929 175.398808,82.8135186 175.495751,82.631728 C176.352114,81.3492018 177.086211,79.9891297 177.688385,78.5694051 C175.739041,77.2551318 173.597357,76.2516654 171.339943,75.5949008 C170.884767,75.5086876 170.461683,75.3000837 170.116147,74.9915014 C169.884667,74.7074955 169.732226,74.3674363 169.674221,74.0056657 C168.72238,69.8838527 170.932011,65.2946176 169.155807,61.4532578 C168.152975,59.2691218 166.002833,56.9150142 164.422096,59.8470255 C162.985836,62.5155807 162.348442,65.6260623 161.677054,68.5580737 Z" id="Path" fill="#FFFFFF"></path>
                <path d="M179.371105,78.6203966 C179.637462,78.4163713 179.921935,78.2371535 180.220963,78.0849858 C180.517635,77.9232611 180.876133,77.9232611 181.172805,78.0849858 C181.308782,78.1784703 181.410765,78.3314448 181.563739,78.3824363 C181.669865,78.4080444 181.78056,78.4080444 181.886686,78.3824363 L183.849858,78.1869688 C184.164208,78.1090567 184.496918,78.1812484 184.750708,78.3824363 C185.005666,78.6798867 184.852691,79.1303116 184.68272,79.470255 C184.171073,80.4948967 183.60365,81.4907246 182.983003,82.4532578 C182.865409,82.647001 182.722506,82.8241998 182.558074,82.98017 C182.331399,83.1504069 182.070409,83.2693025 181.793201,83.3286119 C180.780579,83.5632682 179.723302,83.519215 178.733711,83.2011331 C177.750916,82.8795468 176.835062,82.3812992 176.031161,81.7308782 C175.909115,81.6511543 175.804936,81.5469758 175.725212,81.4249292 C175.646726,81.2807438 175.600341,81.121294 175.589235,80.9575071 C175.495751,80.2011331 175.733711,78.9688385 176.719547,79.0283286 C177.623912,79.2064237 178.562091,79.0620884 179.371105,78.6203966 Z" id="Path" fill="#FDB9A9"></path>
                <rect id="Rectangle" fill="#DDDDDD" x="220.368272" y="104.668555" width="41.7025496" height="117.78187"></rect>
                <rect id="Rectangle" fill="#DDDDDD" x="154.274788" y="143.379603" width="41.7025496" height="79.0708215"></rect>
                <rect id="Rectangle" fill="#DDDDDD" x="91.5807365" y="170.626062" width="41.7025496" height="51.8243626"></rect>
                <rect id="Rectangle" fill="url(#linearGradient-2)" x="220.368272" y="104.668555" width="41.7025496" height="117.78187"></rect>
                <rect id="Rectangle" fill="url(#linearGradient-3)" x="154.274788" y="143.379603" width="41.7025496" height="79.0708215"></rect>
                <rect id="Rectangle" fill="url(#linearGradient-4)" x="91.5807365" y="170.626062" width="41.7025496" height="51.8243626"></rect>
                <path d="M57.203966,136.096317 C59.2521246,133.68272 62.082153,134.932011 64.3342776,136.283286 C65.5495751,137.005666 66.4929178,138.322946 67.5637394,139.274788 C68.8270976,140.402868 70.1736883,141.434118 71.592068,142.359773 C71.8908613,142.564515 72.2064332,142.743624 72.5354108,142.895184 C73.1837781,143.150078 73.864581,143.313127 74.5580737,143.379603 L79.1983003,144.025496 C80.6630958,144.300129 82.158747,144.371623 83.6430595,144.23796 C84.475233,144.02594 85.3359769,143.948473 86.1926346,144.008499 C87.4249292,144.229462 87.713881,145.1983 87.8328612,146.27762 C87.9518414,147.356941 88.0623229,147.577904 87.1189802,147.977337 C85.8346566,148.303051 84.5232542,148.510713 83.2011331,148.597734 C81.9773371,148.818697 80.7535411,149.065156 79.5467422,149.379603 C78.4117093,149.726995 77.2441885,149.957651 76.0623229,150.067989 C73.427762,150.195467 70.9631728,148.895184 68.6515581,147.637394 L59.8810198,142.86119 C57.5694051,141.586402 55.0028329,138.705382 57.203966,136.096317 Z" id="Path" fill="#DDDDDD"></path>
                <path d="M57.203966,136.096317 C59.2521246,133.68272 62.082153,134.932011 64.3342776,136.283286 C65.5495751,137.005666 66.4929178,138.322946 67.5637394,139.274788 C68.8270976,140.402868 70.1736883,141.434118 71.592068,142.359773 C71.8908613,142.564515 72.2064332,142.743624 72.5354108,142.895184 C73.1837781,143.150078 73.864581,143.313127 74.5580737,143.379603 L79.1983003,144.025496 C80.6630958,144.300129 82.158747,144.371623 83.6430595,144.23796 C84.475233,144.02594 85.3359769,143.948473 86.1926346,144.008499 C87.4249292,144.229462 87.713881,145.1983 87.8328612,146.27762 C87.9518414,147.356941 88.0623229,147.577904 87.1189802,147.977337 C85.8346566,148.303051 84.5232542,148.510713 83.2011331,148.597734 C81.9773371,148.818697 80.7535411,149.065156 79.5467422,149.379603 C78.4117093,149.726995 77.2441885,149.957651 76.0623229,150.067989 C73.427762,150.195467 70.9631728,148.895184 68.6515581,147.637394 L59.8810198,142.86119 C57.5694051,141.586402 55.0028329,138.705382 57.203966,136.096317 Z" id="Path" fill="url(#linearGradient-5)"></path>
                <path d="M87.4844193,143.974504 C87.1869688,144.144476 86.7195467,144.161473 86.4645892,144.416431 C86.2096317,144.671388 86.2096317,145.334278 86.1586402,145.68272 C86.0996859,145.935186 86.1328386,146.200408 86.2521246,146.430595 C86.3376019,146.535935 86.4412129,146.625156 86.5580737,146.694051 C87.1861502,147.201317 87.9081587,147.579649 88.6827195,147.807365 C89.7455347,147.971231 90.8320772,147.754525 91.7507082,147.195467 C93.2044747,146.457003 94.3336142,145.206776 94.9206799,143.685552 C95.0481586,143.303116 95.082153,142.776204 94.7167139,142.589235 C94.4681186,142.513271 94.1996599,142.537676 93.9688385,142.657224 C92.630878,143.141237 91.2188504,143.388557 89.796034,143.388102 C89.9422002,143.049505 89.9632847,142.669984 89.8555241,142.31728 C88.8951841,142.572238 88.3087819,143.447592 87.4844193,143.974504 Z" id="Path" fill="#FCBDBA"></path>
                <path d="M96.9943343,139.206799 L96.9943343,154.504249 C96.9943343,155.439093 96.5439093,156.203966 95.9915014,156.203966 L82.3937677,156.203966 C81.8413598,156.203966 81.3994334,155.447592 81.3994334,154.504249 L81.3994334,139.206799 C81.3994334,138.271955 81.8413598,137.507082 82.3937677,137.507082 L95.9915014,137.507082 C96.5439093,137.515581 96.9943343,138.271955 96.9943343,139.206799 Z" id="Path" fill="#DDDDDD"></path>
                <path d="M96.9943343,139.206799 L96.9943343,154.504249 C96.9943343,155.439093 96.5439093,156.203966 95.9915014,156.203966 L82.3937677,156.203966 C81.8413598,156.203966 81.3994334,155.447592 81.3994334,154.504249 L81.3994334,139.206799 C81.3994334,138.271955 81.8413598,137.507082 82.3937677,137.507082 L95.9915014,137.507082 C96.5439093,137.515581 96.9943343,138.271955 96.9943343,139.206799 Z" id="Path" fill="url(#linearGradient-6)"></path>
                <path d="M42.6968839,177.773371 C42.6968839,177.773371 55.6827195,193.070822 57.9943343,196.07932 C60.305949,199.087819 60.3229462,216.892351 60.3229462,216.892351 L65.8130312,216.892351 C65.8130312,216.892351 65.9915014,199.240793 64.1133144,193.249292 C62.2351275,187.25779 52.1388102,168.203966 52.1388102,168.203966 L42.6968839,177.773371 Z" id="Path" fill="#473F47"></path>
                <path d="M36.4164306,171.169972 C36.4164306,171.169972 38.1161473,188.787535 38.7790368,193.385269 C39.4419263,197.983003 27.4589235,213.713881 27.4589235,213.713881 L32.1246459,216.212465 C32.1246459,216.212465 40.776204,206.260623 43.9461756,200.736544 C47.1161473,195.212465 53.2181303,170.524079 53.2181303,170.524079 C44.8555241,166.580737 36.4164306,171.169972 36.4164306,171.169972 Z" id="Path" fill="#473F47"></path>
                <path d="M64.4957507,144.824363 C63,148.130312 60.713881,150.875354 59.2606232,154.172805 C57.2124646,158.838527 54.2634561,162.917847 53.7535411,168.144476 C53.6345609,169.334278 53.5835694,170.694051 52.674221,171.475921 C52.2108256,171.831373 51.6735306,172.078238 51.101983,172.1983 C48.9015384,172.820495 46.6612094,173.291844 44.3966006,173.609065 C42.9949746,173.870843 41.5606443,173.908136 40.1473088,173.719547 C38.7060964,173.50947 37.4071023,172.736187 36.5354108,171.569405 C35.6983428,170.181731 35.4942335,168.502467 35.9745042,166.954674 C36.6968839,164.252125 38.4050992,162.29745 40.4022663,160.436261 C42.9518414,158.031161 44.0906516,153.382436 45.2124646,150.17847 C46.0028329,147.917847 46.7422096,145.640227 47.4985836,143.379603 C48.4164306,140.617564 49.9121813,139.062323 51.8753541,136.895184 C53.0647634,135.352126 54.5718718,134.082677 56.2946176,133.172805 C58.4254623,132.246859 60.880009,132.461175 62.8181374,133.742398 C64.7562659,135.023621 65.9151047,137.197977 65.8982034,139.521246 C65.8536624,140.549623 65.6707078,141.567308 65.3541076,142.546742 C65.123742,143.325807 64.836862,144.087034 64.4957507,144.824363 L64.4957507,144.824363 Z" id="Path" fill="#DDDDDD"></path>
                <path d="M65.4390935,117.577904 C63.8328612,115.98017 60.9263456,116.728045 59.0651558,117.331445 C58.5280895,117.467751 58.0130526,117.679488 57.5354108,117.96034 C56.8853788,118.410855 56.356926,119.015218 55.9971671,119.719547 C55.5557316,120.462411 55.2668154,121.285822 55.1473088,122.141643 C55.0110879,123.288477 55.1389957,124.451275 55.5212465,125.541076 C55.9449523,126.266403 56.2951332,127.032245 56.5665722,127.827195 C57.0509915,130.002833 57.5439093,132.17847 58.01983,134.362606 C58.0471279,134.557386 58.1297125,134.740252 58.2577904,134.889518 C58.3875056,134.984205 58.5399833,135.042851 58.6997167,135.05949 C59.817677,135.287045 60.9594788,135.375535 62.0991501,135.322946 C62.2951354,135.333303 62.4906648,135.295365 62.6685552,135.212465 C63.0336228,134.956271 63.2369993,134.526921 63.203966,134.082153 C63.2634561,133.427762 63.1529745,132.773371 63.203966,132.11898 C63.2121726,131.574429 63.4351512,131.055164 63.8243626,130.674221 C64.3359845,130.395063 64.8950681,130.213505 65.4730878,130.13881 C66.040678,129.985542 66.5477916,129.662294 66.9263456,129.212465 C67.9376771,127.895184 67.1728045,125.864023 68.0141643,124.410765 C68.202172,124.177775 68.3253049,123.89926 68.3711048,123.603399 C68.3711048,123.212465 68.0141643,122.923513 67.733711,122.643059 C66.3229462,121.215297 66.7648725,118.92068 65.4390935,117.577904 Z" id="Path" fill="#FCBDBA"></path>
                <path d="M59.5325779,125.515581 C59.2948094,125.224156 59.1158633,124.889354 59.0056657,124.529745 C58.8824863,124.151618 58.5507383,123.879584 58.1558074,123.832861 C57.8231058,123.870629 57.5435894,124.100232 57.4419263,124.419263 C57.2721635,124.930712 57.3473992,125.491844 57.6458924,125.94051 C57.9423406,126.382544 58.3000135,126.780277 58.7082153,127.121813 L58.1983003,128.405099 C58.1475431,128.561796 58.0698969,128.708461 57.9688385,128.838527 C57.8246192,128.977232 57.6454378,129.074166 57.4504249,129.11898 C56.6431655,129.248627 55.8270508,128.945407 55.3002833,128.320113 C54.7991295,127.695285 54.4108683,126.987787 54.1529745,126.229462 L53.3031161,124.028329 C52.8696884,122.966006 53.5410765,122.558074 53.4985836,121.563739 C53.4540483,121.40255 53.382184,121.250197 53.286119,121.113314 C52.8192742,120.14393 52.8192742,119.01471 53.286119,118.045326 C53.4408839,117.664053 53.692884,117.330006 54.0169972,117.076487 C54.2600143,116.916631 54.5267576,116.796166 54.8073654,116.719547 C56.1161473,116.294618 57.4844193,116.073654 58.8016997,115.699717 C60.1736481,115.225375 61.5692935,114.822567 62.9830028,114.492918 C64.415943,114.178938 65.9148863,114.441482 67.1558074,115.223796 C67.5740322,115.472944 67.843849,115.911 67.878187,116.396601 C67.8022206,116.810888 67.5898102,117.187841 67.2747875,117.467422 C66.0663398,118.810131 64.5059955,119.787554 62.7705382,120.288952 C61.9206799,120.535411 60.5439093,120.526912 60.0424929,121.427762 C59.4730878,122.464589 59.694051,124.351275 59.5325779,125.515581 Z" id="Path" fill="#FC682D"></path>
                <path d="M59.2096317,136.25779 C61.9716714,134.711048 64.1813031,136.869688 65.8215297,138.917847 C66.6713881,140.022663 67.1303116,141.594901 67.8016997,142.86119 C68.5916936,144.356816 69.4922118,145.791395 70.4957507,147.152975 C70.7010963,147.454973 70.931362,147.739252 71.184136,148.002833 C71.6925328,148.469694 72.2648565,148.861736 72.8838527,149.167139 L76.9971671,151.393768 C78.2761514,152.161857 79.6544318,152.750915 81.0934844,153.144476 C81.940698,153.237507 82.7672584,153.467107 83.5410765,153.824363 C84.6203966,154.461756 84.5524079,155.464589 84.2804533,156.518414 C84.0084986,157.572238 84.0509915,157.818697 83.0311615,157.835694 C81.7142006,157.67962 80.4123434,157.415269 79.1388102,157.045326 C77.9320113,156.824363 76.6912181,156.637394 75.4504249,156.501416 C74.2646079,156.427208 73.0889712,156.236487 71.9405099,155.932011 C69.3909348,155.082153 67.5807365,153.042493 65.8470255,151.053824 L59.3116147,143.507082 C57.6288952,141.518414 56.2351275,137.923513 59.2096317,136.25779 Z" id="Path" fill="#DDDDDD"></path>
                <path d="M84.815864,154.240793 C84.4759207,154.291785 84.0254958,154.13881 83.7025496,154.291785 C83.3796034,154.444759 83.1416431,155.065156 82.9716714,155.379603 C82.8278296,155.591179 82.7672915,155.848466 82.8016997,156.101983 C82.8434282,156.230664 82.9066447,156.35135 82.9886686,156.458924 C83.4027527,157.152745 83.9483803,157.758998 84.5949008,158.243626 C85.531423,158.770765 86.6246258,158.948448 87.6798867,158.745042 C89.3015768,158.568459 90.7988431,157.792548 91.878187,156.569405 C92.1331445,156.254958 92.3456091,155.770538 92.0736544,155.473088 C91.8700514,155.310793 91.609693,155.23728 91.3512748,155.269122 C89.9259654,155.255791 88.5138913,154.994083 87.1784703,154.495751 C87.433286,154.231013 87.5867364,153.884998 87.611898,153.518414 C86.6260623,153.407932 85.7677054,154.01983 84.815864,154.240793 Z" id="Path" fill="#FCBDBA"></path>
                <path d="M27.4759207,213.909314 C28.674221,213.909314 31.5637394,215.005666 32.1501416,216.093484 C32.3199848,216.496946 32.4066999,216.930522 32.4050992,217.368272 C32.5249572,218.648125 32.9222768,219.886486 33.5694051,220.997167 C34.0453258,221.847025 34.6487252,222.917847 34.0793201,223.631728 C33.509915,224.345609 32.3796034,224.073654 31.529745,223.691218 C28.5433028,222.286516 25.8521664,220.32513 23.6005666,217.912181 C23.5261706,217.86323 23.4625491,217.799608 23.4135977,217.725212 C23.1691185,217.354997 23.2505486,216.859013 23.6005666,216.586402 C24.5694051,215.456091 25.8866856,213.90085 27.4759207,213.909314 Z" id="Path" fill="#DDDDDD"></path>
                <path d="M60.5439093,216.552408 C61.5892351,215.949008 64.6572238,215.498584 65.7025496,216.152975 C66.0509277,216.415884 66.3404205,216.748801 66.5524079,217.130312 C67.2989349,218.166707 68.2542973,219.035219 69.3569405,219.679887 C70.2067989,220.155807 71.2521246,220.8017 71.1161473,221.711048 C70.98017,222.620397 69.8498584,222.943343 68.9405099,223.01983 C65.6402762,223.289299 62.3190403,222.919952 59.1586402,221.932011 C59.0614568,221.922812 58.9665848,221.896938 58.878187,221.855524 C58.6874992,221.762227 58.5417872,221.596869 58.4732226,221.395959 C58.4046579,221.195048 58.4188797,220.97511 58.5127479,220.784703 L58.5127479,220.784703 C58.776204,219.348442 59.1416431,217.342776 60.5439093,216.552408 Z" id="Path" fill="#DDDDDD"></path>
                <path d="M83.9320113,91.6827195 C84.79878,90.460321 86.0839786,89.5984819 87.5439093,89.2606232 C89.4028578,88.7392309 91.395816,89.0327673 93.0254958,90.0679887 C93.2284936,90.2523035 93.4907883,90.3578244 93.7648725,90.3654391 C93.9379643,90.3213714 94.0981486,90.2369106 94.2322946,90.1189802 C95.527328,89.2011079 97.1189014,88.8009409 98.694051,88.9971671 C100.589235,89.2266289 101.388102,90.509915 102.603399,91.8441926 C102.841317,91.3942987 103.274593,91.0803305 103.776204,90.9943343 C104.271166,90.9093457 104.776993,90.9093457 105.271955,90.9943343 C106.041837,91.0413673 106.789937,91.2684173 107.456091,91.6572238 C108.492918,92.3796034 108.849858,93.7223796 109.563739,94.776204 C109.613974,94.8788776 109.7075,94.9536989 109.818697,94.98017 C109.920708,94.970321 110.015031,94.9216384 110.082153,94.8441926 C110.278657,94.5659219 110.494487,94.3018143 110.728045,94.0538244 C111.399216,93.5900144 112.305257,93.6684903 112.886686,94.2407932 C113.431979,94.8118151 113.854288,95.4886662 114.127479,96.2294618 C114.403229,96.971107 114.890853,97.6153628 115.529745,98.082153 C116.021236,98.3453223 116.557161,98.5153202 117.110482,98.5835694 C118.71386,98.7956632 120.195862,99.5516643 121.308782,100.725212 C121.818238,101.319228 122.098561,102.075798 122.09915,102.858357 C122.085193,103.648055 121.655495,104.371757 120.968839,104.76204 C119.354108,105.611898 117.382436,103.912181 115.631728,104.396601 C113.88102,104.88102 111.135977,104.354108 109.308782,103.691218 C107.830028,103.147309 106.25779,102.433428 104.745042,102.84136 C104.279985,103.045383 103.787473,103.179965 103.283286,103.240793 C102.907885,103.21716 102.540962,103.118929 102.203966,102.951841 C101.16537,102.563206 100.193443,102.015601 99.3229462,101.328612 C97.674221,99.9348442 96.7733711,97.7082153 94.8271955,96.713881 C93.7010428,96.1350106 92.3822272,96.0608852 91.1983003,96.509915 C90.7053824,96.7053824 90.2549575,96.9858357 89.7535411,97.1643059 C89.168736,97.3674808 88.5539376,97.4709048 87.9348442,97.470255 C86.3957577,97.604464 84.8756443,97.0542389 83.7790368,95.9660057 C82.776204,94.8101983 83.1246459,92.898017 83.9320113,91.6827195 Z" id="Path" fill="#473F47"></path>
                <path d="M81.7903683,96.3824363 C81.1199302,97.3891198 81.2821878,98.7340554 82.1728045,99.5524079 C82.5865977,99.8226414 83.0529108,100.002215 83.5410765,100.07932 L86.4390935,100.767705 L85.3597734,97.8271955 C85.1007857,97.30005 85.03174,96.6996528 85.1643059,96.1274788 C85.4385045,95.5265018 86.0182958,95.1226023 86.6770538,95.0736544 C87.3224987,95.0396522 87.969286,95.0396522 88.6147309,95.0736544 C88.795254,95.0906178 88.9718176,95.0135719 89.082153,94.8696884 C89.1756374,94.6657224 88.98017,94.4362606 88.7932011,94.3002833 C86.4815864,92.6600567 83.1246459,94.1388102 81.7903683,96.3824363 Z" id="Path" fill="#473F47"></path>
                <path d="M110.107649,162.892351 C110.286247,163.895061 110.183282,164.927656 109.810198,165.875354 C109.206799,167.192635 107.889518,168.008499 106.886686,169.053824 C106.665244,169.235331 106.537273,169.506879 106.538238,169.793201 C106.617441,170.055206 106.844337,170.245399 107.116147,170.27762 C107.383073,170.295124 107.650475,170.251526 107.898017,170.150142 C109.069678,169.677919 110.267048,169.272176 111.484419,168.934844 C112.096317,168.807365 112.818697,168.688385 113.09915,168.135977 C113.252652,167.670053 113.22535,167.163443 113.022663,166.716714 C112.502806,164.984969 112.233783,163.187666 112.223796,161.379603 C112.255748,160.931405 112.200922,160.481251 112.062323,160.053824 C111.924169,159.75926 111.674405,159.531833 111.368224,159.421799 C111.062042,159.311765 110.724648,159.328182 110.430595,159.467422 C110.252224,159.549601 110.097346,159.675257 109.98017,159.832861 C109.419263,160.606232 110.005666,162.050992 110.107649,162.892351 Z" id="Path" fill="#FCBDBA"></path>
                <path d="M131.286119,164.855524 C131.662499,165.80231 131.768421,166.835051 131.592068,167.838527 C131.269122,169.25779 130.13881,170.311615 129.365439,171.543909 C129.186778,171.768835 129.118182,172.061926 129.17847,172.342776 C129.304567,172.586376 129.569207,172.725482 129.84136,172.691218 C130.105689,172.654198 130.35835,172.558362 130.580737,172.410765 C131.631288,171.714371 132.720894,171.078767 133.844193,170.507082 C134.422096,170.252125 135.110482,169.988669 135.271955,169.385269 C135.323801,168.89966 135.19358,168.41209 134.906516,168.016997 C134.046795,166.414434 133.420085,164.697421 133.045326,162.917847 C132.985225,162.472633 132.841021,162.042905 132.620397,161.651558 C132.216282,161.118877 131.459448,161.009136 130.92068,161.405099 C130.765439,161.52472 130.640299,161.678963 130.555241,161.855524 C130.147309,162.764873 131.014164,164.056657 131.286119,164.855524 Z" id="Path" fill="#FCBDBA"></path>
                <path d="M123.951841,116.209632 C123.951841,116.209632 117.356941,133.606232 111.773371,139.648725 C112.249941,141.118284 112.571799,142.633578 112.733711,144.169972 C112.963173,146.719547 112.283286,149.090652 112.461756,151.572238 L113.073654,159.892351 C113.073654,160.274788 113.073654,160.74221 112.784703,160.937677 C112.580395,161.041908 112.348881,161.080493 112.121813,161.048159 L109.147309,160.937677 C108.18591,156.055725 106.948802,151.232138 105.441926,146.490085 C104.760148,144.594279 104.253775,142.639909 103.929178,140.651558 C103.385269,136.283286 105.985836,131.694051 107.592068,127.725212 C108.569405,125.328612 109.410765,121.886686 111.076487,119.855524 C112.470255,118.155807 115.011331,118.206799 117.186969,117.917847 C118.825099,117.705653 120.414709,117.21411 121.886686,116.464589 C122.491124,116.044814 123.26346,115.949464 123.951841,116.209632 L123.951841,116.209632 Z" id="Path" fill="#473F47"></path>
                <path d="M127.776204,115.215297 C127.776204,115.215297 127.997167,133.818697 125.005666,141.475921 C125.981266,142.674387 126.835322,143.966859 127.555241,145.334278 C128.084571,146.473364 128.513947,147.656281 128.838527,148.869688 L133.189802,163.419263 C131.811833,163.822961 130.37249,163.975532 128.94051,163.869688 L120.705382,152.065156 C119.252599,150.23536 118.151827,148.151961 117.458924,145.92068 C116.388102,141.492918 116.88102,124.300283 117.186969,123.365439 C117.858357,121.274788 120.246459,120.399433 122.167139,119.328612 C123.611888,118.530557 124.910771,117.493175 126.008499,116.260623 C126.501416,115.674221 126.994334,115.155807 127.776204,115.215297 Z" id="Path" fill="#473F47"></path>
                <path d="M99.1104816,127.640227 C98.5375291,130.014542 97.3027588,132.1776 95.5495751,133.878187 C94.9697095,134.302913 94.488472,134.847929 94.1388102,135.475921 C94.6912181,135.475921 95.4220963,135.696884 95.4050992,136.249292 C95.3872103,136.413956 95.3288143,136.571625 95.2351275,136.708215 C94.9259512,137.211629 94.5041098,137.63638 94.0028329,137.949008 C93.7373297,138.079336 93.5048635,138.268214 93.3229462,138.501416 C93.0943361,139.010802 93.3178336,139.609321 93.8243626,139.844193 C94.3272904,140.039626 94.8851741,140.039626 95.388102,139.844193 C97.1307431,139.289909 98.4334425,137.830886 98.7875354,136.036827 C98.8810198,135.518414 98.898017,134.991501 98.9915014,134.473088 C99.2298674,133.509685 99.6047663,132.585316 100.104816,131.728045 C101.423517,129.119517 102.542863,126.414906 103.453258,123.637394 C103.827181,122.861951 103.861057,121.965765 103.546742,121.164306 C102.815864,119.864023 100.376771,119.226629 100.062323,121.070822 C99.6883853,123.280453 99.6968839,125.473088 99.1104816,127.640227 Z" id="Path" fill="#FCBDBA"></path>
                <path d="M87.7818697,123.254958 C86.5734885,125.37219 84.7910307,127.104562 82.6402266,128.252125 C81.9683704,128.500011 81.3570586,128.888238 80.8470255,129.390935 C81.3654391,129.560907 82.0113314,129.96034 81.8413598,130.487252 C81.7808497,130.64057 81.6812244,130.775357 81.5524079,130.878187 C81.1104484,131.269468 80.5883706,131.559511 80.0226629,131.728045 C79.7160336,131.770887 79.4243925,131.887543 79.1728045,132.067989 C78.8119563,132.489032 78.8574481,133.122126 79.2747875,133.487252 C79.6943213,133.829664 80.2311577,133.994375 80.7705382,133.946176 C82.6002483,133.903855 84.2615523,132.867983 85.1048159,131.243626 C85.3342776,130.776204 85.4957507,130.274788 85.733711,129.807365 C86.2328589,128.950873 86.8477134,128.167291 87.5609065,127.478754 C89.5557187,125.350627 91.390732,123.078165 93.0509915,120.679887 C93.6210119,120.03462 93.9006629,119.183375 93.8243626,118.325779 C93.4929178,116.872521 91.325779,115.580737 90.509915,117.263456 C89.5580737,119.226629 88.9546742,121.334278 87.7818697,123.254958 Z" id="Path" fill="#FCBDBA"></path>
                <path d="M94.3342776,109.062323 C92.9151631,112.658682 90.8208289,115.950191 88.1643059,118.759207 C88.0538244,118.886686 87.9263456,119.056657 87.9858357,119.21813 C88.0398902,119.316184 88.1273463,119.391578 88.2322946,119.430595 C89.7650855,120.255232 91.3994225,120.875252 93.0934844,121.274788 C93.2916831,121.334162 93.50009,121.351529 93.7053824,121.325779 C94.0604983,121.198391 94.3507599,120.935628 94.5127479,120.594901 C95.9461756,118.385269 97.2747875,116.11898 98.4985836,113.796034 C99.6640066,111.842232 100.391785,109.658896 100.631728,107.396601 C100.72508,106.237601 100.445143,105.079138 99.8328612,104.090652 C99.1104816,103.028329 96.7988669,101.82153 95.8470255,103.240793 C95.5023522,104.050149 95.2982914,104.912377 95.2436261,105.790368 C95.0105771,106.899291 94.706841,107.992174 94.3342776,109.062323 L94.3342776,109.062323 Z" id="Path" fill="#DDDDDD"></path>
                <path d="M94.3342776,109.062323 C92.9151631,112.658682 90.8208289,115.950191 88.1643059,118.759207 C88.0538244,118.886686 87.9263456,119.056657 87.9858357,119.21813 C88.0398902,119.316184 88.1273463,119.391578 88.2322946,119.430595 C89.7650855,120.255232 91.3994225,120.875252 93.0934844,121.274788 C93.2916831,121.334162 93.50009,121.351529 93.7053824,121.325779 C94.0604983,121.198391 94.3507599,120.935628 94.5127479,120.594901 C95.9461756,118.385269 97.2747875,116.11898 98.4985836,113.796034 C99.6640066,111.842232 100.391785,109.658896 100.631728,107.396601 C100.72508,106.237601 100.445143,105.079138 99.8328612,104.090652 C99.1104816,103.028329 96.7988669,101.82153 95.8470255,103.240793 C95.5023522,104.050149 95.2982914,104.912377 95.2436261,105.790368 C95.0105771,106.899291 94.706841,107.992174 94.3342776,109.062323 L94.3342776,109.062323 Z" id="Path" fill="url(#linearGradient-7)"></path>
                <path d="M127.776204,115.215297 C127.750807,115.515468 127.657835,115.806005 127.504249,116.065156 C126.971818,117.211075 126.355408,118.316069 125.660057,119.371105 C123.795983,122.022731 121.053129,123.928578 117.917847,124.750708 C116.67111,125.081402 115.382607,125.227432 114.093484,125.184136 C113.623242,125.191569 113.156767,125.099126 112.725212,124.912181 C112.112631,124.537007 111.620168,123.994413 111.305949,123.348442 C109.410765,120.195467 107.558074,116.864023 104.983003,114.314448 C104.111563,113.433687 103.135445,112.663068 102.076487,112.01983 C100.555241,111.093484 98.8385269,110.464589 97.529745,109.266289 C95.9918102,107.813879 95.1659164,105.761564 95.2691218,103.648725 C95.3796034,101.354108 96.5779037,98.5495751 98.9150142,97.8951841 C101.654628,97.1874281 104.541765,97.2997221 107.21813,98.2181303 C110.166344,99.2718219 112.948204,100.742888 115.478754,102.586402 C116.515581,103.283286 117.535411,103.988669 118.504249,104.770538 C120.759631,106.72843 122.841075,108.878117 124.725212,111.195467 L127.164306,114.033994 C127.501887,114.342753 127.718757,114.761433 127.776204,115.215297 Z" id="Path" fill="#DDDDDD"></path>
                <path d="M117.917847,124.750708 C116.67111,125.081402 115.382607,125.227432 114.093484,125.184136 C113.623242,125.191842 113.156767,125.099126 112.725212,124.912181 C112.112631,124.537007 111.620168,123.994413 111.305949,123.348442 C109.410765,120.195467 107.558074,116.864023 104.983003,114.314448 C105.093484,113.70255 105.263456,113.09915 105.433428,112.504249 C105.815864,111.135977 106.07932,108.798867 107.430595,107.983003 C108.077209,109.577847 108.806236,111.138023 109.614731,112.657224 C110.405099,114.169972 111.484419,115.572238 112.232295,117.093484 C113.646403,119.731415 115.435557,122.150351 117.543909,124.274788 C117.682458,124.421994 117.8076,124.581265 117.917847,124.750708 Z" id="Path" fill="url(#linearGradient-8)"></path>
                <path d="M98.898017,120.798867 C98.8297519,120.973744 98.8297519,121.167899 98.898017,121.342776 C98.9954589,121.493538 99.1479379,121.600274 99.3229462,121.640227 C100.940304,122.209162 102.648893,122.474238 104.362606,122.422096 C104.538299,122.438915 104.714616,122.397077 104.864023,122.303116 C105.020917,122.174147 105.126438,121.993255 105.161473,121.793201 C106.011331,119.184136 106.784703,116.575071 107.566572,113.957507 C108.130304,112.373066 108.440075,110.709483 108.484419,109.028329 C108.398524,107.601615 108.112437,106.194068 107.634561,104.847025 C106.342776,100.750708 102.11898,101.566572 101.685552,105.518414 C101.073654,110.830028 100.699717,115.74221 98.898017,120.798867 Z" id="Path" fill="#DDDDDD"></path>
                <path d="M113.235127,168.254958 C113.334904,167.933912 113.181841,167.588563 112.87697,167.446863 C112.572099,167.305162 112.209422,167.410801 112.028329,167.694051 C111.44038,168.16016 110.811798,168.572578 110.150142,168.926346 C109.482939,169.281115 108.708505,169.377919 107.974504,169.1983 C107.590727,168.997303 107.156007,168.914499 106.725212,168.96034 C106.528668,169.045083 106.349897,169.166186 106.1983,169.31728 C105.643996,169.804405 105.015755,170.200283 104.33711,170.490085 C104.043379,170.581119 103.777374,170.744814 103.563739,170.966006 C103.498802,171.032424 103.459635,171.119795 103.453258,171.212465 C103.453258,171.441926 103.74221,171.543909 103.963173,171.577904 C106.376771,171.917847 108.764873,171.016997 111.05949,170.209632 C111.315097,170.106719 111.58411,170.040897 111.858357,170.014164 C112.266289,170.014164 112.784703,170.082153 113.048159,169.68272 C113.228545,169.229831 113.292818,168.739023 113.235127,168.254958 Z" id="Path" fill="#473F47"></path>
                <path d="M135.586402,169.393768 C135.594773,169.095805 135.446427,168.815237 135.195467,168.654391 C134.889518,168.526912 134.558074,168.764873 134.345609,168.985836 C133.819332,169.518072 133.25091,170.006915 132.645892,170.447592 C132.023769,170.879873 131.265271,171.070253 130.512748,170.983003 C130.10784,170.831254 129.666689,170.804607 129.246459,170.906516 C129.059953,171.00982 128.897686,171.151803 128.770538,171.322946 C128.280279,171.8735 127.706745,172.343798 127.070822,172.716714 C126.78927,172.84429 126.543925,173.039981 126.356941,173.286119 C126.30242,173.362778 126.27546,173.455638 126.280453,173.549575 C126.280453,173.770538 126.603399,173.838527 126.832861,173.838527 C129.263456,173.88102 131.524079,172.691218 133.699717,171.603399 C133.942048,171.469907 134.202593,171.372561 134.473088,171.314448 C134.872521,171.23796 135.399433,171.263456 135.611898,170.838527 C135.722633,170.362203 135.713875,169.865888 135.586402,169.393768 Z" id="Path" fill="#473F47"></path>
                <path d="M87.5524079,101.481586 C88.0453258,101.864023 88.5467422,102.246459 89.0226629,102.654391 C89.6833871,103.301056 90.3937776,103.894943 91.1473088,104.430595 C91.9103122,104.974519 92.8752889,105.15195 93.7818697,104.915014 C94.6972393,104.624987 95.2243081,103.668039 94.98017,102.739377 C95.4730878,102.535411 96,102.96034 96.305949,103.402266 C96.611898,103.844193 96.9093484,104.371105 97.427762,104.507082 C98.1671388,104.70255 98.8130312,103.954674 99.1274788,103.240793 C99.9769683,100.998556 99.3973166,98.4655116 97.6572238,96.815864 C95.8215297,95.1161473 94.1558074,92.7450425 91.8101983,91.8271955 C90.9932896,91.5351572 90.1272636,91.4052534 89.2606232,91.4447592 C88.4689977,91.4337543 87.6868164,91.6176253 86.9830028,91.98017 C86.5119044,92.2715276 86.0829805,92.6261046 85.7082153,93.0339943 C84.0084986,94.6827195 82.6402266,96.0849858 84.1614731,98.2691218 C85.1196655,99.5081248 86.2634573,100.591717 87.5524079,101.481586 Z" id="Path" fill="#FCBDBA"></path>
                <path d="M87.3994334,96.2974504 C87.6968839,96.0849858 87.9858357,95.7790368 88.3512748,95.7875354 C88.7167139,95.796034 89.0396601,96.1699717 89.3966006,96.3484419 C90.1274788,96.713881 90.9773371,96.2379603 91.7847025,96.1189802 C92.7891997,96.0012524 93.7746563,96.4578473 94.3342776,97.3002833 C94.1453828,97.0534116 94.0278047,96.7594663 93.9943343,96.4504249 C93.9943343,96.1274788 94.2747875,95.796034 94.5892351,95.8470255 C94.7361301,95.8890526 94.8666287,95.975063 94.9631728,96.0934844 C95.3757747,96.5766107 95.5106411,97.2380982 95.3201133,97.8441926 C96.2461587,98.3593743 97.3871238,98.2897223 98.2436261,97.6657224 C98.7464843,97.3714864 98.9623065,96.7563931 98.7535411,96.2124646 C98.2606232,94.427762 96.407932,93.4589235 95.1671388,92.0906516 C94.7728512,91.5716864 94.312925,91.1060467 93.7988669,90.7053824 C93.3850082,90.4589831 92.9301562,90.2891333 92.4560907,90.203966 C90.9202381,89.7909744 89.2982478,89.8263633 87.7818697,90.305949 C86.3541076,90.8243626 84.0934844,92.6685552 83.8385269,94.266289 C83.5750708,96.0679887 85.9546742,97.3342776 87.3994334,96.2974504 Z" id="Path" fill="#473F47"></path>
                <rect id="Rectangle" fill="#DDDDDD" x="229.572238" y="104.668555" width="41.7025496" height="117.78187"></rect>
                <rect id="Rectangle" fill="#DDDDDD" x="163.470255" y="143.379603" width="41.7025496" height="79.0708215"></rect>
                <rect id="Rectangle" fill="#DDDDDD" x="100.776204" y="170.626062" width="41.7025496" height="51.8243626"></rect>
            </g>
        </g>
    </g>
</svg>