<?xml version="1.0" encoding="UTF-8"?>
<svg width="381px" height="325px" viewBox="0 0 381 325" version="1.1" xmlns="http://www.w3.org/2000/svg" xmlns:xlink="http://www.w3.org/1999/xlink">
    <title>Illustration 08</title>
    <defs>
        <linearGradient x1="46.7629145%" y1="38.1053233%" x2="51.4324385%" y2="55.6045398%" id="linearGradient-1">
            <stop stop-color="#000000" offset="1%"></stop>
            <stop stop-color="#000000" stop-opacity="0.69" offset="8%"></stop>
            <stop stop-color="#000000" stop-opacity="0.32" offset="21%"></stop>
            <stop stop-color="#000000" stop-opacity="0" offset="100%"></stop>
        </linearGradient>
        <linearGradient x1="47.2760619%" y1="46.6634248%" x2="50.8951389%" y2="51.0054268%" id="linearGradient-2">
            <stop stop-color="#000000" offset="1%"></stop>
            <stop stop-color="#000000" stop-opacity="0.69" offset="8%"></stop>
            <stop stop-color="#000000" stop-opacity="0.32" offset="21%"></stop>
            <stop stop-color="#000000" stop-opacity="0" offset="100%"></stop>
        </linearGradient>
        <linearGradient x1="-121.881002%" y1="61.6991632%" x2="13.330015%" y2="87.268115%" id="linearGradient-3">
            <stop stop-color="#000000" offset="1%"></stop>
            <stop stop-color="#000000" stop-opacity="0.69" offset="8%"></stop>
            <stop stop-color="#000000" stop-opacity="0.32" offset="21%"></stop>
            <stop stop-color="#000000" stop-opacity="0" offset="100%"></stop>
        </linearGradient>
        <linearGradient x1="118.332167%" y1="168.052734%" x2="-45.4826044%" y2="-164.167019%" id="linearGradient-4">
            <stop stop-color="#000000" offset="1%"></stop>
            <stop stop-color="#000000" stop-opacity="0.69" offset="8%"></stop>
            <stop stop-color="#000000" stop-opacity="0.32" offset="21%"></stop>
            <stop stop-color="#000000" stop-opacity="0" offset="100%"></stop>
        </linearGradient>
        <linearGradient x1="26.1364748%" y1="-24.9976101%" x2="81.5662953%" y2="152.421059%" id="linearGradient-5">
            <stop stop-color="#000000" offset="1%"></stop>
            <stop stop-color="#000000" stop-opacity="0.69" offset="8%"></stop>
            <stop stop-color="#000000" stop-opacity="0.32" offset="21%"></stop>
            <stop stop-color="#000000" stop-opacity="0" offset="100%"></stop>
        </linearGradient>
        <linearGradient x1="65.9478454%" y1="-7.89866963%" x2="29.837705%" y2="111.139736%" id="linearGradient-6">
            <stop stop-color="#000000" offset="1%"></stop>
            <stop stop-color="#000000" stop-opacity="0.69" offset="8%"></stop>
            <stop stop-color="#000000" stop-opacity="0.32" offset="21%"></stop>
            <stop stop-color="#000000" stop-opacity="0" offset="100%"></stop>
        </linearGradient>
        <linearGradient x1="50.7106595%" y1="-52.4196104%" x2="48.9221665%" y2="221.736246%" id="linearGradient-7">
            <stop stop-color="#000000" offset="1%"></stop>
            <stop stop-color="#000000" stop-opacity="0.69" offset="8%"></stop>
            <stop stop-color="#000000" stop-opacity="0.32" offset="21%"></stop>
            <stop stop-color="#000000" stop-opacity="0" offset="100%"></stop>
        </linearGradient>
        <linearGradient x1="70.0582622%" y1="26.1954596%" x2="24.9689731%" y2="71.4602211%" id="linearGradient-8">
            <stop stop-color="#000000" offset="1%"></stop>
            <stop stop-color="#000000" stop-opacity="0.69" offset="8%"></stop>
            <stop stop-color="#000000" stop-opacity="0.32" offset="21%"></stop>
            <stop stop-color="#000000" stop-opacity="0" offset="100%"></stop>
        </linearGradient>
        <linearGradient x1="59.0710897%" y1="37.1508985%" x2="3.13708551%" y2="116.388829%" id="linearGradient-9">
            <stop stop-color="#000000" offset="1%"></stop>
            <stop stop-color="#000000" stop-opacity="0.69" offset="8%"></stop>
            <stop stop-color="#000000" stop-opacity="0.32" offset="21%"></stop>
            <stop stop-color="#000000" stop-opacity="0" offset="100%"></stop>
        </linearGradient>
        <linearGradient x1="-77.3714797%" y1="-212.633644%" x2="227.48897%" y2="509.45343%" id="linearGradient-10">
            <stop stop-color="#000000" offset="1%"></stop>
            <stop stop-color="#000000" stop-opacity="0.69" offset="8%"></stop>
            <stop stop-color="#000000" stop-opacity="0.32" offset="21%"></stop>
            <stop stop-color="#000000" stop-opacity="0" offset="100%"></stop>
        </linearGradient>
        <linearGradient x1="-64.3214201%" y1="-41.7417997%" x2="216.803622%" y2="213.543788%" id="linearGradient-11">
            <stop stop-color="#000000" offset="1%"></stop>
            <stop stop-color="#000000" stop-opacity="0.69" offset="8%"></stop>
            <stop stop-color="#000000" stop-opacity="0.32" offset="21%"></stop>
            <stop stop-color="#000000" stop-opacity="0" offset="100%"></stop>
        </linearGradient>
        <linearGradient x1="28.2893532%" y1="188.334488%" x2="81.316394%" y2="-180.985822%" id="linearGradient-12">
            <stop stop-color="#000000" offset="1%"></stop>
            <stop stop-color="#000000" stop-opacity="0.69" offset="8%"></stop>
            <stop stop-color="#000000" stop-opacity="0.32" offset="21%"></stop>
            <stop stop-color="#000000" stop-opacity="0" offset="100%"></stop>
        </linearGradient>
        <linearGradient x1="53.0439914%" y1="-112.758446%" x2="45.037228%" y2="343.395784%" id="linearGradient-13">
            <stop stop-color="#000000" offset="1%"></stop>
            <stop stop-color="#000000" stop-opacity="0.69" offset="8%"></stop>
            <stop stop-color="#000000" stop-opacity="0.32" offset="21%"></stop>
            <stop stop-color="#000000" stop-opacity="0" offset="100%"></stop>
        </linearGradient>
        <linearGradient x1="32.4644263%" y1="-17.5253185%" x2="90.4769323%" y2="178.254212%" id="linearGradient-14">
            <stop stop-color="#000000" offset="1%"></stop>
            <stop stop-color="#000000" stop-opacity="0.69" offset="8%"></stop>
            <stop stop-color="#000000" stop-opacity="0.32" offset="21%"></stop>
            <stop stop-color="#000000" stop-opacity="0" offset="100%"></stop>
        </linearGradient>
        <linearGradient x1="37.1263036%" y1="1.10757274%" x2="67.7511402%" y2="124.505241%" id="linearGradient-15">
            <stop stop-color="#000000" offset="1%"></stop>
            <stop stop-color="#000000" stop-opacity="0.69" offset="8%"></stop>
            <stop stop-color="#000000" stop-opacity="0.32" offset="21%"></stop>
            <stop stop-color="#000000" stop-opacity="0" offset="100%"></stop>
        </linearGradient>
    </defs>
    <g id="DESIGN-SYSTEM" stroke="none" stroke-width="1" fill="none" fill-rule="evenodd">
        <g id="Illustrations" transform="translate(-130.000000, -788.000000)" fill-rule="nonzero">
            <g id="Illustration-08" transform="translate(130.000000, 788.000000)">
                <path d="M373.480637,218.6859 C370.711827,229.587377 365.909672,240.467245 361.702378,250.169451 C345.716827,286.806625 318.742561,311.861654 276.507392,306.740445 C256.152313,304.266274 236.229859,297.437996 215.734176,298.097054 C196.125377,298.702091 177.457541,306.081386 158.832967,312.228998 C124.222842,323.670687 85.9029444,330.995961 51.6713675,318.398219 C17.4397907,305.800476 -9.17755858,267.045672 3.00087918,232.688193 C12.4754009,205.872073 42.0995048,187.883015 45.1819691,159.619127 C49.2378431,122.884716 5.71561086,91.1958837 14.8981097,55.3474199 C18.8025644,40.2538984 31.3703661,29.0174902 44.6844485,20.9143112 C75.2711466,2.2337826 112.877211,-3.93543768 148.017303,2.41745466 C181.437705,8.41380711 209.244778,36.5264361 242.924756,37.8229447 C264.642609,38.6440669 285.538472,26.3164306 307.1698,28.3476274 C333.927753,30.9298405 353.547368,54.6019274 366.061091,78.3820567 C370.089259,85.805699 373.458602,93.5676078 376.130474,101.578757 C381.329696,117.904458 382.385222,135.265108 379.202123,152.099377 C375.957424,169.386159 376.346788,185.592517 375.849267,203.322273 C375.630757,208.51521 374.836357,213.667918 373.480637,218.6859 L373.480637,218.6859 Z" id="Path" fill="#DDDDDD" opacity="0.18"></path>
                <path d="M143.074667,288.489314 C141.781187,288.899501 140.328671,289.568752 140,290.874873 C144.071284,293.508703 149.107376,294.113188 153.920821,293.983656 C158.734266,293.854123 163.537108,292.990572 168.361155,292.958189 C174.722536,292.958189 181.889691,294.113188 187,290.184032 C184.730364,288.720772 182.124344,287.887218 179.440559,287.76609 C180.384164,281.721235 146.849086,287.291137 143.074667,288.489314 Z" id="Path" fill="url(#linearGradient-1)"></path>
                <path d="M57.8017623,217.360915 C56.0455927,217.360915 53.6173088,218.251124 54.0509309,219.955549 L134.195141,226.469274 C143.626422,227.240065 153.068544,228 162.543187,228 C176.852718,228 191.097205,226.241294 205.374213,225.416222 C218.816499,224.645431 232.280466,224.699712 245.733593,224.76485 C258.189388,224.829987 273.50709,227.077222 285.605147,223.809503 C287.42636,223.320974 289.258414,221.855385 289.139168,219.977261 C289.084965,219.108765 288.629662,218.207699 288.965719,217.40434 C289.160735,217.010128 289.470729,216.684543 289.854644,216.470706 C292.337131,214.93998 295.502573,216.134163 298.364479,216.763823 C302.919639,217.755518 307.676731,217.149962 311.839286,215.048542 C312.619472,214.723568 313.284178,214.171367 313.747224,213.463536 C314.204422,212.722872 314.026271,211.755713 313.335283,211.227156 C312.99836,211.060289 312.627092,210.974774 312.251227,210.977464 L287.719055,209.066771 C286.813253,208.926278 285.886929,209.00824 285.019758,209.305607 C284.054948,209.729 284.109151,210.858045 283.328631,211.324862 C282.060287,212.073941 279.176699,211.672261 277.724065,211.759111 C274.005756,211.965379 270.287446,212.171647 266.558295,212.356202 C259.13613,212.710838 251.699511,213.011194 244.248437,213.257268 C229.071662,213.767509 213.819004,214.071483 198.609708,214.342889 C168.527173,214.831418 138.433797,215.091967 108.362103,216.253581 C91.5050423,216.883242 74.6588226,216.991804 57.8017623,217.360915 Z" id="Path" fill="url(#linearGradient-2)"></path>
                <path d="M119.355926,48.349936 C117.936601,47.8477338 116.38662,47.8872094 114.993701,48.461035 C113.176752,49.1213319 111.718835,50.5339185 110.980453,52.3494998 C110.965907,52.585608 110.852226,52.8038895 110.668472,52.9485414 C110.484718,53.0931934 110.248704,53.1501946 110.020764,53.1049729 C108.433711,53.1012424 106.902074,53.6992389 105.723972,54.7825677 C104.349871,56.0602061 104.349871,57.6267019 104.164476,59.4598353 C103.708225,59.2260619 103.170288,59.2260619 102.714037,59.4598353 C102.26483,59.685473 101.855711,59.9858583 101.503519,60.3486273 C100.901889,60.840772 100.42036,61.4682209 100.096701,62.1817607 C99.6604789,63.3927397 100.151229,64.7259276 100.17304,66.0146759 C100.188558,66.1315615 100.15264,66.2494649 100.07489,66.336863 C99.9843579,66.376392 99.8818781,66.376392 99.7913457,66.336863 C99.4532732,66.2702036 99.1479174,66.0924452 98.809845,66.0591155 C97.9940768,66.0669356 97.2985897,66.6635827 97.1521994,67.4811827 C97.0235376,68.2769406 97.0644505,69.0915852 97.2721606,69.869811 C97.4747979,70.6485388 97.4520742,71.4703475 97.2067272,72.2362196 C96.9453578,72.7392934 96.6024632,73.1937842 96.1925098,73.5805174 C95.009751,74.7034636 94.2400335,76.2050909 94.0113972,77.8356088 C93.9472144,78.6235792 94.1555387,79.4096073 94.6002976,80.0575887 C95.0649751,80.7083901 95.8310312,81.0627382 96.6178268,80.9908202 C98.4281503,80.7464025 99.0606729,78.1577959 100.783752,77.5467515 C102.506831,76.935707 104.437116,74.8692657 105.549483,73.2361105 C106.443739,71.9251424 107.316184,70.4030862 108.821152,69.9031407 C109.316474,69.7958787 109.793982,69.6162644 110.238875,69.3698655 C110.5348,69.1345685 110.779839,68.8395505 110.958642,68.5032934 C111.581873,67.5672383 112.063462,66.5410722 112.387271,65.459181 C112.932549,63.3260803 112.387271,60.926342 113.401488,58.9598899 C113.987165,57.8189765 115.022487,56.9865144 116.24784,56.6712506 C116.760402,56.5379318 117.338397,56.5046021 117.807336,56.3601734 C118.400376,56.1857948 118.960641,55.9116785 119.464982,55.5491508 C120.808004,54.7623611 121.735876,53.4055902 121.995072,51.8495543 C122.093222,50.2830585 120.708216,48.8832112 119.355926,48.349936 Z" id="Path" fill="#FF681C"></path>
                <path d="M124.344563,51.4778731 C125.531096,51.933723 126.208596,53.1806013 125.942401,54.4185514 C125.745733,54.9030998 125.452449,55.3429474 125.080258,55.7115344 L122.99962,58 L122.137477,54.8190328 C122.048277,54.2221472 121.751271,53.6754171 121.298324,53.2743186 C120.696624,52.9312298 119.957329,52.9312298 119.355629,53.2743186 C118.746381,53.5832614 118.206105,54.0638392 117.665829,54.4185514 C117.51639,54.51009 117.309476,54.6130709 117.148543,54.5215323 C116.987609,54.4299937 116.964619,54.0981662 117.045086,53.8693196 C118.033676,51.1460456 121.81561,50.390852 124.344563,51.4778731 Z" id="Path" fill="#FF681C"></path>
                <path d="M125.683904,134.994962 C125.746741,135.924552 126.103475,136.821233 126.715043,137.586818 C127.643069,138.579866 129.189778,139.07639 130.472973,139.801315 C130.740451,139.918945 130.933617,140.13369 131,140.387214 C130.984471,140.63461 130.799365,140.849837 130.530259,140.93339 C130.258445,141 129.973639,141.016873 129.69389,140.983043 C128.385125,140.805011 127.065161,140.695577 125.741189,140.655337 C125.076677,140.655337 124.309051,140.71492 123.885139,140.268048 C123.612181,139.889417 123.517821,139.434256 123.621625,138.996946 C123.738927,137.354445 123.584603,135.705845 123.163341,134.101218 C123.022852,133.709691 122.972251,133.298095 123.014399,132.889699 C123.101554,132.505388 123.417445,132.190024 123.844209,132.061275 C124.270973,131.932525 124.744509,132.009728 125.088134,132.264079 C125.844303,132.830116 125.592247,134.230314 125.683904,134.994962 Z" id="Path" fill="#FCBDBA"></path>
                <path d="M106.105401,138.55961 C105.951835,139.588057 106.084834,140.638044 106.490332,141.598531 C107.1583,142.918354 108.550844,143.705811 109.626386,144.748361 C109.862661,144.925218 110.000894,145.200159 110,145.491454 C109.931666,145.758939 109.702027,145.957436 109.422599,145.990547 C109.14667,146.018472 108.867874,145.984332 108.607452,145.890729 C107.377224,145.45091 106.122249,145.080603 104.848715,144.781634 C104.203389,144.670724 103.444849,144.559815 103.139169,144.005267 C102.95361,143.541848 102.95361,143.026863 103.139169,142.563443 C103.6307,140.785689 103.859459,138.94807 103.818458,137.106695 C103.772558,136.6513 103.818724,136.191507 103.954316,135.753599 C104.127495,135.350458 104.506016,135.0676 104.948676,135.010541 C105.391337,134.953482 105.831664,135.130791 106.105401,135.476326 C106.750726,136.219419 106.184651,137.705607 106.105401,138.55961 Z" id="Path" fill="#FCBDBA"></path>
                <path d="M102,91.3226235 C102,91.3226235 111.912947,106.609981 118.407279,111.176755 C118.282498,112.705353 118.313846,114.243382 118.500797,115.765121 C118.833307,118.237441 119.9867,120.407468 120.360773,122.836603 L121.607685,131.009293 C121.65964,131.376363 121.763549,131.819005 122.10645,131.948559 C122.312575,132.017147 122.534171,132.017147 122.740296,131.948559 L125.483502,131.171236 C125.318913,126.26059 125.419516,121.344218 125.784839,116.445279 C126.009782,114.464059 126.058479,112.465513 125.930312,110.475004 C125.473111,106.156542 122.064886,102.302314 119.695754,98.8367482 C118.272196,96.7422939 116.74473,93.6114086 114.749671,92.0243737 C113.087122,90.7072426 110.738772,91.3334197 108.650195,91.5493428 C107.083904,91.7046468 105.503655,91.5878912 103.974277,91.2038658 C103.339066,90.8947394 102.596631,90.9393987 102,91.3226235 L102,91.3226235 Z" id="Path" fill="#473F47"></path>
                <path d="M96,92.0699067 C96,92.0699067 100.256214,109.747457 105.17782,116.343399 C104.462614,117.701231 103.897606,119.122365 103.491396,120.585163 C103.219746,121.782539 103.062354,122.999649 103.021033,124.222475 L102.034417,138.983812 C103.559495,139.05772 105.086549,138.878135 106.543021,138.453592 L112.141491,125.441982 C113.210516,123.369302 113.841326,121.126927 114,118.835435 C114,114.402792 109.41109,98.2204639 108.871893,97.4039244 C107.667304,95.5693617 105.017208,95.2830426 102.791587,94.6891957 C101.120491,94.2525226 99.5416749,93.5568966 98.1223709,92.6319404 C97.4225621,92.2289728 96.791587,91.8366097 96,92.0699067 Z" id="Path" fill="#473F47"></path>
                <path d="M135.602104,78.5266527 C137.728043,79.5371157 140.0873,79.9104017 142.409662,79.6037568 C143.090718,79.4104451 143.804699,79.3736742 144.501078,79.4960464 C144.197823,79.9376591 143.905025,80.5731505 144.333765,80.9501369 C144.465091,81.0385703 144.616388,81.0905171 144.772962,81.1009315 C145.336898,81.1757629 145.910015,81.113041 146.446095,80.9178238 C146.699186,80.7885192 146.979371,80.7256199 147.261747,80.7347161 C147.780236,80.8673919 148.097737,81.4060346 147.972829,81.9410727 C147.82476,82.4538718 147.496735,82.8915717 147.052606,83.1689714 C145.590339,84.1665272 143.719238,84.2735982 142.158693,83.4490185 C141.719495,83.2012845 141.311669,82.8889244 140.862015,82.6411904 C139.99702,82.2351591 139.082314,81.9525086 138.143174,81.8010492 C135.394095,81.2148944 132.691958,80.4155608 130.059852,79.4098781 C129.254025,79.2123559 128.562231,78.6828002 128.146206,77.9450165 C127.612895,76.5878653 128.595861,74.3151756 130.164423,75.198401 C131.983954,76.2862761 133.625716,77.6865115 135.602104,78.5266527 Z" id="Path" fill="#FCBDBA"></path>
                <path d="M121.227757,70.0779339 C124.384199,72.2418253 127.905003,73.7550065 131.601714,74.5364828 C131.76115,74.5364828 131.952473,74.6479465 131.994989,74.8151421 C132.012019,74.9289728 131.985258,75.0452372 131.920585,75.1383869 C131.165716,76.7319314 130.211294,78.2126243 129.082628,79.5412038 C128.961498,79.7098069 128.80515,79.8470735 128.625579,79.9424732 C128.268733,80.0520791 127.884659,80.003747 127.562673,79.8087168 C125.174679,78.8055433 122.836287,77.6909061 120.547497,76.4648051 C118.510541,75.5279205 116.695872,74.1311264 115.23297,72.3740866 C114.50337,71.4623184 114.071291,70.3295468 114,69.1416387 C114,67.8263668 115.147938,65.4633359 116.731667,66.1098255 C117.443814,66.3996312 118.070928,67.32478 118.61301,67.8486595 C119.440206,68.6472387 120.313435,69.3917343 121.227757,70.0779339 Z" id="Path" fill="#DDDDDD"></path>
                <path d="M121.227757,70.0779339 C124.384199,72.2418253 127.905003,73.7550065 131.601714,74.5364828 C131.76115,74.5364828 131.952473,74.6479465 131.994989,74.8151421 C132.012019,74.9289728 131.985258,75.0452372 131.920585,75.1383869 C131.165716,76.7319314 130.211294,78.2126243 129.082628,79.5412038 C128.961498,79.7098069 128.80515,79.8470735 128.625579,79.9424732 C128.268733,80.0520791 127.884659,80.003747 127.562673,79.8087168 C125.174679,78.8055433 122.836287,77.6909061 120.547497,76.4648051 C118.510541,75.5279205 116.695872,74.1311264 115.23297,72.3740866 C114.50337,71.4623184 114.071291,70.3295468 114,69.1416387 C114,67.8263668 115.147938,65.4633359 116.731667,66.1098255 C117.443814,66.3996312 118.070928,67.32478 118.61301,67.8486595 C119.440206,68.6472387 120.313435,69.3917343 121.227757,70.0779339 Z" id="Path" fill="url(#linearGradient-3)"></path>
                <path d="M166.556962,64.2823174 C167.734225,65.7654672 167.882761,67.8172008 166.931376,69.4541064 C165.979991,71.0910119 164.122569,71.9795018 162.249386,71.6937158 C162.249386,71.6937158 157.155677,71.81204 158.307954,76.609549 L168,88.9367805 L155.658795,98.6178524 C150.855847,99.7688243 150.737389,94.6808832 150.737389,94.6808832 C151.006974,92.8122229 150.109799,90.9680066 148.472377,90.0249684 C146.834955,89.0819301 144.787589,89.2303001 143.303588,90.3995438 C141.819588,91.5687874 141.198308,93.5230443 141.735101,95.3332673 C142.271895,97.1434904 143.858481,98.4445205 145.740601,98.6178524 C150.123559,100.059256 148.422067,104.318928 148.422067,104.318928 L136.080862,114 L111,82.1923004 L123.222747,72.5112285 C128.025694,71.3602567 128.144153,76.4481978 128.144153,76.4481978 C127.82931,78.5252755 128.962018,80.5518189 130.897375,81.3740258 C132.832732,82.1962327 135.079848,81.6055559 136.359339,79.9382943 C137.63883,78.2710327 137.626162,75.9500757 136.328547,74.2968485 C135.534725,73.3000947 134.367653,72.6705894 133.097865,72.5542555 C128.757982,71.1236082 130.459475,66.8209096 130.459475,66.8209096 L142.919138,57 L152.611185,69.3379883 C152.611185,69.3379883 156.918761,71.0375543 158.318723,66.6595584 C158.507831,64.7839448 159.820051,63.2117995 161.633147,62.6886091 C163.446244,62.1654187 165.39564,62.7963865 166.556962,64.2823174 Z" id="Path" fill="#DDDDDD"></path>
                <path d="M166.556962,64.2823174 C167.734225,65.7654672 167.882761,67.8172008 166.931376,69.4541064 C165.979991,71.0910119 164.122569,71.9795018 162.249386,71.6937158 C162.249386,71.6937158 157.155677,71.81204 158.307954,76.609549 L168,88.9367805 L155.658795,98.6178524 C150.855847,99.7688243 150.737389,94.6808832 150.737389,94.6808832 C151.006974,92.8122229 150.109799,90.9680066 148.472377,90.0249684 C146.834955,89.0819301 144.787589,89.2303001 143.303588,90.3995438 C141.819588,91.5687874 141.198308,93.5230443 141.735101,95.3332673 C142.271895,97.1434904 143.858481,98.4445205 145.740601,98.6178524 C150.123559,100.059256 148.422067,104.318928 148.422067,104.318928 L136.080862,114 L111,82.1923004 L123.222747,72.5112285 C128.025694,71.3602567 128.144153,76.4481978 128.144153,76.4481978 C127.82931,78.5252755 128.962018,80.5518189 130.897375,81.3740258 C132.832732,82.1962327 135.079848,81.6055559 136.359339,79.9382943 C137.63883,78.2710327 137.626162,75.9500757 136.328547,74.2968485 C135.534725,73.3000947 134.367653,72.6705894 133.097865,72.5542555 C128.757982,71.1236082 130.459475,66.8209096 130.459475,66.8209096 L142.919138,57 L152.611185,69.3379883 C152.611185,69.3379883 156.918761,71.0375543 158.318723,66.6595584 C158.507831,64.7839448 159.820051,63.2117995 161.633147,62.6886091 C163.446244,62.1654187 165.39564,62.7963865 166.556962,64.2823174 Z" id="Path" fill="url(#linearGradient-4)"></path>
                <path d="M124.793253,90.8153943 C127.509314,92.9858991 130.336235,95.3191917 133.662024,95.883523 C134.954699,96.166906 136.309488,95.9282572 137.420166,95.221519 C137.807153,94.9961936 138.030458,94.5758043 137.996636,94.1362666 C137.874691,93.6044929 137.209533,93.42 136.666321,93.3223273 C134.125639,92.9822186 131.686,92.1245128 129.504788,90.8045417 C128.69579,90.244056 127.928891,89.6274984 127.209993,88.9596127 L121.811129,84.2496173 C121.677659,84.0906242 121.478133,83.9989413 121.267917,84 C121.046197,84 120.913166,84.2496173 120.813392,84.4449627 C120.478628,85.1116023 120.225588,85.8146657 120.059547,86.5394998 C119.893257,87.3317341 120.059547,87.4402593 120.757962,87.8960653 C122.154794,88.8221474 123.499891,89.795257 124.793253,90.8153943 Z" id="Path" fill="url(#linearGradient-5)"></path>
                <path d="M127.00556,87.5154102 C128.767085,89.212326 130.930015,90.3236655 133.242727,90.7201418 C133.930748,90.7304086 134.608408,90.9061962 135.228226,91.235188 C134.802019,91.5899975 134.344627,92.1966075 134.666881,92.6658717 C134.770296,92.7964698 134.902871,92.8950975 135.051506,92.9520085 C135.5696,93.1954515 136.131436,93.305076 136.69396,93.2724816 C136.972316,93.2258014 137.256664,93.249282 137.525582,93.3411545 C137.744977,93.4820899 137.904438,93.7133314 137.968793,93.9838738 C138.033148,94.2544162 137.99711,94.5420328 137.868627,94.7832837 C137.597141,95.2681571 137.16449,95.6172139 136.662774,95.7561487 C134.999967,96.3334684 133.183566,95.8685782 131.922527,94.5429288 C131.558692,94.1537828 131.257229,93.7074095 130.882999,93.329709 C130.167863,92.6502572 129.370134,92.0839716 128.512876,91.6472249 C126.047481,90.2049055 123.684503,88.5597129 121.444086,86.7256728 C120.729477,86.2792252 120.211333,85.5309743 120.009537,84.6540427 C119.864004,83.0974587 121.4129,81.0716105 122.681124,82.4679579 C124.157254,84.1161056 125.352711,86.0046081 127.00556,87.5154102 Z" id="Path" fill="#FCBDBA"></path>
                <path d="M97.2350023,95.0218607 C97.4321997,95.255654 97.6806451,95.4419037 97.9614686,95.5664638 C99.0690322,96.191666 100.220375,96.7376626 101.40668,97.200273 C104.489229,98.2921967 107.863506,98.2651757 110.927793,97.1240285 C112.153874,96.6872731 113.304738,96.0664221 114.339983,95.2832702 C114.732757,95.0185234 115.063155,94.6730016 115.308605,94.2703085 C115.600727,93.6135858 115.692546,92.8867041 115.572775,92.1790327 C115.297598,88.5084081 114.890336,84.7179708 115.572775,81.1562667 C115.792097,79.9327033 116.161741,78.7402566 116.673481,77.6054548 C117.564779,76.0568581 118.302042,74.4262927 118.874894,72.7367034 C119.272291,70.6350042 118.712451,68.4668661 117.344912,66.811422 C115.913994,65.0033399 113.294312,63.4022069 110.982828,64.2191115 C108.312813,65.2146893 105.997185,66.9645118 104.323553,69.2512438 C102.498614,71.812059 101.053068,74.6179274 100.030797,77.5836706 C99.5905144,78.7491212 99.1612389,79.9145717 98.8200198,81.1126985 C98.0912721,84.0109566 97.6198443,86.9666851 97.4111153,89.9461602 C97.2900376,91.1878552 97.1799669,92.4295501 97.0478822,93.6712451 C96.9439838,94.1290641 97.0104214,94.6086047 97.2350023,95.0218607 L97.2350023,95.0218607 Z" id="Path" fill="#DDDDDD"></path>
                <path d="M111.918409,96 C112.984054,95.5794326 113.984323,94.981593 114.884104,94.2274681 C115.225482,93.972534 115.512646,93.6398187 115.725979,93.2520512 C115.979875,92.6196694 116.05968,91.9197292 115.955581,91.2382871 C115.716412,87.7037117 115.362442,84.0537644 115.955581,80.6240725 C115.572911,80.2045383 115.142406,79.8269576 114.721469,79.4493768 C113.764793,78.5893317 112.38718,76.8902183 111,77.0055902 C111.334837,78.6103084 111.602706,80.2464917 111.803608,81.882675 C112.00451,83.5188583 111.927976,85.2179717 112.167145,86.8331783 C112.484463,89.6911403 112.42324,92.5843857 111.985376,95.4231405 C111.944647,95.6123171 111.922201,95.8056696 111.918409,96 Z" id="Path" fill="url(#linearGradient-6)"></path>
                <path d="M124.61628,82.0872695 C124.799819,82.1798051 124.938055,82.341502 125,82.5359732 C125.003327,82.7272137 124.932609,82.9124925 124.802268,83.0537083 C123.745942,84.5290896 122.421488,85.797066 120.896522,86.792906 C120.749404,86.9086807 120.571975,86.9805222 120.385055,87 C120.170651,86.9772701 119.970119,86.8841067 119.815467,86.7353799 C117.490619,84.9750806 115.16577,83.2838128 112.899043,81.442977 C111.43318,80.4134277 110.138896,79.1634506 109.063043,77.738295 C108.272591,76.4519118 107.669913,75.0613519 107.272909,73.6079197 C105.889624,69.2934608 110.074352,67.4181093 112.875794,70.5820458 C116.572304,74.7699472 119.943334,78.8543016 124.61628,82.0872695 Z" id="Path" fill="#DDDDDD"></path>
                <path d="M125.056757,140.363049 C124.955155,140.259077 124.991708,140.139634 125.152406,140.050501 C125.362836,139.964139 125.707174,140.005264 125.974993,140.050501 C126.566393,140.173812 127.184761,140.271619 127.821032,140.342486 C128.461852,140.414979 129.142202,140.384265 129.734025,140.256125 C130.059234,140.173875 130.374878,140.050501 130.747912,140.062839 C130.935753,140.074895 131.115255,140.104362 131.273985,140.1492 C131.848311,140.277209 132.464179,140.367322 133.100893,140.416511 C133.368731,140.426302 133.627515,140.462921 133.856526,140.523435 C133.925759,140.544388 133.976355,140.574843 134,140.609797 C134,140.692046 133.818266,140.753733 133.636531,140.78252 C131.647018,141.11563 129.418381,140.992256 127.294959,140.893557 C127.057008,140.879154 126.815537,140.879154 126.577586,140.893557 C126.223683,140.922344 125.793259,141.000481 125.496745,140.893557 C125.242863,140.736713 125.090971,140.553571 125.056757,140.363049 Z" id="Path" fill="#473F47"></path>
                <path d="M102.02363,145.769192 C101.959016,145.52148 102.02887,145.259058 102.209213,145.072011 C102.453401,144.902426 102.785498,145.072011 103.049221,145.175646 C103.61675,145.523851 104.214864,145.823343 104.836681,146.070676 C105.466788,146.296602 106.160083,146.296602 106.79019,146.070676 C107.141821,145.929355 107.493453,145.6844 107.874387,145.759771 C108.059192,145.811988 108.2317,145.898385 108.382299,146.014148 C108.920175,146.394062 109.516816,146.689759 110.150224,146.890335 C110.422202,146.944579 110.67675,147.060881 110.892557,147.229504 C110.956471,147.281347 110.995351,147.356349 111,147.436774 C111,147.625202 110.785114,147.738258 110.589763,147.785365 C108.470207,148.30354 106.252975,147.785365 104.133418,147.26719 C103.895281,147.200544 103.648802,147.165675 103.400853,147.163555 C103.039454,147.163555 102.580379,147.314296 102.306888,146.99397 C102.10908,146.61453 102.011764,146.193748 102.02363,145.769192 L102.02363,145.769192 Z" id="Path" fill="#473F47"></path>
                <path d="M122.050934,59.8086057 C121.865484,60.3851222 121.680035,60.9616386 121.527312,61.5486372 C121.354166,62.4241305 121.113508,63.2860404 120.807331,64.1272382 C120.492708,64.9762263 119.807098,65.6503402 118.931016,65.9720909 C118.013791,66.2537106 117.028354,65.791812 116.694712,64.9238792 C116.171089,65.0391825 115.98564,65.6576274 115.996548,66.1817333 C116.084276,66.694477 115.984026,67.2205826 115.712919,67.670194 C115.222023,68.2257463 114.262049,67.9951397 113.618429,67.5968192 C111.625743,66.3065748 110.63945,63.989019 111.120313,61.7268332 C111.654845,59.389321 111.633027,56.5905955 113.018445,54.5675468 C113.516263,53.8848592 114.150354,53.304075 114.88385,52.8589616 C115.526714,52.4067109 116.276408,52.1149607 117.065611,52.00991 C117.618096,51.9787712 118.172409,52.0210995 118.71284,52.1356954 C121.025507,52.5130517 122.989091,52.8379973 123,55.385152 C122.92899,56.8985738 122.608657,58.3916005 122.050934,59.8086057 Z" id="Path" fill="#FCBDBA"></path>
                <path d="M119.788369,55.5625353 C119.421746,55.5625353 118.999575,55.4628365 118.677392,55.7120835 C118.355209,55.9613305 118.332989,56.5221362 118.133014,56.9583184 C117.744172,57.7683711 116.755403,57.8805322 116.011048,58.3042521 C115.09179,58.8560817 114.525467,59.9389306 114.544559,61.1082805 C114.558909,60.7413419 114.477851,60.3776376 114.311254,60.0614432 C114.221483,59.9100192 114.080028,59.8068124 113.920234,59.7761515 C113.760441,59.7454907 113.596447,59.7900888 113.466912,59.8994327 C113.366734,60.0326283 113.308202,60.1989625 113.300265,60.3730019 C113.238805,61.0966561 113.516368,61.8042801 114.03351,62.2423542 C113.562453,63.3334337 112.569959,64.0189318 111.489374,63.9995454 C111.154985,64.008499 110.828483,63.8849442 110.567263,63.6505997 C110.402932,63.4610147 110.281085,63.230365 110.21175,62.9776328 C109.578494,60.983657 110.545043,58.8525954 110.778348,56.7464585 C110.800565,56.0027627 110.908867,55.2654611 111.100532,54.5530851 C111.306509,54.0498663 111.588394,53.5903181 111.933764,53.1946891 C112.970791,51.797658 114.343504,50.7638906 115.888841,50.2161877 C117.377549,49.7550808 120.332747,49.9918655 121.499273,51.3128744 C122.038822,52.0833943 122.151722,53.1265137 121.792217,54.0194771 C121.432712,54.9124405 120.660432,55.5071322 119.788369,55.5625353 Z" id="Path" fill="#FF681C"></path>
                <path d="M119,219 L119,198.906999 C121.693802,193.172278 127.004752,197.081339 127.004752,197.081339 C128.701068,198.824777 131.308516,199.38031 133.58953,198.484266 C135.870544,197.588222 137.365925,195.420988 137.365925,193.011191 C137.365925,190.601394 135.870544,188.43416 133.58953,187.538116 C131.308516,186.642072 128.701068,187.197604 127.004752,188.941043 C121.989463,192.162796 119,187.115382 119,187.115382 L119,167.011642 L139.488223,167.011642 C139.488223,167.011642 144.678719,164.079847 141.349793,159.161304 C139.572062,157.49771 139.005603,154.940561 139.919272,152.703548 C140.83294,150.466535 143.042803,149 145.5,149 C147.957197,149 150.16706,150.466535 151.080728,152.703548 C151.994397,154.940561 151.427938,157.49771 149.650207,159.161304 C149.650207,159.161304 145.664256,164.369805 151.511777,167.011642 L172,167.011642 L172,219 L119,219 Z" id="Path" fill="url(#linearGradient-7)"></path>
                <path d="M79.6804915,218 L76,218 L113.676038,119.082722 C113.935398,118.429246 114.570191,118 115.276725,118 L115.276725,118 C115.842572,118 116.372694,118.274886 116.694554,118.737635 C117.016414,119.200385 117.088855,119.790913 116.888301,120.317023 L79.6804915,218 Z" id="Path" fill="#DDDDDD"></path>
                <polygon id="Path" fill="#DDDDDD" points="100.612617 218 97 218 134.387383 118 138 118"></polygon>
                <polygon id="Path" fill="#DDDDDD" points="130.041534 134 111 134 111.958466 133 131 133"></polygon>
                <polygon id="Path" fill="#DDDDDD" points="124.0314 150 105 150 105.9686 149 125 149"></polygon>
                <polygon id="Path" fill="#DDDDDD" points="118.041534 165 99 165 99.9584665 164 119 164"></polygon>
                <polygon id="Path" fill="#DDDDDD" points="111.041534 180 92 180 92.9584665 179 112 179"></polygon>
                <polygon id="Path" fill="#DDDDDD" points="107.041534 196 88 196 88.9691161 195 108 195"></polygon>
                <path d="M113.382306,133.507947 L108.295419,146.655972 L127.017378,146.655972 L126.022117,149.235717 L107.333333,149.235717 L102.257504,162.372903 L120.935229,162.372903 L119.939968,164.952648 L101.229068,164.952648 L96.1532385,178.100674 L114.853081,178.100674 L113.85782,180.680418 L95.1579779,180.680418 L90.07109,193.828444 L108.759874,193.828444 L107.753555,196.408189 L89.0758294,196.408189 L80.7377567,218 L77,218 L115.262243,118.972495 C115.603878,118.273861 116.381466,117.887042 117.158452,118.029204 C117.935438,118.171367 118.518288,118.807102 118.579779,119.579494 C118.579732,119.786636 118.542294,119.992137 118.469194,120.186493 L114.322275,130.928202 L133,130.928202 L132.004739,133.507947 L113.382306,133.507947 Z" id="Path" fill="url(#linearGradient-8)"></path>
                <polygon id="Path" fill="url(#linearGradient-9)" points="100.612617 218 97 218 134.387383 118 138 118"></polygon>
                <path d="M282.547382,133.108739 C281.988017,133.59974 281.317812,133.935516 280.599429,134.084673 C279.93984,134.113386 279.282292,133.990396 278.673867,133.724507 L269.359518,130.506248 C267.899505,131.686586 267.56712,133.837431 268.598249,135.432391 C269.511266,136.470396 270.698977,137.205916 272.012764,137.546915 L278.405183,139.928659 C281.3928,141.377191 284.849479,141.355863 287.820288,139.870567 C289.72346,139.208327 291.81695,138.38343 292.73495,136.524508 C293.652951,134.665586 292.981243,132.202515 293.249926,130.0299 C293.603344,128.649961 293.854106,127.243888 294,125.824089 C294,124.604171 293.037219,122.768486 291.637827,123.024088 C290.428753,123.244835 289.622704,125.429068 288.984582,126.346911 C287.185497,128.929949 285.014396,131.210539 282.547382,133.108739 L282.547382,133.108739 Z" id="Path" fill="#FFFFFF"></path>
                <path d="M269.530741,129.795522 C269.439232,129.566884 269.299124,129.359204 269.119406,129.185809 C268.938185,129.007817 268.663916,128.951763 268.423302,129.043543 C268.188295,129.182836 268.057061,129.43967 268.085797,129.704065 C268.102951,129.796764 268.080094,129.892192 268.022515,129.968274 C267.959232,130.029245 267.843215,129.968274 267.748292,129.968274 C266.75687,129.78536 265.744355,129.643094 264.731839,129.541475 C264.510512,129.498777 264.282766,129.576977 264.139352,129.744916 C263.995938,129.912854 263.960162,130.143238 264.046282,130.344264 C264.156267,130.66786 264.32402,130.970482 264.541992,131.238509 C265.058797,132.05146 265.248644,133.118458 266.071313,133.646876 C266.574171,133.930256 267.159199,134.047983 267.737745,133.982218 C268.317832,133.982218 268.887372,133.850113 269.467459,133.880599 C269.850853,133.959615 270.250498,133.916832 270.606539,133.758656 C270.876674,133.564025 271.02406,133.249313 270.996779,132.925382 C270.935669,132.423398 270.751276,131.942672 270.45888,131.523042 C270.131922,130.9743 269.826058,130.384911 269.530741,129.795522 Z" id="Path" fill="#FDB9A9"></path>
                <path d="M295.022992,196.093249 C291.755353,195.223612 292.39244,200.670917 291.52929,202.700068 C290.98292,203.742134 290.287682,204.665576 289.47417,205.42976 C288.673095,206.213762 288.149226,207.32043 288.00476,208.533878 C287.985513,208.759717 288.02492,208.987112 288.117792,209.186105 C288.284398,209.425058 288.517192,209.587528 288.77543,209.64508 C290.64374,210.286344 292.650706,210.052602 294.37563,208.992852 C295.183597,208.544983 295.854545,207.815372 296.297166,206.90331 C296.655185,205.920083 296.823623,204.8559 296.790395,203.787113 C296.893151,201.516397 297.756301,196.805867 295.022992,196.093249 Z" id="Path" fill="#FDB9A9"></path>
                <path d="M292.604538,207 C292.604538,207 281.435363,207.451344 286.169318,210.738051 C290.903273,214.024759 297.967221,209.93952 298.657589,209.187281 C299.347958,208.435041 298.780869,207.150448 298.780869,207.150448 L292.604538,207 Z" id="Path" fill="#DDDDDD"></path>
                <path d="M296.349025,208.573686 C295.472198,209.686498 290.803092,211.144281 288.731587,210.988488 C286.660082,210.832694 284.807784,209.875676 285.016031,208.506917 C285.224277,207.138159 288.863111,203.988901 289.553613,204 C290.244114,204.011158 290.781171,205.624735 292.162174,205.958578 C293.416893,206.169778 294.689901,205.706669 295.526999,204.734485 C295.780813,204.390333 296.233108,204.266344 296.623034,204.434026 C297.209409,205.775403 297.106904,207.324032 296.349025,208.573686 Z" id="Path" fill="#FFFFFF"></path>
                <path d="M307.022798,199.098104 C303.754837,198.203621 304.391986,203.667217 303.528751,205.685846 C302.982619,206.732454 302.287355,207.660642 301.47343,208.429731 C300.672943,209.209852 300.148881,210.313363 300.003875,211.524156 C299.986865,211.753909 300.026089,211.98459 300.116918,212.188974 C300.286286,212.424325 300.51787,212.586059 300.774621,212.648303 C302.643513,213.28499 304.649041,213.051259 306.375371,211.995573 C307.18191,211.538994 307.851916,210.805703 308.297097,209.89233 C308.65366,208.912063 308.822084,207.851382 308.790374,206.785817 C308.89314,204.489173 309.756375,199.787097 307.022798,199.098104 Z" id="Path" fill="#FDB9A9"></path>
                <path d="M302.604538,210 C302.604538,210 291.435363,210.438068 296.169318,213.735102 C300.903273,217.032137 307.967221,212.928136 308.657589,212.17881 C309.347958,211.429483 308.780869,210.149865 308.780869,210.149865 L302.604538,210 Z" id="Path" fill="#DDDDDD"></path>
                <path d="M308.364914,211.54344 C307.486859,212.665016 302.811216,214.145498 300.736811,213.988477 C298.662406,213.831456 296.807515,212.8669 297.016053,211.487361 C297.224591,210.107821 300.86852,206.933759 301.559988,207.001054 C302.251456,207.068348 302.789265,208.638556 304.172202,208.963813 C305.426901,209.181625 306.702373,208.718865 307.541738,207.741294 C307.793508,207.390835 308.249136,207.265124 308.639306,207.438469 C309.203468,208.771514 309.10122,210.301167 308.364914,211.54344 Z" id="Path" fill="#FFFFFF"></path>
                <path d="M298,156 L302.850528,205 L309.841664,204.169492 C312.608514,192.214541 311.925341,156.448037 311.925341,156.448037 L298,156 Z" id="Path" fill="#473F47"></path>
                <path d="M303,154.06373 L298.093589,202 L290.998872,201.18734 C286.956265,170.862275 290.29631,152 290.29631,152 L303,154.06373 Z" id="Path" fill="#473F47"></path>
                <path d="M290.6978,137.051164 C290.612608,136.171686 290.378332,135.292207 290.29314,134.391278 C290.080021,132.579125 290.112263,130.746215 290.388981,128.942802 C290.697106,127.018638 291.274334,125.148142 292.103459,123.387073 C292.848884,121.864073 294.233245,121.242003 295.745393,120.448328 C297.031728,119.751865 298.424653,119.276974 299.866529,119.043307 C300.881053,118.949927 301.903703,119.007751 302.901475,119.214913 C305.989664,119.804807 310.046907,121.359982 312.155396,123.858988 C313.742086,125.693022 313.923118,128.331457 313.976363,130.766111 C314.040256,134.123145 313.976363,137.480178 313.763384,140.837212 C313.763384,141.319852 313.710139,141.802493 313.667544,142.295859 C313.495725,146.030546 312.935364,149.736775 311.995662,153.353691 C311.81942,154.483772 311.211848,155.49981 310.302482,156.185182 C307.885174,157.600928 304.200644,156.817978 301.591656,156.453316 C298.130753,155.95995 294.584659,155.445134 291.517767,153.750529 C290.88121,153.475496 290.366227,152.975887 290.069513,152.345508 C289.916678,151.551623 290.017327,150.729383 290.357034,149.996657 C291.421927,146.564547 290.59131,142.950105 290.59131,139.442916 C290.59131,138.810121 290.665853,138.1666 290.665853,137.523079 C290.6978,137.372925 290.6978,137.212044 290.6978,137.051164 Z" id="Path" fill="#FFFFFF"></path>
                <path d="M303.036182,144.318955 C303.864389,144.838925 304.777717,145.206031 305.733438,145.403099 C308.581138,146.23789 311.50406,146.682389 314.330269,147.571388 C314.522492,147.609085 314.700852,147.699056 314.846079,147.831582 C314.961691,148.011473 315.014624,148.225087 314.996523,148.438703 C315.009784,149.273732 314.886336,150.105244 314.631158,150.89971 C314.548208,151.296431 314.322285,151.647981 313.997142,151.886281 C313.584129,152.037906 313.131375,152.037906 312.718363,151.886281 L302.069038,149.609578 C301.307294,149.413201 300.523315,149.318434 299.737148,149.327701 C298.80567,149.4371 297.891958,149.666645 297.0184,150.010712 C295.385196,150.53842 293.704185,150.901575 292,151.094856 C292.09067,149.044024 292.33857,147.00335 292.741477,144.991125 C292.897797,144.396282 293.121348,143.82153 293.407731,143.278177 C293.751294,142.741576 294.155157,142.246817 294.611287,141.803741 C296.330654,139.993221 297.523464,137.72736 299.264322,135.916839 C300.177736,134.962792 301.316816,134.355672 302.122769,133.336576 C302.44515,132.924601 305.23912,129.37945 304.970469,129 C305.507771,129.672169 306.84028,129 307.323851,129.693852 C307.62474,130.12751 307.323851,130.712948 307.044454,131.157447 C304.985683,134.635875 303.54893,138.4523 302.799769,142.432545 C302.584848,143.354067 302.262467,143.67931 303.036182,144.318955 Z" id="Path" fill="url(#linearGradient-10)"></path>
                <path d="M292.688896,96.8832141 C294.718073,98.1832305 295.754141,100.580226 295.308508,102.943816 C294.862874,105.307407 293.024536,107.165564 290.660423,107.642011 C290.660423,107.642011 284.531845,109.944394 287.973775,115.25924 L305,126.071831 L294.21025,143.049213 C288.880114,146.481269 286.571107,140.370272 286.571107,140.370272 C286.096548,138.009923 284.230525,136.174331 281.857163,135.733204 C279.483801,135.292078 277.079859,136.33403 275.78433,138.365381 C274.488801,140.396732 274.56193,143.009428 275.969067,144.965565 C277.376204,146.921703 279.834687,147.828338 282.179679,147.255903 C288.114042,147.137556 287.855088,153.022618 287.855088,153.022618 L277.065338,170 L233,142.027127 L243.735801,125.200368 C249.065937,121.779071 251.374944,127.879309 251.374944,127.879309 C251.842616,130.248583 253.709523,132.095407 256.089253,132.542904 C258.468983,132.990401 260.882243,131.948442 262.183209,129.911752 C263.484176,127.875062 263.410826,125.253844 261.997987,123.292659 C260.585148,121.331474 258.117374,120.425319 255.766372,121.004437 C249.83201,121.122784 250.101753,115.237722 250.101753,115.237722 L261.04256,98.0881994 L278.079574,108.911549 C278.079574,108.911549 283.981568,109.169761 283.86288,103.252422 C283.482214,101.682215 283.75463,100.025241 284.618163,98.6584157 C286.385129,95.9889681 289.959627,95.2027379 292.688896,96.8832141 Z" id="Path" fill="#DDDDDD"></path>
                <path d="M319.682796,133.017788 C320.10746,133.776244 320.454883,134.577461 320.719577,135.408791 C321.054527,136.86602 321.089835,138.378762 320.823255,139.850742 C320.697827,141.293696 320.192573,142.674683 319.361393,143.846372 C317.609233,145.971708 314.478154,146.173614 311.761788,145.907948 C308.678264,145.616254 305.633746,144.989297 302.679585,144.037652 C302.404908,143.974343 302.146766,143.851111 301.922735,143.676345 C301.683323,143.398651 301.518913,143.06162 301.445816,142.698691 C301.219387,141.817905 301.070188,140.918145 301,140.010142 C304.110343,139.096248 307.552457,139.840115 310.797582,139.351288 C311.246255,139.349333 311.666388,139.125402 311.925617,138.750046 C312.184847,138.374689 312.251257,137.89412 312.103926,137.459739 C311.948409,135.589444 310.818317,133.952936 310.289559,132.146401 C309.77151,130.407796 309.815147,128.544193 310.413972,126.833062 C310.775113,125.61263 311.638649,124.614955 312.777833,124.102006 C314.07381,123.666312 314.571465,124.707727 315.286844,125.685381 C316.933556,128.010279 318.403215,130.461657 319.682796,133.017788 Z" id="Path" fill="#FFFFFF"></path>
                <path d="M298.439943,140.164029 C298.298746,140.076555 298.128992,140.019864 297.948774,140 C297.668112,140.022206 297.425204,140.158172 297.313847,140.355397 C297.208573,140.551832 297.088579,140.743514 296.954455,140.929499 C296.589934,141.237396 296.060542,141.401831 295.516887,141.376023 C294.979149,141.334973 294.43736,141.334973 293.899623,141.376023 C293.700478,141.406979 293.514962,141.47597 293.360534,141.576503 C293.213392,141.686232 293.109635,141.825141 293.061041,141.977463 C292.875598,142.606332 293.118749,143.263966 293.707947,143.727108 C294.293023,144.178186 295.012024,144.515719 295.804401,144.711283 C296.613058,144.98282 297.509606,145.065292 298.380044,144.948214 C298.857799,144.842558 299.313538,144.686096 299.733754,144.483464 L301.482796,143.745333 C301.628639,143.692814 301.759031,143.618424 301.866147,143.526628 C302.249499,143.162118 301.722391,142.06859 301.374978,141.704081 C300.50067,141.084534 299.511841,140.565682 298.439943,140.164029 Z" id="Path" fill="#FDB9A9"></path>
                <path d="M297.032019,112.019748 C297.032019,111.151004 297.106073,110.272159 297.201286,109.423619 C297.296499,108.575079 297.41287,107.908369 297.560979,107.160846 C297.581236,106.713076 297.805372,106.296108 298.174573,106.019357 C299.397357,105.322153 300.80275,104.971774 302.226409,105.00919 C303.315066,104.935997 304.385912,105.302488 305.178007,106.019357 C305.655714,106.599487 305.939552,107.303449 305.992606,108.039691 C306.042086,109.951532 305.843089,111.861855 305.40017,113.72693 C305.176551,115.191472 305.095097,116.672609 305.156848,118.15146 C304.407155,118.627394 303.545825,118.918895 302.649577,119 C302.232651,118.99622 301.818791,118.931492 301.422389,118.808068 C301.201762,118.760399 301.006482,118.63848 300.87227,118.464612 C300.824874,118.302721 300.824874,118.13152 300.87227,117.96963 C300.882732,117.814899 300.882732,117.659684 300.87227,117.504953 L300.87227,117.504953 C300.934116,116.639764 300.916416,115.771063 300.819374,114.908825 C300.82308,114.832964 300.792215,114.759285 300.734741,114.706791 C300.676632,114.686731 300.613002,114.686731 300.554894,114.706791 L300.300993,114.706791 C299.850871,114.752287 299.396977,114.752287 298.946855,114.706791 C298.405257,114.656136 297.901422,114.419179 297.529241,114.040081 C297.099411,113.451966 296.92151,112.729111 297.032019,112.019748 L297.032019,112.019748 Z" id="Path" fill="#FDB9A9"></path>
                <path d="M299.26183,106.428771 C298.954396,106.428771 298.677705,106.602485 298.411262,106.428771 C298.132473,106.184002 297.887545,105.898928 297.683668,105.581916 C297.193982,104.893886 296.953948,104.042345 297.007313,103.182494 C297.026441,102.793415 297.147053,102.41758 297.355738,102.096783 C297.583265,101.804966 297.875495,101.577425 298.206306,101.434499 C298.841845,101.102923 299.549305,100.956766 300.255867,101.011071 C301.279732,101.15208 302.234554,101.635059 302.981784,102.389925 C303.139174,102.563908 303.331936,102.697581 303.545413,102.780781 C303.741397,102.824419 303.943802,102.824419 304.139786,102.780781 C305.436686,102.665135 306.725558,103.08529 307.736766,103.953349 C308.310643,104.485348 308.761546,105.169346 309.355919,105.636202 C309.950292,106.103057 310.534417,106.276771 310.841851,106.873913 C311.104058,107.440246 311.036315,108.115734 310.667638,108.611051 C310.286108,109.087107 309.761298,109.409211 309.181706,109.523048 C309.310356,109.879871 309.298129,110.27652 309.147779,110.623689 C308.997429,110.970859 308.721594,111.239366 308.382377,111.368757 C308.145727,111.406969 307.916982,111.487751 307.706022,111.607614 C307.562553,111.727042 307.501066,111.911613 307.357597,112.031041 C307.019419,112.324183 306.578764,112.421897 306.435294,112.921325 C306.39246,113.131653 306.375241,113.346929 306.384055,113.561894 C306.359279,113.880396 306.236926,114.181592 306.03563,114.419606 C305.902408,114.571606 305.666709,114.951605 305.472001,114.995033 C305.277292,115.038462 305.10308,114.788748 305.041593,114.571606 C304.801314,113.650919 304.862727,112.671127 305.215805,111.792185 C305.469456,111.367758 305.617528,110.88219 305.646213,110.38076 C305.646213,109.881333 304.969858,109.490477 304.621433,109.783619 C304.273007,110.076761 304.252512,110.782473 303.883591,110.641331 C304.356687,109.190855 303.754841,107.592159 302.469394,106.88477 C301.779067,106.661046 301.05961,106.554773 300.33785,106.569913 C300.000775,106.494628 299.657531,106.454627 299.313069,106.450485 L299.26183,106.428771 Z" id="Path" fill="#473F47"></path>
                <path d="M301,115.942466 C302.020266,115.73526 303.018495,115.419528 303.979726,115 C304.158287,116.780087 303.141824,118.449734 301.544571,119 L301.544571,119 C301.621715,118.06299 301.621715,117.120572 301.544571,116.183562 C301.543556,116.102168 301.514266,116.02407 301.462371,115.964384 C301.405934,115.942621 301.344135,115.942621 301.287698,115.964384 L301.051375,115.964384 L301,115.942466 Z" id="Path" fill="#DE9F93"></path>
                <path d="M268.657026,123.979478 C269.006046,124.459704 269.094646,125.071229 268.895385,125.624648 C268.69844,126.170168 268.410975,126.681565 268.044102,127.139075 L266.262081,129.666753 C265.796712,130.320463 265.127036,131.061334 264.343855,130.995963 C262.391577,130.865221 261.528943,126.005978 262.255372,124.567817 C263.095305,122.770115 267.374425,122.44326 268.657026,123.979478 Z" id="Path" fill="#FDB9A9"></path>
                <path d="M277,167.011642 L277,219 L224,219 L224,198.89626 C224,198.89626 226.989463,193.80589 232.004752,197.0706 C233.701068,198.814038 236.308516,199.36957 238.58953,198.473527 C240.870544,197.577483 242.365925,195.410249 242.365925,193.000452 C242.365925,190.590655 240.870544,188.42342 238.58953,187.527377 C236.308516,186.631333 233.701068,187.186865 232.004752,188.930303 C232.004752,188.930303 226.693802,192.839364 224,187.104643 L224,167.011642 L244.488223,167.011642 C250.335744,164.369805 246.349793,159.161304 246.349793,159.161304 C244.572062,157.49771 244.005603,154.940561 244.919272,152.703548 C245.83294,150.466535 248.042803,149 250.5,149 C252.957197,149 255.16706,150.466535 256.080728,152.703548 C256.994397,154.940561 256.427938,157.49771 254.650207,159.161304 C251.365083,164.079847 256.511777,167.011642 256.511777,167.011642 L277,167.011642 Z" id="Path" fill="#DDDDDD"></path>
                <path d="M277,167.011642 L277,219 L224,219 L224,198.89626 C224,198.89626 226.989463,193.80589 232.004752,197.0706 C233.701068,198.814038 236.308516,199.36957 238.58953,198.473527 C240.870544,197.577483 242.365925,195.410249 242.365925,193.000452 C242.365925,190.590655 240.870544,188.42342 238.58953,187.527377 C236.308516,186.631333 233.701068,187.186865 232.004752,188.930303 C232.004752,188.930303 226.693802,192.839364 224,187.104643 L224,167.011642 L244.488223,167.011642 C250.335744,164.369805 246.349793,159.161304 246.349793,159.161304 C244.572062,157.49771 244.005603,154.940561 244.919272,152.703548 C245.83294,150.466535 248.042803,149 250.5,149 C252.957197,149 255.16706,150.466535 256.080728,152.703548 C256.994397,154.940561 256.427938,157.49771 254.650207,159.161304 C251.365083,164.079847 256.511777,167.011642 256.511777,167.011642 L277,167.011642 Z" id="Path" fill="url(#linearGradient-11)"></path>
                <path d="M187.374793,140.494526 C187.367458,142.949769 185.869847,145.154665 183.589896,146.066938 C181.309944,146.979212 178.704331,146.416133 177.004752,144.643875 C171.989463,141.35943 169,146.505061 169,146.505061 L169,167 L222,167 L222,114 L169,114 L169,134.483991 C171.693802,140.330304 177.004752,136.345177 177.004752,136.345177 C178.704331,134.572918 181.309944,134.00984 183.589896,134.922114 C185.869847,135.834387 187.367458,138.039283 187.374793,140.494526 L187.374793,140.494526 Z" id="Path" fill="#DDDDDD"></path>
                <path d="M192.86712,173.845264 C191.094516,175.507783 190.529691,178.063279 191.440724,180.298846 C192.351757,182.534413 194.555246,184 197.005356,184 C199.455465,184 201.658954,182.534413 202.569987,180.298846 C203.481021,178.063279 202.916195,175.507783 201.143592,173.845264 C201.143592,173.845264 197.169138,168.64013 202.999793,166 L191,166 C191,166 196.186444,168.9299 192.86712,173.845264 Z" id="Path" fill="#DDDDDD"></path>
                <path d="M169,115 L169,135.093001 C171.693802,140.827722 177.004752,136.918661 177.004752,136.918661 C178.701068,135.175223 181.308516,134.61969 183.58953,135.515734 C185.870544,136.411778 187.365925,138.579012 187.365925,140.988809 C187.365925,143.398606 185.870544,145.56584 183.58953,146.461884 C181.308516,147.357928 178.701068,146.802396 177.004752,145.058957 C171.989463,141.837204 169,146.884618 169,146.884618 L169,166.988358 L189.477273,166.988358 C189.477273,166.988358 194.667769,169.920153 191.338843,174.838696 C189.561112,176.50229 188.994652,179.059439 189.908321,181.296452 C190.82199,183.533465 193.031853,185 195.48905,185 C197.946246,185 200.156109,183.533465 201.069778,181.296452 C201.983447,179.059439 201.416987,176.50229 199.639256,174.838696 C199.639256,174.838696 195.653306,169.630195 201.500826,166.988358 L222,166.988358 L222,115 L169,115 Z" id="Path" fill="url(#linearGradient-12)"></path>
                <path d="M171,166 L171,219 L223.728245,219 L223.728245,198.505061 C223.728245,198.505061 226.70238,193.315637 231.691953,196.643875 C233.379572,198.421239 235.97365,198.987582 238.242968,198.074102 C240.512286,197.160622 242,194.951215 242,192.494526 C242,190.037837 240.512286,187.82843 238.242968,186.91495 C235.97365,186.00147 233.379572,186.567813 231.691953,188.345177 C231.691953,188.345177 226.408235,192.330304 223.728245,186.483991 L223.728245,166 L203.355969,166 C197.538431,168.693245 201.503944,174.003099 201.503944,174.003099 C203.272559,175.699064 203.836114,178.305973 202.92713,180.586516 C202.018146,182.867059 199.819615,184.362131 197.375017,184.362131 C194.930419,184.362131 192.731887,182.867059 191.822903,180.586516 C190.913919,178.305973 191.477474,175.699064 193.24609,174.003099 C196.51437,168.988845 191.394065,166 191.394065,166 L171,166 Z" id="Path" fill="#DDDDDD"></path>
                <path d="M119,219 L119,198.906999 C121.693802,193.172278 127.004752,197.081339 127.004752,197.081339 C128.701068,198.824777 131.308516,199.38031 133.58953,198.484266 C135.870544,197.588222 137.365925,195.420988 137.365925,193.011191 C137.365925,190.601394 135.870544,188.43416 133.58953,187.538116 C131.308516,186.642072 128.701068,187.197604 127.004752,188.941043 C121.989463,192.162796 119,187.115382 119,187.115382 L119,167.011642 L139.488223,167.011642 C139.488223,167.011642 144.678719,164.079847 141.349793,159.161304 C139.572062,157.49771 139.005603,154.940561 139.919272,152.703548 C140.83294,150.466535 143.042803,149 145.5,149 C147.957197,149 150.16706,150.466535 151.080728,152.703548 C151.994397,154.940561 151.427938,157.49771 149.650207,159.161304 C149.650207,159.161304 145.664256,164.369805 151.511777,167.011642 L172,167.011642 L172,219 L119,219 Z" id="Path" fill="#DDDDDD"></path>
                <path d="M119,219 L119,198.906999 C121.693802,193.172278 127.004752,197.081339 127.004752,197.081339 C128.701068,198.824777 131.308516,199.38031 133.58953,198.484266 C135.870544,197.588222 137.365925,195.420988 137.365925,193.011191 C137.365925,190.601394 135.870544,188.43416 133.58953,187.538116 C131.308516,186.642072 128.701068,187.197604 127.004752,188.941043 C121.989463,192.162796 119,187.115382 119,187.115382 L119,167.011642 L139.488223,167.011642 C139.488223,167.011642 144.678719,164.079847 141.349793,159.161304 C139.572062,157.49771 139.005603,154.940561 139.919272,152.703548 C140.83294,150.466535 143.042803,149 145.5,149 C147.957197,149 150.16706,150.466535 151.080728,152.703548 C151.994397,154.940561 151.427938,157.49771 149.650207,159.161304 C149.650207,159.161304 145.664256,164.369805 151.511777,167.011642 L172,167.011642 L172,219 L119,219 Z" id="Path" fill="url(#linearGradient-13)"></path>
                <path d="M189.956428,140.505474 C189.949131,142.960717 188.459385,145.165613 186.191405,146.077886 C183.923426,146.99016 181.331495,146.427082 179.640841,144.654823 C179.640841,144.654823 174.357778,140.669696 171.678122,146.516009 L171.678122,167 L151.297484,167 C145.480669,164.306755 149.445689,158.996901 149.445689,158.996901 C151.214085,157.300936 151.77757,154.694027 150.868699,152.413484 C149.959828,150.132941 147.761569,148.637869 145.317275,148.637869 C142.872981,148.637869 140.674723,150.132941 139.765852,152.413484 C138.856981,154.694027 139.420466,157.300936 141.188862,158.996901 C144.456735,164.011155 139.337067,167 139.337067,167 L119,167 L119,114 L139.184566,114 C145.001381,116.693245 141.036361,122.003099 141.036361,122.003099 C139.267965,123.699064 138.70448,126.305973 139.613351,128.586516 C140.522222,130.867059 142.720481,132.362131 145.164774,132.362131 C147.609068,132.362131 149.807327,130.867059 150.716198,128.586516 C151.625069,126.305973 151.061584,123.699064 149.293188,122.003099 C146.025315,116.988845 151.144983,114 151.144983,114 L171.721694,114 L171.721694,134.494939 C171.721694,134.494939 174.695459,139.684363 179.684412,136.356125 C181.375067,134.583867 183.966998,134.020788 186.234977,134.933062 C188.502956,135.845335 189.992703,138.050231 190,140.505474 L189.956428,140.505474 Z" id="Path" fill="#DDDDDD"></path>
                <path d="M201.999247,240.863136 C202.037843,243.287632 200.589761,245.49095 198.343558,246.425422 C196.097355,247.359894 193.506255,246.836969 191.802316,245.105295 C191.802316,245.105295 186.492543,241.251731 183.913511,247.048269 L184.20609,267.244399 L163.931427,267.535845 C158.101514,264.966802 161.970062,259.677597 161.970062,259.677597 C163.697001,257.981523 164.215043,255.40982 163.278653,253.181395 C162.342262,250.952971 160.139623,249.515666 157.714719,249.550719 C155.289816,249.585773 153.129973,251.086141 152.258892,253.340693 C151.387811,255.595246 151.98055,258.150892 153.756169,259.796334 C157.126249,264.686151 152.033202,267.708554 152.033202,267.708554 L131.758539,268 L131,215.744807 L151.07961,215.464155 C156.909524,218.033198 153.040975,223.322403 153.040975,223.322403 C151.314037,225.018477 150.795994,227.59018 151.732385,229.818605 C152.668775,232.047029 154.871414,233.484334 157.296318,233.449281 C159.721222,233.414227 161.881064,231.913859 162.752145,229.659307 C163.623226,227.404754 163.030487,224.849108 161.254868,223.203666 C157.884788,218.313849 162.977835,215.291446 162.977835,215.291446 L183.447551,215 L183.740131,235.206925 C183.740131,235.206925 186.774286,240.280244 191.683117,236.923218 C192.807828,235.728224 194.373314,235.042079 196.017625,235.023422 C199.284718,234.999402 201.957602,237.608874 201.999247,240.863136 L201.999247,240.863136 Z" id="Path" fill="#DDDDDD"></path>
                <path d="M139.760459,216.268683 C139.067798,217.0755 138.530211,218.852677 139.626062,219.604979 C140.018046,219.827971 140.452732,219.954691 140.897662,219.975678 L146.749091,220.72798 C146.573342,220.72798 149.633453,257.08924 150.832686,264.819415 C150.977421,265.735261 151.339258,266.880068 152.218006,267 C152.752322,266.966242 153.239651,266.666776 153.530959,266.193183 C154.375627,264.797449 154.856979,263.191785 154.926618,261.537634 C156.380097,249.668991 157.070887,237.710275 156.994261,225.743326 C156.994261,223.377391 156.911555,220.902427 155.795028,218.841774 C154.408595,216.575201 152.185026,215.02503 149.664468,214.567827 C146.325224,213.771913 142.189939,213.412117 139.760459,216.268683 Z" id="Path" fill="url(#linearGradient-14)"></path>
                <path d="M155.081991,290.751242 L155.081991,290.898391 C155.327963,291.588862 156.106877,291.815246 156.762804,291.905799 C157.382113,291.980903 158.005209,292.011152 158.628096,291.996353 C158.926832,292.00844 159.225168,291.962465 159.509498,291.860523 C159.770159,291.73386 160.014773,291.570243 160.237167,291.373797 L162.030717,289.902302 C162.534664,289.518558 162.99566,289.07021 163.404064,288.566638 C163.807857,288.048819 164.020108,287.381942 163.998498,286.698971 C163.954544,286.007828 163.524904,285.42034 162.922368,285.227476 C162.547978,285.176785 162.169384,285.176785 161.794993,285.227476 C160.94442,285.347835 160.109311,284.90441 159.663231,284.095557 C159.589062,283.72617 159.409425,283.392862 159.150788,283.144745 C158.889901,283.004634 158.594111,282.964795 158.310381,283.031553 C157.688197,283.066033 157.07377,283.199464 156.486085,283.427724 C155.886003,283.665162 155.415175,284.189321 155.204977,284.853943 C155.142215,285.158259 155.114665,285.470141 155.122986,285.782116 C155.158851,286.426702 155.158851,287.073112 155.122986,287.717698 C155.041163,288.521973 155.000103,289.33067 155,290.140005 C155.005738,290.346577 155.033254,290.551706 155.081991,290.751242 L155.081991,290.751242 Z" id="Path" fill="#262836"></path>
                <path d="M172.024605,290.453436 C170.871326,290.985903 169.68446,291.441008 168.471748,291.815786 C167.989063,292.025881 167.448337,292.057346 166.9449,291.904635 C166.545458,291.709358 166.24925,291.349396 166.132539,290.917425 C166.026875,290.481652 165.984022,290.032794 166.005302,289.584691 C166.080213,288.891467 166.221151,288.207132 166.426163,287.541166 C166.533826,286.919224 166.621913,286.297282 166.700213,285.675339 C166.82745,284.776978 166.9449,283.888489 167.052562,283 L170.13562,283.661431 C170.458607,283.730535 170.762019,284.984292 170.957769,285.250839 C171.248171,285.648489 171.70176,285.891769 172.190992,285.91227 C172.716281,285.835603 173.245876,285.792738 173.776564,285.783932 C174.480234,285.950234 174.983368,286.575453 175,287.304236 C174.994602,288.016385 174.692709,288.693457 174.168064,289.170063 C173.649005,289.644144 173.053099,290.024814 172.406317,290.295482 L172.024605,290.453436 Z" id="Path" fill="#262836"></path>
                <path d="M170.917329,288.559968 C170.035088,289.072178 169.11857,289.520187 168.174597,289.900658 L168.08922,289.900658 C166.531093,290.521954 164.79154,288.025872 164.79154,288.025872 C164.79154,288.025872 162.593086,274.161171 162.657118,268.406012 C162.731823,264.46024 161.814022,258.83588 160.43732,248.633553 C160.095813,259.053878 158.366931,263.631846 158.804488,267.370519 C159.476831,273.049379 158.676423,287.153878 158.676423,287.153878 C158.676423,287.153878 157.203672,289.900658 155.592184,289.530061 L155.496135,289.530061 C154.525912,289.304782 153.573461,289.006025 152.646682,288.636267 C152.646682,288.636267 150.768392,269.212606 150.768392,264.089642 C150.768392,258.966679 150.981834,254.377812 150.981834,254.377812 L150,238.158728 L154.183466,231.945772 L154.524973,231.804073 L154.845136,231.477075 L159.487503,228 C159.487503,228 159.487503,228.806594 159.402126,230.179984 L163.009298,232.15287 L163.350805,232.414468 L163.702985,232.501668 L169.743397,233.59166 C169.743397,233.59166 171.322869,258.476183 171.877818,263.566446 C172.432768,268.65671 170.917329,288.559968 170.917329,288.559968 Z" id="Path" fill="#DDDDDD"></path>
                <path d="M170.917329,288.559968 C170.035088,289.072178 169.11857,289.520187 168.174597,289.900658 L168.08922,289.900658 C166.531093,290.521954 164.79154,288.025872 164.79154,288.025872 C164.79154,288.025872 162.593086,274.161171 162.657118,268.406012 C162.731823,264.46024 161.814022,258.83588 160.43732,248.633553 C160.095813,259.053878 158.366931,263.631846 158.804488,267.370519 C159.476831,273.049379 158.676423,287.153878 158.676423,287.153878 C158.676423,287.153878 157.203672,289.900658 155.592184,289.530061 L155.496135,289.530061 C154.525912,289.304782 153.573461,289.006025 152.646682,288.636267 C152.646682,288.636267 150.768392,269.212606 150.768392,264.089642 C150.768392,258.966679 150.981834,254.377812 150.981834,254.377812 L150,238.158728 L154.183466,231.945772 L154.524973,231.804073 L154.845136,231.477075 L159.487503,228 C159.487503,228 159.487503,228.806594 159.402126,230.179984 L163.009298,232.15287 L163.350805,232.414468 L163.702985,232.501668 L169.743397,233.59166 C169.743397,233.59166 171.322869,258.476183 171.877818,263.566446 C172.432768,268.65671 170.917329,288.559968 170.917329,288.559968 Z" id="Path" fill="url(#linearGradient-15)"></path>
                <path d="M200.509442,202.0867 C200.586732,202.032373 200.678838,202.002165 200.7738,202 C201.027143,202 201.038158,202.400985 200.950039,202.639409 C200.719732,203.304183 200.385249,203.929461 199.958695,204.492611 C199.820538,204.633013 199.73842,204.817688 199.727382,205.012808 C199.727382,205.207882 199.90362,205.348768 200.0358,205.489655 C200.857783,206.428322 201.173118,207.697543 200.883949,208.903448 C200.5785,210.09049 199.95019,211.173252 199.066486,212.035468 C198.636658,212.573759 198.006215,212.920961 197.315112,213 C196.125499,213 194.638483,211.558621 194.164841,210.561576 C193.813975,209.548361 194.031628,208.428218 194.737618,207.613793 C196.143002,205.311038 198.13178,203.406586 200.509442,202.0867 L200.509442,202.0867 Z" id="Path" fill="#A67C52"></path>
                <path d="M167.183786,189.981697 C167.556865,190.371764 168.132471,190.772668 167.97258,191.281923 C167.887305,191.552804 167.599502,191.715332 167.386314,191.910366 C166.860282,192.477453 166.576662,193.233262 166.597521,194.012399 C166.620057,194.787442 166.511902,195.560687 166.277739,196.29863 C166.003439,197.051362 165.246155,197.504172 164.465645,197.382152 C164.028611,197.262965 163.591576,196.872897 163.165201,197.057096 C162.738826,197.241294 162.738826,197.598857 162.568276,197.902243 C162.093338,198.664067 161.23307,199.084481 160.351126,198.985765 C159.496031,198.855158 158.672067,198.564952 157.920788,198.129782 C157.601646,198.00057 157.324636,197.782816 157.121335,197.50134 C156.99738,197.226652 156.967362,196.917715 157.03606,196.623687 C157.299521,195.741764 157.730464,194.920875 158.304525,194.207433 C159.223607,192.767507 159.776668,191.118185 159.914091,189.40743 C159.999366,188.215556 159.914091,186.904494 160.670907,185.9835 C161.736845,184.726615 164.156523,184.73745 165.424989,185.658444 C166.693455,186.579437 166.011255,188.757317 167.183786,189.981697 Z" id="Path" fill="#A67C52"></path>
                <path d="M165.737298,186.582248 C165.589433,186.871875 165.365885,187.116427 165.0902,187.290148 C164.527966,187.617683 164.029382,187.998048 163.520189,188.346715 C163.006759,188.683801 162.645296,189.20677 162.512413,189.804778 C162.289641,190.861345 162.883699,192.065831 162.512413,193.132964 C162.374506,193.354843 162.024436,193.21749 161.88653,193.006176 C161.748624,192.794863 161.663758,192.530721 161.451595,192.403933 C161.080309,192.192619 160.634765,192.551852 160.475643,192.942782 C160.134049,193.887401 160.602316,194.932117 161.53646,195.309493 C161.483419,195.647594 161.048484,195.784948 160.698414,195.742685 C160.352919,195.648101 159.995888,195.601873 159.637597,195.605331 C158.841983,195.753251 158.576779,196.883778 157.749341,197 C157.193977,196.963186 156.687771,196.67006 156.380886,196.207575 L155.415542,195.151007 C155.259938,194.945461 155.089773,194.751261 154.90635,194.569895 C154.683578,194.400845 154.3229,194.390279 154.142561,194.189531 C153.962222,193.988784 154.142561,193.513328 153.951614,193.259752 C153.861348,193.165541 153.748014,193.096357 153.62276,193.059004 C153.050428,192.770906 152.758488,192.123281 152.92262,191.505851 C152.948484,191.43051 152.948484,191.348746 152.92262,191.273406 C152.92262,191.167749 152.774106,191.125487 152.668024,191.072658 C152.063022,190.682203 151.833483,189.911173 152.127007,189.255363 C152.288411,188.890858 152.518935,188.560807 152.80593,188.283321 C153.012564,187.966345 153.38493,187.797392 153.760666,187.850128 L153.919789,186.466025 C153.91199,185.991255 154.118334,185.538015 154.48204,185.231025 C154.845746,184.924034 155.328491,184.795641 155.797436,184.881175 L155.479191,183.740082 C155.420746,183.594235 155.420746,183.431606 155.479191,183.285758 C155.56657,183.184821 155.68667,183.117535 155.818653,183.095576 C156.188756,182.99044 156.569458,182.926654 156.953728,182.905394 C156.815914,182.585267 156.709341,182.252677 156.635482,181.912221 C156.585901,181.811985 156.602218,181.691825 156.676753,181.608309 C156.751288,181.524794 156.869186,181.494566 156.974944,181.531857 C157.11559,181.553001 157.258625,181.553001 157.399271,181.531857 C157.399271,181.531857 157.187108,180.559815 157.176499,180.475289 C157.112186,180.170089 157.169227,179.85194 157.335622,179.587773 C157.571369,179.320713 157.926183,179.18968 158.27975,179.239106 C158.623992,179.299856 158.954527,179.421521 159.255702,179.598339 C159.255702,179.22854 159.711854,179.038358 160.08314,179.006661 C161.536054,178.925431 162.929418,179.591406 163.774786,180.771128 C163.843449,180.87328 163.921585,180.96879 164.008166,181.056401 C164.177746,181.163967 164.364192,181.242532 164.559791,181.288846 C165.169366,181.557619 165.625164,182.085312 165.800948,182.725777 C165.959843,183.353809 166.024194,184.001865 165.991895,184.64873 C166.016108,185.145803 165.96968,185.64379 165.853988,186.127924 C165.832951,186.283367 165.79379,186.435838 165.737298,186.582248 Z" id="Path" fill="#2F3554"></path>
                <path d="M159.535043,196.644189 C160.440462,197.059147 161.319472,197.53995 162.166175,198.083372 C162.427425,198.236812 162.654022,198.452191 162.829395,198.713758 C163.02028,199.005544 163.05348,199.386902 162.916374,199.71286 C162.688053,200.152941 162.14443,199.998318 161.731278,199.831801 C159.815443,199.120669 157.793609,198.813921 155.773177,198.927852 C155.497745,198.977595 155.220185,198.853378 155.055596,198.606712 C154.960528,198.311488 154.988337,197.985535 155.131703,197.714656 C156.164585,195.442888 157.849814,195.811604 159.535043,196.644189 Z" id="Path" fill="#FFFFFF"></path>
                <path d="M196.827054,213.312231 C196.434263,214.268113 195.854553,215.139622 195.120504,215.877778 C194.413971,216.654894 193.685699,217.400073 192.946556,218.123962 C191.160741,219.814681 189.277169,221.403469 187.305161,222.882466 C185.965536,224.041504 184.369155,224.87971 182.642042,225.330913 C181.941522,225.491456 181.208289,225.447038 180.533312,225.203168 C179.984432,224.934998 179.487782,224.574701 179.065897,224.138625 C178.565889,223.648936 172.761447,217.102001 172.66362,217.102001 C172.334251,217.275011 172.079562,217.558457 171.946217,217.900408 C171.107733,219.601971 170.588591,221.437365 170.413583,223.318928 C170.342946,224.158494 170.342946,225.002327 170.413583,225.841893 C170.641848,228.705512 171.663604,231.654294 170.652718,234.358231 C170.45081,234.92963 170.115882,235.447165 169.674441,235.869881 C169.248994,236.234268 168.759025,236.519296 168.228765,236.710869 C167.291756,237.086601 166.314591,237.357989 165.315675,237.519921 C164.745059,237.622817 164.167316,237.683313 163.587386,237.700893 C161.413438,237.786057 159.348187,237.381531 157.217718,237.47734 C155.413341,237.573148 153.619834,238.030901 151.782848,237.967029 C151.258461,238.067011 150.715668,237.937088 150.297485,237.611494 C149.879303,237.285899 149.627674,236.79729 149.608899,236.274407 C148.904968,232.484011 148.541255,228.640531 148.521925,224.787996 C148.521925,223.446673 148.445837,222.094704 148.358879,220.753381 C148.282791,219.614321 148.598013,216.718766 147.271905,216.495212 C143.902285,215.856487 140.402229,216.665539 137,216.19714 C137.094523,214.016893 138.040007,211.955367 139.641347,210.437967 C140.426751,209.788633 141.279208,209.221352 142.184866,208.745345 C143.227474,208.014244 144.163618,207.147558 144.96752,206.169153 C147.278966,203.373785 150.2075,201.12808 153.532876,199.600927 C154.062607,199.346824 154.620712,199.153911 155.195946,199.026074 L155.337253,199.026074 C155.42031,199.016657 155.5042,199.016657 155.587257,199.026074 C156.314412,198.966343 157.046559,199.009365 157.761205,199.153819 C162.61086,199.941864 167.409057,201.008243 172.131002,202.347446 C172.754075,202.484543 173.344479,202.737515 173.870161,203.092626 C174.237069,203.417349 174.552173,203.794129 174.804959,204.210395 C176.131067,206.169153 177.424566,208.149201 178.761544,210.107959 C179.913737,211.789936 181.04419,213.897729 182.73987,215.132598 C186.431067,213.663161 189.915773,211.738546 193.109602,209.405361 C193.555262,209.075353 194.131358,208.713409 194.642236,208.936962 C194.812191,209.011331 194.964092,209.120184 195.087895,209.256325 C196.337915,210.320867 197.435759,211.491864 196.827054,213.312231 Z" id="Path" fill="#FFFFFF"></path>
            </g>
        </g>
    </g>
</svg>