<?xml version="1.0" encoding="UTF-8"?>
<svg width="380px" height="322px" viewBox="0 0 380 322" version="1.1" xmlns="http://www.w3.org/2000/svg" xmlns:xlink="http://www.w3.org/1999/xlink">
    <title>Illustration 09</title>
    <defs>
        <linearGradient x1="74.4993324%" y1="3.26412418%" x2="36.2483311%" y2="95.9479158%" id="linearGradient-1">
            <stop stop-color="#000000" offset="1%"></stop>
            <stop stop-color="#000000" stop-opacity="0.69" offset="13%"></stop>
            <stop stop-color="#000000" stop-opacity="0.32" offset="25%"></stop>
            <stop stop-color="#000000" stop-opacity="0" offset="100%"></stop>
        </linearGradient>
        <linearGradient x1="52.3631446%" y1="156.271845%" x2="49.5273711%" y2="25.592233%" id="linearGradient-2">
            <stop stop-color="#000000" offset="1%"></stop>
            <stop stop-color="#000000" stop-opacity="0.69" offset="13%"></stop>
            <stop stop-color="#000000" stop-opacity="0.32" offset="25%"></stop>
            <stop stop-color="#000000" stop-opacity="0" offset="100%"></stop>
        </linearGradient>
    </defs>
    <g id="DESIGN-SYSTEM" stroke="none" stroke-width="1" fill="none" fill-rule="evenodd">
        <g id="Illustrations" transform="translate(-130.000000, -330.000000)" fill-rule="nonzero">
            <g id="Illustration-09" transform="translate(130.000000, 330.000000)">
                <path d="M223.379727,4.05543929 C197.674445,12.6526412 178.017465,33.2220369 154.57336,46.9025601 C126.495923,63.208077 93.1609023,69.2913959 66.1377563,87.2774645 C37.8938522,106.069087 18.9721011,136.569014 8.56791245,168.874493 C-0.351945282,196.652205 -3.41771287,227.041022 4.76691553,254.985401 C12.9515439,282.929779 33.5379652,308.16583 61.1992348,317.40192 C89.6234782,326.888008 120.489238,318.957471 150.425557,317.707474 C191.362571,315.985256 232.840603,326.957453 273.028516,318.97136 C306.820131,312.098201 336.662792,292.442942 356.345258,264.09649 C361.474626,257.025414 365.316142,249.102793 367.69276,240.693768 C370.272999,230.568792 369.731981,219.957706 370.134276,209.513286 C371.091462,184.068902 377.750143,159.138405 379.567407,133.735688 C380.954633,114.485733 379.289962,93.8607822 370.383977,76.4163791 C360.132383,56.3053156 341.668416,48.2775568 324.480697,35.4025873 C294.350166,12.7915297 263.401173,-9.31952904 223.379727,4.05543929 Z" id="Path" fill="#DDDDDD" opacity="0.18"></path>
                <g id="Q83r0t" transform="translate(276.000000, 71.000000)" fill="#DDDDDD">
                    <path d="M65.3143043,95.2869647 C63.6627233,94.8536934 62.2581181,93.7678638 61.4228262,92.278659 C60.8018457,91.1884932 60.2360634,90.0569286 59.6012833,88.9805624 C58.4865103,86.7839653 56.0893331,85.5492243 53.6536698,85.9170584 C51.2039645,86.1216194 49.1481589,87.8458435 48.5202307,90.2225234 C48.1062437,91.5058832 47.7888536,92.8030425 47.3610671,94.0726027 C46.856872,95.6793135 45.7336255,97.0191132 44.2395426,97.7959327 C42.7454597,98.5727523 41.0035413,98.7226397 39.3987167,98.212473 C36.9975919,97.5362942 34.5826676,96.8325162 32.1815429,96.1011391 C30.5134534,95.6458025 29.0997246,94.5365307 28.2606517,93.0246408 C27.4215788,91.512751 27.2281839,89.7262148 27.7242826,88.0697909 C28.0692718,86.7864311 28.510858,85.5168709 28.8420476,84.2197116 C29.517649,81.8975082 28.6616213,79.4012212 26.7031146,77.9823071 C24.9198252,76.4179925 22.3364746,76.1679909 20.2863158,77.3613266 C19.1685508,77.9271089 18.0921846,78.5756885 16.9744196,79.1552704 C15.4301321,79.991267 13.6141324,80.1697498 11.9366368,79.6504013 C10.2591412,79.1310529 8.8616704,77.9576875 8.05989906,76.3953569 C6.79033886,74.1322278 5.53457823,71.8690988 4.30641673,69.5783706 C3.41245224,68.069521 3.18563668,66.2570536 3.68021541,64.5744392 C4.17479415,62.8918248 5.3462928,61.4903703 6.91453497,60.7052487 C7.96330209,60.1118673 9.05346792,59.5736842 10.102235,58.9665032 C12.2357287,57.9126484 13.4537129,55.6101577 13.1243403,53.2534823 C13.0078291,50.8421156 11.3811512,48.7672713 9.06726748,48.0786446 C7.79770728,47.6370584 6.48674838,47.3334679 5.21718818,46.9194809 C3.47654696,46.4580822 2.00988307,45.286517 1.17530072,43.6908375 C0.340718376,42.0951581 0.215030641,40.2222271 0.828925739,38.5293439 C1.49130497,36.2524153 2.20888248,33.9616871 2.84366258,31.6295602 C3.71093262,28.3318539 7.04236885,26.3207668 10.3644268,27.0895025 C11.7443836,27.3654939 13.0277433,27.80708 14.3525018,28.1934679 C16.7448506,29.1089018 19.4545463,28.3658306 21.045292,26.3581255 C22.6810888,24.3948752 22.8380524,21.5919535 21.4316799,19.4583417 C20.8658976,18.4371738 20.2863158,17.4298053 19.7619322,16.3810382 C18.9588487,14.9203677 18.7723925,13.1994523 19.2439934,11.6006734 C19.7155943,10.0018946 20.8061898,8.65767839 22.2734535,7.86670512 C24.7159769,6.48674838 27.1998991,5.10679164 29.7114203,3.90622927 C32.8027819,2.37785219 36.5496209,3.53585584 38.239553,6.54194665 C38.8881327,7.65971161 39.4677145,8.83267484 40.1300937,9.93664023 C41.2383114,12.0276439 43.5433651,13.19399 45.8845133,12.848349 C48.29935,12.70155 50.3552246,11.0391177 51.0041528,8.70847873 C51.3905407,7.50791637 51.6941312,6.29355443 52.0667195,5.09299207 C52.5232603,3.32962687 53.6987963,1.83875591 55.3070236,0.983483309 C56.9152509,0.128210706 58.808568,-0.012967422 60.5258544,0.594333093 L67.2324441,2.56767123 C68.9589925,2.99066151 70.4348516,4.10660247 71.3122887,5.65256311 C72.1897259,7.19852374 72.3911485,9.03779348 71.8690988,10.7370151 C71.5793079,11.9099784 71.2067195,13.0553425 70.8617304,14.2145061 C70.1116291,16.5837005 70.8917047,19.1704292 72.8265737,20.7299214 C74.7614427,22.2894136 77.4548367,22.5022795 79.6106561,21.2660851 C80.6318241,20.7141024 81.6529921,20.1345205 82.6879596,19.5963374 C84.203031,18.7649862 85.9863849,18.5698212 87.6454032,19.0538093 C89.3044214,19.5377975 90.7030902,20.6612593 91.5334823,22.1768565 C92.8582408,24.5135833 94.1508003,26.8595097 95.4111608,29.2146359 C96.2604864,30.7001163 96.4667476,32.4678857 95.9822289,34.1089974 C95.4977102,35.7501091 94.3643887,37.1223827 92.8444412,37.9083634 C91.7128767,38.5431435 90.553713,39.1089257 89.4221485,39.7575054 C87.4493012,40.7901694 86.2901505,42.9071161 86.4828407,45.1255371 C86.4520402,47.4555856 87.8877893,49.5539881 90.0707282,50.3693727 C91.3816871,50.9075559 92.8306417,51.2249459 94.2105984,51.6527325 C95.8394402,52.0194279 97.2369843,53.0583919 98.0574004,54.5125269 C98.8778165,55.9666619 99.0444489,57.7001004 98.5160634,59.2838933 C97.8398846,61.9196107 97.0671089,64.5415285 96.2253353,67.1220476 C95.7987308,68.7833697 94.6848625,70.1844246 93.1624865,70.9745852 C91.6401105,71.7647457 89.8532869,71.8692402 88.2491853,71.2619178 C87.0486229,70.9307282 85.8480606,70.5167412 84.6336986,70.2407498 C82.346656,69.6224421 79.9175707,70.5057458 78.561889,72.4486806 C77.0690868,74.2317227 76.8538727,76.7591094 78.0237058,78.7688825 C78.6170872,79.9142466 79.293266,81.018212 79.900447,82.1635761 C80.7439421,83.653259 80.9485274,85.4209353 80.4675953,87.0639032 C79.9866633,88.7068711 78.8611729,90.0852057 77.347527,90.8849027 C75.0154001,92.2648594 72.6556741,93.4654218 70.2959481,94.734982 C68.7840142,95.6025099 66.9794815,95.8024582 65.3143043,95.2869647 Z M29.9046143,43.4971882 C26.6884608,54.4551391 32.9546578,65.9475064 43.9079161,69.1796057 C54.8611743,72.4117049 66.3626498,66.1622415 69.610688,55.2136991 C72.8587261,44.2651567 66.6260095,32.7545974 55.6822062,29.4906273 C50.4063847,27.9171228 44.7210736,28.5102016 39.8835959,31.1387026 C35.0461182,33.7672036 31.4550672,38.2145464 29.9046143,43.4971882 Z" id="Shape"></path>
                </g>
                <g id="Q83r0t-2" transform="translate(76.000000, 72.000000)" fill="#DDDDDD">
                    <path d="M177.186612,204.796829 C173.293088,204.87264 169.533974,203.368726 166.761638,200.626098 C164.709914,198.651951 162.769094,196.53878 160.689644,194.592439 C156.336663,190.505122 151.318258,189.281707 145.759196,191.686829 C140.533649,193.699369 137.14,198.79597 137.288904,204.407561 C137.219589,207.466098 137.358219,210.524634 137.219589,213.569268 C137.161488,217.412648 135.575333,221.073623 132.81349,223.738905 C130.051648,226.404186 126.342828,227.85306 122.510949,227.763659 C116.808635,227.763659 111.106322,227.763659 105.404009,227.763659 C101.471288,227.834813 97.6760523,226.312887 94.8765424,223.542042 C92.0770325,220.771198 90.5097135,216.98548 90.5290127,213.040976 C90.4596977,209.982439 90.5290127,206.923902 90.5290127,203.879268 C90.5470811,198.369033 87.088016,193.450101 81.906228,191.617317 C76.9952753,189.375135 71.2076434,190.490235 67.4748473,194.397805 C65.3953977,196.344146 63.468441,198.457317 61.4028543,200.431463 C58.589006,203.259248 54.7600793,204.834472 50.7766359,204.803099 C46.7931926,204.771726 42.9894082,203.136389 40.2201937,200.264634 C36.0058423,196.121707 31.846943,191.950976 27.7434956,187.752439 C21.6299136,181.510244 21.6576396,172.876829 27.7434956,166.634634 C29.6704523,164.660488 31.69445,162.797561 33.5936807,160.79561 C37.5297088,157.094739 38.7177028,151.310451 36.5603622,146.350976 C34.7555031,141.143897 29.8717824,137.644805 24.3747872,137.620244 C21.3387907,137.48122 18.2889312,137.620244 15.2390716,137.536829 C6.11721909,137.203171 0.336349007,131.141707 0.32248601,121.993902 C0.32248601,116.571951 0.32248601,111.15 0.32248601,105.728049 C0.0927417365,97.9485645 6.08975299,91.4040192 13.8389089,90.977561 C16.9719464,90.7134146 20.1327099,90.8107317 23.2657474,90.8107317 C29.5318224,90.8107317 34.0095706,88.0302439 36.4910473,82.2468293 C38.8338939,76.8109756 37.5307721,71.5419512 32.9282568,66.9541463 C31.0567521,65.0773171 29.1297954,63.2282927 27.3830577,61.2958537 C24.7003153,58.612035 23.1926155,54.9680584 23.1926155,51.1679268 C23.1926155,47.3677952 24.7003153,43.7238187 27.3830577,41.04 C31.837701,36.4058537 36.4032483,31.9246341 41.0796995,27.5963415 C46.8236632,22.2697716 55.7136265,22.3612414 61.3474023,27.804878 C63.482304,29.8346341 65.5063016,31.9756098 67.6550663,34.0331707 C71.4164639,37.9087218 77.2085319,38.9790107 82.10031,36.702439 C87.2712803,34.83827 90.6982881,29.8951411 90.6399166,24.384878 C90.7092316,21.6043902 90.6399166,18.6709756 90.6399166,15.8209756 C90.8478616,6.63146341 97.0307586,0.528292683 106.208063,0.528292683 L122.136648,0.528292683 C130.939651,0.528292683 137.122548,6.54804878 137.385945,15.4456098 C137.496849,18.2260976 137.385945,21.0065854 137.385945,23.7870732 C137.087627,29.5027421 140.505756,34.756912 145.842374,36.7858537 C151.193491,39.1492683 156.613923,37.9397561 160.980767,33.63 C162.866135,31.7531707 164.709914,29.8346341 166.623008,27.9856098 C169.402327,25.1976242 173.172347,23.6312864 177.103434,23.6312864 C181.03452,23.6312864 184.804541,25.1976242 187.58386,27.9856098 C191.964568,32.2397561 196.289823,36.544878 200.559626,40.9009756 C203.36495,43.6036444 204.950578,47.3362718 204.950578,51.237439 C204.950578,55.1386063 203.36495,58.8712336 200.559626,61.5739024 C198.507902,63.7009756 196.317549,65.7446341 194.265825,67.8021951 C190.589608,71.3173845 189.405358,76.7166573 191.271418,81.4543902 C192.738725,86.5493498 197.200946,90.1990651 202.47272,90.6160976 C205.675072,90.9636585 208.94674,90.755122 212.176818,90.8246341 C220.730288,90.977561 226.178446,96.1770732 226.455706,104.727073 C226.649788,110.927561 226.663651,117.141951 226.455706,123.356341 C226.15072,132.212195 220.563932,137.467317 211.705476,137.578537 C208.932877,137.578537 206.007784,137.48122 203.16587,137.578537 C197.776644,137.69778 193.038534,141.187836 191.313007,146.309268 C189.167441,151.164866 190.312314,156.849782 194.168784,160.489756 C196.206645,162.616829 198.327684,164.660488 200.448722,166.731951 C203.23771,169.449233 204.811399,173.182779 204.811399,177.082317 C204.811399,180.981855 203.23771,184.715401 200.448722,187.432683 C196.192782,191.825854 191.853664,196.093902 187.500682,200.389756 C184.790886,203.186113 181.074771,204.773962 177.186612,204.796829 L177.186612,204.796829 Z M52.5996579,114 C52.5157866,148.010222 79.9373991,175.650747 113.851121,175.740471 C147.764843,175.829758 175.331146,148.334357 175.425828,114.324162 C175.520023,80.3139672 148.106843,52.665031 114.19315,52.5643598 C97.8905039,52.4837625 82.2273321,58.9195228 70.6683006,70.4488239 C59.1092691,81.978125 52.607024,97.650771 52.5996579,114 Z" id="Shape"></path>
                </g>
                <g id="Q83r0t-3" opacity="0.19" transform="translate(76.000000, 72.000000)" fill="#020202">
                    <path d="M177.186612,204.796829 C173.293088,204.87264 169.533974,203.368726 166.761638,200.626098 C164.709914,198.651951 162.769094,196.53878 160.689644,194.592439 C156.336663,190.505122 151.318258,189.281707 145.759196,191.686829 C140.533649,193.699369 137.14,198.79597 137.288904,204.407561 C137.219589,207.466098 137.358219,210.524634 137.219589,213.569268 C137.161488,217.412648 135.575333,221.073623 132.81349,223.738905 C130.051648,226.404186 126.342828,227.85306 122.510949,227.763659 C116.808635,227.763659 111.106322,227.763659 105.404009,227.763659 C101.471288,227.834813 97.6760523,226.312887 94.8765424,223.542042 C92.0770325,220.771198 90.5097135,216.98548 90.5290127,213.040976 C90.4596977,209.982439 90.5290127,206.923902 90.5290127,203.879268 C90.5470811,198.369033 87.088016,193.450101 81.906228,191.617317 C76.9952753,189.375135 71.2076434,190.490235 67.4748473,194.397805 C65.3953977,196.344146 63.468441,198.457317 61.4028543,200.431463 C58.589006,203.259248 54.7600793,204.834472 50.7766359,204.803099 C46.7931926,204.771726 42.9894082,203.136389 40.2201937,200.264634 C36.0058423,196.121707 31.846943,191.950976 27.7434956,187.752439 C21.6299136,181.510244 21.6576396,172.876829 27.7434956,166.634634 C29.6704523,164.660488 31.69445,162.797561 33.5936807,160.79561 C37.5297088,157.094739 38.7177028,151.310451 36.5603622,146.350976 C34.7555031,141.143897 29.8717824,137.644805 24.3747872,137.620244 C21.3387907,137.48122 18.2889312,137.620244 15.2390716,137.536829 C6.11721909,137.203171 0.336349007,131.141707 0.32248601,121.993902 C0.32248601,116.571951 0.32248601,111.15 0.32248601,105.728049 C0.0927417365,97.9485645 6.08975299,91.4040192 13.8389089,90.977561 C16.9719464,90.7134146 20.1327099,90.8107317 23.2657474,90.8107317 C29.5318224,90.8107317 34.0095706,88.0302439 36.4910473,82.2468293 C38.8338939,76.8109756 37.5307721,71.5419512 32.9282568,66.9541463 C31.0567521,65.0773171 29.1297954,63.2282927 27.3830577,61.2958537 C24.7003153,58.612035 23.1926155,54.9680584 23.1926155,51.1679268 C23.1926155,47.3677952 24.7003153,43.7238187 27.3830577,41.04 C31.837701,36.4058537 36.4032483,31.9246341 41.0796995,27.5963415 C46.8236632,22.2697716 55.7136265,22.3612414 61.3474023,27.804878 C63.482304,29.8346341 65.5063016,31.9756098 67.6550663,34.0331707 C71.4164639,37.9087218 77.2085319,38.9790107 82.10031,36.702439 C87.2712803,34.83827 90.6982881,29.8951411 90.6399166,24.384878 C90.7092316,21.6043902 90.6399166,18.6709756 90.6399166,15.8209756 C90.8478616,6.63146341 97.0307586,0.528292683 106.208063,0.528292683 L122.136648,0.528292683 C130.939651,0.528292683 137.122548,6.54804878 137.385945,15.4456098 C137.496849,18.2260976 137.385945,21.0065854 137.385945,23.7870732 C137.087627,29.5027421 140.505756,34.756912 145.842374,36.7858537 C151.193491,39.1492683 156.613923,37.9397561 160.980767,33.63 C162.866135,31.7531707 164.709914,29.8346341 166.623008,27.9856098 C169.402327,25.1976242 173.172347,23.6312864 177.103434,23.6312864 C181.03452,23.6312864 184.804541,25.1976242 187.58386,27.9856098 C191.964568,32.2397561 196.289823,36.544878 200.559626,40.9009756 C203.36495,43.6036444 204.950578,47.3362718 204.950578,51.237439 C204.950578,55.1386063 203.36495,58.8712336 200.559626,61.5739024 C198.507902,63.7009756 196.317549,65.7446341 194.265825,67.8021951 C190.589608,71.3173845 189.405358,76.7166573 191.271418,81.4543902 C192.738725,86.5493498 197.200946,90.1990651 202.47272,90.6160976 C205.675072,90.9636585 208.94674,90.755122 212.176818,90.8246341 C220.730288,90.977561 226.178446,96.1770732 226.455706,104.727073 C226.649788,110.927561 226.663651,117.141951 226.455706,123.356341 C226.15072,132.212195 220.563932,137.467317 211.705476,137.578537 C208.932877,137.578537 206.007784,137.48122 203.16587,137.578537 C197.776644,137.69778 193.038534,141.187836 191.313007,146.309268 C189.167441,151.164866 190.312314,156.849782 194.168784,160.489756 C196.206645,162.616829 198.327684,164.660488 200.448722,166.731951 C203.23771,169.449233 204.811399,173.182779 204.811399,177.082317 C204.811399,180.981855 203.23771,184.715401 200.448722,187.432683 C196.192782,191.825854 191.853664,196.093902 187.500682,200.389756 C184.790886,203.186113 181.074771,204.773962 177.186612,204.796829 L177.186612,204.796829 Z M52.5996579,114 C52.5157866,148.010222 79.9373991,175.650747 113.851121,175.740471 C147.764843,175.829758 175.331146,148.334357 175.425828,114.324162 C175.520023,80.3139672 148.106843,52.665031 114.19315,52.5643598 C97.8905039,52.4837625 82.2273321,58.9195228 70.6683006,70.4488239 C59.1092691,81.978125 52.607024,97.650771 52.5996579,114 Z" id="Shape"></path>
                </g>
                <path d="M146.302447,160.184531 C147.176591,161.493787 147.534641,163.078218 147.307957,164.634086 C147.220301,166.132662 147.005398,167.621161 146.665547,169.083641 C145.967276,171.989757 144.780216,175.021016 145.701934,177.857608 C146.473157,179.574148 147.438344,181.197586 148.57881,182.696499 C149.629843,184.354028 150.119323,186.303458 149.975352,188.258443 C149.797199,190.234745 148.667498,192.002292 146.944856,193 C144.640562,188.745113 140.967656,185.421851 137.93716,181.63973 C134.906664,177.857608 132.350992,173.17167 133.147021,168.402303 C133.682384,165.282673 135.5191,162.534493 138.202503,160.838059 C140.199558,159.628337 144.291426,157.75118 146.302447,160.184531 Z" id="Path" fill="#FF681C"></path>
                <path d="M146.302447,160.184531 C147.176591,161.493787 147.534641,163.078218 147.307957,164.634086 C147.220301,166.132662 147.005398,167.621161 146.665547,169.083641 C145.967276,171.989757 144.780216,175.021016 145.701934,177.857608 C146.473157,179.574148 147.438344,181.197586 148.57881,182.696499 C149.629843,184.354028 150.119323,186.303458 149.975352,188.258443 C149.797199,190.234745 148.667498,192.002292 146.944856,193 C144.640562,188.745113 140.967656,185.421851 137.93716,181.63973 C134.906664,177.857608 132.350992,173.17167 133.147021,168.402303 C133.682384,165.282673 135.5191,162.534493 138.202503,160.838059 C140.199558,159.628337 144.291426,157.75118 146.302447,160.184531 Z" id="Path" fill="#020202" opacity="0.19"></path>
                <g id="Q83r0t-4" transform="translate(71.000000, 72.000000)" fill="#DDDDDD">
                    <path d="M177.297516,204.838537 C173.407033,204.920134 169.650053,203.415073 166.886405,200.667805 C164.834681,198.693659 162.893861,196.59439 160.814411,194.634146 C156.46143,190.546829 151.429162,189.323415 145.883963,191.728537 C140.661086,193.746697 137.265559,198.837786 137.399808,204.449268 C137.330493,207.507805 137.399808,210.566341 137.399808,213.610976 C137.334354,217.454405 135.743984,221.113148 132.980771,223.777242 C130.217557,226.441336 126.509437,227.891019 122.677305,227.805366 C116.984233,227.805366 111.286541,227.805366 105.584228,227.805366 C101.651507,227.87652 97.8562713,226.354594 95.0567614,223.58375 C92.2572515,220.812906 90.6899324,217.027188 90.7092316,213.082683 C90.7092316,210.038049 90.7785466,206.96561 90.7092316,203.920976 C90.7293675,198.414353 87.2766275,193.49651 82.10031,191.659024 C77.1851269,189.414549 71.3923313,190.529574 67.6550663,194.439512 C65.5756166,196.385854 63.6486599,198.499024 61.5830733,200.473171 C58.769225,203.300955 54.9402982,204.876179 50.9568549,204.844806 C46.9734116,204.813434 43.1696271,203.178097 40.4004126,200.306341 C36.2415133,196.13561 31.999436,191.964878 27.9237146,187.794146 C21.8101326,181.551951 21.8378586,172.918537 27.9237146,166.676341 C29.8506713,164.702195 31.888532,162.839268 33.7877627,160.837317 C37.7275843,157.138577 38.9161092,151.351705 36.7544442,146.392683 C34.9423862,141.126333 29.9854099,137.603521 24.4302392,137.634146 C21.3803797,137.495122 18.3305201,137.634146 15.2806606,137.550732 C6.17267108,137.25878 0.350212005,131.183415 0.350212005,122.03561 C0.350212005,116.613659 0.350212005,111.191707 0.350212005,105.769756 C0.128141794,97.9879309 6.12922485,91.4456521 13.8804979,91.0192683 C16.9996724,90.755122 20.1604359,90.852439 23.3073364,90.852439 C29.1010742,91.1882429 34.4450127,87.7242012 36.5187732,82.2885366 C38.8754829,76.8526829 37.5723611,71.5836585 32.9559828,66.9958537 C31.0844781,65.1190244 29.1713844,63.27 27.4107837,61.337561 C24.7254626,58.6579433 23.2157414,55.0155839 23.2157414,51.2165854 C23.2157414,47.4175868 24.7254626,43.7752275 27.4107837,41.0956098 C31.846943,36.4614634 36.4078693,31.9756098 41.0935625,27.6380488 C46.8771871,22.3140052 55.8024815,22.4544321 61.4167173,27.9578049 C63.5516189,29.987561 65.5756166,32.1285366 67.7105183,34.1860976 C71.4833638,38.0333951 77.2612572,39.0853919 82.141899,36.8136585 C87.3204143,34.9513333 90.7500439,29.9988392 90.6815056,24.4821951 C90.6815056,21.7017073 90.6815056,18.7682927 90.6815056,15.9182927 C90.8894506,6.72878049 97.0723476,0.625609756 106.263515,0.625609756 L122.178237,0.625609756 C130.98124,0.625609756 137.164137,6.64536585 137.510712,15.5429268 C137.621616,18.3234146 137.510712,21.1039024 137.510712,23.8843902 C137.218576,29.5950604 140.635593,34.8419032 145.967141,36.8692683 C151.304395,39.2326829 156.724827,38.0231707 161.091671,33.7134146 C162.990902,31.8504878 164.820818,29.9180488 166.733912,28.0690244 C172.529549,22.269332 181.91299,22.269332 187.708627,28.0690244 C192.075471,32.3231707 196.41459,36.6190244 200.67053,40.9843902 C203.472246,43.6890352 205.055345,47.4209245 205.055345,51.3208537 C205.055345,55.2207828 203.472246,58.9526721 200.67053,61.6573171 C198.604943,63.7843902 196.41459,65.8280488 194.376729,67.8995122 C190.701499,71.4090029 189.512107,76.8012314 191.368459,81.5378049 C192.835766,86.6327645 197.297987,90.2824798 202.569761,90.6995122 C205.785976,91.0470732 209.043781,90.8385366 212.273859,90.9080488 C220.827329,91.0609756 226.28935,96.2743902 226.56661,104.810488 C226.760692,111.010976 226.760692,117.239268 226.56661,123.439756 C226.317076,132.337317 220.771877,137.634146 211.857969,137.703659 C209.002192,137.703659 206.146414,137.606341 203.3045,137.703659 C197.916653,137.826967 193.18062,141.315495 191.451637,146.43439 C189.306071,151.289988 190.450944,156.974904 194.307414,160.614878 C196.345275,162.741951 198.549491,164.78561 200.601215,166.857073 C203.391001,169.576764 204.964996,173.312599 204.964996,177.21439 C204.964996,181.116181 203.391001,184.852016 200.601215,187.571707 C196.359138,191.950976 192.006157,196.219024 187.667038,200.514878 C184.932601,203.298332 181.193734,204.857284 177.297516,204.838537 Z M52.7105955,114.083415 C52.6343775,148.090035 80.0565996,175.722819 113.966718,175.80994 C147.876836,175.89665 175.439548,148.404797 175.536765,114.39823 C175.633468,80.3916628 148.227976,52.7421908 114.317917,52.6338722 C98.0115942,52.5532748 82.3448962,58.9904998 70.7832649,70.5224081 C59.2216336,82.0543164 52.717928,97.7304985 52.7105955,114.083415 Z" id="Shape"></path>
                </g>
                <path d="M197.129248,266.401114 C198.029377,267.584234 199.093965,268.641542 200.292892,269.543123 C201.00672,269.914633 201.626266,270.434979 202.106714,271.066521 C202.32978,271.573277 202.472008,272.109862 202.528533,272.657927 C203.10502,275.745529 206.170239,278.588298 209.333883,277.894608 L210.852432,267.611672 C211.049189,266.82965 211.049189,266.013384 210.852432,265.231362 C210.53345,264.535826 210.05217,263.921269 209.446368,263.435929 C205.63856,259.814021 202.330369,255.731445 199.60392,251.289551 C199.005765,250.041924 198.079753,248.967912 196.918338,248.174746 C195.779426,247.535463 196.918338,246.732959 195.624759,247.086605 C192.222085,248.011525 189.902079,247.957118 182,247.889109 C182,247.889109 184.488733,251.153533 185.585463,252.459303 L191.392507,259.437009 C192.12366,260.402735 196.046579,266.401114 197.129248,266.401114 Z" id="Path" fill="#020202" opacity="0.19"></path>
                <g id="Q83r0t-5" opacity="0.27" transform="translate(276.000000, 71.000000)" fill="#020202">
                    <path d="M65.3143043,95.2869647 C63.6627233,94.8536934 62.2581181,93.7678638 61.4228262,92.278659 C60.8018457,91.1884932 60.2360634,90.0569286 59.6012833,88.9805624 C58.4865103,86.7839653 56.0893331,85.5492243 53.6536698,85.9170584 C51.2039645,86.1216194 49.1481589,87.8458435 48.5202307,90.2225234 C48.1062437,91.5058832 47.7888536,92.8030425 47.3610671,94.0726027 C46.856872,95.6793135 45.7336255,97.0191132 44.2395426,97.7959327 C42.7454597,98.5727523 41.0035413,98.7226397 39.3987167,98.212473 C36.9975919,97.5362942 34.5826676,96.8325162 32.1815429,96.1011391 C30.5134534,95.6458025 29.0997246,94.5365307 28.2606517,93.0246408 C27.4215788,91.512751 27.2281839,89.7262148 27.7242826,88.0697909 C28.0692718,86.7864311 28.510858,85.5168709 28.8420476,84.2197116 C29.517649,81.8975082 28.6616213,79.4012212 26.7031146,77.9823071 C24.9198252,76.4179925 22.3364746,76.1679909 20.2863158,77.3613266 C19.1685508,77.9271089 18.0921846,78.5756885 16.9744196,79.1552704 C15.4301321,79.991267 13.6141324,80.1697498 11.9366368,79.6504013 C10.2591412,79.1310529 8.8616704,77.9576875 8.05989906,76.3953569 C6.79033886,74.1322278 5.53457823,71.8690988 4.30641673,69.5783706 C3.41245224,68.069521 3.18563668,66.2570536 3.68021541,64.5744392 C4.17479415,62.8918248 5.3462928,61.4903703 6.91453497,60.7052487 C7.96330209,60.1118673 9.05346792,59.5736842 10.102235,58.9665032 C12.2357287,57.9126484 13.4537129,55.6101577 13.1243403,53.2534823 C13.0078291,50.8421156 11.3811512,48.7672713 9.06726748,48.0786446 C7.79770728,47.6370584 6.48674838,47.3334679 5.21718818,46.9194809 C3.47654696,46.4580822 2.00988307,45.286517 1.17530072,43.6908375 C0.340718376,42.0951581 0.215030641,40.2222271 0.828925739,38.5293439 C1.49130497,36.2524153 2.20888248,33.9616871 2.84366258,31.6295602 C3.71093262,28.3318539 7.04236885,26.3207668 10.3644268,27.0895025 C11.7443836,27.3654939 13.0277433,27.80708 14.3525018,28.1934679 C16.7448506,29.1089018 19.4545463,28.3658306 21.045292,26.3581255 C22.6810888,24.3948752 22.8380524,21.5919535 21.4316799,19.4583417 C20.8658976,18.4371738 20.2863158,17.4298053 19.7619322,16.3810382 C18.9588487,14.9203677 18.7723925,13.1994523 19.2439934,11.6006734 C19.7155943,10.0018946 20.8061898,8.65767839 22.2734535,7.86670512 C24.7159769,6.48674838 27.1998991,5.10679164 29.7114203,3.90622927 C32.8027819,2.37785219 36.5496209,3.53585584 38.239553,6.54194665 C38.8881327,7.65971161 39.4677145,8.83267484 40.1300937,9.93664023 C41.2383114,12.0276439 43.5433651,13.19399 45.8845133,12.848349 C48.29935,12.70155 50.3552246,11.0391177 51.0041528,8.70847873 C51.3905407,7.50791637 51.6941312,6.29355443 52.0667195,5.09299207 C52.5232603,3.32962687 53.6987963,1.83875591 55.3070236,0.983483309 C56.9152509,0.128210706 58.808568,-0.012967422 60.5258544,0.594333093 L67.2324441,2.56767123 C68.9589925,2.99066151 70.4348516,4.10660247 71.3122887,5.65256311 C72.1897259,7.19852374 72.3911485,9.03779348 71.8690988,10.7370151 C71.5793079,11.9099784 71.2067195,13.0553425 70.8617304,14.2145061 C70.1116291,16.5837005 70.8917047,19.1704292 72.8265737,20.7299214 C74.7614427,22.2894136 77.4548367,22.5022795 79.6106561,21.2660851 C80.6318241,20.7141024 81.6529921,20.1345205 82.6879596,19.5963374 C84.203031,18.7649862 85.9863849,18.5698212 87.6454032,19.0538093 C89.3044214,19.5377975 90.7030902,20.6612593 91.5334823,22.1768565 C92.8582408,24.5135833 94.1508003,26.8595097 95.4111608,29.2146359 C96.2604864,30.7001163 96.4667476,32.4678857 95.9822289,34.1089974 C95.4977102,35.7501091 94.3643887,37.1223827 92.8444412,37.9083634 C91.7128767,38.5431435 90.553713,39.1089257 89.4221485,39.7575054 C87.4493012,40.7901694 86.2901505,42.9071161 86.4828407,45.1255371 C86.4520402,47.4555856 87.8877893,49.5539881 90.0707282,50.3693727 C91.3816871,50.9075559 92.8306417,51.2249459 94.2105984,51.6527325 C95.8394402,52.0194279 97.2369843,53.0583919 98.0574004,54.5125269 C98.8778165,55.9666619 99.0444489,57.7001004 98.5160634,59.2838933 C97.8398846,61.9196107 97.0671089,64.5415285 96.2253353,67.1220476 C95.7987308,68.7833697 94.6848625,70.1844246 93.1624865,70.9745852 C91.6401105,71.7647457 89.8532869,71.8692402 88.2491853,71.2619178 C87.0486229,70.9307282 85.8480606,70.5167412 84.6336986,70.2407498 C82.346656,69.6224421 79.9175707,70.5057458 78.561889,72.4486806 C77.0690868,74.2317227 76.8538727,76.7591094 78.0237058,78.7688825 C78.6170872,79.9142466 79.293266,81.018212 79.900447,82.1635761 C80.7439421,83.653259 80.9485274,85.4209353 80.4675953,87.0639032 C79.9866633,88.7068711 78.8611729,90.0852057 77.347527,90.8849027 C75.0154001,92.2648594 72.6556741,93.4654218 70.2959481,94.734982 C68.7840142,95.6025099 66.9794815,95.8024582 65.3143043,95.2869647 Z M29.9046143,43.4971882 C26.6884608,54.4551391 32.9546578,65.9475064 43.9079161,69.1796057 C54.8611743,72.4117049 66.3626498,66.1622415 69.610688,55.2136991 C72.8587261,44.2651567 66.6260095,32.7545974 55.6822062,29.4906273 C50.4063847,27.9171228 44.7210736,28.5102016 39.8835959,31.1387026 C35.0461182,33.7672036 31.4550672,38.2145464 29.9046143,43.4971882 Z" id="Shape"></path>
                </g>
                <g id="Q83r0t-6" transform="translate(273.000000, 71.000000)" fill="#DDDDDD">
                    <path d="M65.5972222,96.4861111 C63.935381,96.0409296 62.5233193,94.9443285 61.6805556,93.4444444 C61.0555556,92.3472222 60.5,91.2222222 59.8472222,90.1388889 C58.7376882,87.9216763 56.3265037,86.6712248 53.875,87.0416667 C51.401969,87.2478844 49.326847,88.9892066 48.6944444,91.3888889 C48.2916667,92.6666667 47.9722222,93.9861111 47.5277778,95.25 C47.0233557,96.8660857 45.8955203,98.214424 44.3939942,98.9964689 C42.8924681,99.7785137 41.1411374,99.9297411 39.5277778,99.4166667 C37.1018519,98.7222222 34.6805556,98.0138889 32.2638889,97.2916667 C30.5846,96.833022 29.1608634,95.7172468 28.3141278,94.1962587 C27.4673922,92.6752707 27.2690523,90.8773159 27.7638889,89.2083333 C28.1111111,87.9027778 28.5555556,86.625 28.8888889,85.3194444 C29.5783658,82.98913 28.7207374,80.4775041 26.75,79.0555556 C24.9450997,77.4945829 22.353044,77.2387147 20.2777778,78.4166667 C19.1527778,78.9861111 18.0694444,79.6388889 16.9444444,80.2222222 C15.4003922,81.0698197 13.5806436,81.2618662 11.8936752,80.7552534 C10.2067068,80.2486406 8.79384111,79.085809 7.97222222,77.5277778 C6.69444444,75.25 5.43518519,72.962963 4.19444444,70.6666667 C3.29422336,69.1459236 3.06565716,67.3197302 3.56330843,65.6240295 C4.06095971,63.9283289 5.24017091,62.5152875 6.81944444,61.7222222 C7.88888889,61.125 8.98611111,60.5833333 10.0277778,59.9861111 C12.15575,58.9043612 13.3776085,56.6050457 13.0833333,54.2361111 C12.9616344,51.8032301 11.3201458,49.7110277 8.98611111,49.0138889 C7.70833333,48.5833333 6.38888889,48.2777778 5.11111111,47.8472222 C3.36272693,47.3829928 1.88995572,46.2053025 1.05255789,44.6018309 C0.215160055,42.9983594 0.0902475582,41.1167626 0.708333333,39.4166667 C1.375,37.1111111 2.0462963,34.7962963 2.72222222,32.4722222 C3.58878112,29.1484429 6.94686858,27.1212672 10.2916667,27.9027778 C11.6805556,28.1805556 12.9861111,28.6111111 14.3194444,29 C16.7370367,29.8614154 19.4340986,29.0579157 20.9861111,27.0138889 C22.6505592,25.0450848 22.8092246,22.2117742 21.375,20.0694444 C20.8194444,19.0416667 20.2222222,18.0277778 19.6944444,16.9861111 C18.8899758,15.5152014 18.7043989,13.7844775 19.1787283,12.1764487 C19.6530577,10.5684198 20.748238,9.21548817 22.2222222,8.41666667 C24.6759259,7.00925926 27.1712963,5.67592593 29.7083333,4.41666667 C32.8243761,2.88447152 36.594645,4.04783398 38.3055556,7.06944444 C38.9583333,8.20833333 39.5277778,9.375 40.2083333,10.4861111 C41.3081523,12.6064487 43.640192,13.7864496 46,13.4166667 C48.4304673,13.2689175 50.4996492,11.5957247 51.1527778,9.25 C51.5416667,8.05555556 51.8472222,6.81944444 52.2361111,5.625 C52.6923094,3.85120452 53.8727002,2.3506526 55.4891862,1.48958328 C57.1056721,0.628513959 59.0095391,0.486144235 60.7361111,1.09722222 L67.5,3.06944444 C69.2355117,3.49878416 70.7182719,4.62257485 71.6007543,6.17742476 C72.4832366,7.73227468 72.6878606,9.58149406 72.1666667,11.2916667 C71.8611111,12.4722222 71.5,13.6388889 71.1527778,14.8055556 C70.4034365,17.1861787 71.1877833,19.7828374 73.1297509,21.3505238 C75.0717186,22.9182102 77.7753884,23.1373121 79.9444444,21.9027778 C80.9861111,21.3472222 82,20.75 83.0416667,20.2083333 C84.5682329,19.3726921 86.364426,19.1783514 88.0343983,19.6681405 C89.7043706,20.1579296 91.111055,21.2916477 91.9444444,22.8194444 C93.2777778,25.1527778 94.5833333,27.5138889 95.8611111,29.9027778 C96.710339,31.398357 96.9133161,33.1754601 96.4232049,34.8240159 C95.9330937,36.4725717 94.7922365,37.8501564 93.2638889,38.6388889 C92.1388889,39.2916667 90.9583333,39.8611111 89.8194444,40.5 C87.8338274,41.5393482 86.6671737,43.6699974 86.8611111,45.9027778 C86.8322389,48.251459 88.2835676,50.3645046 90.4861111,51.1805556 C91.875,51.7222222 93.2638889,52.0416667 94.6527778,52.4722222 C96.295506,52.8407567 97.7049226,53.8885765 98.5310609,55.3555016 C99.3571992,56.8224267 99.5225701,58.5708642 98.9861111,60.1666667 C98.3055556,62.8194444 97.5972222,65.4583333 96.6805556,68.0555556 C96.2511898,69.727631 95.1301117,71.1377547 93.5978816,71.9330298 C92.0656516,72.7283048 90.2672624,72.8334757 88.6527778,72.2222222 C87.4444444,71.875 86.25,71.4722222 85.0138889,71.1805556 C82.712227,70.5625473 80.2698564,71.450682 78.9027778,73.4027778 C77.4003131,75.1973611 77.1837059,77.741107 78.3611111,79.7638889 C78.9583333,80.9305556 79.6527778,82.0416667 80.2638889,83.1944444 C81.1476175,84.7130048 81.3638989,86.5294565 80.8614465,88.2130667 C80.3589941,89.8966769 79.1825602,91.2974901 77.6111111,92.0833333 C75.2638889,93.4722222 72.8888889,94.6805556 70.5138889,95.9583333 C69.0108523,96.7825434 67.2409481,96.9725331 65.5972222,96.4861111 Z M29.9583333,44.3611111 C26.7287531,55.3908819 33.04121,66.9525809 44.0657801,70.1998701 C55.0903501,73.4471592 66.6621716,67.1532777 69.9271613,56.1339368 C73.192151,45.1145959 66.9168611,33.5326818 55.9027778,30.25 C50.5909486,28.666841 44.8672152,29.265666 39.9980877,31.9139709 C35.1289601,34.5622758 31.5158827,39.0417162 29.9583333,44.3611111 L29.9583333,44.3611111 Z" id="Shape"></path>
                </g>
                <path d="M237.639496,212.097544 C238.055495,211.697526 238.53258,211.368445 239.052244,211.123067 C239.582702,210.894653 240.194771,210.988892 240.63452,211.366686 C240.986252,211.820613 241.092182,212.422349 240.91707,212.971708 C240.775795,213.516269 240.493246,214.032169 240.366098,214.57673 C240.296636,215.092077 240.18319,215.600332 240.027039,216.095769 C239.601935,216.82685 238.951639,217.395856 238.17634,217.715122 C234.9015,219.56941 231.974678,221.994978 229.530328,224.880399 C229.303852,225.169935 229.042857,225.429868 228.753317,225.654249 C227.749864,226.157413 226.563107,226.108829 225.602891,225.525274 C223.525833,224.345452 221.738836,222.704237 220.375727,220.724538 C220.19971,220.529146 220.073592,220.292965 220.008413,220.036672 C219.981194,219.796504 220.020324,219.553389 220.121433,219.334475 C221.53418,215.60853 225.306214,216.88395 228.357748,216.36805 C231.766317,215.791487 234.966484,214.319099 237.639496,212.097544 L237.639496,212.097544 Z" id="Path" fill="#FFBAA8"></path>
                <path d="M142,231.443409 C142,231.443409 150.190447,241.620647 161.427851,236.615906 C172.665256,231.611165 185.831469,215.087133 185.831469,215.087133 C185.831469,215.087133 202.925182,221.224232 214.442124,221.028515 L222.185311,221.29413 C224.323983,220.103467 225.413638,217.638404 224.854894,215.25489 C224.854894,215.25489 190.933027,202.505383 187.718346,202.16987 C183.889176,201.659008 179.994783,202.306583 176.536849,204.029173 C171.994366,206.18205 154.467369,214.416107 154.467369,214.416107 L142,231.443409 Z" id="Path" fill="#473F47"></path>
                <path d="M142,231.443409 C142,231.443409 150.190447,241.620647 161.427851,236.615906 C172.665256,231.611165 185.831469,215.087133 185.831469,215.087133 C185.831469,215.087133 202.925182,221.224232 214.442124,221.028515 L222.185311,221.29413 C224.323983,220.103467 225.413638,217.638404 224.854894,215.25489 C224.854894,215.25489 190.933027,202.505383 187.718346,202.16987 C183.889176,201.659008 179.994783,202.306583 176.536849,204.029173 C171.994366,206.18205 154.467369,214.416107 154.467369,214.416107 L142,231.443409 Z" id="Path" fill="#020202" opacity="0.19"></path>
                <path d="M144.237327,219.976017 C144.237327,219.976017 141.715785,233.548308 153.110952,237.795803 C164.506119,242.043297 186.497275,238.850644 186.497275,238.850644 C186.497275,238.850644 194.392597,255.263974 202.673728,263.182316 L207.964833,268.808137 C210.2958,269.452814 212.762276,268.435426 214,266.318711 C214,266.318711 198.719178,233.351405 196.679897,230.861979 C194.309938,227.794637 191.094612,225.521745 187.448021,224.336028 C182.763188,222.718604 156.004525,213 156.004525,213 L144.237327,219.976017 Z" id="Path" fill="#473F47"></path>
                <path d="M226.375695,273.434626 C226.940229,273.440116 227.499891,273.538842 228.031674,273.726744 C228.573627,273.928409 228.950369,274.420905 229,274.992589 C228.944187,275.547928 228.605197,276.036194 228.101842,276.286254 C227.63873,276.578372 227.091415,276.745297 226.628302,277.037415 C226.225795,277.348998 225.798738,277.6281 225.351234,277.872038 C224.546779,278.084855 223.694185,278.03112 222.923401,277.719024 C219.336738,276.759534 215.606628,276.439256 211.906935,276.773118 C211.548407,276.821743 211.184868,276.821743 210.826339,276.773118 C209.762854,276.440424 208.946548,275.589259 208.665147,274.519636 C207.979912,272.266181 207.821535,269.887618 208.202034,267.564443 C208.209193,267.305155 208.281549,267.051742 208.41254,266.827193 C208.562671,266.648304 208.755678,266.509603 208.973889,266.423792 C212.510385,264.796277 214.334768,268.259962 216.87487,269.998761 C219.685076,271.946199 222.960535,273.130731 226.375695,273.434626 L226.375695,273.434626 Z" id="Path" fill="#FFBAA8"></path>
                <polygon id="Path" fill="#DDDDDD" points="191 173.322775 185.682659 202.246191 163.321839 208 163 206.021251 183.457771 200.351644 188.425287 173"></polygon>
                <polygon id="Path" fill="#DDDDDD" points="184 191 175.700935 192.592664 163 206 183.495327 200.150579"></polygon>
                <polygon id="Path" fill="url(#linearGradient-1)" points="184 191 175.700935 192.592664 163 206 183.495327 200.150579"></polygon>
                <polygon id="Path" fill="#DDDDDD" points="182 192 178.762315 192.627675 171 202 179.981527 200.031384"></polygon>
                <polygon id="Path" fill="#DDDDDD" points="182 201 186.96261 172.777778 201.03467 166 202 166.444444 183.169273 200.333333"></polygon>
                <path d="M145.865789,165.844705 C146.424796,166.482794 147.38514,166.760224 147.815145,167.495413 C148.24515,168.230603 147.815145,169.451295 147.628809,170.450043 C147.370806,171.837193 147.772144,173.224343 147.528475,174.680851 C147.490801,174.980806 147.366617,175.264435 147.170137,175.499269 C146.974158,175.670351 146.745229,175.802338 146.496463,175.887671 C145.522889,176.252965 144.498975,176.477322 143.457762,176.553503 C143.247681,176.539862 143.039418,176.598852 142.870089,176.719961 C142.740974,176.876533 142.679351,177.075323 142.698087,177.274821 C142.537324,179.860921 143.02926,182.446036 144.131437,184.807046 C144.489774,185.58385 144.905445,186.540984 144.389439,187.234559 C144.194187,187.46235 143.942781,187.638864 143.658431,187.747804 C141.795077,188.510737 139.67372,187.414888 138.111369,186.166453 C136.71458,185.045963 135.458927,183.770256 134.370327,182.365662 C134.042496,181.983345 133.789872,181.5461 133.624985,181.075612 C133.495627,180.448332 133.495627,179.802497 133.624985,179.175217 C133.854356,177.030864 133.854356,174.869322 133.624985,172.724969 C133.309648,169.950669 132.62164,167.176369 133.266648,164.499169 C133.432362,163.578128 133.905671,162.735114 134.613996,162.0994 C135.46237,161.537036 136.453942,161.210767 137.480695,161.156138 C139.544718,160.906451 141.780743,160.80935 143.472096,162.030042 C143.8591,162.460059 145.177782,165.054029 145.865789,165.844705 Z" id="Path" fill="#FFBAA8"></path>
                <path d="M133.839232,181 C133.839232,181 142.847789,183.884792 145.902496,186.78352 C148.957203,189.682248 153.482695,191.480017 152.973577,198.016092 C152.464459,204.552166 156,213.819734 156,213.819734 C156,213.819734 154.274656,225.581881 145.916638,229.846356 C137.55862,234.110831 139.807224,232.814765 139.807224,232.814765 C139.807224,232.814765 131.618912,212.886009 128.818764,207.423022 C126.018616,201.960034 125.594351,181.40415 133.839232,181 Z" id="Path" fill="#FFFFFF"></path>
                <path d="M149.420132,225.53433 C149.581667,226.189944 149.527446,226.880733 149.265641,227.502571 C148.966653,227.966663 148.574293,228.362247 148.113983,228.663691 C147.067975,229.52951 145.89234,230.222525 144.630921,230.716892 C143.349458,231.213754 141.908246,231.049955 140.768655,230.277932 C140.194133,229.771306 139.717908,229.161531 139.364195,228.479611 C136.061794,223.330938 133.330133,217.832223 131.218324,212.082326 C129.108977,206.305855 128.490377,200.083647 129.420614,194 L134.940144,200.272882 C137.183794,203.017025 139.727981,205.496614 142.524231,207.664404 C145.34451,209.829718 148.811527,210.963261 152.355454,210.878725 C156.414345,210.595525 156.737371,213.130166 155.009884,216.542727 C153.282398,219.955288 151.330198,218.213608 148.451054,217.718008 C147.060638,219.955288 149.012838,223.169609 149.420132,225.53433 Z" id="Path" fill="#020202" opacity="0.19"></path>
                <path d="M140.319631,180.13693 C140.683004,181.483649 140.821954,182.87809 140.731215,184.267394 C140.714145,184.829542 140.578919,185.382386 140.333824,185.892044 C140.024316,186.373294 139.619028,186.789867 139.14165,187.117415 C137.934392,188.009225 136.624674,188.76232 135.238702,189.361634 C133.928833,189.827447 132.653271,190.379459 131.420908,191.013819 L131.32156,191.08266 C129.48889,192.183664 128.135699,193.898055 127.517959,195.901536 C127.376034,196.369655 126.240631,195.02037 126.198053,194.951529 C125.879087,194.363755 125.59939,193.756703 125.360693,193.134124 C124.864986,191.594776 124.550744,190.005878 124.423985,188.397859 C123.827899,184.983341 119.442404,179.118082 121.585477,175.786174 C122.323489,174.629644 123.629203,173.941233 124.551718,172.922385 L124.551718,172.922385 C126.552867,170.65063 126.311593,167.304954 127.390226,164.510006 C128.3162,162.009957 130.23911,159.975857 132.726622,158.865038 C136.118639,157.378071 142.661401,157.405607 142.987829,162.210714 C143.143947,164.344788 141.76727,165.721609 140.631867,167.346258 C139.357742,168.968099 138.580562,170.905448 138.389446,172.936154 C138.318483,175.400664 139.680967,177.713724 140.319631,180.13693 Z" id="Path" fill="#FF681C"></path>
                <path d="M139.209107,191.326197 C139.209107,191.326197 146.711709,204.3619 147.901488,205.193966 C149.091266,206.026033 139.111126,214 139.111126,214 C139.111126,214 129.676883,201.671553 129.047001,195.750015 C128.417118,189.828478 134.240033,186.472478 139.209107,191.326197 Z" id="Path" fill="#FFFFFF"></path>
                <path d="M139,212.336123 C139,212.336123 140.104795,216.876513 145.559721,215.8485 L169.796163,211.350943 C171.315256,210.180151 173.552466,209.651866 174.560592,207.995623 C175.043939,207.210336 175.195849,206.253712 175.651577,205.439869 C176.302948,204.418286 177.280395,203.66541 178.413564,203.312453 C179.514665,202.943908 180.655851,202.718488 181.810809,202.641389 C182.160187,202.001545 182.014589,201.194693 181.465561,200.728143 C180.904419,200.299926 180.229398,200.060647 179.532169,200.042801 C176.624394,199.781904 173.734907,200.721245 171.494785,202.655667 C170.869363,203.31176 170.158148,203.874061 169.381865,204.326188 C168.791413,204.555005 168.173428,204.699124 167.545143,204.754527 C160.474454,205.596926 153.320906,205.239977 146.264028,206.110933 C144.594019,206.246404 142.968212,206.732215 141.485789,207.538729 C139.960885,208.63306 139.036358,210.417331 139,212.336123 Z" id="Path" fill="#FFBAA8"></path>
                <path d="M131.140198,169.805072 C131.039552,172.36047 132.074776,174.888091 131.772835,177.443488 C131.4264,179.143061 130.945724,180.814511 130.335024,182.443179 C129.745522,184.665263 129.472337,187.595637 130.737611,189.651066 C131.012268,190.096299 131.252555,190.560493 131.456517,191.039869 C129.599884,192.150454 128.228999,193.879764 127.603183,195.900679 C127.459402,196.372872 126.309153,195.011845 126.266019,194.942405 C125.942882,194.349516 125.659528,193.737181 125.41771,193.109185 C124.915521,191.55644 124.59717,189.953715 124.468755,188.331703 C123.864874,184.887472 119.422038,178.971171 121.593132,175.610268 C122.340794,174.443674 123.66358,173.749273 124.598158,172.721558 L124.598158,172.721558 C124.91966,172.489436 125.22247,172.234089 125.503979,171.957717 C126.659505,170.542577 127.684279,169.032251 128.566516,167.444107 C130.341721,164.875147 132.959937,162.957628 136,162 C133.160409,163.681611 131.34701,166.594016 131.140198,169.805072 Z" id="Path" fill="#020202" opacity="0.1"></path>
                <polygon id="Path" fill="#DDDDDD" points="202 166 187.870036 172.864466 183 200.112621 185.181227 202 196.197112 193.975146"></polygon>
                <polygon id="Path" fill="url(#linearGradient-2)" points="202 166 187.870036 172.864466 183 200.112621 185.181227 202 196.197112 193.975146"></polygon>
                <polygon id="Path" fill="#DDDDDD" points="172.926471 196.382166 177 196 173.235294 199.847134 169 200"></polygon>
            </g>
        </g>
    </g>
</svg>