<?xml version="1.0" encoding="UTF-8"?>
<svg width="381px" height="255px" viewBox="0 0 381 255" version="1.1" xmlns="http://www.w3.org/2000/svg" xmlns:xlink="http://www.w3.org/1999/xlink">
    <title>Illustration 10</title>
    <defs>
        <linearGradient x1="44.3129143%" y1="42.7658917%" x2="86.584758%" y2="92.6868795%" id="linearGradient-1">
            <stop stop-color="#010101" stop-opacity="0" offset="0%"></stop>
            <stop stop-color="#010101" offset="95%"></stop>
        </linearGradient>
        <linearGradient x1="35.7320099%" y1="6.32440476%" x2="144.83719%" y2="340.959821%" id="linearGradient-2">
            <stop stop-color="#010101" stop-opacity="0" offset="0%"></stop>
            <stop stop-color="#010101" offset="95%"></stop>
        </linearGradient>
        <linearGradient x1="34.6324442%" y1="6.74753601%" x2="151.598945%" y2="338.286581%" id="linearGradient-3">
            <stop stop-color="#010101" stop-opacity="0" offset="0%"></stop>
            <stop stop-color="#010101" offset="95%"></stop>
        </linearGradient>
        <linearGradient x1="57.4379982%" y1="41.2819401%" x2="19.160163%" y2="79.6344568%" id="linearGradient-4">
            <stop stop-color="#010101" stop-opacity="0" offset="0%"></stop>
            <stop stop-color="#010101" offset="95%"></stop>
        </linearGradient>
        <linearGradient x1="44.8552858%" y1="55.2807224%" x2="73.7084832%" y2="17.7071064%" id="linearGradient-5">
            <stop stop-color="#010101" stop-opacity="0" offset="0%"></stop>
            <stop stop-color="#010101" offset="95%"></stop>
        </linearGradient>
        <linearGradient x1="38.9029258%" y1="55.558058%" x2="163.05351%" y2="-28.6336724%" id="linearGradient-6">
            <stop stop-color="#010101" stop-opacity="0" offset="0%"></stop>
            <stop stop-color="#010101" offset="95%"></stop>
        </linearGradient>
        <linearGradient x1="59.9136357%" y1="55.8823529%" x2="12.7156611%" y2="9.12011864%" id="linearGradient-7">
            <stop stop-color="#010101" stop-opacity="0" offset="0%"></stop>
            <stop stop-color="#010101" offset="95%"></stop>
        </linearGradient>
        <linearGradient x1="59.045635%" y1="51.206815%" x2="-22.6031473%" y2="37.2929484%" id="linearGradient-8">
            <stop stop-color="#010101" stop-opacity="0" offset="0%"></stop>
            <stop stop-color="#010101" offset="95%"></stop>
        </linearGradient>
        <linearGradient x1="62.8682373%" y1="47.898078%" x2="-52.826429%" y2="109.9488%" id="linearGradient-9">
            <stop stop-color="#010101" stop-opacity="0" offset="0%"></stop>
            <stop stop-color="#010101" offset="95%"></stop>
        </linearGradient>
        <linearGradient x1="68.355228%" y1="58.0359339%" x2="-145.695156%" y2="15.557133%" id="linearGradient-10">
            <stop stop-color="#010101" stop-opacity="0" offset="0%"></stop>
            <stop stop-color="#010101" offset="95%"></stop>
        </linearGradient>
        <linearGradient x1="130.024361%" y1="33.3869655%" x2="-0.609013398%" y2="57.2067718%" id="linearGradient-11">
            <stop stop-color="#010101" stop-opacity="0" offset="0%"></stop>
            <stop stop-color="#010101" offset="95%"></stop>
        </linearGradient>
        <linearGradient x1="50.5897772%" y1="42.035742%" x2="45.6094364%" y2="64.2191142%" id="linearGradient-12">
            <stop stop-color="#010101" stop-opacity="0" offset="0%"></stop>
            <stop stop-color="#010101" offset="95%"></stop>
        </linearGradient>
        <linearGradient x1="29.4743942%" y1="92.5370496%" x2="200.218373%" y2="-283.477732%" id="linearGradient-13">
            <stop stop-color="#010101" stop-opacity="0" offset="0%"></stop>
            <stop stop-color="#010101" offset="95%"></stop>
        </linearGradient>
        <linearGradient x1="60.4145348%" y1="58.8979539%" x2="12.0164945%" y2="2.87554297%" id="linearGradient-14">
            <stop stop-color="#010101" stop-opacity="0" offset="0%"></stop>
            <stop stop-color="#010101" offset="95%"></stop>
        </linearGradient>
        <linearGradient x1="59.030303%" y1="62.1135119%" x2="-4%" y2="-26.5167077%" id="linearGradient-15">
            <stop stop-color="#010101" stop-opacity="0" offset="0%"></stop>
            <stop stop-color="#010101" offset="95%"></stop>
        </linearGradient>
        <linearGradient x1="43.8531371%" y1="50.1336994%" x2="157.842696%" y2="12.789209%" id="linearGradient-16">
            <stop stop-color="#010101" stop-opacity="0" offset="0%"></stop>
            <stop stop-color="#010101" offset="95%"></stop>
        </linearGradient>
        <linearGradient x1="50.2522536%" y1="44.1804667%" x2="47.0048077%" y2="119.067557%" id="linearGradient-17">
            <stop stop-color="#010101" stop-opacity="0" offset="0%"></stop>
            <stop stop-color="#010101" offset="95%"></stop>
        </linearGradient>
        <linearGradient x1="50.5793431%" y1="43.9899557%" x2="43.203711%" y2="120.518073%" id="linearGradient-18">
            <stop stop-color="#010101" stop-opacity="0" offset="0%"></stop>
            <stop stop-color="#010101" offset="95%"></stop>
        </linearGradient>
        <linearGradient x1="50.1730154%" y1="44.2871424%" x2="47.9615255%" y2="117.301429%" id="linearGradient-19">
            <stop stop-color="#010101" stop-opacity="0" offset="0%"></stop>
            <stop stop-color="#010101" offset="95%"></stop>
        </linearGradient>
        <linearGradient x1="50.2480442%" y1="43.8564981%" x2="47.0294604%" y2="118.554849%" id="linearGradient-20">
            <stop stop-color="#010101" stop-opacity="0" offset="0%"></stop>
            <stop stop-color="#010101" offset="95%"></stop>
        </linearGradient>
        <linearGradient x1="44.263553%" y1="54.0273425%" x2="85.0820988%" y2="29.5240326%" id="linearGradient-21">
            <stop stop-color="#010101" stop-opacity="0" offset="0%"></stop>
            <stop stop-color="#010101" offset="95%"></stop>
        </linearGradient>
        <linearGradient x1="55.1869696%" y1="55.1629368%" x2="26.347319%" y2="17.6285826%" id="linearGradient-22">
            <stop stop-color="#010101" stop-opacity="0" offset="0%"></stop>
            <stop stop-color="#010101" offset="95%"></stop>
        </linearGradient>
        <linearGradient x1="61.1437689%" y1="55.4883135%" x2="-63.1249934%" y2="-28.7632233%" id="linearGradient-23">
            <stop stop-color="#010101" stop-opacity="0" offset="0%"></stop>
            <stop stop-color="#010101" offset="95%"></stop>
        </linearGradient>
        <linearGradient x1="40.0889935%" y1="55.8714462%" x2="87.3071728%" y2="9.1223733%" id="linearGradient-24">
            <stop stop-color="#010101" stop-opacity="0" offset="0%"></stop>
            <stop stop-color="#010101" offset="95%"></stop>
        </linearGradient>
        <linearGradient x1="40.9409521%" y1="51.1825922%" x2="122.586057%" y2="37.3226112%" id="linearGradient-25">
            <stop stop-color="#010101" stop-opacity="0" offset="0%"></stop>
            <stop stop-color="#010101" offset="95%"></stop>
        </linearGradient>
        <linearGradient x1="37.0805384%" y1="47.9121943%" x2="152.884446%" y2="109.980222%" id="linearGradient-26">
            <stop stop-color="#010101" stop-opacity="0" offset="0%"></stop>
            <stop stop-color="#010101" offset="95%"></stop>
        </linearGradient>
        <linearGradient x1="31.7890181%" y1="57.9838791%" x2="245.755258%" y2="15.5914409%" id="linearGradient-27">
            <stop stop-color="#010101" stop-opacity="0" offset="0%"></stop>
            <stop stop-color="#010101" offset="95%"></stop>
        </linearGradient>
        <linearGradient x1="-29.9332119%" y1="33.3312803%" x2="100.303582%" y2="57.2309281%" id="linearGradient-28">
            <stop stop-color="#010101" stop-opacity="0" offset="0%"></stop>
            <stop stop-color="#010101" offset="95%"></stop>
        </linearGradient>
        <linearGradient x1="49.2791612%" y1="41.9533412%" x2="54.259502%" y2="64.5314353%" id="linearGradient-29">
            <stop stop-color="#010101" stop-opacity="0" offset="0%"></stop>
            <stop stop-color="#010101" offset="95%"></stop>
        </linearGradient>
        <linearGradient x1="70.52513%" y1="92.5467221%" x2="-100.029981%" y2="-283.618065%" id="linearGradient-30">
            <stop stop-color="#010101" stop-opacity="0" offset="0%"></stop>
            <stop stop-color="#010101" offset="95%"></stop>
        </linearGradient>
        <linearGradient x1="39.6369928%" y1="58.9333718%" x2="87.9771483%" y2="2.79662142%" id="linearGradient-31">
            <stop stop-color="#010101" stop-opacity="0" offset="0%"></stop>
            <stop stop-color="#010101" offset="95%"></stop>
        </linearGradient>
        <linearGradient x1="40.9518036%" y1="62.1708614%" x2="104.001212%" y2="-26.5752132%" id="linearGradient-32">
            <stop stop-color="#010101" stop-opacity="0" offset="0%"></stop>
            <stop stop-color="#010101" offset="95%"></stop>
        </linearGradient>
        <linearGradient x1="56.2492331%" y1="51.6097717%" x2="-57.0911547%" y2="13.7966716%" id="linearGradient-33">
            <stop stop-color="#010101" stop-opacity="0" offset="0%"></stop>
            <stop stop-color="#010101" offset="95%"></stop>
        </linearGradient>
    </defs>
    <g id="DESIGN-SYSTEM" stroke="none" stroke-width="1" fill="none" fill-rule="evenodd">
        <g id="Illustrations" transform="translate(-589.000000, -363.000000)" fill-rule="nonzero">
            <g id="Illustration-10" transform="translate(589.000000, 363.000000)">
                <path d="M370.883974,164.630878 C365.073868,184.248455 359.792641,204.726187 347.212894,220.903142 C346.208025,222.208466 345.157824,223.460973 344.06229,224.675753 C334.776699,235.095705 322.748496,242.701288 309.609649,247.658499 C296.960635,252.334907 283.604292,254.817824 270.117553,255 C268.606473,255 267.042504,255 265.501202,255 C253.918325,254.774883 242.382736,253.456141 231.04856,251.061394 C220.266999,248.87328 209.576103,245.960824 198.998537,242.76165 C194.283966,241.317998 189.594578,239.85171 184.930376,238.362786 C178.130512,236.189762 171.330649,233.979012 164.530785,231.836169 C152.021264,227.759112 139.31472,224.311639 126.459106,221.50676 C117.868446,219.675722 109.165688,218.415421 100.408073,217.734149 C97.6352403,217.522883 94.8095193,217.379524 92.0064645,217.221074 C85.5163726,216.866449 79.0565024,216.398645 72.7552956,214.814148 C63.182599,212.414768 54.4787739,207.472648 45.9336122,202.530527 C29.969044,193.25745 13.3018232,182.792227 5.27798442,166.147468 C-14.3660654,125.357998 24.4611546,88.3864113 61.8981804,80.8336442 C72.0526431,78.8039795 82.1844396,78.7360726 92.0064645,76.3593277 C95.3023712,75.5732249 98.5154503,74.4741652 101.601827,73.0771562 C109.074122,69.6667159 115.700211,64.9132261 122.235635,59.9711058 C132.881199,51.9052637 143.194325,43.3716178 156.234952,39.4179215 C180.646462,31.9783328 205.904177,43.5677935 231.03345,49.1588029 C233.300071,49.671878 235.566692,50.1170461 237.833313,50.5093976 C246.980108,51.9658963 256.231502,52.6674592 265.493646,52.6069693 C280.800894,52.7503285 296.229029,51.814721 311.521166,52.9842304 C336.053562,54.8705359 362.399255,64.1209778 374.283905,85.6399505 C387.407642,109.369673 378.560264,138.622498 370.883974,164.630878 Z" id="Path" fill="#DDDDDD" opacity="0.24"></path>
                <polygon id="Path" fill="#DDDDDD" points="339 29 337.512411 34.6177278 331.192045 58.4968565 324.403504 56.717657 328.481159 41.2121226 219.381224 120.753697 165.586378 103.65824 40.2664357 200 36 194.43527 164.234711 95.8676171 218.142825 112.993359 323.353885 36.2757903 307.700219 36.5332064 307.602054 29.5148322 338.25243 29"></polygon>
                <polygon id="Path" fill="url(#linearGradient-1)" points="339 29 337.512411 34.6177278 331.192045 58.4968565 324.403504 56.717657 328.481159 41.2121226 219.381224 120.753697 165.586378 103.65824 40.2664357 200 36 194.43527 164.234711 95.8676171 218.142825 112.993359 323.353885 36.2757903 307.700219 36.5332064 307.602054 29.5148322 338.25243 29"></polygon>
                <polygon id="Path" fill="url(#linearGradient-2)" points="133.977667 119 134 128.164062 119 140 122.461538 128.289062"></polygon>
                <polygon id="Path" fill="url(#linearGradient-3)" points="272.947891 74 273 82.5140258 258 94 261.468983 82.6429113"></polygon>
                <path d="M126,57 L126,222 C117.525799,220.124781 108.936908,218.827809 100.291228,218.117825 C97.5548246,217.906344 94.7662281,217.76284 92,217.596677 L92,57 L126,57 Z" id="Path" fill="#DDDDDD"></path>
                <path d="M199,119 L199,243 C194.349408,241.554303 189.723659,240.085938 185.122753,238.594906 C178.415169,236.418804 171.707584,234.204924 165,232.059046 L165,119 L199,119 Z" id="Path" fill="#DDDDDD"></path>
                <path d="M266,18 L266,255 C254.5693,254.774807 243.185267,253.45562 232,251.060064 L232,18 L266,18 Z" id="Path" fill="#DDDDDD"></path>
                <path d="M344,84 L344,225.011321 C334.836404,235.433962 322.966228,243.041509 310,248 L310,84 L344,84 Z" id="Path" fill="#DDDDDD"></path>
                <path d="M119.779435,19.1513122 C123.104572,22.2855245 123.417861,27.0513487 123.695549,29.2293607 C124.101484,31.9340501 124.101484,34.6903189 123.695549,37.3950084 C123.26823,40.10866 122.081957,42.6215085 120.29209,44.6044557 C120.155017,44.7694878 119.984602,44.8992253 119.793676,44.9839003 C119.34992,45.053309 118.901414,44.895841 118.583241,44.5589224 C118.018955,44.1808801 117.551637,43.659331 117.223281,43.041144 C116.511261,41.4626545 117.671854,39.739976 118.334033,38.1463087 C119.758075,34.7920184 118.981972,30.9065058 117.985143,27.4004377 C117.52945,25.7991815 116.091168,17.7625449 118.106187,18.0053895 C118.775486,18.0812784 118.761246,18.1951118 119.779435,19.1513122 Z" id="Path" fill="#DDDDDD"></path>
                <path d="M118.457751,22.445414 C121.439628,26.1004113 120.999801,30.8724244 120.947619,33.0836597 C120.939889,35.8237912 120.504562,38.5452237 119.657956,41.1459302 C118.797132,43.7608708 117.180814,46.0494297 115.021137,47.7112476 C114.854512,47.8518157 114.657937,47.9507012 114.447125,48 C113.977837,47.9940392 113.538694,47.7631868 113.261829,47.3769027 C112.737262,46.9068358 112.335149,46.311591 112.091442,45.6443884 C111.621796,43.9650654 113.068007,42.445316 113.999843,40.9863566 C115.952973,37.908864 115.78897,33.9347194 115.29696,30.3025183 C115.073319,28.6459915 114.827314,20.4241473 116.869901,21.032047 C117.578097,21.214417 117.548278,21.3207994 118.457751,22.445414 Z" id="Path" fill="url(#linearGradient-4)"></path>
                <path d="M118.998385,73.1652925 C118.945435,74.1425206 118.892485,75.2167256 119.497627,76 C121.063431,75.0749902 121.532416,73.0757754 121.766909,71.2928936 C122.158246,67.7499997 122.056446,64.1709696 121.464338,60.6552807 C121.401369,60.088372 121.234787,59.537401 120.97266,59.0290538 C120.470056,58.3001011 119.755384,57.738344 118.922742,57.4177464 C118.42517,57.145133 117.865625,57.0014047 117.296423,57 C116.716191,57.0077816 116.203955,57.3754408 116.018061,57.9175501 C115.97324,58.2622662 116.012129,58.6125521 116.131525,58.9395367 C116.39152,60.1273938 116.803278,61.2779222 117.356937,62.363565 C117.916041,63.2388986 118.332114,64.1954812 118.589914,65.1982725 C119.152746,67.8158929 119.290619,70.5050358 118.998385,73.1652925 L118.998385,73.1652925 Z" id="Path" fill="url(#linearGradient-5)"></path>
                <path d="M97.8928228,59.3371328 C99.0845444,60.1695867 100.486863,60.6181683 101.923602,60.6265214 C102.445838,60.6265214 102.968074,60.679928 103.497666,60.7104461 C105.015416,60.7794618 106.23294,62.0357416 106.307443,63.6096629 C106.351576,64.7388315 106.373642,65.8680002 106.373642,66.9971688 C106.373642,69.6980182 106.278021,72.5209398 107.425469,74.9471265 C107.668199,75.4506747 108.050682,75.9923705 108.594984,76 C108.889657,75.9887561 109.171018,75.8698559 109.389371,75.6643012 C110.088722,75.0642382 110.571058,74.2357689 110.757482,73.3144097 C110.946399,72.397198 111.025455,71.4593069 110.992856,70.5220061 C110.992856,66.9437622 110.691283,63.2892231 109.345238,59.9932714 C109.200893,59.6175264 109.026192,59.2551063 108.823002,58.9098798 C107.939906,57.5876867 106.603323,56.6652481 105.08644,56.3311028 C103.585537,56.0029989 102.044688,55.918067 100.518714,56.0793287 C99.7831702,56.1327353 99.0476265,56.1937714 98.3120828,56.231919 C97.9075337,56.231919 96.3849582,56.0182925 96.1054516,56.231919 C95.5317275,56.7507263 97.4662075,58.9938045 97.8928228,59.3371328 Z" id="Path" fill="url(#linearGradient-6)"></path>
                <path d="M128.995838,58.1207188 C129.157224,61.6447561 124.576947,79.1517509 123.616319,79.8007171 C122.786336,80.3591299 121.31081,79.6196102 120.434717,79.1064742 L120.035096,78.8197217 C119.366498,78.3367701 120.434717,64.8820409 120.434717,64.8820409 C120.434717,64.8820409 120.772858,60.3166392 117.514406,57.6528594 C113.887073,54.694781 109.729473,51.9706322 110.013819,49.8728113 C110.038456,49.5559197 110.174256,49.2572262 110.398071,49.027646 C112.227107,46.8845484 122.62495,48.51451 124.807498,50.0991949 L124.922773,50.174656 C124.927493,50.1893925 124.927493,50.2051963 124.922773,50.2199328 C124.976569,50.2652095 125.045734,50.3557629 125.161009,50.4765008 C125.276285,50.5972387 125.591371,50.9896368 125.875717,51.3367583 C126.646218,52.3820833 127.337181,53.4817666 127.942989,54.6268659 C128.516315,55.7154215 128.873611,56.9010975 128.995838,58.1207188 L128.995838,58.1207188 Z" id="Path" fill="#606161"></path>
                <path d="M127,54.9466139 C127,55.8363816 120.234917,54.3460208 119.405648,55.8363816 C118.57638,57.3267425 120.416774,56.733564 121.064185,60.0331191 C121.711596,63.3326742 121.064185,76.9609491 120.336757,78.3994068 C120.226798,78.6341588 120.064953,78.8397364 119.863928,79 L119.485665,78.7182402 C118.852803,78.2436975 119.863928,65.0232328 119.863928,65.0232328 C119.863928,65.0232328 120.183997,60.5373208 117.0997,57.9199209 C117.0997,57.9199209 117.572529,54.9540287 115.441164,53.2486406 C113.751027,52.0406147 111.924112,51.0447923 110,50.2827484 C112.573332,49.4454673 115.256842,49.0129165 117.958066,49 C120.049118,49.0842465 122.103318,49.5881843 124.002995,50.4829461 L124.11211,50.5570934 C124.116577,50.5715733 124.116577,50.5871019 124.11211,50.6015818 C124.16303,50.6460702 124.228498,50.735047 124.337612,50.8536826 C124.446727,50.9723183 124.744972,51.3578843 125.014121,51.6989619 C125.908858,52.8408304 127,54.4127533 127,54.9466139 Z" id="Path" fill="url(#linearGradient-7)"></path>
                <path d="M114.690889,79.4352317 C114.3172,80.5030472 113.691314,81.4703227 112.863699,82.2590613 C111.993987,83.0450494 110.715827,83.2239006 109.654406,82.7081339 C108.514364,82.0231079 108.303535,80.561719 108.178599,79.2982265 C107.795982,74.8760029 107.772557,67.1884884 107.397749,62.7662648 C107.359128,62.2701106 107.127245,61.807156 106.749643,61.4723267 L106.749643,61.4723267 C106.171795,61.0393912 105.518378,60.7119039 104.820944,60.5056788 C103.446647,60.0566062 101.697543,59.7445388 100.448183,58.8844505 C99.9895009,58.6083539 99.5892725,58.2492313 99.2690995,57.8264659 C97.0046343,54.7819057 96.1456992,48.6318942 98.0431649,45.6938936 C98.5469016,44.7844893 99.4733315,44.1711001 100.526268,44.0498311 C103.805838,43.6464269 109.716874,45.739562 111.09117,48.6166713 C111.401443,49.5920056 111.820396,50.5312731 112.34053,51.4176667 C113.43372,52.8942784 115.573249,53.343351 116.635205,54.8504083 C117.117751,55.6401414 117.416313,56.5236121 117.509757,57.4382845 C118.695923,64.8833235 117.719427,72.5033771 114.690889,79.4352317 Z" id="Path" fill="#606161"></path>
                <path d="M106.839372,59.6445812 C107.034739,60.0783012 107.018234,60.5805996 106.794837,61 C106.609271,60.9091339 106.453396,60.7879792 106.267831,60.6971131 L106.267831,60.6971131 C105.666599,60.3715097 105.050522,60.0383341 104.434444,59.7354472 C103.558576,59.3416943 102.645594,58.97823 101.725189,58.6374823 C101.242719,58.4708945 100.760249,58.3118788 100.277779,58.1225745 C99.8417643,57.8479009 99.4613146,57.4906291 99.156964,57.0700426 C97.0044052,54.0411737 96.1879174,47.9228585 97.9916132,45 C99.7531686,45.2460177 101.454596,45.8237315 103.009302,46.7037388 C103.951974,47.1732134 104.887224,47.6199716 105.785361,48.1575958 C106.37917,48.5059158 107.596479,49.0208235 106.653807,49.6720303 C105.369694,50.580691 102.942499,48.9678183 101.933023,50.4292475 C101.752032,50.7656936 101.657547,51.1434336 101.658386,51.5272125 C101.61385,52.0875532 101.561892,52.6706105 101.517356,53.2612399 C101.459824,53.7678594 101.492514,54.2809155 101.61385,54.7756744 C101.897772,55.4050334 102.360714,55.9327082 102.942499,56.2901088 C104.005083,56.9592541 105.03094,57.6872732 106.015462,58.4708945 C106.366289,58.8001649 106.64677,59.1997182 106.839372,59.6445812 Z" id="Path" fill="url(#linearGradient-8)"></path>
                <path d="M109.964477,87.1377528 C110.344055,87.5147974 110.767223,87.8417123 111.224327,88.1110405 L113.190567,89.3785779 C113.918804,89.8388146 114.836383,90.2839617 115.499078,89.7709109 C116.161774,89.25786 116.052539,88.360021 115.819503,87.6281691 C115.467729,86.5361958 114.853773,85.5548046 114.035322,84.77621 C113.862364,84.6375635 113.716536,84.4659923 113.605662,84.270704 C113.532456,84.0580489 113.502697,83.8319541 113.518274,83.6067559 L113.518274,81.5092833 C113.518274,79.3891761 110.699996,79.7664194 109.811547,81.0264119 C108.726474,82.5731093 108.68278,85.7193182 109.964477,87.1377528 Z" id="Path" fill="#606161"></path>
                <path d="M119.468327,84.9883557 C119.923718,85.8333387 120.582854,86.4873481 121.355851,86.861199 C122.096961,87.2888937 122.86864,87.6338093 123.661325,87.8916717 C123.988524,88.0653263 124.365683,88.0284751 124.665757,87.7935314 C124.793782,87.6250048 124.878171,87.4145565 124.908439,87.1883332 C125.180695,85.7251665 124.837278,84.1934291 123.991642,83.0991557 C123.614154,82.7111689 123.276877,82.2690308 122.98721,81.7824405 C122.727258,80.9816772 122.610086,80.1231861 122.643411,79.2635072 C122.495106,77.3661289 120.000878,77.8568302 119.394175,79.0917618 C118.787471,80.3266934 118.935776,83.8188509 119.468327,84.9883557 Z" id="Path" fill="#606161"></path>
                <path d="M98.0081913,43.6809529 C97.9596279,44.3843713 98.1278515,45.0857721 98.4901912,45.6906291 C98.8649526,46.1142906 99.33167,46.4465909 99.8546215,46.6620963 C102.405513,47.9450262 105.000897,49.2427876 107.803911,49.769308 C110.606926,50.2958283 113.69914,49.969534 115.960832,48.286152 C116.784199,47.7018933 117.408076,46.8786419 117.747939,45.9279341 C118.111293,44.7710725 117.866585,43.5252215 117.807262,42.3090336 C117.651539,39.2908113 118.660031,36.3764099 119.364493,33.410098 C120.068954,30.4437862 120.439723,27.2401693 119.104954,24.5111624 C118.05197,22.3754179 120.313661,20.5807992 118.318924,19.275622 C115.515909,17.4365086 112.223479,16.5466151 107.633358,17.2288668 C105.853666,17.4958349 99.7804677,19.9949526 99.1279141,21.6783346 C98.4753604,23.3617166 100.388529,25.0599301 100.166068,26.8693804 C99.4838524,32.3422258 98.0081913,38.1117023 98.0081913,43.6809529 Z" id="Path" fill="#DDDDDD"></path>
                <path d="M101.700969,33.5795419 C101.700969,32.7021735 102.446635,32.0402992 103.01334,31.3938172 C104.043183,30.1462195 104.564376,28.5351673 104.467388,26.8992285 C104.415192,25.9756829 103.818659,24.828947 102.976057,25.0213524 C102.767054,25.0805146 102.571768,25.1826033 102.401895,25.3215047 C100.388793,26.7503656 98.922396,28.8600216 98.2559944,31.2860702 C97.9928004,32.1465346 97.9314626,33.0592311 98.0770347,33.9489601 C98.4055718,35.1276209 99.0676815,36.1781519 99.9784818,36.9658759 C101.682595,38.630883 103.718475,39.8916547 105.943806,40.6600584 C106.532882,40.86016 108.344849,41.4758571 107.94219,40.2983364 C107.69612,39.636462 101.671143,34.4338216 101.700969,33.5795419 Z" id="Path" fill="url(#linearGradient-9)"></path>
                <path d="M101.601958,43.8441666 C101.656414,43.7468049 101.73545,43.6646492 101.831562,43.6054988 C101.971418,43.5464813 102.125945,43.5288772 102.275958,43.5548723 C103.150511,43.6344113 104.030743,43.6344113 104.905296,43.5548723 C105.182401,43.5513213 105.454434,43.4818095 105.697801,43.3523663 C105.951425,43.2038154 106.062899,42.90145 105.964438,42.6291305 C105.845933,42.375998 105.52745,42.2964421 105.22378,42.2313509 C104.25568,42.0160482 103.319784,41.6806345 102.438903,41.2332855 C101.671112,40.7818405 100.862948,40.3993677 100.024355,40.090573 C99.3577621,39.9025317 98.4393452,39.9748553 98.209741,40.6185351 C98.1594585,40.7678704 98.1344418,40.9242108 98.1356751,41.081406 L98.0393895,43.0341426 C97.9382303,43.7541166 98.0327384,44.4874077 98.3134332,45.1604557 C98.8844932,45.9812252 99.7345865,46.578177 100.713168,46.8455951 C100.990629,46.9875109 101.30916,47.0334018 101.616771,46.9757775 C101.194596,45.9849445 100.920552,44.8856261 101.601958,43.8441666 Z" id="Path" fill="url(#linearGradient-10)"></path>
                <path d="M103,44 L115.38246,44.6180301 L116,44.8184723 C116,44.8184723 114.79659,49.1780898 112.595615,48.9943512 C110.394641,48.8106125 103,44 103,44 Z" id="Path" fill="url(#linearGradient-11)"></path>
                <path d="M108,45 L114,45.034965 C114,45.034965 112.726081,46.8951049 111.640891,47 L108,45 Z" id="Path" fill="#DDDDDD"></path>
                <path d="M108,45 L114,45.034965 C114,45.034965 112.726081,46.8951049 111.640891,47 L108,45 Z" id="Path" fill="url(#linearGradient-12)"></path>
                <path d="M98.5867893,21.7864425 C96.6876907,23.963653 95.0246524,26.3506721 93.6275633,28.9045991 C92.6371963,30.7071495 91.7576912,32.7398127 92.0607139,34.7878168 C92.4144764,36.5785704 93.420554,38.1585224 94.8692175,39.1983125 C96.3069777,40.2223975 97.8672727,41.047533 99.5106392,41.6528492 L104.395957,43.7085238 C104.755334,43.8913955 105.148769,43.9908583 105.548922,44 C106.797967,43.9309662 107.315323,42.151427 106.805358,40.9701812 C106.295392,39.7889354 105.194163,39.0295631 104.32944,38.1014414 C103.464717,37.1733197 100.937063,35.7005977 100.560133,34.3275912 C100.480425,34.0806142 100.462621,33.8166416 100.508397,33.5605484 C100.616324,33.3024156 100.786946,33.0777659 101.003581,32.9085621 C103.723394,30.3159577 107.500093,25.7290422 106.73145,21.8247947 C105.800209,16.984755 100.72273,19.3165649 98.5867893,21.7864425 Z" id="Path" fill="#DDDDDD"></path>
                <path d="M110.10862,22.634213 C111.107059,23.2181237 112.32147,23.0952825 113.20842,22.3206594 C113.616115,21.9253749 113.886576,21.3843479 113.973038,20.7911295 C114.200356,19.100999 112.912217,17.5255832 113.029321,15.8201574 C113.084428,14.9636206 113.483958,14.0994362 113.20842,13.3040807 C112.981101,12.6234399 109.557544,11.5145307 109.433552,12.2334097 C108.55872,17.2579155 106.375083,20.5769953 110.10862,22.634213 Z" id="Path" fill="#F4A982"></path>
                <path d="M110.010767,12 C110.010767,12 109.620653,19.5003714 113.536802,18.9734858 C113.536802,18.9734858 114.151983,18.8882543 113.964427,17.9584562 C113.776872,17.0286581 113.026652,16.0833633 113.064163,15.2620417 C113.101674,14.44072 110.010767,12 110.010767,12 Z" id="Path" fill="url(#linearGradient-13)"></path>
                <path d="M119,7.89453904 C118.778672,9.98201475 117.500685,12.34732 116.70105,13.8040476 C116.219596,14.7809809 115.551114,15.6425492 114.73766,16.3345488 C113.891765,17.0082452 112.778303,17.1836209 111.781867,16.8001009 C110.929118,16.3060188 110.273045,15.5067797 109.932711,14.5474293 C109.275696,13.1006434 108.957449,11.5094911 109.004564,9.9069257 C109.097379,8.23994869 109.847036,5.06368168 112.096009,6.26510655 C112.560083,6.52040934 112.867086,7.0159971 113.309741,7.28631769 C113.932884,7.72820137 114.736455,7.77435222 115.401643,7.40646018 C115.644389,7.26379098 115.908554,7.05354163 116.172719,7.1511574 C116.298225,7.20441596 116.412321,7.28356349 116.508281,7.38393346 C117.071312,7.81835483 117.837242,7.81835483 118.400274,7.38393346 C118.518712,7.63890181 118.738224,7.82579437 119,7.89453904 Z" id="Path" fill="#F4A982"></path>
                <path d="M112.512975,42.4779092 C112.937109,43.2566207 113.090357,44.154657 112.948536,45.0303099 C112.942723,45.1992239 112.90068,45.3649042 112.825264,45.5160894 C112.699732,45.6932401 112.51675,45.8212771 112.307522,45.8783657 C110.778948,46.4053129 109.242157,45.0550106 107.623184,44.9644415 C107.220757,44.9850188 106.817545,44.9850188 106.415118,44.9644415 C105.903145,44.8610277 105.418693,44.6506112 104.99338,44.3469252 C104.524946,44.0587509 104.072949,43.7541096 103.62917,43.4330011 C102.544376,42.6508138 103.012809,41.2511101 103.900368,40.501857 C104.557643,39.9303255 105.503832,39.8378412 106.258973,40.2713176 C108.149145,40.9217681 111.288473,40.6006596 112.512975,42.4779092 Z" id="Path" fill="#F4A982"></path>
                <path d="M121.599098,42.2670834 C121.74565,42.3678168 121.864652,42.5103352 121.94346,42.6794949 C122.002267,42.8543812 122.015519,43.0438506 121.981722,43.2265715 C121.873424,44.2964403 121.514852,45.317172 120.940985,46.1892014 C120.731063,46.5916469 120.37942,46.8809508 119.969119,46.9887749 C119.203871,47.1066067 118.698807,46.2649505 118.010083,45.9535377 C117.32136,45.6421249 116.410714,45.9030383 115.767906,45.4317108 C115.27644,44.9874364 114.994941,44.321784 115.002657,43.6221499 C114.91848,42.2670834 116.854558,41.3496781 117.902949,41.0971812 C119.157956,40.7184359 120.627233,41.5180093 121.599098,42.2670834 Z" id="Path" fill="#F4A982"></path>
                <path d="M118.346201,38.9575007 C118.570405,38.2994409 119.019486,37.7453288 119.611556,37.3962063 C119.872188,37.2997836 120.147144,37.2496143 120.42445,37.2478834 C126.617163,36.7721816 132.842295,36.9815786 138.990649,37.8724011 C139.038234,38.2724604 138.9025,38.6725789 138.622546,38.9575007 C135.766181,42.9374378 132.664288,46.7286115 129.335612,50.308111 C129.133674,50.5383185 128.891934,50.7288316 128.622412,50.8701769 C128.250642,51.0017199 127.851935,51.033974 127.464421,50.9638546 C126.467475,50.8623705 125.485867,50.6984346 124.49659,50.5423051 C120.594486,49.9470131 116.655265,49.639159 112.709623,49.6211414 C111.794242,49.6703785 110.876753,49.5809291 109.987194,49.3557214 C109.342135,49.13539 108.724471,48.839353 108.146678,48.4735901 C106.051285,47.3530472 104.079444,46.0079107 102.264698,44.4610635 C102.126659,44.3361599 101.973283,44.172224 102.003958,43.9848687 C102.034634,43.7975133 102.218685,43.6882227 102.387399,43.6179645 C104.327609,42.8373173 105.255536,44.437644 107.050038,45.5071307 C108.146678,46.1706808 109.987194,47.5602328 111.198866,47.927137 C112.410539,48.2940412 113.660556,46.2175197 114.304736,45.4212595 C115.929743,43.4603105 117.289017,41.2863411 118.346201,38.9575007 Z" id="Path" fill="#DDDDDD"></path>
                <path d="M138.67459,38.9722787 C138.336717,39.4015429 138.006523,39.8620263 137.676329,40.2990953 C135.122653,43.8112852 132.349986,47.1533971 129.375401,50.3048532 C129.170382,50.5361503 128.929066,50.7313131 128.66126,50.8824086 C128.28545,50.9956965 127.890438,51.0276026 127.501741,50.9760663 C126.503479,50.8824086 125.505218,50.6872885 124.506957,50.5468021 C120.809994,49.9631496 117.075355,49.6605247 113.334107,49.6414449 C113.129497,49.6297595 112.924403,49.6297595 112.719792,49.6414449 C112.343525,49.6414449 111.951899,49.6414449 111.606347,49.6414449 C111.060523,49.6353767 110.518039,49.5539831 109.993771,49.399496 C109.345758,49.1750467 108.724908,48.8765531 108.143147,48.5097484 C106.814692,47.7292681 105.463199,46.9487877 104.203854,46.0512353 C103.519661,45.5797893 102.870336,45.0580753 102.261084,44.4902747 C102.098959,44.3844049 102.000671,44.202237 102,44.0063769 C102,43.8190616 102.207331,43.7175991 102.376268,43.6473559 C104.319038,42.8668756 104.894958,44.1546681 106.676471,45.2083166 C107.76688,45.8639201 110.00145,47.5497576 111.207042,47.9243882 C112.412635,48.2990187 113.67198,46.222941 114.278616,45.4268511 C115.911708,43.4645217 117.282727,41.2916177 118.35613,38.9644739 C118.572467,38.3042848 119.020894,37.7484583 119.615475,37.4035132 C119.859868,37.3019759 120.119615,37.2438949 120.383369,37.2318076 C126.587477,36.778519 132.821299,36.9904167 138.981748,37.8639966 C139.047236,38.2615029 138.934587,38.667961 138.67459,38.9722787 L138.67459,38.9722787 Z" id="Path" fill="url(#linearGradient-14)"></path>
                <path d="M139,39.6323512 C136.153718,43.3674867 133.093307,46.943519 129.833333,50.3434284 C129.631069,50.5618904 129.392995,50.7462231 129.128788,50.888934 C128.758027,50.9959353 128.368323,51.0260709 127.984848,50.9773944 C127,50.888934 126.015152,50.7046416 125.030303,50.571951 C121.380704,50.0178528 117.693698,49.729556 114,49.7094623 C114.512823,49.2743612 114.968309,48.7791474 115.356061,48.2351227 C116.954747,46.3757248 118.301605,44.3243826 119.363636,42.1313568 C119.643939,41.5342493 120.94697,39.6176078 121.583333,39.3669701 C121.840567,39.2847663 122.108262,39.2376309 122.378788,39.2269078 C127.919236,38.8228533 133.487316,38.9586762 139,39.6323512 L139,39.6323512 Z" id="Path" fill="url(#linearGradient-15)"></path>
                <path d="M121.863081,5.97498664 C122.939161,5.59437143 123.302802,4.00976934 122.731366,2.97667092 C122.103784,1.95525807 121.02696,1.33331596 119.866766,1.32215992 C119.665298,1.35059744 119.461033,1.29784177 119.29533,1.17457443 C119.182342,1.06444093 119.087111,0.935910699 119.013322,0.793959222 C118.627418,0.149243667 117.781396,0.0171934929 117.046692,0.0171934929 C116.340431,-0.0490234394 115.629799,0.0767275702 114.983586,0.382273386 C114.517322,0.767212392 114.020805,1.11021032 113.499337,1.40760415 C112.911906,1.53968742 112.311388,1.59706529 111.710817,1.57849261 C110.917888,1.71078832 110.230626,2.22583721 109.855506,2.96890326 C109.762802,3.24720978 109.630175,3.50912992 109.46218,3.74566899 C109.308693,3.8823802 109.147618,4.00947368 108.979799,4.1262842 C108.349255,4.69048348 107.990425,5.518464 108.000194,6.38667247 C108.020026,7.24174769 108.157495,8.08936795 108.408363,8.90339344 C108.440939,9.06460679 108.512484,9.21437718 108.616158,9.33838224 C108.86848,9.55587665 109.729345,10.2161275 109.892612,9.9287242 C110.211726,9.33061459 110.048458,8.01788051 110.708949,7.68387124 C111.36944,7.34986198 111.295227,7.94797159 111.799872,8.28198085 C112.332883,8.61482845 112.978673,8.68582991 113.566128,8.47617229 C113.862978,8.35188977 114.144986,8.18876897 114.441835,8.06448645 C114.729503,7.92858085 115.055709,7.91192555 115.354649,8.01788051 C115.903821,8.28198085 115.978033,9.09758487 116.460414,9.47820008 C117.023811,9.8305119 117.752626,9.65182985 118.107931,9.0742819 C118.180322,9.37701857 118.341171,9.64856293 118.568048,9.85104763 C118.811098,10.066294 119.172339,10.045856 119.391806,9.80444168 C119.503125,9.65685619 119.53281,9.41605882 119.666392,9.27624099 C119.808752,9.15615711 119.988453,9.09530461 120.171037,9.10535253 C120.480373,9.18689784 120.804199,9.18689784 121.113535,9.10535253 C121.788902,8.93930877 122.343534,8.43715774 122.597784,7.76154781 C122.841398,7.05641477 122.519836,6.27447928 121.863081,5.97498664 L121.863081,5.97498664 Z" id="Path" fill="#606161"></path>
                <path d="M108.850444,9.04812898 C108.746598,9.01013907 108.629956,8.9941206 108.51401,9.00192631 C108.333023,9.02515674 108.1799,9.11174445 108.105483,9.23293964 C108.031068,9.35468326 107.995483,9.48691256 108.001349,9.61988697 C107.993795,9.81377229 108.017993,10.0076232 108.073442,10.1974203 C108.141781,10.5619858 108.488629,10.8678776 108.970599,10.988641 C109.417565,11.0498931 109.856555,10.8579965 109.987912,10.5439403 C110.081295,9.92269986 109.627121,9.32544422 108.850444,9.04812898 L108.850444,9.04812898 Z" id="Path" fill="#F4A982"></path>
                <path d="M109.72729,10.115219 C109.64126,9.93105442 109.72729,9.71619571 109.72729,9.51156836 C109.72729,9.30694102 109.495009,9.12277641 109.254125,9 C109.254125,9 109.202508,9 109.185302,9.0613882 C108.986193,9.46393529 108.945322,9.94999972 109.073463,10.3914659 C109.105376,10.5543049 109.17036,10.7053606 109.262728,10.8314147 C109.361824,10.9574012 109.506133,11.0184231 109.649863,10.9951166 C109.821202,10.9298155 109.951587,10.7631211 109.993982,10.5551678 C110.036997,10.2073013 109.839129,10.3300777 109.72729,10.115219 Z" id="Path" fill="url(#linearGradient-16)"></path>
                <rect id="Rectangle" fill="url(#linearGradient-17)" x="92" y="57" width="3" height="160"></rect>
                <polygon id="Path" fill="url(#linearGradient-18)" points="165 231.726888 169 233 169 119 165 119"></polygon>
                <polygon id="Path" fill="url(#linearGradient-19)" points="232 250.422845 235 252 235 18 232 18"></polygon>
                <polygon id="Path" fill="url(#linearGradient-20)" points="310 248 313 246.678272 313 84 310 84"></polygon>
                <path d="M318.589101,47.4523322 C316.816365,53.0848904 317.451144,56.7312706 317.156978,58.9069694 C316.785401,61.6133265 313.518612,65.3734192 314.060496,68.0570337 C314.602381,70.7406483 316.429305,69.6869126 318.411054,71.6048631 C318.560757,71.7723441 318.749213,71.9023106 318.960679,71.9839047 C319.439337,72.0527223 319.923327,71.8984737 320.268943,71.566959 C320.88265,71.1895661 321.390782,70.6685138 321.747513,70.0507926 C322.521634,68.4739795 322.297139,68.6407578 321.577207,67.0184597 C320.028966,63.667732 322.792576,60.8325008 323.899568,57.3301564 C324.395005,55.7306008 323.00933,44.7687176 320.803086,45.0037234 C320.021224,45.1098551 319.022609,46.0650399 318.589101,47.4523322 Z" id="Path" fill="#DDDDDD"></path>
                <path d="M319.093935,66.0639236 C318.98256,65.4540466 318.970128,64.8291224 319.057154,64.2149879 C319.138071,63.756574 319.292548,63.3210809 319.388176,62.8703073 C319.733911,61.3422613 319.461737,59.7378129 319.719198,58.1944864 C320.016322,56.5121162 320.92165,55.0114565 322.249678,54 C322.816094,56.0628622 323.375153,58.3014496 322.668973,60.3184704 C322.455647,60.9067682 322.146693,61.4568647 321.933368,62.029882 C321.566501,62.9159797 321.373921,63.8693217 321.366953,64.8338465 C321.366953,65.5061868 321.764179,66.5987397 321.52143,67.2328788 C320.807893,69.0436134 319.27048,67.2328788 319.093935,66.0639236 Z" id="Path" fill="url(#linearGradient-21)"></path>
                <path d="M319.996887,99.1727523 C320.175186,100.142866 320.001103,101.143917 319.505226,102 C317.939475,101.08245 317.462942,99.0832352 317.236021,97.2928936 C316.842292,93.7503355 316.941543,90.1713196 317.531018,86.6552807 C317.596518,86.0879281 317.765655,85.5369628 318.030243,85.0290538 C318.533961,84.3028684 319.248491,83.7438042 320.080092,83.4252061 C320.575796,83.1538677 321.131907,83.0077863 321.698791,83 C322.280996,83.0088762 322.793812,83.3799567 322.97711,83.9250098 C323.029992,84.26715 322.990868,84.6169867 322.86365,84.9395367 C322.605873,86.1303956 322.194046,87.2836633 321.638279,88.3710247 C321.078581,89.2424585 320.664828,90.1970949 320.412908,91.1982725 C319.848164,93.8180952 319.707751,96.509603 319.996887,99.1727523 L319.996887,99.1727523 Z" id="Path" fill="url(#linearGradient-22)"></path>
                <path d="M342.114787,86.3252962 C340.924783,87.1585656 339.523399,87.6075594 338.087533,87.6156007 C337.5648,87.6156007 337.034705,87.6690452 336.511971,87.69195 C334.989906,87.7571803 333.767026,89.0153876 333.692157,90.5932263 C333.692157,91.7231971 333.633258,92.8837076 333.633258,93.9831386 C333.633258,96.6859066 333.721607,99.5108335 332.573067,101.938744 C332.337469,102.450284 331.947259,102.992365 331.402439,103 C331.111477,102.98041 330.83474,102.8624 330.614658,102.664063 C329.916213,102.057692 329.431906,101.227801 329.237882,100.304867 C329.047874,99.3897883 328.971177,98.4533167 329.009646,97.5181148 C329.009646,93.937329 329.311506,90.2801939 330.65147,86.9819008 C330.801451,86.6046675 330.978652,86.2397005 331.181566,85.8901047 C332.063207,84.5680174 333.398398,83.6449445 334.914322,83.3094958 C336.413488,82.9936624 337.950598,82.9189838 339.471672,83.0880826 C340.207916,83.1338923 340.944159,83.1949718 341.680403,83.2331464 C342.0927,83.2331464 343.609362,83.0193682 343.889135,83.2331464 C344.47813,83.7294174 342.549171,85.9740891 342.114787,86.3252962 Z" id="Path" fill="url(#linearGradient-23)"></path>
                <path d="M310.004562,85.1210965 C309.835495,88.637719 314.41567,106.145367 315.383962,106.801904 C316.213926,107.360338 317.689419,106.613244 318.565492,106.100089 C318.734559,105.986893 318.849832,105.88879 318.97279,105.820872 C319.633687,105.330356 318.565492,91.8826711 318.565492,91.8826711 C318.565492,91.8826711 318.235043,87.3095526 321.485738,84.6532197 C325.120675,81.6950309 329.270497,78.963234 328.986157,76.8653348 C328.963143,76.5517379 328.830058,76.2556919 328.609599,76.0276844 C326.780604,73.8845068 316.382993,75.5145292 314.200494,77.0992732 L314.077536,77.1671908 C314.072816,77.1819278 314.072816,77.1977322 314.077536,77.2124692 C314.004153,77.3032095 313.924558,77.388934 313.839306,77.4690468 C313.677924,77.680346 313.416638,77.982202 313.132299,78.3368828 C312.356266,79.3759455 311.66504,80.4735883 311.065072,81.6195669 C310.48568,82.7089638 310.125605,83.8978362 310.004562,85.1210965 Z" id="Path" fill="#606161"></path>
                <path d="M312,81.9406675 C312,82.8380717 318.767979,81.3473424 319.597603,82.8380717 C320.427226,84.328801 318.586045,83.7280593 317.931079,87.0284302 C317.276113,90.328801 317.931079,103.960445 318.658818,105.406675 C318.771261,105.637824 318.932858,105.840516 319.131849,106 C319.291952,105.888752 319.401113,105.792336 319.517551,105.725587 C320.143408,105.243511 319.131849,92.0271941 319.131849,92.0271941 C319.131849,92.0271941 318.818921,87.5327565 321.89726,84.9221261 C321.89726,84.9221261 321.424229,81.9555006 323.563784,80.249691 C325.253212,79.0432948 327.078267,78.0473346 329,77.2830655 C326.427037,76.4500025 323.745442,76.0174431 321.045805,76 C318.954042,76.0856172 316.899217,76.5896171 314.998288,77.4833127 L314.881849,77.5500618 C314.87738,77.5645453 314.87738,77.5800777 314.881849,77.5945612 C314.812357,77.6837403 314.736983,77.7679898 314.65625,77.8467244 C314.503425,78.0543881 314.255993,78.3510507 313.986729,78.6996292 C313.120719,79.8343634 312,81.3918418 312,81.9406675 Z" id="Path" fill="url(#linearGradient-24)"></path>
                <path d="M324.258853,105.441296 C324.638664,106.506358 325.267097,107.470854 326.094602,108.258739 C326.964671,109.045069 328.243353,109.223998 329.305209,108.708007 C330.437905,108.022683 330.023885,106.423594 329.937956,105.159552 C329.677712,99.9898199 329.800414,94.8085216 330.305106,89.6560023 C330.351976,89.1153579 331.867445,87.798013 332.226783,87.4629658 L332.226783,87.4629658 C332.814504,87.0367723 333.475982,86.7169526 334.179707,86.5187418 C335.554566,86.0694739 337.265327,85.7572707 338.546445,84.8891938 C339.006871,84.6149824 339.407629,84.2553751 339.726011,83.8307491 C341.999215,80.784865 342.85069,74.639794 340.960259,71.6929012 C340.45135,70.7874875 339.527155,70.1755622 338.47614,70.0481238 C335.195228,69.6521589 329.281774,71.7462041 327.906915,74.6169499 C327.596961,75.5770832 327.185962,76.5033916 326.680479,77.3810896 C325.594653,78.8659581 323.446437,79.3076113 322.384046,80.8153239 C321.901443,81.6048833 321.605244,82.4892824 321.516948,83.4043253 C320.296787,90.8553525 321.246791,98.4906322 324.258853,105.441296 L324.258853,105.441296 Z" id="Path" fill="#606161"></path>
                <path d="M331.157308,86.6376537 C330.968679,87.075836 330.987833,87.5780788 331.209264,88 C331.387399,87.9016083 331.550689,87.7880795 331.736246,87.6896878 L331.736246,87.6896878 C332.330028,87.3642384 332.9535,87.038789 333.56955,86.7360454 C334.437957,86.3349101 335.35832,85.9791864 336.27126,85.6310312 C336.753709,85.4720908 337.236157,85.3055818 337.718605,85.1163671 C338.156078,84.8438165 338.536859,84.4863873 338.83937,84.064333 C340.999254,81.0368969 341.808283,74.9290445 340.012091,72 C338.247842,72.2485453 336.544083,72.8285154 334.987205,73.7105014 C334.051998,74.179754 333.109368,74.6187323 332.218694,75.1561022 C331.617489,75.5118259 330.407657,76.0264901 331.342865,76.6698202 C332.62692,77.5856197 335.054006,75.9735099 336.070859,77.4266793 C336.249198,77.7640241 336.343505,78.1408905 336.345483,78.5241249 C336.390017,79.0917692 336.43455,79.6745506 336.479084,80.2573321 C336.539039,80.7632568 336.508865,81.276065 336.390017,81.7710501 C336.103066,82.3980705 335.640862,82.9246796 335.061428,83.2847682 C333.997839,83.9492192 332.971928,84.6744375 331.988603,85.4569536 C331.634282,85.7875451 331.351199,86.1896117 331.157308,86.6376537 L331.157308,86.6376537 Z" id="Path" fill="url(#linearGradient-25)"></path>
                <path d="M329.031869,114.128061 C328.657321,114.513682 328.233539,114.844131 327.772386,115.110157 L325.80672,116.379328 C325.078696,116.832603 324.168665,117.285878 323.498882,116.772166 C322.8291,116.258454 322.952864,115.359459 323.185832,114.619109 C323.542626,113.529256 324.164527,112.553446 324.991333,111.78614 C325.162584,111.644645 325.30595,111.470227 325.413587,111.272428 C325.492829,111.061009 325.525176,110.833789 325.50823,110.607625 L325.50823,108.515005 C325.50823,106.384612 328.325685,106.769896 329.213875,108.023957 C330.269511,109.59531 330.313192,112.722909 329.031869,114.128061 Z" id="Path" fill="#606161"></path>
                <path d="M319.527007,112.007301 C319.075532,112.850657 318.41471,113.500141 317.639011,113.862906 C316.898348,114.292449 316.126381,114.638455 315.332958,114.896511 C315.004369,115.06543 314.627663,115.02576 314.328275,114.790709 C314.202334,114.62227 314.120256,114.412813 314.092275,114.188451 C313.819401,112.733781 314.160182,111.210362 315.002559,110.119142 C315.380798,109.728331 315.720207,109.285889 316.013986,108.800686 C316.275991,107.993111 316.393195,107.127674 316.357871,106.261437 C316.49947,104.365139 318.994322,104.861595 319.601178,106.082387 C320.208034,107.30318 320.073177,110.810924 319.527007,112.007301 Z" id="Path" fill="#606161"></path>
                <path d="M340.990733,69.686846 C341.042982,70.3872903 340.873358,71.0864296 340.505572,71.6865368 C340.130988,72.1143468 339.660635,72.4491626 339.132193,72.6641634 C336.572036,73.9454467 333.95963,75.2341364 331.138232,75.7673872 C328.316835,76.3006381 325.16702,75.9673563 322.927815,74.2416972 C322.097492,73.6612475 321.466945,72.8416753 321.121524,71.8939121 C320.755787,70.7311289 321.0021,69.4868769 321.069276,68.2722499 C321.22602,65.2579012 324.801283,63.8284926 321.890317,60.6141748 C319.852641,58.3922961 320.397514,53.3412253 321.726109,50.6305333 C322.785999,48.4901235 318.538974,46.5793079 320.546795,45.2683995 C323.368192,43.4390527 326.682215,42.542895 331.309905,43.2316774 C333.101268,43.4908965 339.206833,45.9868069 339.87113,47.6754347 C340.535428,49.3640625 338.602248,51.0526902 338.826168,52.8598182 C339.512858,58.3552648 340.990733,64.1173368 340.990733,69.686846 Z" id="Path" fill="#DDDDDD"></path>
                <path d="M337.290255,60.5820559 C337.290255,59.7044429 336.543885,59.0423839 335.976644,58.3957217 C334.933761,57.1528137 334.398686,55.5412705 334.483905,53.8998794 C334.543614,52.9683778 335.133246,51.8290205 336.013963,52.0214795 C336.224449,52.0794772 336.422115,52.1788038 336.596131,52.3140172 C338.609296,53.7469703 340.074354,55.8598163 340.738482,58.2879446 C341.009515,59.1444953 341.07105,60.0568713 340.917611,60.9438789 C340.592151,62.1247092 339.931977,63.1782733 339.021832,63.9693344 C337.315101,65.6316371 335.277442,66.8900447 333.050875,67.6568488 C332.461243,67.8570062 330.655029,68.4805734 331.058068,67.2950259 C331.289443,66.6406653 337.312646,61.4365739 337.290255,60.5820559 Z" id="Path" fill="url(#linearGradient-26)"></path>
                <path d="M337.401444,70.8394742 C337.349385,70.7404704 337.269848,70.6577754 337.17193,70.6008473 C337.031176,70.5445107 336.87607,70.5318865 336.72771,70.5646917 C335.853178,70.6371468 334.973936,70.6371468 334.099405,70.5646917 C333.821204,70.5629612 333.548232,70.4907023 333.307211,70.3549892 C333.046243,70.2125347 332.932559,69.9041065 333.040679,69.6318772 C333.151734,69.3787881 333.477496,69.2920146 333.781047,69.2341657 C334.747404,69.0144296 335.682371,68.6792747 336.564829,68.2362712 C337.326568,67.7792424 338.132518,67.3965584 338.971023,67.0937543 C339.644758,66.8985141 340.55541,66.9780564 340.792328,67.621626 C340.836724,67.7695873 340.859163,67.9230026 340.858961,68.0771865 L340.962612,70.0295888 C341.060239,70.7518269 340.965901,71.4864504 340.688676,72.1627691 C340.229648,73.0377345 339.207941,73.4716017 338.282482,73.8476199 C338.006724,73.9862788 337.691778,74.0320384 337.386637,73.9777801 C337.808646,72.9798856 338.089986,71.8879865 337.401444,70.8394742 Z" id="Path" fill="url(#linearGradient-27)"></path>
                <path d="M336,70 L323.607772,70.5949624 L323,70.8044562 C323,70.8044562 324.199757,75.1786868 326.386157,74.9943322 C328.572556,74.8099777 336,70 336,70 Z" id="Path" fill="url(#linearGradient-28)"></path>
                <path d="M330,72 L324,72 C324,72 325.266055,73.9003559 326.31979,74 L330,72 Z" id="Path" fill="#DDDDDD"></path>
                <path d="M330,72 L324,72 C324,72 325.266055,73.9003559 326.31979,74 L330,72 Z" id="Path" fill="url(#linearGradient-29)"></path>
                <path d="M339.496637,47.0936729 C341.48997,49.2211722 342.813667,52.5139098 344.285307,55.0097747 C345.328692,56.7764262 346.25528,58.7686076 345.936036,60.7833419 C345.655723,62.534958 336.452133,69.0527741 334.739113,69.7143287 C334.359199,69.8900709 333.945492,69.9873669 333.524426,70 C332.216302,69.932341 331.663463,68.1882426 332.208515,67.0305221 C332.753567,65.8728016 333.898176,65.121035 334.816978,64.2113975 C335.73578,63.3017599 338.383174,61.8658858 338.780283,60.512706 C338.874443,60.2727054 338.893398,60.0112647 338.834789,59.7609394 C338.72131,59.5057387 338.541637,59.2830741 338.313096,59.1144202 C335.447681,56.5734492 331.476589,52.0854028 332.28638,48.2513934 C333.27526,43.537817 337.246352,44.6805022 339.496637,47.0936729 Z" id="Path" fill="#DDDDDD"></path>
                <path d="M322.105184,46.9131294 C321.176277,46.5836566 320.484293,45.816441 320.269665,44.8780555 C320.145611,44.0204995 320.11159,43.152901 320.168125,42.2886518 C320.090018,40.3295135 319.13711,38.5754014 318.301363,36.8440699 C317.465616,35.1127384 316.739219,33.1763807 317.090701,31.2628038 C317.425783,29.7503129 318.33144,28.4146982 319.629185,27.5191791 C320.855252,26.717515 322.201637,26.1053048 323.620464,25.7043185 C324.967274,25.145877 326.433487,24.9139485 327.892928,25.0284917 C330.353305,25.4157632 332.329417,27.7697666 332.954275,30.4351059 C333.461971,32.5992702 333.212028,34.9912414 334.055586,37.0111282 C334.711675,38.3118984 335.527319,39.5306709 336.48472,40.6408495 C337.454964,41.7943878 337.989711,43.2361153 338,44.7261843 C337.987157,45.3328877 337.761143,45.9170489 337.359521,46.3815802 C336.578449,47.1409362 335.391219,47.0346263 334.446122,46.5714192 C333.559853,46.0022374 332.633271,45.4947329 331.673316,45.0527074 C329.884661,44.490784 328.103817,45.3792304 326.424512,45.971528 C325.245093,46.4043609 323.323656,47.2776202 322.105184,46.9131294 Z" id="Path" fill="#FFC709"></path>
                <path d="M333.441484,42.6650828 C332.885606,41.9142201 332.404683,41.1138688 332.005204,40.2748306 C331.600295,39.1130052 331.882967,37.8031766 331.516258,36.6265509 C331.014307,35.3715854 330.077005,34.3250112 328.865252,33.6664862 C328.305271,33.223954 327.601496,32.9879805 326.878908,33.0004716 C326.465153,33.0800787 326.069344,33.2304296 325.71002,33.4444813 L320.507326,36.2121418 C320.371484,36.2787791 320.247651,36.3662417 320.140616,36.4711475 C319.804466,36.8781564 320.140616,37.4627691 320.423288,37.9511798 C321.187267,39.2536083 321.187267,40.8150424 321.362982,42.2950747 C321.538697,43.775107 321.951246,45.3809421 323.196531,46.246761 C324.133024,46.944043 325.45157,46.8878342 326.321203,46.1135581 C326.502126,45.8744302 326.695936,45.6447064 326.901827,45.4253431 C327.55868,45.0144151 328.36865,44.9034939 329.117365,45.1219365 C329.815828,45.2069098 330.505786,45.3479991 331.180107,45.5437457 C332.226758,45.8693528 333.92279,47.1791814 335,46.979377 C334.679149,45.4810078 334.155099,44.0303291 333.441484,42.6650828 Z" id="Path" fill="#EEB41E"></path>
                <path d="M328.89748,48.6343733 C327.896716,49.21585 326.680889,49.0963435 325.788567,48.3287912 C325.384044,47.9311433 325.115683,47.3915964 325.028611,46.8008804 C324.793715,45.1048995 326.085641,43.5311514 325.975102,41.8275309 C325.919832,40.9795404 325.519128,40.1086313 325.788567,39.3141177 C326.058006,38.5196041 329.450175,37.5341017 329.574532,38.2445802 C330.43121,43.2714066 332.628175,46.5640542 328.89748,48.6343733 Z" id="Path" fill="#F6CCBB"></path>
                <path d="M328.989755,39 C328.989755,39 329.371944,46.4934062 325.467621,45.9742147 C325.467621,45.9742147 324.853121,45.8889743 325.032975,44.9668281 C325.212828,44.044682 325.969712,43.0915393 325.932243,42.2701318 C325.894773,41.4487243 328.989755,39 328.989755,39 Z" id="Path" fill="url(#linearGradient-30)"></path>
                <path d="M320,34.8966292 C320.221478,36.9831873 321.500336,39.3474527 322.29337,40.8110456 C322.779518,41.7823858 323.447855,42.640251 324.258095,43.3329287 C325.103497,44.008993 326.219065,44.1845039 327.215899,43.7982762 C328.073961,43.3084752 328.733916,42.5084963 329.073458,41.5465948 C329.727931,40.0996189 330.043911,38.5093316 329.995092,36.9081312 C329.909359,35.2343814 329.159191,32.0595107 326.908688,33.2679131 C326.444298,33.5231036 326.137087,34.0184735 325.69413,34.2886753 C325.066499,34.7276904 324.260564,34.770888 323.593661,34.4012593 C323.350749,34.2661585 323.086404,34.0560015 322.82206,34.1460688 C322.700085,34.202235 322.588754,34.2810548 322.493415,34.3787425 C321.930062,34.821575 321.156342,34.821575 320.59299,34.3787425 C320.482719,34.6388363 320.263556,34.8302424 320,34.8966292 L320,34.8966292 Z" id="Path" fill="#F6CCBB"></path>
                <path d="M325.491628,69.476456 C325.05952,70.2556709 324.905861,71.1594341 325.05609,72.0381212 C325.060015,72.2073677 325.102159,72.3735216 325.179356,72.5240962 C325.302217,72.6986737 325.482671,72.82412 325.688852,72.8782814 C327.217343,73.4054408 328.762268,72.0545949 330.372935,71.9722262 C330.775602,71.9722262 331.194704,71.9722262 331.580936,71.9722262 C332.094321,71.8652967 332.580747,71.6551414 333.010814,71.3544613 C333.471004,71.0579342 333.931195,70.7531701 334.37495,70.4319324 C335.451467,69.6494302 334.991277,68.2573999 334.095549,67.5078452 C333.443802,66.9324122 332.49901,66.836388 331.745289,67.2689761 C329.855221,67.9279253 326.716064,67.6066876 325.491628,69.476456 Z" id="Path" fill="#F6CCBB"></path>
                <path d="M317.395464,69.2658388 C317.250604,69.3685946 317.1321,69.5104039 317.051243,69.6777551 C317.000107,69.8541705 316.987013,70.0412398 317.012996,70.2241746 C317.124674,71.2944156 317.482713,72.3157182 318.053308,73.1916532 C318.270865,73.5895543 318.622869,73.8766649 319.032426,73.9902664 C319.797362,74.0995503 320.30222,73.2589048 320.983013,72.9562724 C321.663806,72.6536401 322.589378,72.9058337 323.231924,72.4350722 C323.724393,71.9887113 324.005787,71.3207416 323.99686,70.619278 C324.088652,69.2658388 322.145715,68.3495352 321.097753,68.0973416 C319.843258,67.7274576 318.38988,68.475632 317.395464,69.2658388 Z" id="Path" fill="#F6CCBB"></path>
                <path d="M320.64313,65.9563324 C320.420313,65.2984088 319.974381,64.7434363 319.385817,64.3915769 C319.120564,64.3029992 318.844416,64.2529579 318.565496,64.2429251 C312.377004,63.7742853 306.157111,63.9841186 300.012458,64.8688273 C299.955654,65.28156 300.095208,65.6971847 300.388119,65.9876275 C303.2438,69.9564559 306.344834,73.7352006 309.672304,77.3008102 C309.873988,77.5338169 310.1156,77.7273582 310.385293,77.871946 C310.757566,78.0007736 311.155402,78.0330382 311.542941,77.9658313 C312.539592,77.8641222 313.528576,77.6919991 314.517561,77.5433473 C318.415473,76.9425561 322.351277,76.633995 326.293373,76.6201415 C327.210839,76.6617285 328.129497,76.5721921 329.022663,76.3541331 C329.664019,76.1272579 330.278585,75.8281059 330.854968,75.4622224 C332.950869,74.3401036 334.924499,72.9947432 336.742874,71.4486244 C336.880872,71.3156202 337.026536,71.1513208 336.99587,70.9635502 C336.965204,70.7757795 336.781207,70.6740704 336.612543,70.6036564 C334.680573,69.8212786 333.745255,71.3860342 331.95895,72.4970106 C330.862634,73.154208 329.022663,74.5546642 327.803683,74.9223817 C326.707367,75.2509804 325.350388,73.2089744 324.737065,72.4031253 C323.095242,70.451319 321.718242,68.2829324 320.64313,65.9563324 L320.64313,65.9563324 Z" id="Path" fill="#DDDDDD"></path>
                <path d="M300.369273,65.9632513 C300.699072,66.4012123 301.028871,66.8626355 301.36634,67.2927758 C303.911178,70.8093828 306.680865,74.1508843 309.65734,77.2954928 C309.860047,77.529492 310.101475,77.7253779 310.370627,77.8742271 C310.744707,77.9942125 311.140072,78.0289207 311.52876,77.9758966 C312.525827,77.8742271 313.515225,77.6865295 314.512292,77.5379356 C318.205686,76.962452 321.935556,76.6644619 325.671779,76.646372 C325.878703,76.634664 326.086105,76.634664 326.293029,76.646372 C326.668846,76.646372 327.060004,76.646372 327.405142,76.646372 C327.95001,76.6364454 328.49135,76.5549601 329.01579,76.4039293 C329.662629,76.1747091 330.282552,75.8730719 330.8642,75.5045451 C332.218416,74.7564621 333.53187,73.9340788 334.798782,73.0410143 C335.482683,72.5693394 336.131283,72.046519 336.739228,71.4768678 C336.896198,71.3661426 336.992826,71.1864705 337,70.9919823 C337,70.796464 336.785247,70.7026152 336.616512,70.6244079 C334.676066,69.8423346 334.108504,71.1405763 332.329122,72.2276581 C331.240018,72.8767789 329.00812,74.5738779 327.7963,74.9492731 C326.584479,75.3246682 325.34198,73.2365326 324.7284,72.4388179 C323.091574,70.4751997 321.719335,68.2974166 320.648093,65.9632513 C320.43266,65.3013519 319.984599,64.7441795 319.390253,64.3991047 C319.132486,64.29961 318.860397,64.244121 318.58493,64.2348694 C312.388509,63.7781812 306.162155,63.9878896 300.008795,64.860528 C299.963388,65.2643447 300.095335,65.6679785 300.369273,65.9632513 L300.369273,65.9632513 Z" id="Path" fill="url(#linearGradient-31)"></path>
                <path d="M300,65.6303247 C302.844347,69.3681143 305.908484,72.9423114 309.177023,76.3349685 C309.377306,76.555856 309.615848,76.7407658 309.881782,76.8812745 C310.25139,76.9945368 310.642028,77.0273001 311.026069,76.9772472 C312.011216,76.8812745 312.988784,76.7040942 313.973931,76.5638264 C317.623169,76.020589 321.308446,75.7392962 325,75.72222 C324.489287,75.2842501 324.033924,74.7885932 323.643528,74.2457174 C322.043458,72.3857123 320.698445,70.3309124 319.642316,68.1329966 C319.361928,67.5423956 318.050925,65.6155597 317.421946,65.3645542 C317.162832,65.2893714 316.895978,65.2423297 316.62625,65.2242865 C311.084016,64.8238492 305.514678,64.9598609 300,65.6303247 L300,65.6303247 Z" id="Path" fill="url(#linearGradient-32)"></path>
                <path d="M330.1505,35.0462512 C330.254224,35.0143815 330.36612,34.9986515 330.478865,35.0000905 C330.661657,35.0234348 330.817123,35.1095941 330.895328,35.2308937 C330.96595,35.3533632 331.001369,35.4848782 330.999444,35.6174891 C331.004292,35.8114236 330.977411,36.0050944 330.919355,36.1944971 C330.848609,36.5592762 330.50328,36.8658271 330.022358,36.9907681 C329.576614,37.045427 329.144087,36.8525206 329.013236,36.5407018 C328.914994,35.9193312 329.370527,35.3207264 330.1505,35.0462512 Z" id="Path" fill="#F6CCBB"></path>
                <path d="M329.2795,37.1139535 C329.36504,36.9402176 329.2795,36.715383 329.2795,36.5109878 C329.2795,36.3065927 329.501904,36.1328568 329.741415,36 C329.741415,36 329.801293,36 329.818401,36.0715383 C330.012707,36.471327 330.053236,36.9518186 329.929603,37.3898869 C329.897521,37.5544968 329.829657,37.7060809 329.732861,37.8293365 C329.64067,37.9599317 329.497356,38.0221942 329.356486,37.9928526 C329.181873,37.9325139 329.047908,37.764654 329.005772,37.553403 C328.963002,37.2263708 329.168298,37.3592276 329.2795,37.1139535 Z" id="Path" fill="url(#linearGradient-33)"></path>
                <path d="M326.228815,33.4333302 C326.277272,33.692223 326.310268,33.9539394 326.327616,34.2170022 C326.25392,34.797176 325.872945,35.2867112 325.339605,35.486551 C324.809435,35.6631713 324.255115,35.7504957 323.697986,35.7451628 C323.137957,35.7413216 322.586161,35.8842399 322.094368,36.1605089 C321.889165,36.2937332 321.714363,36.4583043 321.524361,36.607202 C320.505153,37.3052186 319.133328,37.0492877 318.415925,36.0272847 C318.221637,35.6810171 318.099949,35.2965772 318.058721,34.8987969 C317.836335,33.7481757 318.255698,32.565824 319.145533,31.8346392 C319.989143,31.2390484 321.098756,31.3017422 322.124768,31.3095789 C323.034809,31.319837 323.944312,31.2595859 324.845599,31.1293343 C325.316805,31.0666405 326.905223,30.7296615 326.996424,31.4819867 C327.042025,31.8189657 326.63922,32.1010877 326.487218,32.3518627 C326.289516,32.6738704 326.198814,33.0534751 326.228815,33.4333302 Z" id="Path" fill="#FFC709"></path>
            </g>
        </g>
    </g>
</svg>