<?xml version="1.0" encoding="UTF-8"?>
<svg width="300px" height="238px" viewBox="0 0 300 238" version="1.1" xmlns="http://www.w3.org/2000/svg" xmlns:xlink="http://www.w3.org/1999/xlink">
    <title>Illustration 11</title>
    <defs>
        <linearGradient x1="39.8433561%" y1="142.793281%" x2="51.8678448%" y2="-13.4578735%" id="linearGradient-1">
            <stop stop-color="#000000" offset="1%"></stop>
            <stop stop-color="#000000" stop-opacity="0.69" offset="8%"></stop>
            <stop stop-color="#000000" stop-opacity="0.32" offset="21%"></stop>
            <stop stop-color="#000000" stop-opacity="0" offset="100%"></stop>
        </linearGradient>
        <linearGradient x1="31.7153857%" y1="181.360947%" x2="77.8677306%" y2="-148.915187%" id="linearGradient-2">
            <stop stop-color="#000000" offset="1%"></stop>
            <stop stop-color="#000000" stop-opacity="0.69" offset="8%"></stop>
            <stop stop-color="#000000" stop-opacity="0.32" offset="21%"></stop>
            <stop stop-color="#000000" stop-opacity="0" offset="100%"></stop>
        </linearGradient>
        <linearGradient x1="89.0531513%" y1="93.9266186%" x2="-7.29435048%" y2="-31.1545983%" id="linearGradient-3">
            <stop stop-color="#000000" offset="1%"></stop>
            <stop stop-color="#000000" stop-opacity="0.69" offset="8%"></stop>
            <stop stop-color="#000000" stop-opacity="0.32" offset="21%"></stop>
            <stop stop-color="#000000" stop-opacity="0" offset="100%"></stop>
        </linearGradient>
        <linearGradient x1="-30.3137501%" y1="31.2641316%" x2="142.750501%" y2="69.6402878%" id="linearGradient-4">
            <stop stop-color="#000000" offset="1%"></stop>
            <stop stop-color="#000000" stop-opacity="0.69" offset="13%"></stop>
            <stop stop-color="#000000" stop-opacity="0.32" offset="25%"></stop>
            <stop stop-color="#000000" stop-opacity="0" offset="100%"></stop>
        </linearGradient>
        <linearGradient x1="63.448658%" y1="-12.6907856%" x2="32.5905223%" y2="155.514491%" id="linearGradient-5">
            <stop stop-color="#000000" offset="1%"></stop>
            <stop stop-color="#000000" stop-opacity="0.69" offset="13%"></stop>
            <stop stop-color="#000000" stop-opacity="0.32" offset="25%"></stop>
            <stop stop-color="#000000" stop-opacity="0" offset="100%"></stop>
        </linearGradient>
        <linearGradient x1="-1.47650094%" y1="-35.2909153%" x2="131.546507%" y2="265.545251%" id="linearGradient-6">
            <stop stop-color="#000000" offset="1%"></stop>
            <stop stop-color="#000000" stop-opacity="0.69" offset="8%"></stop>
            <stop stop-color="#000000" stop-opacity="0.32" offset="21%"></stop>
            <stop stop-color="#000000" stop-opacity="0" offset="100%"></stop>
        </linearGradient>
        <linearGradient x1="6.6975157%" y1="69.7964544%" x2="91.7064289%" y2="30.9258043%" id="linearGradient-7">
            <stop stop-color="#000000" offset="1%"></stop>
            <stop stop-color="#000000" stop-opacity="0.69" offset="13%"></stop>
            <stop stop-color="#000000" stop-opacity="0.32" offset="25%"></stop>
            <stop stop-color="#000000" stop-opacity="0" offset="100%"></stop>
        </linearGradient>
        <linearGradient x1="90.5653267%" y1="64.7446458%" x2="-13.1472383%" y2="28.369028%" id="linearGradient-8">
            <stop stop-color="#000000" offset="1%"></stop>
            <stop stop-color="#000000" stop-opacity="0.69" offset="13%"></stop>
            <stop stop-color="#000000" stop-opacity="0.32" offset="25%"></stop>
            <stop stop-color="#000000" stop-opacity="0" offset="100%"></stop>
        </linearGradient>
        <linearGradient x1="32.8639977%" y1="77.9751569%" x2="78.3356659%" y2="22.2038968%" id="linearGradient-9">
            <stop stop-color="#000000" offset="1%"></stop>
            <stop stop-color="#000000" stop-opacity="0.69" offset="13%"></stop>
            <stop stop-color="#000000" stop-opacity="0.32" offset="25%"></stop>
            <stop stop-color="#000000" stop-opacity="0" offset="100%"></stop>
        </linearGradient>
        <linearGradient x1="-49.2477802%" y1="81.5611163%" x2="254.194133%" y2="-16.8644513%" id="linearGradient-10">
            <stop stop-color="#000000" offset="1%"></stop>
            <stop stop-color="#000000" stop-opacity="0.69" offset="13%"></stop>
            <stop stop-color="#000000" stop-opacity="0.32" offset="25%"></stop>
            <stop stop-color="#000000" stop-opacity="0" offset="100%"></stop>
        </linearGradient>
        <linearGradient x1="10.2709555%" y1="45.5433979%" x2="106.475871%" y2="57.2536018%" id="linearGradient-11">
            <stop stop-color="#000000" offset="1%"></stop>
            <stop stop-color="#000000" stop-opacity="0.69" offset="13%"></stop>
            <stop stop-color="#000000" stop-opacity="0.32" offset="25%"></stop>
            <stop stop-color="#000000" stop-opacity="0" offset="100%"></stop>
        </linearGradient>
        <linearGradient x1="34.4673892%" y1="41.0985874%" x2="74.8704901%" y2="64.1592053%" id="linearGradient-12">
            <stop stop-color="#000000" offset="1%"></stop>
            <stop stop-color="#000000" stop-opacity="0.69" offset="13%"></stop>
            <stop stop-color="#000000" stop-opacity="0.32" offset="25%"></stop>
            <stop stop-color="#000000" stop-opacity="0" offset="100%"></stop>
        </linearGradient>
    </defs>
    <g id="DESIGN-SYSTEM" stroke="none" stroke-width="1" fill="none" fill-rule="evenodd">
        <g id="Illustrations" transform="translate(-630.000000, -1638.000000)" fill-rule="nonzero">
            <g id="Illustration-11" transform="translate(630.000000, 1638.000000)">
                <path d="M43.7359261,16.4675733 C29.4529075,24.5808737 16.7991306,36.241469 9.57615925,51.0309605 C2.35318788,65.8204519 1.12220529,82.2653477 0.361892512,98.4919483 C-0.398420264,116.683205 -0.307906838,134.874461 4.12725102,152.51998 C8.23656055,168.764772 15.9664071,183.863515 24.6375933,198.180033 C31.0097385,208.694579 38.1965045,219.172743 48.4788296,225.885317 C56.0201069,230.453285 64.3563638,233.53989 73.0441734,234.980945 C102.387054,240.688073 132.784006,236.506186 159.5207,223.083863 C179.433654,213.04229 196.739821,198.070886 217.757038,190.958105 C236.203675,184.718504 256.913146,184.700312 273.531411,174.585974 C294.240883,161.852094 303.72669,134.674357 298.657938,110.82562 C293.589186,86.9768831 275.758042,67.1666049 254.143436,56.033556 C241.887918,49.7393812 228.636752,46.10113 216.290721,40.2253542 C203.94469,34.3495784 192.666717,26.309043 180.628431,19.778382 C137.616451,-3.59738245 87.0737543,-8.16338781 43.7359261,16.4675733 Z" id="Path" fill="#DDDDDD" opacity="0.18"></path>
                <path d="M191.577233,82.0798927 L194.006738,83.1185077 C194.893741,83.3641559 195.65691,83.9403315 196.14397,84.7320702 C196.397709,85.5678559 196.352421,86.4677923 196.016102,87.2729674 C195.687297,88.3672224 195.303691,89.4614775 194.883551,90.5371858 C194.335543,91.9652813 193.696199,93.3748302 193.27606,94.8400191 C192.453298,98.5464245 192.304721,102.374307 192.837653,106.134957 C192.837653,107.359038 191.303229,107.989626 190.115878,108.156546 C187.876972,108.634675 185.554072,108.513236 183.375374,107.804159 C183.173656,107.7468 182.986657,107.645539 182.827365,107.507412 C182.629317,107.249593 182.537625,106.923758 182.571628,106.598624 C182.443759,104.577034 182.443759,102.481258 182.169755,100.626588 C182.060475,99.6144194 181.858669,98.6147708 181.566946,97.6405701 C181.359867,96.6850499 181.201344,95.7193454 181.092005,94.7472856 C180.927603,93.9683244 180.690132,93.2079099 180.562264,92.4289487 C180.404439,91.6432772 180.461291,90.8287401 180.726666,90.0735184 C181.055471,89.2574638 181.512145,88.4970493 181.914018,87.7180881 C182.343831,86.8707192 182.722058,85.9973854 183.046569,85.1030041 C183.221486,84.4504584 183.485901,83.8261241 183.832047,83.2483345 C184.716347,82.1824737 186.021526,81.570858 187.394102,81.5791319 C188.807743,81.4365417 190.23502,81.6074004 191.577233,82.0798927 Z" id="Path" fill="#FFBBAB"></path>
                <path d="M176.786545,72.7183429 C176.0976,71.8483135 175.540097,70.8807474 175.132062,69.8469296 C174.674696,68.5244666 174.393473,67.1468895 174.29573,65.7501362 C174.221648,65.2482564 174.258901,64.7361038 174.404817,64.2504171 C174.641171,63.5920039 175.222968,63.098194 175.404779,62.4214915 C175.4313,62.3507667 175.4313,62.2727452 175.404779,62.2020204 C175.404779,62.2020204 175.313873,62.0557063 175.168424,62.0557063 L174.404817,61.8545245 C174.532878,61.2295976 174.429419,60.5791337 174.113918,60.0255989 C173.924981,59.6137027 173.510192,59.3547166 173.059413,59.3671856 C172.586703,59.3671856 172.350348,59.9707311 171.950363,60.2450699 C171.550379,60.5194088 171.114031,60.5559873 170.76859,60.8303262 C170.401284,61.2287691 170.193977,61.750118 170.186794,62.2934667 C170.161911,63.6096682 170.35862,64.9206158 170.76859,66.1707891 C171.029794,67.6303591 171.381991,69.0719593 171.823096,70.4870536 C173.221539,74.850724 175.457645,78.8959238 178.404666,82.3933596 C179.531896,83.7284753 183.859006,88.9957812 185.568033,87.6423762 C187.986123,85.8134506 186.404365,82.7957233 184.7317,81.350872 C181.74318,78.8101557 179.074965,75.9111002 176.786545,72.7183429 L176.786545,72.7183429 Z" id="Path" fill="#FFBBAB"></path>
                <path d="M187.046576,81.530343 C186.243277,82.8090812 185.45783,84.1248842 184.725935,85.4592196 C184.444107,85.8592827 184.328382,86.3598746 184.404616,86.8491524 C184.537735,87.1638519 184.779827,87.4151842 185.082957,87.553385 C186.349606,88.1411581 187.81786,88.0152988 188.974493,87.2198011 C190.096069,86.4002336 191.089501,85.4063869 191.919921,84.2731437 C192.368039,83.6464189 192.925035,83.1121614 193.562221,82.6978865 C194.221898,82.2887895 195.044674,82.2887895 195.704351,82.6978865 C196.018875,82.9064309 196.232181,83.2449648 196.29021,83.6276954 C196.34824,84.0104259 196.245424,84.4006189 196.007819,84.6993897 C196.007819,84.1063517 195.311627,83.735703 194.758243,83.8839625 C194.220806,84.1132467 193.774046,84.5247983 193.490817,85.051506 C193.060614,85.6876911 192.667197,86.3498478 192.312645,87.0344768 C192.027082,87.5360435 191.816426,88.0796627 191.687857,88.6467988 C191.614232,90.0667183 192.097156,91.4571478 193.026689,92.5015457 C193.357982,92.9117485 193.623219,93.374856 193.812136,93.872946 C193.94841,94.6726862 193.88699,95.4952476 193.633625,96.2636304 C192.98196,99.5293363 192.819389,102.879856 193.151646,106.197017 C193.321218,106.841399 193.1817,107.531127 192.776773,108.05026 C192.431809,108.330135 191.999804,108.46864 191.5629,108.439441 C189.510025,108.439441 187.475002,107.957598 185.404276,108.013195 C184.135556,108.155038 182.860187,108.223096 181.584145,108.217052 C181.394407,108.24096 181.206217,108.161528 181.086376,108.006952 C180.966536,107.852377 180.932012,107.644542 180.995059,107.457222 C181.56655,103.780196 181.656621,100.03984 181.262825,96.3377601 C180.833515,94.6587855 180.570336,92.9387166 180.477378,91.2042751 C180.460887,90.8229719 180.52803,90.4427603 180.67374,90.0923289 C180.838499,89.7541819 181.048881,89.4421649 181.298527,89.165707 C182.639602,87.4860058 183.603127,85.5170573 184.118998,83.4021191" id="Path" fill="#FFFFFF"></path>
                <path d="M192.110504,98.4369693 C192.138973,99.0321803 191.867322,99.6054271 191.376692,99.9854858 C191.220287,100.051119 191.069342,100.127585 190.925115,100.214244 C190.642879,100.460599 190.680511,100.882922 190.624064,101.234857 C190.383146,101.880935 190.012767,102.478149 189.532753,102.994535 C189.06516,103.559108 189.06516,104.348011 189.532753,104.912584 C189.871436,105.229326 190.435907,105.282116 190.718142,105.651649 C191.000378,106.021181 190.718142,107.217762 191.301429,107.587294 C191.693561,107.742925 192.14848,107.608573 192.373924,107.270552 C192.575788,106.937378 192.685721,106.562421 192.69379,106.179552 C193.132823,102.226142 193.534225,98.2551359 193.897995,94.2665327 C193.999871,93.8422807 193.865345,93.3986285 193.540497,93.0875485 C193.258261,92.7180162 192.881947,92.014145 192.468002,91.8205805 C191.99761,92.4716613 192.355108,93.8794036 192.355108,94.6360651 C192.279845,95.9206299 192.223398,97.187598 192.110504,98.4369693 Z" id="Path" fill="#020202" opacity="0.1"></path>
                <path d="M181.705569,75.2781114 C181.475101,75.5898729 181.323994,75.9581485 181.266491,76.3482296 C181.310283,76.6235642 181.405809,76.8869872 181.547501,77.1231427 C181.800143,77.7047304 181.948971,78.3301124 181.98658,78.9681739 C181.971343,79.4474286 182.087146,79.9212344 182.320279,80.333497 C182.734211,80.7470311 183.296572,80.9551425 183.865836,80.9054567 L185.165509,80.9054567 C185.320586,80.8597741 185.484636,80.8597741 185.639714,80.9054567 C185.783021,80.9828976 185.899696,81.1054666 185.973413,81.2560126 C186.377111,82.2524316 186.620452,83.3123742 186.693502,84.3925657 C186.72969,84.5757328 186.808087,84.7467816 186.921823,84.8907242 C187.011452,85.0251113 187.132393,85.1331036 187.273086,85.2043795 C188.187307,85.582709 189.204094,85.582709 190.118316,85.2043795 C190.353536,85.1297035 190.557799,84.973645 190.697899,84.761572 C190.787596,84.4928377 190.787596,84.2000422 190.697899,83.9313079 C190.598033,83.1885042 190.445392,82.4545926 190.241258,81.7357208 C189.874919,80.7923879 189.684136,79.784021 189.679237,78.7652205 C189.679237,77.8611552 190.153442,77.0308911 190.293947,76.1452761 C190.504179,74.2257947 189.50042,72.386096 187.817544,71.6064993 C186.404385,71.0201338 184.813869,71.1423917 183.49701,71.9386049 C183.022805,72.1969093 182.636416,72.3260615 182.408095,72.8611205 C182.179774,73.3961796 182.127085,74.5216486 181.705569,75.2781114 Z" id="Path" fill="#FFBBAB"></path>
                <path d="M182.185186,69.1899459 C182.106027,68.8613264 182.063397,68.5251906 182.058047,68.1874777 C182.058047,67.0417998 182.730065,65.7350109 183.87431,65.6992084 C184.691629,65.6992084 185.418134,66.3078498 186.253615,66.3078498 C186.597735,66.2620423 186.937773,66.1902257 187.270722,66.0930352 C188.14334,65.8960633 189.049847,65.8960633 189.922466,66.0930352 C191.807858,66.4217812 193.4889,67.4621268 194.608424,68.9930325 C195.746924,70.5883429 195.818236,72.6969042 194.79005,74.3633979 C194.190684,75.2584588 193.26439,75.9029026 192.628698,76.7800623 C192.323782,77.3277363 191.990356,77.8595148 191.629753,78.3732707 C191.302826,78.7491962 190.539995,79.3578376 189.995116,79.0893194 C189.450238,78.8208011 189.413912,77.9436414 189.032497,77.5677158 C189.406384,77.2766047 189.7641,76.9658673 190.104092,76.6368525 C190.441375,76.296443 190.553954,75.7971291 190.394694,75.3479648 C190.176743,74.9183356 189.432075,74.8288295 189.250449,75.3479648 C189.364786,74.1260436 188.894704,72.9214214 187.979065,72.0899432 C187.848522,71.9302409 187.688243,71.7965723 187.506836,71.6961164 C187.308717,71.6601139 187.105589,71.6601139 186.907469,71.6961164 C186.344428,71.6961164 185.799549,71.6961164 185.236508,71.6961164 C184.273888,71.6961164 183.80166,71.9646347 183.11148,71.1590799 C182.638183,70.5908073 182.319414,69.9131606 182.185186,69.1899459 L182.185186,69.1899459 Z" id="Path" fill="#FC682D"></path>
                <path d="M187.669653,80.11202 C187.845318,80.0977978 188.020229,80.1457398 188.157312,80.2456846 C188.270312,80.3765132 188.330171,80.5382399 188.326933,80.703963 C188.411691,81.5487843 188.411691,82.3987677 188.326933,83.243589 C188.303524,83.4679961 188.239045,83.6873682 188.13611,83.8928168 C188.011275,84.0957252 187.778538,84.225823 187.521235,84.2365256 C187.245601,84.2365256 187.012373,84.0264813 186.715536,83.9691965 C186.401909,83.9082029 186.074483,83.9784119 185.825028,84.1601458 C185.58585,84.3465865 185.372305,84.5581348 185.18895,84.7902786 C184.718841,85.3238184 184.201195,85.821938 183.641161,86.2796834 C184.018794,85.1198866 184.590783,84.0187955 185.337368,83.0144498 C185.506775,82.724488 185.774051,82.4904669 186.100661,82.3461272 C186.355092,82.3461272 186.673131,82.3461272 186.842752,82.0978931 C187.012373,81.8496589 186.842752,81.3722856 186.651929,81.0476718 C186.461105,80.7230579 185.973446,80.2647795 186.270282,80.0356403 C186.567118,79.8065011 187.415222,80.0929251 187.669653,80.11202 Z" id="Path" fill="#E0A194"></path>
                <path d="M205.381336,76.012785 C206.103767,75.3435813 206.776429,74.6236619 207.39408,73.8586386 C209.161217,71.6745726 210.128644,68.9628312 210.13873,66.1652585 C210.0746,65.8607934 210.0746,65.546518 210.13873,65.2420529 C210.215554,64.9394317 210.467616,64.7114387 210.779149,64.6627866 C210.912707,64.6808981 211.048139,64.6808981 211.181697,64.6627866 C211.382972,64.6627866 211.47446,64.3912556 211.639139,64.246439 C211.918802,64.072647 212.27436,64.072647 212.554023,64.246439 C212.833973,64.4212595 213.076443,64.6488357 213.267632,64.9162156 C213.560395,65.3144612 213.853157,65.7308088 214.109325,66.1471564 C214.341099,66.4661142 214.480302,66.8416999 214.511873,67.2332807 C214.434604,67.8647287 214.113299,68.442085 213.615288,68.844365 C213.04806,68.844365 212.608916,70.3468369 212.462534,70.6545721 C212.169772,71.4691652 211.840414,72.2837584 211.47446,73.0621475 C209.292875,77.7683773 206.065442,81.9266145 202.032863,85.2267391 C200.678835,86.3309654 195.555488,90.6573603 194.018483,89.1186843 C191.914251,86.9102316 194.018483,84.2492272 195.84825,83.1087968 C199.314326,81.1485668 202.517199,78.7644888 205.381336,76.012785 L205.381336,76.012785 Z" id="Path" fill="#FFBBAB"></path>
                <path d="M182.479241,76.0138402 C182.768993,75.9943448 183.060201,75.9943448 183.349953,76.0138402 C183.384932,75.9998549 183.425792,75.9998549 183.460771,76.0138402 C183.618953,76.379921 183.618953,76.7795924 183.460771,77.1456732 C183.400085,77.2862449 183.296518,77.4116675 183.15998,77.5099413 C183.006396,77.593432 182.806967,77.593432 182.653383,77.5099413 C182.534149,77.428063 182.446198,77.3196497 182.400085,77.1977115 C182.178835,76.831145 182.08567,76.4213248 182.130956,76.0138402 L182.130956,76.0138402 C182.308193,75.9813145 182.491978,75.9813145 182.669214,76.0138402" id="Path" fill="#FFFFFF"></path>
                <path d="M181.337731,78.3801956 L181.195251,78.3801956 C181.213282,78.3597496 181.239229,78.3480366 181.266491,78.3480366 C181.293752,78.3480366 181.319699,78.3597496 181.337731,78.3801956 Z" id="Path" fill="#DDDDDD"></path>
                <path d="M211.335993,72.7449282 C211.278131,73.7359848 211.00212,74.7009315 210.528522,75.5678859 C207.66167,81.7142678 202.761966,86.628785 196.693862,89.4443724 C196.345959,89.5594354 196.031494,89.7610035 195.778728,90.030961 C195.596422,90.2885933 195.468138,90.5818977 195.401909,90.8925131 C194.020237,96.3917812 194.325282,102.001035 193.338373,107.500303 C193.305597,107.992146 193.109342,108.457796 192.782116,108.820127 C192.308528,109.162757 191.721899,109.301053 191.149231,109.205076 L189.982885,109.205076 C187.212186,109.051846 184.451121,108.75204 181.710798,108.306862 C181.229079,108.281757 180.774256,108.072345 180.43679,107.720274 C180.204905,107.283083 180.140925,106.773273 180.257352,106.290464 C180.386339,102.51425 180.236382,98.7334762 179.808757,94.9803024 C179.656244,93.1505236 179.656244,91.310813 179.808757,89.4810342 C180.033603,88.5664708 180.033603,87.6093018 179.808757,86.6947384 C179.705754,86.4277458 179.560241,86.1799916 179.378106,85.9615026 C178.594273,85.1979534 177.767451,84.481829 176.901863,83.8167881 C175.710987,82.435161 174.861826,80.7819202 174.42562,78.995763 C173.600206,76.4660997 172.738904,73.9547672 171.949378,71.4251039 C171.357233,69.5920145 172.29031,68.7304625 173.636094,68.0338885 C174.120576,67.777256 174.65889,67.5389544 175.215147,67.2823219 C175.691421,69.2413862 176.377419,71.1409158 177.260739,72.9465681 C178.133763,74.7300672 179.542141,76.1816739 181.280148,77.0893501 C181.220687,77.0893501 181.172485,77.1385922 181.172485,77.1993354 C181.172329,77.3385783 181.239481,77.4689199 181.351923,77.5476224 C182.554157,78.6841378 183.774334,79.8023223 184.94068,80.9571686 C185.165582,81.1962604 185.442102,81.3783067 185.748151,81.4887646 C186.107027,81.4887646 187.345148,81.1588085 187.291317,81.8370515 C187.299712,81.8732118 187.299712,81.9108767 187.291317,81.9470369 C187.291317,82.1853385 187.075991,82.3686475 187.040104,82.6069491 C187.027239,82.9030059 187.190089,83.1778665 187.452811,83.303523 C187.707895,83.4341109 187.994961,83.4851125 188.278225,83.4501702 C188.591531,83.4308856 188.900125,83.3628902 189.193358,83.2485304 C189.67784,83.0468905 190.072604,82.6986035 190.539142,82.4603019 C191.250957,82.1881939 192.026902,82.1434456 192.764172,82.3319857 C193.56847,82.393737 194.377246,82.3444102 195.16864,82.1853385 C197.45849,81.639987 199.575872,80.5111592 201.323359,78.9041085 C203.765928,76.4849423 206.032838,73.887309 208.106111,71.1318096 C208.337608,70.8144739 208.63876,70.5570533 208.985356,70.3802429 C209.583467,70.1782741 210.241946,70.3500234 210.672072,70.8201844 C211.15614,71.3330473 211.398391,72.0353472 211.335993,72.7449282 Z" id="Path" fill="#FFFFFF"></path>
                <path d="M211.335993,72.7449282 C211.278131,73.7359848 211.00212,74.7009315 210.528522,75.5678859 C207.66167,81.7142678 202.761966,86.628785 196.693862,89.4443724 C196.345959,89.5594354 196.031494,89.7610035 195.778728,90.030961 C195.596422,90.2885933 195.468138,90.5818977 195.401909,90.8925131 C194.020237,96.3917812 194.325282,102.001035 193.338373,107.500303 C193.305597,107.992146 193.109342,108.457796 192.782116,108.820127 C192.308528,109.162757 191.721899,109.301053 191.149231,109.205076 L189.982885,109.205076 C187.212186,109.051846 184.451121,108.75204 181.710798,108.306862 C181.229079,108.281757 180.774256,108.072345 180.43679,107.720274 C180.204905,107.283083 180.140925,106.773273 180.257352,106.290464 C180.386339,102.51425 180.236382,98.7334762 179.808757,94.9803024 C179.656244,93.1505236 179.656244,91.310813 179.808757,89.4810342 C180.033603,88.5664708 180.033603,87.6093018 179.808757,86.6947384 C179.705754,86.4277458 179.560241,86.1799916 179.378106,85.9615026 C178.594273,85.1979534 177.767451,84.481829 176.901863,83.8167881 C175.710987,82.435161 174.861826,80.7819202 174.42562,78.995763 C173.600206,76.4660997 172.738904,73.9547672 171.949378,71.4251039 C171.357233,69.5920145 172.29031,68.7304625 173.636094,68.0338885 C174.120576,67.777256 174.65889,67.5389544 175.215147,67.2823219 C175.691421,69.2413862 176.377419,71.1409158 177.260739,72.9465681 C178.133763,74.7300672 179.542141,76.1816739 181.280148,77.0893501 C181.220687,77.0893501 181.172485,77.1385922 181.172485,77.1993354 C181.172329,77.3385783 181.239481,77.4689199 181.351923,77.5476224 C182.554157,78.6841378 183.774334,79.8023223 184.94068,80.9571686 C185.165582,81.1962604 185.442102,81.3783067 185.748151,81.4887646 C186.107027,81.4887646 187.345148,81.1588085 187.291317,81.8370515 C187.299712,81.8732118 187.299712,81.9108767 187.291317,81.9470369 C187.291317,82.1853385 187.075991,82.3686475 187.040104,82.6069491 C187.027239,82.9030059 187.190089,83.1778665 187.452811,83.303523 C187.707895,83.4341109 187.994961,83.4851125 188.278225,83.4501702 C188.591531,83.4308856 188.900125,83.3628902 189.193358,83.2485304 C189.67784,83.0468905 190.072604,82.6986035 190.539142,82.4603019 C191.250957,82.1881939 192.026902,82.1434456 192.764172,82.3319857 C193.56847,82.393737 194.377246,82.3444102 195.16864,82.1853385 C197.45849,81.639987 199.575872,80.5111592 201.323359,78.9041085 C203.765928,76.4849423 206.032838,73.887309 208.106111,71.1318096 C208.337608,70.8144739 208.63876,70.5570533 208.985356,70.3802429 C209.583467,70.1782741 210.241946,70.3500234 210.672072,70.8201844 C211.15614,71.3330473 211.398391,72.0353472 211.335993,72.7449282 Z" id="Path" fill="url(#linearGradient-1)"></path>
                <path d="M179.847288,87.0712401 C179.70305,86.8464193 179.576841,86.6028633 179.414573,86.3967776 C178.626984,85.6163929 177.7962,84.8844787 176.926465,84.2047743 C175.729882,82.7926838 174.876652,81.1029908 174.438356,79.2774508 C173.608987,76.6920111 172.743558,74.1253064 171.950248,71.5398667 C171.355265,69.6663596 172.292813,68.7858113 173.645046,68.0738786 C173.922298,68.3426379 174.143254,68.6679034 174.294118,69.0293672 C174.574574,69.8235685 174.773996,70.6461774 174.889101,71.4836615 C175.333729,73.3958898 176.103026,75.210381 177.160852,76.8418916 C178.224608,78.6029882 179.234276,80.401555 180.298032,82.1626516 C180.360702,82.2609982 180.409289,82.3682841 180.44227,82.4811478 C180.485822,82.6530804 180.485822,82.8337973 180.44227,83.0057298 C180.228897,83.6987681 180.09574,84.4157532 180.045615,85.1415278 C179.955466,85.5911695 180.189853,86.8276842 179.847288,87.0712401 Z" id="Path" fill="url(#linearGradient-2)"></path>
                <path d="M211.345646,73.6147757 C211.286078,74.6037059 211.001924,75.5665823 210.514354,76.4316766 C207.562925,82.5648711 202.518671,87.468844 196.271547,90.2783905 C195.913381,90.3932066 195.589638,90.5943422 195.329415,90.8637206 C195.141731,91.1208 195.009662,91.4134752 194.941479,91.7234241 C193.519046,97.2108933 193.833089,102.808112 192.817066,108.295581 C192.783322,108.786369 192.581278,109.25102 192.244398,109.612574 C191.756838,109.954468 191.152902,110.092468 190.56334,109.996696 L189.362584,109.996696 L189.362584,109.996696 C189.015732,109.972672 188.682769,109.852208 188.40198,109.649157 C188.135221,109.396925 187.965411,109.060644 187.921678,108.697995 C187.671538,106.622546 187.578912,104.531446 187.64458,102.442281 C187.724106,100.307698 186.761655,98.2655787 185.058338,96.9548114 C184.6322,96.7528692 184.239733,96.4876282 183.894529,96.1682741 C183.556705,95.8211337 183.556705,95.2715882 183.894529,94.9244478 C184.070019,94.8090965 184.275072,94.7456473 184.48567,94.7415321 C185.689144,94.6574416 186.886097,94.4986021 188.069463,94.2659515 C189.257973,94.0484828 190.319991,93.3953288 191.043642,92.4367951 C191.653256,91.5222169 191.782568,90.3515568 192.447602,89.4735617 C193.353185,88.566774 194.499684,87.9325686 195.754298,87.6444053 C200.105023,85.9626768 203.955864,83.2193402 206.949034,79.6692834 C208.279102,78.0779173 209.295126,75.2061418 210.939237,74.0171901 C211.054381,73.8643325 211.191271,73.7287882 211.345646,73.6147757 Z" id="Path" fill="url(#linearGradient-3)"></path>
                <g id="lYf0vm" transform="translate(56.992084, 41.160950)" fill="#FFFFFF">
                    <path d="M62.625894,101.649501 C55.1457055,107.066652 47.2080189,111.818327 38.9033083,115.850368 L37.7262335,115.995646 L37.4002743,115.995646 C36.7569525,115.967018 36.1587563,115.65606 35.7646148,115.145386 C35.3704733,114.634711 35.2202933,113.976027 35.3539749,113.344333 C35.4303446,112.684403 35.5452311,112.029531 35.6980429,111.383088 C36.7483559,106.443656 37.8047051,101.510277 38.8670906,96.5829511 C38.9905506,96.2113526 38.8399654,95.8036312 38.5049138,95.6023285 L19.5449541,80.8385114 C19.2976756,80.5957161 18.9181205,80.5509373 18.621403,80.7295533 C17.4986547,81.310663 16.3396887,81.8372936 15.1807227,82.3639242 C11.1062328,84.2888499 7.17661362,86.1048176 3.15645025,87.9207853 C2.62307638,88.1910381 2.00016611,88.2206894 1.44366308,88.002316 C0.887160052,87.7839427 0.449746066,87.3382173 0.240926359,86.7767256 L0.00551138731,86.2319353 C0.00551138731,86.2319353 0.00551138731,86.0321789 0.00551138731,85.9413805 C0.185523765,84.4826688 0.439375243,83.0340781 0.766082836,81.6012178 C2.79102348,74.0641069 5.27663404,66.6591197 8.20881772,59.4282525 C9.58010532,55.5369123 12.2639092,52.2482135 15.7964234,50.130498 C18.4764704,48.6111385 21.4312983,47.6419506 24.4886685,47.2794288 C26.8533296,46.9378115 29.2354898,46.7316673 31.623553,46.6619997 C32.3660156,46.6619997 33.1265871,46.6619997 33.8871585,46.6619997 C34.2052081,46.6183095 34.4923605,46.4481523 34.6839477,46.1898481 C36.4948321,43.5385353 38.1970634,40.7419451 40.1166009,38.1995904 C42.790916,34.3731104 45.6683339,30.6934981 48.7364106,27.1766666 C51.934813,23.9098881 55.2952413,20.8067065 58.8049279,17.8789121 C62.3538283,14.7291448 66.1713047,11.8974978 70.2134996,9.41650276 C76.2830328,5.91869694 82.7857636,3.23825484 89.553745,1.44440467 C90.8575818,1.04489178 92.1795274,0.699857926 93.501473,0.336664391 L96.2177996,0.0461095633 L96.7067384,0.0461095633 C98.0010242,0.199888929 99.0888939,1.09246258 99.4955004,2.33422883 C99.504172,2.41268053 99.504172,2.49185293 99.4955004,2.57030463 C99.6183925,3.16961162 99.703072,3.77616349 99.7490242,4.3862723 C100.014878,7.57414809 99.9541982,10.780955 99.5679358,13.9564219 C99.1727069,19.6941328 98.0468494,25.3575306 96.2177996,30.808602 C94.3844639,35.8796617 92.2062865,40.818588 89.6986158,45.5905788 C87.7203818,49.6667399 85.3809743,53.5564383 82.708602,57.2127719 C78.4468343,62.8106521 73.888941,68.1754512 69.0545336,73.2840858 C68.7465516,73.5628481 68.6389582,74.0016229 68.7829009,74.3918261 C69.1088601,75.8082809 69.4167105,77.2247357 69.6702343,78.6411905 C70.3181708,81.578268 70.5618871,84.590503 70.3945881,87.5939111 C70.1762252,93.2499825 67.2931523,98.466212 62.625894,101.649501 L62.625894,101.649501 Z" id="Path"></path>
                </g>
                <path d="M88.1985166,130.60686 L76.7810026,121.659422 C76.7810026,121.659422 81.6923459,106.44331 88.7965769,88.7306619 C89.5396214,88.7306619 90.300789,88.7306619 91.0619566,88.7306619 C91.3802554,88.6868196 91.6676329,88.51607 91.8593703,88.2568668 C93.6716741,85.5963251 95.3752397,82.7900002 97.2962817,80.2387958 C99.972693,76.3989962 102.852366,72.7065756 105.922848,69.1775023 C109.123757,65.8993525 112.486819,62.7853691 115.999257,59.8473833 C119.550939,56.686652 123.371408,53.8451483 127.416771,51.3555172 C133.491062,47.8455358 139.998889,45.1557634 146.772176,43.355669 C148.077034,42.9547655 149.400016,42.6085306 150.722998,42.2440728 L153.441454,41.9525066 L153.930776,41.9525066 C155.226076,42.1068213 156.314798,43.0025019 156.721723,44.2485906 C156.730402,44.3273154 156.730402,44.4067633 156.721723,44.4854881 C150.251799,49.7701259 103.512484,88.6031017 88.1985166,130.60686 Z" id="Path" fill="url(#linearGradient-4)"></path>
                <path d="M101.090668,95.8191647 C102.524048,95.0606763 103.810313,94.0497235 104.888262,92.8344071 C107.102026,95.7829858 107.875944,99.5455893 109.369784,102.910225 C109.650212,103.738161 110.194191,104.450194 110.917619,104.936242 C111.565605,105.208812 112.269381,105.320498 112.9694,105.261852 C114.355252,105.261852 115.741104,105.261852 117.126956,105.261852 C118.604298,105.268473 120.065575,104.953752 121.410499,104.339291 C122.148421,103.977502 122.868344,103.253924 122.652367,102.530347 C122.43639,101.806769 121.392501,101.481159 120.546592,101.481159 C119.482174,101.54932 118.413669,101.45169 117.37893,101.191728 C116.075057,100.624247 115.03777,99.5752187 114.481239,98.261239 C113.904575,97.0382889 113.434854,95.7672368 113.077389,94.4624567 C112.337533,92.2460598 111.422722,90.0925987 110.341681,88.0226162 C109.729417,86.7334929 108.894583,85.5636923 107.875944,84.5675332 C106.846667,83.5702039 105.452155,83.0462447 104.024355,83.120378 C101.468627,83.3917196 99.812804,85.996599 97.4370576,86.9734287 C96.3049682,87.2529356 95.2020656,87.6406081 94.143409,88.1311528 C93.4724438,88.6231355 92.8986886,89.2366118 92.4515896,89.9400968 C91.0580842,91.9055986 90.03899,94.1136 89.4459103,96.4522951 C93.2840884,97.5964574 97.397692,97.372799 101.090668,95.8191647 Z" id="Path" fill="url(#linearGradient-5)"></path>
                <path d="M104.91996,82.3573759 C104.91996,82.3573759 108.522791,82.0321504 109.855839,83.3511205 C111.932173,85.763325 113.374933,88.6574846 114.053137,91.7708471 C114.377392,92.9633405 114.773703,94.1196978 115.043915,95.3844636 C115.213751,96.5033088 115.541282,97.5922619 116.01668,98.6186504 C116.309228,99.1921139 116.803477,99.636338 117.40377,99.8653482 C117.876003,99.9738029 118.361823,100.010348 118.844902,99.9737567 C119.447763,99.9680852 120.050123,100.010377 120.646318,100.100233 C120.761652,100.109046 120.873033,100.146284 120.970572,100.208642 C121.038402,100.298355 121.081852,100.404193 121.096672,100.515799 C121.168392,101.149844 120.901348,101.774814 120.394119,102.159995 C118.869824,102.893058 117.143934,103.090347 115.494269,102.720105 C113.512712,102.051586 112.882217,98.3656973 112.161651,96.6492294 C111.116829,94.1377659 109.999952,91.6805066 108.811018,89.2413155 C108.685325,88.9181894 108.488235,88.6278468 108.234565,88.3921156 C107.935622,88.1951191 107.597558,88.0656536 107.243786,88.0126858 L102.902375,87.0731455 C103.3167,85.5012223 104.469606,83.911231 104.91996,82.3573759 Z" id="Path" fill="#FFBBAB"></path>
                <circle id="Oval" fill="#DDDDDD" cx="124.670185" cy="83.5092348" r="10.6860158"></circle>
                <circle id="Oval" fill="#473F47" cx="125.065963" cy="83.1134565" r="7.12401055"></circle>
                <path d="M92.6121372,89.2005485 L75.4085781,123.490719 L59.0863113,130.880842 C59.0863113,130.880842 55.9099872,133.005502 56.2221115,128.64533 C56.5342359,124.285157 64.961593,99.7868996 67.4769479,96.387443 C69.9923029,92.9879865 77.6485293,86.7802832 92.6121372,89.2005485 Z" id="Path" fill="#DDDDDD"></path>
                <path d="M125.896395,115.567282 L96.1614486,138.544045 L91.8205805,158.826228 C93.1615934,160.613875 95.5731416,161.194033 97.5722308,160.209931 C101.641795,158.844434 122.676918,144.734298 125.299526,141.548139 C127.922134,138.361979 131.865089,129.331492 125.896395,115.567282 Z" id="Path" fill="#DDDDDD"></path>
                <path d="M142.480211,45.3291082 L157.181543,56.2005277 C157.181543,56.2005277 157.942597,44.9383055 157.181543,42.5757258 C156.420489,40.213146 142.480211,45.3291082 142.480211,45.3291082 Z" id="Path" fill="#DDDDDD"></path>
                <polygon id="Path" fill="#DDDDDD" points="76.4870655 121.108179 73.6147757 126.178068 92.9158315 140.897098 97.3614776 137.117396"></polygon>
                <path d="M74.0024369,126.649077 C74.0024369,126.649077 18.8780679,185.769397 55.0364688,212.923921 C91.1948698,240.078446 132.98153,222.181974 132.98153,222.181974 C132.98153,222.181974 73.2604477,235.467644 64.5556475,201.73407 C59.4703068,181.996923 93.0950861,141.429157 93.0950861,141.429157 L74.0024369,126.649077 Z" id="Path" fill="url(#linearGradient-6)" opacity="0.36"></path>
                <path d="M191.510431,178.571546 L204.893058,186.807388 L170.91345,186.807388 L184.296077,178.041968 L184.296077,170.901803 L182.059627,168.217394 L182.059627,159.707632 C160.164063,152.03789 160.687103,104.485488 160.687103,104.485488 L215.119405,104.485488 C215.119405,104.485488 215.119405,104.668101 215.119405,105.051588 C215.444051,110.274317 217.265676,150.303067 196.758874,159.031964 C195.950963,159.383952 195.119183,159.676883 194.269922,159.908506 L194.269922,167.213023 L192.466333,169.568729 L191.510431,170.792236 L191.510431,178.571546 Z" id="Path" fill="#DDDDDD"></path>
                <path d="M161.793023,146.435057 C160.44179,146.480777 159.127646,145.991265 158.139858,145.074271 C156.936406,143.768159 156.588911,141.894354 157.244833,140.248014 L159.765516,140.973767 C159.437746,141.731117 159.564725,142.607027 160.094301,143.241745 C160.882183,143.851446 161.927739,144.022263 162.870707,143.69534 C163.561052,143.562821 164.141606,143.10148 164.423302,142.46156 C164.204112,141.69952 160.770137,138.832796 158.103326,136.419667 C150.796996,130.06933 141.664084,122.176767 144.641414,115.826429 C145.475333,113.799763 147.244762,112.299033 149.390528,111.798501 C155.235592,110.455858 162.980301,116.697333 163.309086,116.96949 L161.646896,118.983454 C159.692453,117.386798 153.774326,113.540308 149.975034,114.338636 C148.620167,114.669426 147.514561,115.638843 147.015971,116.933203 C144.860603,121.505446 153.865655,129.289145 159.802048,134.441991 C165.099137,139.032378 167.418897,141.137061 166.962251,143.07845 C166.482299,144.656651 165.184174,145.855982 163.564808,146.217331 C162.985393,146.361577 162.390357,146.434698 161.793023,146.435057 Z" id="Path" fill="#DDDDDD"></path>
                <path d="M214.152518,146.433363 C213.568832,146.435367 212.987727,146.355474 212.426035,146.195996 C210.807899,145.83822 209.508282,144.630245 209.027591,143.037194 C208.573253,141.083484 210.844941,138.965443 216.151603,134.345923 C222.076164,129.160375 231.0357,121.327276 228.873053,116.726015 C228.396138,115.519823 227.366218,114.621212 226.110681,114.315831 C221.985297,113.402882 215.206581,117.967625 213.007588,119.793523 L211.444666,117.748518 C211.82631,117.456374 220.531417,110.444929 226.783101,111.777834 C228.835417,112.243005 230.535811,113.679142 231.34465,115.630477 C234.325104,122.021117 225.238353,129.96377 217.95078,136.35441 C215.242928,138.728077 211.88083,141.667771 211.662748,142.617238 C211.808136,143.073712 212.55325,143.493669 213.207496,143.676258 C214.138772,144.01638 215.179217,143.843311 215.951695,143.219784 C216.441179,142.567069 216.532054,141.69619 216.18795,140.955671 L218.714067,140.225312 C219.36643,141.885089 219.013089,143.773703 217.805392,145.082199 C216.816265,146.0047 215.500892,146.491244 214.152518,146.433363 L214.152518,146.433363 Z" id="Path" fill="#DDDDDD"></path>
                <path d="M196.306069,159.615881 C195.491385,159.971518 194.652633,160.267485 193.796253,160.50151 L193.796253,160.686016 L181.447233,160.686016 L181.447233,160.280103 C159.368131,152.530851 159.895556,104.485488 159.895556,104.485488 L173.353987,104.485488 C173.353987,104.485488 167.388628,136.312773 187.448966,155.59365 C191.722927,159.726585 193.268828,158.693351 196.306069,159.615881 Z" id="Path" fill="#FFFFFF" opacity="0.28"></path>
                <path d="M203.430079,160.64622 C202.642725,160.752343 201.842763,160.752343 201.055409,160.64622 L203.430079,160.64622 Z" id="Path" fill="#DDDDDD"></path>
                <polygon id="Path" fill="#FFFFFF" opacity="0.28" points="185.696984 159.568055 185.696984 167.661709 187.598945 170.359594 187.598945 177.857853 182.456607 186.807388 172.559367 186.807388 185.37999 178.360218 185.37999 170.527049 182.844043 167.252375 182.844043 159.102902"></polygon>
                <path d="M181.063295,160.686016 L181.063295,160.280103 C159.377507,152.530851 159.895536,104.485488 159.895536,104.485488 L163.7361,104.485488 C163.7361,104.485488 161.378172,146.792714 182.135081,160.2063 L182.849604,160.686016 L181.063295,160.686016 Z" id="Path" fill="url(#linearGradient-7)"></path>
                <path d="M193.931398,160.686016 L193.931398,167.868383 L192.102169,170.184697 C188.224201,168.873915 187.620555,166.072791 193.931398,160.686016 Z" id="Path" fill="#DDDDDD"></path>
                <path d="M196.463639,159.030658 C195.641676,159.37753 194.79543,159.666202 193.931398,159.894459 C214.556315,142.348502 203.876865,105.277045 203.876865,105.277045 L215.143501,105.834916 C215.418744,110.98173 217.253701,150.42864 196.463639,159.030658 Z" id="Path" fill="url(#linearGradient-8)"></path>
                <path d="M94.9868074,57.7836412 L96.2461022,55.1448563 C97.416877,52.535973 98.7947478,50.0302237 100.365795,47.6529218 C103.621972,43.0581147 105.313025,37.5037494 108.119453,32.5952406 C108.303535,32.3285648 108.415282,32.0165333 108.443272,31.6910416 C108.443272,30.971373 107.615735,30.5654061 106.914128,30.3808757 C105.992764,30.06605 105.008581,29.996209 104.05373,30.1778922 C103.081809,30.3773145 102.314288,31.1429253 102.092828,32.1339145 C102.08102,32.6965383 102.123199,33.2589891 102.218757,33.8131412 C102.163047,35.383887 101.635225,36.8985451 100.707604,38.1496058 L93.619573,49.9226458 C92.6433041,51.2414734 92.0228349,52.8007561 91.8205805,54.4436408 C91.9059645,56.2157316 93.2622596,57.6464648 94.9868074,57.7836412 L94.9868074,57.7836412 Z" id="Path" fill="#FFBBAB"></path>
                <path d="M94.6824011,57.7836412 C95.3242455,56.862598 95.5620365,55.743234 95.3458358,54.6606263 C95.1149158,53.2367063 95.1149158,51.7880349 95.3458358,50.3641149 C95.8242337,48.9960289 95.9074965,47.5327603 95.5870848,46.1243856 C95.5870848,46.1243856 95.5870848,45.9918941 95.4664603,45.9540394 C95.3681893,45.8957072 95.2430659,45.8957072 95.144795,45.9540394 C94.6542299,46.2317638 94.2892949,46.6696533 94.1194868,47.184318 C93.2751154,49.0770542 90.7017929,52.2757786 91.0636664,54.3388611 C91.1533014,56.1908229 92.7164129,57.6787947 94.6824011,57.7836412 L94.6824011,57.7836412 Z" id="Path" fill="url(#linearGradient-9)"></path>
                <polygon id="Path" fill="#DDDDDD" points="89.4459103 57.8166227 93.0614466 53.0343008 97.3614776 57.138669 93.3071626 60.9498681"></polygon>
                <polygon id="Path" fill="url(#linearGradient-10)" points="89.4459103 57.8166227 93.0614466 53.0343008 97.3614776 57.138669 93.3071626 60.9498681"></polygon>
                <path d="M98.4582712,64.0886973 L100.063719,64.7092893 C100.621401,64.9161533 101.753664,65.7436093 102.277547,65.1794348 C102.80143,64.6152602 102.277547,62.9039307 102.277547,62.2833387 C102.011078,60.0569621 101.529472,57.8690884 100.841094,55.7577197 C100.323789,54.7374856 100.219389,53.5210383 100.553803,52.4102841 C100.849552,51.8246777 101.403543,51.459088 102.007156,51.4511873 C102.601467,51.4620048 103.152255,51.8001673 103.477408,52.3538666 C103.706482,52.9571687 103.870975,53.5883683 103.967492,54.2344485 C104.147242,54.6559097 104.217486,55.1249141 104.170285,55.5884674 C104.077082,55.7946747 103.997993,56.008414 103.933693,56.2278652 C103.922056,56.4731113 103.962586,56.7179524 104.051989,56.9424863 L106.16442,63.1296006 C106.749689,64.4518319 106.972995,65.9362665 106.8066,67.3985213 C106.202627,69.3784877 104.451459,70.6334577 102.581737,70.4262581 C100.566894,70.2038126 98.6274414,69.4564835 96.9204213,68.2447832 C96.7345274,68.1319483 96.5148345,67.9250843 96.5824323,67.6994144 C96.633613,67.6013261 96.7101739,67.5226823 96.8021252,67.4737446 C97.3486648,67.1224618 97.8076011,66.6246838 98.1371817,66.0256966 C98.5099565,65.4711564 98.6287132,64.7547463 98.4582712,64.0886973 Z" id="Path" fill="#FFBBAB"></path>
                <path d="M93.4900377,54.0265552 C93.449065,54.2823771 93.3346907,54.5176117 93.1632396,54.6986833 C92.8983318,54.8788749 92.5975717,54.9876984 92.2860448,55.0160771 C91.9655686,55.0549259 91.6616079,55.1907855 91.40885,55.4081519 C91.3292854,55.5650862 91.3292854,55.7553137 91.40885,55.912248 L91.8732473,58.0593239 C91.9243985,58.2163694 91.9243985,58.3877044 91.8732473,58.5447498 C91.7815428,58.7304661 91.6276014,58.8708309 91.4432498,58.9368246 C90.7552539,59.2915588 89.8780591,59.6089527 89.2760627,59.1048566 C88.9729292,58.80852 88.7624922,58.4169322 88.6740662,57.984643 C87.7883809,55.6009954 87.2543643,53.0807047 87.0916756,50.5165527 C86.9608,48.9538628 87.4631027,47.4067389 88.4676675,46.2784114 C89.4341005,45.4273237 90.6681432,45.0187657 91.907647,45.1395277 C92.471131,45.1693747 92.9853075,45.4972765 93.2836389,46.0170283 C93.4728378,46.3904328 93.2836389,46.7825075 93.4040382,47.1932525 C93.4581977,47.7919308 93.5559697,48.3850103 93.6964364,48.966924 C93.7669517,49.246199 93.8531116,49.5205395 93.9544349,49.7884139 C94.0699753,50.008982 94.1513261,50.2486672 94.1952507,50.4978825 C94.196713,50.9566115 94.1026353,51.4097684 93.9200351,51.8234685 C93.747713,52.3305083 93.6266043,52.8563545 93.5588373,53.3917675 C93.593237,53.6531506 93.593237,53.8398529 93.4900377,54.0265552 Z" id="Path" fill="#FFBBAB"></path>
                <path d="M94.1575235,45.9982566 C94.0103026,46.9385528 93.4065977,47.7432289 92.5477423,48.1439283 C90.5942999,49.0712949 87.8088358,48.9440093 88.5504204,51.7806599 C89.4156556,54.0254801 89.1881789,56.5477623 87.9354478,58.5995318 C87.4832621,59.2723272 86.9225518,59.8542042 86.5246283,60.5633669 C85.8734809,61.6543864 85.6745191,62.9817934 84.9691094,64.0364456 C83.5582899,66.1275663 80.700476,66.5639741 78.2044108,66.5639741 C77.2495637,66.5432837 76.3009069,66.7228772 75.4189467,67.0913002 C73.3750671,68.1095851 72.4526082,71.1280724 70.1916796,71.2371743 C67.9307509,71.3462763 67.1529914,68.38234 65.8868714,66.9276473 C64.1167012,65.1358447 63.6212054,62.4358254 64.6388387,60.1269591 C66.9721171,55.3264733 74.5869249,55.6174118 77.4628262,51.03513 C79.2353943,48.3803159 79.2353943,44.7435842 82.3102573,43.0343203 C85.740492,41.4292115 89.7360057,41.6195153 92.999928,43.5434628 C93.8700543,44.0269771 94.3359699,45.0149965 94.1575235,45.9982566 Z" id="Path" fill="#473F47"></path>
                <path d="M97.0256095,80.1278765 C97.2441793,80.3083075 97.4946657,80.4447382 97.7636255,80.5298467 C98.7059622,80.764716 99.6847443,80.8081823 100.643688,80.6577464 C102.028784,80.5846979 103.416683,80.5846979 104.801779,80.6577464 C105.138253,80.6402417 105.471734,80.729657 105.755799,80.9135456 C106.22381,81.3155158 106.079806,82.0646421 105.881802,82.6493261 C105.019023,85.309006 104.015544,87.9195137 102.875737,90.4694739 C102.482023,91.5839726 101.797682,92.5691036 100.895694,93.3198082 C100.183208,93.7685664 99.3861218,94.0610819 98.5556427,94.1785627 C96.8863978,94.5259039 95.1968747,94.763923 93.4975327,94.8911463 C91.8428718,95.136127 90.1536914,94.908356 88.6194266,94.2333768 C86.9806923,93.230468 85.7728951,91.639303 85.235353,89.7751617 C84.5460546,87.9788082 84.3774166,86.0197851 84.7493424,84.1293073 C85.1993522,82.1194562 86.0993718,81.5347723 85.5413597,79.3787502 C84.8025825,76.7047279 84.2847771,73.972827 83.993326,71.2114463 C83.7593262,68.7049857 83.9913563,66.1762118 84.6773409,63.7567259 C84.9498245,62.6363816 85.4127748,61.5728792 86.0453706,60.6140497 C86.6913342,59.6725505 87.6393531,58.9879679 88.727429,58.6772841 C89.8253234,58.3905444 90.9906278,58.7175669 91.7874955,59.5360386 C93.8935413,61.8565031 96.773604,61.9844027 99.167656,63.9759824 C99.3076232,64.0671867 99.4149242,64.2017304 99.4736627,64.3596812 C99.5360509,64.5243349 99.5360509,64.706626 99.4736627,64.8712797 L97.9076286,68.6899967 C97.7531808,69.1010407 97.5539388,69.4932667 97.3136157,69.8593646 C97.097611,70.169978 96.8276052,70.4257772 96.6296008,70.7363906 C96.0859831,71.6701064 95.8115631,72.739996 95.8375836,73.8242527 C95.8195832,75.65139 95.3875738,78.830609 97.0256095,80.1278765 Z" id="Path" fill="#DDDDDD"></path>
                <path d="M94.6011335,82.1390253 C93.9382282,82.421948 93.1524182,82.3739775 92.5411752,82.0132732 C91.0992044,81.0791154 92.2115819,80.4323907 92.5411752,79.4623036 C92.9824206,78.1206666 93.1016347,76.7140838 92.8913681,75.3304514 C92.6647727,72.6537298 92.4175777,69.941079 92.1909823,67.2823219 C92.3145798,67.9470112 95.9401064,68.8811691 97.3614776,69.7255041 C97.1142826,70.0309018 96.8052888,70.2824059 96.5786934,70.5878037 C94.971926,72.6357652 95.8165089,76.7316883 95.857708,79.0491184 C95.9607059,80.162922 95.7959093,81.5641589 94.6011335,82.1390253 Z" id="Path" fill="url(#linearGradient-11)"></path>
                <path d="M110.40167,46.4397391 C110.956699,48.521387 110.956699,50.7076357 110.40167,52.7892836 C110.302122,52.887626 110.181014,52.9625002 110.047522,53.0082334 C109.944882,53.0429899 109.833291,53.0429899 109.730652,53.0082334 C108.89188,52.8440211 104.138836,49.7969696 98.5470195,51.7127804 C97.7730227,51.9961613 96.9008886,51.7970086 96.3348766,51.2076352 C95.7688645,50.6182617 95.6196207,49.7538805 95.9563238,49.0151571 C96.2930268,48.2764336 97.049857,47.8077763 97.8760016,47.8264213 C97.8760016,47.8264213 105.201281,45.4362192 106.785629,41.1849437 C106.990662,40.5463401 107.400729,40.3091444 107.866713,40.3821277 C108.159904,40.4390979 108.434798,40.5642559 108.668207,40.7470441 L108.668207,40.7470441 C109.602704,42.5225532 110.190584,44.4531511 110.40167,46.4397391 Z" id="Path" fill="#DDDDDD"></path>
                <path d="M110.435373,46.4456205 C110.945465,48.5336656 110.945465,50.726633 110.435373,52.8146781 C110.385741,52.9260801 110.291042,53.0070207 110.17842,53.0343008 L110.17842,53.0343008 C109.493209,53.0343008 108.465394,50.2890173 107.985747,46.9031678 C107.5061,43.5173182 107.54036,40.8635442 108.105659,40.3693931 L108.242701,40.3693931 C108.431134,40.3693931 108.619566,40.4975064 108.84226,40.8086385 L108.84226,40.8086385 C109.693015,42.5670705 110.233077,44.4779956 110.435373,46.4456205 Z" id="Path" fill="url(#linearGradient-12)"></path>
                <path d="M119.871227,99.017181 C119.38098,99.1884844 119.074341,99.7706524 119.156419,100.374274 C119.156419,100.708327 119.487671,101.042381 119.365631,101.355556 C119.279969,101.529013 119.131728,101.64479 118.964641,101.668731 C117.3294,102.267981 115.567297,102.126806 114.013286,101.272043 C113.935705,101.60748 114.015747,101.966931 114.222498,102.211569 C114.461246,102.741125 114.817123,103.181749 115.251124,103.485148 C115.54059,103.618574 115.847567,103.68927 116.157711,103.693931 C118.591088,103.655535 120.952271,102.698385 122.904803,100.958868 C123.090885,100.819007 123.255923,100.642543 123.392965,100.436909 C123.512811,100.206922 123.512811,99.9152747 123.392965,99.6852882 C123.288359,99.3721129 122.974541,99.2677212 122.695591,99.2050861 C122.210223,99.1185978 121.721381,99.0628446 121.231106,99.0380593 C120.783669,98.92091 120.321025,98.9138069 119.871227,99.017181 L119.871227,99.017181 Z" id="Path" fill="#DDDDDD"></path>
            </g>
        </g>
    </g>
</svg>