<?xml version="1.0" encoding="UTF-8"?>
<svg width="300px" height="239px" viewBox="0 0 300 239" version="1.1" xmlns="http://www.w3.org/2000/svg" xmlns:xlink="http://www.w3.org/1999/xlink">
    <title>Illustration 12</title>
    <defs>
        <linearGradient x1="55.934805%" y1="268.678901%" x2="36.852095%" y2="-282.229864%" id="linearGradient-1">
            <stop stop-color="#000000" offset="1%"></stop>
            <stop stop-color="#000000" stop-opacity="0.69" offset="8%"></stop>
            <stop stop-color="#000000" stop-opacity="0.32" offset="21%"></stop>
            <stop stop-color="#000000" stop-opacity="0" offset="100%"></stop>
        </linearGradient>
        <linearGradient x1="55.5272115%" y1="52.8322164%" x2="3.39483186%" y2="153.350696%" id="linearGradient-2">
            <stop stop-color="#000000" offset="1%"></stop>
            <stop stop-color="#000000" stop-opacity="0.69" offset="8%"></stop>
            <stop stop-color="#000000" stop-opacity="0.32" offset="21%"></stop>
            <stop stop-color="#000000" stop-opacity="0" offset="100%"></stop>
        </linearGradient>
        <linearGradient x1="31.2704919%" y1="1.38357374%" x2="98.2914109%" y2="175.272299%" id="linearGradient-3">
            <stop stop-color="#000000" offset="1%"></stop>
            <stop stop-color="#000000" stop-opacity="0.69" offset="8%"></stop>
            <stop stop-color="#000000" stop-opacity="0.32" offset="21%"></stop>
            <stop stop-color="#000000" stop-opacity="0" offset="100%"></stop>
        </linearGradient>
        <linearGradient x1="92.8167877%" y1="-27.8611888%" x2="-7.66747377%" y2="155.154519%" id="linearGradient-4">
            <stop stop-color="#000000" offset="1%"></stop>
            <stop stop-color="#000000" stop-opacity="0.69" offset="8%"></stop>
            <stop stop-color="#000000" stop-opacity="0.32" offset="21%"></stop>
            <stop stop-color="#000000" stop-opacity="0" offset="100%"></stop>
        </linearGradient>
        <linearGradient x1="122.681737%" y1="-18.7351177%" x2="-92.8274488%" y2="194.938252%" id="linearGradient-5">
            <stop stop-color="#000000" offset="1%"></stop>
            <stop stop-color="#000000" stop-opacity="0.69" offset="8%"></stop>
            <stop stop-color="#000000" stop-opacity="0.32" offset="21%"></stop>
            <stop stop-color="#000000" stop-opacity="0" offset="100%"></stop>
        </linearGradient>
        <linearGradient x1="161.783389%" y1="-80.0254108%" x2="-331.817955%" y2="494.533391%" id="linearGradient-6">
            <stop stop-color="#000000" offset="1%"></stop>
            <stop stop-color="#000000" stop-opacity="0.69" offset="8%"></stop>
            <stop stop-color="#000000" stop-opacity="0.32" offset="21%"></stop>
            <stop stop-color="#000000" stop-opacity="0" offset="100%"></stop>
        </linearGradient>
    </defs>
    <g id="DESIGN-SYSTEM" stroke="none" stroke-width="1" fill="none" fill-rule="evenodd">
        <g id="Illustrations" transform="translate(-1010.000000, -1637.000000)" fill-rule="nonzero">
            <g id="Illustration-12" transform="translate(1010.000000, 1637.000000)">
                <path d="M50.3443709,230.145695 C39.5265203,228.369317 29.3428401,223.855396 20.7615894,217.033113 C10.6490066,209.086093 -0.317880795,198.377483 0.0198675497,185.086093 C0.377483444,171 5.64238411,157.430464 11.3443709,144.715232 C19.0529801,127.589404 29.7615894,109.509934 26.9205298,90.4172185 C24.0794702,71.3245033 27.9139073,48.5165563 37.986755,32.2847682 C53.7615894,6.79470199 81.6953642,0.635761589 109.509934,0.059602649 C127.86755,-0.317880795 146.801325,0.774834437 163.529801,8.34437086 C181.13245,16.2913907 195.317881,30.9735099 213.198675,37.807947 C225.119205,42.2980132 238.172185,43.1721854 249.834437,48.2384106 C264.516556,54.615894 275.821192,67.2516556 283.172185,81.4768212 C290.523179,95.7019868 294.238411,111.496689 297.07947,127.172185 C301.728477,153.675497 290.682119,186.774834 274.748344,208.490066 C264.15894,222.913907 246.377483,239.622517 228.119205,236.125828 C135.139073,218.403974 153,246.735099 50.3443709,230.145695 Z" id="Path" fill="#DDDDDD" opacity="0.18"></path>
                <path d="M86.2847682,221.463576 L209.463576,221.463576 C209.264901,222.576159 208.887417,223.589404 208.668874,224.701987 C221.354212,224.964631 234.039601,224.180515 246.596026,222.357616 C249.328569,222.091208 252.006611,221.421697 254.543046,220.370861 C255.794702,219.774834 257.145695,218.384106 256.529801,217.211921 C256.044762,216.591415 255.326825,216.196549 254.543046,216.119205 C247.178808,214.649007 239.761589,213.430464 232.291391,212.463576 C229.740909,212.358927 227.259028,211.606842 225.07947,210.278146 C222.15894,208.13245 221.245033,204.139073 221.225166,200.503311 C221.553035,196.888213 221.553035,193.250859 221.225166,189.635762 C219.536424,180.417219 213.278146,172.072848 217.490066,163.668874 C221.264901,156 228.198675,149.940397 230.463576,141.695364 C232.033113,135.97351 231.139073,129.913907 230.225166,124.072848 L227.245033,104.741722 C226.889571,100.589207 225.743146,96.5430025 223.86755,92.8211921 C223.247014,91.5870335 222.365764,90.5024187 221.284768,89.6423841 C220.05298,88.8278146 219.536424,89.3443709 218.344371,88.9271523 C215.741722,88.013245 213.615894,85.6490066 210.81457,87.9536424 C211.286282,81.2800772 211.29292,74.5817718 210.834437,67.9072848 C210.873118,64.5962437 210.19538,61.31599 208.847682,58.2913907 C207.71311,56.3715773 206.307958,54.6251734 204.675497,53.1059603 C202.02649,50.4569536 199.337748,47.9205298 196.609272,45.4966887 C194.655947,43.6674427 192.541397,42.0183595 190.291391,40.5695364 C183.15894,36.0794702 176.046358,36.218543 168.099338,37.3509934 C159.377483,38.6225166 150,37.7284768 141.258278,37.3509934 C132.516556,36.9735099 123.377483,36.218543 114.417219,36.2980132 C109.995891,36.3179412 105.578865,36.5765959 101.18543,37.0728477 C99.9536424,37.2119205 88.807947,38.4238411 88.7284768,39.4172185 C87.1390728,57.6556291 94.9271523,75.1788079 100.86755,92.5231788 C108.437086,114.576159 113.18543,137.92053 111.496689,161.205298 C109.807947,184.490066 102.715232,204.913907 86.2847682,221.463576 Z" id="Path" fill="url(#linearGradient-1)"></path>
                <path d="M247.033113,206.701987 C246.536424,208.112583 245.721854,209.682119 246.456954,210.993377 C246.518155,211.12467 246.623674,211.23019 246.754967,211.291391 C246.950932,211.378938 247.174896,211.378938 247.370861,211.291391 C250.529801,210.059603 252.337748,206.781457 253.668874,203.642384 C254.081397,202.891564 254.22177,202.021252 254.066225,201.178808 C253.705251,200.380581 253.0906,199.724022 252.317881,199.311258 C251.187787,198.475541 250.130982,197.545021 249.15894,196.529801 C249.437086,196.847682 248.602649,198.89404 248.463576,199.251656 C248.052861,199.978749 247.713529,200.74391 247.450331,201.536424 C247.457074,202.286697 247.503497,203.036088 247.589404,203.781457 C247.557796,204.778063 247.370085,205.763546 247.033113,206.701987 Z" id="Path" fill="#A0685B"></path>
                <path d="M213.258278,217.390728 C212.403974,218.324503 211.271523,219.15894 211.112583,220.390728 C211.042577,220.610453 211.042577,220.846501 211.112583,221.066225 C211.390728,221.622517 212.205298,221.582781 212.801325,221.403974 C215.147487,220.583219 217.332539,219.35959 219.258278,217.788079 C219.526025,217.609954 219.75565,217.38033 219.933775,217.112583 C220.073066,216.700186 220.073066,216.253456 219.933775,215.84106 L219.417219,212.741722 C219.410717,212.643869 219.368259,212.551876 219.298013,212.483444 C219.216393,212.444199 219.121355,212.444199 219.039735,212.483444 C218.233721,212.404399 217.421908,212.404399 216.615894,212.483444 C215.523179,212.483444 215.463576,212.602649 215.245033,213.615894 C214.9078,215.020113 214.224841,216.317736 213.258278,217.390728 Z" id="Path" fill="#A0685B"></path>
                <path d="M220.350993,219.735099 C220.360506,219.887308 220.326021,220.03904 220.251656,220.172185 C220.112539,220.330379 219.923043,220.435655 219.715232,220.470199 C218.665891,220.844126 217.660048,221.330394 216.715232,221.92053 C214.700961,222.92564 212.615939,223.782225 210.476821,224.483444 C209.598344,224.937572 208.573358,225.016418 207.635762,224.701987 C207.523671,224.657904 207.426967,224.581922 207.357616,224.483444 C207.307942,224.314841 207.307942,224.13549 207.357616,223.966887 C207.673848,222.471376 208.40351,221.094656 209.463576,219.993377 C209.834872,219.543596 210.286175,219.166388 210.794702,218.880795 C211.311673,218.591214 211.930919,218.547502 212.483444,218.761589 C213.059603,219.019868 213.456954,219.655629 214.072848,219.834437 C214.726344,219.964765 215.404495,219.813263 215.940397,219.417219 C216.638182,219.04406 217.302845,218.612029 217.927152,218.125828 C218.384106,217.748344 218.940397,217.013245 219.516556,216.874172 C220.768212,216.596026 220.390728,218.960265 220.350993,219.735099 Z" id="Path" fill="#DDDDDD"></path>
                <path d="M255.596026,202.251656 C255.707334,202.395418 255.776158,202.567477 255.794702,202.748344 C255.75158,202.984728 255.63309,203.200798 255.456954,203.364238 C254.68641,204.387539 254.020805,205.485788 253.470199,206.642384 C252.204236,208.882443 250.776609,211.027203 249.198675,213.059603 C248.63244,214.035668 247.704545,214.749433 246.615894,215.046358 C246.4852,215.076859 246.349237,215.076859 246.218543,215.046358 C246.048511,214.941726 245.921629,214.779599 245.860927,214.589404 C245.221395,212.967566 245.042626,211.200508 245.344371,209.483444 C245.388117,208.791917 245.570545,208.11626 245.880795,207.496689 C246.190581,206.893674 246.750155,206.457643 247.410596,206.304636 C248.145695,206.18543 248.900662,206.523179 249.615894,206.304636 C250.314159,205.991717 250.857974,205.412125 251.125828,204.695364 C251.514887,203.908018 251.840426,203.090849 252.099338,202.251656 C252.204646,201.486155 252.446921,200.745869 252.81457,200.066225 C253.94702,199.05298 255.139073,201.496689 255.596026,202.251656 Z" id="Path" fill="#DDDDDD"></path>
                <path d="M240.377483,151.927152 C241.002311,156.450973 240.09296,161.053689 237.794702,165 C236.066225,167.900662 235.807947,171.377483 234.15894,174.15894 C233.777446,174.706108 233.51981,175.329859 233.403974,175.986755 C233.493054,177.153366 234.070177,178.228258 234.993377,178.94702 L245.562914,189.97351 C247.479903,191.640397 248.908217,193.796602 249.695364,196.211921 C250.426994,198.755966 248.973553,201.4147 246.437086,202.172185 L223.450331,188.642384 C219.660858,184.136565 217.659804,178.395024 217.827815,172.509934 C218.125828,168.536424 226.211921,148.668874 226.211921,148.668874 C228.938136,146.458286 231.880146,144.528007 234.993377,142.907285 C236.721854,142.13245 236.801325,142.589404 237.794702,144.278146 C238.531249,145.53215 239.124382,146.865035 239.562914,148.251656 C239.944449,149.449823 240.217078,150.679978 240.377483,151.927152 L240.377483,151.927152 Z" id="Path" fill="#DDDDDD"></path>
                <path d="M226.211921,148.688742 C226.211921,148.688742 217.728477,168.556291 217.827815,172.529801 C218.066225,183.536424 223.450331,188.662252 223.450331,188.662252 C222.880795,196.384106 222.317881,204.119205 221.761589,211.86755 C219.258278,213.238411 215.543046,214.350993 214.092715,211.86755 C213.723943,211.153672 213.520253,210.36607 213.496689,209.562914 C212.662252,201.311258 211.81457,193.072848 210.953642,184.847682 C210.249262,179.963775 210.169149,175.010091 210.715232,170.10596 L210.715232,169.688742 L210.715232,169.688742 C210.715232,169.688742 210.715232,169.688742 210.715232,169.688742 C210.715232,169.688742 210.97351,168.456954 211.311258,167.125828 L211.311258,167.125828 C212.284768,163.271523 214.390728,156.139073 217.668874,152.02649 C220.618214,151.398025 223.457372,150.33334 226.092715,148.86755 L226.211921,148.688742 Z" id="Path" fill="#DDDDDD"></path>
                <path d="M226.211921,148.688742 C226.211921,148.688742 217.728477,168.556291 217.827815,172.529801 C218.066225,183.536424 223.450331,188.662252 223.450331,188.662252 C222.880795,196.384106 222.317881,204.119205 221.761589,211.86755 C219.258278,213.238411 215.543046,214.350993 214.092715,211.86755 C213.723943,211.153672 213.520253,210.36607 213.496689,209.562914 C212.662252,201.311258 211.81457,193.072848 210.953642,184.847682 C210.249262,179.963775 210.169149,175.010091 210.715232,170.10596 L210.715232,169.688742 L210.715232,169.688742 C210.715232,169.688742 210.715232,169.688742 210.715232,169.688742 C210.715232,169.688742 210.97351,168.456954 211.311258,167.125828 L211.311258,167.125828 C212.284768,163.271523 214.390728,156.139073 217.668874,152.02649 C220.618214,151.398025 223.457372,150.33334 226.092715,148.86755 L226.211921,148.688742 Z" id="Path" fill="url(#linearGradient-2)"></path>
                <path d="M236.483444,102.15894 C234.723052,103.861193 232.652548,105.210056 230.384106,106.13245 C229.847682,104.145695 230.980132,103.350993 230.980132,103.350993 C232.152318,103.450331 233.701987,100.569536 233.205298,99.6754967 C232.708609,98.781457 231.715232,98.9602649 231.218543,99.4370861 C230.017664,98.4981328 229.261843,97.1016631 229.13245,95.5827815 C229.13245,94.7086093 230.582781,92.205298 227.662252,91.1324503 C225.350316,90.5264017 222.921207,90.5264017 220.609272,91.1324503 C220.410596,91.1324503 220.609272,89.4635762 220.609272,89.3642384 C220.900928,88.4892363 221.456103,87.7258706 222.198675,87.1788079 C223.199145,86.7992245 224.270581,86.6432559 225.337748,86.7218543 C226.827815,86.7218543 228.337748,86.5827815 229.827815,86.5827815 C231.352016,86.4908934 232.879104,86.7071183 234.317881,87.218543 C237.099787,88.721378 238.909804,91.5528151 239.10596,94.7086093 C239.142059,95.5245217 239.330747,96.3264425 239.662252,97.0728477 C240.039735,97.807947 240.754967,98.3443709 241.13245,99.0596026 C241.768212,100.370861 241.271523,101.980132 241.728477,103.350993 C242.528358,103.519996 243.289714,103.836666 243.97351,104.284768 C244.655482,104.764914 245.015069,105.583548 244.907285,106.410596 C245.455687,106.81284 245.876469,107.364686 246.119205,108 C246.222461,108.321609 246.186813,108.671719 246.020855,108.965916 C245.854898,109.260114 245.57369,109.471703 245.245033,109.549669 C245.866185,109.953135 246.422235,110.44889 246.89404,111.019868 C247.318101,111.589441 247.450489,112.324928 247.251656,113.006623 C246.803378,113.807857 246.051545,114.395003 245.165563,114.635762 C245.91541,114.874587 246.596822,115.290249 247.152318,115.847682 C247.678332,116.458674 247.678332,117.362518 247.152318,117.97351 C247.736387,117.783257 248.376665,117.892389 248.864731,118.265383 C249.352798,118.638377 249.626232,119.227528 249.596026,119.84106 C250.392581,119.601185 251.254097,119.719901 251.956087,120.166275 C252.658077,120.612649 253.131011,121.342469 253.251656,122.165563 C253.226011,123.214494 252.902116,124.23442 252.317881,125.10596 C251.940397,125.84106 251.463576,126.635762 250.649007,126.834437 C251.046358,127.430464 250.649007,128.245033 250.072848,128.821192 C249.496689,129.397351 249.298013,130.350993 248.701987,131.006623 C247.948688,131.671405 247.060995,132.166074 246.099338,132.456954 C244.100065,133.137153 241.96269,133.307869 239.880795,132.953642 C237.101263,132.636264 234.517599,131.365494 232.569536,129.357616 C229.748344,126.218543 229.370861,121.668874 228.596026,117.536424 C228.54808,117.027742 228.339308,116.547566 228,116.165563 C227.18543,115.390728 225.854305,116.006623 224.721854,115.986755 C222.735099,115.986755 221.463576,113.801325 221.403974,111.854305 C221.574957,109.910226 221.961434,107.991166 222.556291,106.13245 C223.136549,104.237269 222.6761,102.17657 221.344371,100.708609 C220.788079,100.231788 220.092715,99.9337748 219.516556,99.5165563 C216.874172,97.5298013 217.033113,93.2582781 219.278146,90.9139073 C221.732642,88.6972018 225.113056,87.8150324 228.337748,88.5496689 C230.900662,89.0066225 236.701987,90.4370861 237.89404,92.8013245 C239.086093,95.1655629 237.993377,100.05298 236.483444,102.15894 Z" id="Path" fill="#473F47"></path>
                <path d="M216.913907,114.437086 L204.536424,127.192053 L188.066225,118.509934 C186.030786,117.263678 183.677131,116.635577 181.291391,116.701987 C181.05298,116.701987 180.735099,116.84106 180.774834,117.07947 C180.81457,117.317881 181.112583,117.337748 181.152318,117.536424 C181.192053,117.735099 180.933775,117.874172 180.715232,117.933775 L176.741722,118.827815 C176.165563,118.94702 175.470199,119.225166 175.430464,119.821192 C175.472863,120.218737 175.691701,120.576172 176.02649,120.794702 C178.802997,122.783237 182.245771,123.610073 185.622517,123.099338 C185.952449,123.059587 186.285961,123.059587 186.615894,123.099338 C186.932644,123.175127 187.234715,123.302669 187.509934,123.476821 C188.781457,124.192053 190.013245,124.94702 191.205298,125.781457 C194.423841,128.066225 197.324503,130.788079 200.602649,132.993377 C201.267932,133.505256 202.055638,133.834038 202.887417,133.94702 C203.624221,133.924411 204.348224,133.748485 205.013245,133.430464 C209.741722,131.443709 214.589404,129.456954 218.18543,125.92053 C218.499182,125.626139 218.755223,125.275768 218.940397,124.887417 C219.077196,124.498224 219.144447,124.087996 219.139073,123.675497 C219.139073,121.94702 219.139073,120.218543 219.139073,118.490066 C219.156915,117.699877 218.986673,116.916763 218.642384,116.205298 C218.265319,115.483991 217.448697,115.108345 216.655629,115.291391" id="Path" fill="#A0685B"></path>
                <path d="M209.086093,127.986755 C208.684698,128.301156 208.243865,128.561648 207.774834,128.761589 C206.735118,129.087046 205.639587,129.195247 204.556291,129.07947 C202.915049,129.040043 201.273417,129.139738 199.649007,129.377483 C199.241197,129.399334 198.845216,129.522225 198.496689,129.735099 C198.14167,129.956553 197.972477,130.383565 198.07947,130.788079 C198.193624,131.002169 198.357062,131.186036 198.556291,131.324503 C199.781661,132.506422 201.30684,133.330844 202.966887,133.708609 C205.00858,133.728709 207.001946,133.087486 208.649007,131.880795 L212.264901,129.754967 C212.811075,129.492091 213.287549,129.104104 213.655629,128.622517 C214.152318,127.847682 214.271523,125.662252 213.039735,125.443709 C211.807947,125.225166 209.880795,127.311258 209.086093,127.986755 Z" id="Path" fill="#78433B"></path>
                <path d="M218.781457,111.238411 C219.019486,111.157061 219.266182,111.103721 219.516556,111.07947 C220.844977,111.067036 222.172662,111.146697 223.490066,111.317881 C225.258278,111.317881 227.02649,111.437086 228.774834,111.317881 C232.152318,111.317881 237.675497,110.880795 240.695364,114.536424 C243.715232,118.192053 242.225166,123.437086 240.89404,127.370861 C240.218543,129.357616 238.907285,131.046358 238.311258,132.953642 C237.755096,135.507745 237.694395,138.144866 238.13245,140.721854 C238.162247,141.285281 238.276087,141.841089 238.470199,142.370861 C238.927152,143.463576 239.980132,144.357616 240.298013,145.390728 C240.532426,146.631082 240.076151,147.901048 239.10596,148.708609 C238.137291,149.483115 237.032152,150.069377 235.847682,150.437086 C234.437086,150.993377 233.02649,151.529801 231.576159,151.966887 C226.896752,153.311365 221.97771,153.603115 217.172185,152.821192 C216.746019,152.833061 216.344016,152.62372 216.1094,152.267751 C215.874784,151.911782 215.840918,151.459804 216.019868,151.072848 C216.481527,147.373288 216.293267,143.621516 215.463576,139.986755 C214.728477,136.728477 212.821192,134.225166 212.205298,130.927152 C211.590147,128.569263 211.590147,126.092989 212.205298,123.735099 C212.324503,123.437086 212.761589,123.218543 212.801325,122.900662 C212.84106,122.582781 212.304636,121.768212 212.125828,121.390728 C211.541913,120.152621 211.076268,118.86212 210.735099,117.536424 C210.665454,117.330225 210.665454,117.106861 210.735099,116.900662 C210.820886,116.741571 210.943508,116.605325 211.092715,116.503311 C212.463576,115.390728 213.854305,114.278146 215.324503,113.284768 C216.381598,112.453275 217.543988,111.765194 218.781457,111.238411 L218.781457,111.238411 Z" id="Path" fill="#FFFFFF"></path>
                <path d="M230.423841,102.834437 C229.728477,105.059603 226.807947,108.993377 223.450331,108.07947 C224.254966,109.53142 224.154514,111.316371 223.192053,112.668874 C223.192053,112.668874 224.284768,115.430464 231.615894,111.337748 C231.615894,111.337748 229.629139,111.15894 230.18543,107.086093 C230.329546,105.664406 230.820766,104.299905 231.615894,103.112583 C231.441057,103.291777 231.18525,103.36651 230.941441,103.309622 C230.697633,103.252733 230.501317,103.072505 230.423841,102.834437 Z" id="Path" fill="#A0685B"></path>
                <path d="M230.086093,103.94702 C230.086093,103.94702 228.476821,110.801325 225.754967,110.523179 C223.033113,110.245033 223.192053,106.13245 223.192053,106.13245 L230.086093,103.94702 Z" id="Path" fill="#78433B"></path>
                <path d="M222.874172,87.1390728 C222.874172,87.1390728 218.423841,87.397351 217.092715,93.8543046 C216.629575,95.4102205 216.962567,97.0944232 217.982969,98.3570211 C219.00337,99.619619 220.580219,100.298566 222.198675,100.172185 L226.172185,88.986755 L222.874172,87.1390728 Z" id="Path" fill="#473F47"></path>
                <path d="M225.834437,108.397351 C221.860927,108.735099 219.357616,104.980132 218.900602,100.05298 C218.900602,99.5165563 218.900602,98.9801325 218.900602,98.4039735 C218.896824,96.8058603 219.076815,95.2126087 219.437086,93.6556291 C221.205298,86.1059603 231.953642,89.1258278 231.953642,89.1258278 C240.298013,92.9205298 232.847682,107.821192 225.834437,108.397351 Z" id="Path" fill="#A0685B"></path>
                <path d="M222.953642,88.9668874 C224.006623,92.602649 225.397351,97.7880795 228.913907,99.794702 C229.398051,100.113144 229.963593,100.285565 230.543046,100.291391 C231.099338,100.192053 231.039735,99.7549669 231.456954,99.3774834 C231.737619,99.0930133 232.165882,99.0137054 232.529801,99.1788079 C232.830773,99.4101722 233.001063,99.7729653 232.986755,100.152318 C232.975589,101.058764 232.503949,101.897235 231.735099,102.377483 C231.380421,102.538105 231.041248,102.730968 230.721854,102.953642 C230.366155,103.300788 230.153492,103.768648 230.125828,104.264901 C230.000003,105.630069 230.683568,106.942825 231.874172,107.622517 C231.952464,107.641872 232.034291,107.641872 232.112583,107.622517 C232.216303,107.605766 232.309167,107.548619 232.370861,107.463576 L233.960265,106.013245 C234.696315,105.362743 235.3622,104.636928 235.94702,103.847682 C236.67319,102.765778 237.066854,101.495004 237.07947,100.192053 C237.07947,99.5960265 236.84106,99 236.84106,98.4238411 C236.953371,97.6809509 237.153446,96.9540136 237.437086,96.2582781 C237.800132,95.3624403 237.982437,94.4036512 237.97351,93.4370861 C237.653932,91.5812522 236.410823,90.016132 234.675497,89.2847682 C231.897175,88.1342646 228.897082,87.6184116 225.89404,87.7748344 C225.301092,87.734058 224.706076,87.8151965 224.145695,88.013245 C223.649007,88.2516556 223.430464,88.7880795 222.953642,88.9668874 Z" id="Path" fill="#473F47"></path>
                <path d="M230.086093,134.84106 L233.165563,141.615894 C237.17939,136.46412 240.271372,130.656572 242.304636,124.450331 C244.509934,116.503311 240.596026,114.516556 240.596026,114.516556 C237.615894,113.423841 235.589404,117.675497 232.649007,126.278146 C231.039735,131.086093 230.086093,134.84106 230.086093,134.84106 Z" id="Path" fill="#A0685B"></path>
                <path d="M243.496689,117.298013 C243.966284,118.738056 244.285861,120.222757 244.450331,121.728477 L244.728477,123.715232 C244.848791,124.130535 244.848791,124.571452 244.728477,124.986755 C244.390728,125.701987 243.039735,125.403974 242.364238,125.523179 L238.768212,126.07947 C236.364238,126.456954 233.980132,126.81457 231.576159,127.152318 C231.407149,125.926327 231.407149,124.682944 231.576159,123.456954 C231.794702,122.304636 232.291391,121.231788 232.569536,120.07947 C232.847682,118.927152 232.887417,118.092715 233.125828,117.278146 C233.636563,115.336975 234.792642,113.627378 236.403974,112.430464 C238.94702,110.582781 242.642384,115.05298 243.417219,117.059603 C243.438651,117.14067 243.465194,117.2203 243.496689,117.298013 Z" id="Path" fill="#FFFFFF"></path>
                <polygon id="Path" fill="#FFFFFF" points="198.854305 217.172185 81.615894 217.172185 81.615894 40.2715232 174.178808 40.2715232 198.854305 65.8211921"></polygon>
                <polygon id="Path" fill="#FFFFFF" points="174.178808 40.2715232 198.854305 65.8211921 174.337748 65.8211921"></polygon>
                <polygon id="Path" fill="#DDDDDD" points="174.178808 40.2715232 198.854305 65.8211921 174.337748 65.8211921"></polygon>
                <g id="Group" opacity="0.41" transform="translate(93.377483, 131.125828)" fill="#DDDDDD">
                    <rect id="Rectangle" x="1.56953642" y="0.894039735" width="18.4370861" height="16.0529801"></rect>
                </g>
                <rect id="Rectangle" fill="#DDDDDD" x="113.225166" y="119.523179" width="18.4370861" height="28.5496689"></rect>
                <g id="Group" opacity="0.5" transform="translate(131.125828, 105.298013)" fill="#DDDDDD">
                    <rect id="Rectangle" x="0.377483444" y="1.05298013" width="18.4370861" height="41.7218543"></rect>
                </g>
                <rect id="Rectangle" fill="#DDDDDD" x="149.801325" y="93.5165563" width="18.4370861" height="54.5562914"></rect>
                <rect id="Rectangle" fill="#DDDDDD" x="168.07947" y="80.5827815" width="18.4370861" height="67.4900662"></rect>
                <rect id="Rectangle" fill="url(#linearGradient-3)" x="168.07947" y="80.5827815" width="18.4370861" height="67.4900662"></rect>
                <path d="M173.880795,112.092715 C173.880795,112.092715 180.596026,103.172185 189.298013,108.476821 C198,113.781457 191.84106,124.529801 191.84106,124.529801 L198.496689,117.019868 C198.496689,117.019868 198.357616,107.423841 193.390728,104.264901 C188.423841,101.10596 179.483444,101.364238 179.483444,101.364238 L173.900662,109.072848 L173.880795,112.092715 Z" id="Path" fill="url(#linearGradient-4)"></path>
                <path d="M168.97351,115.350993 C167.121168,121.243149 169.881038,127.60101 175.450331,130.271523 C180.11256,132.610994 185.546447,132.870782 190.410596,130.986755 L197.304636,137.92053 L198.794702,140.423841 L198.556291,131.18543 L193.390728,123.516556 C193.390728,123.516556 175.509934,135.81457 171.536424,112.807947 C171.476821,112.847682 169.649007,112.251656 168.97351,115.350993 Z" id="Path" fill="url(#linearGradient-5)"></path>
                <path d="M208.410596,136.172185 C209.243557,137.021976 209.243557,138.381998 208.410596,139.231788 L208.410596,139.231788 C207.560806,140.064749 206.200784,140.064749 205.350993,139.231788 L191.821192,126.258278 C190.990597,125.415251 190.990597,124.06157 191.821192,123.218543 L191.821192,123.218543 C192.224565,122.808404 192.775733,122.577413 193.350993,122.577413 C193.926253,122.577413 194.477421,122.808404 194.880795,123.218543 L208.410596,136.172185 Z" id="Path" fill="#DDDDDD"></path>
                <path d="M183.89404,100.43045 C177.857447,100.422425 172.410786,104.052595 170.09511,109.627374 C167.779435,115.202153 169.051063,121.622995 173.316738,125.894357 C177.582412,130.165719 184.001554,131.445902 189.579413,129.137656 C195.157273,126.82941 198.794702,121.387591 198.794702,115.350993 C198.794702,107.118365 192.126661,100.441426 183.89404,100.43045 Z M183.89404,126.496689 C177.738442,126.496689 172.748344,121.506591 172.748344,115.350993 C172.748344,109.195396 177.738442,104.205298 183.89404,104.205298 C190.049637,104.205298 195.039735,109.195396 195.039735,115.350993 C195.0288,121.502056 190.045102,126.485753 183.89404,126.496689 L183.89404,126.496689 Z" id="Shape" fill="#DDDDDD"></path>
                <path d="M183.89404,100.43045 C177.857447,100.422425 172.410786,104.052595 170.09511,109.627374 C167.779435,115.202153 169.051063,121.622995 173.316738,125.894357 C177.582412,130.165719 184.001554,131.445902 189.579413,129.137656 C195.157273,126.82941 198.794702,121.387591 198.794702,115.350993 C198.794702,107.118365 192.126661,100.441426 183.89404,100.43045 Z M183.89404,126.496689 C177.738442,126.496689 172.748344,121.506591 172.748344,115.350993 C172.748344,109.195396 177.738442,104.205298 183.89404,104.205298 C190.049637,104.205298 195.039735,109.195396 195.039735,115.350993 C195.0288,121.502056 190.045102,126.485753 183.89404,126.496689 L183.89404,126.496689 Z" id="Shape" fill="url(#linearGradient-6)"></path>
                <path d="M185.006623,99.3576159 C176.766241,99.3576159 170.086093,106.037765 170.086093,114.278146 C170.086093,122.518527 176.766241,129.198675 185.006623,129.198675 C193.247004,129.198675 199.927152,122.518527 199.927152,114.278146 C199.927152,110.320975 198.355172,106.52588 195.55703,103.727738 C192.758888,100.929596 188.963793,99.3576159 185.006623,99.3576159 L185.006623,99.3576159 Z M185.006623,125.423859 C180.486968,125.431876 176.40825,122.714423 174.67494,118.54034 C172.941629,114.366256 173.895644,109.558934 177.091527,106.363051 C180.287411,103.167167 185.094733,102.213152 189.268816,103.946463 C193.4429,105.679774 196.160353,109.758491 196.152336,114.278146 C196.152336,120.433743 191.16222,125.423859 185.006623,125.423859 L185.006623,125.423859 Z" id="Shape" fill="#DDDDDD"></path>
                <path d="M233.165563,141.615894 C233.165563,141.615894 233.284768,136.112583 230.602649,135.019868 C227.92053,133.927152 209.145695,131.046358 209.145695,131.046358 L207.397351,133.033113 C207.397351,133.033113 225.81457,143.642384 233.165563,141.615894 Z" id="Path" fill="#A0685B"></path>
                <path d="M207.139073,130.549669 C206.694448,130.460063 206.256369,130.340587 205.827815,130.192053 L202.271523,128.92053 C202.112583,128.92053 201.89404,128.92053 201.774834,128.92053 C201.737301,129.009446 201.737301,129.109759 201.774834,129.198675 C201.774834,129.735099 202.271523,130.13245 202.609272,130.549669 C202.609272,130.549669 202.748344,130.768212 202.708609,130.887417 C202.668874,131.006623 202.470199,131.086093 202.291391,131.086093 C200.511602,131.195106 198.726809,131.195106 196.94702,131.086093 C196.719084,131.026329 196.479591,131.026329 196.251656,131.086093 C196.024273,131.169262 195.889988,131.404261 195.933775,131.642384 C196.001616,131.780618 196.113422,131.892424 196.251656,131.960265 C196.692903,132.237239 197.186706,132.419878 197.701987,132.496689 C197.216726,132.696041 196.696792,132.797326 196.172185,132.794702 C196.222112,133.144005 196.44686,133.44367 196.768212,133.589404 C197.093474,133.711346 197.434848,133.784976 197.781457,133.807947 C197.409233,133.992214 197.003956,134.100288 196.589404,134.125828 C196.490066,134.403974 196.748344,134.662252 196.986755,134.84106 C198.262205,135.731062 199.782514,136.203122 201.337748,136.192053 C202.942995,136.526843 204.600052,136.526843 206.205298,136.192053 C207.373232,135.487389 208.587986,134.863417 209.84106,134.324503 C210.066711,134.300358 210.284017,134.225659 210.476821,134.10596 C210.654111,133.956691 210.779349,133.754919 210.834437,133.529801 C211.350993,131.821192 210.218543,131.066225 208.708609,130.768212 L207.139073,130.549669 Z" id="Path" fill="#A0685B"></path>
                <rect id="Rectangle" fill="#DDDDDD" x="98.8609272" y="161.384106" width="84.5364238" height="5.30463576"></rect>
                <rect id="Rectangle" fill="#DDDDDD" x="98.8609272" y="174.754967" width="84.5364238" height="5.30463576"></rect>
                <rect id="Rectangle" fill="#DDDDDD" x="98.8609272" y="188.145695" width="84.5364238" height="5.30463576"></rect>
                <rect id="Rectangle" fill="#DDDDDD" x="98.8609272" y="201.516556" width="84.5364238" height="5.30463576"></rect>
            </g>
        </g>
    </g>
</svg>