<?xml version="1.0" encoding="UTF-8"?>
<svg width="447px" height="366px" viewBox="0 0 447 366" version="1.1" xmlns="http://www.w3.org/2000/svg" xmlns:xlink="http://www.w3.org/1999/xlink">
    <title>Illustration 13</title>
    <defs>
        <linearGradient x1="53.3194508%" y1="47.3164823%" x2="46.0225493%" y2="53.1965955%" id="linearGradient-1">
            <stop stop-color="#000000" offset="1%"></stop>
            <stop stop-color="#000000" stop-opacity="0.69" offset="8%"></stop>
            <stop stop-color="#000000" stop-opacity="0.32" offset="21%"></stop>
            <stop stop-color="#000000" stop-opacity="0" offset="100%"></stop>
        </linearGradient>
        <linearGradient x1="55.4288715%" y1="35.892563%" x2="43.512609%" y2="66.9912381%" id="linearGradient-2">
            <stop stop-color="#000000" offset="1%"></stop>
            <stop stop-color="#000000" stop-opacity="0.69" offset="8%"></stop>
            <stop stop-color="#000000" stop-opacity="0.32" offset="21%"></stop>
            <stop stop-color="#000000" stop-opacity="0" offset="100%"></stop>
        </linearGradient>
        <linearGradient x1="-14.3086593%" y1="54.0464825%" x2="183.67438%" y2="41.8657439%" id="linearGradient-3">
            <stop stop-color="#000000" offset="1%"></stop>
            <stop stop-color="#000000" stop-opacity="0.69" offset="8%"></stop>
            <stop stop-color="#000000" stop-opacity="0.32" offset="21%"></stop>
            <stop stop-color="#000000" stop-opacity="0" offset="100%"></stop>
        </linearGradient>
        <linearGradient x1="51.1731411%" y1="59.3802332%" x2="45.8952155%" y2="17.2530617%" id="linearGradient-4">
            <stop stop-color="#000000" offset="1%"></stop>
            <stop stop-color="#000000" stop-opacity="0.69" offset="8%"></stop>
            <stop stop-color="#000000" stop-opacity="0.32" offset="21%"></stop>
            <stop stop-color="#000000" stop-opacity="0" offset="100%"></stop>
        </linearGradient>
        <linearGradient x1="51.0183349%" y1="40.037421%" x2="46.4612259%" y2="84.5457183%" id="linearGradient-5">
            <stop stop-color="#000000" offset="1%"></stop>
            <stop stop-color="#000000" stop-opacity="0.69" offset="8%"></stop>
            <stop stop-color="#000000" stop-opacity="0.32" offset="21%"></stop>
            <stop stop-color="#000000" stop-opacity="0" offset="100%"></stop>
        </linearGradient>
        <linearGradient x1="70.8772198%" y1="45.1742724%" x2="20.1148794%" y2="56.9385555%" id="linearGradient-6">
            <stop stop-color="#000000" offset="1%"></stop>
            <stop stop-color="#000000" stop-opacity="0.69" offset="8%"></stop>
            <stop stop-color="#000000" stop-opacity="0.32" offset="21%"></stop>
            <stop stop-color="#000000" stop-opacity="0" offset="100%"></stop>
        </linearGradient>
    </defs>
    <g id="DESIGN-SYSTEM" stroke="none" stroke-width="1" fill="none" fill-rule="evenodd">
        <g id="Illustrations" transform="translate(-106.000000, -2053.000000)" fill-rule="nonzero">
            <g id="Illustration-13" transform="translate(106.000000, 2053.000000)">
                <path d="M2.40838054,264.446181 C4.84440767,279.429946 19.7254965,349.117374 74.0805635,363.907384 C115.221637,375.125833 230.697077,336.65889 296.534426,356.008615 C428.965132,394.914737 453.222017,290.448181 445.797627,262.230908 C440.628339,242.564716 434.276576,222.833938 434.108574,202.295845 C433.93411,180.80835 441.461886,159.669615 442.288972,138.046491 C444.369611,83.2847027 405.877798,29.5433602 353.357828,13.8233232 C330.871424,7.10000421 312.494604,0.260431834 289.032496,0.0473006837 C241.416889,-0.359586058 128.416246,0.0473006837 72.7559333,80.9725527 C62.8115149,95.4396368 48.3633539,106.257657 37.2687688,119.8593 C22.4070648,138.085242 12.6048018,160.063585 6.6536586,182.810491 C-0.260264569,209.348549 -1.97905294,237.456027 2.40838054,264.446181 Z" id="Path" fill="#DDDDDD" opacity="0.18"></path>
                <rect id="Rectangle" fill="#DDDDDD" x="343" y="187" width="4" height="95"></rect>
                <rect id="Rectangle" fill="#BCDBF2" x="343" y="187" width="4" height="95"></rect>
                <path d="M219.363064,275.893405 L293.079619,278.727876 C296.545975,278.862851 300.180163,279.017108 303.065565,279.711264 C307.706739,280.829627 308.984837,283.111345 307.274251,284.917436 C305.563666,286.723528 301.464715,288.131123 297.139839,289.281623 C270.299783,296.454571 232.666901,296.287459 198.125983,295.798979 L35.1943235,293.517262 C28.9071147,293.427278 22.4068896,293.32444 16.7006344,292.360334 C10.9943792,291.396228 6.28865522,289.333042 7.08908016,287.218436 C7.81204462,285.290224 12.6016842,283.914766 17.4171438,282.944233 C31.553681,280.096907 48.3303295,279.190647 64.7003104,278.380798 C89.5177868,277.146743 114.386903,276.01981 139.30766,275" id="Path" fill="url(#linearGradient-1)"></path>
                <path d="M407.164196,278 L433.623344,280.031446 C434.878888,280.02421 436.11561,280.334926 437.216962,280.93431 C438.884037,282.043544 439.351078,284.397442 438.747817,286.299907 C438.144556,288.202372 436.685054,289.711446 435.128252,290.975456 C425.527973,298.772339 412.022715,299.068994 399.626679,298.991606 L341.142816,298.636909 C338.885453,298.636909 336.55025,298.598215 334.500461,297.663105 C332.450672,296.727995 330.751163,294.638508 331.03009,292.413591 C331.28307,290.407941 332.976092,288.911766 334.721008,287.834777 C339.780615,284.700546 345.800249,283.546169 351.67069,282.494977 C360.570408,280.899916 369.489587,279.416638 378.428225,278.045143" id="Path" fill="url(#linearGradient-2)"></path>
                <rect id="Rectangle" fill="#FFFFFF" x="281" y="85" width="125" height="115"></rect>
                <rect id="Rectangle" fill="#DDDDDD" opacity="0.18" x="345" y="100" width="53" height="90"></rect>
                <rect id="Rectangle" fill="#FFFFFF" x="350" y="109" width="46" height="43"></rect>
                <rect id="Rectangle" fill="#DDDDDD" x="277" y="82" width="131" height="5"></rect>
                <rect id="Rectangle" fill="#DDDDDD" x="277" y="198" width="131" height="5"></rect>
                <rect id="Rectangle" fill="#4C506D" transform="translate(136.500000, 262.000000) rotate(-180.000000) translate(-136.500000, -262.000000) " x="135" y="249" width="3" height="26"></rect>
                <rect id="Rectangle" fill="#4C506D" transform="translate(139.000000, 276.000000) rotate(-180.000000) translate(-139.000000, -276.000000) " x="123" y="274" width="32" height="4"></rect>
                <rect id="Rectangle" fill="#2F3554" transform="translate(139.000000, 276.000000) rotate(-180.000000) translate(-139.000000, -276.000000) " x="123" y="274" width="32" height="4"></rect>
                <rect id="Rectangle" fill="#4C506D" transform="translate(135.500000, 244.000000) rotate(180.000000) translate(-135.500000, -244.000000) " x="122" y="239" width="27" height="10" rx="5"></rect>
                <rect id="Rectangle" fill="#2F3554" transform="translate(141.500000, 244.000000) rotate(-180.000000) translate(-141.500000, -244.000000) " x="128" y="239" width="27" height="10" rx="5"></rect>
                <path d="M114,203.011744 L114,211.994583 C114,215.311283 116.689528,218 120.007227,218 L128.98645,218 C132.305174,218 134.99651,215.312306 135,211.994583 L135,203.011744 C135,199.691552 132.307642,197 128.98645,197 L120.007227,197 C119.738516,196.999627 119.470128,197.018641 119.204156,197.056899 C116.222561,197.45898 113.998331,200.00405 114,203.011744 L114,203.011744 Z" id="Path" fill="#4C506D"></path>
                <path d="M116.190906,212.308299 C116.315491,213.273815 116.673562,214.195719 117.234991,214.996444 C118.912051,217.260146 122.174815,217.536678 125.01342,217.607418 C127.127691,217.658866 134.501538,219.221592 133.97297,215.729575 C133.692372,213.896749 132.576507,211.948165 132.015312,210.179648 C131.454116,208.411131 130.26647,206.128137 130.26647,204.340327 C129.873734,202.642788 129.345703,200.978433 128.687292,199.362756 C128.312469,198.519108 127.830041,197.725993 127.251676,197.00259 L119.812574,197.00259 C119.552619,196.990478 119.292424,197.020902 119.042562,197.092624 C119.342736,199.549254 117.691778,201.285616 116.784729,203.43356 C115.969038,205.362851 115.982089,207.47864 116.008191,209.542982 C116.003937,210.467815 116.064989,211.391819 116.190906,212.308299 L116.190906,212.308299 Z" id="Path" fill="#2F3554"></path>
                <path d="M129.243758,212.686671 C129.732971,213.7425 130.116134,214.844487 130.387587,215.976347 C130.633155,217.362155 131.033819,218.715585 131.298773,220.107869 C131.783941,222.906767 132.015374,225.743916 131.990241,228.584613 C131.990241,229.704916 131.990241,230.974161 132.791568,231.75125 C133.380872,232.220964 134.091389,232.512949 134.840122,232.593096 C136.294142,232.884504 137.605992,233.460845 139.05355,233.706923 C140.63261,233.934595 142.227868,234.029903 143.822738,233.991856 C148.527303,233.991856 157.283738,233.467321 156.992934,226.868542 C156.676281,219.395538 156.094673,212.129758 155.05424,204.682657 C154.698813,202.189497 154.627727,199.314268 153.871636,196.911769 C153.225405,194.897814 150.89251,194.878386 148.947353,195.08561 L148.579001,195.124464 C148.204187,195.163319 147.829373,195.208649 147.461021,195.260455 C144.870035,195.526876 142.263046,195.602629 139.661008,195.487106 C136.727117,195.396445 132.04194,195.105037 129.159747,197.870178 C128.959268,198.060556 128.771459,198.263899 128.597526,198.478898 C125.695947,201.988749 127.259827,207.674448 129.243758,212.686671 Z" id="Path" fill="#FFFFFF"></path>
                <path d="M167.594282,210.857683 C167.852508,212.408049 167.98518,213.9755 167.99109,215.545785 C168.035422,216.095415 167.913661,216.645659 167.640576,217.129776 C167.137953,217.870675 166.086412,218.017577 165.16714,217.998416 C162.269196,217.969488 159.497502,216.848805 157.44261,214.875144 C155.526206,213.03688 153.774021,211.045553 152.204744,208.922404 C151.324087,207.921996 150.897423,206.621367 151.020934,205.313715 C151.020934,203.531725 151.093682,201.743349 151.259019,199.967746 C151.298699,199.552587 154.268146,199.878327 154.565752,199.967746 C155.674599,200.274502 156.732408,200.732607 157.707149,201.32819 C157.819578,200.159358 157.475678,198.824462 157.376476,197.636469 C157.310166,197.285094 157.353917,196.922603 157.502131,196.595378 C157.839418,196.014156 158.679329,195.956672 159.373743,196.020543 C160.861773,196.122736 162.508526,196.365444 163.434411,197.489567 C163.825693,198.021677 164.116734,198.616265 164.294162,199.246008 C165.630082,203.033535 166.959389,206.904093 167.594282,210.857683 Z" id="Path" fill="#FFFFFF"></path>
                <path d="M162.919377,212.013122 C163.070205,212.595256 163.008113,213.211082 162.743984,213.752664 C162.09438,214.724762 160.60029,214.392202 159.541436,213.918944 C158.12304,213.248879 156.772323,212.44801 155.507394,211.527073 C155.294772,211.321679 155.006111,211.210777 154.708381,211.220095 C154.493619,211.288454 154.306872,211.422981 154.175705,211.603818 C152.199047,213.745838 149.786509,215.454205 147.09502,216.617794 C146.179078,217.014307 144.970815,217.257331 144.308218,216.547444 C143.645622,215.837557 144.171802,214.507319 144.756445,213.618361 L151.720202,203.027616 C151.800047,202.87279 151.930462,202.7489 152.090476,202.67587 C152.356814,202.586335 152.623151,202.784592 152.837521,202.963662 C153.796492,203.779246 154.860112,204.467303 156.001093,205.010183 C156.402056,205.25554 156.883304,205.340227 157.345774,205.246812 C157.995378,205.029369 158.216243,204.249133 158.300692,203.584014 C158.438144,202.476552 158.468596,201.358751 158.391636,200.245627 C158.317075,199.786365 158.348154,199.316485 158.482581,198.870621 C158.674224,198.477611 159.026579,198.183373 159.451695,198.061353 C159.87681,197.939333 160.334575,198.001045 160.710723,198.231083 C161.568201,198.870621 161.431784,201.288074 161.574697,202.317729 L162.919377,212.013122 Z" id="Path" fill="#D8DAE1"></path>
                <path d="M138.74851,212.650806 C139.373213,213.784139 140.214689,214.785314 141.225675,215.598098 C142.351659,216.467582 144.957508,219.887976 146.572491,218.845874 C145.862491,219.464026 145.026179,219.922052 144.121063,220.188459 C146.617531,221.933819 149.763852,222.400527 152.762187,222.95674 C153.542576,223.053896 154.295307,223.306109 154.97555,223.698359 C155.666245,224.103756 156.061563,224.866986 155.992153,225.661089 C155.77339,227.003674 154.061894,227.406449 152.684977,227.489562 C149.319893,227.694146 145.935506,227.764472 142.589725,228.17364 C139.739376,228.518876 136.670265,229.260494 134.91373,231.517315 C134.789462,231.713733 134.613753,231.872854 134.405428,231.97763 C134.039047,232.066556 133.660806,231.884007 133.504641,231.542888 C133.361907,231.20562 133.298106,230.840552 133.318049,230.475214 C133.264413,227.697881 132.831513,224.940644 132.03121,222.279055 C131.709501,221.204987 131.670895,220.11174 131.35562,219.082425 C130.969568,217.803773 130.268241,216.608233 129.830716,215.348761 C128.956799,212.80602 128.367728,210.17528 128.07418,207.504232 C127.868286,205.631007 128.003404,203.367793 129.624821,202.389624 C130.877287,201.751376 132.390684,201.906766 133.485338,202.786006 C134.539952,203.658499 135.354615,204.782532 135.853122,206.052962 C136.824686,208.20749 137.558184,210.617749 138.74851,212.650806 Z" id="Path" fill="#D8DAE1"></path>
                <path d="M145.552625,199.867383 C145.454657,199.98762 145.38159,200.125825 145.33761,200.274081 C145.328493,200.436898 145.362168,200.599272 145.435344,200.745335 C146.934378,204.752517 148.136437,208.862685 149.031953,213.043131 C149.905043,216.70342 150.784649,220.389531 150.986632,224.153109 C151.016322,224.425534 150.996461,224.701027 150.927992,224.966506 C150.641306,225.896103 149.416374,226.186602 148.882095,227 L147.103337,224.992328 C146.989602,224.87547 146.89703,224.740077 146.829682,224.592085 C146.780807,224.379625 146.780807,224.158992 146.829682,223.946532 C147.435632,219.924733 146.771041,215.825467 145.819764,211.874679 C145.005315,208.479067 143.969335,205.077 144.034491,201.584555 C144.103437,201.163653 143.987227,200.733643 143.715226,200.403192 C143.533421,200.283019 143.336203,200.18749 143.128823,200.119148 C142.64253,199.894551 142.270796,199.48178 142.10076,198.977594 C141.930724,198.473409 141.977336,197.92214 142.22967,197.453012 C142.606896,197.449632 142.977802,197.356654 143.311259,197.18188 C143.647119,197.005957 144.035626,196.95555 144.40588,197.039858 C145.207298,197.343268 146.021748,199.099174 145.552625,199.867383 Z" id="Path" fill="#DDDDDD"></path>
                <path d="M129,198 C131.819967,195.320055 136.403993,195.602485 139.274542,195.690352 C141.820404,195.802315 144.371109,195.728896 146.906156,195.470684 C147.266556,195.420474 147.633278,195.376541 148,195.338883 C146.488852,194.711262 144.339101,195.138044 142.720466,195.188254 C140.271436,195.267753 137.824515,195.41629 135.3797,195.633866 C133.059235,195.840981 130.504825,196.236383 129,198 Z" id="Path" fill="#FFFFFF"></path>
                <path d="M138.128713,188 C139.135798,190.572915 141.987693,191.956305 144.683168,191.179418 C144.683168,191.179418 143.442244,194.896293 145,197.143255 C145,197.143255 143.963696,199.733412 137,195.906455 C137,195.906455 138.881188,195.751045 138.366337,191.96294 C138.215167,190.657893 137.746569,189.407584 137,188.317294 C137.169312,188.494231 137.425259,188.563439 137.663067,188.496589 C137.900874,188.429738 138.080616,188.238052 138.128713,188 Z" id="Path" fill="#D68369"></path>
                <path d="M141.524862,192.783311 C145.057811,193.848423 147.937449,190.867408 149.244069,186.464077 C149.383611,185.983478 149.504125,185.483395 149.60561,184.970322 C149.903965,183.505779 150.03382,182.010503 149.992522,180.515035 C149.802237,173.293054 139.660075,174.020448 139.660075,174.020448 C131.452471,175.903878 135.378674,190.938848 141.524862,192.783311 Z" id="Path" fill="#EC9C7D"></path>
                <path d="M163.268293,237.237762 L163,237 C164.065041,238.027972 164.780488,238.769231 165,239 C164.463415,238.391608 163.878049,237.804196 163.268293,237.237762 Z" id="Path" fill="#DC9BD5"></path>
                <path d="M146.755815,172.379202 C148.062979,172.705953 149.204667,173.510669 149.961249,174.638544 C150.352311,175.229348 150.602335,175.898062 151.07674,176.449912 C151.717826,177.235488 152.666635,177.800324 153,178.761193 C151.382213,179.024287 149.724221,178.719627 148.300834,177.897709 C148.064996,178.298213 147.639384,178.544512 147.178932,178.546945 C146.725469,178.540721 146.276492,178.455055 145.851882,178.293743 C145.618728,178.195195 145.361084,178.172506 145.114632,178.22882 C144.929538,178.312356 144.763618,178.433956 144.627406,178.585899 C143.774435,179.32246 142.609277,179.567267 141.537368,179.235136 C140.896281,179.040365 140.255194,178.644331 139.658984,178.845594 C139.062773,179.046857 138.67171,179.929818 138.67171,180.67644 C138.761969,181.417507 138.742522,182.168066 138.614012,182.90332 C138.165251,182.981228 138.075499,182.254084 137.678025,181.981405 C137.280552,181.708725 136.90231,182.05282 136.697163,182.396916 C136.351982,183.003981 136.426735,183.766235 136.883078,184.292685 C137.020129,184.409178 137.125965,184.558785 137.190799,184.727673 C137.216908,184.899052 137.187677,185.074387 137.107458,185.227585 L136.415084,187 C135.459495,184.779153 134.316247,182.646057 132.998092,180.624501 C132.446757,179.812956 131.80567,178.884548 132.055694,177.930171 C132.305718,176.975794 133.337868,176.274619 133.107076,175.333226 C133.046987,175.160698 132.995633,174.985176 132.953216,174.807345 C132.932265,174.54165 132.987943,174.27551 133.113487,174.041246 C134.086338,172.111715 135.871498,170.733735 137.966514,170.295154 C140.038652,169.882824 142.17205,169.902706 144.236343,170.353585 C146.313465,170.717157 148.364942,171.243038 150.467707,171.405348 C150.640801,171.405348 150.839537,171.450794 150.916468,171.606611 C150.938916,171.682861 150.938916,171.764086 150.916468,171.840336 C150.833127,172.294801 150.410009,172.599942 150.070233,172.918068 C149.730457,173.236193 149.429146,173.74909 149.67917,174.145124" id="Path" fill="#2F3554"></path>
                <path d="M139,229.217675 C139,229.217675 143.409274,240.050213 146.952325,241.189807 C150.495376,242.3294 163.599453,246.253954 163.599453,246.253954 L181.835743,280 L189,275.665704 L172.912987,236.189681 L158.636577,229 C158.636577,229 154.982806,229.102435 139,229.217675 Z" id="Path" fill="#2F3554"></path>
                <path d="M132.083759,231.197141 C132.083759,231.197141 131.257013,241.095672 134.798353,242.237564 C138.339692,243.379455 151.430931,247.318339 151.430931,247.318339 L170.908299,284 L179,280.79244 L160.772517,237.240184 L146.509511,230.036004 C146.509511,230.036004 138.222516,227.059388 132.083759,231.197141 Z" id="Path" fill="#4C506D"></path>
                <path d="M190.958288,277.301658 C191.914358,277.324527 192.867264,277.411726 193.80922,277.562543 C194.691155,277.647158 195.529115,277.956239 196.227183,278.454408 C196.622897,278.768691 196.88853,279.196916 196.979883,279.667829 C197.060538,280.145792 196.896047,280.631043 196.533592,280.984392 C196.195778,281.253577 195.794732,281.448673 195.361246,281.5547 C194.355427,281.882324 193.362929,282.197813 192.337127,282.51937 C190.203015,283.291026 187.960982,283.78726 185.676071,283.993677 C185.541538,284.008935 185.40496,283.996495 185.276408,283.957274 C185.178123,283.909048 185.088315,283.847698 185.009965,283.775261 C183.637788,282.56184 182.345543,281.117868 182.01249,279.39481 C181.995837,279.337142 181.995837,279.276531 182.01249,279.218863 C182.045247,279.151678 182.101445,279.096226 182.172356,279.061119 C183.552459,278.211429 185.069352,277.562572 186.668568,277.137846 C188.134001,276.761685 189.472873,277.271322 190.958288,277.301658 Z" id="Path" fill="#2F3554"></path>
                <path d="M180.964441,281.289782 C181.920436,281.312999 182.873264,281.400349 183.815215,281.551123 C184.696491,281.638111 185.533757,281.947493 186.233045,282.444545 C186.628849,282.758393 186.892601,283.188156 186.979042,283.660085 C187.061741,284.139018 186.896986,284.625922 186.532776,284.978946 C186.195805,285.249688 185.794488,285.445267 185.360495,285.55025 C184.354731,285.878446 183.362288,286.194486 182.336542,286.510527 C180.204341,287.289774 177.961768,287.789068 175.675854,287.993486 C175.539134,288.009068 175.400325,287.99661 175.269552,287.957019 C175.173294,287.908666 175.085695,287.84718 175.009785,287.774688 C173.637684,286.559148 172.34551,285.112655 172.012476,283.386588 C171.995841,283.326759 171.995841,283.264087 172.012476,283.204257 C172.049433,283.141159 172.104747,283.088584 172.172332,283.052315 C173.553052,282.202255 175.069665,281.552349 176.668297,281.125684 C178.140309,280.767099 179.472446,281.289782 180.964441,281.289782 Z" id="Path" fill="#2F3554"></path>
                <path d="M127.111197,203.063873 C127.111197,203.063873 133.228112,216.991427 139.710119,218.872298 C146.192127,220.753168 154,201.235068 154,201.235068 L148.799021,199.243558 L140.068807,208.159796 C140.068807,208.159796 134.656459,196.48408 132.459494,197.017753 C130.262529,197.551425 126.284933,200.668855 127.111197,203.063873 Z" id="Path" fill="#FFFFFF"></path>
                <path d="M156,191.270582 C156.065669,191.81448 156.281895,192.326348 156.622009,192.743047 C157.019206,193.614942 157.281646,194.547395 157.399519,195.505547 C157.5397,196.467022 157.907505,197.376422 158.469374,198.150771 C159.064939,198.926704 160.073156,199.206563 160.957409,198.841396 C161.525525,198.49003 161.903228,197.879696 161.977503,197.193017 C162.041891,196.513361 161.967685,195.827132 161.7598,195.17978 C161.534405,194.330037 161.225914,193.50692 160.839227,192.723501 C160.495759,191.977609 160.011152,191.312618 159.414828,190.768902 C158.550235,189.993578 156.118182,189.329014 156,191.270582 Z" id="Path" fill="#D68369"></path>
                <path d="M153.52746,192.690114 C153.854295,192.093887 154.338718,191.600785 154.926848,191.265654 C155.487906,191.046586 156.091565,190.961218 156.690727,191.016209 C157.862307,191.016209 159.229151,191.232832 159.788906,192.263432 C160.142957,193.102362 160.047202,194.06561 159.535064,194.816957 C159.085958,195.584984 158.448098,196.228288 157.985974,196.996315 C157.335096,198.085994 157.022675,199.451375 156.03334,200.245659 C155.613939,200.571047 155.126409,200.795564 154.607917,200.902092 C152.889599,201.302516 150.64407,200.475411 151.047615,198.407646 C151.538212,196.370845 152.37741,194.435989 153.52746,192.690114 Z" id="Path" fill="#EC9C7D"></path>
                <rect id="Rectangle" fill="#4C506D" transform="translate(66.500000, 261.000000) rotate(-180.000000) translate(-66.500000, -261.000000) " x="65" y="248" width="3" height="26"></rect>
                <rect id="Rectangle" fill="#4C506D" transform="translate(69.000000, 276.000000) rotate(-180.000000) translate(-69.000000, -276.000000) " x="53" y="274" width="32" height="4"></rect>
                <rect id="Rectangle" fill="#2F3554" transform="translate(69.000000, 276.000000) rotate(-180.000000) translate(-69.000000, -276.000000) " x="53" y="274" width="32" height="4"></rect>
                <rect id="Rectangle" fill="#4C506D" transform="translate(65.500000, 243.000000) rotate(-180.000000) translate(-65.500000, -243.000000) " x="52" y="238" width="27" height="10" rx="5"></rect>
                <rect id="Rectangle" fill="#2F3554" transform="translate(70.500000, 243.000000) rotate(180.000000) translate(-70.500000, -243.000000) " x="57" y="238" width="27" height="10" rx="5"></rect>
                <path d="M44,203.005543 L44,211.98831 C44,215.306008 46.6876951,217.996511 50.0054184,218 L58.9882601,218 C62.3084524,218 65,215.308475 65,211.98831 L65,203.005543 C65,201.411725 64.3664213,199.883277 63.2388193,198.75687 C62.1112173,197.630463 60.5820911,196.998497 58.9882601,197 L50.0180614,197 C49.7495935,196.998069 49.4813132,197.014968 49.2152318,197.050747 C46.2323102,197.45226 44.004714,199.995749 44,203.005543 L44,203.005543 Z" id="Path" fill="#4C506D"></path>
                <path d="M46.1780769,212.305039 C46.3027972,213.27068 46.6612565,214.192704 47.2232952,214.993534 C48.902177,217.25753 52.1619516,217.534098 55.0101714,217.604848 C57.1267384,217.662734 64.5020599,219.219231 63.9729181,215.72676 C63.6985483,213.893695 62.5814713,211.951289 62.0131338,210.182543 C61.4447964,208.413796 60.2623932,206.130504 60.2623932,204.342462 C59.8681822,202.642885 59.3396073,200.976256 58.6815006,199.357812 C58.3061585,198.516104 57.8231949,197.725027 57.2443254,197.00377 L49.816743,197.00377 C49.5568547,196.989089 49.2963036,197.017351 49.0458946,197.087384 C49.3463948,199.550766 47.6936434,201.280922 46.7790774,203.429145 C45.9690333,205.358687 45.9820985,207.474752 46.0082289,209.545794 C45.9964901,210.468388 46.0532573,211.390593 46.1780769,212.305039 Z" id="Path" fill="#2F3554"></path>
                <path d="M62.2074358,186.83349 C63.6228762,188.790916 67.9213795,190.63742 67.9213795,190.63742 C68.4171098,188.725668 67.3669443,188.02752 67.3669443,188.02752 C66.258074,188.125391 64.8165425,185.417619 65.2861817,184.588976 C65.8732307,183.538491 66.6820538,183.936501 67.2430117,184.367135 C68.3693791,183.486823 69.0784069,182.177087 69.1998418,180.752423 C69.2715922,179.923779 67.8431063,177.581394 70.5826683,176.570057 C73.3222304,175.558721 77.1837083,176.570057 77.1837083,176.570057 C77.1837083,176.570057 78.1816916,174.012355 74.9920587,172.792227 C67.8170152,170.032257 59.2200086,174.749652 59.7026934,182.814244 C59.8266259,185.000035 59.9766496,187.485965 58.4568449,189.064955 C57.5585014,189.853873 56.4989233,190.437263 55.3520079,190.77444 C53.8694673,191.246352 52.5255289,192.075366 51.4383479,193.188598 C50.427319,194.363053 49.9968164,196.157359 50.7860712,197.481884 C51.1709144,198.134359 51.8297139,198.728111 51.6601219,199.439309 C51.5510997,199.763351 51.3627401,200.054948 51.1122095,200.287526 C49.4571512,202.063375 48.3929586,204.308661 48.0660774,206.714406 C47.7608828,209.138872 48.5224141,211.576513 50.1533628,213.395751 C52.3711035,215.718562 55.9129659,216.325364 59.0895533,215.849057 C61.6905937,215.53234 64.1050572,214.335102 65.9319356,212.456187 C68.5801789,209.520049 68.9193628,205.278961 69.6629582,201.36411 C69.7062848,200.882913 69.8977126,200.426994 70.2108706,200.05916 C70.9870799,199.334913 72.2264056,199.92214 73.2896165,199.896041 C75.1159912,199.856893 76.3422714,197.853794 76.3879308,196.026864 C76.4335901,194.199934 75.6899947,192.457826 75.3247198,190.670044 C74.9594448,188.882262 75.0638091,186.755193 76.4466357,185.574213 C76.968457,185.124006 77.6207337,184.856491 78.1751689,184.451956 C80.6472975,182.670699 80.4972738,178.579681 78.3904202,176.393889 C76.2835665,174.208098 72.8982505,173.660018 69.9108234,174.181999 C67.5039224,174.599583 62.0835032,175.937157 60.9485418,178.162097 C59.8135804,180.387037 60.7854726,184.889115 62.2074358,186.83349 Z" id="Path" fill="#FF681C"></path>
                <path d="M55.0298786,200.265544 C54.8590389,198.342773 55.4253737,196.427126 56.6118999,194.914302 C58.0048351,193.277077 60.1289036,192.544466 62.108006,191.729039 C62.9462882,191.391401 63.8539021,190.958205 64.2131659,190.117296 C64.3763,189.536162 64.469416,188.937245 64.4904924,188.333548 C64.5850355,187.734719 64.9316935,187.059443 65.5241637,187.002108 C65.8967926,186.981531 66.2621151,187.112257 66.5389264,187.365228 C67.7995012,188.339919 68.1965822,190.136407 67.9129529,191.716298 C67.532921,193.275479 66.8399841,194.73911 65.8771246,196.016403 C64.9139391,197.291301 64.1272378,198.692986 63.5387584,200.182727 C63.1542831,201.335793 63.0471342,202.565304 62.7698078,203.750222 C62.1395204,206.355768 59.9902404,207.903806 57.4501822,206.425844 C55.6853774,205.41293 55.1370274,202.087515 55.0298786,200.265544 Z" id="Path" fill="#FF681C"></path>
                <path d="M78.6336677,195 C75.5872273,195.276604 72.5283151,195.391659 69.4697433,195.344683 C66.3789899,195.255321 61.3190761,194.929787 58.5597025,198.293636 C55.1311967,202.468128 58.0817509,209.783064 60.4715087,215.310755 C61.3636849,217.366086 61.7970277,224.017188 61.3381942,228.881046 C61.3381942,228.881046 70.9482067,232.244895 79.3983902,230.495949 L82.2979629,219.574609 C82.2979629,219.574609 90.3594124,207.606455 78.6336677,195 Z" id="Path" fill="#4C506D"></path>
                <path d="M75.1686674,173 C75.1686674,173 79.5298442,173.236798 80.8245685,179.169541 C82.1192928,185.102285 75.822844,185 75.822844,185 L72,174.708784 L75.1686674,173 Z" id="Path" fill="#FF681C"></path>
                <path d="M72.3151842,191.981312 C76.1503627,192.283539 78.4819392,188.883492 78.9389812,184.425653 C78.9858092,183.931647 79.0057072,183.435668 78.9985954,182.939707 C79.0063784,181.489749 78.8329446,180.044046 78.4819392,178.632981 C76.7994948,171.807702 66.5591046,174.540332 66.5591046,174.540332 C58.5443103,177.965564 65.6516444,191.458713 72.3151842,191.981312 Z" id="Path" fill="#EC9C7D"></path>
                <path d="M68.1428571,187 C68.8034682,189.07187 71.5846408,192.730016 74.7489678,191.87537 C73.9873716,193.226343 74.0850111,194.885906 75,196.142127 C75,196.142127 73.9694467,198.731965 67,194.911954 C67,194.911954 68.8827415,194.756564 68.3674649,190.962452 C68.2169161,189.659396 67.7478227,188.411173 67,187.32373 C67.1692907,187.508592 67.4315685,187.58223 67.6750509,187.51326 C67.9185333,187.444291 68.1002902,187.244873 68.1428571,187 Z" id="Path" fill="#D68369"></path>
                <path d="M75,174.143714 C74.0284927,177.618164 72.7352943,182.551352 69.441177,184.454343 C68.9925977,184.767618 68.4646264,184.938232 67.9227948,184.94501 C67.4209566,184.83892 67.4659934,184.427821 67.079964,184.063136 C66.8181782,183.791245 66.4182933,183.719457 66.0827215,183.884109 C65.8049901,184.100852 65.6524715,184.447655 65.6773906,184.805767 C65.6754621,185.671754 66.1120123,186.476052 66.8290449,186.927568 C67.1550903,187.079839 67.4672972,187.261798 67.7619492,187.47128 C68.0881494,187.805746 68.2848643,188.251286 68.315258,188.724469 C68.4274131,190.024882 67.7974219,191.274259 66.7003685,191.927063 C66.6363325,191.973709 66.5600308,191.99915 66.4816185,192 C66.3865377,191.981058 66.3004155,191.929673 66.2371332,191.854126 L64.7637878,190.468325 C64.0646711,189.853091 63.4345276,189.159191 62.8851115,188.399568 C62.205903,187.370779 61.8406905,186.15619 61.8363983,184.911857 C61.8363983,184.348253 62.0487145,183.78465 62.0422807,183.240938 C61.9519615,182.526825 61.7679898,181.828653 61.4954057,181.165551 C61.1675328,180.310591 60.9994467,179.399458 61,178.480146 C61.1158102,176.676614 62.5698542,175.251029 64.1397069,174.448723 C66.6231626,173.182273 69.4862138,173.043029 72.2527576,173.009876 C72.8066591,172.970893 73.3624957,173.047573 73.8869486,173.235318 C74.3630515,173.440867 74.5560662,173.977948 75,174.143714 Z" id="Path" fill="#FF681C"></path>
                <path d="M68,216.779162 L65.1353445,223 C65.1353445,223 58.952355,215.409554 56.6256325,207.217504 C54.5775983,199.97906 58.2135072,198.155049 58.2135072,198.155049 C60.987427,197.150243 62.8799144,201.060666 65.6149474,208.971115 C67.1185675,213.323141 68,216.779162 68,216.779162 Z" id="Path" fill="#EC9C7D"></path>
                <path d="M65.0007253,223.76273 C65.0007253,223.76273 64.8905774,218.71194 67.3851025,217.708175 C69.8796275,216.704411 87.3607407,214 87.3607407,214 L89,215.866874 C89,215.866874 71.8363718,225.629605 65.0007253,223.76273 Z" id="Path" fill="#EC9C7D"></path>
                <path d="M93.2601626,236.237762 C93.1788618,236.153846 93.0894309,236.076923 93,236 C94.0650407,237.027972 94.7804878,237.769231 95,238 C94.4552846,237.405594 93.8780488,236.804196 93.2601626,236.237762 Z" id="Path" fill="#DC9BD5"></path>
                <path d="M60.1347212,237.940829 C60.6407327,240.92528 62.6519682,243.482456 65.098758,245.217451 C67.5455477,246.952446 70.4086761,247.975317 73.2718044,248.849288 C74.9691847,249.373671 76.019639,251.568311 77.5504839,252.481125 C78.1069414,252.754057 78.5886127,253.160864 78.9532246,253.665842 C79.5104778,254.578657 79.2286486,255.750426 78.9532246,256.77977 C77.6721828,261.328738 76.3719255,265.879864 75.0524524,270.433148 C74.4119316,272.692526 73.7714107,275.087855 74.3735003,277.360181 C74.9755899,279.632507 77.3519224,281.587614 79.5553142,280.836646 C83.8724249,273.797399 88.1852655,266.760309 92.493836,259.725378 C92.493836,259.725378 94.6203653,251.23167 90.1559348,244.006838 C88.2343721,240.89291 73.137295,228.048766 73.137295,228.048766 C69.2941697,227.48554 65.3549663,227.220111 61.6079192,227 C61.1851754,230.683628 59.5198211,234.296044 60.1347212,237.940829 Z" id="Path" fill="#DDDDDD"></path>
                <path d="M73,228.014893 C73,228.014893 88.4006243,240.665496 90.0497745,243.949352 C94.5416233,253.109242 92.3919528,259.644633 92.3919528,259.644633 L103.730663,277.996735 C106.355186,278.054913 109.871661,277.350306 110,274.69995 C109.985432,273.955528 109.810263,273.223211 109.486646,272.553808 C106.641808,265.40862 103.796971,258.267741 100.952133,251.131171 C99.2644814,246.884137 97.5190773,242.546603 94.8175512,238.900746 L94.5737079,238.583997 L94.5737079,238.583997 L94.5416233,238.545211 C94.3683663,238.331889 93.8036767,237.646675 92.9630593,236.696426 C90.5117933,233.929712 85.7247659,228.990999 81.2970864,227 C81.2970864,227 76.1635449,228.435071 73.0641693,228.047214 L73,228.014893 Z" id="Path" fill="#DDDDDD"></path>
                <path d="M73,228.014893 C73,228.014893 88.4006243,240.665496 90.0497745,243.949352 C94.5416233,253.109242 92.3919528,259.644633 92.3919528,259.644633 L103.730663,277.996735 C106.355186,278.054913 109.871661,277.350306 110,274.69995 C109.985432,273.955528 109.810263,273.223211 109.486646,272.553808 C106.641808,265.40862 103.796971,258.267741 100.952133,251.131171 C99.2644814,246.884137 97.5190773,242.546603 94.8175512,238.900746 L94.5737079,238.583997 L94.5737079,238.583997 L94.5416233,238.545211 C94.3683663,238.331889 93.8036767,237.646675 92.9630593,236.696426 C90.5117933,233.929712 85.7247659,228.990999 81.2970864,227 C81.2970864,227 76.1635449,228.435071 73.0641693,228.047214 L73,228.014893 Z" id="Path" fill="url(#linearGradient-3)"></path>
                <path d="M81.5669892,284.225561 C82.6341529,285.13577 84.052535,286.039744 83.9985014,287.38012 C84.0044033,287.512916 83.9641726,287.643977 83.88368,287.754179 C83.7361299,287.888121 83.5367714,287.962175 83.3298355,287.959911 C80.0540483,288.296563 77.0146582,286.457443 74.4683246,284.524808 C73.7685348,284.098956 73.2505183,283.462167 73.0026631,282.723093 C72.9719093,281.940316 73.2081557,281.168378 73.6780832,280.516149 C74.2854518,279.388575 74.7783625,278.211498 75.1504989,277 C75.0424317,277.36159 76.6904566,278.639623 76.9673788,278.870292 C77.54824,279.344099 78.4195319,279.686986 78.8788175,280.266777 C79.2161982,280.863417 79.5161295,281.47747 79.7771261,282.105897 C80.2487296,282.895265 80.8528382,283.610687 81.5669892,284.225561 L81.5669892,284.225561 Z" id="Path" fill="#EC9C7D"></path>
                <path d="M113.841382,278.817886 C114.890142,279.185593 116.111639,279.387831 116.77791,280.276455 C116.90553,280.434264 116.982858,280.626307 117,280.828015 C117,281.373446 116.383082,281.67374 115.821687,281.784052 C113.662476,282.219171 111.429234,281.912749 109.251515,281.600199 C108.968818,281.580559 108.694435,281.496691 108.449523,281.355061 C108.160421,281.098813 107.96152,280.75733 107.881958,280.380639 L107.018274,277.751537 C106.993909,277.671617 106.993909,277.58632 107.018274,277.5064 C107.051086,277.424562 107.112383,277.357146 107.191011,277.316418 C107.772771,276.907371 108.392497,276.554407 109.041764,276.262326 C109.930125,275.863977 109.985647,275.882362 110.584057,276.574876 C111.454959,277.591267 112.577698,278.36439 113.841382,278.817886 L113.841382,278.817886 Z" id="Path" fill="#EC9C7D"></path>
                <path d="M89.5286715,213.244678 C91.3395134,212.951038 93.3848527,212.710788 94.8569759,213.83863 C95.5565463,214.451586 96.1281501,215.202913 96.5375413,216.0476 C96.9754518,216.443838 97.1193923,217.081285 96.8958322,217.634308 C96.6722721,218.18733 96.1305668,218.533837 95.5474408,218.496819 C93.8733891,218.910584 92.0690611,219.304328 90.4601477,218.656986 C89.2746326,218.183159 88.3171011,217.175442 87.0794754,216.875129 C86.8682953,216.843574 86.6649141,216.771097 86.480204,216.661573 C86.3093015,216.517591 86.1882402,216.321013 86.1349716,216.100989 C85.3923961,213.571685 87.8806752,213.484928 89.5286715,213.244678 Z" id="Path" fill="#EC9C7D"></path>
                <path d="M108.971576,283.654265 C109.036844,283.776791 109.134863,283.881407 109.256097,283.957933 C109.44557,284.014022 109.6489,284.014022 109.838373,283.957933 C110.883986,283.823554 111.9414,283.788257 112.994573,283.852579 C115.137018,283.820685 117.273774,283.6363 119.386375,283.301018 C120.312723,283.177072 121.338323,282.991153 121.874281,282.278462 C121.943137,282.198303 121.986684,282.101705 122,281.999583 C121.995974,281.844323 121.929854,281.696138 121.81473,281.584363 C120.884412,280.541518 119.663622,279.76066 118.287991,279.328543 C117.775856,279.12734 117.228603,279.016005 116.673498,279.000085 C116.11242,278.994951 115.577442,279.221676 115.211192,279.619816 C114.827419,280.07222 114.774485,280.722937 114.344395,281.13196 C113.844839,281.499327 113.206115,281.658407 112.577717,281.571969 C111.848858,281.546286 111.123237,281.467549 110.407415,281.336471 C109.858223,281.237314 109.084061,280.890265 108.521635,281.026606 C107.277682,281.324076 108.601037,283.059323 108.971576,283.654265 Z" id="Path" fill="#DDDDDD"></path>
                <path d="M72.0111541,284.989209 C71.985124,285.155734 72.0048751,285.32662 72.0680797,285.481725 C72.1957381,285.66432 72.3786506,285.795765 72.5867347,285.854439 C73.6238488,286.390387 74.607078,287.034791 75.5215628,287.777913 C77.4824569,289.116886 79.5377658,290.296148 81.6695217,291.305391 C82.5929806,291.771284 83.6429406,292.243833 84.5916997,291.857807 C84.7075264,291.820411 84.8107093,291.748798 84.8889776,291.651483 C84.9833066,291.490468 85.0192416,291.29904 84.9901785,291.112378 C84.8214522,289.454013 84.2218277,287.876608 83.2571119,286.553279 C82.9155118,286.032636 82.4868849,285.581608 81.9920998,285.222156 C81.4883202,284.855558 80.8566394,284.741124 80.2653583,284.909342 C79.6328522,285.122321 79.1521476,285.754605 78.4943413,285.894373 C77.8018069,285.956191 77.115602,285.715502 76.5968231,285.228811 C75.952735,284.735035 75.3438989,284.192258 74.7752056,283.604841 C74.3514266,283.152258 73.8580718,282.273717 73.2698412,282.074048 C71.9858539,281.528288 72.0554296,284.150601 72.0111541,284.989209 Z" id="Path" fill="#DDDDDD"></path>
                <path d="M56.1717807,200.85991 C55.7491547,202.190359 55.4625347,203.562592 55.3165783,204.95431 L55.0543995,206.837606 C54.9646307,207.225535 54.9863185,207.631968 55.116823,208.007435 C55.416456,208.650198 56.6337148,208.39952 57.2329807,208.495935 L60.4602772,209.023 C62.6076466,209.361522 64.7612584,209.687189 66.9211125,210 C67.0441684,208.86863 67.0231831,207.725556 66.858689,206.599784 C66.665176,205.532797 66.2344537,204.530087 65.9597901,203.475955 C65.7537925,202.62108 65.6788842,201.734067 65.4666442,200.904903 C65.0124868,199.102602 63.972689,197.514759 62.5202536,196.405562 C60.2542795,194.695812 56.902136,198.828779 56.2342042,200.692791 C56.2096494,200.746936 56.188791,200.802777 56.1717807,200.85991 L56.1717807,200.85991 Z" id="Path" fill="#4C506D"></path>
                <rect id="Rectangle" fill="#4C506D" transform="translate(204.500000, 261.000000) rotate(-180.000000) translate(-204.500000, -261.000000) " x="203" y="248" width="3" height="26"></rect>
                <rect id="Rectangle" fill="#4C506D" transform="translate(207.000000, 276.000000) rotate(-180.000000) translate(-207.000000, -276.000000) " x="191" y="274" width="32" height="4"></rect>
                <rect id="Rectangle" fill="#2F3554" transform="translate(207.000000, 276.000000) rotate(-180.000000) translate(-207.000000, -276.000000) " x="191" y="274" width="32" height="4"></rect>
                <rect id="Rectangle" fill="#4C506D" transform="translate(203.500000, 243.000000) rotate(180.000000) translate(-203.500000, -243.000000) " x="190" y="238" width="27" height="10" rx="5"></rect>
                <rect id="Rectangle" fill="#2F3554" transform="translate(209.500000, 243.000000) rotate(180.000000) translate(-209.500000, -243.000000) " x="196" y="238" width="27" height="10" rx="5"></rect>
                <path d="M182,203.00558 L182,211.988315 C181.998326,213.582127 182.630105,215.111235 183.75618,216.238824 C184.882254,217.366412 186.41025,218 188.003598,218 L196.977391,218 C197.994804,218.002386 198.995783,217.743362 199.884395,217.247735 C200.622609,216.841526 201.268249,216.286113 201.780267,215.616809 C202.576695,214.575463 203.005617,213.299435 203,211.988315 L203,203.00558 C203,201.411767 202.366558,199.883325 201.239299,198.756922 C200.112039,197.630519 198.583377,196.998555 196.990031,197.000233 L188.016237,197.000233 C187.747841,196.997782 187.479618,197.014683 187.213651,197.050804 C184.228841,197.447102 181.999181,199.993712 182,203.00558 Z" id="Path" fill="#4C506D"></path>
                <path d="M184.217171,212.306875 C184.341572,213.272632 184.699115,214.194767 185.259716,214.995693 C186.934303,217.259961 190.192255,217.536562 193.026673,217.60732 C195.137826,217.658781 202.500798,219.221897 201.97301,215.729007 C201.692826,213.895722 200.578607,211.953083 200.018239,210.184124 C199.457871,208.415165 198.271976,206.125167 198.271976,204.33691 C197.878858,202.639202 197.351629,200.974505 196.695128,199.358094 C196.322287,198.515499 195.840444,197.724138 195.261629,197.00377 L187.807434,197.00377 C187.546063,196.98909 187.284037,197.017349 187.032042,197.087393 C187.338289,199.551071 185.689765,201.281435 184.777539,203.429916 C183.963051,205.35969 183.982598,207.476008 184.008662,209.540866 C184.009655,210.466658 184.079344,211.391135 184.217171,212.306875 L184.217171,212.306875 Z" id="Path" fill="#2F3554"></path>
                <path d="M200.370721,186.231461 C201.746457,188.139267 205.930725,189.938964 205.930725,189.938964 C206.41255,188.069314 205.385502,187.395223 205.385502,187.395223 C204.314076,187.490613 202.906641,184.851481 203.363106,184.043843 C203.933688,183.013628 204.719823,183.407908 205.265046,183.827625 C206.360419,182.970139 207.049711,181.69332 207.166986,180.304544 C207.230384,179.496906 205.841968,177.213898 208.504684,176.228198 C211.1674,175.242498 214.926901,176.228198 214.926901,176.228198 C214.926901,176.228198 215.89055,173.728972 212.790388,172.539773 C210.254468,171.573151 206.501307,172.139134 203.87663,172.444383 C202.457818,172.517743 201.078204,172.936833 199.857197,173.665378 C198.101073,174.873656 197.321277,177.080351 196.985268,179.191657 C196.649258,181.302962 196.655598,183.48422 195.98358,185.512854 C195.615871,186.63846 195.03261,187.71955 195.000911,188.90239 C194.969212,190.085229 195.768026,191.446131 196.947229,191.414334 C197.403695,191.414334 197.904539,191.210835 198.297606,191.45249 C198.690674,191.694146 198.766752,192.3428 199.12178,192.724361 C199.75576,193.360296 200.827186,192.724361 201.721098,192.520862 C202.887621,192.279206 204.18728,192.92786 205.239687,192.380956 C205.677133,192.152019 206.038502,191.745021 206.507647,191.681427 C207.141627,191.617834 207.66783,192.202894 208.30181,192.279206 C209.385916,192.412753 210.20375,191.070929 211.281516,191.102726 C211.763883,191.181738 212.229192,191.343055 212.657252,191.579677 C213.450999,191.834067 214.314018,191.750837 215.044906,191.349412 C215.775794,190.947986 216.310605,190.263486 216.52453,189.455653 C216.688086,189.580992 216.897159,189.630435 217.099306,189.59158 C217.301453,189.552726 217.477496,189.429261 217.583277,189.252154 C217.782031,188.887157 217.866016,188.470371 217.824189,188.056596 C217.824189,184.501717 218.813198,178.943642 216.099764,176.11373 C214.052008,173.970627 210.767992,173.442801 207.858024,173.951549 C205.518638,174.364907 200.250265,175.662215 199.1408,177.837114 C198.031335,180.012013 198.994984,184.336374 200.370721,186.231461 Z" id="Path" fill="#32384F"></path>
                <path d="M222.924611,219 C220.724222,213.208089 218.625,206.470165 218.625,206.470165 L217,195.015052 C222.545233,194.628924 224.265078,201.765846 225.46644,205.62712 C226.47179,208.844849 229.146401,216.567397 230,219 L222.924611,219 Z" id="Path" fill="#D68369"></path>
                <path d="M247,217.060135 C245.522678,218.857743 242.854387,219 240.491973,219 L229.024829,218.961203 C228.575425,219.006482 228.122579,218.918744 227.723223,218.70902 C227.404233,218.460872 227.160896,218.129553 227.020356,217.75202 C226.519238,216.678628 224.306509,212.281601 225.217633,211.285803 C226.128757,210.290006 230.573739,212.191074 231.72566,212.507918 C236.849647,213.930486 241.941093,215.447891 247,217.060135 Z" id="Path" fill="#D68369"></path>
                <path d="M220.422095,195.140893 C221.445847,195.981618 222.313175,197.00076 222.983245,198.150336 L230.51943,209.474662 C231.226071,210.804022 232.45367,211.769626 233.900149,212.133869 L241.340291,214.955221 C241.602809,215.052509 241.890938,215.182227 241.980578,215.441662 C242.070218,215.701096 241.833312,216.090248 241.602809,216.343197 L238.862378,219.248867 C238.597107,219.583049 238.244286,219.834799 237.84432,219.975284 C237.440778,220.03682 237.02829,219.982906 236.653385,219.819623 L222.086843,215.078453 C221.619444,214.956595 221.182946,214.735516 220.806267,214.429866 C220.16598,213.820194 220.057131,212.814885 219.999505,211.913349 C219.893054,209.381445 219.462599,206.874248 218.71893,204.4546 C217.867347,201.905654 216.433103,199.486425 216.106556,196.781817 C215.991305,195.86731 215.78001,194.641481 216.689218,194.142069 C217.598427,193.642657 219.640944,194.576622 220.422095,195.140893 Z" id="Path" fill="#DDDDDD"></path>
                <path d="M216.624374,195 C213.57865,195.276629 210.520458,195.391694 207.462605,195.344713 C204.37895,195.255343 199.313856,194.929781 196.555131,198.293928 C193.133803,202.468789 196.083663,209.784373 198.466488,215.312554 C199.358454,217.361683 199.798066,224.019758 199.332969,228.884046 C199.332969,228.884046 208.940721,232.248193 217.388917,230.492708 L220.287807,219.595936 C220.287807,219.595936 228.372845,207.601188 216.624374,195 Z" id="Path" fill="#DDDDDD"></path>
                <path d="M213.168667,173 C213.168667,173 217.529844,173.243069 218.824568,179.166272 C220.119293,185.089475 213.822844,185 213.822844,185 L210,174.714275 L213.168667,173 Z" id="Path" fill="#32384F"></path>
                <path d="M210.307159,191.981343 C214.143875,192.28357 216.476386,188.877221 216.933611,184.425671 C216.979996,183.940849 217,183.443434 217,182.939722 C217.005365,181.489518 216.829639,180.043823 216.476386,178.632989 C214.799893,171.807698 204.548773,174.540333 204.548773,174.540333 C196.557273,177.965571 203.640949,191.458743 210.307159,191.981343 Z" id="Path" fill="#EC9C7D"></path>
                <path d="M206.141914,187 C206.80198,189.072126 209.580858,192.730723 212.742574,191.875971 C211.980266,193.227612 212.080506,194.889254 213,196.143255 C213,196.143255 211.963696,198.733412 205,194.906455 C205,194.906455 206.881188,194.75752 206.366337,190.96294 C206.219523,189.658886 205.750507,188.409687 205,187.32377 C205.169151,187.508654 205.431212,187.582302 205.674494,187.513324 C205.917775,187.444345 206.099382,187.244904 206.141914,187 Z" id="Path" fill="#D68369"></path>
                <path d="M213,174.143503 C212.034483,177.617994 210.734253,182.551241 207.445057,184.454254 C206.993461,184.766656 206.463463,184.937126 205.91954,184.944927 C205.417471,184.838835 205.468966,184.427731 205.076322,184.063042 C204.815369,183.789271 204.414066,183.717261 204.078621,183.884013 C203.801707,184.101536 203.649364,184.447786 203.673103,184.805682 C203.669676,185.672025 204.110062,186.476002 204.831724,186.920878 C205.156032,187.07543 205.466238,187.259617 205.758621,187.471226 C206.085965,187.804984 206.282951,188.250938 206.312184,188.72443 C206.425655,190.023428 205.798068,191.272455 204.702989,191.927062 C204.63658,191.97386 204.558158,191.999249 204.477701,192 C204.382577,191.981058 204.296415,191.929672 204.233103,191.854124 L202.771954,190.468306 C202.068855,189.854962 201.436092,189.160866 200.885977,188.399526 C200.209294,187.369319 199.844188,186.155628 199.836782,184.911773 C199.836782,184.348163 200.049195,183.777922 200.042759,183.240835 C199.951368,182.527659 199.769588,181.829907 199.502069,181.165423 C199.174344,180.310142 199.004086,179.399476 199,178.479986 C199.122299,176.676434 200.570575,175.244201 202.141149,174.448516 C204.625747,173.182051 207.490115,173.036175 210.264368,173.009652 C210.816398,172.971203 211.370283,173.047881 211.892874,173.235096 C212.362759,173.440648 212.562299,173.977736 213,174.143503 Z" id="Path" fill="#32384F"></path>
                <path d="M206,216.783971 L203.13461,223 C203.13461,223 196.950036,215.414012 194.6292,207.219864 C192.574157,199.973165 196.210998,198.155088 196.210998,198.155088 C198.992112,197.150025 200.885085,201.06145 203.614336,208.973924 C205.118342,213.327065 206,216.783971 206,216.783971 Z" id="Path" fill="#EC9C7D"></path>
                <path d="M203.000725,222.76108 C203.000725,222.76108 202.890607,217.714231 205.384459,216.709978 C207.878311,215.705725 225.354706,213 225.354706,213 L227,214.867782 C227,214.867782 209.834527,224.635258 203.000725,222.76108 Z" id="Path" fill="#EC9C7D"></path>
                <path d="M193.103368,205.705555 C192.70364,209.212346 193.470015,212.753009 195.284611,215.782933 C195.707739,216.547358 196.252523,217.238165 196.897686,217.828373 C197.685967,218.457165 198.594986,218.918284 199.568729,219.183315 C202.028272,219.82686 204.571796,220.092651 207.111651,219.971526 C211.637403,219.971526 216.150095,219.67839 220.662786,219.41131 C221.270321,219.420866 221.872456,219.296295 222.426066,219.046518 C222.960796,218.696401 223.407681,218.228359 223.7322,217.678548 C223.866339,217.514175 223.958249,217.31964 224,217.111818 C224.001883,216.881814 223.938486,216.655967 223.817099,216.460404 L222.347698,213.431328 C222.256825,213.130883 222.029395,212.890677 221.733871,212.78302 C221.438347,212.675362 221.109248,212.712829 220.845645,212.88414 C217.159394,213.845969 213.39685,214.488908 209.599835,214.805812 C209.182011,214.874647 208.753305,214.829634 208.359008,214.675529 C208.09506,214.510038 207.871852,214.287395 207.705941,214.024115 C206.654504,212.591003 206.171234,210.832185 205.668373,209.12548 C204.669181,205.699041 203.552437,202.168376 201.638951,199.119758 C200.881394,197.914642 199.647097,196.514101 198.079737,197.165516 C196.669113,197.73876 195.539307,199.465008 194.814403,200.728751 C193.92659,202.261626 193.345499,203.951816 193.103368,205.705555 L193.103368,205.705555 Z" id="Path" fill="#DDDDDD"></path>
                <path d="M235.878671,206.999642 L272.308999,206.999642 C273.462058,206.983302 274.421868,206.100824 274.545892,204.942974 L276.989666,177.05064 C277.045608,176.520169 276.872611,175.991064 276.514887,175.598541 C276.157162,175.206018 275.649369,174.988109 275.121278,175.000501 L238.69095,175.000501 C237.541444,175.016817 236.584514,175.896396 236.460521,177.05064 L234.010283,204.942974 C233.954519,205.474024 234.127365,206.003675 234.484847,206.397181 C234.842328,206.790686 235.349986,207.010114 235.878671,206.999642 L235.878671,206.999642 Z" id="Path" fill="#DDDDDD"></path>
                <path d="M237.879391,206.999482 L274.309081,206.999482 C275.46078,206.982781 276.418517,206.099644 276.53947,204.942825 L278.989666,177.05063 C279.045607,176.520162 278.872613,175.99106 278.514895,175.598538 C278.157177,175.206017 277.649393,174.988109 277.121311,175.000501 L240.691621,175.000501 C239.540789,175.016447 238.581817,175.895368 238.454767,177.05063 L236.011036,204.942825 C235.953093,205.474353 236.125184,206.005268 236.483137,206.399299 C236.841091,206.793329 237.350055,207.012108 237.879391,206.999482 Z" id="Path" fill="#FFFFFF"></path>
                <path d="M255,195 L266,195 L266,212.626107 C266,215.594026 263.537566,218 260.5,218 L260.5,218 C257.462434,218 255,215.594026 255,212.626107 L255,195 Z" id="Path" fill="#DDDDDD" transform="translate(260.500000, 206.500000) rotate(-180.000000) translate(-260.500000, -206.500000) "></path>
                <path d="M257.013447,195 L268,195 L268,212.626107 C268,215.594026 265.537566,218 262.5,218 L262.5,218 C259.462434,218 257,215.594026 257,212.626107 L257,195 L257.013447,195 Z" id="Path" fill="#FFFFFF" transform="translate(262.500000, 206.500000) rotate(-180.000000) translate(-262.500000, -206.500000) "></path>
                <path d="M231.268293,236.238596 L231,236 C232.065041,237.031579 232.780488,237.775439 233,238 C232.422764,237.396491 231.837398,236.835088 231.268293,236.238596 Z" id="Path" fill="#DC9BD5"></path>
                <path d="M198.135127,237.94098 C198.641231,240.925472 200.646428,243.47621 203.093664,245.217703 C205.540901,246.959196 208.410958,247.969133 211.274609,248.84959 C212.965893,249.373981 214.016539,251.562177 215.547663,252.475004 C216.102815,252.750134 216.584095,253.156541 216.95066,253.659737 C217.508015,254.572565 217.226134,255.750824 216.95066,256.780183 C215.669384,261.329213 214.371025,265.878244 213.055582,270.427275 C212.414944,272.693158 211.774306,275.088521 212.3701,277.354404 C212.965893,279.620288 215.349066,281.58837 217.559266,280.837391 L230.493744,259.719357 C230.493744,259.719357 232.620661,251.232005 228.155416,244.007074 C226.233502,240.893103 211.140075,228.04878 211.140075,228.04878 C207.296248,227.479073 203.349919,227.220114 199.608594,227 C199.179367,230.683679 197.520115,234.289671 198.135127,237.94098 Z" id="Path" fill="#4C506D"></path>
                <path d="M211,228.014893 C211,228.014893 226.400624,240.665496 228.043358,243.949352 C232.573708,253.109242 230.385536,259.638169 230.385536,259.638169 L241.724246,277.996735 C244.348769,278.054913 247.865245,277.350306 248,274.69995 C247.982228,273.955947 247.807221,273.224308 247.486646,272.553808 C244.63753,265.412929 241.792693,258.27205 238.952133,251.131171 C237.258065,246.877673 235.51266,242.546603 232.811134,238.900746 L232.573708,238.583997 L232.573708,238.583997 L232.541623,238.538747 C232.368366,238.331889 231.803677,237.646675 230.963059,236.696426 L230.963059,236.696426 C228.511793,233.929712 223.718349,228.990999 219.290669,227 C219.290669,227 214.157128,228.428607 211.057752,228.047214 L211,228.014893 Z" id="Path" fill="#2F3554"></path>
                <path d="M219.567343,284.256808 C220.62775,285.160792 222.046128,286.07101 221.998848,287.373994 C222.00475,287.506791 221.96452,287.637854 221.884027,287.748056 C221.737163,287.883698 221.537944,287.959944 221.330185,287.960025 C218.054407,288.296681 215.008272,286.451307 212.461946,284.518652 C211.762724,284.093656 211.246612,283.456261 211.003043,282.716918 C210.970018,281.93583 211.206518,281.165233 211.678461,280.516185 C212.280032,279.38625 212.772735,278.209652 213.150872,277 C213.036051,277.361594 214.684071,278.63964 214.960993,278.870311 C215.548606,279.344124 216.413141,279.687014 216.872426,280.266811 C217.211052,280.862897 217.511015,281.477025 217.770732,282.10595 C218.245271,282.904484 218.851374,283.630095 219.567343,284.256808 Z" id="Path" fill="#EC9C7D"></path>
                <path d="M251.841382,278.819217 C252.890142,279.186943 254.111639,279.389192 254.77791,280.271733 C254.909861,280.429384 254.987672,280.624786 255,280.829451 C255,281.37491 254.383082,281.675219 253.821687,281.785537 C251.662476,282.220679 249.435404,281.908112 247.257685,281.601674 C246.97237,281.581089 246.695742,281.495078 246.449523,281.350395 C246.160528,281.096573 245.961513,280.757027 245.881958,280.382051 L245.018274,277.746684 C244.993909,277.66676 244.993909,277.581458 245.018274,277.501534 C245.055078,277.423806 245.115491,277.359501 245.191011,277.317671 C245.774153,276.909013 246.393643,276.554114 247.041764,276.257396 C247.923956,275.865155 247.985647,275.883541 248.577888,276.576091 C249.451656,277.592139 250.576253,278.365119 251.841382,278.819217 L251.841382,278.819217 Z" id="Path" fill="#EC9C7D"></path>
                <path d="M227.52168,213.243886 C229.338783,212.950546 231.377325,212.710541 232.849243,213.843899 C233.547124,214.45516 234.118451,215.203196 234.529575,216.043947 C234.973026,216.438582 235.12067,217.079058 234.896346,217.634992 C234.672022,218.190925 234.125868,218.538061 233.539612,218.497333 C231.865793,218.910675 230.061716,219.304017 228.45954,218.657337 C227.27419,218.183993 226.310278,217.177305 225.072825,216.877298 C224.861674,216.845775 224.658321,216.773372 224.473637,216.66396 C224.304096,216.520099 224.185162,216.323434 224.134965,216.103948 C223.392493,213.57056 225.880426,213.510558 227.52168,213.243886 Z" id="Path" fill="#EC9C7D"></path>
                <path d="M246.96189,283.649761 C247.023193,283.774812 247.122151,283.880389 247.246623,283.953541 C247.432953,284.015486 247.63638,284.015486 247.82271,283.953541 C248.871543,283.821183 249.931939,283.787952 250.987878,283.854347 C253.129704,283.822152 255.265824,283.6377 257.37781,283.302583 C258.304847,283.178591 259.331209,282.992604 259.874188,282.27965 C259.941125,282.196036 259.984403,282.097937 260,281.994469 C259.988469,281.841387 259.920605,281.696784 259.807971,281.585295 C258.878141,280.540849 257.656044,279.759447 256.278609,279.328642 C255.768207,279.127972 255.222836,279.016605 254.669538,279.000064 C254.106305,278.995631 253.569198,279.222149 253.199523,279.620023 C252.822087,280.078794 252.769113,280.729751 252.332081,281.138924 C251.833483,281.504104 251.19736,281.663072 250.570712,281.579096 C249.839347,281.550668 249.111205,281.471928 248.392175,281.343511 C247.849196,281.244318 247.067837,280.89714 246.504993,281.027332 C245.286602,281.324912 246.61094,283.060799 246.96189,283.649761 Z" id="Path" fill="#DDDDDD"></path>
                <path d="M210.011023,283.993311 C209.984331,284.160339 210.006381,284.331953 210.074267,284.485539 C210.202612,284.667265 210.38523,284.798433 210.592873,284.858036 C211.629187,285.391236 212.610453,286.035426 213.521094,286.780384 C215.486875,288.113488 217.543717,289.291841 219.674787,290.305797 C220.591832,290.771418 221.641692,291.24369 222.596684,290.85789 C222.710601,290.816375 222.812801,290.745479 222.893933,290.651687 C222.986069,290.489908 223.019745,290.298648 222.9888,290.112897 C222.826919,288.453726 222.226633,286.875354 221.2559,285.556467 C220.916102,285.03458 220.487219,284.583503 219.991009,284.226122 C219.488278,283.857454 218.856581,283.740639 218.264434,283.906839 C217.631989,284.126346 217.157655,284.75826 216.493587,284.897946 C215.800484,284.965425 215.112238,284.724138 214.596251,284.232774 C213.949299,283.740775 213.340262,283.19586 212.774809,282.603101 C212.344746,282.157436 211.851439,281.272757 211.269589,281.079857 C210.011023,280.507808 210.055294,283.168498 210.011023,283.993311 Z" id="Path" fill="#DDDDDD"></path>
                <path d="M17,225.110055 L17,285.883511 C17,287.047902 17.7749988,288 18.7308306,288 L45.3068308,288 C46.2626627,288 47.0376615,287.047902 47.0376615,285.883511 L47.0376615,225.110055 C47.018636,224.889251 47.1784866,224.693062 47.3993276,224.666172 L253.594214,224.666172 C253.815055,224.693062 253.974906,224.889251 253.95588,225.110055 L253.95588,278.202395 C254.251636,278.36185 254.555596,278.505721 254.866504,278.633413 L255.325045,278.781374 L255.325045,225.110055 C255.325543,224.961235 255.312573,224.812673 255.286295,224.666172 L282.269169,224.666172 C282.49001,224.693062 282.649861,224.889251 282.630835,225.110055 L282.630835,285.883511 C282.650096,286.105659 282.490977,286.303782 282.269169,286.333828 L255.686711,286.333828 C255.464903,286.303782 255.305784,286.105659 255.325045,285.883511 L255.325045,284.326702 C254.879823,284.452654 254.411797,284.476843 253.95588,284.397466 L253.95588,285.883511 C253.95588,287.047902 254.730879,288 255.686711,288 L282.269169,288 C283.225001,288 284,287.047902 284,285.883511 L284,225.110055 C284,223.945665 283.225001,223 282.269169,223 L18.7695806,223 C17.7749988,223 17,223.952098 17,225.110055 Z M18.3627062,225.110055 C18.343889,224.88702 18.5073942,224.689866 18.7308306,224.666172 L45.7072469,224.666172 C45.6809682,224.812673 45.6679991,224.961235 45.6684969,225.110055 L45.6684969,285.883511 C45.6877578,286.105659 45.5286383,286.303782 45.3068308,286.333828 L18.7308306,286.333828 C18.5064267,286.306916 18.3436991,286.107856 18.3627062,285.883511 L18.3627062,225.110055 Z" id="Shape" fill="#FFFFFF"></path>
                <path d="M17,225.110055 L17,285.883511 C17,287.047902 17.7749988,288 18.7308306,288 L45.3068308,288 C46.2626627,288 47.0376615,287.047902 47.0376615,285.883511 L47.0376615,225.110055 C47.018636,224.889251 47.1784866,224.693062 47.3993276,224.666172 L253.594214,224.666172 C253.815055,224.693062 253.974906,224.889251 253.95588,225.110055 L253.95588,278.202395 C254.251636,278.36185 254.555596,278.505721 254.866504,278.633413 L255.325045,278.781374 L255.325045,225.110055 C255.325543,224.961235 255.312573,224.812673 255.286295,224.666172 L282.269169,224.666172 C282.49001,224.693062 282.649861,224.889251 282.630835,225.110055 L282.630835,285.883511 C282.650096,286.105659 282.490977,286.303782 282.269169,286.333828 L255.686711,286.333828 C255.464903,286.303782 255.305784,286.105659 255.325045,285.883511 L255.325045,284.326702 C254.879823,284.452654 254.411797,284.476843 253.95588,284.397466 L253.95588,285.883511 C253.95588,287.047902 254.730879,288 255.686711,288 L282.269169,288 C283.225001,288 284,287.047902 284,285.883511 L284,225.110055 C284,223.945665 283.225001,223 282.269169,223 L18.7695806,223 C17.7749988,223 17,223.952098 17,225.110055 Z M18.3627062,225.110055 C18.343889,224.88702 18.5073942,224.689866 18.7308306,224.666172 L45.7072469,224.666172 C45.6809682,224.812673 45.6679991,224.961235 45.6684969,225.110055 L45.6684969,285.883511 C45.6877578,286.105659 45.5286383,286.303782 45.3068308,286.333828 L18.7308306,286.333828 C18.5064267,286.306916 18.3436991,286.107856 18.3627062,285.883511 L18.3627062,225.110055 Z" id="Shape" fill="url(#linearGradient-4)"></path>
                <path d="M18.7308306,288 L45.3068308,288 C46.2626627,288 47.0376615,287.047996 47.0376615,285.883721 L47.0376615,225.116279 C47.018636,224.895497 47.1784866,224.699327 47.3993276,224.672439 L282.269169,224.672439 C282.492606,224.696131 282.656111,224.893266 282.637294,225.116279 L282.637294,285.883721 C282.656111,286.106734 282.492606,286.303869 282.269169,286.327561 C281.873812,286.412644 281.591621,286.760919 281.591621,287.16378 C281.591621,287.566642 281.873812,287.914917 282.269169,288 C283.225001,288 284,287.047996 284,285.883721 L284,225.116279 C284,223.952004 283.225001,223 282.269169,223 L47.3993276,223 C46.4434957,223 45.6684969,223.952004 45.6684969,225.116279 L45.6684969,285.883721 C45.6875224,286.104503 45.5276718,286.300673 45.3068308,286.327561 L18.7308306,286.327561 C18.5073942,286.303869 18.343889,286.106734 18.3627062,285.883721 L18.3627062,225.116279 C18.343889,224.893266 18.5073942,224.696131 18.7308306,224.672439 C19.1261883,224.587356 19.4083789,224.239081 19.4083789,223.83622 C19.4083789,223.433358 19.1261883,223.085083 18.7308306,223 C17.7749988,223 17,223.952004 17,225.116279 L17,285.883721 C17,287.047996 17.7749988,288 18.7308306,288 Z" id="Path" fill="#FFFFFF"></path>
                <path d="M18.7308306,288 L45.3068308,288 C46.2626627,288 47.0376615,287.047996 47.0376615,285.883721 L47.0376615,225.116279 C47.018636,224.895497 47.1784866,224.699327 47.3993276,224.672439 L282.269169,224.672439 C282.492606,224.696131 282.656111,224.893266 282.637294,225.116279 L282.637294,285.883721 C282.656111,286.106734 282.492606,286.303869 282.269169,286.327561 C281.873812,286.412644 281.591621,286.760919 281.591621,287.16378 C281.591621,287.566642 281.873812,287.914917 282.269169,288 C283.225001,288 284,287.047996 284,285.883721 L284,225.116279 C284,223.952004 283.225001,223 282.269169,223 L47.3993276,223 C46.4434957,223 45.6684969,223.952004 45.6684969,225.116279 L45.6684969,285.883721 C45.6875224,286.104503 45.5276718,286.300673 45.3068308,286.327561 L18.7308306,286.327561 C18.5073942,286.303869 18.343889,286.106734 18.3627062,285.883721 L18.3627062,225.116279 C18.343889,224.893266 18.5073942,224.696131 18.7308306,224.672439 C19.1261883,224.587356 19.4083789,224.239081 19.4083789,223.83622 C19.4083789,223.433358 19.1261883,223.085083 18.7308306,223 C17.7749988,223 17,223.952004 17,225.116279 L17,285.883721 C17,287.047996 17.7749988,288 18.7308306,288 Z" id="Path" fill="url(#linearGradient-5)"></path>
                <path d="M45.9233015,220 L285,220 L285,223 L44,223 L44,221.813387 C44.0070386,220.814643 44.8640206,220.006636 45.9233015,220 L45.9233015,220 Z" id="Path" fill="#FFFFFF" transform="translate(164.500000, 221.500000) rotate(-180.000000) translate(-164.500000, -221.500000) "></path>
                <path d="M14,219 L42.0289093,219 C43.1175126,219 44,219.870759 44,220.944895 L44,223 L14,223 L14,219.012966 L14,219 Z" id="Path" fill="#FFFFFF" transform="translate(29.000000, 221.000000) rotate(-180.000000) translate(-29.000000, -221.000000) "></path>
                <path d="M40,218 L286.513297,218 C286.810222,218.037441 287.024422,218.305608 287,218.606522 L287,220.393478 C287.024422,220.694392 286.810222,220.962559 286.513297,221 L40,221 L40,218 Z" id="Path" fill="#DDDDDD"></path>
                <path d="M13.5722407,218 L45.5137981,218 C45.8104174,218.037441 46.0243965,218.305608 45.9977611,218.606522 L45.9977611,220.393478 C46.0243965,220.694392 45.8104174,220.962559 45.5137981,221 L13.5722407,221 C13.2256627,220.95901 12.9741105,220.646991 13.0043908,220.295652 L13.0043908,218.723913 C12.9844231,218.551757 13.0330857,218.37865 13.1396314,218.242822 C13.246177,218.106994 13.4018398,218.019621 13.5722407,218 Z" id="Path" fill="#DDDDDD"></path>
                <path d="M13.5722407,218 L45.5137981,218 C45.8104174,218.037441 46.0243965,218.305608 45.9977611,218.606522 L45.9977611,220.393478 C46.0243965,220.694392 45.8104174,220.962559 45.5137981,221 L13.5722407,221 C13.2256627,220.95901 12.9741105,220.646991 13.0043908,220.295652 L13.0043908,218.723913 C12.9844231,218.551757 13.0330857,218.37865 13.1396314,218.242822 C13.246177,218.106994 13.4018398,218.019621 13.5722407,218 Z" id="Path" fill="url(#linearGradient-6)"></path>
                <path d="M216.927804,180.574429 C216.915617,180.682031 216.886916,180.786942 216.842782,180.885217 C216.664355,181.144866 216.334653,181.240572 216.051426,181.11493 C215.77915,180.980551 215.541575,180.781431 215.358171,180.533891 C215.393623,180.79157 215.252788,181.04058 215.018084,181.135199 C214.784669,181.219307 214.532961,181.233362 214.292129,181.175736 C213.739341,181.08119 213.207607,180.884356 212.722497,180.594698 C212.688485,181.115867 212.350632,181.563086 211.869516,181.723798 C211.3884,181.884509 210.861043,181.726304 210.538092,181.324374 L210.204545,182 C209.897159,181.83785 209.550531,182 209.197364,181.959462 C208.488356,181.820564 207.981468,181.171024 208.00052,180.425791 C208.035869,179.706884 208.213962,179.003169 208.52373,178.358376 C208.95489,177.227316 209.276918,176.055051 209.48513,174.858633 C209.522288,174.469981 209.640545,174.094267 209.831757,173.757362 C210.073938,173.44768 210.406613,173.227259 210.780077,173.12903 C212.532833,172.595285 214.553735,173.804656 215.659018,175.155908 C216.735271,176.728887 217.189142,178.667201 216.927804,180.574429 Z" id="Path" fill="#32384F"></path>
                <path d="M389.732451,283.020919 C389.777412,284.390761 389.532324,285.754093 389.014649,287.013785 C388.370626,288.186801 387.39963,289.127391 386.230826,289.710436 C383.729819,291.068243 380.823284,291.366892 378.116543,290.544182 C377.744635,290.470369 377.410314,290.260115 377.174038,289.95144 C377.039469,289.69491 376.980821,289.402496 377.00551,289.11118 C377.067928,287.554418 378.072851,286.21912 379.140191,285.124827 C380.207531,284.030534 381.405948,283.014405 382.067574,281.620484 C383.315926,279.015025 382.385904,271.999826 387.129638,273.120173 C391.08067,274.038598 389.838561,280.096291 389.732451,283.020919 Z" id="Path" fill="#FDB9A9"></path>
                <path d="M391.724937,287.203584 C391.724937,287.203584 392.443021,289.001905 391.558714,290.053753 C390.674407,291.105602 381.585327,296.839871 375.50156,292.232097 C369.417794,287.624323 383.786121,287 383.786121,287 L391.724937,287.203584 Z" id="Path" fill="#DDDDDD"></path>
                <path d="M390.489029,283.620335 C389.924787,283.352074 389.254319,283.530961 388.889093,284.047212 C387.704741,285.432337 385.90747,286.092959 384.134813,285.794739 C382.183673,285.314502 381.40972,283.013369 380.440654,283 C379.471587,282.98669 374.307568,287.502246 374.0214,289.436532 C373.735233,291.370818 376.362769,292.771507 379.282977,292.984946 C382.203184,293.198384 388.804544,291.09735 390.059778,289.529911 C391.315012,287.962473 391.15892,284.614158 390.489029,283.620335 Z" id="Path" fill="#FFFFFF"></path>
                <path d="M406.732364,286.012822 C406.776724,287.384328 406.531582,288.749227 406.014329,290.010681 C405.368541,291.183871 404.397669,292.125212 403.229604,292.710704 C400.727041,294.067585 397.820553,294.366505 395.112692,293.545494 C394.740664,293.471588 394.406235,293.261071 394.169882,292.95201 C394.034858,292.695442 393.978211,292.401868 394.007543,292.110699 C394.063737,290.55199 395.068986,289.215023 396.136672,288.119361 C397.204358,287.0237 398.409407,286.0063 399.065004,284.604114 C400.31376,281.995397 399.383437,274.977947 404.128708,276.125783 C408.08102,277.006225 406.838508,283.051928 406.732364,286.012822 Z" id="Path" fill="#FDB9A9"></path>
                <path d="M407.724937,290.20346 C407.724937,290.20346 408.443021,292.007472 407.558714,293.058682 C406.674407,294.109893 397.585327,299.840683 391.50156,295.228923 C385.417794,290.617162 399.786121,290 399.786121,290 L407.724937,290.20346 Z" id="Path" fill="#DDDDDD"></path>
                <path d="M407.489029,286.620335 C406.926292,286.350682 406.256173,286.526682 405.889093,287.040542 C404.704741,288.425668 402.90747,289.08629 401.134813,288.788069 C399.183673,288.314503 398.40972,286.013369 397.440654,286 C396.471587,285.98669 391.307568,290.495577 391.0214,292.436533 C390.735233,294.377488 393.362769,295.771508 396.282977,295.984947 C399.203184,296.198385 405.804544,294.09735 407.059778,292.523242 C408.315012,290.949133 408.15892,287.634168 407.489029,286.620335 Z" id="Path" fill="#FFFFFF"></path>
                <path d="M410.900061,213.626392 C410.900061,213.626392 411.82075,263.996069 408.073156,280.831165 L398.580982,282 L392,213 L410.900061,213.626392 Z" id="Path" fill="#473F47"></path>
                <path d="M381.753795,208 C381.753795,208 377.227404,235.176755 382.718113,278.831316 L392.341614,280 L399,211.008878 L381.753795,208 Z" id="Path" fill="#473F47"></path>
                <path d="M370.020719,185.810232 C370.122274,187.651694 370.699865,189.258077 372.254917,189.793537 C372.385832,189.839068 372.519382,189.876143 372.654788,189.904548 C375.511007,190.492248 379.262174,188.252455 381.877201,186.299982 C382.964221,185.489313 384.006751,184.617309 385,183.687979 L385,164 L371.093388,178.646811 C371.093388,178.646811 369.823958,182.584407 370.020719,185.810232 Z" id="Path" fill="#DDDDDD"></path>
                <path d="M382.027431,186.815173 C382.027431,187.733613 381.910045,188.671593 381.910045,189.590032 C381.910045,194.664247 383.083902,199.894791 381.570931,204.864785 C381.231817,205.978637 380.755753,207.16414 381.147038,208.258451 C381.584584,209.174703 382.339934,209.901393 383.273023,210.303769 C387.746721,212.746427 392.924733,213.495509 397.972316,214.212022 C401.774307,214.739636 407.161005,215.866515 410.676053,213.821196 C412.16946,212.954867 412.678131,211.332942 413.154195,209.717531 C414.673687,204.571666 415.110622,199.041489 415.521472,193.713238 C415.580165,193.009753 415.625815,192.306268 415.664944,191.602782 C415.960582,186.747864 416.060577,181.888604 415.964929,177.025001 C415.893194,173.501061 415.619294,169.690515 413.310709,167.026389 C410.239118,163.482907 404.311142,161.164011 399.811358,160.310709 C398.351202,160.010776 396.854767,159.927373 395.370267,160.063187 C393.267544,160.40017 391.236906,161.089466 389.364035,162.101991 C387.127186,163.202816 385.138151,164.140796 384.03603,166.348959 C382.830513,168.897622 381.991818,171.603727 381.544845,174.386931 C381.133157,176.999212 381.082687,179.655599 381.394853,182.281601 C381.531802,183.584351 381.870917,184.84802 381.988302,186.124715 C381.988302,186.352697 382.020909,186.587192 382.027431,186.815173 Z" id="Path" fill="#DDDDDD"></path>
                <path d="M402.850901,214.914365 C404.305061,215.346848 407.657348,214.010671 408.770488,213.810568 C409.413921,213.694378 410.057355,213.365175 410.700788,213.197347 C414.020904,212.371112 414.413398,203.017878 414.741549,200.500444 C415.597315,193.845382 416.922788,186.945032 417,180.28997 C417,177.707987 416.961394,175.093728 416.118496,172.666664 C415.275599,170.2396 413.544763,167.993274 411.144757,167.121855 C406.904531,165.585575 405.643402,179.031253 405.064312,181.819795 L401.879317,197.027676 C401.433368,198.895895 401.142824,200.798036 401.010682,202.714495 C400.894864,205.380392 401.744196,207.232965 402.426235,209.640665 C402.812295,210.963931 401.782802,213.51364 402.271811,214.481883 C402.398052,214.699167 402.607203,214.855367 402.850901,214.914365 Z" id="Path" fill="#020202" opacity="0.1"></path>
                <path d="M392.723475,155.497854 C393.256952,156.065884 393.980031,156.423725 394.759238,156.505321 C395.410007,156.572875 396.065529,156.583476 396.71818,156.537003 L397.083081,156.537003 C397.175196,156.521981 397.269743,156.537578 397.351956,156.581357 C397.428852,156.658936 397.470465,156.764194 397.467188,156.872825 C397.611206,158.162587 397.636918,159.462608 397.544009,160.75696 L397.544009,160.75696 C397.544009,160.991402 397.505598,161.219508 397.479991,161.45395 C397.432956,161.700133 397.4551,161.954373 397.544009,162.188957 C397.732504,162.454282 398.016612,162.637969 398.337828,162.702195 C398.909529,162.892734 399.507916,162.993226 400.111119,163 C401.401186,162.875915 402.640875,162.440807 403.721718,161.732746 C403.630655,159.519575 403.748533,157.302823 404.073815,155.111342 C404.48993,152.279028 405.238937,149.446715 404.925251,146.601729 C404.860845,145.47808 404.449706,144.401037 403.747325,143.515964 C402.71664,142.369099 401.045777,141.995259 399.490147,142.001595 C397.429016,141.966341 395.400792,142.516032 393.64533,143.585663 C393.005153,144.022866 392.92193,144.574122 392.774689,145.296457 C392.550627,146.411641 392.371378,147.545833 392.249744,148.67369 C392.108905,149.940944 392.025682,151.258888 392.006477,152.557824 C391.974468,153.590636 392.038486,154.743838 392.723475,155.497854 Z" id="Path" fill="#FDB9A9"></path>
                <path d="M394.690379,144.722045 C396.18449,144.97181 397.822139,144.722045 399.257529,145.293875 C401.214879,146.102324 402.063064,148.678843 401.410614,150.72297 C401.978245,150.926725 402.063064,149.894803 402.526303,149.474147 C402.989543,149.05349 403.955169,149.618747 404.026938,150.335177 C403.978614,151.060041 403.75459,151.76191 403.374488,152.379304 C402.834777,153.648408 402.740425,155.06489 403.106984,156.395257 C403.198327,156.704177 403.426684,157.052533 403.759434,156.993378 C404.092183,156.934223 404.287918,156.382112 404.477129,156.145492 C404.781386,155.778718 405.115277,155.437961 405.475377,155.126716 C406.166974,154.515449 406.93034,153.976483 407.641511,153.378363 C408.900739,152.320149 410.068625,150.874143 409.996855,149.217809 C409.953123,148.54512 409.727491,147.897312 409.344405,147.344574 C409.021941,146.862973 408.604382,146.453513 408.117799,146.14176 C407.91554,146.016878 407.687182,145.87885 407.641511,145.642231 C407.632653,145.510739 407.650411,145.378806 407.693707,145.254438 C408.124324,143.578386 407.197845,141.777451 405.8277,140.732383 C404.394399,139.762882 402.75304,139.150142 401.038717,138.944594 C399.942601,138.740839 398.833436,138.589665 397.724271,138.45821 C396.804407,138.405624 395.902023,138.182816 395.062276,137.800935 C395.282114,137.193631 395.578116,136.617128 395.943083,136.085446 C395.156451,136.320883 394.407258,136.668371 393.718229,137.117368 C393.756528,136.73156 393.855639,136.35437 394.011831,136 C392.811323,136.414084 391.532521,136.880749 390.749581,137.879808 C389.7949,139.201193 389.748189,140.978866 390.63214,142.349281 C391.48685,143.709841 392.837421,144.25538 394.318483,144.616881 L394.690379,144.722045 Z" id="Path" fill="#F9692D"></path>
                <path d="M397,156.406897 L397.327821,156.406897 C397.410576,156.390547 397.495515,156.407522 397.569374,156.455172 C397.638456,156.539612 397.675841,156.654177 397.672897,156.772414 C397.802281,158.176222 397.82538,159.591196 397.741912,161 L397.741912,161 C397.741912,161 401.112146,159.972414 400.997121,155 C399.716671,155.63452 398.384861,156.108312 397.023005,156.413793 L397,156.406897 Z" id="Path" fill="#DE9F93"></path>
                <path d="M358,180.773036 C359.862383,183.450629 362.168728,185.78034 364.816464,187.658556 C366.723105,188.974112 368.92822,189.776704 371.224718,189.99096 C371.526266,190.017921 371.830099,189.984434 372.118893,189.892408 C372.608761,189.741297 373.039415,189.437921 373.350003,189.025148 C374.306971,187.863568 374.882347,186.427979 374.995804,184.918802 C375.151312,180.976711 370.933139,178.677158 370.933139,178.677158 C370.933139,178.677158 361.330478,175.576046 360.190081,176.049097 C359.542128,176.325043 358.971929,177.691635 358.557239,178.880833 C358.220304,179.905776 358,180.773036 358,180.773036 Z" id="Path" fill="#DDDDDD"></path>
                <path d="M358,180.844493 C359.866905,183.472825 362.178852,185.759674 364.833018,187.603336 C366.744289,188.894688 368.954758,189.682515 371.256834,189.892829 C371.559114,189.919294 371.863685,189.886423 372.15318,189.79609 C372.287149,189.841057 372.423816,189.877675 372.562382,189.905728 C375.48525,190.486163 379.323951,188.274061 382,186.345727 L382,186.281234 L381.090663,180.476884 C379.339083,182.272947 377.302898,183.771845 375.063058,184.913987 C373.473785,185.762705 371.656173,186.094326 369.866847,185.862031 C369.386092,185.790849 368.918038,185.651862 368.476861,185.449277 C364.90145,183.738559 361.56702,181.570371 358.558593,179 C358.220839,179.993189 358,180.844493 358,180.844493 Z" id="Path" fill="#020202" opacity="0.1"></path>
                <path d="M422.039795,186.833233 C423.312587,190.238482 424.375369,193.849719 423.872616,197.441645 C423.23622,201.799591 420.391529,205.443014 417.635934,208.848263 C415.465823,209.176557 412.621133,209.131497 411.857457,207.058737 C411.66215,206.390862 411.612214,205.688114 411.711086,204.998851 L412.016556,200.492851 C412.156563,198.484462 412.283843,196.424577 411.711086,194.499871 C411.07469,192.304805 409.560067,190.489531 408.370006,188.539076 C406.430763,185.359778 405.280144,181.753387 405.016199,178.027221 C404.768004,174.53829 407.377229,163.221792 412.474761,166.633478 C414.587597,168.030338 416.458601,173.836641 417.56593,176.166887 C419.233288,179.647236 420.724576,183.202685 422.039795,186.833233 Z" id="Path" fill="#DDDDDD"></path>
                <path d="M410.311188,212.981982 C410.187089,213.149296 410.123505,213.352705 410.130583,213.559748 C410.130583,213.762918 410.382139,213.953391 410.569194,213.858155 C411.091657,215.451773 410.00158,217.12158 410.00158,218.797736 C409.994013,218.948097 410.013669,219.098585 410.059632,219.242171 C410.137378,219.426783 410.270041,219.583927 410.440191,219.692956 C411.02248,220.054205 411.751301,220.09964 412.375238,219.813588 C412.985479,219.529686 413.531627,219.128114 413.981327,218.63266 C414.961178,217.74721 415.707238,216.640209 416.155029,215.407329 C416.317643,214.834354 416.425614,214.247698 416.477537,213.654984 L417,209.280471 C413.652369,208.207477 411.852775,210.378861 410.311188,212.981982 Z" id="Path" fill="#FDB9A9"></path>
                <path d="M358.979231,172.982856 C358.885901,172.688952 358.715306,172.423611 358.484188,172.212874 C358.234117,172.009163 357.862373,172.034292 357.643918,172.269676 C357.562497,172.430827 357.507554,172.603312 357.481075,172.780894 C357.304562,173.176278 356.896255,173.426671 356.451907,173.412026 C356.017554,173.389177 355.591322,173.288604 355.194759,173.115394 C354.048699,172.698561 352.878597,172.346636 351.690377,172.061403 C351.414439,171.979532 351.119531,171.979532 350.843593,172.061403 C350.552047,172.210266 350.335666,172.46778 350.244331,172.774582 C349.745965,174.197465 350.020167,175.767832 350.973868,176.95268 C351.937361,178.108639 353.248852,178.944768 354.725771,179.344673 C356.194012,179.731689 357.705513,179.943633 359.226753,179.975806 C359.611684,180.036007 360.006402,179.983255 360.36014,179.824334 C362.229578,178.776654 359.454733,174.156763 358.979231,172.982856 Z" id="Path" fill="#FDB9A9"></path>
                <rect id="Rectangle" fill="#DDDDDD" x="287" y="112" width="6" height="36"></rect>
                <rect id="Rectangle" fill="#DDDDDD" x="296" y="127" width="6" height="21"></rect>
                <rect id="Rectangle" fill="#DDDDDD" x="305" y="134" width="6" height="15"></rect>
                <rect id="Rectangle" fill="#DDDDDD" x="313" y="122" width="6" height="26"></rect>
                <rect id="Rectangle" fill="#DDDDDD" x="322" y="116" width="6" height="32"></rect>
                <rect id="Rectangle" fill="#DDDDDD" x="331" y="112" width="6" height="36"></rect>
            </g>
        </g>
    </g>
</svg>