<?xml version="1.0" encoding="UTF-8"?>
<svg width="379px" height="323px" viewBox="0 0 379 323" version="1.1" xmlns="http://www.w3.org/2000/svg" xmlns:xlink="http://www.w3.org/1999/xlink">
    <title>Illustration 14</title>
    <defs>
        <linearGradient x1="38.8397028%" y1="103.338622%" x2="71.805734%" y2="12.0881445%" id="linearGradient-1">
            <stop stop-color="#000000" stop-opacity="0" offset="0%"></stop>
            <stop stop-color="#000000" offset="99%"></stop>
        </linearGradient>
        <linearGradient x1="0%" y1="50%" x2="100%" y2="50%" id="linearGradient-2">
            <stop stop-color="#000000" stop-opacity="0" offset="0%"></stop>
            <stop stop-color="#000000" offset="99%"></stop>
        </linearGradient>
        <linearGradient x1="43.4108834%" y1="46.892027%" x2="73.4371774%" y2="103.920326%" id="linearGradient-3">
            <stop stop-color="#000000" stop-opacity="0" offset="0%"></stop>
            <stop stop-color="#000000" offset="80%"></stop>
        </linearGradient>
        <linearGradient x1="41.5483896%" y1="46.418591%" x2="65.1407054%" y2="82.8386211%" id="linearGradient-4">
            <stop stop-color="#000000" stop-opacity="0" offset="0%"></stop>
            <stop stop-color="#000000" offset="80%"></stop>
        </linearGradient>
        <linearGradient x1="0.0256712107%" y1="49.8949207%" x2="100.016975%" y2="49.8949207%" id="linearGradient-5">
            <stop stop-color="#E5C5D5" offset="0%"></stop>
            <stop stop-color="#EAD4D1" offset="42%"></stop>
            <stop stop-color="#F0E9CB" offset="100%"></stop>
        </linearGradient>
        <linearGradient x1="41.5183153%" y1="102.518709%" x2="61.3392059%" y2="-60.243524%" id="linearGradient-6">
            <stop stop-color="#000000" stop-opacity="0" offset="0%"></stop>
            <stop stop-color="#000000" offset="99%"></stop>
        </linearGradient>
        <linearGradient x1="59.4753495%" y1="47.4915378%" x2="37.9324317%" y2="94.3702853%" id="linearGradient-7">
            <stop stop-color="#000000" stop-opacity="0" offset="0%"></stop>
            <stop stop-color="#000000" offset="99%"></stop>
        </linearGradient>
        <linearGradient x1="0.249455271%" y1="50.0302675%" x2="99.9848042%" y2="50.0302675%" id="linearGradient-8">
            <stop stop-color="#867580" offset="0%"></stop>
            <stop stop-color="#9B8F8E" offset="57%"></stop>
        </linearGradient>
        <linearGradient x1="-0.0219445163%" y1="50.0381114%" x2="99.9979245%" y2="50.0381114%" id="linearGradient-9">
            <stop stop-color="#E5C5D5" offset="0%"></stop>
            <stop stop-color="#EAD4D1" offset="42%"></stop>
            <stop stop-color="#F0E9CB" offset="100%"></stop>
        </linearGradient>
        <linearGradient x1="38.6965282%" y1="25.2038737%" x2="81.1746065%" y2="128.358913%" id="linearGradient-10">
            <stop stop-color="#000000" stop-opacity="0" offset="0%"></stop>
            <stop stop-color="#000000" offset="99%"></stop>
        </linearGradient>
        <linearGradient x1="-0.113603062%" y1="49.8288221%" x2="99.8867061%" y2="49.8288221%" id="linearGradient-11">
            <stop stop-color="#867580" offset="0%"></stop>
            <stop stop-color="#9B8F8E" offset="57%"></stop>
        </linearGradient>
        <linearGradient x1="-0.00127744307%" y1="49.9893557%" x2="99.9999115%" y2="49.9893557%" id="linearGradient-12">
            <stop stop-color="#E5C5D5" offset="0%"></stop>
            <stop stop-color="#EAD4D1" offset="42%"></stop>
            <stop stop-color="#F0E9CB" offset="100%"></stop>
        </linearGradient>
        <linearGradient x1="0.0130601311%" y1="49.8913193%" x2="99.9846848%" y2="49.8913193%" id="linearGradient-13">
            <stop stop-color="#E5C5D5" offset="0%"></stop>
            <stop stop-color="#EAD4D1" offset="42%"></stop>
            <stop stop-color="#F0E9CB" offset="100%"></stop>
        </linearGradient>
        <linearGradient x1="-0.0651339398%" y1="49.9323184%" x2="100.011651%" y2="49.9323184%" id="linearGradient-14">
            <stop stop-color="#E5C5D5" offset="0%"></stop>
            <stop stop-color="#EAD4D1" offset="42%"></stop>
            <stop stop-color="#F0E9CB" offset="100%"></stop>
        </linearGradient>
        <linearGradient x1="-0.00918234648%" y1="49.9962897%" x2="100.105963%" y2="49.9962897%" id="linearGradient-15">
            <stop stop-color="#867580" offset="0%"></stop>
            <stop stop-color="#9B8F8E" offset="57%"></stop>
        </linearGradient>
        <linearGradient x1="-0.646429637%" y1="50.0695806%" x2="100.194126%" y2="50.0695806%" id="linearGradient-16">
            <stop stop-color="#867580" offset="0%"></stop>
            <stop stop-color="#9B8F8E" offset="57%"></stop>
        </linearGradient>
        <linearGradient x1="-0.140367158%" y1="49.7577999%" x2="99.7730968%" y2="49.7577999%" id="linearGradient-17">
            <stop stop-color="#867580" offset="0%"></stop>
            <stop stop-color="#9B8F8E" offset="57%"></stop>
        </linearGradient>
        <linearGradient x1="-0.133592001%" y1="49.9775582%" x2="100.064254%" y2="49.9775582%" id="linearGradient-18">
            <stop stop-color="#E5C5D5" offset="0%"></stop>
            <stop stop-color="#EAD4D1" offset="42%"></stop>
            <stop stop-color="#F0E9CB" offset="100%"></stop>
        </linearGradient>
        <linearGradient x1="0.0112548759%" y1="49.9925966%" x2="100.018606%" y2="49.9925966%" id="linearGradient-19">
            <stop stop-color="#E5C5D5" offset="0%"></stop>
            <stop stop-color="#EAD4D1" offset="42%"></stop>
            <stop stop-color="#F0E9CB" offset="100%"></stop>
        </linearGradient>
        <linearGradient x1="0.0261997257%" y1="50.0851419%" x2="100.178433%" y2="50.0851419%" id="linearGradient-20">
            <stop stop-color="#E5C5D5" offset="0%"></stop>
            <stop stop-color="#EAD4D1" offset="42%"></stop>
            <stop stop-color="#F0E9CB" offset="100%"></stop>
        </linearGradient>
        <linearGradient x1="14.3305974%" y1="107.781636%" x2="118.504689%" y2="-77.909916%" id="linearGradient-21">
            <stop stop-color="#000000" stop-opacity="0" offset="0%"></stop>
            <stop stop-color="#000000" offset="99%"></stop>
        </linearGradient>
        <linearGradient x1="0.0186484431%" y1="49.9713584%" x2="100.007696%" y2="49.9713584%" id="linearGradient-22">
            <stop stop-color="#E5C5D5" offset="0%"></stop>
            <stop stop-color="#EAD4D1" offset="42%"></stop>
            <stop stop-color="#F0E9CB" offset="100%"></stop>
        </linearGradient>
        <linearGradient x1="-0.123820494%" y1="50.4884359%" x2="100.006397%" y2="50.4884359%" id="linearGradient-23">
            <stop stop-color="#E5C5D5" offset="0%"></stop>
            <stop stop-color="#EAD4D1" offset="42%"></stop>
            <stop stop-color="#F0E9CB" offset="100%"></stop>
        </linearGradient>
        <linearGradient x1="-0.0516230335%" y1="49.9041524%" x2="99.9294564%" y2="49.9041524%" id="linearGradient-24">
            <stop stop-color="#E5C5D5" offset="0%"></stop>
            <stop stop-color="#EAD4D1" offset="42%"></stop>
            <stop stop-color="#F0E9CB" offset="100%"></stop>
        </linearGradient>
    </defs>
    <g id="DESIGN-SYSTEM" stroke="none" stroke-width="1" fill="none" fill-rule="evenodd">
        <g id="Illustrations" transform="translate(-629.000000, -2053.000000)">
            <g id="Illustration-14" transform="translate(629.000000, 2053.000000)">
                <path d="M1.6141005,243.820043 C-0.474681994,218.613834 -2.34923038,192.076279 8.33569544,169.148547 C14.3386379,156.675294 22.0741423,145.114768 31.3123028,134.810561 C39.5603158,125.678783 52.5214789,123.346695 63.0457292,117.833674 C80.0951931,108.898471 91.5120854,92.1270939 100.893754,75.311041 C110.275422,58.4949882 118.568067,40.6335165 132.136227,26.9447848 C147.186173,11.7013278 168.020439,2.73931875 189.309953,0.559129109 C210.599467,-1.62106053 232.326375,2.70357793 251.955575,11.2813732 C260.953407,15.2217979 269.67452,20.1272246 276.726393,26.9805257 C291.526399,41.3751384 297.257161,62.3728665 304.978515,81.5299426 C309.213923,92.0385977 314.201885,102.227397 319.903491,112.016857 C324.964771,120.701874 332.489744,128.752493 336.792279,137.705567 C341.094814,146.65864 343.710255,155.531297 349.217857,164.091222 C354.413034,172.177581 360.161649,179.924403 364.812314,188.359235 C375.453155,207.796174 379.818831,230.054933 377.309304,252.076171 C375.99712,263.307721 372.73005,274.619689 365.776368,283.528087 C358.179984,293.258523 346.888061,299.307656 335.551507,304.177342 C288.88898,324.068212 237.053084,328.327608 187.774608,316.320283 C170.216339,311.98671 152.961567,305.598039 134.94805,304.400722 C116.756004,303.203405 98.6978543,307.38508 80.5861462,309.458047 C63.0368027,311.468468 37.0787707,311.816941 21.6182097,301.66655 C4.9882876,290.738796 3.0691071,261.422393 1.6141005,243.820043 Z" id="Path" fill="#DDDDDD" fill-rule="nonzero" opacity="0.18"></path>
                <path d="M158.748976,219.741855 C159.262847,228.042269 157.862993,236.396524 158.624939,244.678992 C158.890734,247.371018 159.378025,250.188672 158.492041,252.75507 C157.672958,254.956337 156.057447,256.75939 153.973525,257.798133 C149.127195,260.310691 142.827852,258.695475 139.044702,254.702303 C135.261552,250.709131 133.728801,244.957168 134.038895,239.447487 C134.348989,233.937807 136.244994,228.679382 138.513112,223.654266 C140.550874,219.167556 143.98849,210.310789 149.029737,208.39945 C155.541716,205.994573 158.465462,215.039782 158.748976,219.741855 Z" id="Path" fill="#3E3E54" fill-rule="nonzero"></path>
                <path d="M149.641961,205.106891 C147.589196,201.415477 141.91496,199.87293 137.818395,201.896966 C136.603223,202.65575 135.336205,203.329098 134.026607,203.912086 C132.484793,204.42924 130.808518,204.295493 129.194991,204.45599 C124.004813,204.990977 119.406262,209.0123 118.62639,213.684524 C118.187153,216.359462 118.868419,219.034399 118.438146,221.709337 C117.425209,228.02219 110.496008,232.783579 109.796813,239.123181 C109.572712,241.182883 110.038842,243.233668 110.218123,245.284454 C110.532605,249.136387 109.860278,253.004757 108.263963,256.528108 C107.12553,259.051466 105.520967,261.458909 105.099658,264.142763 C104.266002,269.492639 108.774913,274.628519 114.422257,276.269147 C120.0696,277.909776 126.416139,276.616889 131.76767,274.093531 C137.666006,271.311596 142.918932,266.755286 144.693812,260.986337 C147.472664,251.98963 141.368154,242.42227 144.111149,233.416647 C144.871236,231.32399 145.769599,229.283615 146.800361,227.308873 C149.489572,221.459676 152.958655,211.089835 149.641961,205.106891 Z" id="Path" fill="#3E3E54" fill-rule="nonzero"></path>
                <path d="M127.020105,239.026778 C127.081768,236.64082 126.70298,233.782914 128.535255,232.270933 C128.690296,232.124775 128.887325,232.03009 129.099032,232 C129.305619,232.009976 129.506013,232.073236 129.680426,232.183535 C131.683067,233.272214 133.473103,234.707787 134.965833,236.422326 C136.798108,238.528611 138.225167,241.080625 140.585982,242.540167 C141.537356,243.143212 142.603246,243.545241 143.589855,244.069628 C145.629122,245.163143 147.342555,246.769671 148.558138,248.727927 C148.917399,249.199484 149.066954,249.796161 148.972161,250.379744 C148.751936,251.122625 147.888653,251.445997 147.122269,251.594573 C144.917384,251.964601 142.67693,252.081901 140.445038,251.944164 C137.402993,251.862592 134.363884,251.740236 131.327711,251.577093 C129.370123,251.539441 127.422942,251.284399 125.522573,250.816733 C124.712144,250.589499 123.223421,250.030153 123.020814,249.068778 C122.818206,248.107403 124.148367,247.128548 124.685717,246.315749 C126.12018,244.143197 126.927513,241.622353 127.020105,239.026778 Z" id="Path" fill="url(#linearGradient-1)" fill-rule="nonzero"></path>
                <rect id="Rectangle" fill="#DDDDDD" fill-rule="nonzero" x="0" y="283" width="379" height="14"></rect>
                <rect id="Rectangle" fill="url(#linearGradient-2)" fill-rule="nonzero" x="0" y="283" width="379" height="7"></rect>
                <path d="M159.133906,261.664102 L162,285.324659 C141.368394,286.376584 120.692113,286.199499 100.081717,284.794351 C99.6203026,280.543052 101.190887,276.353622 102.832458,272.420507 C106.914202,262.627494 112.64639,252.145081 122.788637,248.93672 C130.543951,246.479628 137.349815,249.546574 144.972029,250.306681 C148.752078,250.686735 152.895936,249.422835 155.886257,252.419073 C158.175583,254.717073 158.752351,258.552964 159.133906,261.664102 Z" id="Path" fill="#DDDDDD" fill-rule="nonzero"></path>
                <path d="M159.133906,261.664102 L162,285.324659 C141.368394,286.376584 120.692113,286.199499 100.081717,284.794351 C99.6203026,280.543052 101.190887,276.353622 102.832458,272.420507 C106.914202,262.627494 112.64639,252.145081 122.788637,248.93672 C130.543951,246.479628 137.349815,249.546574 144.972029,250.306681 C148.752078,250.686735 152.895936,249.422835 155.886257,252.419073 C158.175583,254.717073 158.752351,258.552964 159.133906,261.664102 Z" id="Path" fill="url(#linearGradient-3)" fill-rule="nonzero"></path>
                <path d="M68.324367,247.94528 C70.7619877,248.521059 73.2623413,249.220851 75.2249844,250.762165 C76.7369262,252.057452 77.9998861,253.61188 78.9531102,255.350674 C83.7450439,263.277261 86.7982977,272.11071 87.914951,281.278412 C88.0724958,282.021175 88.01027,282.793071 87.7357142,283.501802 C87.0635761,284.848237 85.2174369,285.016542 83.693924,284.998825 L12.9850001,284.245885 L5,284.74194 C6.79236816,276.875923 12.0081595,250.779881 23.237346,247.396076 C27.7373161,246.280843 32.3189572,245.516694 36.9400006,245.11068 C41.749501,244.914257 46.5662895,244.979314 51.3685642,245.305559 C57.0822436,245.740759 62.7519738,246.623437 68.324367,247.94528 L68.324367,247.94528 Z" id="Path" fill="#DDDDDD" fill-rule="nonzero"></path>
                <path d="M68.324367,247.94528 C70.7619877,248.521059 73.2623413,249.220851 75.2249844,250.762165 C76.7369262,252.057452 77.9998861,253.61188 78.9531102,255.350674 C83.7450439,263.277261 86.7982977,272.11071 87.914951,281.278412 C88.0724958,282.021175 88.01027,282.793071 87.7357142,283.501802 C87.0635761,284.848237 85.2174369,285.016542 83.693924,284.998825 L12.9850001,284.245885 L5,284.74194 C6.79236816,276.875923 12.0081595,250.779881 23.237346,247.396076 C27.7373161,246.280843 32.3189572,245.516694 36.9400006,245.11068 C41.749501,244.914257 46.5662895,244.979314 51.3685642,245.305559 C57.0822436,245.740759 62.7519738,246.623437 68.324367,247.94528 L68.324367,247.94528 Z" id="Path" fill="url(#linearGradient-4)" fill-rule="nonzero"></path>
                <path d="M56.9757315,245.376033 C56.9983133,246.532622 56.8458083,247.686121 56.5231617,248.799124 C55.5275082,251.691503 52.0879777,253.372091 49.0014517,252.929831 C45.8800311,252.349042 43.2225446,250.361985 41.8327461,247.569641 C40.4922653,244.812196 39.8703796,241.773603 40.0224669,238.724444 C39.9289991,237.339733 40.2870827,235.961705 41.0452746,234.788332 C42.0827611,233.66322 43.5595257,233.020404 45.1093514,233.019292 C47.8620811,232.855157 50.5722868,233.743265 52.6672671,235.495947 C53.6900748,236.380467 55.6813819,237.105773 56.2878254,238.061054 C57.0300399,239.378989 57.0390913,243.766207 56.9757315,245.376033 Z" id="Path" fill="url(#linearGradient-5)" fill-rule="nonzero"></path>
                <path d="M42,236 C42,236 51.2360659,250.349969 54.5962346,246.26982 C56.5890731,243.85717 57.4003522,240.698993 56.8128904,237.640741 L42,236 Z" id="Path" fill="url(#linearGradient-6)" fill-rule="nonzero"></path>
                <path d="M75.1474934,247 L69.558807,250.775849 C69.1257572,251.034663 68.7329496,251.354113 68.3926285,251.724243 C67.9113277,252.41373 67.603765,253.206884 67.4955681,254.037615 C65.7375548,262.49294 64.9044839,271.110485 65.0107107,279.741751 C64.9587607,280.646099 65.0961836,281.551312 65.4143879,282.4008 C65.9257719,283.3883 66.7695859,284.168755 67.8005686,284.60781 C69.854837,285.591658 72.2141058,285.671429 74.4926393,285.733474 L83.5439788,285.972788 C84.4511765,286.052656 85.3654243,285.956301 86.2351601,285.689156 C88.3253108,284.891442 89.1416358,282.329892 88.9801649,280.122881 C88.6771969,277.798749 87.9860457,275.540391 86.9348672,273.439806 L80.7810328,259.187306 C79.2919125,255.650771 78.0001455,249.667912 75.1474934,247 Z" id="Path" fill="#DDDDDD" fill-rule="nonzero"></path>
                <path d="M134.771096,279.206278 C136.55788,279.176056 138.340911,279.377938 140.074083,279.806705 C141.824055,280.258601 143.237636,281.526787 143.856881,283.200421 C144.519755,285.532514 142.787445,287.995134 140.569029,289.030653 C138.350613,290.066172 135.79634,290.031364 133.339289,289.979153 L113.54147,289.517956 C111.2377,289.570392 108.937875,289.30383 106.709454,288.726089 C104.459061,288.122858 102.571849,286.612385 101.512527,284.56661 C100.08072,281.416545 101.804191,277.483314 104.756187,275.612419 C109.237212,272.784321 114.0099,274.202721 118.51744,275.873474 C123.723498,277.819385 129.208863,278.944156 134.771096,279.206278 Z" id="Path" fill="#DDDDDD" fill-rule="nonzero"></path>
                <path d="M289,285.815349 C292.947423,275.562939 301.170481,261.214942 305.117904,250.962532 C306.962992,246.176879 309.056456,241.104446 313.358704,238.326258 C316.259394,236.462183 319.781028,235.960317 323.196214,235.494298 L340.183438,233.137319 C344.742933,232.518948 348.406497,234.033509 352.114413,236.784811 C355.822329,239.536114 358.589961,243.398691 360.985026,247.377773 C366.541475,256.576817 370.484681,266.67574 372.641012,277.229852 C373.111154,279.559945 373.386143,282.329171 371.709598,284.005046 C370.494324,285.232826 368.613754,285.456873 366.892855,285.546492 C342.312385,286.95351 313.660305,284.515874 289,285.815349 Z" id="Path" fill="#DDDDDD" fill-rule="nonzero"></path>
                <path d="M289,285.815349 C292.947423,275.562939 301.170481,261.214942 305.117904,250.962532 C306.962992,246.176879 309.056456,241.104446 313.358704,238.326258 C316.259394,236.462183 319.781028,235.960317 323.196214,235.494298 L340.183438,233.137319 C344.742933,232.518948 348.406497,234.033509 352.114413,236.784811 C355.822329,239.536114 358.589961,243.398691 360.985026,247.377773 C366.541475,256.576817 370.484681,266.67574 372.641012,277.229852 C373.111154,279.559945 373.386143,282.329171 371.709598,284.005046 C370.494324,285.232826 368.613754,285.456873 366.892855,285.546492 C342.312385,286.95351 313.660305,284.515874 289,285.815349 Z" id="Path" fill="url(#linearGradient-7)" fill-rule="nonzero"></path>
                <path d="M334.746649,237.979962 C332.835279,240.483197 329.572702,241.567144 326.527894,240.710533 C326.068547,240.592212 325.641384,240.374199 325.277214,240.072218 C324.939424,239.726001 324.67513,239.315994 324.5,238.866511 C323.151058,235.76359 323.088524,232.288319 323.034924,228.910568 C322.91515,227.538926 323.104344,226.158019 323.588796,224.867906 C325.259347,221.250787 333.147565,217.615937 335.684659,222.03095 C337.819748,225.754455 337.248009,234.584481 334.746649,237.979962 Z" id="Path" fill="url(#linearGradient-8)" fill-rule="nonzero"></path>
                <path d="M81.613215,183.539815 C80.056515,182.641441 78.0550414,182.883436 76.783432,184.123777 C75.5826582,185.376733 74.9459005,187.028314 75.009996,188.723601 C74.9482506,189.711826 75.1734461,190.697161 75.6608847,191.571539 C76.1729864,192.449937 77.1434703,192.996257 78.1984075,193 C78.9836039,192.908078 79.7106993,192.558664 80.2548385,192.011757 C81.4367804,190.819448 82.064059,189.223653 81.9948203,187.585247 C81.9255816,185.94684 81.1656742,184.404218 79.8869449,183.30623" id="Path" fill="#FFFFFF" fill-rule="nonzero"></path>
                <path d="M95.6831099,173.326085 C94.5862693,174.969121 94.7766301,177.547145 96.4989417,178.581986 C97.3323413,179.028045 98.2766858,179.223484 99.2183811,179.144794 C100.326724,179.107359 101.424715,178.917995 102.481708,178.581986 C102.805389,178.436216 103.163849,178.385835 103.515095,178.436745 C103.822812,178.569303 104.095805,178.771229 104.312798,179.026786 C106.014957,180.483176 108.573808,180.282 110.028153,178.577447 C111.482497,176.872894 111.281604,174.310442 109.579445,172.854052 C109.352825,172.672501 109.071817,172.45464 109.108076,172.164158 C109.135083,172.011994 109.204176,171.870469 109.307501,171.755669 C110.368051,170.118663 109.970598,167.937552 108.401022,166.781171 C105.137694,164.511784 104.485029,167.734314 103.07092,169.504436 C101.239831,171.819211 97.5867175,170.512044 95.6831099,173.326085 Z" id="Path" fill="#FFFFFF" fill-rule="nonzero"></path>
                <path d="M134.993063,156.983421 C136.320296,156.892928 137.782961,156.530956 138.478179,155.399793 C138.810226,154.773105 138.980915,154.073246 138.974762,153.363699 C139.035278,152.227499 138.986903,151.088101 138.830302,149.961161 C138.297603,146.160452 132.934497,144.314394 130.966219,148.006511 C128.997941,151.698627 129.891792,157.345394 134.993063,156.983421 Z" id="Path" fill="#FFFFFF" fill-rule="nonzero"></path>
                <path d="M167.425571,171.329465 C167.119063,171.065893 166.718901,171.508317 166.574161,171.894262 C165.674884,174.257882 165.839042,176.95238 167.016894,179.161314 C167.141955,179.419541 167.31979,179.641942 167.536254,179.81083 C167.755007,179.943526 168.002071,180.008564 168.251438,179.999096 C169.559784,179.893698 170.648581,178.847094 170.924865,177.42927 C171.156294,176.02582 170.847712,174.57925 170.073456,173.43804 C169.387131,172.300884 168.382078,171.444336 167.212718,171" id="Path" fill="#FFFFFF" fill-rule="nonzero"></path>
                <path d="M238.963838,181.951824 C240.030522,181.924122 240.891322,181.096355 240.92992,180.061189 C241.649893,176.100714 236.683922,169.308767 232.391772,173.125877 C228.099622,176.942987 234.71784,182.579048 238.963838,181.951824 Z" id="Path" fill="#FFFFFF" fill-rule="nonzero"></path>
                <path d="M278.516241,149.731352 C279.427845,148.011641 279.020027,145.847431 277.554393,144.627024 C276.654787,143.866515 275.397717,143.790781 274.422004,144.438307 C273.383549,145.256078 273.315453,146.837701 273.340989,148.203648 C272.353606,147.700405 271.110864,148.706892 271.000209,149.857163 C270.987832,151.03794 271.525552,152.149825 272.438725,152.831693 C273.349564,153.67855 274.549356,154.094282 275.758377,153.981964 C276.980123,153.837811 277.97229,152.87398 278.209812,151.600543 C278.311955,150.746826 277.988502,149.86615 278.150228,149.021419" id="Path" fill="#FFFFFF" fill-rule="nonzero"></path>
                <path d="M292.948415,163.954924 C291.900045,163.430391 290.708568,163.291605 289.572767,163.56172 C289.127802,163.638583 288.719108,163.861983 288.408122,164.198336 C288.105432,164.653809 287.964088,165.202489 288.007776,165.752429 C288.007214,166.573616 288.108109,167.391546 288.308036,168.18655 C288.39988,168.73234 288.657976,169.233959 289.045037,169.618936 C289.891224,170.33981 291.155955,169.899796 292.156821,169.431696 C292.930218,169.066578 293.803701,168.589116 293.976578,167.727812 C294.048728,167.187046 293.953205,166.636644 293.703614,166.154995 C293.245482,165.035499 292.659004,163.976328 291.956648,163" id="Path" fill="#FFFFFF" fill-rule="nonzero"></path>
                <path d="M316.54249,167.974525 C315.730158,169.2974 315.839683,171.071994 316.806823,172.257431 C317.231456,172.802403 317.871203,173.074356 318.512201,172.982377 C319.279384,172.709975 319.83729,171.966985 319.944718,171.074624 C320.286094,168.7893 319.01454,166.589469 317.011469,166" id="Path" fill="#FFFFFF" fill-rule="nonzero"></path>
                <path d="M174.417998,29.7633996 C170.832101,32.3951455 168.010448,35.9365583 166.243212,40.0234442 C165.881283,40.95112 165.333305,41.7945361 164.633161,42.5015435 C163.023111,43.9099597 160.594692,43.4553444 158.47761,43.1879236 C150.696045,42.182534 142.886563,44.8288873 137.310882,50.3605675 C131.735201,55.8922478 129.01625,63.6912437 129.941469,71.4988718 C122.424936,71.7752066 116.714149,78.8975138 114.881716,86.2070155 C112.869841,94.1002516 114.337371,102.479209 118.91129,109.214118 C123.599169,115.884733 131.228839,119.857187 139.370493,119.86638 C138.863461,125.544615 141.434204,131.017827 144.316283,135.911627 C146.264355,139.227645 148.43481,142.499093 151.432528,144.932622 C154.430246,147.366151 158.326389,148.89045 162.106894,148.221898 C162.676194,156.716965 170.486272,163.58968 178.892336,164.775245 C187.2984,165.960811 195.846789,162.332802 202.295886,156.797192 C205.77395,160.148865 211.235668,160.755019 215.870122,159.409001 C220.504577,158.062983 224.462988,155.041128 228.074482,151.840993 C234.834914,153.784251 241.862206,150.459319 248.115606,147.232441 C252.091807,145.173301 256.25481,142.953708 258.629857,139.156333 C261.004904,135.358958 261.2006,130.652352 260.213221,126.355791 C259.225842,122.05923 257.12655,118.101402 255.053944,114.205973 C258.656543,112.102263 262.365885,109.900498 264.785408,106.49534 C267.204932,103.090182 267.961033,98.125069 265.42587,94.8179651 C264.776513,93.9711326 263.931459,93.2134404 263.709076,92.1437572 C263.451113,90.9581917 264.10047,89.7904542 264.598607,88.6940289 C267.053711,83.345613 266.324296,76.936428 263.806925,71.6236682 C261.289553,66.3109083 257.171027,61.9341213 252.812327,57.9941216 C249.538854,55.0435788 246.034104,52.2445745 241.951159,50.6133077 C237.868213,48.9820408 233.055853,48.6522218 229.141918,50.6133077 C228.047796,47.1814074 226.882511,43.6247109 224.418511,41.0039871 C221.954511,38.3832633 217.791508,36.9748471 214.633675,38.7665664 C215.736693,38.1336705 208.451437,30.9578792 207.713127,30.4319516 C204.547739,28.1976728 200.881382,26.7800929 197.03876,26.3047573 C190.571873,25.5648931 179.933087,25.9749384 174.417998,29.7633996 Z" id="Path" fill="#FFFFFF" fill-rule="nonzero"></path>
                <path d="M222.762426,249.346603 C218.390216,254.026627 215.856119,260.085745 213.402328,265.993608 L206.424638,282.898637 C205.960254,283.679142 205.871817,284.626305 206.18372,285.478879 C206.724479,286.152316 207.532039,286.55819 208.396594,286.591052 C211.969044,287.129083 215.566644,287.48544 219.175429,287.658738 C237.336459,288.791671 255.515334,289.206883 273.712055,288.904372 C275.889237,288.904372 278.173493,288.797603 280.100835,287.818891 C285.115492,285.283136 285.517021,278.33428 284.624734,272.800107 C283.597082,266.374499 281.781037,260.099254 279.21747,254.115601 C278.320612,251.73602 277.002955,249.536154 275.327096,247.620511 C271.169035,243.278587 264.557183,242.584591 258.543164,242.415541 C247.023729,242.059646 231.381925,240.102221 222.762426,249.346603 Z" id="Path" fill="#DDDDDD" fill-rule="nonzero"></path>
                <path d="M209.878048,245.076568 C209.674706,244.403997 209.261327,243.81137 208.696451,243.382612 C208.205969,243.135193 207.660024,243.013191 207.108963,243.027856 C205.50743,242.959931 203.902943,243.016276 202.310418,243.196365 C201.289874,243.22789 200.309138,243.593022 199.523294,244.234024 C198.95144,244.908581 198.599418,245.736824 198.513074,246.610885 C197.22324,253.484268 198.70249,260.517292 199.279759,267.479365 C199.667611,272.224217 199.71271,277.235135 202.319438,281.279345 C204.704324,284.870789 208.781086,287.02538 213.143223,287 C214.947187,287 217.021746,286.343477 217.716272,284.702734 C217.989764,283.873502 218.066893,282.993778 217.941767,282.130758 C217.102924,269.634503 215.2719,256.570639 209.878048,245.076568 Z" id="Path" fill="#DDDDDD" fill-rule="nonzero"></path>
                <path d="M208.520108,239.247577 C209.350626,237.425174 210.469641,235.762787 211.457521,234.020392 C211.740071,233.590789 211.922463,233.101273 211.990801,232.58914 C212.054265,232.060791 211.784998,231.548733 211.317644,231.309013 C210.329764,230.926753 209.569184,232.313557 208.511365,232.526911 C207.453547,232.740266 206.762905,231.913517 206.081006,231.211225 C203.159932,228.245924 199.705142,225.879735 195.904968,224.241646 C195.517044,224.001185 195.047882,223.936715 194.611107,224.063851 C194.191477,224.241646 194.077827,224.952828 194.506199,225.112844 C194.099481,225.142035 193.694456,225.03595 193.352216,224.810591 C192.976297,224.650576 192.434274,224.641686 192.26817,225.015056 C192.102067,225.388426 192.591636,225.904033 192.469243,226.40186 C192.011805,226.420692 191.554995,226.351316 191.122929,226.197395 C190.677072,226.108498 190.091338,226.259624 190.003915,226.721892 C189.991345,226.895562 190.009103,227.070123 190.056368,227.237498 C190.117551,227.935443 190.117551,228.637539 190.056368,229.335484 C190.056368,231.193446 191.166641,232.891392 192.250686,234.358204 C194.558653,237.549631 197.09392,240.581042 198.886092,244.13695 C199.364592,245.250788 199.987946,246.294281 200.73946,247.239479 C201.823505,248.404039 205.827479,250.084206 206.859071,248.039559 C207.357382,247.079464 206.946494,244.972588 207.12134,243.843588 C207.379708,242.253987 207.85031,240.707702 208.520108,239.247577 Z" id="Path" fill="url(#linearGradient-9)" fill-rule="nonzero"></path>
                <path d="M263.773184,267.767475 C264.129061,269.493557 264.182443,271.468763 263.06143,272.838952 C261.940418,274.209141 259.858538,274.538342 258.025771,274.618418 C249.128848,275.081079 240.000604,273.550738 231.335,275.579329 C230.08449,275.744062 228.930179,276.338544 228.069829,277.260924 C227.180137,278.462064 227.295797,280.116967 227.473735,281.611718 L228.221077,288 L219.528783,286.416276 C219.067148,286.398493 218.632904,286.192543 218.327028,285.846316 C218.021152,285.500088 217.870297,285.043754 217.909542,284.583426 C217.215405,281.255171 216.916773,277.856577 217.01985,274.458266 C217.133911,271.056844 218.462725,267.808834 220.765455,265.302915 C222.856232,263.238735 225.694351,262.144363 228.514675,261.334706 C235.231853,259.421781 242.251526,258.852352 249.20892,258.29182 C252.224977,258.051592 257.216151,257.402087 259.82295,259.430678 C261.940418,261.067786 263.239369,265.205044 263.773184,267.767475 Z" id="Path" fill="url(#linearGradient-10)" fill-rule="nonzero"></path>
                <path d="M346.511819,263.333499 C345.621255,264.756358 343.581863,264.881641 341.880886,264.881641 C334.42162,264.915259 326.986385,265.734069 319.696933,267.324664 C317.009143,267.791621 314.41581,268.698547 312.02027,270.009305 C309.610108,271.339651 307.846695,273.603103 307.139979,276.273467 C306.578923,278.958108 307.727751,282.054393 310.167897,283.262481 C311.680822,283.86286 313.311876,284.101811 314.932415,283.960488 L363.423632,283.432509 C364.533759,283.497213 365.645452,283.33589 366.692002,282.958222 C369.096525,281.893315 370.12958,278.86862 369.98709,276.228723 C368.33064,244.612604 352.532033,235.610109 349.904868,236.012805 C347.803137,236.326013 347.455817,252.63968 346.868045,254.975317 C346.200122,257.624163 348.18608,260.747295 346.511819,263.333499 Z" id="Path" fill="#DDDDDD" fill-rule="nonzero"></path>
                <path d="M304.996764,277.153735 C303.035357,276.869871 301.03817,276.979864 299.118472,277.477477 C295.237375,278.411785 291.676964,280.394138 288.813756,283.214899 C288.478295,283.50564 288.21452,283.87214 288.043558,284.285045 C287.837726,285.286918 288.377703,286.292528 289.318368,286.659151 C290.240951,286.988256 291.229244,287.080926 292.195544,286.928936 L301.252009,286.281453 C302.589819,286.26443 303.914278,286.008743 305.164968,285.526055 C306.6611,284.851593 307.93591,283.511662 309.591393,283.43972 C310.071589,283.483989 310.555658,283.4506 311.025555,283.340799 C312.468569,282.792236 312.096749,280.436116 311.273434,279.563812 C310.01633,278.232874 306.705364,277.405534 304.996764,277.153735 Z" id="Path" fill="url(#linearGradient-11)" fill-rule="nonzero"></path>
                <path d="M68,218.108514 C68,226.18523 65.1233228,235.241482 57.7659284,238.678761 C52.4786412,241.14541 45.9636281,239.978872 41.1781852,236.666261 C36.3927423,233.35365 33.1755625,228.171016 31.2040317,222.712332 C28.9367713,216.425494 28.1750435,209.452982 30.0838437,203.050381 C31.992644,196.647781 36.831856,190.948664 43.2303695,188.918354 C61.0548002,183.299382 68.0178885,204.760116 68,218.108514 Z" id="Path" fill="url(#linearGradient-12)" fill-rule="nonzero"></path>
                <path d="M41.8089701,199.99605 C42.4278225,199.83957 43.0264891,199.611909 43.5930105,199.317615 C44.627754,198.66596 45.1629661,197.442992 46.1085076,196.639582 C47.1566877,195.961071 48.34146,195.522169 49.5784663,195.354127 C52.8233173,194.586754 55.8948079,193.214921 58.6324717,191.310298 C61.3085324,189.444602 63.8061891,186.311304 62.7536052,183.2762 C62.3280525,182.194921 61.6155804,181.250432 60.6930384,180.544607 C57.8699844,178.248997 54.1188479,177.445775 50.6042896,178.384328 C45.8587419,179.723344 42.5761075,183.954635 38.6066174,186.84691 C33.914591,190.248011 27.5990877,192.363657 25.4849997,197.764356 C24.3432138,200.692338 24.7178623,204.084512 23.379832,206.932154 C22.7375774,208.29795 21.6760733,209.699454 22.0953228,211.154518 C22.4788915,212.4489 23.9596451,213.305871 24.0131664,214.653814 C23.9693105,215.297073 23.7899523,215.923768 23.4868744,216.492729 C22.3183279,219.420712 22.9338219,222.83074 24.3788946,225.62482 C25.9758239,228.352993 27.9757349,230.823875 30.3108292,232.953702 C32.9868899,235.631735 36.430088,238.586497 40.2033336,237.899136 C40.4261611,237.86933 40.6395064,237.790029 40.8277478,237.667039 C41.5948852,237.086799 40.8277478,235.881684 40.1587326,235.238957 C37.6006026,232.774371 35.7046196,229.704177 34.6460476,226.312182 C34.4813416,225.910394 34.4470162,225.466958 34.5479253,225.04458 C34.8595961,224.399963 35.5936175,224.078119 36.2784446,224.285804 C36.9372849,224.50367 37.5339468,224.877241 38.0178841,225.37487 C38.7681368,224.635767 38.9053003,223.474582 38.3479315,222.58079 C37.1615446,220.358023 35.1366587,219.01008 34.092995,216.564144 C33.1670367,214.716422 32.8366729,212.626734 33.1474536,210.583205 C33.9235112,205.860941 37.134784,201.468967 41.8089701,199.99605 Z" id="Path" fill="#3E3E54" fill-rule="nonzero"></path>
                <path d="M66.2492471,230.023876 C63.8220402,229.854754 61.4181778,230.588562 59.5034507,232.083111 C58.6430642,232.693592 57.7460655,233.659428 58.0664222,234.670822 C58.4835445,235.515108 59.3758686,236.020639 60.318072,235.946454 C61.2367741,235.856836 62.1639825,235.915294 63.0639864,236.119576 C61.3996963,238.319894 60.3085311,240.896171 59.8878787,243.618471 C59.4851446,246.269964 59.8878787,249.367928 62.1303755,250.907799 C63.7180651,251.839644 65.5825902,252.190884 67.4025312,251.90097 C68.8591048,251.81994 70.2859749,251.457872 71.6037802,250.834905 C74.4647313,249.201108 76.159761,246.10467 75.9880902,242.825757 C75.8782536,239.718681 74.3130824,237.0763 72.2719527,234.82572 C70.4688022,232.84849 69.2056816,230.370119 66.2492471,230.023876 Z" id="Path" fill="url(#linearGradient-13)" fill-rule="nonzero"></path>
                <path d="M235.378994,218.485988 C234.329446,220.409193 233.568721,222.471779 233.120518,224.609492 C232.563093,228.520616 233.960546,232.455733 236.872648,235.175191 C238.969162,237.130819 241.848494,238.573205 242.757283,241.272148 C243.585091,243.741017 242.46935,246.581544 243.540101,248.988471 C244.610853,251.395397 247.535175,252.386484 250.05459,251.864394 C252.560752,251.201805 254.712431,249.617921 256.065196,247.439897 C257.375721,245.256912 258.475277,242.957915 259.349434,240.573077 C260.672208,237.456555 262.2146,234.434651 263.965363,231.529405 C265.271087,229.549859 266.428865,227.479646 267.429559,225.33511 C268.447748,222.783059 268.978508,220.068188 268.995196,217.32677 C269.121167,210.99089 266.772712,204.3099 261.580916,200.557927 C256.688849,197.095814 250.078949,197.153118 245.249705,200.69951 C242.847262,202.469309 242.028452,204.831991 240.750748,207.451293 C238.957164,211.108877 237.16658,214.787109 235.378994,218.485988 Z" id="Path" fill="url(#linearGradient-14)" fill-rule="nonzero"></path>
                <path d="M246.882592,185.355452 C246.000658,184.524056 244.801228,183.567505 243.795823,184.211166 C243.426665,184.483094 243.149435,184.864024 243.002082,185.301813 C242.359726,186.877384 242.269458,188.628514 242.746322,190.263365 C241.760146,189.772375 240.630782,189.664257 239.571359,189.959414 C237.975059,190.647774 237.728117,192.891647 238.239639,194.572316 C238.751161,196.252986 239.738927,197.826379 239.747746,199.578567 C239.747746,200.47254 239.483166,201.366514 239.465527,202.314125 C239.377829,203.249446 239.831537,204.151829 240.62968,204.629516 C241.714459,205.121201 242.878612,204.254047 243.866378,203.574628 C249.105066,199.998734 257.095388,201.652585 260.54375,207.043244 C263.992112,212.433903 262.695669,219.380076 261.328671,225.59319 C261.672625,226.129574 262.325257,225.316059 262.739765,224.833313 C263.621699,223.805244 265.526677,224.645579 265.791257,225.986539 C265.921197,227.377076 265.26588,228.722899 264.097944,229.464095 C263.004346,230.268671 261.699083,230.724597 260.570208,231.457655 C260.256589,231.61319 260.018116,231.890372 259.908757,232.226472 C259.876686,232.520315 259.935226,232.817011 260.076325,233.075747 C260.440107,233.918995 260.852384,234.739881 261.311032,235.534174 C261.611961,236.223114 262.184905,236.751968 262.889694,236.99135 C263.403427,237.034441 263.917765,236.915809 264.362524,236.65164 C267.969634,234.863694 270.421411,231.368258 272.44104,227.846003 C274.460668,224.323748 276.074608,220.113134 274.107895,216.716035 C273.719844,216.045555 273.225961,215.455533 272.846729,214.776113 C272.291962,213.472272 271.963753,212.081025 271.876602,210.663836 C270.87613,204.179883 267.743365,198.228912 262.986707,193.77668 C260.737775,191.666903 258.347734,189.825318 255.305062,189.306814 C251.8567,188.74361 249.484297,187.965854 246.882592,185.355452 Z" id="Path" fill="#B7A451" fill-rule="nonzero"></path>
                <path d="M313.05896,215.669935 C312.793681,219.017562 313.359609,222.888537 316.074297,224.747326 C318.028518,226.100814 320.575195,226.055698 322.94502,225.956442 C326.269849,225.821093 329.709631,225.649652 332.671912,224.151792 C337.208181,221.895979 339.914026,217.068539 341.974358,212.358402 C343.540427,209.14607 344.548688,205.680931 344.954325,202.117011 C345.219604,198.50771 344.344183,194.754037 341.938988,192.137294 C340.402196,190.558651 338.502051,189.398379 336.412345,188.762598 C321.707052,183.826879 313.952066,204.020917 313.05896,215.669935 Z" id="Path" fill="url(#linearGradient-15)" fill-rule="nonzero"></path>
                <path d="M323.225395,183.886579 C323.28003,182.699161 323.61746,181.541093 324.210386,180.506065 C324.942885,179.476807 326.011088,178.726053 327.236997,178.378901 C330.979965,177.213815 334.946794,178.952618 338.4659,180.656114 L347.599458,185.069317 C351.078345,186.190885 353.803816,188.883938 354.933168,192.315797 C355.478788,193.416029 355.838707,194.596612 355.99875,195.811054 C356.025329,197.442036 355.62765,199.052545 354.843624,200.48905 C354.35362,201.759209 353.516895,202.871105 352.425917,203.701862 C353.366136,204.125529 353.63477,205.334747 353.518362,206.349784 C353.254735,208.137346 352.413127,209.793394 351.118565,211.071911 C349.825994,212.338616 348.400151,213.465936 346.865192,214.434772 L343.910217,216.447193 C343.390858,216.800249 342.737182,217.170958 342.119324,216.914992 C341.682247,216.675083 341.426938,216.206243 341.465647,215.714601 C341.510519,215.233996 341.640854,214.764925 341.85069,214.328855 C343.384552,210.50938 344.068567,206.409803 343.856491,202.307289 C343.860041,201.595809 343.720024,200.890735 343.444585,200.233084 C343.124448,199.675811 342.716396,199.172296 342.235732,198.741421 L337.973405,194.531225 C336.916216,193.387438 335.71212,192.384529 334.391617,191.5479 C331.852182,190.115686 328.776829,189.945641 326.090825,191.088927 C325.49983,191.344892 324.443203,192.024526 323.771617,191.847998 C322.876171,191.609685 323.117941,190.771176 323.064214,189.906188 C322.94113,187.898835 322.995059,185.884738 323.225395,183.886579 L323.225395,183.886579 Z" id="Path" fill="#3E3E54" fill-rule="nonzero"></path>
                <path d="M345.965958,214.791834 C346.114965,215.834638 345.770724,216.885485 345.013348,217.699818 C344.239764,218.607316 343.203793,219.317008 342.012627,219.755461 C341.476759,220.002447 340.855071,220.065028 340.269351,219.930943 C339.461484,219.565206 338.967655,218.822603 339.00238,218.025713 C338.945619,216.243216 339.906961,214.553507 341.564901,213.521681 C343.184338,212.594134 345.565862,212.836466 345.965958,214.791834 Z" id="Path" fill="url(#linearGradient-16)" fill-rule="nonzero"></path>
                <path d="M312.598869,209.591254 C313.441126,209.320086 314.309143,209.141868 315.188206,209.059619 C315.770805,208.980127 316.361089,208.980127 316.943688,209.059619 C317.671296,209.228528 318.375868,209.488796 319.04149,209.834544 C320.796973,210.663533 322.701672,211.636694 323.553081,213.438845 C323.776663,214.054275 324.034561,214.655987 324.325493,215.240995 C325.080114,216.190742 326.105178,216.874431 327.25715,217.196328 C328.196333,217.565769 328.301662,218.863317 329.091629,219.49407 C330.03959,220.250973 331.417644,219.944608 332.479711,219.394952 C333.675396,218.789478 334.731663,217.929373 335.578138,216.871941 C336.090446,216.069124 336.742002,215.369705 337.500392,214.808479 C338.312775,214.270794 339.395718,214.508447 339.922958,215.340113 C340.090468,215.991579 339.98208,216.685375 339.624526,217.250393 C338.340945,219.92117 336.595116,222.33016 334.472184,224.359876 C333.779251,225.065162 332.996868,225.671337 332.146169,226.162026 C330.849038,226.775524 329.460176,227.159389 328.038339,227.297381 C325.20577,227.711549 322.350081,227.937289 319.489138,227.973187 C317.833374,228.084506 316.172874,227.848431 314.608896,227.27936 C314.1296,227.07722 313.685062,226.797322 313.292284,226.45037 C312.348253,225.42831 311.735098,224.131632 311.536801,222.737941 C310.474734,217.998285 311.071599,214.10564 312.598869,209.591254 Z" id="Path" fill="#3E3E54" fill-rule="nonzero"></path>
                <path d="M321.984117,219.512249 C322.042575,220.054912 321.938832,220.602997 321.686683,221.083617 C321.134306,221.956598 319.936073,222.087546 318.924798,221.956598 C317.98787,221.824508 317.079724,221.529284 316.239396,221.083617 C315.909393,220.92206 315.618963,220.686364 315.389585,220.393961 C315.083316,219.869278 314.952035,219.256278 315.015669,218.647998 C315.025473,217.792781 315.082217,216.938813 315.185631,216.090161 C315.23869,215.456276 315.387787,214.834792 315.627532,214.24817 C316.018445,213.375188 316.664301,212.729181 317.582097,213.113293 C318.403044,213.471382 319.150039,213.986908 319.783107,214.632282 C321.075592,215.925835 321.859114,217.663021 321.984117,219.512249 L321.984117,219.512249 Z" id="Path" fill="url(#linearGradient-17)" fill-rule="nonzero"></path>
                <path d="M154.441113,247.918399 C155.129364,245.515294 156.186634,243.243363 157.572116,241.190299 L162.126302,233.620066 C162.245475,233.359042 162.446088,233.147515 162.695575,233.019823 C162.999471,232.959642 163.313614,233.037951 163.55811,233.234836 C165.679947,234.60554 166.197468,237.597798 165.938708,240.177948 C165.679947,242.758098 164.851913,245.311372 165.076172,247.891522 C165.353841,249.285118 165.555421,250.693907 165.679947,252.111143 C165.589277,254.238527 164.617497,256.221304 163.014713,257.549168 C161.074009,259.242391 156.700955,261.562735 155.062138,258.516724 C153.690707,255.891779 153.837338,250.677726 154.441113,247.918399 Z" id="Path" fill="url(#linearGradient-18)" fill-rule="nonzero"></path>
                <path d="M158.720588,256.298468 C156.419882,256.927975 154.01258,258.052095 153.026563,260.246377 C152.616875,261.337764 152.409104,262.496169 152.413634,263.6637 C152.076079,269.75493 151.945794,275.852155 152.02278,281.955375 C151.9134,283.194573 152.199868,284.436586 152.84002,285.4986 C153.728323,286.658692 155.336152,286.946467 156.79297,286.991431 C159.531437,287.07331 162.256024,286.567621 164.7877,285.507593 C165.59285,285.263932 166.283799,284.733717 166.733085,284.014762 C166.974447,283.398319 167.054016,282.729104 166.964044,282.072284 C166.653138,276.020024 165.258501,269.913806 165.187437,263.888524 C165.098607,259.625863 164.423496,254.733694 158.720588,256.298468 Z" id="Path" fill="#DDDDDD" fill-rule="nonzero"></path>
                <path d="M142.762595,283.183955 C142.414421,283.180536 142.071916,283.270492 141.772102,283.4441 C141.45953,283.748269 141.265523,284.150206 141.223793,284.580064 C140.905421,286.175617 140.746234,288.109357 142.028569,289.132592 C142.674012,289.565618 143.418036,289.836589 144.195272,289.921697 C146.070133,290.268557 147.953839,290.589401 149.8287,290.901575 C150.432833,291.053292 151.068954,291.029186 151.659343,290.832203 C152.095536,290.568458 152.514916,290.278871 152.915146,289.965055 C153.657294,289.634931 154.487033,289.543858 155.285254,289.70491 C157.319302,289.904354 159.35335,290.181842 161.36971,290.572058 C162.048974,290.73739 162.753498,290.778545 163.447977,290.693459 C164.154004,290.594783 164.740928,290.110155 164.960247,289.444766 C165.20787,288.447545 164.252752,287.571726 163.368384,287.008079 C157.071679,282.923811 150.014417,282.698352 142.762595,283.183955 Z" id="Path" fill="url(#linearGradient-19)" fill-rule="nonzero"></path>
                <path d="M135.556644,253.683912 C136.972832,255.217508 141.742187,256.63718 143.642619,255.699495 C144.903483,255.077294 145.013123,251.720909 145.579599,250.441452 C146.015751,249.437805 146.349282,248.395915 146.575498,247.330443 C147.025454,245.859952 147.119206,244.3103 146.849599,242.799762 C146.552408,241.264713 145.361456,240.030353 143.788806,239.627409 C142.290388,239.364506 133.19024,238.383005 134.058226,239.583592 C137.648947,244.587496 132.16693,250.029572 135.556644,253.683912 Z" id="Path" fill="url(#linearGradient-20)" fill-rule="nonzero"></path>
                <path d="M138.170744,248.476131 C138.591122,249.703049 139.165115,250.876256 139.880082,251.969917 C140.61685,253.072597 141.817842,253.810756 143.167987,253.990744 C143.486157,254.021536 143.80728,253.97522 144.102051,253.856022 C144.942709,253.478801 145.166884,252.454915 145.288313,251.574733 L145.951498,246.814562 C146.031567,246.456805 146.012238,246.085081 145.895454,245.736788 C145.731157,245.442598 145.489637,245.194883 145.194906,245.018272 C144.487945,244.5092 143.752005,244.03844 142.990515,243.608183 C141.411947,242.710038 139.347665,241.722078 137.442174,242.072355 C136.801536,242.158341 136.264486,242.581164 136.050419,243.168092 C135.816903,243.949479 136.452066,244.748828 136.778989,245.413456 C137.283383,246.392434 137.741075,247.425301 138.170744,248.476131 Z" id="Path" fill="url(#linearGradient-21)" fill-rule="nonzero"></path>
                <path d="M154.281039,220.477806 C154.281039,220.477806 158.504986,238.013171 153.710236,244.11674 C148.915485,250.220309 141.231591,250.030981 138.166814,246.677174 C135.102038,243.323366 123.703529,228.64595 127.927475,219.819666 C132.151422,210.993382 148.652038,200.382007 154.281039,220.477806 Z" id="Path" fill="url(#linearGradient-22)" fill-rule="nonzero"></path>
                <path d="M136.629798,215.484961 C136.303405,217.511267 136.57687,219.645164 135.871155,221.563879 C134.636155,224.899215 130.79001,226.63861 129.519724,229.956014 C129.210974,230.76295 129.069831,231.632648 128.699331,232.412686 C128.389457,233.235914 127.68145,233.836717 126.829187,233.99966 C125.966617,234.014738 125.171546,233.527093 124.782615,232.744426 C124.40777,231.973356 124.200198,231.129466 124.173936,230.269822 C123.627007,224.53161 124.279793,218.425794 127.429044,213.637974 C129.874365,209.846938 133.897349,207.407485 138.341156,207.021098 C140.987586,206.877643 141.869729,207.442498 140.017228,209.43294 C138.358799,211.208199 137.035584,212.947595 136.629798,215.484961 Z" id="Path" fill="#3E3E54" fill-rule="nonzero"></path>
                <path d="M129.365522,236.079626 C129.147887,236.089907 128.937266,236.164716 128.757369,236.295632 C128.645464,236.40324 128.554647,236.533379 128.49015,236.678552 C128.122288,237.276514 127.953551,237.988794 128.011,238.701154 C128.311357,239.794079 129.176063,240.604596 130.231679,240.782667 C131.349329,241.094191 132.526049,241.070405 133.631806,240.713938 C133.740022,240.688493 133.839142,240.630574 133.917454,240.547024 C134.027515,240.339923 134.027515,240.086471 133.917454,239.879369 C133.493492,238.827101 132.911505,237.855442 132.194354,237.002561 C131.472867,236.180207 130.395424,235.82868 129.365522,236.079626 Z" id="Path" fill="url(#linearGradient-23)" fill-rule="nonzero"></path>
                <path d="M209.610699,285.61606 C209.132022,286.21777 208.72426,287.138569 209.238395,287.676462 C209.602053,287.953137 210.062373,288.059079 210.506004,287.9682 L226.408734,287.001817 C226.672136,287.00015 226.933193,286.950772 227.179936,286.855948 C227.968868,286.491275 228.066376,285.379023 227.968868,284.485574 C227.880224,283.072467 227.79158,281.668476 227.694072,280.264486 C227.596563,278.860495 227.906817,278.267902 226.470785,278.067332 C224.485159,277.78471 221.985399,278.450238 220.088418,278.979014 C216.01726,280.035284 212.359775,282.352095 209.610699,285.61606 L209.610699,285.61606 Z" id="Path" fill="url(#linearGradient-24)" fill-rule="nonzero"></path>
                <path d="M179.240439,88.4029587 C173.844539,80.1491834 173.143072,68.1991524 179.798015,60.8873841 C182.955126,57.5831644 187.073008,55.3518743 191.570069,54.5086514 C199.394123,52.8758393 208.351316,55.1635705 213.153667,61.5243603 C215.991154,65.4601341 217.330251,70.2756307 216.930797,75.1072034 C216.525353,79.9109298 214.984376,84.5503926 212.434214,88.645189 C211.0043,91.0585211 209.286606,93.3821383 208.657084,96.1184442 C208.252392,97.9127431 208.324337,99.7070421 207.982597,101.501341 C206.880992,106.592544 202.633444,110.406849 197.442606,110.966268 C192.946023,111.352042 186.650807,108.400421 185.751491,103.573756 C185.26586,100.963051 185.751491,98.9534365 184.492447,96.33376 C183.125486,93.4628817 180.97612,91.0405781 179.240439,88.4029587 Z" id="Path" fill="#DDDDDD" fill-rule="nonzero" opacity="0.43"></path>
                <path d="M188.798948,105.20816 C189.800606,100.184072 188.798948,95.0143583 188.187316,89.9265591 C187.879178,88.2453082 187.95197,86.5137985 188.400058,84.8660646 C188.967368,83.2641815 190.456558,81.880737 192.105305,82.0081595 C193.984521,82.1628868 195.234377,84.0742247 195.846009,85.903648 C196.592078,88.1555902 196.819639,90.5544446 196.510826,92.9118867 C196.342406,94.1588071 195.89033,95.5695564 194.73798,96.0428401 C192.542944,92.715333 193.176766,88.2189254 196.200578,85.6670062 C196.80639,85.1269128 197.588111,84.8409467 198.390042,84.8660646 C199.684219,85.0116904 200.517457,86.3769317 200.827705,87.6784617 C201.191275,89.1791462 201.145272,90.7536586 200.694741,92.2292661 C200.594603,92.6633129 200.365344,93.054583 200.038788,93.3487639 C199.683879,93.6203804 199.188219,93.5815306 198.877575,93.2577478 C198.761739,93.0440048 198.706469,92.8012428 198.718018,92.556924 C198.576191,89.7172221 198.718018,86.5589638 200.641556,84.5020003 C200.926955,84.1394371 201.329536,83.8940034 201.776177,83.810278 C202.144138,83.777367 202.512922,83.8632814 202.83102,84.0560214 C204.648187,85.1482145 205.24209,87.6238521 204.914114,89.7536285 C204.586137,91.8834049 203.540158,93.812946 202.76897,95.8152999 C201.525407,99.0521018 200.972255,102.525069 201.146817,106" id="Path" stroke="#FFFFFF" stroke-width="0.78"></path>
                <path d="M183.053604,107.852788 C182.84574,108.186851 182.556538,108.457712 182.357711,108.755659 C181.697968,109.848133 182.077546,111.247582 182.484237,112.466457 C183.279544,114.859065 184.174263,117.40516 186.189642,118.931011 C187.614392,119.888547 189.253262,120.480814 190.961482,120.655494 C194.291099,121.169105 197.684254,121.108027 200.993189,120.47492 C202.503427,120.246298 203.956844,119.734731 205.277,118.967126 C206.604142,118.184808 207.556517,116.897757 207.915971,115.400787 C207.963603,114.94327 208.04823,114.490355 208.169024,114.046481 C208.304587,113.658247 208.548602,113.315156 208.720316,112.944979 C209.093228,112.080539 209.093228,111.100807 208.720316,110.236367 C208.424327,109.727085 208.182028,109.188499 207.99731,108.629257 C207.937475,108.07891 207.977272,107.522297 208.114798,106.986033 C208.422994,104.907216 207.984352,102.786528 206.87665,101 C204.175448,103.264306 200.912656,104.758415 197.432385,105.32475 C194.135133,105.827201 190.765776,105.162933 187.906782,103.44678 C186.704784,102.679339 185.475674,101.306976 184.382128,102.968258 C183.387994,104.430909 183.939286,106.426253 183.053604,107.852788 Z" id="Path" fill="#3E3E54" fill-rule="nonzero"></path>
            </g>
        </g>
    </g>
</svg>