<?xml version="1.0" encoding="UTF-8"?>
<svg width="213px" height="176px" viewBox="0 0 213 176" version="1.1" xmlns="http://www.w3.org/2000/svg" xmlns:xlink="http://www.w3.org/1999/xlink">
    <title>Illustration 15</title>
    <defs>
        <linearGradient x1="8.47370441%" y1="-50.8944162%" x2="111.959213%" y2="199.19651%" id="linearGradient-1">
            <stop stop-color="#000000" offset="1%"></stop>
            <stop stop-color="#000000" stop-opacity="0.69" offset="13%"></stop>
            <stop stop-color="#000000" stop-opacity="0.32" offset="25%"></stop>
            <stop stop-color="#000000" stop-opacity="0" offset="100%"></stop>
        </linearGradient>
        <linearGradient x1="64.3860444%" y1="34.1391723%" x2="-10.7773966%" y2="117.010348%" id="linearGradient-2">
            <stop stop-color="#000000" offset="1%"></stop>
            <stop stop-color="#000000" stop-opacity="0.69" offset="13%"></stop>
            <stop stop-color="#000000" stop-opacity="0.32" offset="25%"></stop>
            <stop stop-color="#000000" stop-opacity="0" offset="100%"></stop>
        </linearGradient>
        <linearGradient x1="74.5254477%" y1="14.9459241%" x2="12.0991951%" y2="99.8188454%" id="linearGradient-3">
            <stop stop-color="#000000" offset="1%"></stop>
            <stop stop-color="#000000" stop-opacity="0.69" offset="13%"></stop>
            <stop stop-color="#000000" stop-opacity="0.32" offset="25%"></stop>
            <stop stop-color="#000000" stop-opacity="0" offset="100%"></stop>
        </linearGradient>
        <linearGradient x1="257.820671%" y1="28.0856123%" x2="-172.16696%" y2="79.1576472%" id="linearGradient-4">
            <stop stop-color="#000000" offset="1%"></stop>
            <stop stop-color="#000000" stop-opacity="0.69" offset="13%"></stop>
            <stop stop-color="#000000" stop-opacity="0.32" offset="25%"></stop>
            <stop stop-color="#000000" stop-opacity="0" offset="100%"></stop>
        </linearGradient>
        <linearGradient x1="7.6294791%" y1="8.41926483%" x2="439.93337%" y2="420.987505%" id="linearGradient-5">
            <stop stop-color="#FFFFFF" offset="1%"></stop>
            <stop stop-color="#FFFFFF" stop-opacity="0.69" offset="13%"></stop>
            <stop stop-color="#FFFFFF" stop-opacity="0.61" offset="15%"></stop>
            <stop stop-color="#FFFFFF" stop-opacity="0.47" offset="20%"></stop>
            <stop stop-color="#FFFFFF" stop-opacity="0.34" offset="25%"></stop>
            <stop stop-color="#FFFFFF" stop-opacity="0.23" offset="30%"></stop>
            <stop stop-color="#FFFFFF" stop-opacity="0.15" offset="36%"></stop>
            <stop stop-color="#FFFFFF" stop-opacity="0.08" offset="44%"></stop>
            <stop stop-color="#FFFFFF" stop-opacity="0.03" offset="52%"></stop>
            <stop stop-color="#FFFFFF" stop-opacity="0.01" offset="65%"></stop>
            <stop stop-color="#FFFFFF" stop-opacity="0" offset="100%"></stop>
        </linearGradient>
        <linearGradient x1="5.89706927%" y1="8.41917319%" x2="455.855123%" y2="421.013597%" id="linearGradient-6">
            <stop stop-color="#FFFFFF" offset="1%"></stop>
            <stop stop-color="#FFFFFF" stop-opacity="0.69" offset="13%"></stop>
            <stop stop-color="#FFFFFF" stop-opacity="0.61" offset="15%"></stop>
            <stop stop-color="#FFFFFF" stop-opacity="0.47" offset="20%"></stop>
            <stop stop-color="#FFFFFF" stop-opacity="0.34" offset="25%"></stop>
            <stop stop-color="#FFFFFF" stop-opacity="0.23" offset="30%"></stop>
            <stop stop-color="#FFFFFF" stop-opacity="0.15" offset="36%"></stop>
            <stop stop-color="#FFFFFF" stop-opacity="0.08" offset="44%"></stop>
            <stop stop-color="#FFFFFF" stop-opacity="0.03" offset="52%"></stop>
            <stop stop-color="#FFFFFF" stop-opacity="0.01" offset="65%"></stop>
            <stop stop-color="#FFFFFF" stop-opacity="0" offset="100%"></stop>
        </linearGradient>
    </defs>
    <g id="DESIGN-SYSTEM" stroke="none" stroke-width="1" fill="none" fill-rule="evenodd">
        <g id="Illustrations" transform="translate(-1091.000000, -2127.000000)" fill-rule="nonzero">
            <g id="Illustration-15" transform="translate(1091.000000, 2127.000000)">
                <path d="M212.298221,127.445168 C211.884279,134.731834 211.043852,142.131862 208.121173,148.807632 C202.783833,161.019252 190.873601,169.458433 178.116671,173.174192 C174.8733,174.10842 171.565168,174.798898 168.219701,175.239902 C158.448168,176.568758 148.394401,175.989351 138.572694,174.773857 C130.143335,173.728406 121.764152,172.216911 113.347337,171.058099 C108.605823,170.428309 103.845493,169.861498 99.0726196,169.578093 C89.9345428,169.042772 80.7776504,169.445837 71.6458454,170.107116 C71.21936,170.107116 70.7866028,170.163797 70.3914766,170.201585 C62.0938269,170.831374 53.6644684,171.631207 45.4546245,170.623544 C43.5549575,170.399529 41.6701231,170.063055 39.8099648,169.61588 C38.8524633,169.389156 37.9054149,169.124644 36.9688195,168.822345 C27.5296941,165.818249 19.2508599,159.514055 11.969249,153.008328 C4.47439528,146.313665 0.962162589,135.934732 0.623483008,126.072227 C0.222084987,114.458906 -1.34587603,95.0676842 37.8907806,63.2633089 C46.1319837,56.5497517 45.435809,43.3934467 49.3557115,33.4805583 C55.0003712,19.2662068 66.5656517,7.1427568 81.0975145,2.52639896 C87.3693585,0.523668004 94.0363288,-0.0746321248 100.628037,0.00724052441 C109.008161,0.0767515413 117.348566,1.17227569 125.46454,3.2695507 C140.792926,7.20573576 158.981274,15.1977659 170.540283,27.4723654 C172.539076,29.5781758 174.34434,31.860993 175.934069,34.2929869 C185.780864,49.4583207 184.670748,69.1896291 194.806048,84.2604945 C199.196339,90.7662212 205.468183,95.9430918 208.955328,102.977842 C212.674532,110.409359 212.774881,119.119349 212.298221,127.445168 Z" id="Path" fill="#DDDDDD" opacity="0.18"></path>
                <path d="M72.3263513,169.019257 C71.8983071,169.019257 71.463968,169.075117 71.0673976,169.112356 C62.7394185,169.73302 54.2792492,170.521263 46.0393968,169.528201 C44.1327862,169.307432 42.2410624,168.975834 40.3741049,168.535139 C39.4131036,168.3117 38.4625935,168.051022 37.5225747,167.753103 C36.6790756,141.275593 59.7368137,106.208099 62.5442806,102 L71.1869982,102.359985 L98.5,103.495799 C73.805622,126.609312 71.4891471,154.408835 72.3263513,169.019257 Z" id="Path" fill="#DDDDDD"></path>
                <path d="M72.3263513,169.019257 C71.8983071,169.019257 71.463968,169.075117 71.0673976,169.112356 C62.7394185,169.73302 54.2792492,170.521263 46.0393968,169.528201 C44.1327862,169.307432 42.2410624,168.975834 40.3741049,168.535139 C39.4131036,168.3117 38.4625935,168.051022 37.5225747,167.753103 C36.6790756,141.275593 59.7368137,106.208099 62.5442806,102 L71.1869982,102.359985 L98.5,103.495799 C73.805622,126.609312 71.4891471,154.408835 72.3263513,169.019257 Z" id="Path" fill="url(#linearGradient-1)"></path>
                <path d="M71.5,102 C71.2191486,102.254751 70.9446802,102.509503 70.6765947,102.770468 C44.9914571,127.127193 43.9446474,156.361477 45.1574148,170 C43.224084,169.778989 41.3058488,169.447027 39.412727,169.005848 C38.4382577,168.782164 37.4744267,168.521199 36.5212341,168.222953 C35.6978288,141.728801 59.0787083,106.622807 61.9255203,102.410088 L62.2127547,102 L71.5,102 Z" id="Path" fill="#DDDDDD"></path>
                <path d="M135.373624,44.3141102 C134.341853,46.2225947 134.662709,48.5254993 134.209736,50.6311939 C134.075223,51.2270526 133.902905,51.8135346 133.693851,52.3869996 C132.90115,54.6899043 131.900836,57.0564251 129.994577,58.5514046 C129.407737,58.8945668 128.923118,59.3911969 128.591621,59.9891296 C128.396902,60.618285 128.516551,61.3038775 128.912476,61.8276363 C129.312701,62.3244607 129.788367,62.7539098 130.321724,63.0999593 C130.214772,64.2005187 130.246228,65.5046498 130.132985,66.5988476 C129.887625,69.0226229 129.730343,71.7517558 131.315746,73.5966241 C132.574003,75.0152643 134.511718,75.5051086 136.348773,75.7214035 C138.185827,75.9376984 140.123542,76.0522075 141.771858,76.9937265 C145.244646,78.9467423 146.175756,83.9088021 149.62967,85.8999876 C150.658324,86.4500175 151.785826,86.7853432 152.945176,86.8860379 C155.392085,87.2369313 157.885444,86.7724348 160.048034,85.562822 C162.155614,84.290499 169.05086,82.2166125 167.182349,80.6071239 C165.143973,78.8576797 162.017206,73.89562 160.557628,71.2555498 C158.932735,68.3209189 157.827709,65.1216413 157.292452,61.8021899 C156.852063,59.0348873 156.808024,56.2230535 156.39909,53.4557509 C155.990157,50.6884484 155.140834,47.8893378 153.385566,45.7391119 C150.736936,42.5583044 146.408533,41.2859814 142.294035,41.0506017 C141.145174,40.9336658 139.984952,41.0197717 138.865286,41.3050663 C137.731179,41.5950403 136.767247,42.348538 136.204073,43.3853144" id="Path" fill="#F9BA9F"></path>
                <path d="M175.958875,57.7656838 C175.795633,59.2307448 175.394331,60.6587218 174.771063,61.9923494 C174.412746,62.8911361 173.90002,63.719158 173.256445,64.4383658 C171.999501,65.5663216 171.961793,67.4737074 171.188773,68.9628624 C170.660574,69.9142509 169.928407,70.7347557 169.045683,71.364521 C165.458092,74.0345277 160.786725,74.7260712 156.58937,73.2085385 L155.960898,72.967739 C154.114804,72.0988986 152.364332,71.0369334 150.738296,69.799324 C150.636181,69.7314014 150.55377,69.6373738 150.499477,69.5268403 C150.392636,69.2606934 150.618886,68.9945466 150.819997,68.7854312 C152.161053,67.3969788 152.898335,65.5270883 152.868816,63.5892306 C152.90094,62.7688732 152.649961,61.9626638 152.158643,61.3079718 C151.634087,60.6554439 150.731614,60.4555692 149.98413,60.8263727 C149.355658,61.187572 148.727186,62.0493809 148.1867,61.5867923 C148.027886,61.4119961 147.930688,61.1892613 147.910172,60.9531093 C147.729789,59.5424744 147.359783,58.1631664 146.810346,56.8531803 C146.071158,55.5879899 145.161704,54.4321497 144.107917,53.4186185 C141.65861,50.6969072 139.690214,47.5719425 138.288267,44.1795203 C138.204194,43.8741108 138.017607,43.6075865 137.760351,43.4254376 C137.519538,43.3187978 137.253555,43.2836256 136.993615,43.3240483 C135.847782,43.3916937 134.698489,43.3705086 133.555873,43.26068 C132.972997,43.2603717 132.406856,43.0641472 131.946985,42.703039 C131.16768,41.9489562 131.519624,40.6055482 132.148096,39.7247289 C133.574728,37.7032801 135.956636,36.6450295 138.22542,35.6881682 C137.640941,35.3016215 136.717087,34.4524863 136.132608,34.0659397 C135.930609,33.9595299 135.767651,33.7907791 135.667539,33.5843406 C135.541845,33.1914572 135.918928,32.8112474 136.296011,32.6211425 C136.953245,32.285285 137.697698,32.1635021 138.426531,32.2726168 C138.319691,30.5236517 136.459414,28.9014232 137.169587,27.3045421 C137.65351,26.2526283 139.055003,25.9801446 140.173683,26.2589651 C141.292363,26.5377857 142.26021,27.2285001 143.347466,27.5960363 C143.59257,26.8292798 142.91382,26.0308393 143.039515,25.2323987 C143.177265,24.6487561 143.633762,24.1958579 144.214757,24.066422 C144.79422,23.9513375 145.393158,23.9862201 145.955625,24.1678112 C147.271999,24.5232147 148.492091,25.1729726 149.525345,26.0688602 C150.129342,26.7123822 150.811372,27.2765815 151.555309,27.7481202 C153.025934,28.5148766 154.79194,28.090309 156.444821,28.090309 C158.393365,28.169361 160.310788,28.6097286 162.101068,29.3893592 C163.289273,29.8390376 164.451659,30.3552359 165.582803,30.9355457 C167.091498,31.6926062 168.499838,32.6378654 169.774711,33.7490982 C172.992487,36.6006717 175.003597,40.6625797 175.889743,44.8829085 C176.67949,49.1381742 176.702908,53.5020505 175.958875,57.7656838 L175.958875,57.7656838 Z" id="Path" fill="#FF681C"></path>
                <polygon id="Path" fill="#DDDDDD" points="29.5 36.3821933 32.702149 33 108.806557 36.3821933 126.5 99.6178067 123.297851 103 43.8343258 103"></polygon>
                <polygon id="Path" fill="url(#linearGradient-2)" points="29.5 36.3821933 32.702149 33 108.806557 36.3821933 126.5 99.6178067 123.297851 103 43.8343258 103"></polygon>
                <polygon id="Path" fill="#DDDDDD" points="32.5 34 111.13197 34 125.5 100 46.7123971 100"></polygon>
                <polygon id="Path" fill="#FFFFFF" points="35.5 36 109.061535 36 122.5 98 48.7947051 98"></polygon>
                <path d="M93.4771071,123.10185 C93.3670004,124.018834 92.7902922,124.818929 91.9447415,125.227774 C90.7449318,125.917263 89.2777733,125.955568 87.8823425,125.974721 C86.914617,126.058283 85.9399226,125.934096 85.0262738,125.610824 C84.2467493,125.199279 83.5471017,124.6569 82.9592104,124.008401 C79.5684439,120.816322 75.062637,118.396727 73.3802951,114.112958 C72.565207,112.031723 72.5260828,109.75258 72.5,107.537277 C72.5,105.181524 72.5,102.59594 74.0975727,100.827529 C75.3430273,99.4293989 77.40357,98.7207575 78.2121373,97.0417244 C76.8510148,96.2918291 75.615157,95.3423624 74.5475013,94.2263115 C73.4811956,93.0837672 73.0015735,91.5294627 73.2433603,90 C75.132515,90.6164293 76.9421738,91.4455374 78.6359832,92.4706685 C84.8781797,96.2481479 89.2913538,102.34005 90.8688252,109.356762 C91.5208957,112.427541 91.5861027,115.619619 92.4468358,118.652093 C92.8315573,120.056608 93.6466454,121.690952 93.4771071,123.10185 Z" id="Path" fill="#F9BA9F"></path>
                <path d="M93.4784093,123.596499 C93.1858389,123.731804 92.9240268,123.929531 92.7100271,124.176799 C91.8801743,125.452185 89.833204,125.126961 88.7882042,124.010999 C87.7432044,122.895037 87.3374986,121.319936 86.6244399,119.948896 C84.8417932,116.473471 80.9814409,113.85893 80.993735,109.924366 C80.993735,106.882571 83.4525581,104.185131 83.231264,101.194352 C83.1083229,99.612874 82.2784701,98.3247346 81.3871467,97.1258722 C80.5591104,95.8583753 79.9227112,94.4670148 79.5,93 C85.3845085,96.7732022 89.5448006,102.858206 91.0318803,109.866974 C91.6465861,112.934276 91.7080566,116.12274 92.5194683,119.15178 C92.8698506,120.554704 93.6382328,122.187198 93.4784093,123.596499 Z" id="Path" fill="url(#linearGradient-3)"></path>
                <path d="M172.832211,164.175457 C172.057125,168.071028 170.897646,172.099618 168.616498,175.266749 C168.288819,175.311089 167.986346,175.355429 167.633461,175.3871 C165.667389,175.627802 163.692914,175.798827 161.710038,175.900176 C154.065751,176.197962 146.41017,175.829195 138.829238,174.798014 C130.360003,173.746527 121.941179,172.226304 113.484547,171.060799 C113.879952,170.611379 114.333497,170.217257 114.833071,169.888961 C119.950952,166.063473 123.113836,160.150401 123.466146,153.749261 C122.964745,153.412963 122.379791,153.224279 121.77734,153.204515 C120.176755,153.052493 118.11616,153.400877 116.937777,153.255189 C107.145223,152.020008 82.5,127.867467 82.5,127.867467 L94.7438427,121.710564 L112.961521,127.867467 C112.961521,127.867467 132.55293,96.9436 140.511743,88.069299 C148.470556,79.1949979 162.825406,79.0113043 162.825406,79.0113043 C164.545428,78.946535 166.264612,79.160411 167.91703,79.6447305 C177.671774,82.5141512 182.700383,94.403561 183.35574,104.468703 C184.672757,124.269606 176.638326,145.077657 172.832211,164.175457 Z" id="Path" fill="#FFFFFF"></path>
                <path d="M175.966099,58.1902225 C175.804126,59.6169711 175.405944,61.0076055 174.787521,62.3063579 C174.43199,63.1816407 173.92325,63.9880092 173.284678,64.6884092 C172.037506,65.7868681 172.000091,67.6443745 171.23308,69.0945871 C170.708987,70.0210961 169.982512,70.8201441 169.106651,71.4334406 C165.54695,74.0336248 160.911898,74.707084 156.747172,73.2292358 L156.123586,72.9947333 C155.855171,72.5784874 155.645376,72.1279582 155.5,71.6556008 L157.994345,71.5692052 C157.946347,70.7040553 157.593279,69.8829608 156.996607,69.248865 L162.677477,69.1377849 C164.27323,69.3250004 165.796392,68.4256583 166.387815,66.9470382 C167.248364,65.6264191 168.140092,64.1823776 167.996667,62.627256 C167.850972,61.7123122 167.526932,60.8341234 167.04258,60.0415578 C165.795408,57.6286508 164.548236,55.1046638 164.199027,52.4325699 C163.849819,49.7604761 164.654245,46.7427996 166.830561,45.0765979 C167.289645,44.7952442 167.694956,44.4359235 168.027847,44.0151657 C168.306503,43.5084953 168.403233,42.9232621 168.302225,42.3551351 C168.015375,39.775608 165.98872,37.7699948 164.080546,35.9803708 L159.858867,32 C160.332793,32.4504916 162.490401,32.5060316 163.195054,32.7281919 C164.381557,33.1305598 165.545205,33.5961304 166.6809,34.1228644 C166.506296,33.6106617 166.057314,32.8886409 165.664455,32.0617112 C167.161421,32.7989741 168.558813,33.719514 169.823775,34.8016873 C173.016536,37.5786902 175.012012,41.5343765 175.891269,45.6443407 C176.676941,49.7879576 176.702288,54.0377159 175.966099,58.1902225 Z" id="Path" fill="#D45319"></path>
                <path d="M172.874889,163.967857 C172.103988,167.836594 170.950771,171.837433 168.681942,174.982747 C168.356033,175.026781 168.055194,175.070816 167.704215,175.102269 C158.973609,175.976666 150.782007,176.706379 142.107809,174.800319 C140.7603,174.504659 139.168359,173.91334 138.930195,172.548274 C138.87982,171.759196 139.081836,170.974593 139.506804,170.30881 C145.448378,158.268549 149.252741,144.303355 149.089787,130.803667 C145.855765,130.394777 141.863378,136.679114 139.506804,138.824218 L130.838873,146.712665 C127.078382,150.109604 122.753818,153.733006 117.733564,153.336696 C114.775311,153.103943 112.130433,151.487252 109.585834,149.914595 L100.667204,144.303355 C98.0411285,142.661501 95.1894233,140.717697 94.5,137.685614 C98.6929469,138.006436 102.365693,140.4472 106.126183,142.328098 C109.886674,144.208995 114.418065,145.586643 118.197357,143.743489 C120.917446,142.416166 122.647271,139.704906 124.264282,137.14462 C134.884463,120.295523 146.528512,104.118952 159.130296,88.7067858 C162.170026,84.9890247 162.677692,79.4469815 168.005054,80.0445912 C177.707119,82.8942456 182.708572,94.7017541 183.36039,104.697562 C184.651492,124.336902 176.660449,145.001614 172.874889,163.967857 Z" id="Path" fill="url(#linearGradient-4)"></path>
                <path d="M53.7862541,49.4024467 C54.4483785,48.5665595 55.279453,47.8743298 56.2271877,47.3693114 C57.310367,46.7336361 58.5018535,46.2960437 59.7438935,46.0777452 C62.9990138,45.6669719 66.2446964,46.9018079 68.3689449,49.3591885 C70.4416418,51.8334466 71.5163368,54.9696895 71.3886565,58.1715013 C72.2613781,57.8807044 73.2214902,58.2382618 73.6786045,59.0243057 C74.0921958,59.8070809 74.2461763,60.6973289 74.1189791,61.5703596 C74.106465,62.3021042 73.888785,63.01629 73.4898725,63.6343936 C73.067808,64.257994 72.2914836,64.5526299 71.5522242,64.369783 C71.9876978,66.1925966 71.5521681,68.1109724 70.3695038,69.5793059 C69.8788007,70.1972802 69.243403,70.7472772 69.1112907,71.5073856 C68.9854693,72.4590659 69.7403973,73.3242299 70.6463107,73.7382726 C71.5642856,74.0629195 72.5012358,74.3332525 73.4521261,74.5478189 C75.5097772,75.3236203 77.2019074,76.8206895 78.2018809,78.7500438 C79.1859598,80.6652854 79.9234916,82.6934164 80.3974629,84.7876522 C80.5107021,85.2078747 80.598777,85.7207933 80.2716416,86.0236007 C80.0367235,86.1898724 79.7483498,86.2667288 79.4600941,86.2398917 L54.541182,87 C54.258084,84.1634982 54.0945163,80.9562118 56.0384557,78.8365602 C57.5420204,77.2051081 59.9074612,76.704549 62.1093343,76.2843265 C62.0824246,75.0339408 61.7843057,73.8035764 61.2348761,72.6753569 C61.0921476,72.3234295 60.855213,72.015954 60.54915,71.785474 C60.2158546,71.6163101 59.8567709,71.5015165 59.4859598,71.4455881 C57.0387352,70.8276139 55.7113203,68.2383018 55.0822137,65.834382 C55.0019899,65.3987776 54.8444107,64.9804242 54.6166748,64.5984335 C54.2562767,64.1638957 53.8002795,63.8152724 53.2829688,63.5787759 C50.244384,61.8669873 49.6089863,59.9574468 51.7982773,57.3990335 C53.7673809,55.1928654 51.8737701,51.9917588 53.7862541,49.4024467 Z" id="Path" fill="#DDDDDD" opacity="0.18"></path>
                <polygon id="Path" fill="#DDDDDD" opacity="0.32" points="8.5 14 18.7839711 66 49.5 66 40.7972281 14"></polygon>
                <polygon id="Path" fill="#DDDDDD" opacity="0.32" points="18.5 85 28.7793431 137 59.5 137 50.7959168 85"></polygon>
                <polygon id="Path" fill="#DDDDDD" opacity="0.32" points="81.5 14 91.7793431 66 122.5 66 113.795917 14"></polygon>
                <polygon id="Path" fill="url(#linearGradient-5)" points="84.5 9 94.7793431 61 125.5 61 116.795917 9"></polygon>
                <polygon id="Path" fill="url(#linearGradient-6)" points="14.5 15 23.7784033 61 51.5 61 43.6480723 15"></polygon>
                <polygon id="Path" fill="url(#linearGradient-5)" points="20.5 83 30.7793431 135 61.5 135 52.7959168 83"></polygon>
            </g>
        </g>
    </g>
</svg>