<?xml version="1.0" encoding="UTF-8"?>
<svg width="326px" height="277px" viewBox="0 0 326 277" version="1.1" xmlns="http://www.w3.org/2000/svg" xmlns:xlink="http://www.w3.org/1999/xlink">
    <title>Illustration 16</title>
    <defs>
        <linearGradient x1="51.6375257%" y1="48.3421956%" x2="47.386504%" y2="52.932132%" id="linearGradient-1">
            <stop stop-color="#000000" offset="1%"></stop>
            <stop stop-color="#000000" stop-opacity="0.69" offset="8%"></stop>
            <stop stop-color="#000000" stop-opacity="0.32" offset="21%"></stop>
            <stop stop-color="#000000" stop-opacity="0" offset="100%"></stop>
        </linearGradient>
        <linearGradient x1="55.7553485%" y1="20.8484469%" x2="45.0059063%" y2="112.994736%" id="linearGradient-2">
            <stop stop-color="#000000" offset="1%"></stop>
            <stop stop-color="#000000" stop-opacity="0.69" offset="8%"></stop>
            <stop stop-color="#000000" stop-opacity="0.32" offset="21%"></stop>
            <stop stop-color="#000000" stop-opacity="0" offset="100%"></stop>
        </linearGradient>
        <linearGradient x1="191.469867%" y1="-13.7938271%" x2="-64.3308814%" y2="101.546088%" id="linearGradient-3">
            <stop stop-color="#000000" offset="1%"></stop>
            <stop stop-color="#000000" stop-opacity="0.69" offset="8%"></stop>
            <stop stop-color="#000000" stop-opacity="0.32" offset="21%"></stop>
            <stop stop-color="#000000" stop-opacity="0" offset="100%"></stop>
        </linearGradient>
        <linearGradient x1="-27.5335689%" y1="243.577961%" x2="196.39576%" y2="122.053425%" id="linearGradient-4">
            <stop stop-color="#000000" offset="1%"></stop>
            <stop stop-color="#000000" stop-opacity="0.69" offset="8%"></stop>
            <stop stop-color="#000000" stop-opacity="0.32" offset="21%"></stop>
            <stop stop-color="#000000" stop-opacity="0" offset="100%"></stop>
        </linearGradient>
        <linearGradient x1="-32.1581978%" y1="19.9534504%" x2="215.481884%" y2="-174.062289%" id="linearGradient-5">
            <stop stop-color="#000000" offset="1%"></stop>
            <stop stop-color="#000000" stop-opacity="0.69" offset="8%"></stop>
            <stop stop-color="#000000" stop-opacity="0.32" offset="21%"></stop>
            <stop stop-color="#000000" stop-opacity="0" offset="100%"></stop>
        </linearGradient>
        <linearGradient x1="47.6592749%" y1="46.705351%" x2="53.5902851%" y2="55.0495098%" id="linearGradient-6">
            <stop stop-color="#000000" offset="1%"></stop>
            <stop stop-color="#000000" stop-opacity="0.69" offset="8%"></stop>
            <stop stop-color="#000000" stop-opacity="0.32" offset="21%"></stop>
            <stop stop-color="#000000" stop-opacity="0" offset="100%"></stop>
        </linearGradient>
        <linearGradient x1="46.8061051%" y1="42.8371519%" x2="54.8615037%" y2="60.9788508%" id="linearGradient-7">
            <stop stop-color="#000000" offset="1%"></stop>
            <stop stop-color="#000000" stop-opacity="0.69" offset="8%"></stop>
            <stop stop-color="#000000" stop-opacity="0.32" offset="21%"></stop>
            <stop stop-color="#000000" stop-opacity="0" offset="100%"></stop>
        </linearGradient>
    </defs>
    <g id="DESIGN-SYSTEM" stroke="none" stroke-width="1" fill="none" fill-rule="evenodd">
        <g id="Illustrations" transform="translate(-130.000000, -2499.000000)">
            <g id="Stock-image" transform="translate(130.000000, 2499.000000)">
                <path d="M109.39,7.94 C91.39,17.6 78.23,35.25 72.39,54.83 C68.94,66.42 67.86,78.64 63.92,90.07 C52.73,122.58 20.44,143.73 6.67,175.25 C-1,192.8 -2.33,213.25 4.13,231.25 C10.59,249.25 25.03,264.52 43.13,270.88 C54.13,274.78 66.13,275.36 77.82,275.74 C99.82,276.44 121.9,276.52 143.52,272.62 C153.81,270.76 163.95,268.01 174.35,266.8 C194.45,264.48 214.97,268.01 234.94,264.8 C248.85,262.54 262.04,257.06 274.63,250.74 C284.09,246 293.39,240.74 301.18,233.55 C321.81,214.62 329.46,183.94 323.91,156.49 C318.36,129.04 300.91,104.94 279.02,87.54 C269.38,79.89 258.88,73.4 248.77,66.38 C235.756226,57.3333794 223.392593,47.3856669 211.77,36.61 C183.9,10.78 148.01,-12.82 109.39,7.94 Z" id="Path" fill="#DDDDDD" fill-rule="nonzero" opacity="0.18"></path>
                <path d="M57.18,233.47 L55.9,233.39 C51.71,233.06 48.9,235.2 45.37,237.27 C41.17,239.74 36.37,241.1 32.28,243.69 C31.67,244.08 30.99,244.8 31.36,245.42 C31.61,245.83 32.18,245.89 32.67,245.9 C43.02,246.1 53.34,246.14 63.67,246.14 L251.17,246.14 C258.005973,246.112159 264.833194,245.647881 271.61,244.75 C272.616853,244.719585 273.443959,243.945116 273.54042,242.942433 C273.63688,241.93975 272.972588,241.021805 271.99,240.8 C266.176667,238.8 260.336667,236.93 254.47,235.19 C239.56,230.71 222.82,232.67 207.47,232.99 C191.31,233.34 175.12,233.74 158.97,232.7 C147.34,231.95 138.21,232.7 126.54,233.08 C118.03,233.33 109.61,234.08 101.07,233.95 L70.74,233.58 C66.22,233.61 61.67,233.74 57.18,233.47 Z" id="Path" fill="url(#linearGradient-1)" fill-rule="nonzero"></path>
                <polygon id="Path" fill="#DDDDDD" fill-rule="nonzero" points="116.87 234.61 193.06 234.61 179.58 186.15 128.24 186.15"></polygon>
                <polygon id="Path" fill="url(#linearGradient-2)" fill-rule="nonzero" points="116.87 234.61 193.06 234.61 179.58 186.15 128.24 186.15"></polygon>
                <path d="M269.09,56.67 L269.09,181.67 C269.045941,189.198579 262.918675,195.272175 255.39,195.250061 L57.97,195.250061 C50.4280711,195.250061 44.3110343,189.141921 44.3,181.6 L44.3,56.67 C44.3,49.1202675 50.4202675,42.999967 57.97,42.999967 L255.39,42.999967 C259.015512,42.9920348 262.495696,44.4246293 265.064946,46.9826274 C267.634196,49.5406255 269.082052,53.0144879 269.09,56.64 L269.09,56.67 Z" id="Path" fill="#DDDDDD" fill-rule="nonzero"></path>
                <path d="M269.09,56.68 L269.09,166.25 L44.3,166.25 L44.3,56.68 C44.3,49.1286481 50.4186502,43.00552 57.97,42.9999963 L255.39,42.9999963 C259.020814,42.9973469 262.503973,44.4371382 265.073222,47.002636 C267.64247,49.5681339 269.087349,53.049186 269.09,56.68 L269.09,56.68 Z" id="Path" fill="#473F47" fill-rule="nonzero"></path>
                <path d="M265.71,59.25 L265.71,162.59 L47.71,162.59 L47.71,59.25 C47.7704912,51.9872126 53.6869948,46.1377389 60.95,46.1598079 L252.44,46.1598079 C259.71469,46.1211698 265.64948,51.9754578 265.71,59.25 Z" id="Path" fill="#FFFFFF" fill-rule="nonzero"></path>
                <path d="M265.71,59.25 L265.71,162.59 L47.71,162.59 L47.71,59.25 C47.7704912,51.9872126 53.6869948,46.1377389 60.95,46.1598079 L252.44,46.1598079 C259.71469,46.1211698 265.64948,51.9754578 265.71,59.25 Z" id="Path" fill="#DDDDDD" fill-rule="nonzero" opacity="0.18"></path>
                <rect id="Rectangle" fill="url(#linearGradient-3)" fill-rule="nonzero" x="172.21" y="122.86" width="77.49" height="63.4" rx="9.12"></rect>
                <path d="M115.05,43 L115.05,85.72 C115.05,89.0005714 112.390571,91.66 109.11,91.66 L44.3,91.66 L44.3,56.66 C44.3165178,49.1187402 50.4287301,43.0109991 57.97,43 L115.05,43 Z" id="Path" fill="url(#linearGradient-4)" fill-rule="nonzero"></path>
                <path d="M95.71,195.25 C97.54,186.77 88.84,179.3 89.17,170.63 C89.31,166.82 91.17,163.32 93.03,159.98 C93.1395004,159.718056 93.3329807,159.499951 93.58,159.36 C93.96,159.2 94.38,159.44 94.75,159.62 C98.2,161.39 102.59,158.88 104.25,155.38 C105.91,151.88 105.6,147.81 105.25,143.96 C101.507445,146.977779 96.4453075,147.784676 91.95,146.08 C89.76,145.23 87.69,143.77 85.34,143.779949 C82.99,143.79 80.83,145.38 79.12,147.09 C73.25,152.96 69.95,161.02 68.44,169.19 C66.93,177.36 67.28,186.82 67.44,195.13 L95.71,195.25 Z" id="Path" fill="url(#linearGradient-5)" fill-rule="nonzero"></path>
                <line x1="231.66" y1="103.08" x2="201.41" y2="86.59" id="Path"></line>
                <path d="M109.11,94.84 L213.11,94.84 C216.975993,94.84 220.11,97.9740068 220.11,101.84 L220.11,101.84 C220.11,105.705993 216.975993,108.84 213.11,108.84 L109.11,108.84 L109.11,94.84 Z" id="Path" fill="#DDDDDD" fill-rule="nonzero"></path>
                <rect id="Rectangle" fill="#FFFFFF" fill-rule="nonzero" x="109.11" y="94.84" width="83.96" height="13.94"></rect>
                <circle id="Oval" stroke="#FFFFFF" cx="205.52" cy="101.02" r="3.36"></circle>
                <line x1="208.6" y1="106.49" x2="207.22" y2="103.92" id="Path" stroke="#FFFFFF"></line>
                <path d="M85.95,234.12 C85.8890885,234.802806 86.1218402,235.47924 86.59,235.98 C86.838801,236.152064 87.121988,236.268069 87.42,236.32 C88.2100067,236.474672 89.0168825,236.525102 89.82,236.47 C91.3204048,236.366847 92.8111327,236.152931 94.28,235.83 L96.8,235.35 C97.122522,235.338133 97.4245784,235.188924 97.63,234.94 C97.7923331,234.609419 97.7368752,234.213292 97.49,233.94 C97.0593354,233.4426 96.4982315,233.075458 95.87,232.88 C94.3549835,232.263773 92.7934041,231.768883 91.2,231.4 C90.9361924,231.359762 90.6858689,231.256889 90.47,231.1 C90.15,230.82 90.09,230.35 89.87,229.99 C89.4311156,229.338886 88.6322099,229.031307 87.87,229.22 C87.14,229.36 86.09,229.85 85.87,230.65 C85.7665832,231.806011 85.7934183,232.969983 85.95,234.12 Z" id="Path" fill="#F9C6D6" fill-rule="nonzero"></path>
                <path d="M94.11,231.71 C93.5849979,231.572483 93.0266603,231.729276 92.65,232.12 C92.23,232.73 92.77,233.71 92.28,234.26 C91.9718884,234.519385 91.5697736,234.638933 91.17,234.59 L88.39,234.59 C87.6420304,234.625448 86.8926006,234.564956 86.16,234.41 C85.9961329,234.340071 85.8154865,234.319227 85.64,234.35 C85.3863548,234.421152 85.2007378,234.638363 85.17,234.9 C85.1460618,235.155202 85.1837871,235.41242 85.28,235.65 C85.460408,236.157798 85.7203113,236.633724 86.05,237.06 C86.140658,237.18575 86.256434,237.29131 86.39,237.37 C86.547972,237.435913 86.7193486,237.463333 86.89,237.45 C88.54,237.45 90.19,237.51 91.89,237.38 C93.04,237.3 94.18,237.14 95.32,237.04 C96.9763207,237.042378 98.6205672,236.758188 100.18,236.2 C100.590048,236.061446 100.925891,235.761715 101.11,235.37 C101.193956,235.022048 101.116832,234.654787 100.9,234.37 C100.678521,234.07669 100.399489,233.831687 100.08,233.65 C99.1793394,233.069317 98.1895346,232.640289 97.15,232.38 C96.1524949,232.09009 95.1369585,231.866271 94.11,231.71 L94.11,231.71 Z" id="Path" fill="#565056" fill-rule="nonzero"></path>
                <path d="M55.39,231.04 L55.39,231.25 C55.49,233.47 58.39,233.53 60.02,233.45 C61.5165748,233.34192 63.0036234,233.128052 64.47,232.81 L67,232.33 C67.3200761,232.308756 67.6186181,232.161283 67.83,231.92 C67.9815256,231.587769 67.9269365,231.197847 67.69,230.92 C67.2580485,230.419394 66.6927752,230.051793 66.06,229.86 C64.6973181,229.336345 63.3088534,228.882424 61.9,228.5 C60.65,228.13 61.7,226.41 61.84,225.5 C61.8901997,225.316708 61.8901997,225.123292 61.84,224.94 C61.6974049,224.742472 61.4876069,224.603792 61.25,224.55 C60.5218668,224.299327 59.7597863,224.161073 58.99,224.14 C58.834173,224.11936 58.6759018,224.151014 58.54,224.23 C58.4202831,224.322273 58.3299551,224.447343 58.28,224.59 L55.87,229.74 C55.6312563,230.140051 55.4685221,230.58079 55.39,231.04 L55.39,231.04 Z" id="Path" fill="#F9C6D6" fill-rule="nonzero"></path>
                <path d="M56.45,165.65 C56.45,165.65 54.65,175.79 58.37,183.39 C60.3192685,187.477274 62.4994568,191.450358 64.9,195.29 C64.9,195.29 57.16,203.66 57.16,214.22 C57.16,224.78 56.96,225.22 56.96,225.22 L61.61,227.57 L73.21,195.25 C73.21,195.25 73.91,190.67 73.21,189.12 C72.51,187.57 66.56,169.9 66.56,169.9 L56.45,165.65 Z" id="Path" fill="#473F47" fill-rule="nonzero"></path>
                <path d="M98.49,124.54004 C96.09,124.54004 93.49,121.98 91.99,118.03 C90.31,113.46 91.04,109.27 93.69,108.29 C96.34,107.31 99.61,110.03 101.3,114.6 L101.3,114.6 C102.99,119.18 102.3,123.37 99.61,124.35 C99.2504565,124.477599 98.8715095,124.541885 98.49,124.54004 Z M94.81,110.249994 C94.6809441,110.249607 94.5526564,110.269863 94.43,110.31 C93.19,110.77 92.75,113.85 94.02,117.31 C95.29,120.77 97.62,122.8 98.86,122.31 C100.1,121.82 100.54,118.77 99.28,115.31 L99.28,115.31 C98.13,112.249994 96.1,110.249994 94.81,110.249994 Z" id="Shape" fill="#473F47" fill-rule="nonzero"></path>
                <path d="M108.03,134.59 C107.701429,134.589043 107.390166,134.442566 107.18,134.19 L99.18,124.11 C99.0017049,123.884799 98.9204643,123.597851 98.9542431,123.312608 C98.9880218,123.027365 99.134037,122.767328 99.36,122.59 L99.36,122.59 C99.8215761,122.22419 100.491996,122.30017 100.86,122.76 L100.86,122.76 L108.86,132.84 C109.118438,133.161788 109.168766,133.603522 108.989336,133.975197 C108.809907,134.346872 108.432714,134.582216 108.02,134.58 L108.03,134.59 Z" id="Path" fill="#473F47" fill-rule="nonzero"></path>
                <path d="M93.88,119.65 C94.0039481,120.708515 94.0474062,121.774909 94.01,122.84 C93.7984987,123.658503 93.2930055,124.370465 92.59,124.84 C91.8878288,125.312152 91.1048019,125.651125 90.28,125.84 C89.9146258,125.869412 89.5822807,126.062867 89.3762688,126.366054 C89.170257,126.669242 89.1127895,127.049473 89.22,127.4 L89.22,130.13 C89.2505969,130.415114 89.1797869,130.701894 89.02,130.94 C88.8899758,131.067907 88.7274459,131.157817 88.55,131.2 C87.1851831,131.51873 85.7877232,130.815791 85.23,129.53 C84.93,128.93 84.59,128.34 84.23,127.77 C83.876622,127.032315 83.6630152,126.235527 83.6,125.42 C83.3327129,122.802828 83.8257395,120.164094 85.02,117.82 C85.7582443,116.321417 86.8411775,115.019155 88.18,114.02 C89.24,113.26 91.33,112.11 92.42,113.43 C92.96,114.09 92.95,115.06 93.42,115.75 C93.79,116.25 94.42,116.59 94.53,117.2 C94.64,117.81 94.23,118.2 94.04,118.75 C93.9368304,119.038973 93.88275,119.343175 93.88,119.65 Z" id="Path" fill="#F9C6D6" fill-rule="nonzero"></path>
                <path d="M101.89,125.16 L101.89,125 C101.900033,124.374532 102.13018,123.772609 102.54,123.3 C102.974859,122.828818 103.681153,122.728516 104.23,123.06 C104.45,123.21 104.6,123.44 104.84,123.55 C105.08,123.66 105.6,123.55 105.84,123.85 C106.08,124.15 106.03,124.37 106.15,124.63 C106.27,124.89 106.62,125.11 106.85,125.36 C107.98,126.58 106.73,128.76 106.28,130 C105.6,131.86 104.95,133.73 104.38,135.63 C103.716514,135.730156 103.038752,135.599546 102.46,135.26 C102.246841,135.133782 102.057334,134.971347 101.9,134.78 C101.530172,134.114452 101.450605,133.32602 101.68,132.6 C101.819545,132.051585 101.860181,131.482681 101.8,130.92 C101.640709,130.310452 101.440248,129.712412 101.2,129.13 C101.03,128.64 100.89,128.02 101.28,127.67 C101.41,127.55 101.6,127.48 101.71,127.34 C101.80453,127.194302 101.853289,127.023646 101.85,126.85 C101.91,126.25 101.86,125.73 101.89,125.16 Z" id="Path" fill="#F9C6D6" fill-rule="nonzero"></path>
                <path d="M79.84,170.03 L91.09,195.25 L90.62,231.12 L85.46,230.74 C85.46,230.74 76.63,210.34 82.31,197.74 C82.31,197.74 68.67,186.08 63.63,179.44 C57.44,171.27 58.84,164.44 58.84,164.44 L79.84,170.03 Z" id="Path" fill="#565056" fill-rule="nonzero"></path>
                <path d="M85.05,126.43 C86.435628,126.740609 87.7786816,127.217393 89.05,127.85 C93.37,129.85 93.56,133.25 95.05,137.34 C96.0086427,139.942406 97.1034881,142.492595 98.33,144.98 L100.39,132.66 L106.17,134.99 C106.17,134.99 106.74,153.19 102.5,155.63 C99.77,157.21 95.95,155.37 93.5,154.1 C92.6,153.64 91.11,152.25 90.14,152.1 C88.29,151.85 88.14,154.04 86.54,155.33 C85.4698272,155.947853 84.4440093,156.639528 83.47,157.4 C82.55908,158.465948 81.8781851,159.708581 81.47,161.05 C81.0079829,162.70128 80.8721185,164.426759 81.07,166.13 C81.15,167.3 81.23,168.63 80.4,169.44 C79.9261322,169.850073 79.3416665,170.110996 78.72,170.19 C76.6654525,170.486768 74.5773109,170.463154 72.53,170.12 C68.4689995,169.799935 64.4495106,169.079776 60.53,167.97 C59.1132601,167.525055 57.7298011,166.98036 56.39,166.34 C56.0968745,166.216826 55.8290419,166.040531 55.6,165.82 C55.3524302,165.536261 55.1865307,165.190637 55.12,164.82 C54.59,162.34 56.38,160.04 57.28,157.67 C57.88,156.07 58.08,154.34 58.63,152.72 C59.23,150.91 60.35,149.72 61.35,148.12 C62.16,146.86 62.61,145.37 63.42,144.07 C65.583587,140.734639 67.9936446,137.565798 70.63,134.59 C72.1774339,132.672729 73.8980222,130.901929 75.77,129.3 C77.9129214,127.420803 80.6504239,126.358383 83.5,126.3 C84.0192583,126.303024 84.5374922,126.346489 85.05,126.43 Z" id="Path" fill="#FFFFFF" fill-rule="nonzero"></path>
                <path d="M80.52,105.25 C77.1305259,105.438101 74.2002485,107.678434 73.13,110.9 C72.68,112.06 72.86,113.52 72.68,114.77 C72.5994198,116.182792 72.0220861,117.52164 71.05,118.55 C69.85,119.65 68.05,119.82 66.52,120.22 C64.07,120.84 61.63,122.3 60.73,124.67 C59.83,127.04 60.59,129.46 60.19,131.83 C59.859925,133.802974 58.7863093,135.57444 57.19,136.78 C56.09,137.59 54.78,138.1 53.64,138.87 C51.6557285,140.36284 50.3459691,142.582972 49.9990039,145.041736 C49.6520387,147.5005 50.2963058,149.996371 51.79,151.98 L51.93,152.16 C52.3515962,152.585163 52.742573,153.039632 53.1,153.52 C53.4265631,154.08079 53.7236339,154.658242 53.99,155.25 C55.5796895,158.018337 58.6041587,159.64302 61.79,159.44 C64.9409266,159.179084 67.8217066,157.55796 69.68,155 C71.43,152.67 72.39,149.75 74.51,147.76 C75.9907601,146.603423 77.5476041,145.547709 79.17,144.6 C81.7,142.8 83.67,139.91 83.52,136.81 C83.38,134.23 81.21,131.42 83.22,129.13 C83.9693612,128.390171 84.8015224,127.739206 85.7,127.19 C86.6041634,126.634769 87.3431021,125.847489 87.84,124.91 C88.84,122.75 87.39,120.02 88.54,117.91 C89.39,116.4 91.29,115.84 92.54,114.59 C93.9031432,113.057265 94.2289943,110.862677 93.37,109 C92.4816859,107.171164 90.8184729,105.83839 88.84,105.37 C87.3906325,105.068769 85.9063335,104.971162 84.43,105.08 L81.91,105.16 C81.4447259,105.128129 80.9772793,105.158395 80.52,105.25 Z" id="Path" fill="#FC682D" fill-rule="nonzero"></path>
                <path d="M63.82,228.25 C63.2968085,228.109974 62.7387633,228.262863 62.36,228.65 C61.94,229.27 62.48,230.24 61.99,230.8 C61.6750163,231.053185 61.2711971,231.168562 60.87,231.12 L58.06,231.12 C57.3121218,231.150445 56.5633128,231.090003 55.83,230.94 C55.6608446,230.87711 55.4796827,230.853183 55.3,230.87 C55.0502321,230.950478 54.8704375,231.169358 54.84,231.43 C54.8108312,231.68205 54.8487786,231.937332 54.95,232.17 C55.1303745,232.68089 55.390237,233.160117 55.72,233.59 C55.8076973,233.718356 55.9241118,233.824499 56.06,233.9 C56.2192376,233.961341 56.3895726,233.988595 56.56,233.98 C58.21,233.98 59.86,234.04 61.56,233.91 C62.7,233.82 63.84,233.66 64.99,233.57 C66.6458969,233.56744 68.2893087,233.283393 69.85,232.73 C70.2600129,232.589913 70.5932938,232.285613 70.77,231.89 C70.8567782,231.543543 70.7833555,231.17643 70.57,230.89 C70.348124,230.599722 70.0690326,230.358069 69.75,230.18 C68.8493394,229.599317 67.8595346,229.170289 66.82,228.91 C65.8365989,228.620371 64.8341561,228.399834 63.82,228.25 Z" id="Path" fill="#565056" fill-rule="nonzero"></path>
                <rect id="Rectangle" fill="#FFFFFF" fill-rule="nonzero" x="168.46" y="119.15" width="77.49" height="63.4" rx="9.12"></rect>
                <rect id="Rectangle" fill="#DDDDDD" fill-rule="nonzero" x="33.06" y="23.19" width="77.49" height="63.4" rx="5.95"></rect>
                <polygon id="Path" fill="#DDDDDD" fill-rule="nonzero" points="234.96 172.91 179.84 172.91 179.84 132.22 180.84 132.22 180.84 171.91 234.96 171.91"></polygon>
                <rect id="Rectangle" fill="#DDDDDD" fill-rule="nonzero" x="189.07" y="152.53" width="6.48" height="19.38"></rect>
                <rect id="Rectangle" fill="#DDDDDD" fill-rule="nonzero" x="202.29" y="144.08" width="6.48" height="27.83"></rect>
                <rect id="Rectangle" fill="#DDDDDD" fill-rule="nonzero" x="216.8" y="138.06" width="6.48" height="33.85"></rect>
                <rect id="Rectangle" fill="url(#linearGradient-6)" fill-rule="nonzero" x="43.22" y="36.32" width="56.82" height="3.57"></rect>
                <rect id="Rectangle" fill="url(#linearGradient-7)" fill-rule="nonzero" x="43.22" y="47.02" width="35.38" height="3.57"></rect>
                <rect id="Rectangle" fill="url(#linearGradient-6)" fill-rule="nonzero" x="43.22" y="57.72" width="56.82" height="3.57"></rect>
                <rect id="Rectangle" fill="url(#linearGradient-7)" fill-rule="nonzero" x="43.22" y="68.42" width="35.38" height="3.57"></rect>
            </g>
        </g>
    </g>
</svg>