<?xml version="1.0" encoding="UTF-8"?>
<svg width="372px" height="253px" viewBox="0 0 372 253" version="1.1" xmlns="http://www.w3.org/2000/svg" xmlns:xlink="http://www.w3.org/1999/xlink">
    <title>Illustration 17</title>
    <defs>
        <linearGradient x1="52.2884816%" y1="31.2347142%" x2="49.4824803%" y2="54.2387082%" id="linearGradient-1">
            <stop stop-color="#000000" offset="1%"></stop>
            <stop stop-color="#000000" stop-opacity="0.69" offset="8%"></stop>
            <stop stop-color="#000000" stop-opacity="0.32" offset="21%"></stop>
            <stop stop-color="#000000" stop-opacity="0" offset="100%"></stop>
        </linearGradient>
        <linearGradient x1="115.355463%" y1="54.0498791%" x2="-86.1896245%" y2="41.882307%" id="linearGradient-2">
            <stop stop-color="#000000" offset="1%"></stop>
            <stop stop-color="#000000" stop-opacity="0.69" offset="8%"></stop>
            <stop stop-color="#000000" stop-opacity="0.32" offset="21%"></stop>
            <stop stop-color="#000000" stop-opacity="0" offset="100%"></stop>
        </linearGradient>
        <linearGradient x1="79.6769366%" y1="62.124368%" x2="-34.3770322%" y2="2.35473739%" id="linearGradient-3">
            <stop stop-color="#000000" offset="1%"></stop>
            <stop stop-color="#000000" stop-opacity="0.69" offset="8%"></stop>
            <stop stop-color="#000000" stop-opacity="0.32" offset="21%"></stop>
            <stop stop-color="#000000" stop-opacity="0" offset="100%"></stop>
        </linearGradient>
        <linearGradient x1="99.994546%" y1="50.0245728%" x2="-0.210174627%" y2="50.0245728%" id="linearGradient-4">
            <stop stop-color="#E5C5D5" offset="0%"></stop>
            <stop stop-color="#EAD4D1" offset="42%"></stop>
            <stop stop-color="#F0E9CB" offset="100%"></stop>
        </linearGradient>
        <linearGradient x1="16.2960882%" y1="-32.950844%" x2="70.543754%" y2="114.941615%" id="linearGradient-5">
            <stop stop-color="#000000" stop-opacity="0" offset="0%"></stop>
            <stop stop-color="#000000" offset="99%"></stop>
        </linearGradient>
        <linearGradient x1="0.0143477033%" y1="49.9872465%" x2="99.8277286%" y2="49.9872465%" id="linearGradient-6">
            <stop stop-color="#E5C5D5" offset="0%"></stop>
            <stop stop-color="#EAD4D1" offset="42%"></stop>
            <stop stop-color="#F0E9CB" offset="100%"></stop>
        </linearGradient>
        <linearGradient x1="155.768806%" y1="168.804978%" x2="-20.7724147%" y2="-41.471008%" id="linearGradient-7">
            <stop stop-color="#000000" offset="1%"></stop>
            <stop stop-color="#000000" stop-opacity="0.69" offset="8%"></stop>
            <stop stop-color="#000000" stop-opacity="0.32" offset="21%"></stop>
            <stop stop-color="#000000" stop-opacity="0" offset="100%"></stop>
        </linearGradient>
        <linearGradient x1="-0.00843459954%" y1="50.0090205%" x2="99.9910156%" y2="50.0090205%" id="linearGradient-8">
            <stop stop-color="#000000" offset="1%"></stop>
            <stop stop-color="#000000" stop-opacity="0.69" offset="8%"></stop>
            <stop stop-color="#000000" stop-opacity="0.32" offset="21%"></stop>
            <stop stop-color="#000000" stop-opacity="0" offset="100%"></stop>
        </linearGradient>
        <linearGradient x1="-0.00605019059%" y1="49.9842557%" x2="99.8916471%" y2="49.9842557%" id="linearGradient-9">
            <stop stop-color="#E5C5D5" offset="0%"></stop>
            <stop stop-color="#EAD4D1" offset="42%"></stop>
            <stop stop-color="#F0E9CB" offset="100%"></stop>
        </linearGradient>
        <linearGradient x1="60.0772163%" y1="-53.418532%" x2="41.2185914%" y2="133.630925%" id="linearGradient-10">
            <stop stop-color="#E5C5D5" offset="0%"></stop>
            <stop stop-color="#EAD4D1" offset="42%"></stop>
            <stop stop-color="#F0E9CB" offset="100%"></stop>
        </linearGradient>
        <linearGradient x1="46.3264265%" y1="35.4852891%" x2="69.793301%" y2="101.960145%" id="linearGradient-11">
            <stop stop-color="#E5C5D5" offset="0%"></stop>
            <stop stop-color="#EAD4D1" offset="42%"></stop>
            <stop stop-color="#F0E9CB" offset="100%"></stop>
        </linearGradient>
        <linearGradient x1="-1.25150287%" y1="66.3179221%" x2="116.284975%" y2="26.0871978%" id="linearGradient-12">
            <stop stop-color="#000000" offset="1%"></stop>
            <stop stop-color="#000000" stop-opacity="0.69" offset="8%"></stop>
            <stop stop-color="#000000" stop-opacity="0.32" offset="21%"></stop>
            <stop stop-color="#000000" stop-opacity="0" offset="100%"></stop>
        </linearGradient>
        <linearGradient x1="99.6465014%" y1="49.9939396%" x2="-0.396165461%" y2="49.9939396%" id="linearGradient-13">
            <stop stop-color="#E5C5D5" offset="0%"></stop>
            <stop stop-color="#EAD4D1" offset="42%"></stop>
            <stop stop-color="#F0E9CB" offset="100%"></stop>
        </linearGradient>
        <linearGradient x1="-55.2941877%" y1="168.081809%" x2="120.678998%" y2="-41.3229392%" id="linearGradient-14">
            <stop stop-color="#000000" offset="1%"></stop>
            <stop stop-color="#000000" stop-opacity="0.69" offset="8%"></stop>
            <stop stop-color="#000000" stop-opacity="0.32" offset="21%"></stop>
            <stop stop-color="#000000" stop-opacity="0" offset="100%"></stop>
        </linearGradient>
    </defs>
    <g id="DESIGN-SYSTEM" stroke="none" stroke-width="1" fill="none" fill-rule="evenodd">
        <g id="Illustrations" transform="translate(-534.000000, -2499.000000)" fill-rule="nonzero">
            <g id="Stock-image" transform="translate(534.000000, 2499.000000)">
                <path d="M204.131163,5.15509764 L263.870699,11.1722095 C277.09803,12.5073408 290.614089,13.8785567 302.668465,19.5618858 C320.298891,27.8162446 333.345768,45.7232417 334.654065,65.1097087 C335.781907,82.3310978 328.563718,98.4068 327.697535,115.384618 C326.795261,133.634419 337.018022,147.860784 337,166.209818 C336.885466,185.94182 329.085466,204.8527 315.255182,218.929461 C295.802163,238.541457 267.019634,245.920763 239.464198,247.37317 C211.908761,248.825576 184.217984,245.208092 156.635479,246.696583 C130.532704,248.103883 104.565269,254.066868 78.5076067,252.109277 C52.4499446,250.151686 24.7862354,237.828785 14.5093388,213.805443 C5.48660263,192.768105 11.4957449,167.102912 19.498912,146.633907 C25.9591911,130.071062 39.7730002,122.285803 48.4799406,106.616053 C64.7840249,77.1529536 65.6862986,37.5139887 93.7921218,15.3219418 C116.348962,-2.4948437 148.181176,-0.492146792 176.801295,2.39462352 L204.131163,5.15509764 Z" id="Path" fill="#DDDDDD" opacity="0.18"></path>
                <path d="M61.37,73.52 C59.5453045,73.6400112 57.7146955,73.6400112 55.89,73.52 C53.68,73.22 51.55,72.71 52.06,76.18 C52.66,80.18 56.29,83.08 57.89,86.83 C50.3,84.94 44.67,80.57 39.45,74.98 C37.13,72.49 33.15,73.52 29.88,73.52 L24.26,73.52 C10.861572,73.52 4.97379915e-14,62.658428 4.97379915e-14,49.26 C4.97379915e-14,35.861572 10.861572,25 24.26,25 L61.37,25 C74.768428,25 85.63,35.861572 85.63,49.26 C85.63,62.658428 74.768428,73.52 61.37,73.52 L61.37,73.52 Z" id="Path" fill="#DDDDDD"></path>
                <ellipse id="Oval" fill="url(#linearGradient-1)" cx="186" cy="199.5" rx="137" ry="26.5"></ellipse>
                <path d="M280.297331,148.352017 L291.946252,192.900167 C292.058209,193.339821 291.99374,193.806772 291.767073,194.197946 C291.540407,194.58912 291.170182,194.872353 290.738121,194.985124 C290.603171,195.004959 290.466123,195.004959 290.331172,194.985124 L290.331172,194.985124 C289.562669,194.988186 288.893435,194.45158 288.716093,193.690119 L277.054455,149.154919 C276.820707,148.236091 277.361005,147.29787 278.262585,147.057012 L278.262585,147.057012 C279.143928,146.818227 280.048689,147.351324 280.284614,148.248416 L280.297331,148.352017 Z" id="Path" fill="#DDDDDD"></path>
                <path d="M257.654393,148.336485 L249.024195,192.887229 C248.862843,193.888221 249.525501,194.833608 250.505116,195 L250.785981,195 L250.785981,195 C251.540814,195.001061 252.189588,194.453326 252.330735,193.69582 L260.9737,149.158118 C261.134494,148.203321 260.542549,147.284852 259.620444,147.05839 L259.620444,147.05839 C258.785692,146.823639 257.921183,147.317504 257.679926,148.166942 C257.679926,148.166942 257.654393,148.284318 257.654393,148.336485 Z" id="Path" fill="#DDDDDD"></path>
                <path d="M272.396306,149.325548 L279.981522,193.868289 C280.051305,194.364901 279.92174,194.869055 279.621513,195.269132 C279.321286,195.66921 278.875165,195.932206 278.381919,196 L278.149718,196 C277.391945,196.008822 276.743064,195.454763 276.627515,194.700135 L269.016499,150.157394 C268.890132,149.197195 269.501769,148.295211 270.435502,148.064782 L270.435502,148.064782 C271.247664,147.821009 272.102247,148.28644 272.344706,149.104589 C272.370387,149.175966 272.387705,149.250122 272.396306,149.325548 Z" id="Path" fill="#DDDDDD"></path>
                <path d="M249.670901,149.224883 L234.105954,193.854832 C233.795877,194.663824 234.189207,195.573786 234.987967,195.895358 C235.175084,195.963943 235.372561,195.999346 235.571653,196 L235.571653,196 C236.373207,195.988109 237.07785,195.461745 237.322709,194.691971 L252.887656,150.075102 C253.041184,149.691804 253.037212,149.262662 252.876616,148.882321 C252.71602,148.501979 252.411992,148.201682 252.031584,148.047657 L251.837022,148.047657 L251.837022,148.047657 C250.924466,147.837225 249.998388,148.340522 249.670901,149.224883 L249.670901,149.224883 Z" id="Path" fill="#DDDDDD"></path>
                <path d="M256.444092,114.959547 C260.372168,108.036914 265.701258,101.192798 273.321726,98.902702 C278.022323,97.4762992 283.089542,97.9735773 287.934169,98.7980119 C291.582052,99.243528 295.106093,100.40421 298.30429,102.213527 C301.53824,104.070738 303.663699,107.386553 304,111.0991 C303.940067,113.215873 303.496432,115.304224 302.690641,117.26273 L295.515356,137.899767 C294.572617,140.608624 293.551318,143.448343 291.390876,145.345851 C289.244682,146.942138 286.749304,148.00522 284.110841,148.447295 C275.560729,150.580356 266.945149,152.713417 258.146258,152.975143 C249.347368,153.236868 240.234231,151.457136 233.045852,146.432011 C230.427135,144.626106 228.017915,141.446144 229.405835,138.580253 C230.492603,136.421019 233.333911,135.845224 235.743131,135.963 C242.093521,136.224725 243.939717,135.491895 247.684482,130.296648 C251.101909,125.493989 253.550409,120.076276 256.444092,114.959547 Z" id="Path" fill="#505365"></path>
                <path d="M250.814784,107.36403 C249.993703,108.823957 248.876837,110.088561 247.538672,111.0735 L230.964641,125.161593 C229.42977,126.477008 227.727224,128.173893 228.036778,130.199632 C228.054201,130.404383 228.135577,130.598031 228.268943,130.752106 C228.513737,130.946995 228.825512,131.032418 229.133114,130.988881 C230.820137,130.950372 232.498093,130.725437 234.137569,130.318019 C235.865911,129.883932 237.800623,129.002604 238.148871,127.174177 C238.239158,126.67432 238.148871,126.161308 238.277852,125.66145 C238.614197,124.451368 239.426558,123.437183 240.522117,122.859617 C241.811925,121.978289 242.959854,120.965419 244.19807,120.070937 C246.635807,118.281973 249.16383,116.611396 251.756344,115.059207 C253.574973,113.967412 256.41255,112.69146 257.495988,110.731492 C258.579427,108.771524 257.676562,105.877611 257.01876,103.87818 C256.580225,102.562766 256.025608,102.378608 254.722902,102.194449 C253.420196,102.010291 252.078796,101.602513 251.640261,103.075777 C251.201726,104.549042 251.459688,105.956536 250.814784,107.36403 Z" id="Path" fill="#EC9C7D"></path>
                <path d="M279.16626,98.3668376 C276.232237,99.9926148 273.760785,98.3033307 272.994238,95.3947138 C272.677047,94.1245754 272.544883,92.7528259 272.108745,91.4445834 C271.443581,89.8179898 270.55458,88.2844065 269.465481,86.8847865 C268.35785,85.4847631 267.561599,83.8808117 267.126192,82.1725731 C266.715791,80.4221085 267.322481,78.59521 268.71215,77.3968527 C269.027897,77.1189315 269.447901,76.9767405 269.875187,77.0031098 C270.549219,77.0666167 270.90606,77.803297 271.064655,78.4637689 C271.091603,79.129514 271.198031,79.7900814 271.381847,80.4324835 C271.912253,81.3061643 272.782361,81.9413162 273.800434,82.1979758 C276.086857,83.0997741 278.545093,83.8999613 280.144268,85.6908564 C281.504447,87.3489434 282.156585,89.4425841 281.96812,91.5461944 C281.835957,93.61652 281.201573,97.2618172 279.16626,98.3668376 Z" id="Path" fill="#2F3554"></path>
                <path d="M249.137823,112.82097 L248.203067,117.043347 C248.014861,117.662461 247.956637,118.31258 248.031914,118.954393 C248.240868,119.743201 248.664018,120.461668 249.256313,121.0333 C253.627283,125.940038 257.47163,126.353237 263.935926,125.823826 C267.714544,125.542387 271.442739,124.800673 275.034504,123.615794 C274.507881,118.205469 275.034504,110.806625 276.061419,108.521118 C278.773527,102.387696 282.117582,94.2528408 278.233738,89.6172647 C275.087166,85.8726489 269.346977,86.2341981 265.844934,86.3374978 C263.21182,86.3374978 260.170572,85.4078001 257.748107,86.6344846 C255.325642,87.861169 253.574621,90.7535619 252.481878,92.8712067 C251.811424,94.1752748 251.217993,95.516081 250.704526,96.8869843 C250.628429,97.0496763 250.583787,97.2248095 250.57287,97.4034831 C250.600712,97.6525911 250.706489,97.8871405 250.875678,98.0749314 L252.442381,100.321701 C250.217399,103.498168 249.967254,109.115092 249.137823,112.82097 Z" id="Path" fill="#FFFFFF"></path>
                <path d="M264.046407,64.2854076 C263.646566,64.4696219 263.289782,64.7393825 263,65.0765874 C262.267777,66.3186751 261.745921,67.6788715 261.456544,69.0995354 L259.429127,74.9998592 C259.429127,74.9998592 252.78443,75.1205476 254.197082,68.2949458 C254.916488,64.7011122 257.127027,61.3486555 260.97258,61 C261.856654,61.0100533 262.735825,61.1362398 263.588603,61.3754752 C264.600632,61.5632438 265.63732,61.5632438 266.649349,61.3754752 C267.041752,61.2950162 267.512636,61.2011474 267.800399,61.4827538 C268.033817,61.7505617 268.065841,62.1445386 267.87888,62.4482613 C267.683867,62.7291603 267.422951,62.9551459 267.120233,63.1053428 C266.191545,63.5746868 265.014335,63.789244 264.046407,64.2854076 Z" id="Path" fill="#2F3554"></path>
                <path d="M269.219837,63.6030609 C269.219837,63.6030609 258.331702,60.5585751 256.551171,68.150682 C256.175627,69.7195842 255.990701,71.3276232 256.00036,72.9403333 L256.00036,74.5835913 C256.499933,79.5515807 258.997799,83.3221572 263.045624,82.9782195 C270.180555,82.4049899 277.738202,67.3991143 269.219837,63.6030609 Z" id="Path" fill="#EC9C7D"></path>
                <path d="M267.957895,78.3746619 C268.247335,78.6454889 268.71056,78.6454889 269,78.3746619 L269,78.3746619 C268.159157,79.5818464 267.634646,80.9643025 267.470677,82.4055067 C266.888722,86.552626 269,86.7334973 269,86.7334973 C261.16391,90.9193746 260,88.0254347 260,88.0254347 C261.027125,86.6477549 261.137564,84.8304367 260.284211,83.3486211 C263.843609,84.2788161 267.051128,80.2738099 267.66015,78 C267.71471,78.1521517 267.819101,78.2835105 267.957895,78.3746619 L267.957895,78.3746619 Z" id="Path" fill="#D68369"></path>
                <path d="M261.220353,62.0096157 C261.798415,61.7991592 262.350785,61.9043874 262.928847,61.746545 C263.562499,61.4966048 264.162509,61.1651031 264.714415,60.7600301 C266.209076,60.0627228 267.873037,59.8382948 269.49306,60.1155071 C270.766426,60.1887133 272.010018,60.5384448 273.141272,61.1414826 C274.929483,62.3057134 276.098571,64.2443266 276.314189,66.4028953 C276.478716,68.560075 276.032732,70.7201105 275.029607,72.6245159 C274.848025,72.9459602 274.709749,73.2910821 274.618541,73.6504914 C274.37447,75.1105334 275.903123,76.162816 276.49403,77.596551 C276.738595,78.5883048 276.893399,79.6010228 276.95648,80.6218633 C277.406084,82.739582 279.268727,84.1864705 280.514771,85.8832761 C281.622671,87.3345413 282.142471,89.1668067 281.966349,91 C278.279599,89.5531115 274.091862,90.0660992 270.315192,88.8559743 C269.478398,88.6250638 268.701912,88.2073069 268.041482,87.6326958 C266.963939,86.4369842 266.46042,84.813146 266.66698,83.1999556 C266.795403,82.0381419 267.001418,80.8867036 267.283579,79.7537302 C267.412037,79.0960536 267.283579,77.9122357 267.938716,77.4781692 C268.257908,77.2556946 268.592824,77.0578455 268.940689,76.8862603 C269.74277,76.4121369 270.233561,75.5326769 270.225271,74.5843922 C270.263785,74.1849429 270.092689,73.794509 269.775668,73.5584167 C269.406529,73.3894899 268.974146,73.4676206 268.683773,73.7557197 C268.259861,74.1371721 268.311244,74.5975457 267.758874,74.702774 C267.163388,74.7021675 266.581734,74.5189098 266.088918,74.1766327 C262.479243,72.1246817 261.091895,66.7185801 260,62.9040558 C260.475295,62.8119811 260.693674,62.2332257 261.220353,62.0096157 Z" id="Path" fill="#2F3554"></path>
                <path d="M269.576159,101.272087 C272.560422,92.4169851 274.54993,88.0611617 277.585207,89.1696796 C277.585207,89.1696796 281.564224,91.1910947 279.306897,99.3289203 C276.756245,108.457891 270.099042,117 270.099042,117 L267,110.022858 C267,110.022858 268.007508,106.149566 269.576159,101.272087 Z" id="Path" fill="#EC9C7D"></path>
                <path d="M237,134 C237.222222,133.769231 237.933333,133 239,132 C238.899928,132.071447 238.810369,132.153256 238.733333,132.24359 C238.119921,132.802006 237.541324,133.388307 237,134 L237,134 Z" id="Path" fill="#DC9BD5"></path>
                <path d="M274.19997,121 C270.01602,121.248651 265.61049,121.536563 261.309233,122.164735 C261.309233,122.164735 244.364887,136.442553 242.279429,139.897498 C237.287364,147.919773 232.438675,145.642651 239.672607,157.368522 L254.140471,180.820264 C256.590884,181.64474 259.210741,179.511573 259.927617,176.894191 C260.418131,174.309547 260.155645,171.637698 259.171639,169.199088 C257.68575,164.147541 256.238963,159.082907 254.805211,154.044447 C254.349684,152.933676 254.349684,151.687187 254.805211,150.576416 C255.218701,150.02455 255.754112,149.576567 256.369305,149.267725 C258.089807,148.246946 259.262877,145.825868 261.165858,145.236957 C264.402399,144.373323 267.481974,142.999569 270.289736,141.166928 C273.129159,139.31042 275.124451,136.404116 275.842268,133.079218 C276.54611,129.113884 274.695266,125.096203 274.19997,121 Z" id="Path" fill="#DDDDDD"></path>
                <path d="M261.844795,122.150724 C258.404416,122.577398 252.791167,121 252.791167,121 C247.889274,123.185084 242.586435,128.615469 239.857413,131.666828 L239.857413,131.666828 C238.913249,132.675328 238.292429,133.451097 238.098423,133.670899 L238.098423,133.670899 L237.826814,134.019995 C234.800315,138.041066 232.899054,142.786188 231.023659,147.466663 L221.569085,171.011261 C221.219662,171.748228 221.025936,172.549282 221,173.364428 C221.142271,176.273563 225.035331,177.049332 227.945426,176.997614 L240.504101,156.840542 C240.504101,156.840542 238.12429,149.651746 243.090852,139.592604 C244.862776,135.985277 262,122.073148 262,122.073148 L261.844795,122.150724 Z" id="Path" fill="#DDDDDD"></path>
                <path d="M261.844795,122.150724 C258.404416,122.577398 252.791167,121 252.791167,121 C247.889274,123.185084 242.586435,128.615469 239.857413,131.666828 L239.857413,131.666828 C238.913249,132.675328 238.292429,133.451097 238.098423,133.670899 L238.098423,133.670899 L237.826814,134.019995 C234.800315,138.041066 232.899054,142.786188 231.023659,147.466663 L221.569085,171.011261 C221.219662,171.748228 221.025936,172.549282 221,173.364428 C221.142271,176.273563 225.035331,177.049332 227.945426,176.997614 L240.504101,156.840542 C240.504101,156.840542 238.12429,149.651746 243.090852,139.592604 C244.862776,135.985277 262,122.073148 262,122.073148 L261.844795,122.150724 Z" id="Path" fill="url(#linearGradient-2)"></path>
                <path d="M254.597936,183.022803 C254.89275,182.286682 255.214366,181.563946 255.576183,180.854594 C256.21828,180.239858 256.918369,179.68855 257.666683,179.208361 C257.974898,178.940681 259.757183,177.428288 259.649978,177 C260.053708,178.433018 260.587479,179.826265 261.244654,181.162426 C261.776739,181.950769 262.039924,182.889548 261.99509,183.839227 C261.71287,184.69404 261.151261,185.429354 260.400414,185.927132 C257.61308,188.215797 254.303122,190.384006 250.72515,189.942334 C250.502214,189.955394 250.285372,189.866796 250.135522,189.701422 C250.0385,189.580579 249.99065,189.42765 250.001516,189.273134 C250.001516,187.680437 251.488987,186.596332 252.681644,185.55238 C253.453925,184.81891 254.101194,183.96449 254.597936,183.022803 L254.597936,183.022803 Z" id="Path" fill="#EC9C7D"></path>
                <path d="M261.50259,182.081743 C260.838816,182.295876 260.267971,183.272859 259.776779,183.768042 C259.127105,184.411948 258.43522,185.011088 257.705806,185.561408 C257.11651,186.10808 256.326512,186.380028 255.528629,186.310874 C254.758652,186.150274 254.201082,185.454341 253.457656,185.213441 C252.780065,185.021359 252.052628,185.149326 251.479612,185.561408 C250.904722,185.948971 250.408983,186.444194 250.01931,187.020191 C248.899474,188.486908 248.20551,190.238231 248.014715,192.079088 C247.974483,192.283588 248.017541,192.495806 248.134194,192.667955 C248.225663,192.775091 248.345321,192.853964 248.479356,192.895471 C249.639793,193.152585 250.854034,192.930897 251.851325,192.279838 C254.304736,191.164934 256.670207,189.862973 258.927149,188.38529 C259.985927,187.57364 261.124769,186.87402 262.325669,186.297491 C262.56513,186.238015 262.773642,186.089915 262.909789,185.882608 C262.989587,185.716439 263.017367,185.529733 262.989442,185.347275 C262.909789,184.370292 262.989442,181.479493 261.50259,182.081743 Z" id="Path" fill="#505365"></path>
                <path d="M281.544685,92.3631881 C280.7759,90.2785867 276.865697,85.5080568 274.214713,87.4590298 C272.523466,88.7305674 271.312563,90.5452128 270.781688,92.603719 C270.529845,93.5524799 270.43706,94.5680549 270.198471,95.5435414 C269.880353,96.746196 269.376666,97.8953993 269.164588,99.1114167 C268.970171,100.398797 268.947881,101.706647 269.098313,103 C271.616748,102.643658 274.126347,102.269499 276.627109,101.877522 L280.391507,101.276195 C281.094018,101.169292 282.525549,101.449912 282.856922,100.714956 C283.015162,100.287521 283.042861,99.8221169 282.936452,99.3786733 L282.631589,97.2272579 C282.446446,95.6367315 282.100006,94.0695377 281.597705,92.5502677 C281.586175,92.4863023 281.568415,92.4236392 281.544685,92.3631881 Z" id="Path" fill="#FFFFFF"></path>
                <path d="M244,109.048212 L245.776631,107 C245.776631,107 264.706057,109.982709 267.441301,111.070821 C270.176546,112.158934 269.997605,117.740312 269.997605,117.740312 C262.609888,119.788524 244,109.048212 244,109.048212 Z" id="Path" fill="#EC9C7D"></path>
                <path d="M247.868786,109.548308 C247.804729,109.774843 247.671842,109.977788 247.487169,110.131112 C247.283034,110.240305 247.060167,110.313261 246.829208,110.346496 C245.44749,110.663237 244.381593,111.714818 243.078831,112.208935 C241.817175,112.907508 240.339691,113.154316 238.907358,112.905766 C237.633524,112.535196 236.429559,111.97058 235.34121,111.233371 C234.65957,110.869574 234.049407,110.3936 233.538397,109.82704 C233.025186,109.245355 232.865451,108.447558 233.117302,107.723878 C233.538397,106.710305 234.84116,106.380894 235.972853,106.228859 C237.497271,106.013691 239.04063,105.950008 240.578579,106.038814 C241.894501,106.127501 243.210423,106.520261 244.526345,106.596279 C246.342317,106.697636 248.566225,107.343788 247.868786,109.548308 Z" id="Path" fill="#EC9C7D"></path>
                <path d="M122.703701,128.308234 L111.057694,172.890388 C110.941492,173.330406 111.002314,173.799498 111.226671,174.193635 C111.451028,174.587772 111.820376,174.874379 112.252808,174.989897 C112.39235,175.003368 112.532828,175.003368 112.672369,174.989897 L112.672369,174.989897 C113.437492,174.983612 114.10158,174.450593 114.287045,173.693904 L125.945767,129.11175 C126.057809,128.675193 125.994745,128.21113 125.770504,127.822058 C125.546262,127.432987 125.179294,127.15092 124.750652,127.038161 L124.674369,127.038161 C123.787832,126.844129 122.911912,127.40865 122.703701,128.308234 L122.703701,128.308234 Z" id="Path" fill="#DDDDDD"></path>
                <path d="M144.345419,128.341364 L152.975805,172.886859 C153.13716,173.888027 152.474488,174.833579 151.494851,175 L151.21398,175 L151.21398,175 C150.45913,175.001061 149.810343,174.45323 149.669193,173.695592 L141.02604,129.150096 C140.866011,128.198241 141.459047,127.283654 142.379326,127.063045 L142.379326,127.063045 C143.204151,126.819344 144.066437,127.303608 144.307119,128.145703 L144.345419,128.341364 Z" id="Path" fill="#DDDDDD"></path>
                <path d="M130.611773,128.321221 L123.018497,172.868091 C122.94864,173.364749 123.078343,173.86895 123.378889,174.269065 C123.679435,174.669179 124.12603,174.9322 124.6198,175 L124.852248,175 C125.610826,175.008822 126.260397,174.454713 126.376068,173.700014 L133.982258,129.153144 C134.114113,128.194474 133.498204,127.292705 132.561747,127.073337 L132.561747,127.073337 C132.162714,126.945048 131.728947,126.986286 131.360831,127.187507 C130.992715,127.388727 130.722158,127.73249 130.611773,128.139238 L130.611773,128.321221 Z" id="Path" fill="#DDDDDD"></path>
                <path d="M153.329099,128.23664 L168.894046,172.855372 C169.204123,173.664159 168.810793,174.573893 168.012033,174.895384 C167.824916,174.963952 167.627439,174.999346 167.428347,175 L167.428347,175 C166.626793,174.988112 165.92215,174.46188 165.677291,173.6923 L150.112344,129.073568 C149.958816,128.690367 149.962788,128.261333 150.123384,127.881087 C150.28398,127.500842 150.588008,127.200619 150.968416,127.046633 L151.162978,127.046633 L151.162978,127.046633 C152.07909,126.837792 153.006534,127.347305 153.329099,128.23664 L153.329099,128.23664 Z" id="Path" fill="#DDDDDD"></path>
                <path d="M146.537977,93.9479976 C142.609219,87.0327482 137.279203,80.1959326 129.657412,77.8952069 C124.942901,76.483398 119.887899,76.9670733 115.04243,77.8037008 C111.394685,78.2440226 107.869955,79.3990498 104.670508,81.2025001 C101.431711,83.0742695 99.3142017,86.4083508 99,90.1308845 C99.0519782,92.2463408 99.4959942,94.3338944 100.309586,96.2879402 L107.486118,116.902965 C108.42902,119.608932 109.450497,122.445623 111.611315,124.341107 C113.751975,125.94593 116.250383,127.008983 118.892613,127.439243 C127.431115,129.570029 136.061288,131.713887 144.861707,131.975333 C153.662126,132.236779 162.776845,130.445873 169.966473,125.360747 C172.520166,123.556769 174.995284,120.380198 173.594027,117.595797 C172.520166,115.425795 169.665268,114.850613 167.268726,114.981336 C160.917233,115.242783 159.070716,114.510733 155.3253,109.334101 C151.881088,104.51042 149.432162,99.0461965 146.537977,93.9479976 Z" id="Path" fill="#505365"></path>
                <path d="M117.130715,85.7356385 C109.548361,92.7867688 107.963793,105.083731 112.612732,114.319534 C116.04378,121.082863 123.089214,126.407186 130.710855,125.975484 C131.802298,125.964563 132.873694,125.681256 133.827608,125.151326 C135.922905,123.843139 136.35506,121.030536 136.577685,118.610389 C137.140772,114.587658 137.140772,110.506222 136.577685,106.483491 C135.883618,102.820566 134.246668,99.3538698 133.827608,95.6386174 C133.565696,93.2838801 133.827608,90.9029789 133.683557,88.5351597 C133.500218,84.8722348 132.688291,81.0654094 128.550081,81 C124.280247,81.0751174 120.198434,82.767855 117.130715,85.7356385 Z" id="Path" fill="url(#linearGradient-3)"></path>
                <path d="M131.023779,94.7776429 C131.168802,96.0152648 131.195279,97.2633729 131.102867,98.5057859 C130.878784,99.9841875 130.83924,101.501156 130.641519,102.992413 C130.203698,105.998437 129.484507,108.959035 128.492956,111.837111 C127.937726,112.919707 127.8476,114.173432 128.24251,115.320997 C128.705612,115.988267 129.348821,116.517703 130.101083,116.850821 C131.51149,117.635017 132.737357,118.650614 134.055494,119.421954 C135.626713,120.171191 137.257788,120.794602 138.932601,121.286026 C143.836071,122.854417 153.142119,125.232715 155.07978,118.432068 C157.294251,110.718668 159.152824,103.185248 160.589593,95.2918695 C161.289528,92.5784828 161.761229,89.813908 162,87.0256764 C162,84.7630792 159.587809,83.966028 157.491971,83.5289353 L157.09653,83.4518013 L155.883844,83.2203994 C153.091658,82.6258934 150.347178,81.8353533 147.67185,80.8549569 C144.640135,79.7879366 139.855297,77.9367207 135.914067,79.7879366 C135.63917,79.9133229 135.374738,80.0594652 135.123185,80.2250292 C130.957872,82.7575954 130.654701,89.0440159 131.023779,94.7776429 Z" id="Path" fill="#FFFFFF"></path>
                <path d="M172.763109,107.260557 C171.588963,108.197541 170.466451,109.200286 169.400726,110.264188 C167.867685,112.200739 167.133372,112.490563 164.775839,111.265398 C162.569691,110.128756 160.767498,108.313481 159.622761,106.074914 C158.336138,103.496993 157.263117,100.81331 156.414971,98.052059 C155.861676,96.7083752 155.861676,95.1932949 156.414971,93.8496112 C157.020457,91.9789291 157.70324,90.1214208 158.450436,88.3034339 C159.004392,86.9860522 162.212183,90.3585495 162.547133,90.7932855 C164.466654,93.2304417 166.411941,95.6280765 168.073808,98.2101448 C171.051545,96.8285188 174.142438,95.7176303 177.3107,94.8903427 C177.630818,94.7980242 177.969666,94.7980242 178.289784,94.8903427 C178.633534,95.078155 178.899012,95.3870775 179.03698,95.7598147 L182,101.43773 C181.561988,100.383825 176.35738,104.296449 172.763109,107.260557 Z" id="Path" fill="#FFFFFF"></path>
                <path d="M141.666947,96.7006258 C141.922826,98.0831489 142.443448,99.4015519 143.199436,100.581442 C144.055076,101.875048 145.549253,106.273306 147.541489,105.755864 C146.614911,106.158543 145.611834,106.348502 144.604218,106.312114 C146.558142,108.899325 149.597579,110.503396 152.445455,112.081595 C153.20769,112.444019 153.889695,112.958844 154.450462,113.595113 C155.0129,114.24649 155.156878,115.166806 154.820813,115.962411 C154.156735,117.256017 152.266665,117.11372 150.861883,116.738574 C147.37547,115.820115 143.914598,114.759358 140.389873,114.060811 C137.388748,113.465753 134.004501,113.194095 131.450352,114.940463 C131.263608,115.107319 131.03278,115.215234 130.786273,115.250928 C130.382424,115.222771 130.055369,114.907775 130.007258,114.500637 C129.977661,114.103791 130.038844,113.705379 130.186048,113.336392 C131.051843,110.44344 131.528654,107.445459 131.603601,104.42345 C131.603601,103.207461 131.961182,102.056152 131.986723,100.891907 C131.986723,99.4430693 131.705767,97.9683591 131.680225,96.519521 C131.640995,93.5948254 131.923696,90.6748119 132.523094,87.8135562 C132.931758,85.8084677 133.800169,83.5187861 135.792405,83.0530881 C137.288017,82.8002274 138.790134,83.4646425 139.623628,84.7477113 C140.386323,86.0109719 140.825311,87.4472544 140.900702,88.9260569 C141.022643,91.5293012 141.278404,94.1243418 141.666947,96.7006258 L141.666947,96.7006258 Z" id="Path" fill="#D8DAE1"></path>
                <path d="M136,78.9533241 C139.92279,76.9086878 144.656289,78.9533241 147.663761,80.1318297 C150.310608,81.2231433 153.029379,82.096476 155.797011,82.7444205 C156.202366,82.8154148 156.607721,82.900608 157,83 C155.692403,81.7079035 153.20797,81.3955285 151.468867,80.8417728 C148.853674,80.0182388 146.238481,79.2798979 143.557908,78.6125514 C140.877335,77.9452048 138.144458,77.5334378 136,78.9533241 Z" id="Path" fill="#FFFFFF"></path>
                <path d="M147.556887,72 C148.614425,74.8289534 151.74396,76.3924079 154.738542,75.5878136 C154.738542,75.5878136 153.28592,79.6224612 154.969332,82.09319 C155.281578,82.5663082 153.109433,82.9868578 152.98725,83 C151.757193,82.9731231 150.546184,82.7001784 149.430362,82.1983274 C147.700145,81.3830728 145.877753,80.7656139 144,80.3584229 C144.897264,79.9758735 145.614059,79.2819791 146.009234,78.4133811 C146.82474,76.5223439 146.958644,74.4205482 146.389359,72.4468339 C146.679855,72.6068308 147.042439,72.575398 147.298945,72.3679809 C147.42343,72.2752401 147.513852,72.1462443 147.556887,72 L147.556887,72 Z" id="Path" fill="#D68369"></path>
                <path d="M151.161616,76.7425742 C155.171424,77.9345884 158.459466,74.8531048 160.036657,70.2625819 C160.19705,69.7553418 160.344076,69.2354207 160.46437,68.7028186 C160.835613,67.1683812 161.015063,65.5977976 160.999011,64.0235286 C160.918815,56.4149271 149.424033,57.0109342 149.424033,57.0109342 C140.081181,58.8369986 144.238015,74.6882518 151.161616,76.7425742 Z" id="Path" fill="#EC9C7D"></path>
                <path d="M157.283767,55.563243 C158.707748,55.9271019 159.944834,56.7891298 160.759483,57.985195 C161.097603,58.6607596 161.490869,59.3087021 161.935477,59.9227565 C162.628007,60.7640662 163.660268,61.3759277 164,62.395697 C162.226327,62.6450858 160.418605,62.2941809 158.877893,61.4014219 C158.608401,61.8158206 158.139621,62.0661419 157.636566,62.064272 C157.139197,62.0504514 156.64822,61.9512048 156.186173,61.7710883 C155.931364,61.6621037 155.647547,61.6353092 155.376044,61.6946056 C155.171252,61.7709566 154.987735,61.8932208 154.840313,62.0515248 C153.889013,62.8168066 152.603798,63.0569963 151.429931,62.6888806 C150.737401,62.4721797 150.044871,62.0387777 149.391541,62.2427316 C148.660549,62.6150604 148.213409,63.3635522 148.24168,64.167546 C148.24168,64.6391893 148.463812,65.0853384 148.476879,65.5697287 C148.479443,66.0685289 148.395504,66.5641591 148.228613,67.035647 C147.971923,66.6895395 147.653197,66.3915625 147.287818,66.1560961 C146.900457,65.9521181 146.433852,65.9521181 146.046491,66.1560961 C145.888529,66.2484041 145.754414,66.3748787 145.654493,66.5257624 C144.994937,67.4871638 145.138187,68.7717667 145.994225,69.5723231 C145.863559,70.0439663 145.732893,70.5156096 145.62836,71 C145.014641,70.3259503 144.532,69.5484168 144.204101,68.7055192 C143.919456,67.759567 143.534068,66.8452887 143.05424,65.9776364 C142.727793,65.5817594 142.443235,65.1546814 142.204911,64.7029249 C142.112807,64.3675514 141.994872,64.0394425 141.852113,63.721397 C141.407848,62.9183287 140.793718,62.1280075 141.068117,61.1719739 C141.342515,60.2159402 142.505443,59.4383661 142.270244,58.4440911 C142.23466,58.253071 142.182198,58.0654132 142.113445,57.883218 C142.098571,57.6027391 142.166602,57.3239955 142.309444,57.0801497 C143.420835,55.0785694 145.399015,53.6733664 147.692883,53.2560151 C149.972767,52.8624661 152.310717,52.9231715 154.565915,53.4344747 C156.826436,53.8551295 159.073892,54.4542439 161.373613,54.7091862 C161.564187,54.6839858 161.75254,54.7684103 161.857078,54.9258872 C161.883063,55.0046289 161.883063,55.0893407 161.857078,55.1680824 C161.752545,55.6524728 161.282147,55.9584036 160.903216,56.2898286 C160.524284,56.6212536 160.184553,57.1566324 160.458951,57.5645401" id="Path" fill="#2F3554"></path>
                <path d="M137,117.090459 C137,117.090459 141.728324,128.850142 145.521375,130.077802 C149.314426,131.305461 163.31754,135.634575 163.31754,135.634575 L170.241157,149.604045 C174.138127,157.590291 178.567684,165.395619 181.412472,173.834161 C181.547541,174.365562 181.800542,174.860117 182.152897,175.281507 C183.091723,175.965084 184.296791,176.175238 185.413362,175.850107 C187.790514,175.527039 190.167666,175.20397 192.505848,174.661216 C193.635969,174.389838 195.012899,173.78247 195,172.619425 C194.986919,171.456379 193.700919,170.900702 192.713686,170.538865 L189.453221,169.414588 C187.90395,169.183251 186.713555,167.929664 186.569463,166.377747 C185.987493,164.422664 185.578913,162.420594 185.348412,160.394523 C185.205523,158.507805 183.802614,156.634009 183.802614,154.850673 L179.658835,142.961762 L173.345744,124.869942 L173.345744,124.753637 L158.04364,117 L137,117.090459 Z" id="Path" fill="#2F3554"></path>
                <path d="M130.091941,119.355824 C130.091941,119.355824 129.195122,130.131748 133.003351,131.379623 C136.81158,132.627498 150.861736,136.91707 150.861736,136.91707 L156.281639,151.670596 C158.504189,157.753988 161.480587,163.967367 163.105258,170.24574 C163.432589,172.031134 163.623768,173.838826 163.677142,175.653199 C163.679233,176.144216 163.804354,176.626877 164.041068,177.057059 C164.61134,177.682492 165.417286,178.040727 166.263618,178.04496 C169.781573,178.486916 173.316857,178.794552 176.869471,178.967868 C177.311072,179.045426 177.765882,178.981746 178.169208,178.785886 C178.532315,178.529066 178.78343,178.143054 178.871066,177.706994 C179.244425,176.29057 178.792609,174.784364 177.701303,173.807384 C176.557534,172.793485 174.945861,172.507514 173.659121,171.727592 C170.877684,169.94677 170.643732,164.968267 169.876887,161.926571 L167.030463,150.461716 L161.558571,128.727888 C161.480587,128.389922 161.220639,126.128148 160.882708,125.998161 L145.571807,118.19894 C145.571807,118.19894 136.681607,114.845275 130.091941,119.355824 Z" id="Path" fill="#4C506D"></path>
                <path d="M130.091941,119.355824 C130.091941,119.355824 129.195122,130.131748 133.003351,131.379623 C136.81158,132.627498 150.861736,136.91707 150.861736,136.91707 L156.281639,151.670596 C158.504189,157.753988 161.480587,163.967367 163.105258,170.24574 C163.432589,172.031134 163.623768,173.838826 163.677142,175.653199 C163.679233,176.144216 163.804354,176.626877 164.041068,177.057059 C164.61134,177.682492 165.417286,178.040727 166.263618,178.04496 C169.781573,178.486916 173.316857,178.794552 176.869471,178.967868 C177.311072,179.045426 177.765882,178.981746 178.169208,178.785886 C178.532315,178.529066 178.78343,178.143054 178.871066,177.706994 C179.244425,176.29057 178.792609,174.784364 177.701303,173.807384 C176.557534,172.793485 174.945861,172.507514 173.659121,171.727592 C170.877684,169.94677 170.643732,164.968267 169.876887,161.926571 L167.030463,150.461716 L161.558571,128.727888 C161.480587,128.389922 161.220639,126.128148 160.882708,125.998161 L145.571807,118.19894 C145.571807,118.19894 136.681607,114.845275 130.091941,119.355824 Z" id="Path" fill="#2F3554"></path>
                <path d="M132.000393,84.311357 C132.000393,84.311357 133.73349,100.337061 139.938242,104.37866 C146.142993,108.420258 161,91.4225235 161,91.4225235 L156.250521,87.7006719 L143.999774,93.7374895 C143.999774,93.7374895 142.253447,80.2058094 139.753025,80.0139614 C137.252603,79.8221134 131.947474,81.6254847 132.000393,84.311357 Z" id="Path" fill="#FFFFFF"></path>
                <path d="M162.612387,81.0191105 C163.12912,80.505379 163.770264,80.1550485 164.463821,80.0074594 C165.094212,79.9676123 165.724474,80.0878221 166.302574,80.3581651 C167.469232,80.7628256 168.762699,81.464237 168.990958,82.7321731 C169.06682,83.7376672 168.661656,84.7162188 167.913069,85.3354887 C167.21561,85.9829454 166.378661,86.4415606 165.668522,87.0890173 C164.666718,88.0062477 163.918536,89.3281385 162.675792,89.7867537 C162.149988,89.9758842 161.591644,90.0403388 161.039936,89.9755952 C159.201183,89.8002424 157.235619,88.1546232 158.300828,86.1313209 C159.45363,84.1783538 160.911819,82.4493812 162.612387,81.0191105 Z" id="Path" fill="#EC9C7D"></path>
                <path d="M173.296653,120.093677 C172.812825,118.851411 172.011016,117.744161 170.964128,116.8726 C170.416919,116.54048 169.843194,116.24986 169.248248,116.00342 C168.567755,115.619315 167.854794,115.290097 167.116803,115.019202 C167.002175,114.993599 166.882893,114.993599 166.768265,115.019202 C166.583337,115.079079 166.470257,115.256986 166.500158,115.44101 C166.541301,115.611889 166.618873,115.772871 166.728049,115.913946 C167.092227,116.391183 167.520367,116.820904 168.001554,117.192151 C166.893772,117.690184 165.610548,117.690184 164.502767,117.192151 C163.052723,116.592166 161.433069,116.475102 159.904744,116.859818 C159.612854,116.946382 159.355628,117.115838 159.167452,117.345536 C158.843267,118.021889 158.998762,118.819456 159.556206,119.339536 C160.059863,119.922014 160.62099,120.457053 161.23187,120.937293 C161.79692,121.473755 162.460262,121.906974 163.189046,122.215498 C163.595596,122.33136 164.013211,122.408431 164.43574,122.445575 L166.875507,122.739562 C167.572264,122.793921 168.255526,122.953559 168.89971,123.212498 C170.119593,123.787691 171.580772,126.446358 173.041952,125.935076 C173.913297,125.653871 175.146586,124.797473 174.985722,123.813255 C174.772828,123.217843 174.48949,122.647495 174.141187,122.113242 C173.84627,121.448575 173.591569,120.745562 173.296653,120.093677 Z" id="Path" fill="url(#linearGradient-4)"></path>
                <path d="M184.003357,159.342888 C183.965309,161.154093 184.312399,162.952822 185.021826,164.620911 L185.124962,164.620911 C187.045872,164.620911 188.992566,164.620911 190.900584,164.736488 C194.098867,164.977915 197.280105,165.406721 200.427782,166.020678 C201.884579,166.290358 203.341377,166.585722 204.785282,166.881086 L208.936511,167.71581 C211.579373,168.229486 214.093316,168.66611 216.568583,169 C219.741866,167.651278 222.576888,165.620978 224.871039,163.054198 L225.592992,162.206633 C225.889508,161.834218 226.173133,161.436119 226.443865,161.025178 C227.240384,159.873947 227.760846,158.55588 227.965122,157.172606 C228.027704,156.611769 228.005978,156.044771 227.900662,155.490317 C227.39776,153.581534 226.197883,151.928385 224.535847,150.85439 L224.020166,150.481974 C220.513887,148.067248 216.315881,146.850593 212.056378,147.01466 L210.986341,147.01466 C208.711986,147.183549 206.458752,147.566228 204.25671,148.15759 C200.762974,149.043681 197.269238,150.289346 193.814179,151.39375 C191.260869,152.074709 188.817214,153.11236 186.555975,154.475807 C185.912226,154.895032 185.348991,155.425633 184.892905,156.042519 C184.273573,157.030077 183.963867,158.179135 184.003357,159.342888 Z" id="Path" fill="#3E3E54"></path>
                <path d="M184.022955,165.089716 C184.475216,167.439723 184.879642,169.798433 185.236233,172.165848 C186.069099,177.665402 186.622093,183.203766 186.893076,188.759506 C186.956858,189.277373 186.907902,189.80292 186.74957,190.300066 C186.149454,191.762292 184.140369,191.840626 182.60094,191.82757 C181.061511,191.814515 178.97415,192.454239 179,194.02091 C179,195.248136 180.304843,195.966193 181.518121,196.357861 C184.972965,197.530972 188.607883,198.083461 192.254985,197.98981 C192.699288,198.00575 193.142432,197.934795 193.559585,197.780921 C196.038326,196.697306 194.081425,193.864243 193.820505,192.140904 C193.442171,189.699509 194.381484,187.010057 194.968554,184.686161 C196.35143,179.26809 200.004312,174.359187 199.860806,168.601671 C199.728367,167.869865 199.862606,167.114795 200.23914,166.473609 C200.930579,165.624996 203.813746,166.995833 204.726966,167.178611 L208.92778,168.027225 C216.455326,169.489451 223.408847,171.173623 231.105991,169.737507 C231.569946,169.686557 232.016151,169.53027 232.410592,169.280562 C232.883343,168.877969 233.212925,168.332844 233.349904,167.726946 C234.440918,164.324459 234.150372,160.629007 232.541052,157.439139 C230.662427,153.718295 227.661845,152.216902 224.165516,150.467453 C220.121254,148.417724 216.716246,146.877165 212.058822,147.00772 L210.976003,147.00772 C208.66456,147.191534 206.375667,147.593696 204.139896,148.208835 C198.464883,149.671061 185.379739,151.746901 183.266286,158.339975 C182.574848,160.415814 183.435884,162.08693 183.853357,164.110547 L184.022955,165.089716 Z" id="Path" fill="#3E3E54"></path>
                <path d="M184.022955,165.089716 C184.475216,167.439723 184.879642,169.798433 185.236233,172.165848 C186.069099,177.665402 186.622093,183.203766 186.893076,188.759506 C186.956858,189.277373 186.907902,189.80292 186.74957,190.300066 C186.149454,191.762292 184.140369,191.840626 182.60094,191.82757 C181.061511,191.814515 178.97415,192.454239 179,194.02091 C179,195.248136 180.304843,195.966193 181.518121,196.357861 C184.972965,197.530972 188.607883,198.083461 192.254985,197.98981 C192.699288,198.00575 193.142432,197.934795 193.559585,197.780921 C196.038326,196.697306 194.081425,193.864243 193.820505,192.140904 C193.442171,189.699509 194.381484,187.010057 194.968554,184.686161 C196.35143,179.26809 200.004312,174.359187 199.860806,168.601671 C199.728367,167.869865 199.862606,167.114795 200.23914,166.473609 C200.930579,165.624996 203.813746,166.995833 204.726966,167.178611 L208.92778,168.027225 C216.455326,169.489451 223.408847,171.173623 231.105991,169.737507 C231.569946,169.686557 232.016151,169.53027 232.410592,169.280562 C232.883343,168.877969 233.212925,168.332844 233.349904,167.726946 C234.440918,164.324459 234.150372,160.629007 232.541052,157.439139 C230.662427,153.718295 227.661845,152.216902 224.165516,150.467453 C220.121254,148.417724 216.716246,146.877165 212.058822,147.00772 L210.976003,147.00772 C208.66456,147.191534 206.375667,147.593696 204.139896,148.208835 C198.464883,149.671061 185.379739,151.746901 183.266286,158.339975 C182.574848,160.415814 183.435884,162.08693 183.853357,164.110547 L184.022955,165.089716 Z" id="Path" fill="url(#linearGradient-5)"></path>
                <path d="M172.832749,165.678322 C170.980487,167.904846 169.508108,170.41773 168.474128,173.117107 C167.169152,176.136683 159.339294,208.509651 159,208.444853 L164.924593,210 C171.749832,200.305369 177.441384,189.870522 181.889285,178.897068 C183.194262,175.747896 183.194262,175.449826 186.704648,174.788889 C189.732193,174.19275 192.759738,173.557731 195.761184,172.844956 C201.630221,171.487265 207.388307,169.693804 212.986872,167.4797 C216.375469,166.181623 219.620266,164.54004 222.669796,162.580988 C223.11203,162.241132 223.506961,161.844574 223.844275,161.401669 C223.987822,161.207275 224.13137,160.999923 224.261867,160.79257 C224.792843,159.929027 225.04765,158.925882 224.992654,157.915549 C224.977745,157.647175 224.929531,157.381656 224.849107,157.125016 C224.2754,155.647452 223.206095,154.411605 221.821562,153.625936 C219.716416,152.128809 217.238794,151.232454 214.657241,151.034025 C212.934673,150.930348 211.199054,151.280256 209.437336,151.189539 C207.675618,151.098823 206.827383,150.256452 205.522407,150.049099 C204.479223,149.932125 203.423004,150.024676 202.416563,150.321249 C200.121247,151.09957 197.905826,152.093307 195.800333,153.288987 L183.390008,159.444776 L183.28561,159.444776 L180.806155,160.675934 C178.196202,161.971889 175.220856,163.267845 173.158993,165.367293 L172.832749,165.678322 Z" id="Path" fill="#3E3E54"></path>
                <path d="M150.204326,207.40187 C149.117616,207.459095 148.063445,207.770223 147.137821,208.306917 C146.205118,208.880052 145.785684,209.959896 146.106954,210.960909 C146.479396,211.617199 147.083698,212.131709 147.816367,212.416323 C152.150959,214.385332 156.960839,215.254067 161.765701,214.935781 C162.444918,214.97319 163.118554,214.801386 163.683898,214.446566 C164.165173,213.981326 164.479876,213.387129 164.584276,212.746543 C165.028471,211.569051 165.118754,210.299768 164.845255,209.077431 C164.062318,206.631356 161.152401,207.169492 159.090665,207.059419 C156.123622,206.916653 153.14885,207.031291 150.204326,207.40187 L150.204326,207.40187 Z" id="Path" fill="#3E3E54"></path>
                <path d="M194.053106,92.9282507 C193.554039,93.5490103 192.739772,94.2214998 193.081239,94.9198544 C193.238839,95.3078291 193.685373,95.5018165 194.02684,95.7475338 C194.89355,96.5004057 195.422384,97.5604956 195.497774,98.6961418 C195.57881,99.8229672 195.849546,100.928684 196.298907,101.968062 C196.801874,103.004776 197.97917,103.546501 199.109442,103.261311 C199.739842,103.015594 200.330843,102.394834 200.974376,102.601754 C201.61791,102.808674 201.683577,103.325974 201.97251,103.752746 C202.787714,104.748366 204.107525,105.199974 205.374045,104.91667 C206.613389,104.613538 207.781713,104.07783 208.81498,103.338906 C209.266903,103.108293 209.641046,102.753351 209.891914,102.317239 C210.036029,101.897835 210.036029,101.443394 209.891914,101.02399 C209.382769,99.7816154 208.633428,98.6484406 207.685513,97.6874075 C206.122809,95.7207686 205.072267,93.4076273 204.625445,90.9495796 C204.323378,89.2424908 204.244578,87.3284821 203.023177,86.0998954 C201.355243,84.4186716 197.769841,84.8066463 195.996841,86.3068153 C194.22384,87.8069842 195.60284,90.9625121 194.053106,92.9282507 Z" id="Path" fill="url(#linearGradient-6)"></path>
                <path d="M196.004496,84.6130666 C196.033575,84.9017779 196.1229,85.1815712 196.266938,85.4351175 C196.71309,86.1544121 197.972813,86.6168158 198.733895,87.0278412 C199.539624,87.458743 200.145572,88.1760179 200.426648,89.0315904 C200.912166,90.598625 200.216694,92.4353951 200.872799,93.9638961 C201.095875,94.2593206 201.607638,93.9638961 201.778225,93.6941606 C201.948813,93.4244252 202.027545,92.949177 202.329354,92.7308197 C202.841116,92.3711724 203.562832,92.833576 203.851519,93.3858915 C204.49332,94.7334541 203.952936,96.337197 202.61804,97.0465871 C202.736139,97.5346799 203.418489,97.6759699 203.930252,97.560369 C204.416191,97.3681819 204.929722,97.2511813 205.452417,97.2135662 C206.646529,97.3163226 207.250146,98.9475799 208.444258,98.9989581 C209.63837,99.0503363 210.517552,97.1878771 211.409856,96.4300489 C212.302159,95.6722207 213.916179,95.5180862 214.362331,94.4519888 C214.572285,93.938207 214.454186,93.2831352 214.887215,92.9234879 C215.216377,92.7306208 215.592723,92.628538 215.976351,92.6280633 C216.846374,92.4136224 217.544199,91.779002 217.826569,90.9454278 C218.085935,90.1026061 218.053644,89.1995281 217.734714,88.3765186 C217.640386,88.0560066 217.464271,87.7642689 217.222951,87.5287785 C216.826811,87.2725602 216.379499,87.1017987 215.91074,87.0278412 C213.824324,86.4498367 212.341526,84.7029784 210.779994,83.1744774 C209.218463,81.6459765 207.158291,80.3229882 205.032509,80.7853919 C204.130532,79.6686302 202.76015,79.0121026 201.305829,79 C200.574059,79.1380407 199.880708,79.4270292 199.271902,79.84774 C198.229371,80.4304281 197.332785,81.2334518 196.647479,82.198292 C196.188944,82.9211892 195.96478,83.7630528 196.004496,84.6130666 L196.004496,84.6130666 Z" id="Path" fill="#DD8049"></path>
                <path d="M206.484647,101.181601 C205.276155,101.860845 204.113329,102.621039 203.003847,103.457164 C202.657764,103.701687 202.367471,104.019186 202.152703,104.388076 C201.949099,104.794145 201.949099,105.274941 202.152703,105.681009 C202.546516,106.236971 203.270624,105.952525 203.829585,105.681009 C206.399014,104.478536 209.172846,103.793613 211.99803,103.664033 C212.396775,103.691997 212.7746,103.479489 212.963507,103.121001 C213.055363,102.721839 212.971885,102.301753 212.734842,101.970291 C211.019849,99.125837 208.720489,99.824021 206.484647,101.181601 Z" id="Path" fill="#FFFFFF"></path>
                <path d="M201.901836,138.217929 C200.694731,135.624411 199.697184,132.938228 198.918774,130.185173 C198.736403,129.585324 198.449821,127.22505 197.485861,127.355452 C196.977829,127.433693 196.065976,129.820048 195.779393,130.302535 C193.296647,134.48633 189.974476,138.109489 186.022564,140.943329 C185.356491,141.517758 184.527402,141.868895 183.651745,141.947423 C182.447827,141.786123 181.361395,141.14111 180.64263,140.160917 C176.64129,135.936209 173.07571,131.318357 170,126.377438 C172.050832,124.650252 174.190067,123.031079 176.409026,121.526488 C178.155217,124.315804 180.755073,126.465573 183.82109,127.655376 C185.123737,124.056284 185.827167,119.335736 188.002588,116.245211 C189.47458,114.145741 191.050783,112.03323 192.35343,109.790318 C192.705506,109.178227 193.144275,108.620403 193.656078,108.134214 C194.404214,107.590041 195.25519,107.204036 196.157161,106.999718 C202.936142,105.013576 209.826037,103.428625 216.791097,102.253089 C217.832686,102.014284 218.905735,101.943846 219.969557,102.044446 C222.939593,102.487812 224.893564,105.291453 226.391609,107.899491 C234.207493,121.500407 239.782825,136.939991 238.910051,152.614297 C238.899883,153.464269 238.763795,154.308028 238.50623,155.118014 C237.992847,156.334444 237.154515,157.385718 236.083306,158.156377 C232.43741,160.781851 228.027889,162.129477 223.538811,161.990193 C216.895309,161.990193 208.128491,160.047205 203.178431,155.261456 C200.364712,152.562137 203.178431,150.932113 204.481078,148.258874 C206.213599,144.829305 203.399881,141.282373 201.901836,138.217929 Z" id="Path" fill="#DDDDDD"></path>
                <path d="M235,126.970284 C234.52155,124.917665 233.834303,122.917513 232.948629,121 C229.028812,123.721936 226.219609,129.037415 224.782343,133.505499 C223.345077,137.973583 222.169131,142.685614 219.255401,146.34482 L216.093415,145.266317 L215.505442,147.230734 C215.035064,148.784291 216.367802,150.363528 216.237141,151.929925 C215.917109,153.575567 214.643007,154.882869 212.983693,155.268149 C211.122211,155.629903 209.196206,155.496935 207.404486,154.882969 C206.227143,154.655997 205.113167,154.18311 204.137972,153.496322 C203.15866,152.7777 202.698557,151.562 202.962027,150.389207 C202.18092,150.858934 201.821114,151.787695 202.086601,152.648927 C202.370899,153.481605 202.897956,154.213824 203.602264,154.754576 C205.951649,156.535243 208.606854,157.887641 211.441898,158.747605 C212.745945,159.269507 214.086495,159.698591 215.453178,160.031537 C218.591204,160.723787 221.801847,161.047038 225.017532,160.994486 C226.964375,160.994486 228.14032,160.7377 228.937349,158.83748 C230.165559,156.141223 230.243955,153.085464 230.55754,150.13242 C231.428591,142.31073 232.913839,134.566936 235,126.970284 L235,126.970284 Z" id="Path" fill="url(#linearGradient-7)"></path>
                <path d="M262,135.062352 C261.946516,137.180298 261.502518,139.27021 260.690297,141.227167 C260.546229,141.659097 260.389065,142.091027 260.231901,142.536045 C258.005405,148.993176 255.765813,155.441582 253.513123,161.881261 C252.570137,164.590639 251.548568,167.430904 249.387558,169.328777 C247.240799,170.925371 244.744765,171.988658 242.105608,172.430818 C233.566343,174.564289 224.935399,176.710849 216.134193,176.959536 C210.402393,177.197908 204.675559,176.381572 199.239021,174.5512 L199.239021,174.5512 C196.327746,173.529572 193.569433,172.116057 191.040279,170.349702 C188.420873,168.54345 186.011019,165.362877 187.412401,162.561878 C188.486358,160.402229 191.341511,159.826323 193.738268,159.944122 C200.090328,160.205898 201.93701,159.472926 205.682761,154.27668 C209.127281,149.499276 211.576426,144.080521 214.47087,138.962808 C218.39998,132.038844 223.730472,125.193412 231.352945,122.902876 C236.067876,121.476199 241.123331,121.973572 245.969233,122.798165 C249.618075,123.243767 253.143043,124.404672 256.342082,126.214337 C259.551118,128.073363 261.659874,131.371096 262,135.062352 Z" id="Path" fill="#505365"></path>
                <path d="M259.942171,142.872599 C257.732625,149.266674 255.510082,155.652108 253.274541,162.028902 C252.338733,164.711821 251.324942,167.52435 249.180382,169.40369 C247.049966,170.984692 244.572933,172.037596 241.953867,172.475438 C233.479609,174.588075 224.914369,176.713673 216.180164,176.959931 C210.491998,177.195975 204.80876,176.387611 199.413609,174.575114 L199.413609,174.575114 C198.218143,173.508302 197.097725,172.360705 196.060298,171.140459 C195.345445,170.272074 194.630592,169.066705 195.215472,168.120554 C195.800352,167.174404 196.918122,167.200326 197.918917,167.187365 C206.267511,166.941402 213.933831,162.529777 218.324723,155.444733 C220.040745,152.312759 221.492778,149.043987 222.665831,145.672167 C225.460257,138.751013 229.359456,131.84282 235.754141,127.92861 C237.726404,126.58001 240.084624,125.906818 242.473761,126.010387 C243.938518,126.212503 245.3607,126.65022 246.684895,127.306483 C252.091784,129.717222 259.40928,134.344286 259.968166,140.954377 C260.018008,141.593243 260.009307,142.23531 259.942171,142.872599 Z" id="Path" fill="url(#linearGradient-8)"></path>
                <path d="M239.302637,173.290191 L250.94982,217.897384 C251.060084,218.346658 250.986938,218.822275 250.747078,219.21567 C250.507218,219.609066 250.121117,219.886665 249.676904,219.985104 C249.541826,220.004965 249.404649,220.004965 249.269571,219.985104 L249.269571,219.985104 C248.503535,219.978816 247.838654,219.445498 247.652967,218.688383 L236.056701,174.146027 C235.820722,173.240946 236.342532,172.310702 237.227784,172.058306 L237.227784,172.058306 C237.663341,171.939912 238.127265,172.003365 238.51674,172.234605 C238.906216,172.465845 239.189077,172.845773 239.302637,173.290191 L239.302637,173.290191 Z" id="Path" fill="#DDDDDD"></path>
                <path d="M216.641081,173.285144 L208.024122,217.884758 C207.863256,218.886848 208.52392,219.833272 209.500588,220 L209.793335,220 L209.793335,220 C210.546709,220.010642 211.195212,219.456299 211.320713,218.694236 L219.975857,174.159902 C220.128814,173.208605 219.540306,172.297404 218.626673,172.070927 L218.626673,172.070927 C218.23002,171.945273 217.800833,171.987767 217.434934,172.188923 C217.069034,172.390078 216.796891,172.733145 216.679266,173.141527 L216.641081,173.285144 Z" id="Path" fill="#DDDDDD"></path>
                <path d="M231.398371,173.312257 L238.985463,217.880683 C239.04746,218.380736 238.909568,218.885107 238.602177,219.28263 C238.294787,219.680153 237.843131,219.938199 237.346754,220 L237.140303,220 C236.382342,220.008824 235.7333,219.454608 235.617723,218.699764 L228.017728,174.14434 C227.88598,173.185486 228.501388,172.283543 229.437082,172.064134 L229.437082,172.064134 C230.256536,171.820611 231.116894,172.291877 231.359661,173.117238 L231.398371,173.312257 Z" id="Path" fill="#DDDDDD"></path>
                <path d="M208.665475,173.241641 L193.105917,217.855601 C192.795948,218.664302 193.189142,219.573939 193.987625,219.895395 C194.179171,219.963928 194.380832,219.999295 194.584075,220 L194.584075,220 C195.385352,219.988113 196.089751,219.461938 196.334525,218.69244 L211.894083,174.091555 C212.204052,173.282854 211.810858,172.373217 211.012375,172.051761 L210.843813,172.051761 L210.843813,172.051761 C209.922929,171.829259 208.983755,172.342267 208.665475,173.241641 L208.665475,173.241641 Z" id="Path" fill="#DDDDDD"></path>
                <path d="M181.223385,94.185077 C181.265192,93.7683042 181.444175,93.3743158 181.735251,93.0583255 C182.128994,92.7487784 182.719609,92.8478335 183.231475,92.8725972 C185.423312,92.9592704 187.168907,91.2629522 188.967,90.0990551 C189.053381,90.0356908 189.159453,90.0008845 189.26887,90 C189.386993,90 189.465742,90.1362007 189.531366,90.2352558 C190.528848,91.9687197 189.780736,94.1355495 188.71763,95.8194858 C187.654523,97.5034221 186.276422,98.8901932 184.37333,98.9644845 C183.195585,98.7671464 181.998431,98.6924072 180.803392,98.7416105 C180.042155,98.902575 179.490915,99.3483229 179.136546,98.481591 C178.401559,96.9338554 180.855891,95.5470843 181.223385,94.185077 Z" id="Path" fill="#EC9C7D"></path>
                <path d="M150.72016,123 C150.729996,123.75764 150.595439,124.510314 150.323554,125.218504 C151.600181,124.533784 152.999652,124.103126 154.443135,123.950787 L156.464544,123.58315 C156.859755,123.45423 157.291431,123.495625 157.654361,123.697244 C157.962675,124.002114 158.075871,124.450774 157.948616,124.863543 C157.730829,125.586319 157.335156,126.244122 156.797181,126.777796 C156.16312,127.484349 155.479056,128.145236 154.750184,128.755433 C154.263168,129.172576 153.715396,129.514486 153.125381,129.769607 C151.705277,130.276693 150.131648,129.769607 148.621988,129.896378 C148.247689,129.934441 147.87044,129.934441 147.49614,129.896378 C146.858737,129.797064 146.327944,129.358766 146.114418,128.755433 C145.577081,127.196142 147.061153,126.612992 147.892746,125.687559 C148.724338,124.762126 149.4152,123.392992 150.72016,123 Z" id="Path" fill="url(#linearGradient-9)"></path>
                <path d="M137.99205,149.569662 C138.029525,151.13834 137.729616,152.696757 137.112633,154.139378 L137.020754,154.139378 C135.366924,154.139378 133.699969,154.139378 132.04614,154.244429 C129.282261,154.464697 126.534072,154.850576 123.81637,155.399989 C122.503807,155.623223 121.309374,155.88585 120.062439,156.135346 L116.466017,156.870702 C114.195283,157.317169 112.003302,157.697979 109.903201,158 C107.161872,156.831861 104.714076,155.069216 102.736607,152.839373 C102.513471,152.603008 102.316587,152.353512 102.106577,152.104016 C101.896567,151.85452 101.607803,151.434316 101.371542,151.079769 C100.679417,150.085918 100.229865,148.943556 100.058979,147.744402 C99.9803405,147.261726 99.9803405,146.769496 100.058979,146.28682 C100.515214,144.660962 101.552076,143.259185 102.972869,142.34741 L103.41914,142.019126 C106.448231,139.928619 110.071688,138.873811 113.749011,139.012043 L114.667805,139.012043 C116.632421,139.166345 118.578775,139.500402 120.482459,140.010027 C123.488229,140.771646 126.507124,141.86155 129.486642,142.807008 C131.687092,143.382309 133.795003,144.266515 135.747568,145.433282 C137.222701,146.271313 138.093198,147.875561 137.99205,149.569662 L137.99205,149.569662 Z" id="Path" fill="#3E3E54"></path>
                <path d="M138.371753,163.404264 C137.978436,165.373339 137.637561,167.355368 137.336018,169.350351 C136.91648,172.083738 136.732932,174.868942 136.287173,177.589374 C135.841414,180.309806 135.920077,183.00433 135.461207,185.685899 C135.238535,186.686093 135.119924,187.70616 135.107222,188.730192 C135.237535,190.153264 135.605225,191.545229 136.195399,192.849703 C136.116736,193.031065 135.854524,193.018111 135.657866,192.966293 C134.559543,192.719771 133.494567,192.345816 132.485109,191.852211 C131.464166,191.358524 130.65852,190.516457 130.216981,189.481549 C129.351684,187.26634 130.387418,184.792042 129.73189,182.473198 C128.787386,179.634028 128.300718,176.665734 128.289728,173.677134 C128.553968,171.527687 128.694041,169.365109 128.709266,167.199914 C128.407723,163.494945 126.087153,159.764067 127.398209,156.292277 C128.498797,153.925244 130.79156,152.316225 133.415959,152.06913 C134.246378,151.930151 135.0989,152.001462 135.893856,152.276401 C139.827026,153.830934 139.145276,159.608613 138.515969,162.639952 L138.371753,163.404264 Z" id="Path" fill="url(#linearGradient-10)"></path>
                <path d="M129.855508,190.188545 C129.906979,190.121151 129.971992,190.066532 130.0459,190.02859 C130.337833,189.895294 130.617074,190.255193 130.78208,190.548445 C131.500946,191.80076 132.587878,192.773815 133.879114,193.321006 C134.034606,193.408638 134.215578,193.432394 134.386825,193.387654 C134.577216,193.307676 134.678759,193.094402 134.831072,192.947776 C135.067557,192.750474 135.384159,192.695059 135.668794,192.801151 C135.949304,192.899305 136.211329,193.048169 136.443053,193.241028 C137.180699,193.758153 137.876885,194.337697 138.524666,194.973879 C138.903125,195.292546 139.07554,195.809875 138.968913,196.30684 C138.842424,196.539118 138.639196,196.714601 138.397738,196.800036 C137.495422,197.099367 136.522288,197.061691 135.643409,196.693399 C133.993349,196.120226 132.546374,195.080515 130.934393,194.400705 C130.8228,194.34746 130.701565,194.320178 130.578996,194.320727 L130.312448,194.387375 C130.017194,194.352665 129.7543,194.175183 129.601653,193.907509 C128.709473,192.801522 128.822234,191.149581 129.855508,190.188545 Z" id="Path" fill="#3E3E54"></path>
                <path d="M145.987842,164.609316 C146.712058,166.482225 147.053987,168.483685 146.993086,170.493449 C146.993086,175.700646 145.575435,180.673519 144.196448,185.633374 C143.6165,187.716253 143.126766,189.864221 142.443716,191.921064 C141.760666,193.977907 143.268531,197.570873 144.363988,199.328302 C144.635891,199.693359 144.853022,200.096917 145.008375,200.525957 C145.17429,200.995912 145.023717,201.520379 144.634631,201.827757 C144.397512,201.955817 144.129695,202.014431 143.861367,201.996991 C141.617388,201.857402 139.468667,201.031001 137.701031,199.627716 C136.958543,199.285604 136.551242,198.468182 136.721563,197.661999 C137.36595,186.232202 140.587883,175.231998 132.855243,165.403413 C131.076736,163.138283 128.847158,161.068422 128.086782,158.29559 C127.971073,157.869527 127.971073,157.419853 128.086782,156.99379 C128.244265,156.583919 128.529178,156.23674 128.898709,156.004423 C130.664329,154.702624 133.074335,154.871857 135.200811,155.366541 C140.107531,156.416887 144.161694,159.890661 145.987842,164.609316 Z" id="Path" fill="url(#linearGradient-11)"></path>
                <path d="M138.404976,201.011621 C140.052306,201.539547 141.352152,202.76279 142.948002,203.406602 C144.383973,204.150055 145.924453,204.671043 147.516767,204.95175 C147.774503,205.016083 148.044088,205.016083 148.301823,204.95175 C148.606067,204.795134 148.835454,204.523753 148.939296,204.197575 C149.043137,203.871397 149.012885,203.517274 148.855223,203.213458 L148.855223,203.213458 C148.518697,202.609063 148.083733,202.065083 147.568247,201.603928 C147.096085,201.080553 146.665768,200.52086 146.28127,199.930017 C145.946657,199.44072 145.599173,198.642393 144.994294,198.449249 C144.389415,198.256106 143.59149,198.706774 143.012351,198.796908 C142.173361,198.884122 141.329584,198.684419 140.618575,198.230353 C139.920789,197.768231 139.292427,197.208924 138.75246,196.569318 C138.469325,196.247412 138.057492,195.874002 137.65853,196.041393 C137.259567,196.208784 137.220958,196.607947 137.182349,196.968482 C137.09226,197.844066 137.027912,198.71965 137.015042,199.54373 C136.975005,199.811246 137.01532,200.084631 137.13087,200.32918 C137.323916,200.74122 137.915925,200.869982 138.404976,201.011621 Z" id="Path" fill="#3E3E54"></path>
                <path d="M138.751445,144.735224 C144.396645,148.165271 147.881637,154.1887 148,160.720345 C142.617844,164.707787 136.409815,167.478493 129.817288,168.83547 C129.064899,169.054843 128.26409,169.054843 127.5117,168.83547 C126.890541,168.524245 126.345285,168.084079 125.913507,167.545307 C119.874437,161.429934 109.237289,162.049213 102.896919,156.243479 C100.499631,154.0373 98.9669386,150.244221 100.82713,147.612288 C101.592888,146.676749 102.547486,145.907937 103.630516,145.354503 C108.569192,142.464537 114.385564,138.142491 120.346035,139.148818 C126.306506,140.155146 133.60317,141.664636 138.751445,144.735224 Z" id="Path" fill="#DDDDDD"></path>
                <path d="M141,164.603557 C138.018062,161.389147 137.475892,156.678148 137.127353,152.292494 C136.271371,153.035744 135.309744,153.645488 134.274504,154.101413 L133.77106,152.734963 C133.732413,152.596069 133.645316,152.475915 133.525792,152.396604 C133.390822,152.357553 133.24768,152.357553 133.11271,152.396604 C128.878649,153.84249 124.441818,154.593835 119.971529,154.621966 C118.25306,154.764524 116.532435,154.374007 115.040359,153.502778 C113.5403,152.538262 113.057122,150.55545 113.943109,149 C110.330366,149.991992 106.649977,150.714047 102.931884,151.160292 C102.630178,151.149981 102.337058,151.262554 102.118629,151.472624 C101.834634,151.850024 102.118629,152.38359 102.363896,152.774005 C105.345433,157.001123 109.840071,159.894367 114.898362,160.842567 C116.305424,161.089829 123.766723,163.900812 127.123016,168.312493 C127.604126,168.882814 128.366405,169.125491 129.085157,168.937156 L141,164.603557 Z" id="Path" fill="url(#linearGradient-12)"></path>
                <path d="M127.792727,87.1359505 C127.399748,86.8181959 126.957977,86.5677809 126.48498,86.3946615 C124.961767,85.7026457 123.183945,85.9327018 121.881709,86.9903401 C120.848589,88.0625618 120.783202,89.7304621 120.573962,91.2130401 C120.192438,93.3479081 119.29378,95.3536672 117.958468,97.0506913 C117.15847,97.8876971 116.523742,98.8716433 116.088389,99.9496609 C115.970537,100.315232 115.970537,100.70926 116.088389,101.074832 C116.311729,101.446351 116.627354,101.752141 117.003812,101.961731 C117.849712,102.570999 118.797989,103.019535 119.802391,103.285461 C120.443187,103.470784 121.267068,104.172361 121.894787,103.960564 C122.522506,103.748767 122.836365,102.981004 123.411774,102.636834 C124.142613,102.355644 124.955251,102.389121 125.661099,102.729495 C126.378346,103.060553 127.215499,102.97985 127.858115,102.517698 C128.052043,102.279213 128.198584,102.005022 128.289671,101.710222 C128.555049,100.912059 128.730527,100.086112 128.81277,99.2480837 C128.763615,98.376021 129.018137,97.5141228 129.532031,96.8124198 C129.674635,96.6969311 129.802082,96.5634782 129.911278,96.4153007 C130.198982,95.9122831 129.715116,95.3298417 129.479721,94.8003496 C129.305407,94.3041749 129.234174,93.7769147 129.270482,93.251585 C129.218172,91.2262775 129.623573,88.5655793 127.792727,87.1359505 Z" id="Path" fill="url(#linearGradient-13)"></path>
                <path d="M113.242165,100.653306 C113.021697,100.929132 112.94671,101.282862 113.038086,101.615991 C113.216158,101.904018 113.552274,102.075153 113.908822,102.059332 C116.474001,102.160544 118.993046,102.728581 121.323687,103.731363 C121.827081,103.959367 122.493739,104.200038 122.847475,103.731363 C123.050842,103.388421 123.050842,102.972284 122.847475,102.629343 C122.650236,102.323859 122.385979,102.060563 122.071976,101.856662 C121.060507,101.170445 120.006546,100.540233 118.915556,99.969294 C116.888373,98.854607 114.806769,98.2719297 113.242165,100.653306 Z" id="Path" fill="#FFFFFF"></path>
                <path d="M120.326546,139.333744 C121.463552,141.607736 123.855185,142.993041 121.463552,145.280101 C117.255324,149.344534 109.792907,151.043494 104.147086,150.991218 C100.326586,151.112816 96.5729408,149.968814 93.4696877,147.737058 C92.5571562,147.072337 91.8468822,146.167538 91.4178499,145.123274 C91.1939021,144.439825 91.0792263,143.725313 91.0780551,143.00611 C90.3331203,129.688883 94.9987643,116.567691 101.716246,105.014768 C103.023149,102.793052 104.656778,100.414509 107.179101,100.035511 C108.084263,99.9547076 108.99645,100.011994 109.884391,100.205407 C115.615963,101.196225 121.287973,102.505139 126.874131,104.126082 C131.056221,105.341491 134.075167,109.82413 135.408208,113.810149 C136.571352,117.234205 137.015699,120.867364 138.022014,124.265283 C138.153499,124.949527 138.535663,125.560051 139.093675,125.977311 C139.712156,126.256998 140.415184,126.285119 141.054029,126.055724 C143.065664,125.637822 145.044292,125.074376 146.9743,124.369834 C147.993629,126.623265 148.676159,129.014299 149,131.466256 C147.56278,132.605229 146.216916,133.854949 144.974738,135.203966 C142.149114,137.73968 138.409543,139.009801 134.624066,138.719505 C133.305495,138.705609 132.042503,138.186383 131.095428,137.268855 C130.576406,136.575476 130.21512,135.777086 130.036836,134.929519 C129.453086,132.855918 128.939038,130.760534 128.494691,128.64337 C128.259448,127.493305 128.037274,126.343241 127.841239,125.180107 C127.710549,124.448248 127.841239,122.357221 127.305409,121.821395 C125.893953,120.187781 125.305847,123.729457 125.057535,124.513592 C124.3777,126.659667 123.538962,128.752125 122.548281,130.773603 C121.280585,133.452731 118.888953,136.471651 120.326546,139.333744 Z" id="Path" fill="#FFFFFF"></path>
                <path d="M128.767229,87.3665233 C129.042983,86.5239306 129.074422,85.6196622 128.85786,84.7597231 C128.484132,83.49675 127.833745,82.3342546 126.954596,81.3578488 C125.369232,79.2120402 123.072514,77.7091855 120.480908,77.1217984 C113.489325,75.9748062 105.358373,83.1565409 102.704161,89.0870115 C101.033949,92.8147358 100.529001,96.9074122 99.5967903,100.934919 C98.6645793,104.962425 97.1497363,108.989931 94.0164713,111.609766 C92.7217337,112.678554 91.2068907,113.51273 90.4429955,114.985572 C89.6250643,116.888512 89.9567663,119.094416 91.2975223,120.668396 C92.4515853,121.89558 93.8099417,122.910135 95.3112089,123.666217 C96.6189411,124.610067 97.6588918,125.881634 98.3279475,127.354839 C99.9334221,130.482999 100.567844,134.054316 102.548792,137 L105.410162,135.409852 C107.873996,134.205478 110.136648,132.622458 112.116903,130.717611 C114.104517,128.770012 115.09679,126.013398 114.809957,123.236095 C114.363801,121.63009 113.805679,120.057764 113.139746,118.53082 C111.534271,113.538798 115.04301,111.531562 118.098591,108.572843 C120.194637,106.471793 121.158335,103.483743 120.688066,100.543899 C120.507885,99.9046463 120.450754,99.2366125 120.51975,98.5757644 C120.843226,97.650678 121.38533,96.8186628 122.09933,96.1514401 C123.394067,94.561292 122.371225,92.5019198 123.911963,91.0421117 C125.103121,89.9081536 126.928701,89.7387115 128.055123,88.4353114 C128.362932,88.1321002 128.605345,87.7682659 128.767229,87.3665233 L128.767229,87.3665233 Z" id="Path" fill="#2F3554"></path>
                <path d="M95,122.050749 C95.3999918,120.312697 95.9830411,118.62004 96.7397709,117 C100.036179,119.29463 102.456161,123.794155 103.672693,127.588626 C104.889224,131.383098 105.883379,135.344218 108.368766,138.484912 L111.050368,137.574752 L111.547445,139.241243 C111.939875,140.523159 110.81491,141.894809 110.932639,143.215182 C111.196327,144.613184 112.2799,145.725395 113.692726,146.048217 C115.273869,146.342804 116.906088,146.227919 118.428043,145.714918 C119.424872,145.5239 120.36695,145.121358 121.18813,144.535556 C122.002204,143.944223 122.394614,142.945376 122.195366,141.971724 C122.84998,142.380722 123.148858,143.165262 122.927901,143.894598 C122.677772,144.600477 122.22322,145.219658 121.619803,145.676461 C119.656505,147.164785 117.443102,148.305731 115.079311,149.0479 C113.962046,149.485493 112.822485,149.866301 111.665174,150.188805 C109.002641,150.763874 106.281114,151.034882 103.554964,150.996412 C101.893679,150.996412 100.938767,150.778487 100.166989,149.176092 C99.3291796,146.804043 98.8874687,144.315042 98.8588904,141.805075 C98.0916429,135.133033 96.8015364,128.528755 95,122.050749 Z" id="Path" fill="url(#linearGradient-14)"></path>
                <path d="M83.6490332,158.09736 L67.1058694,201.673938 C66.778858,202.57016 67.2344431,203.562472 68.1275375,203.899236 C68.2638657,203.943598 68.4042727,203.974293 68.5466834,203.990866 L68.5466834,203.990866 C69.3213568,204.07082 70.0527591,203.619359 70.3280534,202.891307 L86.8843155,159.327819 C87.0496311,158.902795 87.0373382,158.429245 86.8501934,158.013359 C86.6630485,157.597472 86.3167115,157.274048 85.888844,157.115611 L85.888844,157.115611 C85.4635493,156.9504 84.989699,156.962686 84.573548,157.149712 C84.157397,157.336737 83.8337677,157.682855 83.6752299,158.11045 L83.6490332,158.09736 Z" id="Path" fill="#DDDDDD"></path>
                <path d="M105.600478,161.416305 L109.997466,206.080484 C110.051383,207.08647 109.238454,207.944553 108.178959,208 L107.893969,208 C107.107096,207.930137 106.481943,207.342085 106.401164,206.59579 L102.004177,161.944494 C101.938163,160.990818 102.661928,160.151707 103.659833,160.024977 L103.659833,160.024977 C104.09572,159.950326 104.544943,160.044581 104.907081,160.286673 C105.269219,160.528765 105.514073,160.898507 105.586907,161.313243 C105.586907,161.313243 105.600478,161.339009 105.600478,161.416305 Z" id="Path" fill="#DDDDDD"></path>
                <path d="M91.5638176,159.165837 L79.0541337,202.71183 C78.9334631,203.198081 79.0163579,203.711055 79.2845697,204.137826 C79.5527814,204.564597 79.9843227,204.870178 80.4841937,204.9873 L80.7247646,204.9873 L80.7247646,204.9873 C81.4952906,205.084758 82.2209606,204.612241 82.4221255,203.882071 L94.9451744,160.336079 C95.179745,159.394297 94.6422985,158.432882 93.7022251,158.11262 L93.7022251,158.11262 C93.3105828,157.958714 92.8720985,157.962696 92.4834773,158.123687 C92.0948561,158.284678 91.7880211,158.589453 91.6306428,158.970797 C91.6023973,159.033728 91.580032,159.099005 91.5638176,159.165837 L91.5638176,159.165837 Z" id="Path" fill="#DDDDDD"></path>
                <path d="M114.265236,162.436647 L124.937275,208.047016 C125.173308,208.863491 124.722654,209.722614 123.930479,209.966361 C123.727229,210.011213 123.517066,210.011213 123.313816,209.966361 L123.313816,209.966361 C122.555159,209.874308 121.932431,209.30505 121.753282,208.539821 L111.056074,162.916483 C110.947971,162.520911 110.997441,162.097244 111.193519,161.739388 C111.389598,161.381531 111.716088,161.119045 112.100625,161.010107 L112.314569,161.010107 L112.314569,161.010107 C113.220235,160.913109 114.055125,161.523671 114.265236,162.436647 Z" id="Path" fill="#DDDDDD"></path>
                <path d="M110.460654,127.25179 C107.297259,120.038386 102.759602,112.773181 95.4734216,109.729824 C90.9876237,107.864958 85.957307,107.826107 81.0955318,108.162819 C77.4577378,108.233321 73.8686383,109.011936 70.5292738,110.455049 C67.1672657,111.971363 64.7506106,115.022651 64.0469069,118.639737 C63.8911421,120.732125 64.124103,122.835246 64.7340378,124.843005 L69.7124956,145.874545 C70.3607322,148.645942 71.0867573,151.533894 73.0185027,153.644818 C74.9688404,155.440887 77.3200605,156.746175 79.8768468,157.452252 C88.0705586,160.404955 96.3550235,163.396511 104.989536,164.536151 C113.624049,165.675791 122.790116,164.846962 130.374485,160.573311 C133.084114,159.045158 135.845603,156.170157 134.756565,153.269255 C133.900892,151.028826 131.178298,150.174096 128.779823,150.031641 C122.504891,149.643127 120.767617,148.736595 117.604222,143.245602 C114.713086,138.156073 112.85913,132.587377 110.460654,127.25179 Z" id="Path" fill="#505365"></path>
                <path d="M337.01,68.77 C334.38,68.77 330.5,66.97 328.62,69.77 C328.302986,70.3006623 328.028784,70.8557542 327.8,71.43 C326.25,74.7 322.8,76.59 319.49,78.04 C321.49,75.55 323.25,72.55 322.93,69.38 C322.6,66.03 318.63,65.94 316.07,64.85 C313.396796,63.7425018 310.881687,62.2865626 308.59,60.52 C305,57.68 302,53.65 302,48.9 C302,37.9 317.68,29 337,29 C356.32,29 372,37.91 372,48.9 C372,59.89 356.35,68.77 337.01,68.77 Z" id="Path" fill="#DDDDDD"></path>
            </g>
        </g>
    </g>
</svg>