<?xml version="1.0" encoding="UTF-8"?>
<svg width="404px" height="315px" viewBox="0 0 404 315" version="1.1" xmlns="http://www.w3.org/2000/svg" xmlns:xlink="http://www.w3.org/1999/xlink">
    <title>Illustration 18</title>
    <defs>
        <linearGradient x1="43.4608466%" y1="34.896247%" x2="68.958071%" y2="82.7815005%" id="linearGradient-1">
            <stop stop-color="#000000" offset="1%"></stop>
            <stop stop-color="#000000" stop-opacity="0.69" offset="13%"></stop>
            <stop stop-color="#000000" stop-opacity="0.32" offset="25%"></stop>
            <stop stop-color="#000000" stop-opacity="0" offset="100%"></stop>
        </linearGradient>
        <linearGradient x1="41.7648371%" y1="-27.6509826%" x2="63.0307433%" y2="154.716864%" id="linearGradient-2">
            <stop stop-color="#000000" offset="1%"></stop>
            <stop stop-color="#000000" stop-opacity="0.69" offset="13%"></stop>
            <stop stop-color="#000000" stop-opacity="0.32" offset="25%"></stop>
            <stop stop-color="#000000" stop-opacity="0" offset="100%"></stop>
        </linearGradient>
        <linearGradient x1="25.9828431%" y1="21.7829749%" x2="96.8978599%" y2="90.8647537%" id="linearGradient-3">
            <stop stop-color="#000000" offset="1%"></stop>
            <stop stop-color="#000000" stop-opacity="0.69" offset="13%"></stop>
            <stop stop-color="#000000" stop-opacity="0.32" offset="25%"></stop>
            <stop stop-color="#000000" stop-opacity="0" offset="100%"></stop>
        </linearGradient>
    </defs>
    <g id="DESIGN-SYSTEM" stroke="none" stroke-width="1" fill="none" fill-rule="evenodd">
        <g id="Illustrations" transform="translate(-970.000000, -2456.000000)">
            <g id="Illustration-18" transform="translate(970.000000, 2456.000000)">
                <path d="M390.35,271.05 C387.18,276.71 383.55,282.19 378.81,286.61 C376.05485,289.140207 373.037801,291.369471 369.81,293.26 C367.39,294.73 364.88,296.05 362.35,297.31 C346.65,305.16 330.14,311.26 312.72,313.6 C294.56,316.05 276.11,314.97 258,312.73 C233.63,309.73 209.5,304.61 185,303.17 C167.33,302.12 149.6,302.98 132,304.31 C116,305.51 99.65,307.07 83.82,304.82 C81.02,304.42 78.23,303.9 75.46,303.24 C51.28,297.46 30.32,280.75 17.52,259.44 C6.36,240.87 -6.19,205.55 3.58,184.72 C13.99,162.54 42.19,147.48 60.66,132.95 C68.14,127.07 75.54,120.59 79.8,112.08 C84.54,102.59 84.89,91.61 86.86,81.18 C93.24,47.41 118.81,17.94 151.35,6.86 C197.11,-8.73 252.35,1.61 279.35,44.45 C280.683333,46.55 281.923333,48.69 283.07,50.87 C290.74,65.1 298.55,80.59 304.48,95.49 C310.48,110.65 323.48,123.49 335.48,134.06 C348.69,145.76 363.05,156.17 375.48,168.69 C387.91,181.21 398.54,196.32 402,213.62 C405.79,233.18 400.11,253.65 390.35,271.05 Z" id="Path" fill="#DDDDDD" fill-rule="nonzero" opacity="0.18"></path>
                <path d="M369.8,293.26 C367.38,294.73 364.87,296.05 362.34,297.31 C346.64,305.16 330.13,311.26 312.71,313.6 C294.55,316.05 276.1,314.97 257.99,312.73 C233.62,309.73 209.49,304.61 184.99,303.17 C167.32,302.12 149.59,302.98 131.99,304.31 C115.99,305.51 99.64,307.07 83.81,304.82 L79.87,253.66 L280.26,206.58 L369.8,293.26 Z" id="Path" fill="#DDDDDD" fill-rule="nonzero" opacity="0.18"></path>
                <path d="M77.69,234.2 L201.35,177.97 C204.035699,176.500971 207.19812,176.169602 210.13,177.05 L280.77,186.64 C284.77,187.85 283.77,204.32 280.27,206.58 L165.41,280.01 C160.820486,282.950376 155.096002,283.501237 150.03,281.49 L79.87,253.65 C76.02,252.13 74.06,236.19 77.69,234.2 Z" id="Path" fill="#FFFFFF" fill-rule="nonzero"></path>
                <path d="M77.69,234.2 L201.35,177.97 C204.035699,176.500971 207.19812,176.169602 210.13,177.05 L280.77,186.64 C284.77,187.85 283.77,204.32 280.27,206.58 L165.41,280.01 C160.820486,282.950376 155.096002,283.501237 150.03,281.49 L79.87,253.65 C76.02,252.13 74.06,236.19 77.69,234.2 Z" id="Path" fill="url(#linearGradient-1)" fill-rule="nonzero"></path>
                <path d="M79.35,232.78 L201.35,165.93 C204.035699,164.460971 207.19812,164.129602 210.13,165.01 L279.04,185.71 C280.873363,186.261199 282.217818,187.829644 282.482237,189.725725 C282.746657,191.621807 281.88261,193.49824 280.27,194.53 L165.41,267.97 C160.814967,270.895886 155.096081,271.44249 150.03,269.44 L79.87,241.61 C78.1137951,240.904598 76.9223213,239.249134 76.8110599,237.35983 C76.6997985,235.470526 77.6887295,233.686658 79.35,232.78 Z" id="Path" fill="#FFFFFF" fill-rule="nonzero"></path>
                <path d="M86.12,231.75 L199.87,169.43 C202.371829,168.060594 205.318078,167.750841 208.05,168.57 L272.35,187.87 C274.061057,188.384689 275.315219,189.84937 275.56038,191.619261 C275.805541,193.389152 274.99673,195.139591 273.49,196.1 L166.35,264.55 C162.073111,267.287443 156.740685,267.800963 152.02,265.93 L86.61,239.93 C85.0014158,239.260231 83.9151363,237.732326 83.8109465,235.992993 C83.7067567,234.253661 84.602873,232.607006 86.12,231.75 Z" id="Path" fill="#DDDDDD" fill-rule="nonzero" opacity="0.52"></path>
                <polygon id="Path" fill="#FFFFFF" fill-rule="nonzero" points="184.87 182.04 200.04 173.64 262.57 197.72 245.79 207.07"></polygon>
                <polygon id="Path" fill="#FFFFFF" fill-rule="nonzero" points="164.37 194.27 179.54 185.87 242.07 209.96 225.29 219.31"></polygon>
                <polygon id="Path" fill="#FFFFFF" fill-rule="nonzero" points="143.87 206.51 159.04 198.11 221.58 222.19 204.8 231.54"></polygon>
                <polygon id="Path" fill="#FFFFFF" fill-rule="nonzero" points="123.37 218.74 138.55 210.34 201.08 234.43 184.3 243.78"></polygon>
                <polygon id="Path" fill="#FFFFFF" fill-rule="nonzero" points="102.88 230.98 118.05 222.58 180.58 246.66 163.8 256.01"></polygon>
                <path d="M121.17,104.92 C121.17,104.92 114.5,105.98 111.87,108.8 C109.24,111.62 94.98,134.32 94.98,134.32 C94.98,134.32 89.63,139.96 94.98,141.79 C100.33,143.62 101.88,143.05 102.16,141.79 C102.44,140.53 103,138.55 103,138.55 C103,138.55 103.57,138.27 104.27,136.86 C104.728146,136.041013 104.969122,135.118422 104.97,134.18 C104.844049,133.553048 104.656471,132.940072 104.41,132.35 L116.41,117.43 L120.41,114.33 L121.17,104.92 Z" id="Path" fill="#FFBBAB" fill-rule="nonzero"></path>
                <path d="M165.47,94.15 C165.536971,94.5899324 165.495784,95.0395567 165.35,95.46 C165.064814,95.8884082 164.693616,96.2527962 164.26,96.53 C163.292185,97.52319 162.427749,98.6121113 161.68,99.78 C160.8,100.87 159.46,101.78 158.11,101.47 C157.730885,101.33154 157.338964,101.231047 156.94,101.17 C156.130135,101.24205 155.420652,101.74174 155.08,102.48 C154.755206,103.218314 154.30525,103.894939 153.75,104.48 C152.57,105.48 150.84,105.01 149.4,104.54 C148.568471,104.362035 147.825493,103.898557 147.3,103.23 C147.068383,102.774699 146.948413,102.270826 146.95,101.76 C146.95,100.54 147.02,99.32 147.02,98.11 C147.02,94.2 145.82,90.27 146.57,86.43 C147.41303,82.1069717 150.753463,78.7035856 155.06,77.78 C158.863455,77.2188005 162.637624,78.9664643 164.67,82.23 C166.74,85.45 165.29,90.44 165.47,94.15 Z" id="Path" fill="#FFBBAB" fill-rule="nonzero"></path>
                <path d="M164.24,120.26 C164.24,120.26 171,127.58 173.39,127.86 C175.78,128.14 194.39,107.73 194.39,107.73 C195.698656,107.571877 196.803777,106.683903 197.24,105.44 C197.654889,104.2432 197.798354,102.969095 197.66,101.71 C197.651351,101.343302 197.590748,100.979682 197.48,100.63 C197.215537,100.060411 196.825841,99.5579084 196.34,99.16 C195.826654,98.6282848 195.228504,98.1855864 194.57,97.85 C193.910266,97.4997715 193.119734,97.4997715 192.46,97.85 C192.033929,98.1584502 191.690464,98.5671743 191.46,99.04 C190.74,100.27 190.01,101.75 190.6,103.04 C190.734249,103.251889 190.819648,103.491005 190.85,103.74 C190.812678,104.043441 190.662787,104.32181 190.43,104.52 C185.665877,109.719598 180.0526,114.071578 173.83,117.39 C173.645875,117.505107 173.436535,117.573743 173.22,117.59 C172.938994,117.567231 172.67266,117.45509 172.46,117.27 C171.12,116.34 169.81,115.38 168.51,114.4 C166.71268,116.051318 165.261263,118.043193 164.24,120.26 L164.24,120.26 Z" id="Path" fill="#FFBBAB" fill-rule="nonzero"></path>
                <path d="M143.29,102.13 C143.29,102.13 143.29,102.13 143.29,102.13 L142.6,103.41 C140.9,106.643333 139.193333,109.87 137.48,113.09 C136.58,114.78 135.37,118.66 133.62,119.58 C132.803219,119.940907 131.89351,120.035377 131.02,119.85 C128.42,119.5 125.2,117.85 123.3,117.36 C122.63421,117.136899 121.927031,117.065156 121.23,117.15 C120.24137,117.482372 119.385894,118.123979 118.79,118.98 C115.703333,122.553333 112.443333,125.966667 109.01,129.22 C108.328534,129.938592 107.530659,130.536999 106.65,130.99 C104.72,131.85 102.65,131.26 100.65,130.26 C99.8597482,129.869788 99.0918878,129.43578 98.35,128.96 C97.8929667,128.728335 97.5216648,128.357033 97.29,127.9 C96.96,127.04 97.66,126.16 98.29,125.48 C100.762174,122.797027 102.891786,119.817585 104.63,116.61 C106.24,113.61 107.63,110.38 110.19,108.22 C115.24,104.01 123.74,104.6 130.03,103.81 C131.12,103.67 136.93,103.53 140.5,103.01 C141.94,102.8 143.01,102.53 143.27,102.18 L143.29,102.13 Z" id="Path" fill="#DDDDDD" fill-rule="nonzero"></path>
                <path d="M154.35,153.91 C154.35,153.91 172.98,155.44 175.23,160.37 C177.48,165.3 179.74,195.7 179.74,195.7 L169.17,199.26 L166.78,172.37 C166.78,172.37 136.55,171.26 132.87,167.26 C130.589589,164.707322 129.011385,161.606049 128.29,158.26 L154.35,153.91 Z" id="Path" fill="#282328" fill-rule="nonzero"></path>
                <path d="M153.16,157.49 C153.16,157.49 150.73,184.72 147.63,186.98 C144.53,189.24 126.14,215.79 126.14,215.79 L116.35,210.35 L131.59,181.63 L133.52,159.45 L153.16,157.49 Z" id="Path" fill="#473F47" fill-rule="nonzero"></path>
                <path d="M160.72,112.85 C160.72,112.85 160.72,112.94 160.72,112.99 C160.16,116.76 159.59,120.54 159.03,124.3 L158.91,125.1 C158.003333,131.16 157.1,137.216667 156.2,143.27 C155.57,147.45 154.95,151.63 153.95,155.72 C153.84028,156.368432 153.572374,156.979809 153.17,157.5 C152.650125,157.986777 152.00081,158.31317 151.3,158.44 C146.78,159.65 142.03,159.51 137.3,159.35 C134.266671,159.378124 131.24218,159.018546 128.3,158.28 C127.17,157.94 125.93,157.28 125.68,156.18 C125.614918,155.792715 125.614918,155.397285 125.68,155.01 C126.22,150.77 127.68,146.66 127.99,142.39 C128.11,140.51 127.99,138.61 128.17,136.73 C128.32,135.17 128.65,133.63 128.92,132.09 C129.07,131.29 129.2,130.49 129.28,129.68 C129.45,127.99 129.41,126.29 129.68,124.61 C129.975573,123.001981 130.420845,121.425118 131.01,119.9 C131.01,119.83 131.01,119.77 131.08,119.7 C132.08,116.92 133.08,114.15 134.15,111.43 C134.917247,109.37147 135.978233,107.434749 137.3,105.68 C137.780979,105.084039 138.324039,104.540979 138.92,104.06 C139.407979,103.674163 139.934033,103.339096 140.49,103.06 C141.194276,102.685305 141.953822,102.425371 142.74,102.29 C142.912054,102.260146 143.085668,102.240114 143.26,102.23 C143.26,102.23 143.26,102.23 143.26,102.23 C144.399392,102.151804 145.544035,102.208869 146.67,102.4 C149.81,102.81 154.35,102.87 157.5,104.62 C158.778811,105.275516 159.81045,106.328208 160.44,107.62 C161.034679,109.300064 161.131902,111.116046 160.72,112.85 L160.72,112.85 Z" id="Path" fill="#DDDDDD" fill-rule="nonzero"></path>
                <path d="M193.51,110.08 C193.58,111.19 192.71,112.08 191.89,112.88 L176.24,127.66 C176.01,127.88 175.77,128.1 175.52,128.31 C175.092574,128.694435 174.602053,129.002279 174.07,129.22 C173.654451,129.364173 173.219595,129.445076 172.78,129.46 C172.073203,129.459205 171.368751,129.378696 170.68,129.22 C166.488256,128.393423 162.514157,126.704346 159.01,124.26 C154.01,120.61 151.19,115.19 154.09,107.99 C154.329109,107.361778 154.623602,106.75606 154.97,106.18 C155.420443,105.180008 156.413251,104.535074 157.51,104.53 C158.559864,104.678283 159.543512,105.130135 160.34,105.83 C162.85,107.73 165.25,109.75 167.64,111.83 C168.34,112.42 169.1,113.08 169.89,113.7 C171.011597,114.627759 172.261123,115.388926 173.6,115.96 C173.896284,116.098262 174.22553,116.150249 174.55,116.11 C174.819535,116.026368 175.068319,115.88664 175.28,115.7 C179.713333,112.293333 184.156667,108.91 188.61,105.55 C188.976826,105.179854 189.491685,104.995976 190.01,105.05 C190.345019,105.191209 190.625569,105.436691 190.81,105.75 L192.57,108.12 C192.787165,108.399058 192.984324,108.693125 193.16,109 C193.357946,109.328396 193.4777,109.697923 193.51,110.08 Z" id="Path" fill="#DDDDDD" fill-rule="nonzero"></path>
                <path d="M145.28,120.85 C144.411347,121.270627 143.677188,121.925137 143.16,122.74 C141.72,124.83 140.68,127.38 138.68,129.02 C136.02,131.19 132.24,131.17 128.91,132.09 C129.06,131.29 129.19,130.49 129.27,129.68 C129.44,127.99 129.4,126.29 129.67,124.61 C129.965573,123.001981 130.410845,121.425118 131,119.9 C128.4,119.55 125.18,117.9 123.28,117.41 C122.61421,117.186899 121.907031,117.115156 121.21,117.2 C120.22137,117.532372 119.365894,118.173979 118.77,119.03 C115.683333,122.603333 112.423333,126.016667 108.99,129.27 C108.308534,129.988592 107.510659,130.586999 106.63,131.04 C104.7,131.9 102.63,131.31 100.63,130.31 C100.619737,130.250439 100.619737,130.189561 100.63,130.13 C100.641583,129.791492 100.780927,129.469929 101.02,129.23 C105.979865,123.020562 111.55119,117.325281 117.65,112.23 C123.11,107.55 130.17,105.89 137.08,104.48 L138.94,104.11 C140.16,103.88 141.38,103.67 142.61,103.51 C145.111941,103.124988 147.658059,103.124988 150.16,103.51 C152.009427,103.905318 153.696384,104.849875 155,106.22 C157.08,108.22 158.8,110.88 160.75,112.85 L161.28,113.37 C165.534648,117.142168 170.049099,120.61071 174.79,123.75 C175.113115,124.029428 175.522976,124.188426 175.95,124.2 C176.30274,124.133042 176.62893,123.966477 176.89,123.72 C181.628002,119.939544 186.123543,115.864834 190.35,111.52 C191.116554,110.688357 191.942024,109.913017 192.82,109.2 C192.918123,109.120549 193.025586,109.053385 193.14,109 C193.337946,109.328396 193.4577,109.697923 193.49,110.08 C193.56,111.19 192.69,112.08 191.87,112.88 L176.24,127.66 C176.01,127.88 175.77,128.1 175.52,128.31 L175.36,128.39 C174.52981,128.814682 173.667076,129.172483 172.78,129.46 C172.073203,129.459205 171.368751,129.378696 170.68,129.22 C166.488256,128.393423 162.514157,126.704346 159.01,124.26 L158.89,125.06 C158.707656,124.935166 158.533929,124.798189 158.37,124.65 C157.73,124.08 157.24,123.37 156.62,122.78 C154.62,120.88 151.62,120.53 148.9,120.35 C143.4,120 144,125.21 143.26,129.59 C142.42,134.596667 141.823333,139.636667 141.47,144.71 C141.21,148.35 141.08,152.07 139.81,155.49 C139.499072,156.59189 138.812849,157.550481 137.87,158.2 C137.175919,158.541942 136.413709,158.723095 135.64,158.73 C133.125184,158.887579 130.600688,158.692351 128.14,158.15 C127.176539,158.065744 126.312787,157.522176 125.82,156.69 C125.652122,156.128956 125.652122,155.531044 125.82,154.97 L130.16,131.32" id="Path" fill="url(#linearGradient-2)" fill-rule="nonzero"></path>
                <path d="M115.58,213.46 C114.66,214.3 113.51,215.02 113.1,216.19 C112.901458,216.838081 112.867094,217.525346 113,218.19 C113.4,220.62 114.93,222.7 116.4,224.68 L118.1,226.95 L120.93,230.74 C121.575734,231.720953 122.395983,232.575096 123.35,233.26 C124.89423,234.04323 126.623315,234.389047 128.35,234.26 C129.095604,234.320571 129.84556,234.221713 130.55,233.97 C131.261409,233.699559 131.725844,233.010914 131.71,232.25 C131.61,231.25 130.52,230.75 129.71,230.25 C127.16,228.59 126.23,225.37 125.49,222.42 C124.98,220.42 124.49,218.23 125.01,216.2 C125.19,215.51 125.49,214.85 125.64,214.15 C125.813547,213.466477 125.693932,212.741539 125.31,212.15 C124.957301,211.752312 124.51026,211.4497 124.01,211.27 C122.495422,210.612813 120.912317,210.126477 119.29,209.82 C117.51,209.33 116.73,212.4 115.58,213.46 Z" id="Path" fill="#FFBBAB" fill-rule="nonzero"></path>
                <path d="M172.18,201.99 C172.13,203.38 172.49,204.99 173.7,205.66 C174.294928,205.968911 174.960202,206.117133 175.63,206.09 C177.172312,206.120393 178.703266,205.82034 180.12,205.21 C182.61,204.13 184.64,202.15 187.12,201.12 C187.837007,200.898631 188.512701,200.560785 189.12,200.12 C189.739544,199.658103 189.969605,198.836458 189.68,198.12 C189.43,197.69 188.94,197.45 188.62,197.12 C188.3,196.79 188.16,196.12 187.73,195.82 C186.99,195.27 185.98,195.82 185.19,196.3 C183.699992,197.191884 182.042189,197.767179 180.32,197.99 C180.07925,198.040145 179.83075,198.040145 179.59,197.99 C178.67,197.7 178.7,196.28 177.91,195.73 C176.77,194.96 173.8,196.59 173.01,197.54 C172.12,198.59 172.21,200.6 172.18,201.99 Z" id="Path" fill="#FFBBAB" fill-rule="nonzero"></path>
                <path d="M168.25,86.08 C166.74,88.19 164.12,89.36 162.86,91.62 C161.6,93.88 161.92,97.33 159.94,99.24 C159.12762,99.9520529 158.134504,100.426119 157.07,100.61 C155.86,100.89 154.55,100.99 153.36,101.3 C152.577799,101.446197 151.870766,101.859811 151.36,102.47 C150.75,103.33 151.36,104.54 151.42,105.47 C151.61251,106.924615 151.537956,108.402151 151.2,109.83 C150.593397,111.710254 149.22048,113.246614 147.42,114.06 C145.634222,114.86703 143.673845,115.210956 141.72,115.06 C141.289125,114.993534 140.848225,115.052552 140.45,115.23 C139.975483,115.638885 139.701831,116.233621 139.7,116.86 C139.26,120.01 138.46,123.37 136.04,125.43 C134.977111,126.284547 133.74756,126.907837 132.43,127.26 C127.695686,128.695365 122.557189,127.666915 118.74,124.52 C117.712488,123.626426 116.831749,122.576963 116.13,121.41 C114.277668,118.39557 113.776929,114.741625 114.75,111.34 C115.75,108.22 118,105.2 117.24,102.02 C116.96,100.87 116.3,99.85 115.95,98.72 C115.551622,97.0150926 115.531143,95.2436616 115.89,93.53 C116.014394,91.9794033 116.475074,90.4745154 117.24,89.12 C118.111643,87.8735426 119.30356,86.8854606 120.69,86.26 C126.4,83.43 133.36,83.87 138.94,80.77 C143.82,78.05 147.32,72.77 152.78,71.56 C154.375639,71.2039892 156.023385,71.146352 157.64,71.39 C159.23,71.66 160.12,72.76 161.58,73.23 C162.463092,73.3701072 163.355862,73.440325 164.25,73.44 C165.640774,73.7701533 166.844819,74.6363463 167.6,75.85 C168.330692,76.8612189 168.872727,77.9961035 169.2,79.2 C169.933934,81.519516 169.58505,84.0461723 168.25,86.08 Z" id="Path" fill="#FC682D" fill-rule="nonzero"></path>
                <path d="M168.25,86.08 C166.74,88.19 164.12,89.36 162.86,91.62 C161.6,93.88 161.92,97.33 159.94,99.24 C159.12762,99.9520529 158.134504,100.426119 157.07,100.61 C155.86,100.89 154.55,100.99 153.36,101.3 C152.577799,101.446197 151.870766,101.859811 151.36,102.47 C150.75,103.33 151.36,104.54 151.42,105.47 C151.61251,106.924615 151.537956,108.402151 151.2,109.83 C150.593397,111.710254 149.22048,113.246614 147.42,114.06 C145.634222,114.86703 143.673845,115.210956 141.72,115.06 C141.289125,114.993534 140.848225,115.052552 140.45,115.23 C139.975483,115.638885 139.701831,116.233621 139.7,116.86 C139.26,120.01 138.46,123.37 136.04,125.43 C134.977111,126.284547 133.74756,126.907837 132.43,127.26 C127.695686,128.695365 122.557189,127.666915 118.74,124.52 C117.712488,123.626426 116.831749,122.576963 116.13,121.41 C117.959868,122.24396 119.911047,122.780703 121.91,123 C124.143963,123.092871 126.374833,122.753317 128.48,122 C130.872155,121.337495 133.07485,120.121389 134.91,118.45 C136.754761,116.738348 137.643921,114.231513 137.29,111.74 C141.68863,111.324053 145.104704,107.724365 145.29,103.31 C143.645144,103.663729 141.971654,103.867895 140.29,103.92 C144.999475,102.371795 149.178585,99.5302776 152.35,95.72 C151.921639,96.3262868 151.603442,97.003301 151.41,97.72 C153.301868,98.0470542 155.237061,97.4613061 156.63,96.14 C157.998781,94.8083706 158.770663,92.9796592 158.77,91.07 C158.718821,90.5955276 158.805626,90.1163651 159.02,89.69 C159.2594,89.4113262 159.565633,89.1979953 159.91,89.07 C162.807611,87.6307809 165.263749,85.4371829 167.02,82.72 C167.654366,81.4908096 168.390256,80.3167313 169.22,79.21 C169.944891,81.5294585 169.588353,84.0519124 168.25,86.08 Z" id="Path" fill="url(#linearGradient-3)" fill-rule="nonzero"></path>
                <polygon id="Path" stroke="#FFFFFF" points="229.89 65.76 181.05 87.2 181.05 46.68 229.89 25.24"></polygon>
                <path d="M224.23,54.65 C224.194567,55.8294174 223.808086,56.97145 223.12,57.93 C222.461431,58.9234361 221.526251,59.7021729 220.43,60.17 L194.35,70.57 C192.25,71.41 190.55,70.29 190.55,68.07 C190.585433,66.8905826 190.971914,65.74855 191.66,64.79 C192.321021,63.7963681 193.255184,63.0150049 194.35,62.54 L195.24,62.19 C195.052777,61.539882 194.958509,60.8665379 194.96,60.19 C195.037951,57.8649134 195.799711,55.6144188 197.15,53.72 C198.447257,51.7551177 200.284114,50.206463 202.44,49.26 L204.66,48.38 C207.55,47.23 210.06,47.96 211.31,49.99 C211.890834,49.4294706 212.568452,48.9788547 213.31,48.66 L213.88,48.43 C216.37,47.43 218.39,48.76 218.39,51.43 L218.39,51.67 C218.387005,52.1350337 218.329955,52.5981425 218.22,53.05 L220.38,52.19 C222.53,51.31 224.23,52.43 224.23,54.65 Z" id="Path" fill="#FFFFFF" fill-rule="nonzero"></path>
                <path d="M259.28,146.41 C259.27933,149.963745 256.809847,153.039934 253.340309,153.808962 C249.87077,154.577991 246.332748,152.833375 244.830528,149.612749 C243.328308,146.392122 244.265236,142.560223 247.084062,140.396124 C249.902888,138.232026 253.846757,138.316789 256.57,140.6 C258.28817,142.040542 259.280423,144.167843 259.28,146.41 L259.28,146.41 Z" id="Path" fill="#DDDDDD" fill-rule="nonzero" opacity="0.82"></path>
                <path d="M257.000014,143.12 C257.005641,146.065525 255.302176,148.746872 252.63337,149.993316 C249.964563,151.23976 246.815064,150.824951 244.56,148.93 C243.436874,145.714902 244.595869,142.145458 247.39351,140.203429 C250.19115,138.2614 253.940535,138.42361 256.56,140.6 C256.850089,141.408554 256.998926,142.260984 257.000014,143.12 L257.000014,143.12 Z" id="Path" fill="#FFFFFF" fill-rule="nonzero" opacity="0.55"></path>
                <path d="M250.56,121.81 C250.56,123.343821 249.635505,124.726421 248.218051,125.31245 C246.800597,125.898479 245.169669,125.572386 244.086527,124.486379 C243.003386,123.400372 242.681603,121.768588 243.271375,120.352687 C243.861147,118.936787 245.246185,118.015953 246.78,118.019987 C248.869253,118.025513 250.56,119.72074 250.56,121.81 L250.56,121.81 Z" id="Path" fill="#DDDDDD" fill-rule="nonzero" opacity="0.82"></path>
                <path d="M249.42,120.17 C249.416718,121.639927 248.563781,122.975392 247.231536,123.596536 C245.899291,124.217679 244.328031,124.012466 243.2,123.069991 C242.815754,121.915577 243.007533,120.646963 243.715843,119.657703 C244.424153,118.668444 245.563336,118.078172 246.78,118.069991 C247.670101,118.06805 248.531715,118.383621 249.21,118.96 C249.346915,119.348819 249.417892,119.757785 249.42,120.17 L249.42,120.17 Z" id="Path" fill="#FFFFFF" fill-rule="nonzero" opacity="0.55"></path>
                <path d="M284.92,105.5 C284.919283,107.276185 283.685144,108.813614 281.951149,109.198446 C280.217154,109.583277 278.448502,108.712269 277.696471,107.103144 C276.94444,105.494019 277.410786,103.578476 278.818316,102.495103 C280.225845,101.411731 282.196944,101.451179 283.56,102.59 C284.422292,103.310437 284.920453,104.376356 284.92,105.5 Z" id="Path" fill="#DDDDDD" fill-rule="nonzero" opacity="0.82"></path>
                <path d="M283.77,103.85 C283.770594,105.321735 282.919118,106.660746 281.586059,107.284411 C280.253,107.908077 278.679419,107.703619 277.55,106.76 C276.984608,105.151689 277.562628,103.363807 278.962532,102.390874 C280.362436,101.41794 282.239666,101.499425 283.55,102.59 C283.694187,102.994503 283.76858,103.420569 283.77,103.85 Z" id="Path" fill="#FFFFFF" fill-rule="nonzero" opacity="0.55"></path>
                <g id="Group" opacity="0.82" transform="translate(249.000000, 120.000000)" fill="#DDDDDD" fill-rule="nonzero">
                    <polygon id="Path" points="9.68 24.12 8.89 23.83 16.59 2.21 0.77 1.41 0.81 0.58 17.76 1.43"></polygon>
                </g>
                <polygon id="Path" fill="#DDDDDD" fill-rule="nonzero" points="277.17 122.23 266.17 122.23 266.17 121.4 276.53 121.4 280.16 107.73 280.97 107.95"></polygon>
            </g>
        </g>
    </g>
</svg>