<svg width="20px" height="22px" viewBox="0 0 20 22" version="1.1" xmlns="http://www.w3.org/2000/svg" xmlns:xlink="http://www.w3.org/1999/xlink">
    <defs>
        <path d="M18.3078331,14.6162862 C17.196226,14.616987 16.1443933,15.1372381 15.4456689,16.0319525 L9.24782088,12.8249239 C9.41199505,12.1718034 9.4010814,11.4847296 9.21625289,10.8375463 L15.5298502,7.30382553 C16.7591252,8.77624783 18.8627851,9.0539467 20.4098615,7.94802355 C21.9569378,6.84210041 22.4506077,4.70770768 21.555063,2.99671929 C20.6595183,1.28573091 18.6623512,0.547607894 16.9220909,1.28444228 C15.1818306,2.02127666 14.2573384,3.99644393 14.7774799,5.86637979 L8.46388254,9.40010057 C7.4488779,8.19032063 5.81115486,7.76660688 4.36544481,8.33974765 C2.91973476,8.91288842 1.97471625,10.3605104 2.00051531,11.9624534 C2.02631437,13.5643964 3.01742256,14.978624 4.48078523,15.5015888 C5.94414791,16.0245537 7.56731744,15.5445958 8.54280251,14.3004838 L14.7406506,17.5075123 C14.3563669,19.0861622 14.9833826,20.7431258 16.3013666,21.6318901 C17.6193506,22.5206543 19.3373012,22.4449864 20.5775484,21.4435437 C21.8177956,20.4421009 22.3065014,18.7359949 21.7939949,17.1968445 C21.2814883,15.6576942 19.8809272,14.6253331 18.3078331,14.627176 L18.3078331,14.6162862 Z M18.3078331,2.63757175 C19.4701342,2.63757175 20.4123655,3.61267232 20.4123655,4.81551984 C20.4123655,6.01836735 19.4701342,6.99346793 18.3078331,6.99346793 C17.1455319,6.99346793 16.2033006,6.01836735 16.2033006,4.81551984 C16.2033006,3.61267232 17.1455319,2.63757175 18.3078331,2.63757175 Z M5.68063838,14.0717992 C4.5183372,14.0717992 3.57610593,13.0966986 3.57610593,11.8938511 C3.57610593,10.6910036 4.5183372,9.71590304 5.68063838,9.71590304 C6.84293955,9.71590304 7.78517082,10.6910036 7.78517082,11.8938511 C7.78517082,13.0966986 6.84293955,14.0717992 5.68063838,14.0717992 Z M18.3078331,20.6056435 C17.1455319,20.6056435 16.2033006,19.6305429 16.2033006,18.4276954 C16.2033006,17.2248479 17.1455319,16.2497473 18.3078331,16.2497473 C19.4701342,16.2497473 20.4123655,17.2248479 20.4123655,18.4276954 C20.4123655,19.6305429 19.4701342,20.6056435 18.3078331,20.6056435 Z" id="path-11"/>
    </defs>
    <g id="SHARE-SYSTEM" stroke="none" stroke-width="1" fill-rule="evenodd">
        <g id="Icons" transform="translate(-526.000000, -351.000000)">
            <g id="Icon-share-33" transform="translate(524.000000, 350.000000)">
                <mask id="mask-24" fill="white">
                    <use xlink:href="#path-11"/>
                </mask>
                <use id="Shape-6" fill="#000000" xlink:href="#path-11"/>
                <g id="Group-8" mask="url(#mask-24)" fill="#999999">
                    <g id="COLOR/-black">
                        <rect id="Rectangle-2-Copy-3" x="0" y="0" width="24" height="24"/>
                    </g>
                </g>
            </g>
        </g>
    </g>
</svg>
