<svg viewBox="0 0 610 546" xmlns="http://www.w3.org/2000/svg"><g fill="none" fill-rule="evenodd"><g transform="translate(119.999871 259)"><path d="m282.879029 184.000065-266.1080002-.525033c-9.27999999-.019-16.78799999-7.557-16.7710288-16.839l.28602881-149.8619997c.018-9.28200001 7.555-16.79200001 16.83499999-16.7740323l266.1080002.52503229c9.28.019 16.789 7.557 16.771032 16.83900001l-.286032 149.8619997c-.018 9.282-7.555 16.792-16.835 16.774033" fill="#a90e16"/><path d="m300.089476 81.0573323-299.92394719-.6103599.07605324-41.3896401 299.92394695.6103599z" fill="#ffba08"/><g fill="#fff" transform="translate(23 114)"><path d="m222.90616 36.1530314c-1.204.26-2.451.402-3.727.4000208-9.498-.0180208-17.197-7.7730208-17.179031-17.3170208.018031-9.52900001 7.747031-17.25400001 17.245031-17.2360314 1.276.00303139 2.522.15003139 3.725.41503139-4.923 3.962-8.095 10.03700001-8.108 16.84600001-.014 6.824 3.136 12.911 8.044 16.892"/><path d="m253.664992 19.3347314c-.018032 9.544-7.747032 17.27-17.260032 17.251035-3.132-.006035-6.073-.855035-8.608-2.329035-5.142-3.007-8.597-8.586-8.585031-14.987.012031-6.387 3.488031-11.95300001 8.642031-14.94000001 2.54-1.465 5.485-2.303 8.617-2.297032 9.513.019032 17.212 7.773032 17.194032 17.30203201"/><path d="m13.3029364.66283139h105.3611476c4.457594 0 6.074025.46412806 7.703655 1.33566352s2.908572 2.15047834 3.780108 3.78010796c.871535 1.62962963 1.335663 3.24606082 1.335663 7.70365453v8.361148c0 4.4575937-.464128 6.0740249-1.335663 7.7036545-.871536 1.6296296-2.150478 2.9085725-3.780108 3.780108-1.62963.8715354-3.246061 1.3356635-7.703655 1.3356635h-105.3611476c-4.45759372 0-6.07402491-.4641281-7.70365454-1.3356635-1.62962963-.8715355-2.9085725-2.1504784-3.78010796-3.780108s-1.33566352-3.2460608-1.33566352-7.7036545v-8.361148c0-4.45759371.46412806-6.0740249 1.33566352-7.70365453.87153546-1.62962962 2.15047833-2.9085725 3.78010796-3.78010796s3.24606082-1.33566352 7.70365454-1.33566352z"/></g></g><g transform="translate(156.999909 97)"><path d="m309.613891 213.000239-266.5059997-.560048c-12.177-.025-22.028-9.91-22.0040438-22.079l.2910438-147.1469999c.024-12.172 9.917-22.019 22.095-21.9930514l266.5069997.5580514c12.177.027 22.027 9.911 22.003044 22.08l-.290044 147.1479999c-.025 12.172-9.917 22.018-22.096 21.993048" fill="#e3141f"/><g fill="#a90e16" transform="translate(21.305491 21.270991)"><path d="m310.614 67.4841-310.614-.632.06-29.421 310.614.631z"/><path d="m66.409 191.237.389-191.237 29.36.059-.389 191.238z"/></g><path d="m44.0600913 0 .208.00109109c23.9228629.04855991 45.180453 11.64125791 58.5228907 29.49536911 13.412713-17.7998163 34.718151-29.30649185 58.641209-29.25802221l.208.0011531c24.245.049 43.929 19.85500001 43.880092 44.15100001-.050092 24.296-19.814092 44.023-44.060092 43.9730948l-23.289282-.0477767 26.455682 26.5548818c5.728 5.75 5.72 15.064-.018 20.804-2.873 2.874-6.639 4.308-10.402 4.300033-3.752-.007033-7.498-1.446033-10.359-4.317033l-41.190682-41.3448818-41.3560177 41.1778818c-2.871 2.858-6.627 4.282-10.377 4.274034-3.763-.007034-7.522-1.456034-10.385-4.342034-5.714-5.763-5.684-15.077.068-20.804l26.5610178-26.4468818-23.2878178-.0478181c-24.245-.049-43.92900002-19.855-43.8800913-44.15.04909128-24.297 19.8140913-44.02300001 44.0600913-43.9740911zm117.5200997 29.6604979h-.208c-19.062-.0389068-35.351 12.1650932-41.437 29.1970932l41.585.085033c8.057.016967 14.623-6.538033 14.64003-14.611033.01597-8.074-6.52403-14.655-14.58003-14.6710932zm-117.5800997-.239436c-8.057-.0159708-14.624 6.5380292-14.6400293 14.6120292-.0159707 8.073 6.5240293 14.654 14.5800293 14.67l41.585.085c-6.017-17.057-22.256-29.328-41.317-29.366z" fill="#ffba08"/></g></g></svg>