<svg viewBox="0 0 610 546" xmlns="http://www.w3.org/2000/svg"><g fill="none" fill-rule="evenodd"><g transform="translate(119.999871 259)"><path d="m.00012881 183.475064v-183.47499954l300.00000019.525v183.47493554z" fill="#0075bf"/><path d="m300.000129 81.0573323-300.00000019-.5537835v-41.4462165l300.00000019.6111942z" fill="#ef7c00"/><g fill="#fff" transform="translate(23 113)"><path d="m206.000129 14h34v34h-34z"/><path d="m218.000129-1.34h38v38h-38z" stroke="#0075bf" stroke-width="4"/><path d="m0 1h131v34h-131z"/></g></g><g transform="translate(156.999909 97)"><path d="m21 212.451844v-191.4516436l311 .5478245v191.4515761z" fill="#009fe3"/><g fill="#0075bf" transform="translate(20.305491 21.270991)"><path d="m311.6946 67.4841-311-.632.06-29.421 310.94.631z"/><path d="m68 191.237.389-191.237 29.36.059-.389 191.238z"/></g><path d="m44.0601822.00009075.208.00109109c23.9228629.04855992 45.180453 11.64125796 58.5228908 29.49536916 13.412713-17.7998164 34.71815-29.3064919 58.641209-29.25802226l.208.0011531c24.245.049 43.929 19.85499996 43.880092 44.15099996-.050092 24.296-19.814092 44.023-44.060092 43.9730949l-23.369282-.0477767 29.65038 29.622714v41.561286l-64.87138-64.824-64.87 64.824v-41.561286l29.792-29.765714-23.9118178-.0488182c-24.245-.049-43.92899997-19.855-43.88009125-44.15.04909128-24.297 19.81409125-44.02299996 44.06009125-43.97409105zm117.5200998 29.66049785h-.208c-19.062-.0389068-35.351 12.1650932-41.437 29.1970932l41.585.085033c8.057.016967 14.623-6.538033 14.64003-14.611033.01597-8.074-6.52403-14.655-14.58003-14.6710932zm-117.5800998-.239436c-8.057-.0159708-14.624 6.5380292-14.6400293 14.6120292-.0159707 8.073 6.5240293 14.654 14.5800293 14.67l41.585.085c-6.017-17.057-22.256-29.328-41.317-29.366z" fill="#ef7c00"/></g></g></svg>