<svg width="24" height="17" viewBox="0 0 24 17" fill="none" xmlns="http://www.w3.org/2000/svg">
<path d="M18.2105 1.47368C18.2105 1.41555 18.2577 1.36842 18.3158 1.36842H21.2632C21.3213 1.36842 21.3684 1.41555 21.3684 1.47368C21.3684 1.53182 21.3213 1.57895 21.2632 1.57895H18.3158C18.2577 1.57895 18.2105 1.53182 18.2105 1.47368Z" fill="black"/>
<path d="M20.9243 7.72372C20.9606 7.76911 20.9533 7.83535 20.9079 7.87167L19.958 8.63158L20.9079 9.39149C20.9533 9.4278 20.9606 9.49405 20.9243 9.53944C20.888 9.58484 20.8217 9.5922 20.7763 9.55588L19.7895 8.76638L18.8026 9.55588C18.7572 9.5922 18.691 9.58484 18.6546 9.53944C18.6183 9.49405 18.6257 9.4278 18.6711 9.39149L19.621 8.63158L18.6711 7.87167C18.6257 7.83535 18.6183 7.76911 18.6546 7.72372C18.691 7.67832 18.7572 7.67096 18.8026 7.70728L19.7895 8.49678L20.7763 7.70728C20.8217 7.67096 20.888 7.67832 20.9243 7.72372Z" fill="black"/>
<path fill-rule="evenodd" clip-rule="evenodd" d="M18.794 4.89925C18.8877 4.80553 19.0184 4.73684 19.1579 4.73684H20.4211C20.5606 4.73684 20.6912 4.80553 20.785 4.89925C20.8787 4.99297 20.9474 5.12366 20.9474 5.26316V5.57895H21.2632C21.4027 5.57895 21.5333 5.64764 21.6271 5.74136C21.7208 5.83508 21.7895 5.96576 21.7895 6.10526V11.1579C21.7895 11.2974 21.7208 11.4281 21.6271 11.5218C21.5333 11.6155 21.4027 11.6842 21.2632 11.6842H18.3158C18.1763 11.6842 18.0456 11.6155 17.9519 11.5218C17.8582 11.4281 17.7895 11.2974 17.7895 11.1579V6.10526C17.7895 5.96576 17.8582 5.83508 17.9519 5.74136C18.0456 5.64764 18.1763 5.57895 18.3158 5.57895H18.6316V5.26316C18.6316 5.12366 18.7003 4.99297 18.794 4.89925ZM18.9429 5.04812C18.8787 5.11229 18.8421 5.19213 18.8421 5.26316V5.78947H18.3158C18.2448 5.78947 18.1649 5.82605 18.1007 5.89022C18.0366 5.9544 18 6.03424 18 6.10526V11.1579C18 11.2289 18.0366 11.3088 18.1007 11.3729C18.1649 11.4371 18.2448 11.4737 18.3158 11.4737H21.2632C21.3342 11.4737 21.414 11.4371 21.4782 11.3729C21.5424 11.3088 21.5789 11.2289 21.5789 11.1579V6.10526C21.5789 6.03424 21.5424 5.9544 21.4782 5.89022C21.414 5.82605 21.3342 5.78947 21.2632 5.78947H20.7368V5.26316C20.7368 5.19213 20.7003 5.11229 20.6361 5.04812C20.5719 4.98394 20.4921 4.94737 20.4211 4.94737H19.1579C19.0869 4.94737 19.007 4.98394 18.9429 5.04812Z" fill="black"/>
<path fill-rule="evenodd" clip-rule="evenodd" d="M16.8421 0H22.7368C23.4526 0 24 0.547368 24 1.26316V15.5789C24 16.2947 23.4105 16.8421 22.7368 16.8421H16.8421C16.1263 16.8421 15.5789 16.2526 15.5789 15.5789V1.26316C15.5789 0.547368 16.1684 0 16.8421 0ZM23.5789 1.26316C23.5789 0.8 23.2 0.421053 22.7368 0.421053H16.8421C16.3789 0.421053 16 0.8 16 1.26316V15.5789C16 16.0421 16.3789 16.4211 16.8421 16.4211H22.7368C23.2 16.4211 23.5789 16.0421 23.5789 15.5789V1.26316Z" fill="black"/>
<path d="M14.2403 9.46545H12.6912L12.3932 11.1579H10.6892L10.9871 9.46545H9.47369L9.75968 7.74829H11.2731L11.5591 6.10526H13.2632L12.9772 7.74829H14.5263L14.2403 9.46545Z" fill="#DF0000"/>
<path d="M2.73684 1.36842C2.67871 1.36842 2.63158 1.41555 2.63158 1.47368C2.63158 1.53182 2.67871 1.57895 2.73684 1.57895H5.68421C5.74235 1.57895 5.78947 1.53182 5.78947 1.47368C5.78947 1.41555 5.74235 1.36842 5.68421 1.36842H2.73684Z" fill="black"/>
<path fill-rule="evenodd" clip-rule="evenodd" d="M7.15789 0H1.26316C0.589474 0 0 0.547368 0 1.26316V15.5789C0 16.2526 0.547368 16.8421 1.26316 16.8421H7.15789C7.83158 16.8421 8.42105 16.2947 8.42105 15.5789V1.26316C8.42105 0.547368 7.87368 0 7.15789 0ZM7.15789 0.421053C7.62105 0.421053 8 0.8 8 1.26316V4.5018L5.24063 7.65537L2.32389 5.98865L0.421053 6.74979V1.26316C0.421053 0.8 0.8 0.421053 1.26316 0.421053H7.15789ZM0.421053 6.97653V15.5789C0.421053 16.0421 0.8 16.4211 1.26316 16.4211H7.15789C7.62105 16.4211 8 16.0421 8 15.5789V12.4618L6.86777 12.0844L5.17906 7.86265L2.30769 6.22187L0.421053 6.97653ZM8 12.2399V4.82151L5.38484 7.81026L7.02697 11.9156L8 12.2399Z" fill="black"/>
</svg>
