<svg width="12" height="24" viewBox="0 0 12 24" fill="none" xmlns="http://www.w3.org/2000/svg">
<path fill-rule="evenodd" clip-rule="evenodd" d="M1.8 0H10.2C11.22 0 12 0.78 12 1.8V22.2C12 23.22 11.16 24 10.2 24H1.8C0.78 24 0 23.16 0 22.2V1.8C0 0.78 0.84 0 1.8 0ZM11.4 1.8C11.4 1.14 10.86 0.6 10.2 0.6H1.8C1.14 0.6 0.6 1.14 0.6 1.8V22.2C0.6 22.86 1.14 23.4 1.8 23.4H10.2C10.86 23.4 11.4 22.86 11.4 22.2V1.8Z" fill="black"/>
<path d="M3.9 1.95C3.81716 1.95 3.75 2.01716 3.75 2.1C3.75 2.18284 3.81716 2.25 3.9 2.25H8.1C8.18284 2.25 8.25 2.18284 8.25 2.1C8.25 2.01716 8.18284 1.95 8.1 1.95H3.9Z" fill="black"/>
<path d="M11.7988 6.18712C11.8611 6.24167 11.8674 6.33643 11.8129 6.39878L7.6734 11.1296L10.0134 16.9797L11.7474 17.5577C11.826 17.5839 11.8685 17.6688 11.8423 17.7474C11.8161 17.826 11.7312 17.8685 11.6526 17.8423L9.78657 17.2203L7.38016 11.2043L3.28846 8.86617L0.35571 10.0393C0.278792 10.07 0.191497 10.0326 0.160729 9.95571C0.129962 9.87879 0.167375 9.7915 0.244292 9.76073L3.31154 8.53383L7.4679 10.9089L11.5871 6.20123C11.6417 6.13888 11.7364 6.13256 11.7988 6.18712Z" fill="black"/>
</svg>
