<svg height="44" viewBox="0 0 63 44" width="63" xmlns="http://www.w3.org/2000/svg"><path d="m70 161.103516 15.625 21.875-15.625 21.875h-43.75c-.8463584 0-1.5787729-.301104-2.1972656-.903321-.6184927-.602216-.9277344-1.342769-.9277344-2.221679v-37.5c0-.846359.3092417-1.578773.9277344-2.197266s1.3509072-.927734 2.1972656-.927734zm-17.2363281 31.542968h5.46875l-4.7363281-20.654296h-6.7382813l-4.8828125 20.654296h5.2734375l.5859375-3.417968h4.3945312zm-2.5878907-14.892578c.0325523.29297.073242.61035.1220704.952149.0488283.341798.1220698.708006.2197265 1.098633l.9277344 5.224609h-2.9296875l.9277344-5.224609c.0651045-.390627.12207-.756835.1708984-1.098633.0488284-.341799.0895181-.659179.1220703-.952149.0651045-.29297.1057942-.56966.1220703-.830078.0162762-.260418.04069-.48828.0732422-.683594h.0976563c.0325522.195314.056966.423176.0732422.683594.0162761.260418.0406899.537108.0732421.830078z" transform="translate(-23 -161)"/></svg>
