<svg height="44" viewBox="0 0 63 44" width="63" xmlns="http://www.w3.org/2000/svg"><path d="m51.25 326.240234v-.097656c.0976567.390627.1871741.797524.2685547 1.220703s.1383462.862628.1708984 1.31836v6.005859c0 .325522-.0244138.65104-.0732422.976562-.0488283.325523-.1057939.634765-.1708984.927735-.0651045.227866-.1464839.431314-.2441406.610351-.0976568.179038-.2115879.333659-.3417969.463868s-.2766919.227864-.4394531.292968c-.1627613.065105-.32552.097657-.4882813.097657h-.024414c-.0162762 0-.04069-.016276-.0732422-.048829h-1.171875v-11.767578zm18.75-15.185546 15.625 21.875-15.625 21.875h-43.75c-.8789106 0-1.6194631-.301104-2.2216797-.903321-.6022165-.602216-.9033203-1.342769-.9033203-2.221679v-37.5c0-.846359.3011038-1.578773.9033203-2.197266.6022166-.618493 1.3427691-.927734 2.2216797-.927734zm-13.0371094 25.195312v.146484c.0651045-.683597.1220701-1.391598.1708985-2.124023.0488283-.732426.0732421-1.472978.0732421-2.22168v-.683593c0-.71615-.0162758-1.432289-.0488281-2.148438-.0325522-.716149-.0976557-1.399736-.1953125-2.050781-.0651045-.553388-.1790356-1.090492-.3417968-1.611328-.1627613-.520836-.3906236-1.009113-.6835938-1.464844-.2278657-.390627-.5045557-.724283-.8300781-1.000977-.3255225-.276694-.6998677-.496418-1.1230469-.659179-.4882837-.195314-1.0009739-.333659-1.5380859-.415039-.5371121-.081381-1.082354-.122071-1.6357422-.122071h-7.5195313v20.605469h7.0800782c.6184926 0 1.2044243-.056966 1.7578124-.170898.5533882-.113933 1.0904922-.28483 1.6113282-.512696.4557314-.260418.8626284-.569659 1.2207031-.927734s.6673164-.748696.9277344-1.171875c.2929702-.520836.5289704-1.074216.7080078-1.660156.1790373-.585941.3011064-1.188148.3662109-1.806641z" transform="translate(-23 -311)"/></svg>