<svg height="44" viewBox="0 0 94 44" width="94" xmlns="http://www.w3.org/2000/svg"><path d="m50.1757812 27.7539062c.0325523.2929703.073242.6103499.1220704.9521485.0488283.3417986.1220698.7080058.2197265 1.0986328l.9277344 5.2246094h-2.9296875l.9277344-5.2246094c.0651045-.390627.12207-.7568342.1708984-1.0986328s.0895181-.6591782.1220703-.9521485c.0651045-.2929702.1057942-.5696601.1220703-.8300781.0162762-.2604179.04069-.4882802.0732422-.6835937h.0976563c.0325522.1953135.056966.4231758.0732422.6835937.0162761.260418.0406899.5371079.0732421.8300781zm51.0742188-16.6503906 15.625 21.875-15.625 21.875h-75c-.8463584 0-1.5787729-.3011037-2.1972656-.9033203-.6184927-.6022165-.9277344-1.342769-.9277344-2.2216797v-37.5c0-.8463584.3092417-1.5787729.9277344-2.1972656s1.3509072-.9277344 2.1972656-.9277344zm-48.4863281 31.5429688h5.46875l-4.7363281-20.6542969h-6.7382813l-4.8828125 20.6542969h5.2734375l.5859375-3.4179688h4.3945312zm18.5546875-7.7636719v-4.1503906h-4.1015625v-4.2480469h-4.296875v4.2480469h-4.0039063v4.1503906h4.0039063v4.3945313h4.296875v-4.3945313zm13.7207031 0v-4.1503906h-4.0527344v-4.2480469h-4.296875v4.2480469h-4.0039062v4.1503906h4.0039062v4.3945313h4.296875v-4.3945313zm13.7695313 0v-4.1503906h-4.1015626v-4.2480469h-4.296875v4.2480469h-3.9550781v4.1503906h3.9550781v4.3945313h4.296875v-4.3945313z" transform="translate(-23 -11)"/></svg>