<svg height="44" viewBox="0 0 63 44" width="63" xmlns="http://www.w3.org/2000/svg"><path d="m50.9082031 229.755859c-.1627612.162762-.3417959.292969-.5371093.390625-.1953135.097657-.4394517.146485-.7324219.146485h-1.171875v-4.150391c.0976567-.032552.2115879-.048828.3417969-.048828.1302089 0 .260416-.016276.390625-.048828h1.3671874c.0976568.032552.1871741.048828.2685547.048828.0813807 0 .1546221.016276.2197266.048828.0976567.227866.1708982.504556.2197266.830078.0488283.325523.0732421.683592.0732421 1.074219s-.0406896.73242-.1220703 1.025391c-.0813806.29297-.1871738.520832-.3173828.683593zm.1953125 4.248047c.0651045.097657.1139322.20345.1464844.317383s.065104.252278.0976562.415039c.0325523.162761.0569661.341796.0732422.53711.0162762.195313.0244141.406899.0244141.634765 0 .390627-.0325518.732421-.0976563 1.025391-.0651044.29297-.1627597.537108-.2929687.732422-.130209.195313-.2929678.333658-.4882813.415039-.1953134.08138-.4231757.12207-.6835937.12207h-1.4160156v-4.199219c.130209 0 .260416-.008138.390625-.024414s.2766919-.024414.4394531-.024414h1.3671875c.0976567 0 .1871741.008138.2685547.024414s.1383462.024414.1708984.024414zm18.8964844-22.90039 15.625 21.875-15.625 21.875h-43.75c-.8463584 0-1.5787729-.301104-2.1972656-.903321-.6184927-.602216-.9277344-1.342769-.9277344-2.221679v-37.5c0-.846359.3092417-1.578773.9277344-2.197266s1.3509072-.927734 2.1972656-.927734zm-13.671875 27.636718c.0976567-.390627.1627603-.797524.1953125-1.220703s.0488281-.862628.0488281-1.318359c0-.618493-.0406897-1.180011-.1220703-1.68457-.0813806-.50456-.2197256-.968423-.4150391-1.391602-.1627612-.390627-.4068994-.740558-.7324218-1.049805-.3255225-.309246-.7324195-.545246-1.2207032-.708007.390627-.227866.7324205-.48828 1.0253907-.78125.2929702-.292971.5208325-.634764.6835937-1.025391.1953135-.358075.3336585-.764972.4150391-1.220703.0813806-.455732.1220703-.927732.1220703-1.416016 0-.423179-.0244138-.821938-.0732422-1.196289s-.1057939-.724282-.1708984-1.049805c-.0976568-.325522-.2278638-.618488-.390625-.878906-.1627613-.260418-.3580718-.504556-.5859375-.732422-.1953135-.195313-.4394517-.374348-.7324219-.537109s-.6347637-.292968-1.0253906-.390625c-.3580747-.097657-.7649717-.179036-1.2207032-.244141-.4557314-.065104-.9602836-.097656-1.5136718-.097656h-1.3916016c-.4394553 0-.8544902.016276-1.2451172.048828h-1.0253906c-.3255225 0-.6347642.016276-.9277344.048828-.2929702 0-.5696601.008138-.8300781.024414s-.4882803.024414-.6835937.024414c-.2278658 0-.4394522.008138-.6347657.024414-.1953135.016277-.390624.024415-.5859375.024415v20.654296h7.2265625c.5859405 0 1.1393203-.040689 1.6601563-.12207.5208359-.081381.9765605-.20345 1.3671875-.366211.3906269-.162761.7405583-.358072 1.0498047-.585937.3092463-.227866.5777983-.48828.805664-.78125.2278657-.292971.4150384-.61035.5615235-.952149.1464851-.341798.2685542-.708006.3662109-1.098633z" transform="translate(-23 -211)"/></svg>