<svg viewBox="0 0 48 48" xmlns="http://www.w3.org/2000/svg"><path d="m7.99999874 39.9999987c0 2.2091403 1.79086226 4 3.99999996 4h24c2.2091403 0 4-1.7908597 4-4v-31.99999996c0-2.20913774-1.7908597-4-4-4h-14.3399987c-1.0660892-.00084349-2.0884072.42392246-2.84 1.18000126l-9.64 9.64c-.7560788.7515928-1.18084475 1.7739108-1.18000126 2.84zm18.00000126-4.9999987c0 .5522847-.4477153 1-1 1h-10c-.5522847 0-1-.4477153-1-1v-2c0-.5522847.4477153-1 1-1h10c.5522847 0 1 .4477153 1 1zm8-8c0 .5522847-.4477153 1-1 1h-18c-.5522847 0-1-.4477153-1-1v-2c0-.5522847.4477153-1 1-1h18c.5522847 0 1 .4477153 1 1zm-22.36-9 10.36-10.36v8.36c0 1.1045695-.8954305 2-2 2z" fill-rule="evenodd"/></svg>