<svg viewBox="0 0 48 48" xmlns="http://www.w3.org/2000/svg"><path d="m36 4h-13.52c-1.5907628.00140042-3.1158611.6344601-4.24 1.76l-8.48 8.48c-1.1255399 1.1241389-1.75859958 2.6492372-1.76 4.24v21.52c0 2.209139 1.790861 4 4 4h24c2.209139 0 4-1.790861 4-4v-32c0-2.209139-1.790861-4-4-4zm0 36h-24v-20h10c1.1045695 0 2-.8954305 2-2v-10h12zm-20-15v2c0 .5522847.4477153 1 1 1h14c.5522847 0 1-.4477153 1-1v-2c0-.5522847-.4477153-1-1-1h-14c-.5522847 0-1 .4477153-1 1zm9 7h-8c-.5522847 0-1 .4477153-1 1v2c0 .5522847.4477153 1 1 1h8c.5522847 0 1-.4477153 1-1v-2c0-.5522847-.4477153-1-1-1z" fill-rule="evenodd"/></svg>