<svg viewBox="0 0 72 48" fill="none" xmlns="http://www.w3.org/2000/svg">
  <path fill-rule="evenodd" clip-rule="evenodd" d="M68 10H44C41.7909 10 40 11.7013 40 13.8V44.2C40 46.2987 41.7909 48 44 48H68C70.2091 48 72 46.2987 72 44.2V13.8C72 11.7013 70.2091 10 68 10ZM67 26C67.5523 26 68 26.407 68 26.9091V43.0909C68 43.593 67.5523 44 67 44H45C44.4477 44 44 43.593 44 43.0909V26.9091C44 26.407 44.4477 26 45 26L67 26ZM68 14.9091C68 14.407 67.5523 14 67 14L45 14C44.4477 14 44 14.407 44 14.9091V21.0909C44 21.593 44.4477 22 45 22H67C67.5523 22 68 21.593 68 21.0909V14.9091ZM64 16C65.1046 16 66 16.8954 66 18C66 19.1046 65.1046 20 64 20C62.8954 20 62 19.1046 62 18C62 16.8954 62.8954 16 64 16ZM60 18C60 16.8954 59.1046 16 58 16C56.8954 16 56 16.8954 56 18C56 19.1046 56.8954 20 58 20C59.1046 20 60 19.1046 60 18ZM53 16C54.1046 16 55 16.8954 55 18C55 19.1046 54.1046 20 53 20C51.8954 20 51 19.1046 51 18C51 16.8954 51.8954 16 53 16ZM50 18C50 16.8954 49.1046 16 48 16C46.8954 16 46 16.8954 46 18C46 19.1046 46.8954 20 48 20C49.1046 20 50 19.1046 50 18Z" fill="currentColor"/>
  <path d="M46 29C46 28.4477 46.4477 28 47 28L65 28C65.5523 28 66 28.4477 66 29L66 31C66 31.5523 65.5523 32 65 32L47 32C46.4477 32 46 31.5523 46 31L46 29Z" fill="currentColor"/>
  <path fill-rule="evenodd" clip-rule="evenodd" d="M28 0H4C1.79086 0 0 2.14903 0 4.8V43.2C0 45.851 1.79086 48 4 48H28C30.2091 48 32 45.851 32 43.2V4.8C32 2.14903 30.2091 0 28 0ZM28 44H4V30H28V44ZM28 26V4H4V26H28ZM24 34C24.5523 34 25 34.4477 25 35V39C25 39.5523 24.5523 40 24 40H22C21.4477 40 21 39.5523 21 39V35C21 34.4477 21.4477 34 22 34H24ZM25 11C25 10.4477 24.5523 10 24 10H22C21.4477 10 21 10.4477 21 11V21C21 21.5523 21.4477 22 22 22H24C24.5523 22 25 21.5523 25 21V11Z" fill="currentColor"/>
</svg>
