<?xml version="1.0" encoding="UTF-8"?>
<svg width="30px" height="30px" viewBox="0 0 48 48" version="1.1" xmlns="http://www.w3.org/2000/svg" xmlns:xlink="http://www.w3.org/1999/xlink">
    <title>mm_icons/gift_card</title>
    <g id="mm_icons/gift_card" stroke="none" stroke-width="1" fill="none" fill-rule="evenodd">
        <path d="M38.5,12 L34.79,12 C35.0630849,11.3824325 35.2060546,10.7152402 35.21,10.04 C35.2361763,8.02901403 34.0351598,6.20476667 32.1775696,5.43398235 C30.3199794,4.66319804 28.1802517,5.10124451 26.775,6.54 L21.3675,12 L20.5275,12 L16.8175,8.2375 C15.7157864,7.07232957 14.0051447,6.71623681 12.53,7.345 C11.0237327,7.96451434 10.0512607,9.44406114 10.08,11.0725 C10.0876984,11.385146 10.1287647,11.6960758 10.2025,12 C8.38654809,12.1549045 6.99340513,13.6774652 6.99997668,15.5 L6.99997668,36.5 C6.99997668,38.4329966 8.56700338,40 10.5,40 L38.5,40 C40.4329966,40 42,38.4329966 42,36.5 L42,15.5 C42,13.5670034 40.4329966,12 38.5,12 Z M28.6825,8.5 C29.3186524,7.84618922 30.289725,7.64750038 31.1315521,7.9989053 C31.9733793,8.35031021 32.5149907,9.18044054 32.4975,10.0925 C32.4646769,10.8936058 32.012583,11.6182858 31.3075,12 L25.1825,12 L28.6825,8.5 Z M13.475,9.9 C13.9379732,9.7536014 14.4438066,9.89031314 14.77,10.25 L16.52,12 L13.02,12 C12.7031564,11.6969854 12.5665976,11.2510587 12.6594334,10.8225856 C12.7522693,10.3941124 13.061152,10.044698 13.475,9.9 L13.475,9.9 Z M38.5,36.5 L10.5,36.5 L10.5,26 L38.5,26 L38.5,36.5 Z M34.7975,29.5 C35.0736424,29.5 35.2975,29.7238576 35.2975,30 L35.2975,32.5 C35.2975,32.7761424 35.0736424,33 34.7975,33 L28.7975,33 C28.5213576,33 28.2975,32.7761424 28.2975,32.5 L28.2975,30 C28.2975,29.7238576 28.5213576,29.5 28.7975,29.5 L34.7975,29.5 Z M38.5,15.5 L38.5,20.75 L10.5,20.75 L10.5,15.5 L38.5,15.5 Z" id="gift_card" fill="#000000"></path>
    </g>
</svg>