<svg viewBox="0 0 48 48" fill="none" xmlns="http://www.w3.org/2000/svg">
  <path fill-rule="evenodd" clip-rule="evenodd" d="M6 0H42C45.3137 0 48 2.14903 48 4.8V43.2C48 45.851 45.3137 48 42 48H6C2.68629 48 0 45.851 0 43.2V4.8C0 2.14903 2.68629 0 6 0ZM4.8 43.2H43.2V4.8H4.8V43.2Z" fill="currentColor"/>
  <path fill-rule="evenodd" clip-rule="evenodd" d="M9.6 22.8C9.6 30.7529 16.0471 37.2 24 37.2C31.9529 37.2 38.4 30.7529 38.4 22.8C38.4 14.8471 31.9529 8.4 24 8.4C16.0471 8.4 9.6 14.8471 9.6 22.8ZM15.6 22.8C15.6 18.1608 19.3608 14.4 24 14.4C28.6392 14.4 32.4 18.1608 32.4 22.8C32.4 27.4392 28.6392 31.2 24 31.2C19.3608 31.2 15.6 27.4392 15.6 22.8Z" fill="currentColor"/>
  <path d="M8.15906 34.3438C7.77317 34.6023 7.27947 35.041 6.95611 35.5815C5.77046 37.5635 6.33321 40.1021 8.20667 41.2228C10.0801 42.3436 12.583 41.6388 13.7687 39.6568C13.7687 39.6568 22.9305 24.3411 23.0383 24.1609C23.4695 23.4402 23.1116 22.4921 22.6007 22.1865C22.0897 21.8808 21.5335 22.0374 21.0398 22.4761L8.15906 34.3438Z" fill="currentColor"/>
  <path d="M40.8003 10.8C40.8003 11.4627 40.263 12 39.6003 12H37.2003C36.5376 12 36.0003 11.4627 36.0003 10.8V8.4C36.0003 7.73726 36.5376 7.2 37.2003 7.2H39.6003C40.263 7.2 40.8003 7.73726 40.8003 8.4V10.8Z" fill="currentColor"/>
  <path d="M40.8003 39.6C40.8003 40.2627 40.263 40.8 39.6003 40.8H37.2003C36.5376 40.8 36.0003 40.2627 36.0003 39.6V37.2C36.0003 36.5373 36.5376 36 37.2003 36H39.6003C40.263 36 40.8003 36.5373 40.8003 37.2V39.6Z" fill="currentColor"/>
  <path d="M12.0003 10.8C12.0003 11.4627 11.463 12 10.8003 12H8.40029C7.73755 12 7.20029 11.4627 7.20029 10.8V8.4C7.20029 7.73726 7.73755 7.2 8.40029 7.2H10.8003C11.463 7.2 12.0003 7.73726 12.0003 8.4V10.8Z" fill="currentColor"/>
</svg>
