<svg id="Layer_1" data-name="Layer 1" xmlns="http://www.w3.org/2000/svg" viewBox="0 0 24 24"><title>mic_off</title><path d="M20.85,20.32l-.53.53a.48.48,0,0,1-.7,0L15.79,17a7.82,7.82,0,0,1-2.79.9V20h1.5a.5.5,0,0,1,.5.5v1a.5.5,0,0,1-.5.5h-5a.5.5,0,0,1-.5-.5v-1a.5.5,0,0,1,.5-.5H11V17.93h0a8.06,8.06,0,0,1-6-4.07.56.56,0,0,1,0-.4.53.53,0,0,1,.27-.3l.9-.42a.49.49,0,0,1,.65.2,6,6,0,0,0,7.52,2.59l-1.6-1.6A3.84,3.84,0,0,1,12,14a4,4,0,0,1-4-4V9.24L3.15,4.38a.48.48,0,0,1,0-.7l.53-.53a.48.48,0,0,1,.7,0L20.85,19.62A.48.48,0,0,1,20.85,20.32ZM16,10V6a4,4,0,0,0-4-4A4,4,0,0,0,8.28,4.57l7.27,7.27A3.94,3.94,0,0,0,16,10Zm3,3.86a.56.56,0,0,0,0-.4.53.53,0,0,0-.27-.3l-.9-.42a.49.49,0,0,0-.65.2c-.07.12-.14.24-.22.36l1.43,1.43A7.24,7.24,0,0,0,19,13.86Z"/></svg>