<svg viewBox="0 0 60 48" fill="none" xmlns="http://www.w3.org/2000/svg">
  <path d="M55 0H5C3.67392 0 2.40215 0.526784 1.46447 1.46447C0.526784 2.40215 0 3.67392 0 5L0 43C0 44.3261 0.526784 45.5979 1.46447 46.5355C2.40215 47.4732 3.67392 48 5 48H55C56.3261 48 57.5978 47.4732 58.5355 46.5355C59.4732 45.5979 60 44.3261 60 43V5C60 3.67392 59.4732 2.40215 58.5355 1.46447C57.5978 0.526784 56.3261 0 55 0V0ZM53.75 17.5L49.5 16.425L47 5.875H53.75V17.5ZM53.75 34.8L50.85 22.3L53.75 23.025V34.8ZM42.35 7.075L44.225 15.225L32.8 12.35V6.4C32.8097 6.26684 32.8097 6.13316 32.8 6H42.4C42.317 6.35216 42.3 6.71666 42.35 7.075ZM34.85 31.425L31.625 29.675C31.3034 29.4977 30.9422 29.4048 30.575 29.4048C30.2078 29.4048 29.8466 29.4977 29.525 29.675L26.175 31.475L30.55 22.35L34.85 31.425ZM28.075 6C28.0653 6.13316 28.0653 6.26684 28.075 6.4V11.175L6.875 6.175C6.69248 6.1506 6.50752 6.1506 6.325 6.175V6.175L28.075 6ZM6.25 11.425L11.25 12.625L6.25 20.8V11.425ZM6.25 30.225L16.25 13.825L27.5 16.525L18.325 35.825C18.0822 36.3229 17.9884 36.8804 18.055 37.4303C18.1215 37.9803 18.3455 38.4993 18.7 38.925C19.027 39.3243 19.4826 39.5975 19.9888 39.6978C20.4951 39.7981 21.0204 39.7194 21.475 39.475L30.375 34.7L39.15 39.45C39.6018 39.6972 40.1254 39.78 40.6315 39.6842C41.1375 39.5885 41.5947 39.3202 41.925 38.925C42.2836 38.5019 42.5121 37.9841 42.5831 37.4341C42.6541 36.8841 42.5644 36.3252 42.325 35.825L33.925 18.075L45.575 21L50.15 40.75C50.2672 41.2146 50.5092 41.6382 50.85 41.975H6.25V30.225Z" fill="currentColor"/>
</svg>
