<svg width="50" height="24" viewBox="0 0 100 48" fill="none" xmlns="http://www.w3.org/2000/svg">
<path fill-rule="evenodd" clip-rule="evenodd" d="M52.8 43.2H56.4C57.0627 43.2 57.6 43.7372 57.6 44.4V45.6C57.6 46.9255 56.5255 48 55.2 48H2.4C1.07452 48 0 46.9255 0 45.6V44.4C0 43.7372 0.537258 43.2 1.2 43.2H4.8V12C4.8 10.6745 5.87452 9.59998 7.2 9.59998H50.4C51.7255 9.59998 52.8 10.6745 52.8 12V43.2ZM48 14.4H9.6V40.8H48V14.4Z" fill="black"/>
<path fill-rule="evenodd" clip-rule="evenodd" d="M71.2 0H95.2C97.4092 0 99.2 2.14903 99.2 4.8V43.2C99.2 45.851 97.4092 48 95.2 48H71.2C68.9909 48 67.2 45.851 67.2 43.2V4.8C67.2 2.14903 68.9909 0 71.2 0ZM71.2 42.2H95.2V4.99995H71.2V42.2ZM74.2 11V13L92.2 13V11C92.2 9.89548 91.229 9.00005 90.0313 9.00005L76.3686 9.00005C75.1709 9.00005 74.2 9.89548 74.2 11ZM74.2 27V25C74.2 23.8954 75.1709 23 76.3686 23L90.0313 23C91.229 23 92.2 23.8954 92.2 25V27L74.2 27ZM74.2 18V20L92.2 19.9999V18C92.2 16.8954 91.229 16 90.0313 16L76.3686 16C75.1709 16 74.2 16.8954 74.2 18ZM75.6 31.2H78C78.6627 31.2 79.2 31.5582 79.2 32V35.2C79.2 35.6418 78.6627 36 78 36H75.6C74.9373 36 74.4 35.6418 74.4 35.2V32C74.4 31.5582 74.9373 31.2 75.6 31.2Z" fill="black"/>
</svg>
