<svg width="16px" height="16px" viewBox="0 0 16 16" version="1.1" xmlns="http://www.w3.org/2000/svg" xmlns:xlink="http://www.w3.org/1999/xlink">
    <g id="ONLINE-SYSTEM" stroke="none" stroke-width="1" fill="none" fill-rule="evenodd">
        <g id="Icons" transform="translate(-127.000000, -355.000000)">
            <g id="Card-icon-variations" transform="translate(127.000000, 193.000000)">
                <g id="Icon-online-course" transform="translate(0.000000, 162.000000)">
                     <path fill="#999999" d="M5.01960784,5.5067062e-14 C7.7918607,5.5067062e-14 10.0392157,2.24735498 10.0392157,5.01960784 C10.0392157,6.64441101 9.26723309,8.08890799 8.07004639,9.00632026 L8.77886314,14.3488484 C8.84796745,14.8697007 8.28458286,15.2397319 7.83404188,14.9694073 L7.83404188,14.9694073 L5.01960784,13.2807469 L2.20517381,14.9694073 C1.75459704,15.2397534 1.19118001,14.8696432 1.26036436,14.3487594 L1.26036436,14.3487594 L1.9691693,9.00632026 C0.771982601,8.08890799 -3.02868841e-13,6.64441101 -3.02868841e-13,5.01960784 C-3.02868841e-13,2.24735498 2.24735498,5.5067062e-14 5.01960784,5.5067062e-14 Z M5.01960784,10.0392157 C4.35726211,10.0392157 3.72487892,9.9109308 3.14594941,9.67785218 L2.67572937,13.2236194 L4.69678698,12.0109848 C4.89548965,11.8917632 5.14372603,11.8917632 5.34242871,12.0109848 L5.34242871,12.0109848 L7.36369049,13.2237419 L6.89334619,9.67782001 C6.31439496,9.910919 5.68198405,10.0392157 5.01960784,10.0392157 Z M5.01960784,1.25490196 C2.9404182,1.25490196 1.25490196,2.9404182 1.25490196,5.01960784 C1.25490196,7.09879749 2.9404182,8.78431373 5.01960784,8.78431373 C5.76023422,8.78431373 6.45090936,8.57044707 7.0332451,8.20110192 C7.05000149,8.18602299 7.06908815,8.17379944 7.08888417,8.16260478 C8.11076126,7.49100527 8.78431373,6.33396486 8.78431373,5.01960784 C8.78431373,2.9404182 7.09879749,1.25490196 5.01960784,1.25490196 Z"></path>
                </g>
            </g>
        </g>
    </g>
</svg>
