<svg viewBox="0 0 610 546" xmlns="http://www.w3.org/2000/svg"><g fill="none" fill-rule="evenodd" transform="translate(159 41)"><path d="m8 78h275.5l9 322h-292.5z" fill="#009fe3"/><g transform="translate(71)"><g transform="translate(0 106)"><path d="m16.966971 34.0000654c-3.0908138-.0059726-5.9931392-.8413833-8.49480363-2.29179-5.07438197-2.958869-8.48394823-8.4485698-8.47216737-14.7471135.01190354-6.2847677 3.44219365-11.76167658 8.52841782-14.70086574 2.50659868-1.44155076 5.41287148-2.26613748 8.50368518-2.26029616 9.3879027.01875852 16.9856598 7.64864562 16.9679586 17.0251215-.0178254 9.3912358-7.6451879 16.9935711-17.0330906 16.9749439z" fill="#004772"/><path d="m132.966971 34.0580654c-3.090814-.0059726-5.993139-.8413833-8.494804-2.29179-5.074382-2.958869-8.483948-8.4485698-8.472167-14.7471135.011904-6.2847677 3.442194-11.76167658 8.528418-14.70086574 2.506598-1.44155076 5.412871-2.26613748 8.503685-2.26029616 9.387903.01875852 16.98566 7.64864562 16.967959 17.0251215-.017826 9.3912358-7.645188 16.9935711-17.033091 16.9749439z" fill="#004772"/><g fill="#0075bf"><path d="m116 0h34v34h-34z"/><path d="m0 0h34v34h-34z"/></g></g><path d="m74.999.019c.0000167.16731667.0000331.33128917.0000492.49201722l.0009508 15.04698278c-29.889 0-50.288 24.398-50.288 54.528v59.972h-15.425v-59.972c0-38.699 27.318-70.067 65.712-70.067zm.002 0c38.394 0 65.712 31.368 65.712 70.067v59.972h-15.425v-59.972c0-30.13-20.399-54.528-50.288-54.528 0-7.5 0-5.5.001-15.539z" fill="#ef7c00"/></g><path d="m205.245779 265.444329c.01269.126911.190357 2.05587.25381 3.426436.050762.951798 0 2.436583 0 2.525418.025381 0 .24112.190351.25381.203044 12.017911 9.847838 24.771872 23.288353 26.96733 33.159029.609144 2.733533.469549 5.200574-.609145 7.309738-1.281741 2.468303-3.692937 4.236084-7.017851 5.371887-17.221019 5.883321-58.287503-5.403617-91.803135-21.962188-23.946988-11.835175-44.9624748-25.934326-59.1834537-39.716215-13.2171599-12.817419-16.7958919-22.817532-13.3821372-28.845529 1.2982334-2.284287 3.534299-3.972126 6.5279909-5.126967 10.9316095-4.264005 31.8849066-1.281742 52.509518 4.873155-9.759 7.284355-16.561113 17.119501-19.709627 26.954647 0 .012682-.011419.050758-.011419.050758 0 .012692-.007619.050758-.007619.050758-.9657429 9.01026 12.076289 20.787057 25.249037 27.360744-.012691-.050768.710668.266494.710668.215736-.012691-.050769-.126906-.913722-.139596-.951788-3.083794-22.386061 13.870725-55.888999 31.688199-63.236804 1.142146-.469548 2.132006-.748744 2.271601-.799502-.114214-.012693-2.182767-.215736-2.296982-.228428-.621835-.050758-1.24367-.101527-1.916267-.126901-.723358-.038076-1.484789-.063461-2.296982-.076153-10.964598-.152285-20.596695 2.766538-28.617096 7.5001-34.4217314-11.814863-59.6288877-13.198132-70.1632825-9.682861-4.1853257 1.408643-7.0178501 3.527964-8.4150741 6.332557-1.4682938 2.944207-1.4784392 6.64983-.0241109 10.989987 4.7957397 14.340271 25.743964 33.934421 52.2798212 51.333107 3.8477573 20.256585 22.0078743 41.034759 47.9980353 43.79875.050761.003799 1.129454.119292 1.192907.124364-.025381-.020301.444168.010156.418787-.005072-.076143-.068534-1.370575-1.046968-1.446718-1.104083-8.045782-6.191691-15.266681-16.39994-17.74133-25.256641.520311.26523 1.040621.522842 1.560932.788073.406096.204316.799502.401024 1.205598.597721 41.95482 20.738835 85.978193 31.311296 105.458122 24.79345 4.365535-1.458138 7.576234-3.515271 9.048333-6.463277 1.408646-2.819832 1.167526-6.554649-.24112-10.752667-3.667557-10.945564-19.391097-27.637383-39.353266-42.523354-.063452-.050758-1.142145-.862953-1.218288-.901029" fill="#ef7c00"/></g></svg>