<svg viewBox="0 0 610 546" xmlns="http://www.w3.org/2000/svg"><g fill="none" fill-rule="evenodd" transform="translate(160 41)"><path d="m265.437899 399.914-240.8760001.086c-14.059 0-25.24899998-11.954-24.52899998-26l6.34710108-272.781c.717-13.025 11.484-23.219 24.524-23.219h228.596c13.04 0 23.807 10.194 24.524 23.219l5.942899 272.781c.72 14.046-10.407899 26-24.466899 26" fill="#e3141f"/><g transform="translate(70)"><g fill="#a90e16" transform="translate(0 106)"><path d="m16.9669404 34.0580654c-3.0908138-.0059726-5.9931392-.8413833-8.49480362-2.29179-5.07438197-2.958869-8.48394823-8.4485698-8.47216737-14.7471135.01190354-6.2847677 3.44219365-11.76167658 8.52841782-14.70086574 2.50659867-1.44155076 5.41287147-2.26613748 8.50368527-2.26029616 9.3879027.01875852 16.9856597 7.64864562 16.9679585 17.0251215-.0178254 9.3912358-7.6451879 16.9935711-17.0330906 16.9749439z"/><path d="m132.966971 34.0580654c-3.090814-.0059726-5.993139-.8413833-8.494804-2.29179-5.074382-2.958869-8.483948-8.4485698-8.472167-14.7471135.011904-6.2847677 3.442194-11.76167658 8.528418-14.70086574 2.506598-1.44155076 5.412871-2.26613748 8.503685-2.26029616 9.387903.01875852 16.98566 7.64864562 16.967959 17.0251215-.017826 9.3912358-7.645188 16.9935711-17.033091 16.9749439z"/></g><path d="m74.999.019c.0000167.16731667.0000331.33128917.0000492.49201722l.0009508 15.04698278c-29.889 0-50.288 24.398-50.288 54.528v52.235c0 4.266-3.46 7.737-7.712 7.737-4.253 0-7.713-3.471-7.713-7.737v-52.235c0-38.699 27.318-70.067 65.712-70.067zm.002 0c38.394 0 65.712 31.368 65.712 70.067v52.235c0 4.266-3.46 7.737-7.713 7.737-4.252 0-7.712-3.471-7.712-7.737v-52.235c0-30.13-20.399-54.528-50.288-54.528 0-7.5 0-5.5.001-15.539z" fill="#ffba08"/></g><path d="m193.843373 213.806258c-4.301204-4.380265-9.192771-8.170879-14.506024-11.287606-15.939759 2.190133-27.66265 7.581228-27.66265 7.581228-26.650603 13.056558-35.506024 42.033694-20.493976 58.628159.506024 1.01083 1.096385 1.937424 1.771084 2.779783-18.722891-12.298436-17.710843-42.370638 4.722892-61.913357 0 0 9.698795-8.086643 24.373494-14.235861-5.73494-1.600481-11.891566-2.358604-18.048193-2.358604l-1.939759.084236c-11.975904 9.518652-18.891566 19.374248-18.891566 19.374248-16.783133 24.849579-9.698795 54.500601 11.975903 61.155234l.084338.084236.337349.084236c.674699.505415 1.26506.842359 2.024096 1.179302-22.349397-1.263538-36.518072-27.966305-26.903614-55.932611 0 0 4.048193-10.950662 12.903614-22.99639-5.481927 1.684717-10.79518 4.043321-15.602409 6.907341-5.397591 14.067388-6.493976 25.860409-6.493976 25.860409-2.0240965 29.398315 18.216867 51.299639 39.975904 47.172082l1.26506.084235c.843373 0 1.518072-.084235 2.277108-.168471-19.903614 9.771359-45.3734938-6.149218-51.0240962-35.21059 0 0-2.0240964-11.456077-.4216867-26.281588-4.5542169 4.717208-8.433735 10.024067-11.4698796 15.836341 2.4457832 14.320097 7.0843374 24.512636 7.0843374 24.512636 13.1566261 26.871239 42.4216871 35.631769 59.0361441 20.216606h.084338l.337349-.252707c.759036-.336944 1.433735-.842359 2.108434-1.347774-12.144578 18.868833-42.506024 17.942238-62.0722892-4.548737 0 0-7.3373494-9.771359-12.7349398-22.154031-1.2650602 5.138388-1.939759 10.697954-1.939759 16.341757l.0843373 2.44284c8.686747 9.181709 17.8795181 16.341757 17.8795181 16.341757 24.1204816 16.257521 52.7951806 10.108303 60.5542166-10.024068.759036-.842358 1.433735-1.853188 1.855422-2.948255-2.277108 21.564381-28.337349 34.873647-55.9156627 25.43923 0 0-10.2048193-3.790614-21.8433735-11.961492 1.686747 6.149218 4.3012049 11.961492 7.5903615 17.352587 13.2409638 4.801444 23.9518077 5.812275 23.9518077 5.812275 29.433734 2.02166 51.445783-18.279182 47.228915-40.012034.084338-.673887.168675-1.43201.168675-2.190132v-.842359c9.277108 19.795427-6.746988 44.813478-35.506024 50.373045 0 0-10.710844 1.853188-24.795181.589651 3.7951808 3.706377 8.096386 6.991576 12.73494 9.771359 14.674699-2.274368 25.216867-7.244284 25.216867-7.244284 26.144579-12.719615 35.168675-40.770156 21.421687-57.617328-.506024-1.179302-1.096386-2.274368-1.939759-3.285199 17.963855 12.551143 16.698795 42.11793-5.481928 61.407942 0 0-9.192771 7.665464-23.192771 13.730446 5.987952 1.768953 12.228916 2.779783 18.722892 2.864019 11.975903-9.602888 18.975903-19.458484 18.975903-19.458484 16.698796-24.765343 9.783133-54.416366-11.891566-61.155234-.843373-.589651-1.686747-1.095067-2.698795-1.43201 22.433735 1.095066 36.686747 27.797834 26.987952 55.932611 0 0-4.216868 11.540313-13.662651 24.00722 5.987952-1.432009 11.807229-3.622142 17.036145-6.654632 5.734939-14.404333 6.746988-26.534297 6.746988-26.534297 2.024096-28.977135-17.626506-50.709987-39.048193-47.340553-.843374-.252708-1.771084-.252708-2.698795-.252708h-.590362c19.73494-8.592057 44.277109 7.32852 49.843374 35.716005 0 0 2.951807 12.129964 1.180723 26.955476 4.554217-4.548737 8.518072-9.602889 11.722891-15.246691-2.783132-13.477738-8.096385-25.691938-8.096385-25.691938-12.650603-26.281588-40.987952-35.210589-57.771085-21.058965-.927711.336944-1.855421.758123-2.698795 1.263538 12.73494-17.521059 42.084338-16.173285 61.144578 5.812275 0 0 8.012049 9.602888 14.168675 24.175691 1.518072-5.306859 2.361446-10.950661 2.614458-16.594464-9.86747-12.888087-20.578313-20.469314-20.578313-20.469314-24.036145-16.173285-52.542169-10.108303-60.46988 9.77136-.843373 1.01083-1.518072 2.105896-2.024096 3.285198 2.192771-21.56438 28.337349-34.957882 55.915662-25.43923 0 0 12.481928 4.548737 25.385543 14.65704-1.518073-6.570397-3.879518-12.719615-7.084338-18.447653-15.012048-6.233454-28-7.32852-28-7.32852-29.686747-2.105897-51.783132 18.531889-47.144578 40.433213l-.084337 1.263538c0 .673887.084337 1.263538.168674 1.937425-9.951807-19.963899 6.07229-45.487365 35.168675-51.131168" fill="#fff" fill-rule="nonzero"/></g></svg>