<svg xmlns="http://www.w3.org/2000/svg" viewBox="0 0 47 12"><g fill="none" fill-rule="nonzero"><path fill="#253B80" d="M5.93745328 0c1.19987904 0 2.10358871.3166129 2.61310484.91524193.46391129.5451613.6175 1.32358872.45709678 2.31431452-.35592742 2.26451613-1.71883065 3.40725807-4.08032258 3.40725807H3.79245328c-.24479838 0-.45395161.1782258-.49169354.42092742l-.39104839 2.47943548c-.03826613.24270161-.24689516.42092742-.49221774.42092742H.70600167c-.18399194 0-.3244758-.16354839-.29564516-.34491936L1.86027586.42040323C1.89854199.1782258 2.10717103 0 2.35249361 0h3.58495967zm.41358871 3.35745968c.07181452-.45185484.01415323-.77895162-.17403225-.99911291-.31556452-.36903225-.92625-.36903225-1.57362904-.36903225h-.24794355c-.14677419 0-.27258064.10693548-.29512096.25213709l-.37951613 2.40237904h.54096774c.9503629 0 1.93322581 0 2.12927419-1.28637097zm10.17529421-.19600807c.1834678 0 .3234274.16407258.2940726.34491936l-.9278226 5.87568548c-.0387903.24270161-.2463709.42092742-.4922177.42092742h-1.546371c-.1829435 0-.3234274-.16354839-.2945968-.34596774L13.635933 8.98s-.847621.9828629-2.3761694.9828629c-.89060479 0-1.63915318-.25685484-2.16229834-.87330645-.57032258-.67044355-.80358871-1.63181451-.63951613-2.63721774C8.77351365 4.43681452 10.39379591 3 12.2908524 3c.8271774 0 1.6559274.18032258 2.0275806.71971774l.1200403.17403226.0760081-.48016129c.0225403-.14520161.148871-.2521371.295121-.2521371h1.7167338zm-2.3929435 3.34120968c.0749597-.47491935-.0288307-.90580645-.2904032-1.21455645-.2610484-.30560484-.6573388-.46758065-1.1448388-.46758065-.9776209 0-1.7691532.67987904-1.9237903 1.65225807-.0807258.47701613.0157258.90528226.2694355 1.20616935.2558065.30298387.6541936.46286291 1.1527016.46286291.9928226 0 1.77125-.6583871 1.9368952-1.63915323zM25.4050634 3c.2416532 0 .3826612.27100806.2453225.46915323l-5.7378225 8.28225807c-.0927823.1341935-.2458468.213871-.4093952.213871H17.780144c-.2427016 0-.3842339-.2731049-.24375-.4717742l1.7864516-2.5218952-1.9002016-5.57637096C17.3571198 3.20129032 17.5002246 3 17.7062327 3h1.6952419c.2201613 0 .4146371.14467742.4780646.35540323l1.0085484 3.36794354 2.3793145-3.50475806C23.3607085 3.08177419 23.5153456 3 23.6799424 3h1.725121z"/><path fill="#179BD7" d="M31.937454 0c1.199879 0 2.1030645.3166129 2.6120565.91524193.4639112.5451613.6185483 1.32358872.4576209 2.31431452-.3564516 2.26451613-1.7188306 3.40725807-4.0808468 3.40725807h-1.1343548c-.2447984 0-.4539516.1782258-.4916935.42092742l-.411492 2.60576612c-.0267338.16983871-.1729838.29459678-.3438709.29459678H26.704954c-.1829435 0-.3234274-.16354839-.2945968-.34491936L27.8602766.42040323C27.8985427.1782258 28.1071717 0 28.3519701 0h3.5854839zm.4135887 3.35745968c.0718145-.45185484.0146774-.77895162-.1735081-.99911291-.3155645-.36903225-.9267741-.36903225-1.573629-.36903225h-.2479435c-.1472984 0-.2720565.10693548-.2945968.25213709l-.3800403 2.40237904h.5404435c.9508871 0 1.93375 0 2.1292742-1.28637097zm10.1730503-.19600807c.1839919 0 .3244758.16407258.2961693.34491936l-.9283467 5.87568548c-.0382662.24270161-.2468952.42092742-.4916936.42092742h-1.5458468c-.1839919 0-.3244758-.16354839-.2956451-.34596774L39.6352623 8.98s-.8476209.9828629-2.3761693.9828629c-.8906049 0-1.6381049-.25685484-2.1622984-.87330645-.5703226-.67044355-.8025403-1.63181451-.6389919-2.63721774C34.7733672 4.43681452 36.3931252 3 38.2901817 3c.8271774 0 1.6554032.18032258 2.0270564.71971774l.1205646.17403226.076008-.48016129c.0220162-.14520161.1472984-.2521371.2945968-.2521371h1.7156855zm-2.3929436 3.34120968c.0760081-.47491935-.0277822-.90580645-.2904032-1.21455645-.2610484-.30560484-.6573387-.46758065-1.1448387-.46758065-.977621 0-1.7681048.67987904-1.9237903 1.65225807-.0796774.47701613.0157258.90528226.2694355 1.20616935.2558064.30298387.6552419.46286291 1.1527016.46286291.9928226 0 1.7722984-.6583871 1.9368951-1.63915323zm3.7506191-6.25C43.9043088.10745968 44.0301153.00052419 44.1763653 0h1.6564516c.1829436 0 .3234274.16407258.2945968.34544355L44.6764459 9.5377016c-.0377419.24270162-.2463709.42092742-.4922177.42092742H42.704954c-.1829435 0-.3234274-.16354838-.2945968-.34491935L43.8817685.25266129z"/></g></svg>
