<svg viewBox="0 0 47 18" xmlns="http://www.w3.org/2000/svg" xmlns:xlink="http://www.w3.org/1999/xlink"><defs><path id="a" d="m5.72753906 0h.04492188c.40429889 0 .79361792.04117797 1.16796875.12353516.37435083.08235718.73372223.1984042 1.078125.34814453.67383149.29948066 1.27278384.70751695 1.796875 1.22412109.52409111.51660415.93587091 1.11181304 1.23535151 1.78564453.1347663.34440277.2433265.70377417.3256836 1.078125.0823572.37435083.1235352.75618295.1235352 1.14550781v.04492188c-.014974.46419503-.0673824.92089619-.1572266 1.37011719-.0898442.44922099-.2171215.87597454-.3818359 1.28027343-.2096365.55403923-.4267567 1.07063563-.6513672 1.54980469-.2246105.47916909-.46419142.94335709-.71874999 1.39257809-.49414309.9433641-1.08560853 1.9615831-1.77441406 3.0546875l-2.06640625 3.3691407-2.06640625-3.3017578c-.68880553-1.0931045-1.29524478-2.1562449-1.81933594-3.1894532-.2246105-.3893248-.44547417-.8160784-.66259765-1.28027341-.21712349-.46419503-.42301335-.93587-.61767579-1.41503907-.1796884-.47916906-.31819612-.95084403-.41552734-1.41503906-.09733121-.46419503-.153483-.93587-.16845703-1.41503906v-.02246094c0-.40429889.04117797-.79361792.12353516-1.16796875.08235718-.37435083.1984042-.73372223.34814453-1.078125.28450663-.67383149.68879946-1.27278384 1.21289062-1.796875s1.12304351-.928384 1.796875-1.21289062c.32942873-.14974034.68505669-.26578735 1.06689453-.34814453.38183785-.08235719.77490033-.12353516 1.17919922-.12353516zm2.89746094 5.75c0-.79362376-.28075891-1.4711886-.84228516-2.03271484-.56152624-.56152625-1.23909108-.84228516-2.03271484-.84228516s-1.4711886.28075891-2.03271484.84228516c-.56152625.56152624-.84228516 1.23909108-.84228516 2.03271484s.28075891 1.4711886.84228516 2.03271484c.56152624.56152625 1.23909108.84228516 2.03271484.84228516s1.4711886-.28075891 2.03271484-.84228516c.56152625-.56152624.84228516-1.23909108.84228516-2.03271484z"/></defs><g fill="none" transform="translate(.75 .313)"><path d="m20.4909969 10.2035c0 .5440027-.0659993.9999982-.198 1.368s-.3159988.6639989-.552.888-.5119984.3819995-.828.474-.6579982.138-1.026.138h-.528v2.616h-1.296v-7.92c.2800014-.0160001.5779984-.0319999.894-.048s.6979978-.024 1.146-.024c.4560023 0 .8359985.0419996 1.14.126s.5479991.221999.732.414.3159996.4479984.396.768.12.7199976.12 1.2zm-3.132 1.716h.48c.200001 0 .3839992-.0179998.552-.054s.3119994-.1079995.432-.216.2119997-.265999.276-.474.096-.4839983.096-.828c0-.3280016-.0259997-.6219987-.078-.882s-.0979998-.4459994-.138-.558c-.0880004-.0160001-.1959994-.0319999-.324-.048s-.3039989-.024-.528-.024c-.2480012 0-.5039987.0119999-.768.036zm5.616 3.768h-1.296v-6.204l1.296-.108zm.036-7.164-1.368.108v-1.104l1.368-.108zm4.968 6.924c-.1360007.0640003-.3599984.1399996-.672.228s-.6759979.132-1.092.132c-.3520018 0-.6499988-.0539995-.894-.162s-.4459992-.2879987-.606-.54-.2759996-.581998-.348-.99-.108-.915997-.108-1.524.0559994-1.1199979.168-1.536.2759989-.7519987.492-1.008.4839984-.4399994.804-.552.683998-.168 1.092-.168c.2800014 0 .521999.0219998.726.066s.3619994.0859998.474.126l-.156 1.164c-.0880004-.0320002-.2259991-.0659998-.414-.102s-.381999-.054-.582-.054c-.2240011 0-.4179992.0279997-.582.084s-.2979995.1579993-.402.306-.1819997.3499987-.234.606-.078.587998-.078.996c0 .5040025.0259997.9199984.078 1.248s.1099997.6039989.174.828c.0560003.008.1019998.012.138.012h.138c.3600018 0 .6819986-.0279997.966-.084s.5459988-.1239996.786-.204zm4.32.312-1.488-2.76h-.348v2.688h-1.296v-8.232l1.296-.132v4.596h.348l1.476-2.472 1.38-.036-1.812 2.976 1.908 3.264zm6.852-.072h-1.212v-.576c-.0880004.0640003-.1979993.1379996-.33.222s-.2799992.1619996-.444.234-.343999.1319998-.54.18-.4059989.072-.63.072c-.5120026 0-.8819989-.1239988-1.11-.372s-.342-.671997-.342-1.272v-4.692l1.296-.108v4.248c0 .4160021.0279997.719999.084.912.0320002.0160001.0919996.0319999.18.048s.1919994.024.312.024c.2800014 0 .5439988-.0439996.792-.132s.4639991-.1799995.648-.276v-4.716l1.296-.108zm6.18-3.408c0 .6800034-.0659993 1.2439978-.198 1.692s-.3219988.8039987-.57 1.068-.5539982.4499995-.918.558-.7739977.162-1.23.162c-.0880004 0-.1779995-.002-.27-.006s-.1699997-.01-.234-.018v1.704l-1.296.132v-8.088l1.212-.108v.636c.192001-.1600008.4359985-.3179992.732-.474s.6519979-.234 1.068-.234c.3120016 0 .5759989.0499995.792.15s.3919993.2659988.528.498.2339997.5379981.294.918.09.8499972.09 1.41zm-2.076-1.776c-.2800014 0-.5319989.0339997-.756.102s-.4199992.1459996-.588.234v3.756c.0640003.0160001.1439995.028.24.036s.2159993.012.36.012c.2240011 0 .4299991-.0239998.618-.072s.3479993-.1499992.48-.306.2339996-.3739986.306-.654.108-.6559976.108-1.128c0-.4320022-.0199998-.8119984-.06-1.14s-.0839998-.591999-.132-.792c-.0480002-.0160001-.1159996-.028-.204-.036s-.2119992-.012-.372-.012zm-24.8404969-7.7865c0 .29466814-.0357496.54166567-.10725.741s-.171166.35966606-.299.481-.2773325.20691642-.4485.25675-.3564157.07475-.55575.07475h-.286v1.417h-.702v-4.29c.1516674-.00866671.3130825-.01733329.48425-.026s.3780821-.013.62075-.013c.2470012 0 .4528325.02274977.6175.06825s.2968328.12024948.3965.22425.1711664.2426658.2145.416c.0433335.1733342.065.3899987.065.65zm-1.6965.9295h.26c.1083339 0 .2079995-.0097499.299-.02925s.1689997-.05849971.234-.117.1148332-.14408277.1495-.25675.052-.26216574.052-.4485c0-.17766756-.0140832-.33691596-.04225-.47775s-.0530832-.24158303-.07475-.30225c-.0476669-.00866671-.1061663-.01733329-.1755-.026s-.1646661-.013-.286-.013c-.134334 0-.2729993.00649993-.416.0195zm3.7765 2.041v-.3055c-.073667.07800039-.177666.15816625-.312.2405s-.3033323.1235-.507.1235c-.2600013 0-.4647493-.08124919-.61425-.24375s-.22425-.43224812-.22425-.80925c0-.18200091.0314164-.33691603.09425-.46475s.1484161-.23074961.25675-.30875.2339993-.13433316.377-.169.2946659-.052.455-.052c.0823337 0 .160333.00324997.234.00975s.1386664.01408329.195.02275v-.273c0-.1256673-.0054166-.23399955-.01625-.325-.0108334-.09100046-.0227499-.15816645-.03575-.2015-.0303335-.01300007-.0747497-.02599993-.13325-.039-.0585003-.01300006-.1505827-.0195-.27625-.0195-.1733342 0-.3347493.01841648-.48425.05525s-.2719162.07258316-.36725.10725l-.0975-.5915c.0996672-.04333355.2578322-.08991642.4745-.13975.2166677-.04983358.4636653-.07475.741-.07475.2990015 0 .5232493.07149928.67275.2145.1495007.14300071.22425.38566496.22425.728v2.5155zm-.5655-.52c.1040005 0 .2004162-.01624984.28925-.04875s.1657497-.06824981.23075-.10725v-.793c-.0563336-.00866671-.121333-.01408332-.195-.01625s-.147333-.00325-.221-.00325c-.1516674 0-.2751662.033583-.3705.10075s-.143.18958245-.143.36725c0 .10400052.0075833.19283296.02275.2665s.0335832.14083303.05525.2015c.0433335.01300006.0920831.02166664.14625.026.0541669.00433335.1159163.0065.18525.0065zm3.51.624c-.0433336.16900085-.0920831.31091609-.14625.42575s-.1202496.20799964-.19825.2795-.1700828.12349984-.27625.156-.2307493.04875-.37375.04875c-.1863343 0-.3325828-.0119165-.43875-.03575-.1061672-.02383345-.1787498-.04224994-.21775-.05525l.026-.6175c.0390002.01300007.1083328.03141655.208.05525s.2253326.03575.377.03575c.1386674 0 .2426663-.03899961.312-.117s.1256664-.22099896.169-.429l.0195-.1105h-.4355l-.819-3.12h.7345l.481 2.0475c.0650003.26433466.1104999.49399903.1365.689h.0195c.0130001-.09100045.0292499-.19499942.04875-.312.0195001-.11700059.0465832-.242666.08125-.377l.481-2.0475h.7215zm3.159-.104v-2.2295c0-.10400052-.00325-.20149955-.00975-.2925s-.0184166-.17333297-.03575-.247c-.0173334-.00866671-.0519997-.01733329-.104-.026s-.108333-.013-.169-.013c-.1386674.00433336-.2686661.02274984-.39.05525s-.2274995.07258309-.3185.12025v2.6325h-.702v-3.3605l.6565-.0585v.299c.0520003-.03033348.1137496-.06608313.18525-.10725s.1494996-.07799984.234-.1105.1754995-.06066655.273-.0845.1982495-.03575.30225-.03575c.1820009 0 .3293328.02924971.442.08775s.1971664.1505827.2535.27625c.0476669-.03033349.1072496-.06608313.17875-.10725s.1527495-.08124981.24375-.12025c.0910005-.0390002.1884995-.07149987.2925-.0975s.2123328-.039.325-.039c.2730014 0 .4712494.06499935.59475.195s.18525.34666515.18525.65v2.613h-.7085v-2.2295c0-.10400052-.0021666-.20149955-.0065-.2925s-.0173332-.17333297-.039-.247c-.0173334-.00866671-.0519997-.01733329-.104-.026s-.108333-.013-.169-.013c-.1430007.00433336-.2740827.02383316-.39325.0585s-.2242495.07366645-.31525.117v2.6325zm5.4405-2.288c0 .18633426-.0054166.35208261-.01625.49725s-.0205833.26758283-.02925.36725l-1.5665.0845c.0086667.16033413.0227499.30333271.04225.429s.0400832.23399954.06175.325c.0390002.00866671.088833.01624997.1495.02275s.1408328.00975.2405.00975c.2210011 0 .4203324-.02058313.598-.06175s.3098329-.07908316.3965-.11375l.0715.5915c-.0823337.04333355-.2177491.08991642-.40625.13975s-.4300819.07475-.72475.07475c-.2210011 0-.4051659-.03249968-.5525-.0975-.1473341-.06500033-.2654162-.16791596-.35425-.30875s-.1516665-.32283222-.1885-.546-.05525-.49508173-.05525-.81575c0-.32933498.0324997-.60774886.0975-.83525s.1559994-.40949932.273-.546.2567492-.23508303.41925-.29575.341249-.091.53625-.091c.1906676 0 .3509993.02599974.481.078.1300006.05200026.2339996.12783283.312.2275.0780004.09966716.1332498.22208261.16575.36725s.04875.31091573.04875.49725zm-1.0075-.5915c-.0910005 0-.173333.01191655-.247.03575s-.1364997.07258296-.1885.14625c-.0520003.07366703-.0931665.17983264-.1235.3185s-.0476666.32066554-.052.546l.9295-.052c.0086667-.06500032.013-.12458306.013-.17875v-.19175c0-.10400052-.0064999-.21016613-.0195-.3185-.0130001-.10833388-.0303332-.19933297-.052-.273-.0216668-.00866671-.0541665-.01624997-.0975-.02275-.0433336-.00650003-.0974997-.00975-.1625-.00975zm3.4905 2.8795v-2.275c0-.13000065-.0043333-.23074964-.013-.30225s-.0194999-.13541639-.0325-.19175c-.0346668-.00866671-.0747498-.01733329-.12025-.026s-.105083-.013-.17875-.013c-.1516674 0-.291416.02058313-.41925.06175s-.2394162.08558309-.33475.13325v2.613h-.702v-3.3605l.6565-.0585v.312c.0563336-.03466684.1224163-.07258313.19825-.11375s.1581662-.07908316.247-.11375.1841662-.06391655.286-.08775.2069161-.03575.31525-.03575c.2773347 0 .479916.0628327.60775.1885.127834.12566729.19175.34233179.19175.65v2.6195zm2.99-2.8145-.702.0325v1.703c0 .08233374.0021666.17224951.0065.26975s.0108333.18308297.0195.25675h.0325c.1430007 0 .2632495-.0097499.36075-.02925s.176583-.03791658.23725-.05525l.039.572c-.0650003.03466684-.1570827.06716651-.27625.0975s-.2524159.0455-.39975.0455c-.1256673 0-.2339995-.01516651-.325-.0455s-.1657497-.08124964-.22425-.15275-.1018332-.16683274-.13-.286-.04225-.26974909-.04225-.45175v-1.898l-.325.013v-.5395l.3315-.0585.065-.663.6305-.0715v.7085l.7215-.026zm4.264 1.092c0 .3466684-.036833.63483219-.1105.8645-.073667.22966782-.1754994.41383264-.3055.5525-.1300007.13866736-.2827491.23724971-.45825.29575s-.3629157.08775-.56225.08775c-.208001 0-.3856659-.03033303-.533-.091s-.2686662-.16033264-.364-.299-.1646665-.3184989-.208-.5395c-.0433336-.2210011-.065-.49183173-.065-.8125 0-.34233505.036833-.62941551.1105-.86125s.1754993-.41599932.3055-.5525c.1300006-.13650068.2816658-.23399971.455-.2925s.3596657-.08775.559-.08775c.208001 0 .3867493.03033303.53625.091s.2708329.16033264.364.299.1624998.31849889.208.5395c.0455002.2210011.06825.48966509.06825.806zm-.7215.0455c0-.29466814-.0129999-.52649916-.039-.6955s-.0563332-.30983277-.091-.4225c-.0390002-.00866671-.0866664-.01733329-.143-.026s-.1191663-.013-.1885-.013c-.1083339 0-.2058329.01191655-.2925.03575s-.160333.07583293-.221.156-.1072498.19499925-.13975.3445-.04875.34774876-.04875.59475c0 .29900149.0108332.53191583.0325.69875s.0498332.30658277.0845.41925c.0390002.00866671.0866664.01733329.143.026s.121333.013.195.013c.1083339 0 .2058329-.01191655.2925-.03575s.160333-.07583293.221-.156.1083332-.19499925.143-.3445.052-.34774877.052-.59475zm3.2045 1.677v-2.275c0-.13000065-.0043333-.23074964-.013-.30225s-.0194999-.13541639-.0325-.19175c-.0346668-.00866671-.0747498-.01733329-.12025-.026s-.105083-.013-.17875-.013c-.1516674 0-.291416.02058313-.41925.06175s-.2394162.08558309-.33475.13325v2.613h-.702v-3.3605l.6565-.0585v.312c.0563336-.03466684.1224163-.07258313.19825-.11375s.1581662-.07908316.247-.11375.1841662-.06391655.286-.08775.2069161-.03575.31525-.03575c.2773347 0 .479916.0628327.60775.1885.127834.12566729.19175.34233179.19175.65v2.6195z" fill="#333"/><use fill="#000" xlink:href="#a"/><use fill="#df0000" xlink:href="#a"/></g></svg>
