<svg width="24px" height="24px" viewBox="0 0 24 24" version="1.1" xmlns="http://www.w3.org/2000/svg" xmlns:xlink="http://www.w3.org/1999/xlink">
    <defs>
        <path d="M23.4968164,3.76926019 L20.232292,0.505474752 C19.9075023,0.179946056 19.4751884,0.000369499088 19.015162,0 C19.014423,0 19.0140535,0 19.013684,0 C18.5543966,0 18.1224522,0.178468059 17.7969235,0.503627256 L1.58404253,16.7172472 C1.40520498,16.8683723 1.26996831,17.0738138 1.21528244,17.3195307 L0.0266038804,22.6506636 C-0.0557944161,23.0209016 0.0565333065,23.4077672 0.324789644,23.675654 C0.534665126,23.885899 0.817701427,24.0004437 1.10849721,24.0004437 C1.18867851,24.0004437 1.26959881,23.9919453 1.34978011,23.9738398 L6.68128245,22.7851612 C6.92847734,22.7301059 7.13465783,22.5933912 7.28578295,22.4134451 L23.4968164,6.20278118 C24.1678268,5.53177084 24.1678268,4.44027053 23.4968164,3.76926019 Z M15.767265,5.668855 L18.3312192,8.23243967 L8.34735383,18.2166745 L5.78376916,15.6530898 L15.767265,5.668855 Z M3.30590828,18.1305812 L4.21598453,17.220505 L6.7795692,19.7840896 L5.86875395,20.6949049 L2.5702356,21.4302081 L3.30590828,18.1305812 Z M19.8990038,6.66502454 L17.3350496,4.10107037 L19.0140535,2.42243602 L21.5783772,4.98602069 L19.8990038,6.66502454 Z" id="path-1"></path>
    </defs>
    <g id="PENCIL-SYSTEM" stroke="none" stroke-width="1" fill="none" fill-rule="evenodd">
        <g id="Icons" transform="translate(-525.000000, -528.000000)">
            <g id="Icon-pencil" transform="translate(525.000000, 528.000000)">
                <mask id="mask-2" fill="white">
                    <use xlink:href="#path-1"></use>
                </mask>
                <use id="Shape" fill="#999999" xlink:href="#path-1"></use>
                <g id="Group" mask="url(#mask-2)" fill="#999999">
                    <g id="COLOR/-black">
                        <rect id="Rectangle-2" x="0" y="0" width="24" height="24"></rect>
                    </g>
                </g>
            </g>
        </g>
    </g>
</svg>
