<svg viewBox="0 0 60 48" fill="none" xmlns="http://www.w3.org/2000/svg">
  <path fill-rule="evenodd" clip-rule="evenodd" d="M54 9C57.3137 9 60 11.6863 60 15V42C60 45.3137 57.3137 48 54 48H6C2.68629 48 0 45.3137 0 42V15C0 11.6863 2.68629 9 6 9H9.51C11.1091 9.00127 12.6426 8.36412 13.77 7.23L18.36 2.64C20.0462 0.95169 22.3339 0.00210062 24.72 0H35.28C37.6661 0.00210062 39.9538 0.95169 41.64 2.64L46.23 7.23C47.3574 8.36412 48.8909 9.00127 50.49 9H54ZM18 27C18 33.6274 23.3726 39 30 39C33.1826 39 36.2348 37.7357 38.4853 35.4853C40.7357 33.2348 42 30.1826 42 27C42 20.3726 36.6274 15 30 15C23.3726 15 18 20.3726 18 27Z" fill="currentColor"/>
</svg>
