<svg xmlns="http://www.w3.org/2000/svg" viewBox="0 0 80 80"><path d="M2.86094358 20.0479287L12.3195829 2.54707304C13.1565634.99746434 15.0076586.00051861 17.0489025 0H59.998663c2.0412441.0005186 3.8923391.99746435 4.7293196 2.54707304l9.4586393 17.50085566c2.6922125 4.9746351-1.2473916 10.868009-7.7984417 11.2041332h-.6910011c-3.891296-.0034195-7.4299294-1.8777231-9.0817294-4.8103078-1.6377798 2.9123308-5.1390758 4.7832452-9.0022532 4.8103461-3.8631774.0271012-7.4018633-1.7944261-9.0983878-4.6833659-1.6965242 2.8889398-5.2352104 4.7104671-9.0983878 4.6833659-3.8631774-.0271009-7.3644731-1.8980153-9.002253-4.8103461-1.6321286 2.9505384-5.17023 4.8468038-9.0727555 4.8625937h-.6910012C4.07243913 30.9159377.16873127 25.0300334 2.86094358 20.0479287zm2.80894717 46.0390278H43.7391304l-.5544866-.6880908c-1.5233568-1.9066636-2.6458508-4.0552654-3.3103687-6.3364838H16.4451408V38.2608696c-1.5375213.5503561-3.1735641.8349575-4.8248624.8393193h-.9269032c-.6517245-.0406936-1.29911517-.1266379-1.93656567-.2570887v20.2192817H5.66989075C3.61611158 59.1494713 2 60.6961791 2 62.5746692s1.61611158 3.4251979 3.66989075 3.5122873zM64.5102049 78.377527C63.7151475 79.3977843 62.455015 80 61.115192 80c-1.3398226 0-2.5999551-.6022157-3.3950129-1.622473L47.2248682 64.8918626c-8.255952-10.5843308-.9982689-25.9673454 12.8695718-26.630993h2.0504977c13.8858275.6636476 21.152504 16.0466622 12.887559 26.630993L64.5102049 78.377527zm3.5480354-22.725383c0-3.8419642-3.1081126-6.9564918-6.9421638-6.9564918-3.8340511 0-6.9421635 3.1145276-6.9421635 6.9564918 0 3.8419645 3.1081124 6.9564922 6.9421635 6.9564922 1.8461468.0076521 3.6192995-.7218821 4.9274251-2.0273079 1.3081255-1.3054253 2.0434706-3.0792114 2.0434549-4.9291843h-.0287162z"/></svg>