<svg viewBox="0 0 80 80" xmlns="http://www.w3.org/2000/svg" xmlns:xlink="http://www.w3.org/1999/xlink"><linearGradient id="a" x1="31.620854%" x2="11.180851%" y1="55.428721%" y2="78.132117%"><stop offset="0" stop-opacity="0"/><stop offset="1" stop-opacity=".275787"/></linearGradient><g><path d="m31.0704067 78.748441c30.7748542-16.2822599 46.1622814-28.1016915 46.1622814-35.458295 0-11.0349051-8.9455581-19.9804632-19.9804632-19.9804632-11.0349052 0-16.8342457 10.2410372-19.9804633 19.9804632-2.0974784 6.4929509-4.1645968 18.3123824-6.2013549 35.458295z" fill="url(#a)" fill-opacity=".5"/><path d="m30.8788202 78.748441c18.6185935-22.7586899 27.9278902-39.2794173 27.9278902-49.5621825 0-15.424148-12.5037424-27.92789036-27.9278902-27.92789036-15.4241479 0-27.92789032 12.50374236-27.92789032 27.92789036 0 10.2827652 9.30929672 26.8034926 27.92789032 49.5621825z"/><path d="m48.0144595 27.5226314c-1.5835162-1.7919465-3.32291-3.1729706-5.2190717-4.1438641-1.8970525-.9700026-3.7708471-1.5299736-5.6222746-1.6799128-1.8523181-.1490485-3.5917117.1051059-5.2190717.7615724-1.6283496.6573571-2.9644415 1.7023789-4.0094632 3.1359559.1490485-.0895675.297998-.1635969.4480361-.2239685.1490484-.0593819.297998-.1188627.4480361-.1792342 1.3732055-1.1647753 2.9343547-1.865976 4.681468-2.1055818 1.7471134-.2386162 3.5088741-.0448334 5.2862722.5823381 1.7764083.6271714 3.4641398 1.6507167 5.0622046 3.0687555 1.5971742 1.4189296 2.9187174 3.2186949 3.9647289 5.398207 1.3138237 3.375463 2.1951494 6.1822455 2.6430866 8.4221293-.5083087.8959734-1.0829272 1.7695795-1.7247461 2.6207194-.6427096.8511401-1.3370816 1.6351787-2.0831156 2.3519177.2688019-2.4191181.1344009-5.3603017-.4032029-8.8253322-.4479372-2.3295504-1.2475139-4.3824803-2.3967509-6.1597794-1.1501277-1.7764082-2.4863185-3.1953378-4.0094632-4.2558978-1.5231448-1.0595704-3.1514943-1.7169276-4.8830694-1.971181-1.7325647-.2532636-3.4046589-.0370147-5.0174703.6495386h.1792342c.1490486 0 .2979981.0078186.4480362.0223672.1490485.0155383.297998.0379054.4480361.0672005 1.7315751-.2688019 3.4046591-.0593819 5.0174704.6271714 1.6127123.687543 3.0239222 1.7402843 4.2334317 3.1583232 1.2096086 1.4189296 2.1425965 3.1359561 2.7999538 5.1518713.6564664 2.0159152.8959733 4.2188833.716739 6.6078155-.5376038 3.4348447-1.269881 6.3321847-2.1951494 8.6909312-.8667773.4772322-1.7695795.9028022-2.7102871 1.2768089-.9408067.373017-1.9039804.6788336-2.8895213.9183405 1.5231447-2.0607485 3.0015551-4.6882969 4.4350332-7.8845255.8064056-2.2993647 1.142408-4.5315288 1.0080071-6.6973832-.134401-2.1649636-.6271715-4.0990308-1.4783114-5.8014098-.8511401-1.702379-2.0013667-3.0755845-3.4494924-4.1214971-1.4491153-1.0450216-3.0842938-1.6273598-4.9054365-1.7471131.1490486.0603715.297998.1275719.4480362.2016013.1490485.075019.297998.1723065.4479372.2911691 1.7617607.5376037 3.2099854 1.5084972 4.3454656 2.9118885 1.1345894 1.404282 1.8961617 3.0316419 2.2847171 4.8830694.3876646 1.8523181.3651984 3.8458661-.0672006 5.980644-.4333885 2.1356687-1.3370815 4.2188832-2.710287 6.249446-2.1503162 2.6879199-4.2110647 4.8080503-6.1822455 6.3613808-1.0752076 0-2.127949-.0827388-3.1583232-.2464348-1.0303743-.1645867-2.0237338-.3963739-2.979089-.6943719 2.2691787-.9855409 4.7935016-2.4785988 7.5709892-4.4798665 1.8211427-1.5826256 3.2177052-3.3297389 4.1886975-5.2414388.9700027-1.9108093 1.5231447-3.8001423 1.6575457-5.6670089.1344009-1.865976-.1422196-3.6130893-.8287728-5.241439-.687543-1.6273598-1.7627505-2.9489031-3.2255238-3.9647288.1490485.1499392.2756309.3136352.3808357.4927704.1042152.1792342.1860632.3739078.2464347.5823382 1.1345894 1.3740962 1.8065942 2.9343546 2.0159152 4.681468.2084304 1.7471133.006829 3.4943255-.6048042 5.2414388-.6125239 1.7471133-1.6351785 3.4124775-3.0687556 4.9950042-1.4335771 1.5835162-3.2108761 2.8973399-5.3310066 3.9422627-3.1066609 1.194961-5.8686102 1.9867191-8.2877283 2.3742848-.7469248-.4479372-1.4714825-.9408067-2.1727822-1.4783114-.7021905-.5376038-1.3663767-1.1044037-1.9935481-1.7023791 2.2993646.2094201 5.0174703.134401 8.1533274-.2239686 2.3295504-.4479371 4.3902989-1.2543428 6.1822455-2.4191179 1.7919467-1.1647753 3.2177051-2.5233333 4.2782652-4.0766637 1.0595703-1.5524399 1.7023789-3.2030576 1.9263475-4.9502698.2239686-1.7471134-.0379055-3.4271251-.7839395-5.0398376v.2239686c0 .1197535-.0078186.2395069-.0223673.3583696-.0155381.1197533-.0223671.2395068-.0223671.3583695.3281837 1.7919466.1635971 3.5098638-.4927705 5.1518712-.6573572 1.6428982-1.6955501 3.0842939-3.1134899 4.3230985-1.4189296 1.2396953-3.1514942 2.1951494-5.1966055 2.867154-2.0461011.6720048-4.2782652.9338789-6.6973832.7839397-3.0462894-.4772323-5.66018-1.119942-7.8397912-1.9263477-.5376037-.8657874-1.01572669-1.7764082-1.43357704-2.7327531-.41874109-.9553552-.76157236-1.9409951-1.03037425-2.9567219 1.88151429 1.3740963 4.25589799 2.68792 7.12295319 3.9422628 2.2691788.7771106 4.4643282 1.113113 6.5854483 1.0080072 2.1201303-.1042153 4.0162921-.5522514 5.6894751-1.3439106 1.6721931-.7908673 3.0531182-1.8815142 4.1438641-3.270258 1.0897561-1.3887437 1.7247462-2.9635507 1.9039804-4.7263013-.0895676.1792342-.1869539.3515407-.2911691.5151376-.1051058.1645868-.2171396.3213549-.3360023.4704034-.6271715 1.6428982-1.6428982 2.9869076-3.0462894 4.0319293-1.4042821 1.0459126-3.0239224 1.7402845-4.8607023 2.0831158-1.8367799.3437219-3.7933132.291169-5.8686103-.1567682-2.0762868-.4480362-4.0990309-1.3439105-6.0702117-2.68792-2.4798855-2.0304637-4.43542913-3.8077627-5.86900621-5.3309075v-.8064056c0-.9251695.05166222-1.83678.15676811-2.7327532.10421517-.8959734.26098328-1.7764084.47040331-2.6430867.89597331 2.0314535 2.29936459 4.4506704 4.21106459 7.257354 1.5825266 1.8523183 3.3521061 3.2634293 5.3086394 4.2334319 1.9555436.9709924 3.8750623 1.5163158 5.7566756 1.6351785 1.8815142.1197534 3.643275-.1860632 5.2862721-.9183404 1.6420074-.7313866 2.9713693-1.8737946 3.987096-3.4271252-.1197533.0895677-.2395067.1723064-.3583694.2464347-.1197535.0750191-.2395069.1422197-.3583696.2016015l-.0895676.0895676h-.0448333c-1.3439106 1.2543428-2.9118886 2.0314535-4.7038352 2.3295504-1.7919466.2989876-3.5917117.1499392-5.3982069-.4480361-1.8074849-.5969856-3.5322311-1.6127125-5.1742385-3.0462895-1.6428981-1.4335771-3.0015551-3.2547198-4.0766637-5.4654075-1.1354801-3.0161036-1.9117-5.6894749-2.3295504-8.0189264.507418-.9553552 1.0820365-1.865976 1.7247462-2.7327532.6418189-.8657876 1.3215433-1.6868408 2.0383813-2.4639514-.2395068 2.4493038-.1792342 5.3310066.1792343 8.6460979.4479371 2.3597361 1.2611717 4.4428519 2.4414852 6.2494459 1.1794227 1.807485 2.5535189 3.2332434 4.121497 4.2782652 1.567978 1.0459124 3.2401712 1.6730839 5.0174703 1.8815142 1.7764084.2094201 3.4718594-.0895676 5.0846708-.8959733-.1197535.0301858-.2395069.0448334-.3583696.0448334h-.3583695-.4480362c-1.7627505.3291733-3.4718593.1645867-5.1294051-.4927705-1.6575456-.6564665-3.0988424-1.6945605-4.3230984-3.1134899-1.2251467-1.4180388-2.1805019-3.1505047-2.8671541-5.1966057-.687543-2.0452102-.9408067-4.2627268-.7615724-6.6526488.5376038-3.3744731 1.2543428-6.2114415 2.1503161-8.51179584.7762199-.47723221 1.5971742-.90280222 2.4639514-1.27680897.8657875-.37301706 1.7471132-.70901942 2.6430866-1.00800709-1.4637629 1.97118086-2.8671542 4.4954048-4.2110647 7.5709893-.8064056 2.3002553-1.142408 4.5246998-1.008007 6.675016.1344009 2.1503161.6194517 4.0766637 1.4559442 5.7790426.8356018 1.7023791 1.9780098 3.0842938 3.4271252 4.1438642 1.4482245 1.06056 3.0833041 1.6507168 4.9054365 1.7695795-.1197535-.0593819-.2317872-.1188627-.3360024-.1792344-.1051058-.0593818-.2171397-.1344008-.3360024-.2239686l-.0895676-.0448333-.0448333-.0448333c-1.7627505-.5376036-3.2186948-1.5007774-4.3678327-2.8895213-1.1501277-1.3887437-1.9195187-3.0161035-2.3070843-4.8830694-.3885553-1.865976-.3661882-3.8673425.0672004-6.0030111.432399-2.1347779 1.3361909-4.2178936 2.7102871-6.249446 2.1503162-2.68791994 4.2110647-4.80805031 6.1822455-6.36138081l.6269735-.04463536c1.014836 0 2.0227442.06720047 3.0239224.20160141 1.0001883.13440095 1.9633621.33600236 2.8895213.60480425-2.3899221.98554096-5.0476562 2.53887146-7.9741922 4.65910081-1.8523181 1.5835162-3.2557095 3.3452771-4.2110646 5.2862722-.9563448 1.9418858-1.4939486 3.8526951-1.6127124 5.7342094-.1197535 1.8815142.1792343 3.6442647.8959734 5.2862721.716739 1.6428982 1.8367798 2.9722601 3.3599245 3.987096-.1197533-.1490484-.2239686-.2979979-.3136351-.448036-.0895677-.1490485-.1792343-.3136352-.2688019-.4927705-1.2251467-1.3440095-1.9711809-2.9041689-2.2398837-4.6814679-.2688019-1.7764085-.1051059-3.5615261.4927704-5.3534728.5969856-1.7919466 1.6127123-3.5011544 3.0462893-5.1294051 1.4335772-1.6273598 3.2401714-2.9635507 5.4206732-4.0094632 3.433954-1.3138236 6.4510474-2.15031612 9.0493008-2.50868565.8959732.50830873 1.7393936 1.07520755 2.5311517 1.70237895.7908675.6271714 1.545512 1.2991762 2.26235 2.0159152-2.6285381-.3583695-5.7643952-.3583695-9.4077692 0-2.389922.478123-4.4876852 1.3147144-6.2941803 2.5086857-1.8074848 1.194961-3.2332434 2.5758861-4.2782652 4.1438642-1.0459124 1.567978-1.6653642 3.2410619-1.8591471 5.0174702-.1947725 1.7772991.1120338 3.4874968.9183405 5.1294051-.0301857-.1188627-.0448333-.2307974-.0448333-.3360023v-.3360023-.4032029c-.3583694-1.7919467-.2171396-3.5235216.4255701-5.1966056.6418189-1.6721931 1.6721931-3.135956 3.0911227-4.3902989 1.4180389-1.2543428 3.1583232-2.2243455 5.2190717-2.9118885 2.0607486-.6865532 4.3006323-.9408066 6.7198494-.7615723 3.6734608.5979753 6.7343978 1.404282 9.1837015 2.419118.5376038.9261591 1.0001885 1.8970525 1.3887438 2.9118886.3876646 1.0157267.7012008 2.0607485.9408066 3.1359559-2.12112-1.6420073-4.8986076-3.2401712-8.3325616-4.7935017-2.2399827-.7762198-4.4204847-1.1122222-6.540615-1.008007-2.1211201.1051059-4.0250015.553142-5.7118422 1.3440094-1.6877315.7917582-3.0764753 1.8815143-4.1662314 3.270258-1.0907457 1.3887438-1.7247462 2.9644414-1.9039804 4.7263012.0895677-.1792342.1937829-.3651984.3136352-.5599709.1188627-.1937828.2386162-.3651984.3583695-.5151376.6564665-1.6420074 1.6868407-2.979089 3.0911228-4.0094633 1.4033914-1.0303742 3.0161037-1.7092078 4.838236-2.0383812 1.8211427-.3281838 3.7699564-.2688019 5.8462432.1792342 2.0753961.4480361 4.0990309 1.3293619 6.0702117 2.6430867 2.8671541 2.3597361 5.1070379 4.5996199 6.7198493 6.7198491-.0301858.9261592-.1197533 1.8444997-.2688019 2.7551205-.1499392.9115115-.3437219 1.8143137-.5823381 2.7102871-1.0159246-2.3890313-2.5537169-5.0322169-4.6144654-7.9294579z" fill="#fff"/></g></svg>
