<?xml version="1.0" encoding="UTF-8"?>
<svg width="30px" height="30px" viewBox="0 0 48 48" version="1.1" xmlns="http://www.w3.org/2000/svg" xmlns:xlink="http://www.w3.org/1999/xlink">
    <title>mm_icons/promo_code</title>
    <g id="mm_icons/promo_code" stroke="none" stroke-width="1" fill="none" fill-rule="evenodd">
        <path d="M40.3636364,9 C42.3719445,9 44,10.6280555 44,12.6363636 L44,12.6363636 L44,34.4545455 C44,36.4628536 42.3719445,38.0909091 40.3636364,38.0909091 L40.3636364,38.0909091 L7.63636364,38.0909091 C5.62805546,38.0909091 4,36.4628536 4,34.4545455 L4,34.4545455 L4,27.1818182 L5.81818182,27.1818182 C7.82649,27.1818182 9.45454545,25.5537627 9.45454545,23.5454545 C9.45454545,21.5371464 7.82649,19.9090909 5.81818182,19.9090909 L5.81818182,19.9090909 L4,19.9090909 L4,12.6363636 C4,10.6280555 5.62805546,9 7.63636364,9 L7.63636364,9 Z M14.9090909,12.6363636 L7.63636364,12.6363636 L7.63636364,16.5090909 C10.8454523,17.3376731 13.0884369,20.2311232 13.0909091,23.5454545 C13.0801687,26.8530127 10.8389144,29.7367599 7.63636364,30.5636364 L7.63636364,30.5636364 L7.63636364,34.4545455 L14.9090909,34.4545455 C14.9090909,34.4545455 14.9636364,34.2545455 14.9636364,34.2545455 C15.046524,34.0251598 15.1837756,33.8192824 15.3636364,33.6545455 C15.4424519,33.5678708 15.534502,33.4942307 15.6363636,33.4363636 C15.7291848,33.3643991 15.8337574,33.3090371 15.9454545,33.2727273 C16.0548152,33.2200774 16.1711449,33.1833417 16.2909091,33.1636364 C16.8840654,33.0448648 17.4974477,33.2288795 17.9272727,33.6545455 C18.0993276,33.8258337 18.2353355,34.0298454 18.3272727,34.2545455 L18.3272727,34.2545455 L18.3272727,34.4545455 L40.3636364,34.4545455 L40.3636364,12.6363636 L18.3272727,12.6363636 C18.2490963,12.9145486 18.1057414,13.1700943 17.9090909,13.3818182 C17.568961,13.7288284 17.1040834,13.9252556 16.6181818,13.9272727 L16.6181818,13.9272727 L16.2727273,13.9272727 L15.9272727,13.8181818 L15.6181818,13.6545455 C15.5155337,13.5904204 15.4235181,13.5106736 15.3454545,13.4181818 C15.1285613,13.2044133 14.9771788,12.9331863 14.9090909,12.6363636 L14.9090909,12.6363636 Z M35.2675211,15.3113995 C35.5763094,15.2836432 35.8823221,15.3885845 36.1090909,15.6 C36.5794383,16.0152641 36.6432973,16.7256953 36.2545455,17.2181818 L36.2545455,17.2181818 L24.9090909,31.3636364 C24.7172016,31.6026688 24.4362459,31.753252 24.1309511,31.7806942 C23.8256562,31.8081365 23.5223501,31.7100712 23.2909091,31.5090909 C22.8596677,31.0748263 22.7985703,30.3951176 23.1454545,29.8909091 L23.1454545,29.8909091 L34.4909091,15.7454545 C34.6763401,15.4969874 34.9587328,15.3391557 35.2675211,15.3113995 Z M30.4363636,25.8 C31.4323584,24.7635338 32.9597572,24.4393218 34.2909091,24.9818182 C35.6050853,25.5810583 36.4400297,26.9012694 36.4181818,28.3454545 C36.4494457,29.2669323 36.101082,30.1608469 35.4545455,30.8181818 C34.8185803,31.429366 33.9729174,31.7741363 33.0909091,31.7818182 C31.6522214,31.8322178 30.327271,31.0032758 29.7433484,29.6874503 C29.1594258,28.3716247 29.4337183,26.8329883 30.4363636,25.8 Z M33.0909091,27.0727273 C32.5809824,27.0286799 32.0966338,27.303385 31.8727273,27.7636364 C31.6716124,28.2053401 31.7609901,28.7250974 32.0981007,29.0742476 C32.4352112,29.4233979 32.9515136,29.5309521 33.4,29.3454545 L33.4,29.3454545 L33.514996,29.302932 C33.9989807,29.0949747 34.2921351,28.5861369 34.2181818,28.0545455 C34.1170615,27.504609 33.6495206,27.097396 33.0909091,27.0727273 Z M16.6181818,25.5272727 C17.6223359,25.5272727 18.4363636,26.3413005 18.4363636,27.3454545 C18.4363636,28.3496086 17.6223359,29.1636364 16.6181818,29.1636364 C15.6140277,29.1636364 14.8,28.3496086 14.8,27.3454545 C14.8,26.3413005 15.6140277,25.5272727 16.6181818,25.5272727 Z M23.9325611,16.1697955 C25.1080051,15.1529665 26.8104789,15.0253414 28.1243857,15.8555572 C29.4382925,16.6857731 30.0539506,18.2781519 29.6402566,19.7763064 C29.2265627,21.2744609 27.8810226,22.3252829 26.3272727,22.3636364 C24.9032306,22.3987881 23.5978181,21.5739396 23.0181818,20.2727273 C22.3857498,18.8529952 22.7571172,17.1866244 23.9325611,16.1697955 Z M16.6181818,17.9272727 C17.6223359,17.9272727 18.4363636,18.7413005 18.4363636,19.7454545 C18.4363636,20.7496086 17.6223359,21.5636364 16.6181818,21.5636364 C15.6140277,21.5636364 14.8,20.7496086 14.8,19.7454545 C14.8,18.7413005 15.6140277,17.9272727 16.6181818,17.9272727 Z M26.2909091,17.6545455 C25.8119869,17.6431607 25.3708543,17.9135323 25.1636364,18.3454545 L25.1636364,18.3454545 L25.1636364,18.3272727 C24.9625215,18.7689765 25.0518992,19.2887338 25.3890098,19.637884 C25.7261203,19.9870342 26.2424227,20.0945884 26.6909091,19.9090909 C27.1823884,19.6858978 27.4601854,19.1580639 27.3658898,18.6265797 C27.2715942,18.0950955 26.8291721,17.6950423 26.2909091,17.6545455 Z" id="promo_code" fill="#000000" fill-rule="nonzero"></path>
    </g>
</svg>