<?xml version="1.0" encoding="utf-8"?>
<!-- Generator: Adobe Illustrator 24.2.3, SVG Export Plug-In . SVG Version: 6.00 Build 0)  -->
<svg version="1.1" id="Ebene_1" xmlns="http://www.w3.org/2000/svg" xmlns:xlink="http://www.w3.org/1999/xlink" x="0px" y="0px"
	 viewBox="0 0 25 20.5" style="enable-background:new 0 0 25 20.5;" xml:space="preserve">
<style type="text/css">
	.st0{fill-rule:evenodd;clip-rule:evenodd;fill:#DF0000;}
</style>
<path class="st0" d="M16.7,20.5c3.2,0,6.4-3.5,7.7-8.2c0.7-2.5,0.7-5.1,0-7.3c-0.7-2.4-2.2-4.1-4.2-4.7c-0.5-0.1-1-0.2-1.5-0.2
	c-2.5,0-4.7,1.7-5.4,4.2c-0.8,3,0.9,6.2,3.9,7c1.3,0.4,2.8,0.2,4-0.4c0,0.2-0.1,0.3-0.1,0.5c-1.1,4-3.2,5.7-4.4,5.7h-0.1
	c-0.2,0-0.4,0.1-0.5,0.4l-0.7,2.4c0,0.1,0,0.3,0.1,0.4c0.1,0.1,0.2,0.2,0.3,0.2C16.2,20.4,16.5,20.5,16.7,20.5L16.7,20.5z M3.5,20.5
	c3.2,0,6.4-3.5,7.7-8.2c0.7-2.5,0.7-5.1,0-7.3c-0.7-2.4-2.2-4.1-4.2-4.7C6.7,0.1,6.1,0,5.6,0C3.1,0,0.9,1.7,0.2,4.2
	c-0.8,3,0.9,6.2,3.9,7c1.3,0.4,2.8,0.2,4-0.4c0,0.2-0.1,0.3-0.1,0.5c-1.1,4-3.2,5.7-4.4,5.7l-0.1,0c-0.2,0-0.4,0.1-0.5,0.4l-0.7,2.4
	c0,0.1,0,0.3,0.1,0.4c0.1,0.1,0.2,0.2,0.3,0.2C3,20.4,3.3,20.5,3.5,20.5L3.5,20.5z"/>
</svg>
