<svg id="Layer_1" data-name="Layer 1" xmlns="http://www.w3.org/2000/svg" viewBox="0 0 24 24"><title>receipt</title><path d="M6.18,21.85a.47.47,0,0,0,.35.15h.29a.47.47,0,0,0,.35-.15L9,20a.51.51,0,0,1,.71,0l1.81,1.81a.47.47,0,0,0,.35.15h.29a.47.47,0,0,0,.35-.15L14.32,20A.51.51,0,0,1,15,20l1.81,1.81a.47.47,0,0,0,.35.15h.29a.47.47,0,0,0,.35-.15L19.71,20a1,1,0,0,0,.29-.7V3a1,1,0,0,0-1-1H5A1,1,0,0,0,4,3V19.26a1.05,1.05,0,0,0,.29.71ZM13,13.5a.5.5,0,0,1-.5.5h-4a.5.5,0,0,1-.5-.5v-1a.5.5,0,0,1,.5-.5h4a.5.5,0,0,1,.5.5Zm3-4a.5.5,0,0,1-.5.5h-7A.5.5,0,0,1,8,9.5v-1A.5.5,0,0,1,8.5,8h7a.5.5,0,0,1,.5.5Z"/></svg>