<svg id="Layer_1" data-name="Layer 1" xmlns="http://www.w3.org/2000/svg" viewBox="0 0 24 24"><title>remove_from_trash</title><path d="M5,8l.87,12.14a2,2,0,0,0,2,1.86h8.28a2,2,0,0,0,2-1.86L19,8Zm10.09,8.86a.48.48,0,0,1,0,.7l-.53.53a.48.48,0,0,1-.7,0L12,16.24l-1.86,1.85a.48.48,0,0,1-.7,0l-.53-.53a.48.48,0,0,1,0-.7L10.76,15,8.91,13.14a.48.48,0,0,1,0-.7l.53-.53a.48.48,0,0,1,.7,0L12,13.76l1.86-1.85a.48.48,0,0,1,.7,0l.53.53a.48.48,0,0,1,0,.7L13.24,15ZM19.5,4H15V3a1,1,0,0,0-1-1H10A1,1,0,0,0,9,3V4H4.5a.5.5,0,0,0-.5.5v1a.5.5,0,0,0,.5.5h15a.5.5,0,0,0,.5-.5v-1A.5.5,0,0,0,19.5,4Z"/></svg>