<?xml version="1.0" encoding="UTF-8"?>
<svg viewBox="0 0 556 104" version="1.1" xmlns="http://www.w3.org/2000/svg" xmlns:xlink="http://www.w3.org/1999/xlink">
    <g id="Page-1" stroke="none" stroke-width="1" fill-rule="evenodd">
        <g id="logo" transform="translate(0.000000, 1.000000)" fill-rule="nonzero">
            <path d="M266.93,7.61 L293.35,7.61 L309.84,100.9 L289.29,100.9 L280.84,28.77 L279.9,28.77 L271.07,100.91 L250.45,100.91 L266.93,7.61 M454,53.43 L454,54.86 L465.23,100.86 L485.63,100.86 L473.63,60.35 L473.63,60 L474.08,59.63 C479.58,55.1 482.73,46.76 482.73,36.49 L482.73,34.89 C482.73,26.43 480.1,19.37 475.13,14.46 C470.47,10 464.33,7.58 457,7.6097244 L431.32,7.6097244 L431.32,100.81 L448.48,100.81 L451,100.75 L451,22.84 L454.13,22.84 C461.49,22.84 462.96,30.46 463.13,35.84 C463.13,35.93 463.13,36.63 463.13,37.32 C463.13,38.01 463.13,38.67 463.13,38.67 C463.13,39.17 463.13,39.94 463.13,40.41 C462.76,49.41 458.83,52.55 455.78,53.14 L455.69,53.14 L454,53.43 M193.68,30.73 L193.68,32 C193.68,46.57 202.56,53.92 210.68,60.5 L212.81,62.23 C219.95,68.1 224.11,73.98 224.11,78.68 L224.11,79 C224.11,85.69 221.29,87.18 218.38,87.18 C215.47,87.18 212.44,84.33 212.44,78.54 L212.44,71.54 L192.91,71.54 L192.91,77.67 C192.91,92.61 203.15,102.67 218.4,102.67 C234.71,102.67 244.4,93.58 244.4,78.24 L244.4,77.42 C244.4,62.57 237.93,56.83 227.67,48 L226,46.59 L223,44.1 C218,39.84 214,35.91 214,30.77 L214,30.26 C214,27.44 214.92,22.41 219.78,22.41 C224.28,22.41 225.31,28.23 225.31,31.23 L225.31,37.5 L244.31,37.5 L244.31,31.11 C244.31,15.73 234.69,5.8 219.79,5.8 C207.24,5.8 193.73,13.6 193.73,30.73 M307.42,7.61 L307.42,23.75 L322.23,23.75 L322.23,100.81 L342.23,100.81 L342.23,23.75 L354.92,23.75 L354.92,7.61 L307.42,7.61 M397.23,7.61 L397.23,78.29 C397.23,85.38 393.47,86.29 391.49,86.29 C388.08,86.29 385.76,83.47 385.76,78.29 L385.76,7.61 L365.86,7.61 L365.86,80.55 C365.86,93.94 375.93,102.55 391.5,102.55 C407.07,102.55 417.16,93.91 417.16,80.55 L417.16,7.61 L397.24,7.61 M536.44,7.61 L537.44,74.35 L537,74.35 L521.82,7.61 L495.64,7.61 L495.64,100.9 L515.53,100.9 L513.93,33.9 L514.43,33.9 L529.86,100.9 L555.77,100.9 L555.77,7.61 L536.43,7.61" id="Shape"></path>
            <path d="M140.28,46.88 C140.28,46.99 140.44,48.68 140.5,49.88 C140.5,50.71 140.5,52.01 140.5,52.08 L140.72,52.26 C151.22,60.88 162.38,72.63 164.3,81.26 C164.887287,83.3853992 164.699424,85.6503999 163.77,87.65 C162.65,89.81 160.55,91.36 157.63,92.35 C142.57,97.49 106.63,87.63 77.35,73.14 C56.42,62.8 38,50.47 25.6,38.41 C14,27.21 10.92,18.46 13.9,13.19 C15.2220145,11.0759074 17.2420593,9.49100364 19.61,8.71 C29.17,5 47.49,7.59 65.53,13 C57.5016608,18.8936958 51.4823775,27.1160927 48.29,36.55 L48.29,36.64 C47.44,44.52 58.85,54.82 70.37,60.56 C70.37,60.56 71,60.8 70.99,60.75 C70.98,60.7 70.88,59.96 70.87,59.92 C68.16,40.34 83,11 98.56,4.62 C99.56,4.21 100.43,3.96 100.56,3.92 L98.56,3.72 C98.02,3.72 97.47,3.63 96.89,3.6 C96.31,3.57 95.59,3.55 94.89,3.54 C86.1096287,3.36646583 77.4539338,5.63772017 69.89,10.1 C39.73,-0.23 17.69,-1.45 8.48,1.63 C4.82,2.86 2.34,4.72 1.12,7.17 C-0.1,9.62 -0.17,13 1.1,16.78 C5.29,29.31 23.61,46.45 46.82,61.67 C50.19,79.38 66.07,97.55 88.82,99.97 L89.82,100.08 C89.82,100.08 90.21,100.08 90.19,100.08 L88.93,99.08 C81.93,93.66 75.58,84.74 73.41,76.99 L74.78,77.68 L75.84,78.2 C112.53,96.33 151.02,105.58 168.06,99.88 C171.88,98.6 174.68,96.81 175.97,94.23 C177.26,91.65 176.97,88.5 175.76,84.83 C172.56,75.26 158.76,60.66 141.35,47.64 L140.28,46.85" id="Path" stroke="#000000" stroke-width="0.3"></path>
        </g>
    </g>
</svg>
