<svg  width="19px" height="19px" viewBox="0 0 19 19"><path fill="#999999" d="M9.34114213,13.0042614 C9.23728806,13.3731273 9.18323864,13.7632169 9.18323864,14.1656161 C9.18323864,14.2615468 9.18748337,14.3573359 9.19512385,14.453125 L6.57528409,14.453125 L6.57528409,13.0042614 L9.34114213,13.0042614 Z M16.6448864,0.181818182 L2.44602273,0.181818182 C1.24759742,0.181818182 0.272727273,1.15668833 0.272727273,2.35511364 L0.272727273,16.5539773 C0.272727273,17.7524026 1.24759742,18.7272727 2.44602273,18.7272727 L12.139543,18.7272727 C11.8281222,18.4940962 11.4912331,18.2210194 11.1612771,17.9149753 C10.9340432,17.7040128 10.7264765,17.4917769 10.538011,17.2784091 L2.44602273,17.2784091 C2.04659478,17.2784091 1.72159091,16.9534052 1.72159091,16.5539773 L1.72159091,2.35511364 C1.72159091,1.95568569 2.04659478,1.63068182 2.44602273,1.63068182 L16.6448864,1.63068182 C17.0443143,1.63068182 17.3693182,1.95568569 17.3693182,2.35511364 L17.3693182,10.3309381 C17.9004738,10.4623829 18.3928611,10.7036244 18.8181818,11.0426358 L18.8181818,2.35511364 C18.8181818,1.15668833 17.8433117,0.181818182 16.6448864,0.181818182 Z M3.67755682,14.453125 L5.12642045,14.453125 L5.12642045,13.0042614 L3.67755682,13.0042614 L3.67755682,14.453125 Z M5.12642045,8.73011364 L3.67755682,8.73011364 L3.67755682,10.1789773 L5.12642045,10.1789773 L5.12642045,8.73011364 Z M5.12642045,4.45596591 L3.67755682,4.45596591 L3.67755682,5.90482955 L5.12642045,5.90482955 L5.12642045,4.45596591 Z M15.3771307,8.73011364 L6.57528409,8.73011364 L6.57528409,10.1789773 L15.3771307,10.1789773 L15.3771307,8.73011364 Z M15.4133523,4.45596591 L6.57528409,4.45596591 L6.57528409,5.90482955 L15.4133523,5.90482955 L15.4133523,4.45596591 Z M18.1142661,12.3539706 C18.5681679,12.8107022 18.8181818,13.4542014 18.8181818,14.1656161 C18.8181818,15.016399 18.3085327,15.9205239 17.3035251,16.8528054 C16.4426963,17.6513783 15.4996615,18.2115395 15.3194025,18.3158181 C15.2468179,18.3576993 15.0855186,18.4502341 15.0855186,18.4502341 L14.7252835,18.6568104 L14.364907,18.4503757 C14.364907,18.4503757 14.2034662,18.3578408 14.1310231,18.3158181 C13.9504811,18.2115395 13.0074463,17.6513783 12.146759,16.8528054 C11.1416099,15.9205239 10.6321023,15.016399 10.6321023,14.1656161 C10.6321023,13.4542014 10.8821162,12.8107022 11.336018,12.3539706 C11.7780346,11.9091242 12.3834728,11.6640625 13.0408381,11.6640625 C13.8511547,11.6640625 14.3886774,11.949449 14.7269814,12.2426175 C15.1204667,11.9040305 15.6780812,11.6640625 16.409446,11.6640625 C17.0668113,11.6640625 17.6722495,11.9091242 18.1142661,12.3539706 L18.1142661,12.3539706 Z M17.3693182,14.1656161 C17.3693182,13.5260787 16.9925287,13.1129261 16.409446,13.1129261 C16.3368614,13.1129261 16.2702193,13.1173124 16.2081049,13.1248113 C15.9469133,13.1964056 15.6862876,13.4135936 15.4582048,13.6650224 C15.4516962,13.6880854 15.4494324,13.7022344 15.4492909,13.7033664 C15.4492909,13.7030834 15.4495739,13.6999706 15.4495739,13.6941695 L15.432029,13.6941695 C15.0255266,14.1518915 14.7285378,14.7066761 14.7285378,14.7066761 C14.7285378,14.7066761 14.4263139,14.1518915 14.0089167,13.6941695 L14.0007102,13.6941695 C14.0007102,13.6999706 14.0009932,13.7030834 14.0009932,13.7033664 C14.0009932,13.7025174 13.9995783,13.694028 13.996041,13.6800204 C13.7518283,13.4148671 13.4692716,13.1849448 13.1851585,13.1188687 C13.1395985,13.1150485 13.0916332,13.1129261 13.0408381,13.1129261 C12.4577554,13.1129261 12.0809659,13.5260787 12.0809659,14.1656161 C12.0809659,15.0236151 13.5848694,16.2963229 14.725142,16.9841087 C15.8652732,16.2963229 17.3693182,15.0236151 17.3693182,14.1656161 Z"/></svg>
