<?xml version="1.0" encoding="UTF-8"?>
<svg width="49px" height="49px" viewBox="0 0 49 49" version="1.1" xmlns="http://www.w3.org/2000/svg" xmlns:xlink="http://www.w3.org/1999/xlink">
    <title>Button share</title>
    <defs>
        <path d="M22.8847913,18.2703578 C21.4952825,18.2712338 20.1804916,18.9215477 19.3070862,20.0399406 L11.5597761,16.0311549 C11.7649938,15.2147543 11.7513518,14.3559121 11.5203161,13.5469329 L19.4123128,9.12978191 C20.9489064,10.9703098 23.5784814,11.3174334 25.5123268,9.93502944 C27.4461723,8.55262551 28.0632597,5.8846346 26.9438288,3.74589912 C25.8243979,1.60716363 23.327939,0.684509868 21.1526136,1.60555284 C18.9772882,2.52659582 17.821673,4.99555491 18.4718499,7.33297474 L10.5798532,11.7501257 C9.31109737,10.2379008 7.26394358,9.7082586 5.45680601,10.4246846 C3.64966845,11.1411105 2.46839531,12.9506381 2.50064413,14.9530668 C2.53289296,16.9554955 3.7717782,18.72328 5.60098154,19.376986 C7.43018488,20.0306921 9.4591468,19.4307448 10.6785031,17.8756047 L18.4258132,21.8843904 C17.9454586,23.8577028 18.7292283,25.9289072 20.3767083,27.0398626 C22.0241882,28.1508179 24.1716266,28.056233 25.7219355,26.8044296 C27.2722445,25.5526262 27.8831268,23.4199936 27.2424936,21.4960557 C26.6018604,19.5721177 24.851159,18.2816663 22.8847913,18.28397 L22.8847913,18.2703578 Z M22.8847913,3.29696469 C24.3376678,3.29696469 25.5154569,4.5158404 25.5154569,6.0193998 C25.5154569,7.52295919 24.3376678,8.74183491 22.8847913,8.74183491 C21.4319149,8.74183491 20.2541258,7.52295919 20.2541258,6.0193998 C20.2541258,4.5158404 21.4319149,3.29696469 22.8847913,3.29696469 Z M7.10079797,17.589749 C5.6479215,17.589749 4.47013241,16.3708733 4.47013241,14.8673139 C4.47013241,13.3637545 5.6479215,12.1448788 7.10079797,12.1448788 C8.55367444,12.1448788 9.73146353,13.3637545 9.73146353,14.8673139 C9.73146353,16.3708733 8.55367444,17.589749 7.10079797,17.589749 Z M22.8847913,25.7570544 C21.4319149,25.7570544 20.2541258,24.5381786 20.2541258,23.0346192 C20.2541258,21.5310598 21.4319149,20.3121841 22.8847913,20.3121841 C24.3376678,20.3121841 25.5154569,21.5310598 25.5154569,23.0346192 C25.5154569,24.5381786 24.3376678,25.7570544 22.8847913,25.7570544 Z" id="path-1"></path>
    </defs>
    <g id="DESIGN-SYSTEM" stroke="none" stroke-width="1" fill="none" fill-rule="evenodd">
        <g id="Buttons" transform="translate(-529.000000, -1735.000000)">
            <g id="Button-share" transform="translate(530.000000, 1736.000000)">
                <g id="Icon/Bookmark-Copy" transform="translate(7.000000, 9.000000)">
                    <mask id="mask-2" fill="white">
                        <use xlink:href="#path-1"></use>
                    </mask>
                    <use id="Shape" fill="#000000" xlink:href="#path-1"></use>
                    <g id="Group" mask="url(#mask-2)" fill="#999999">
                        <g id="COLOR/-black">
                            <rect id="Rectangle-2-Copy-4" x="0" y="0" width="30" height="30"></rect>
                        </g>
                    </g>
                </g>
                <circle id="Oval-Copy" stroke="#979797" stroke-width="2" cx="23.5" cy="23.5" r="23.5"></circle>
            </g>
        </g>
    </g>
</svg>