<svg id="Layer_1" data-name="Layer 1" xmlns="http://www.w3.org/2000/svg" viewBox="0 0 24 24"><title>sign_out</title><path d="M20.78,11.28,15.64,6.15a.5.5,0,0,0-.71,0l-.71.71a.49.49,0,0,0,0,.7L17.67,11H7.5a.5.5,0,0,0-.5.5v1a.5.5,0,0,0,.5.5H17.67l-3.45,3.44a.5.5,0,0,0,0,.71l.71.7a.5.5,0,0,0,.71,0l5.14-5.13a.75.75,0,0,0,.22-.53v-.38A.77.77,0,0,0,20.78,11.28ZM18.67,12ZM10.5,19H5V5h5.5a.5.5,0,0,0,.5-.5v-1a.5.5,0,0,0-.5-.5H5A2,2,0,0,0,3,5V19a2,2,0,0,0,2,2h5.5a.5.5,0,0,0,.5-.5v-1A.5.5,0,0,0,10.5,19Z"/></svg>