<svg width="24" height="12" viewBox="0 0 96 48" fill="none" xmlns="http://www.w3.org/2000/svg">
<path fill-rule="evenodd" clip-rule="evenodd" d="M40.8 0H93.6C94.9255 0 96 1.07452 96 2.4V36C96 37.3255 94.9255 38.4 93.6 38.4H74.4V43.2H78C78.6628 43.2 79.2 43.7373 79.2 44.4V46.8C79.2 47.4627 78.6628 48 78 48H56.4C55.7373 48 55.2 47.4627 55.2 46.8V44.4C55.2 43.7373 55.7373 43.2 56.4 43.2H60V38.4H40.8C39.4745 38.4 38.4 37.3255 38.4 36V2.4C38.4 1.07452 39.4745 0 40.8 0ZM43.2 33.6H91.2V4.8H43.2V33.6Z" fill="black"/>
<path fill-rule="evenodd" clip-rule="evenodd" d="M16.8 9.816V7.2H18C19.9882 7.2 21.6 5.58823 21.6 3.6V1.2C21.6 0.537258 21.0627 0 20.4 0H18C17.3373 0 16.8 0.537258 16.8 1.2V2.4H15.6C13.6118 2.4 12 4.01178 12 6V9.816C5.07695 10.9862 0.00711522 16.9788 0 24V33.6C0 41.5529 6.4471 48 14.4 48C22.3529 48 28.8 41.5529 28.8 33.6V24C28.7929 16.9788 23.723 10.9862 16.8 9.816ZM24 33.6C24 38.9019 19.7019 43.2 14.4 43.2C9.09807 43.2 4.8 38.9019 4.8 33.6V24C4.8 18.6981 9.09807 14.4 14.4 14.4C19.7019 14.4 24 18.6981 24 24V33.6ZM12 20.4C12 19.7373 12.5373 19.2 13.2 19.2H15.6C16.2627 19.2 16.8 19.7373 16.8 20.4V25.2C16.8 25.8627 16.2627 26.4 15.6 26.4H13.2C12.5373 26.4 12 25.8627 12 25.2V20.4Z" fill="black"/>
</svg>
