<svg width="40" height="53" viewBox="0 0 40 53" xmlns="http://www.w3.org/2000/svg" xmlns:xlink="http://www.w3.org/1999/xlink"><title>mm_icon_speech-bubble</title><desc>Created with Sketch.</desc><defs><path d="M477.625 183.596c-6.581 18.658-24.369 32.029-45.279 32.029-26.51 0-48-21.49-48-48 0-19.652 11.81-36.546 28.721-43.971-1.762 4.997-2.721 10.372-2.721 15.971 0 26.51 21.49 48 48 48 6.627 0 12.941-1.343 18.684-3.772z" id="b"/><filter x="-17.2%" y="-15.2%" width="134.3%" height="134.8%" filterUnits="objectBoundingBox" id="a"><feOffset dy="2" in="SourceAlpha" result="shadowOffsetOuter1"/><feGaussianBlur stdDeviation="5" in="shadowOffsetOuter1" result="shadowBlurOuter1"/><feComposite in="shadowBlurOuter1" in2="SourceAlpha" operator="out" result="shadowBlurOuter1"/><feColorMatrix values="0 0 0 0 0 0 0 0 0 0 0 0 0 0 0 0 0 0 0.0701143569 0" in="shadowBlurOuter1" result="shadowMatrixOuter1"/><feOffset dy="2" in="SourceAlpha" result="shadowOffsetOuter2"/><feGaussianBlur stdDeviation="2.5" in="shadowOffsetOuter2" result="shadowBlurOuter2"/><feComposite in="shadowBlurOuter2" in2="SourceAlpha" operator="out" result="shadowBlurOuter2"/><feColorMatrix values="0 0 0 0 0 0 0 0 0 0 0 0 0 0 0 0 0 0 0.0582540761 0" in="shadowBlurOuter2" result="shadowMatrixOuter2"/><feMerge><feMergeNode in="shadowMatrixOuter1"/><feMergeNode in="shadowMatrixOuter2"/></feMerge></filter></defs><g transform="translate(-448 -172)" fill="none"><use fill="#000" filter="url(#a)" xlink:href="#b"/><path stroke="#ddd" d="M476.759 184.508c-5.68 2.332-11.896 3.617-18.412 3.617-13.393 0-25.518-5.429-34.295-14.205-8.777-8.777-14.205-20.902-14.205-34.295 0-5.249.834-10.303 2.376-15.038-8.042 3.766-14.856 9.721-19.674 17.097-4.871 7.458-7.702 16.369-7.702 25.941 0 13.117 5.317 24.992 13.912 33.588 8.596 8.596 20.471 13.912 33.588 13.912 10.205 0 19.658-3.218 27.4-8.694 7.65-5.411 13.629-13.027 17.013-21.923z" fill="#fff"/></g></svg>