<svg id="Layer_1" data-name="Layer 1" xmlns="http://www.w3.org/2000/svg" xmlns:xlink="http://www.w3.org/1999/xlink" viewBox="0 0 42.153 42.085"><defs><style>.cls-1{fill:none;}.cls-2{clip-path:url(#clip-path);}.cls-3{clip-path:url(#clip-path-2);}.cls-4{clip-path:url(#clip-path-3);}.cls-5{clip-path:url(#clip-path-4);}</style><clipPath id="clip-path"><rect class="cls-1" x="495.96" y="152.728" width="21" height="33" rx="2"/></clipPath><clipPath id="clip-path-2"><rect class="cls-1" x="492.96" y="149.728" width="39" height="39" rx="3"/></clipPath><clipPath id="clip-path-3"><rect class="cls-1" x="519.96" y="158.728" width="8" height="9" rx="1"/></clipPath><clipPath id="clip-path-4"><rect class="cls-1" x="521.96" y="160.728" width="4" height="3" rx="1"/></clipPath></defs><path d="M16.691,13.979l8.376,4.262a6.641,6.641,0,0,0,3.069.548l8.53-.044L39.3,21.43a.4.4,0,0,0,.561.006l.863-.842a.4.4,0,0,0,.008-.556l-3.17-3.289-9.467.045a4.857,4.857,0,0,1-2.055-.3L17.2,12l.665-1.09,9.322,3.757h2.908a1,1,0,0,0,0-2H27.071V11.394h8.342l3.92,3.517a.4.4,0,0,0,.564-.033l.792-.9a.4.4,0,0,0-.035-.562L37.9,10.989V3.019a2,2,0,0,0-2-2H23.936a2,2,0,0,0-2,2v7.423L19.274,9.39a2.952,2.952,0,0,0-2.109-.206,2.644,2.644,0,0,0-1.62,1.513A2.707,2.707,0,0,0,16.691,13.979ZM30.547,3.023H35.9V9.687A4.721,4.721,0,0,0,34.306,9.4H30.547Zm-6.608,0h1.286V5.9h2V3.023h1.322V9.4h-.761A2.7,2.7,0,0,0,25.1,11.6v.084l-1.156-.457ZM37.678,28.168H32.909l2.524-2.415a1.227,1.227,0,0,1,1.512-.133.4.4,0,0,0,.482-.069l.867-.82a.417.417,0,0,0-.044-.634,3.228,3.228,0,0,0-4.195.206l-3.478,3.329-3.134-4.564a2.98,2.98,0,0,0-2.39-1.206H17.1A3,3,0,0,0,14.69,23.1l-3.482,5.072H4.476a3.227,3.227,0,0,0-3.223,3.223v4.662a2,2,0,0,0,2,2H6.089a3.989,3.989,0,0,0,7.733,0H28.163a3.989,3.989,0,0,0,7.733,0h3a2,2,0,0,0,2-2V31.391A3.226,3.226,0,0,0,37.678,28.168ZM9.955,39.062a2.009,2.009,0,1,1,2.009-2.009A2.011,2.011,0,0,1,9.955,39.062Zm22.074,0a2.009,2.009,0,1,1,2.009-2.009A2.011,2.011,0,0,1,32.029,39.062ZM38.9,36.053h-3a3.989,3.989,0,0,0-7.733,0H13.822a3.989,3.989,0,0,0-7.733,0H3.253V31.391a1.224,1.224,0,0,1,1.223-1.223h7.785l4.058-5.912a.974.974,0,0,1,.782-.394h7.952a.965.965,0,0,1,.762.366l4.077,5.94h7.786A1.224,1.224,0,0,1,38.9,31.391Z"/></svg>