<svg width="16px" height="21px" viewBox="0 0 16 21" version="1.1" xmlns="http://www.w3.org/2000/svg" xmlns:xlink="http://www.w3.org/1999/xlink">
    <defs>
        <path d="M12.9380292,2 C14.5727386,2 15.9284621,3.21128988 16.1582808,4.78324539 L16.1582808,4.78324539 L17.6501504,4.78324539 C18.761791,4.78324539 19.6661247,5.68761885 19.6661247,6.79921967 L19.6661247,6.79921967 L19.6661247,7.84810641 C19.6661247,8.56931815 19.0793856,9.15609708 18.358134,9.15609708 L18.358134,9.15609708 L18.1339332,9.15609708 L18.1339332,19.0280239 C18.1339332,20.8873326 16.6212652,22.4000006 14.7619566,22.4000006 L14.7619566,22.4000006 L8.9364017,22.4000006 C7.07705321,22.4000006 5.5643852,20.8873724 5.5643852,19.0280239 L5.5643852,19.0280239 L5.5643852,9.15613692 L5.34022426,9.15613692 C4.61901252,9.15613692 4.03223359,8.569358 4.03223359,7.84814626 L4.03223359,7.84814626 L4.03223359,6.79925951 C4.03223359,5.68761885 4.93660706,4.78324539 6.04824771,4.78324539 L6.04824771,4.78324539 L7.53900166,4.78324539 C7.76878057,3.21117035 9.12557983,2 10.7604088,2 L10.7604088,2 Z M16.9386605,9.15609708 L6.75973758,9.15609708 L6.75973758,19.0280239 C6.75973758,20.2282372 7.73618839,21.204688 8.93644154,21.204688 L8.93644154,21.204688 L14.7619964,21.204688 C15.9622097,21.204688 16.9386605,20.2282372 16.9386605,19.0280239 L16.9386605,19.0280239 L16.9386605,9.15609708 Z M11.849219,11.2657042 C12.1792846,11.2657042 12.4468752,11.5332948 12.4468752,11.8633604 L12.4468752,11.8633604 L12.4468752,18.4674223 C12.4468752,18.797488 12.1792846,19.0650786 11.849219,19.0650786 C11.5191533,19.0650786 11.2515627,18.797488 11.2515627,18.4674223 L11.2515627,18.4674223 L11.2515627,11.8633604 C11.2515627,11.5332948 11.5191533,11.2657042 11.849219,11.2657042 Z M9.11215249,11.9435261 C9.44221812,11.9435261 9.70980875,12.2111167 9.70980875,12.5411823 L9.70980875,12.5411823 L9.70980875,17.829484 C9.70980875,18.1595497 9.44221812,18.4271403 9.11215249,18.4271403 C8.78208685,18.4271403 8.51449622,18.1595497 8.51449622,17.829484 L8.51449622,17.829484 L8.51449622,12.5411823 C8.51449622,12.2111167 8.78208685,11.9435261 9.11215249,11.9435261 Z M14.5862855,11.9435261 C14.9163511,11.9435261 15.1839417,12.2111167 15.1839417,12.5411823 L15.1839417,12.5411823 L15.1839417,17.829484 C15.1839417,18.1595497 14.9163511,18.4271403 14.5862855,18.4271403 C14.2562198,18.4271403 13.9886292,18.1595497 13.9886292,17.829484 L13.9886292,17.829484 L13.9886292,12.5411823 C13.9886292,12.2111167 14.2562198,11.9435261 14.5862855,11.9435261 Z M17.6501504,5.97855792 L6.04828756,5.97855792 C5.59574223,5.97855792 5.22758597,6.34671418 5.22758597,6.79925951 L5.22758597,6.79925951 L5.22758597,7.84814626 C5.22758597,7.90922673 5.27918363,7.96082439 5.3402641,7.96082439 L5.3402641,7.96082439 L18.3581738,7.96082439 C18.4192543,7.96082439 18.4708918,7.90922673 18.4708918,7.84814626 L18.4708918,7.84814626 L18.4708918,6.79925951 C18.4708918,6.34671418 18.1026957,5.97855792 17.6501504,5.97855792 L17.6501504,5.97855792 Z M12.9380292,3.19531253 L10.7604088,3.19531253 C9.78682672,3.19531253 8.96935248,3.87417037 8.7549931,4.78324539 L8.7549931,4.78324539 L14.9429667,4.78324539 C14.728687,3.87421021 13.9115714,3.19531253 12.9380292,3.19531253 L12.9380292,3.19531253 Z" id="path-1"></path>
    </defs>
    <g id="TRASH-SYSTEM" stroke="none" stroke-width="1" fill="none" fill-rule="evenodd">
        <g id="Icons" transform="translate(-528.000000, -386.000000)">
            <g id="Icon-trash" transform="translate(524.000000, 384.000000)">
                <mask id="mask-2" fill="white">
                    <use xlink:href="#path-1"></use>
                </mask>
                <use id="Combined-Shape" fill="#000000" fill-rule="nonzero" xlink:href="#path-1"></use>
                <g id="Group" mask="url(#mask-2)" fill="#999999">
                    <g id="COLOR/-black">
                        <rect id="Rectangle-2-Copy-3" x="0" y="0" width="24" height="24"></rect>
                    </g>
                </g>
                <g id="trash" mask="url(#mask-2)">
                    <g transform="translate(4.000000, 2.000000)"></g>
                </g>
            </g>
        </g>
    </g>
</svg>
