<svg id="Layer_1" data-name="Layer 1" xmlns="http://www.w3.org/2000/svg" viewBox="0 0 24 24"><title>verified</title><path d="M21.61,13.16a3.2,3.2,0,0,1,0-2.32l.17-.46a3.27,3.27,0,0,0-1.71-4.15L19.62,6A3.31,3.31,0,0,1,18,4.38l-.2-.45a3.27,3.27,0,0,0-4.15-1.71l-.46.17a3.2,3.2,0,0,1-2.32,0l-.46-.17A3.27,3.27,0,0,0,6.23,3.93L6,4.38A3.31,3.31,0,0,1,4.38,6l-.45.2a3.27,3.27,0,0,0-1.71,4.15l.17.46a3.2,3.2,0,0,1,0,2.32l-.17.46a3.27,3.27,0,0,0,1.71,4.15l.45.2A3.31,3.31,0,0,1,6,19.62l.2.45a3.27,3.27,0,0,0,4.15,1.71l.46-.17a3.2,3.2,0,0,1,2.32,0l.46.17a3.27,3.27,0,0,0,4.15-1.71l.2-.45A3.31,3.31,0,0,1,19.62,18l.45-.2a3.27,3.27,0,0,0,1.71-4.15ZM16.35,9.73l-5.62,5.62a.48.48,0,0,1-.7,0L7.65,13a.5.5,0,0,1,0-.71l.53-.53a.48.48,0,0,1,.7,0l1.5,1.49,4.74-4.74a.5.5,0,0,1,.7,0l.53.53A.5.5,0,0,1,16.35,9.73Z"/></svg>