<svg id="Layer_1" data-name="Layer 1" xmlns="http://www.w3.org/2000/svg" viewBox="0 0 24 24"><title>volume_up</title><path d="M13,5V19a1,1,0,0,1-1,1h-.59a1,1,0,0,1-.7-.29L6.88,15.88A3,3,0,0,0,4.76,15h0A1.76,1.76,0,0,1,3,13.24V10.76A1.76,1.76,0,0,1,4.76,9a3,3,0,0,0,2.12-.88l3.83-3.83a1,1,0,0,1,.7-.29H12A1,1,0,0,1,13,5Zm6,1.73a.58.58,0,0,0-.36-.17.5.5,0,0,0-.37.15l-.71.71a.5.5,0,0,0,0,.68,6,6,0,0,1,0,7.8.5.5,0,0,0,0,.68l.71.71a.5.5,0,0,0,.37.15.56.56,0,0,0,.36-.17A8,8,0,0,0,19,6.73ZM15.84,9.4a.53.53,0,0,0-.39.15l-.71.72a.5.5,0,0,0-.07.63,2,2,0,0,1,0,2.2.5.5,0,0,0,.07.63l.71.72a.52.52,0,0,0,.39.14.52.52,0,0,0,.37-.19,4,4,0,0,0,0-4.8A.57.57,0,0,0,15.84,9.4Z"/></svg>