<svg id="Layer_1" data-name="Layer 1" xmlns="http://www.w3.org/2000/svg" viewBox="0 0 24 24"><title>volume_mute</title><path d="M13,5V19a1,1,0,0,1-1,1h-.59a1,1,0,0,1-.7-.29L6.88,15.88A3,3,0,0,0,4.76,15h0A1.76,1.76,0,0,1,3,13.24V10.76A1.76,1.76,0,0,1,4.76,9a3,3,0,0,0,2.12-.88l3.83-3.83a1,1,0,0,1,.7-.29H12A1,1,0,0,1,13,5Zm6.24,7,1.61-1.62a.48.48,0,0,0,0-.7l-.53-.53a.48.48,0,0,0-.7,0L18,10.76,16.38,9.15a.48.48,0,0,0-.7,0l-.53.53a.48.48,0,0,0,0,.7L16.76,12l-1.61,1.62a.48.48,0,0,0,0,.7l.53.53a.48.48,0,0,0,.7,0L18,13.24l1.62,1.61a.48.48,0,0,0,.7,0l.53-.53a.48.48,0,0,0,0-.7Z"/></svg>