<svg viewBox="0 0 31 48" fill="none" xmlns="http://www.w3.org/2000/svg">
  <path fill-rule="evenodd" clip-rule="evenodd" d="M23.6958 11.2583C27.9738 14.086 30.547 18.872 30.5467 24C30.5567 29.1197 28.0008 33.9039 23.7395 36.7417L22.1686 46.1671C21.9957 47.2341 21.0676 48.0137 19.9868 47.9998H10.605C9.52417 48.0137 8.59608 47.2341 8.42322 46.1671L6.85233 36.7417C2.57384 33.9143 0 29.1283 0 24C0 18.8717 2.57384 14.0857 6.85233 11.2583L8.40141 1.8329C8.57427 0.765869 9.50236 -0.013728 10.5832 0.000183253H19.9431C21.024 -0.013728 21.9521 0.765869 22.1249 1.8329L23.6958 11.2583ZM15.2742 13.0909C9.24933 13.0909 4.3652 17.9751 4.3652 24C4.3652 26.8932 5.51454 29.6679 7.56037 31.7138C9.60621 33.7596 12.381 34.909 15.2742 34.909C21.2991 34.909 26.1832 30.0248 26.1832 24C26.1832 17.9751 21.2991 13.0909 15.2742 13.0909Z" fill="currentColor"/>
</svg>
