<svg viewBox="0 0 610 546" xmlns="http://www.w3.org/2000/svg"><g fill="none" fill-rule="evenodd" transform="translate(105 84)"><g fill="#a90e16" transform="translate(0 68)"><path d="m236 256h-210c-14.359 0-26-11.641-26-26v-204c0-14.359 11.641-26 26-26h210c14.359 0 26 11.641 26 26v204c0 14.359-11.641 26-26 26z"/><path d="m374 256h-210c-14.359 0-26-11.641-26-26v-204c0-14.359 11.641-26 26-26h210c14.359 0 26 11.641 26 26v204c0 14.359-11.641 26-26 26"/></g><path d="m329 358h-254c-16.568 0-30-13.432-30-30v-264c0-16.568 13.432-30 30-30h254c16.568 0 30 13.432 30 30v264c0 16.568-13.432 30-30 30" fill="#e3141f"/><g fill="#fff" transform="translate(95 258)"><path d="m12.819426 0h188.361148c4.457594 0 6.074025.46412806 7.703655 1.33566352 1.629629.87153546 2.908572 2.15047833 3.780107 3.78010796.871536 1.62962963 1.335664 3.24606082 1.335664 7.70365452v16.361148c0 4.4575937-.464128 6.0740249-1.335664 7.7036545-.871535 1.6296296-2.150478 2.9085725-3.780107 3.780108-1.62963.8715354-3.246061 1.3356635-7.703655 1.3356635h-188.361148c-4.4575937 0-6.07402489-.4641281-7.70365452-1.3356635-1.62962963-.8715355-2.9085725-2.1504784-3.78010796-3.780108s-1.33566352-3.2460608-1.33566352-7.7036545v-16.361148c0-4.4575937.46412806-6.07402489 1.33566352-7.70365452s2.15047833-2.9085725 3.78010796-3.78010796 3.24606082-1.33566352 7.70365452-1.33566352z"/><path d="m40.5 53h133c3.589851 0 6.5 2.9101491 6.5 6.5s-2.910149 6.5-6.5 6.5h-133c-3.5898509 0-6.5-2.9101491-6.5-6.5s2.9101491-6.5 6.5-6.5z"/></g><path d="m300 55c0-30.3756612-24.624339-55-55-55-17.180984.53535751-33.413654 8.00238605-45 20.7-11.586346-12.69761395-27.819016-20.16464249-45-20.7-30.375661 0-55.0000002 24.6243388-55.0000002 55 0 39.2000002 47.5000002 82.5 70.0000002 105l22.8 22.8c1.405174 1.406925 3.311546 2.2 5.3 2.2h3.8c1.988454 0 3.894826-.793075 5.3-2.2l22.8-22.8c22.5-22.5 70-65.7999998 70-105z" fill="#ffba08"/></g></svg>