<?xml version="1.0" encoding="UTF-8"?>
<svg width="49px" height="49px" viewBox="0 0 49 49" version="1.1" xmlns="http://www.w3.org/2000/svg" xmlns:xlink="http://www.w3.org/1999/xlink">
    <title>Button add to playlist</title>
    <defs>
        <path d="M15.4264277,18.7553267 C15.2966101,19.2164092 15.2290483,19.7040211 15.2290483,20.2070202 C15.2290483,20.3269334 15.2343542,20.4466698 15.2439048,20.5664063 L11.9691051,20.5664063 L11.9691051,18.7553267 L15.4264277,18.7553267 Z M24.556108,2.72727273 L6.80752841,2.72727273 C5.30949677,2.72727273 4.09090909,3.94586041 4.09090909,5.44389205 L4.09090909,23.1924716 C4.09090909,24.6905032 5.30949677,25.9090909 6.80752841,25.9090909 L18.9244288,25.9090909 C18.5351528,25.6176203 18.1140414,25.2762743 17.7015963,24.8937191 C17.417554,24.630016 17.1580956,24.3647211 16.9225138,24.0980114 L6.80752841,24.0980114 C6.30824348,24.0980114 5.90198864,23.6917565 5.90198864,23.1924716 L5.90198864,5.44389205 C5.90198864,4.94460712 6.30824348,4.53835227 6.80752841,4.53835227 L24.556108,4.53835227 C25.0553929,4.53835227 25.4616477,4.94460712 25.4616477,5.44389205 L25.4616477,15.4136727 C26.1255923,15.5779787 26.7410764,15.8795305 27.2727273,16.3032948 L27.2727273,5.44389205 C27.2727273,3.94586041 26.0541396,2.72727273 24.556108,2.72727273 Z M8.34694602,20.5664063 L10.1580256,20.5664063 L10.1580256,18.7553267 L8.34694602,18.7553267 L8.34694602,20.5664063 Z M10.1580256,13.412642 L8.34694602,13.412642 L8.34694602,15.2237216 L10.1580256,15.2237216 L10.1580256,13.412642 Z M10.1580256,8.06995739 L8.34694602,8.06995739 L8.34694602,9.88103693 L10.1580256,9.88103693 L10.1580256,8.06995739 Z M22.9714134,13.412642 L11.9691051,13.412642 L11.9691051,15.2237216 L22.9714134,15.2237216 L22.9714134,13.412642 Z M23.0166903,8.06995739 L11.9691051,8.06995739 L11.9691051,9.88103693 L23.0166903,9.88103693 L23.0166903,8.06995739 Z M26.3928327,17.9424633 C26.9602099,18.5133778 27.2727273,19.3177518 27.2727273,20.2070202 C27.2727273,21.2704988 26.6356659,22.4006549 25.3794063,23.5660067 C24.3033704,24.5642229 23.1245769,25.2644244 22.8992532,25.3947726 C22.8085223,25.4471241 22.6068982,25.5627927 22.6068982,25.5627927 L22.1566044,25.821013 L21.7061338,25.5629696 C21.7061338,25.5629696 21.5043328,25.447301 21.4137788,25.3947726 C21.1881013,25.2644244 20.0093079,24.5642229 18.9334488,23.5660067 C17.6770123,22.4006549 17.0401278,21.2704988 17.0401278,20.2070202 C17.0401278,19.3177518 17.3526452,18.5133778 17.9200225,17.9424633 C18.4725432,17.3864053 19.229341,17.0800781 20.0510476,17.0800781 C21.0639434,17.0800781 21.7358468,17.4368113 22.1587268,17.8032719 C22.6505834,17.3800382 23.3476015,17.0800781 24.2618075,17.0800781 C25.0835141,17.0800781 25.8403119,17.3864053 26.3928327,17.9424633 L26.3928327,17.9424633 Z M25.4616477,20.2070202 C25.4616477,19.4075983 24.9906609,18.8911577 24.2618075,18.8911577 C24.1710767,18.8911577 24.0877741,18.8966404 24.0101311,18.9060142 C23.6836416,18.995507 23.3578595,19.266992 23.072756,19.581278 C23.0646203,19.6101067 23.0617905,19.627793 23.0616136,19.6292079 C23.0616136,19.6288542 23.0619673,19.6249632 23.0619673,19.6177118 L23.0400363,19.6177118 C22.5319082,20.1898644 22.1606723,20.8833452 22.1606723,20.8833452 C22.1606723,20.8833452 21.7828924,20.1898644 21.2611458,19.6177118 L21.2508878,19.6177118 C21.2508878,19.6249632 21.2512415,19.6288542 21.2512415,19.6292079 C21.2512415,19.6281468 21.2494729,19.617535 21.2450513,19.6000255 C20.9397853,19.2685838 20.5865895,18.981181 20.2314481,18.8985859 C20.1744981,18.8938106 20.1145415,18.8911577 20.0510476,18.8911577 C19.3221942,18.8911577 18.8512074,19.4075983 18.8512074,20.2070202 C18.8512074,21.2795188 20.7310867,22.8704036 22.1564276,23.7301358 C23.5815915,22.8704036 25.4616477,21.2795188 25.4616477,20.2070202 Z" id="path-8766"/>
    </defs>
    <g id="DESIGN-SYSTEM" stroke="none" stroke-width="1" fill="none" fill-rule="evenodd">
        <g id="Buttons-99" transform="translate(-329.000000, -1735.000000)">
            <g id="Button-add-to-playlist-22" transform="translate(330.000000, 1736.000000)">
                <circle id="Oval-Copy-2" stroke="#979797" stroke-width="2" cx="23.5" cy="23.5" r="23.5"/>
                <g id="Icon/Save-to-playlist/tt" transform="translate(8.000000, 9.000000)">
                    <mask id="mask-2" fill="white">
                        <use xlink:href="#path-8766"/>
                    </mask>
                    <use id="Shape" fill="#999999" fill-rule="nonzero" xlink:href="#path-8766"/>
                    <g id="Group" mask="url(#mask-2)" fill="#999999">
                        <g id="COLOR/-black">
                            <rect id="Rectangle-2-Copy-3" x="0" y="0" width="29.4545466" height="29.4545466"/>
                        </g>
                    </g>
                </g>
            </g>
        </g>
    </g>
</svg>