<svg width="32" height="32" viewBox="0 0 24 24" xmlns="http://www.w3.org/2000/svg" xmlns:xlink="http://www.w3.org/1999/xlink">
  <path d="M32 5v4H16.002V5H12v4H6v34h36V9h-5.998V5H32zM10 39h28V17H10v22zm8.704-8.763l3.176 3.176 7.42-7.42.002.002 2.478-2.478-.706-.708c-.002 0-.002-.002-.002-.002l-1.062-1.06v-.002l-.708-.708-2.478 2.48.002.002-4.946 4.946-2.474-2.476-.006-.002-.702-.704-.7.702-.006.004-1.062 1.06c-.004.004-.004.006-.006.01l-.704.704 2.478 2.478.006-.004z" transform="scale(0.5, 0.5)" fill="#000000" fill-rule="evenodd"></path>
</svg>