<?xml version="1.0" encoding="UTF-8"?>
<svg width="48px" height="48px" viewBox="0 0 48 48" version="1.1" xmlns="http://www.w3.org/2000/svg" xmlns:xlink="http://www.w3.org/1999/xlink">
    <!-- Generator: Sketch 63.1 (92452) - https://sketch.com -->
    <title>icons/calendar-month</title>
    <desc>Created with Sketch.</desc>
    <g id="icons/calendar-month" fill="#000000" fill-rule="evenodd">
        <path d="M32,4 L32,8 L16.002,8 L16.002,4 L12,4 L12,8 L6,8 L6,42 L42,42 L42,8 L36.002,8 L36.002,4 L32,4 Z M10,38 L38,38 L38,16 L10,16 L10,38 Z M30,24 L34.002,24 L34.002,20 L30,20 L30,24 Z M22.002,24 L26.002,24 L26.002,20 L22.002,20 L22.002,24 Z M14,24 L18.002,24 L18.002,20 L14,20 L14,24 Z M22.002,31.998 L26.002,31.998 L26.002,27.998 L22.002,27.998 L22.002,31.998 Z M14,31.998 L18.002,31.998 L18.002,27.998 L14,27.998 L14,31.998 Z" id="calendar-month" fill="#000000"></path>
    </g>
</svg>