<svg xmlns="http://www.w3.org/2000/svg" width="48" height="48" viewBox="0 0 48 48">
    <path fill="#F2F3F4" fill-rule="evenodd" d="M7.997 35.985v-9.992H28.04c1.665 1.239 3.707 1.998 5.94 1.998 1.422 0 2.771-.308 3.997-.845v8.84H7.997zm0-21.984h16.834c-.538 1.225-.845 2.574-.845 3.997 0 .686.07 1.353.201 1.999H7.997V14zm24.223-1.998h3.517v4.237h4.237v3.517h-4.237v4.237H32.22v-4.237h-4.237V16.24h4.237v-4.237zm10.218.647c-.71-1.103-1.888-2.34-3.003-3.034-4.078-2.536-8.398-1.842-11.396.388H4v29.978h37.973V24.036c2.27-2.9 2.916-7.573.465-11.386z"/>
</svg>
