<svg xmlns="http://www.w3.org/2000/svg" width="48" height="48" viewBox="0 0 48 48">
    <path fill="#F2F3F4" fill-rule="evenodd" d="M24 17.5c1.486 0 2.85.504 3.946 1.334.396.3.696.524.696.524l2.484-2.482-.884-.698C28.528 14.818 26.358 14 24 14c-4.836 0-8.872 3.438-9.798 8H12v4h2.202c.926 4.562 4.962 8 9.798 8 2.358 0 4.528-.818 6.242-2.178l.882-.698-2.49-2.49s-.29.23-.688.532c-1.096.83-2.46 1.334-3.946 1.334-2.878 0-5.3-1.9-6.152-4.5H26l1.996-4.004L17.848 22c.852-2.6 3.274-4.5 6.152-4.5m3.136 22.2C15.882 41.85 6.15 32.12 8.297 20.867 9.501 14.574 14.574 9.5 20.864 8.299c11.254-2.15 20.987 7.58 18.839 18.835-1.204 6.292-6.277 11.365-12.567 12.567m.252-35.422C13.708 2.03 2.03 13.708 4.28 27.39c1.362 8.287 8.045 14.97 16.333 16.332 13.68 2.25 25.359-9.429 23.109-23.11-1.362-8.287-8.045-14.97-16.333-16.332"/>
</svg>
