<svg width="20px" height="20px" viewBox="0 0 20 20" version="1.1" xmlns="http://www.w3.org/2000/svg" xmlns:xlink="http://www.w3.org/1999/xlink">    
<g id="EXPAND" stroke="none" stroke-width="1" fill="none" fill-rule="evenodd">
        <g id="Icons" transform="translate(-527.000000, -604.000000)">
            <g id="Icon-expand" transform="translate(527.000000, 604.000000)">
                <path id="Combined-Shape" fill="#999999" fill-rule="nonzero" d="M7.10819474,11.6796185 C7.44292255,11.3448891 7.98565491,11.3448891 8.32038271,11.6796185 C8.65511052,12.0143478 8.65511052,12.5570827 8.32038271,12.8918121 L8.32038271,12.8918121 L2.92648775,18.2857324 L5.14285915,18.2857324 C5.61624327,18.2857324 5.99998895,18.6694799 5.99998895,19.1428662 C5.99998895,19.6162525 5.61624327,20 5.14285915,20 L5.14285915,20 L0.857169978,20 L0.857169978,20 L0.814831792,19.9989102 L0.814831792,19.9989102 L0.772594052,19.995741 C0.759937797,19.9944955 0.747602971,19.9920848 0.73510743,19.9903169 C0.719960103,19.9881473 0.704772597,19.9863794 0.689705627,19.9834062 L0.689705627,19.9834062 L0.647277039,19.97304 C0.634299355,19.9697856 0.621241314,19.9669329 0.608384166,19.9630355 C0.594522554,19.9588168 0.581143084,19.9536337 0.5676029,19.9487721 L0.5676029,19.9487721 L0.529192171,19.9347095 C0.516576095,19.9294862 0.504442161,19.9233389 0.492107335,19.917513 C0.479089473,19.9113656 0.465951075,19.9055799 0.453174284,19.8987495 C0.441321601,19.8924012 0.430111775,19.8852092 0.418620699,19.8783387 C0.40608498,19.8708654 0.393428725,19.863794 0.381254613,19.8556377 C0.36855818,19.8471599 0.356625139,19.8376777 0.344410849,19.8285572 C0.334245666,19.8209634 0.323799234,19.8138919 0.313875123,19.8057356 C0.292218864,19.7879364 0.271366177,19.7691729 0.251558134,19.749405 L0.251558134,19.749405 C0.250915277,19.7488425 0.250834919,19.7486818 0.250674205,19.748521 L0.221735578,19.7180505 L0.221735578,19.7180505 L0.194303647,19.6861636 C0.186147394,19.6762394 0.179075963,19.6657929 0.171442031,19.6555875 C0.162321492,19.6433732 0.152879524,19.6314803 0.144401842,19.6187838 C0.136245589,19.6065694 0.129174158,19.5938729 0.12170094,19.5813773 C0.114830402,19.5698862 0.107638435,19.5586763 0.101290218,19.5468638 C0.0944598583,19.5340869 0.0886741418,19.5209485 0.082526818,19.5079305 C0.0767009228,19.4955957 0.0705134204,19.4835018 0.0652902041,19.4708455 L0.0652902041,19.4708455 L0.0512276986,19.4323944 C0.0463660895,19.4188944 0.0411830518,19.4055148 0.0370044787,19.3916933 C0.0331071558,19.3788361 0.0302544761,19.365778 0.0270000105,19.3527601 C0.0234241163,19.3386574 0.0194866148,19.3247555 0.0166339351,19.3103715 C0.013620541,19.2953446 0.0118526832,19.2801169 0.0096830395,19.2649695 C0.00787500308,19.2524337 0.00550446644,19.240139 0.00425893024,19.2274827 C0.00148660772,19.1993575 0,19.171152 0,19.1429064 L0,19.1429064 L0,14.8571569 C0,14.3837706 0.383745686,14.0000231 0.857169978,14.0000231 C1.33055409,14.0000231 1.71429978,14.3837706 1.71429978,14.8571569 L1.71429978,14.8571569 L1.71429978,17.0735387 Z M11.6796173,11.6796173 C12.0143451,11.3448895 12.5570774,11.3448895 12.8918053,11.6796173 L12.8918053,11.6796173 L18.2857404,17.0735122 L18.2857404,14.8571408 C18.2857404,14.3837567 18.6694861,14.000011 19.1428702,14.000011 C19.6162543,14.000011 20,14.3837567 20,14.8571408 L20,14.8571408 L20,19.1428702 C20,19.1711157 19.9985134,19.1993613 19.9957411,19.2275265 C19.9944955,19.2402229 19.9920848,19.2525176 19.990317,19.2650131 C19.9881071,19.2801604 19.9863393,19.2953479 19.9833661,19.3104149 C19.9805134,19.3247587 19.9765759,19.3387006 19.973,19.3528033 C19.9697455,19.365781 19.9668928,19.3788792 19.9629955,19.3917364 C19.9588169,19.4055578 19.9536339,19.4188971 19.9487723,19.4324373 L19.9487723,19.4324373 L19.9347098,19.4708882 C19.9294464,19.4835043 19.9233393,19.495598 19.9175134,19.5078927 C19.911366,19.5209507 19.9055401,19.5341293 19.8987098,19.5469061 C19.8924017,19.5586784 19.8852098,19.5698882 19.8783794,19.5813391 C19.8709062,19.5938748 19.8638348,19.6065713 19.8556383,19.6187856 C19.8472008,19.6314418 19.8377589,19.6433347 19.8286785,19.6554686 C19.8210044,19.6657142 19.8138928,19.6762008 19.8056562,19.6861651 C19.7879776,19.7077008 19.7693347,19.7283526 19.7497276,19.7480401 L19.7497276,19.7480401 C19.7486026,19.7492454 19.7482812,19.7495267 19.7479597,19.7498079 C19.7282722,19.7694553 19.7075802,19.7880981 19.6860847,19.8057365 C19.6761204,19.8138928 19.6656338,19.8210044 19.6553883,19.8286785 C19.6432543,19.8377589 19.6313615,19.8471607 19.6187052,19.8556383 C19.6064909,19.8637946 19.5937945,19.8709062 19.5812588,19.8783794 C19.5698079,19.8852098 19.558598,19.8924017 19.5468257,19.8987098 C19.5340489,19.9055803 19.5208703,19.911366 19.5078123,19.9175134 C19.4955177,19.9233393 19.4834239,19.9294866 19.4708078,19.9347098 L19.4708078,19.9347098 L19.4323569,19.9487723 C19.4188569,19.9536339 19.4054774,19.9588169 19.391656,19.9629955 C19.3787989,19.9668928 19.3657408,19.9697455 19.352723,19.973 C19.3386203,19.9765759 19.3247185,19.9805134 19.3103346,19.9833661 C19.2953078,19.9863795 19.2800801,19.9881473 19.2649327,19.990317 C19.252397,19.992125 19.2401024,19.9944955 19.2274461,19.9957411 C19.1993211,19.9985134 19.1711157,20 19.1428702,20 L19.1428702,20 L14.8571408,20 C14.3837567,20 14.000011,19.6162141 14.000011,19.14283 C14.000011,18.6694459 14.3837567,18.2857002 14.8571408,18.2857002 L14.8571408,18.2857002 L17.0735122,18.2857002 L11.6796173,12.8918053 C11.3448895,12.5570774 11.3448895,12.0143451 11.6796173,11.6796173 Z M19.1428702,0 C19.1711157,0 19.1993211,0.00148660772 19.2274863,0.00421875165 C19.2401827,0.00546428785 19.2524774,0.00787500308 19.2649729,0.00964286091 C19.2801203,0.0118125046 19.2953078,0.013620541 19.3103747,0.0165937565 L19.3103747,0.0165937565 L19.3527631,0.026959832 C19.3657408,0.0302142975 19.378839,0.0330669772 19.3916962,0.0369643002 C19.4055176,0.0411428732 19.4188569,0.046325911 19.4323971,0.05118752 C19.4452542,0.0557678789 19.4581918,0.0600268092 19.470848,0.0652500255 L19.4894959,0.0736573948 L19.4894959,0.0736573948 L19.5079328,0.0824866394 C19.5209909,0.0886339632 19.5340891,0.0944196797 19.5468659,0.10125004 C19.5586784,0.107598256 19.5698882,0.114790223 19.5813793,0.121660762 C19.593915,0.129133979 19.6065713,0.13620541 19.6187856,0.144361664 C19.631482,0.152839345 19.643415,0.162281313 19.6555892,0.171401853 C19.6657945,0.179035784 19.6762409,0.186107216 19.6861651,0.194263469 C19.7078615,0.212062583 19.728674,0.230825983 19.7485222,0.250634026 L19.7485222,0.250634026 C19.7491249,0.251196527 19.7492454,0.251357241 19.7494062,0.251517955 L19.7783247,0.281983369 L19.7783247,0.281983369 L19.8057365,0.313834944 C19.8138526,0.323759055 19.820924,0.334205488 19.828558,0.34437067 C19.8376785,0.356584961 19.8471607,0.368518001 19.8556383,0.381214435 C19.8637946,0.393428725 19.870866,0.40608498 19.8783392,0.418580521 C19.8852098,0.430071597 19.8924017,0.441321601 19.89875,0.453134106 C19.9055803,0.465910896 19.911366,0.479049294 19.9175134,0.492067156 C19.9232991,0.504401983 19.9294866,0.516495737 19.9347098,0.529151992 L19.9347098,0.529151992 L19.9487723,0.567562722 C19.9536339,0.581102906 19.9588571,0.594482375 19.9630357,0.608343988 C19.966933,0.621201136 19.9697857,0.634259176 19.9730402,0.64723686 L19.9730402,0.64723686 L19.9834062,0.689665448 C19.9863795,0.704732418 19.9881473,0.719919924 19.990317,0.735067251 C19.992125,0.747562792 19.9944955,0.75985744 19.9957411,0.772553873 C19.9985134,0.800719063 20,0.82896461 20,0.857210156 L20,0.857210156 L20,5.14285915 C20,5.61624327 19.6162141,5.99998895 19.14283,5.99998895 C18.6694459,5.99998895 18.2857002,5.61624327 18.2857002,5.14285915 L18.2857002,5.14285915 L18.2857002,2.92648775 L12.8918053,8.32038271 C12.5570774,8.65511052 12.0143451,8.65511052 11.6796173,8.32038271 C11.3448895,7.98565491 11.3448895,7.44292255 11.6796173,7.10819474 L11.6796173,7.10819474 L17.0735122,1.7142596 L14.8571408,1.7142596 C14.3837567,1.7142596 14.000011,1.33051391 14.000011,0.857129799 C14.000011,0.383745686 14.3837567,0 14.8571408,0 L14.8571408,0 Z M5.14288326,0 C5.61626959,0 6.00001708,0.383745686 6.00001708,0.857169978 C6.00001708,1.33055409 5.61626959,1.71429978 5.14288326,1.71429978 L5.14288326,1.71429978 L2.92650147,1.71429978 L8.32038154,7.10819474 C8.65511092,7.44292255 8.65511092,7.98565491 8.32038154,8.32038271 C7.98565216,8.65511052 7.44291726,8.65511052 7.10818788,8.32038271 L7.10818788,8.32038271 L1.71426763,2.92648775 L1.71426763,5.14285915 C1.71426763,5.61624327 1.33052015,5.99998895 0.857133817,5.99998895 C0.383747484,5.99998895 0,5.61624327 0,5.14285915 L0,5.14285915 L0,0.857129799 C0,0.828884252 0.00148661469,0.800678884 0.00421877142,0.772594052 C0.00546431346,0.759937797 0.00787503999,0.747602971 0.00964290611,0.73510743 C0.01181256,0.719960103 0.0135804261,0.704772597 0.0165536555,0.689705627 L0.0165536555,0.689705627 L0.0269197796,0.647277039 C0.0301742604,0.634299355 0.0330269534,0.621241314 0.0369242946,0.608384166 C0.0411430661,0.594522554 0.0463261281,0.581143084 0.0511877599,0.5676029 C0.0558083191,0.554745752 0.0600270905,0.541848426 0.0652503313,0.529192171 L0.0736778295,0.510489039 L0.0736778295,0.510489039 L0.0825272048,0.492026978 C0.0886745574,0.479009116 0.0944201223,0.465910896 0.101250514,0.453174284 C0.107598761,0.441321601 0.11483094,0.430031418 0.121701511,0.418540342 C0.129174763,0.406044801 0.136206049,0.393428725 0.14436234,0.381254613 C0.152880241,0.368518001 0.162362432,0.356544782 0.171523192,0.344290313 C0.179116981,0.334125131 0.186148267,0.323718876 0.194264379,0.313875123 C0.230103847,0.270200998 0.270202265,0.230102768 0.313876594,0.194263469 C0.323720394,0.186147394 0.334126697,0.179116141 0.344251748,0.171522388 C0.356506275,0.162361671 0.36847955,0.152879524 0.381216222,0.144361664 C0.393390391,0.13620541 0.406046705,0.129174158 0.418502125,0.121741119 C0.430033434,0.114870581 0.441283491,0.107638435 0.45313623,0.101290218 C0.465872901,0.0944598583 0.479011361,0.0886741418 0.491989106,0.0825669965 L0.510451253,0.0737025958 L0.510451253,0.0737025958 L0.529154473,0.0652902041 L0.529154473,0.0652902041 L0.567565382,0.0512276986 C0.581105629,0.0463660895 0.594485162,0.0411428732 0.608346839,0.0369643002 C0.621204047,0.0330669772 0.634262149,0.0302142975 0.647239894,0.026959832 L0.647239894,0.026959832 L0.689668681,0.0165937565 C0.704735722,0.013620541 0.719923299,0.0118526832 0.735070697,0.0096830395 C0.747566296,0.00787500308 0.759861002,0.00550446644 0.772557495,0.00425893024 C0.800642459,0.00148660772 0.828888138,0 0.857093638,0 L0.857093638,0 Z"></path>
            </g>
        </g>
    </g>
</svg>
