<svg viewBox="0 0 48 48" xmlns="http://www.w3.org/2000/svg"><path d="m39.5555556 4h-7.7777778c-.6136497 0-1.1111111.49746139-1.1111111 1.11111111v2.22222222c0 .61364973.4974614 1.11111111 1.1111111 1.11111111h7.7777778v7.77777776c0 .6136497.4974613 1.1111111 1.1111111 1.1111111h2.2222222c.6136497 0 1.1111111-.4974614 1.1111111-1.1111111v-7.77777776c0-2.45459888-1.9898456-4.44444444-4.4444444-4.44444444zm-35.5555556 4.44444444v7.77777776c0 .6136497.49746139 1.1111111 1.11111111 1.1111111h2.22222222c.61364973 0 1.11111111-.4974614 1.11111111-1.1111111v-7.77777776h7.77777776c.6136497 0 1.1111111-.49746138 1.1111111-1.11111111v-2.22222222c0-.61364972-.4974614-1.11111111-1.1111111-1.11111111h-7.77777776c-2.45459888 0-4.44444444 1.98984556-4.44444444 4.44444444zm35.5555556 23.33333336v7.7777778h-7.7777778c-.6136497 0-1.1111111.4974613-1.1111111 1.1111111v2.2222222c0 .6136497.4974614 1.1111111 1.1111111 1.1111111h7.7777778c2.4545988 0 4.4444444-1.9898456 4.4444444-4.4444444v-7.7777778c0-.6136497-.4974614-1.1111111-1.1111111-1.1111111h-2.2222222c-.6136498 0-1.1111111.4974614-1.1111111 1.1111111zm-32.22222227-1.1111111h-2.22222222c-.61364972 0-1.11111111.4974614-1.11111111 1.1111111v7.7777778c0 2.4545988 1.98984556 4.4444444 4.44444444 4.4444444h7.77777776c.6136497 0 1.1111111-.4974614 1.1111111-1.1111111v-2.2222222c0-.6136498-.4974614-1.1111111-1.1111111-1.1111111h-7.77777776v-7.7777778c0-.6136497-.49746138-1.1111111-1.11111111-1.1111111z" fill-rule="evenodd"/></svg>