<svg xmlns="http://www.w3.org/2000/svg" width="48" height="48" viewBox="0 0 48 48">
    <path fill="#F2F3F4" fill-rule="evenodd" d="M36.92 16c.705-1.215 1.078-2.595 1.08-4 0-3.314-2.686-6-6-6-3.245.397-6.162 2.176-8 4.88-1.838-2.704-4.755-4.483-8-4.88-3.314 0-6 2.686-6 6 .002 1.405.375 2.785 1.08 4H6v12h4v14h28V28h4V16h-5.08zM32 10c1.105 0 2 .895 2 2 .002 1.33-.658 2.575-1.76 3.32-.261.175-.54.318-.832.427-.448.168-.925.254-1.408.253h-4c.803-4 2.803-6 6-6zm-18 2c0-1.105.895-2 2-2 3.29 0 5.29 2 6 6h-4c-2.21 0-4-1.79-4-4zm-4 8h12v4H10v-4zm4 8h8v10h-8V28zm20 10h-8V28h8v10zm4-14H26v-4h12v4z"/>
</svg>
