<svg id="Layer_1"  xmlns="http://www.w3.org/2000/svg" viewBox="0 0 24 24"><title>hidden_outlined</title><path d="M4.38,3.15a.48.48,0,0,0-.7,0l-.53.53a.48.48,0,0,0,0,.7L5.75,7a9.66,9.66,0,0,0-3.69,4.68h0A1,1,0,0,0,2,12a.81.81,0,0,0,.06.31h0A10.65,10.65,0,0,0,12,19a10.82,10.82,0,0,0,4.67-1.09l2.95,2.94a.48.48,0,0,0,.7,0l.53-.53a.48.48,0,0,0,0-.7ZM12,17a8.82,8.82,0,0,1-7.93-5A8.11,8.11,0,0,1,7.2,8.44L9.36,10.6a3,3,0,0,0,4,4l1.76,1.76A9,9,0,0,1,12,17Zm10-5.3v0A10.71,10.71,0,0,0,9.12,5.4l1.69,1.69A8,8,0,0,1,12,7a8.82,8.82,0,0,1,7.93,5,7.26,7.26,0,0,1-1.74,2.47l1.42,1.42a9.11,9.11,0,0,0,2.33-3.56h0A.81.81,0,0,0,22,12v0A.93.93,0,0,0,22,11.7Z"/></svg>