<svg id="Layer_1"  xmlns="http://www.w3.org/2000/svg" viewBox="0 0 24 24"><title>home_vs</title><path d="M21.71,10.71,14.29,3.29a1,1,0,0,0-.7-.29H10.41a1,1,0,0,0-.7.29L2.29,10.71a1,1,0,0,0-.29.7V12.5a.5.5,0,0,0,.5.5H4v7a1,1,0,0,0,1,1H8a1,1,0,0,0,1-1V14.5a.5.5,0,0,1,.5-.5h5a.5.5,0,0,1,.5.5V20a1,1,0,0,0,1,1h3a1,1,0,0,0,1-1V13h1.5a.5.5,0,0,0,.5-.5V11.41A1,1,0,0,0,21.71,10.71Z"/><path d="M21.71,10.71,14.29,3.29a1,1,0,0,0-.7-.29H10.41a1,1,0,0,0-.7.29L2.29,10.71a1,1,0,0,0-.29.7V12.5a.5.5,0,0,0,.5.5H4v7a1,1,0,0,0,1,1H8a1,1,0,0,0,1-1V14.5a.5.5,0,0,1,.5-.5h5a.5.5,0,0,1,.5.5V20a1,1,0,0,0,1,1h3a1,1,0,0,0,1-1V13h1.5a.5.5,0,0,0,.5-.5V11.41A1,1,0,0,0,21.71,10.71Z"/></svg>