<svg width="62" height="23" viewBox="0 0 62 23" fill="none" xmlns="http://www.w3.org/2000/svg">
<rect x="0.5" y="0.5" width="61" height="22" rx="4.5" fill="url(#paint0_linear)"/>
<circle cx="13" cy="11.5" r="4" fill="white"/>
<path d="M27.912 15V6.54H29.46V13.728H33.408V15H27.912ZM34.5683 15V6.54H36.1163V15H34.5683ZM44.1473 6.54H45.7193L41.9513 15H40.6913L36.9232 6.54H38.5193L41.3273 13.08L44.1473 6.54ZM46.5097 15V6.54H52.1737V7.764H48.0217V10.092H51.9337V11.304H48.0217V13.776H52.1737V15H46.5097Z" fill="white"/>
<rect x="0.5" y="0.5" width="61" height="22" rx="4.5" stroke="white"/>
<defs>
<linearGradient id="paint0_linear" x1="0" y1="0" x2="57.7607" y2="24.727" gradientUnits="userSpaceOnUse">
<stop offset="0.344507" stop-color="#FF5F68"/>
<stop offset="1" stop-color="#F4915A"/>
</linearGradient>
</defs>
</svg>
