<svg xmlns="http://www.w3.org/2000/svg" width="48" height="48" viewBox="0 0 48 48">
    <path fill="#F2F3F4" fill-rule="evenodd" d="M34.417 25.09l.712.33 2.108.978c.212.098.82.368.82.368l-.432.796-.088.16c-2.494 4.508-6.978 7.506-12.02 8.144V40h4v4h-12v-4h4v-4.138c-5.168-.648-9.586-3.762-12.012-8.146-.134-.242-.504-.924-.504-.924s.706-.352.958-.468l1.812-.842.828-.378s.332.566.46.792C15.127 29.534 19.045 32 23.517 32c4.38 0 8.4-2.378 10.52-6.22.11-.202.38-.69.38-.69zM23.517 4c4.418 0 8 3.582 8 8v8c0 4.418-3.582 8-8 8s-8-3.582-8-8v-8c0-4.418 3.582-8 8-8z"/>
</svg>
