<svg xmlns="http://www.w3.org/2000/svg" width="48" height="48" viewBox="0 0 48 48">
    <path fill="#F2F3F4" fill-rule="evenodd" d="M36.177 32.008c-1.478 0-2.816.556-3.864 1.446L17.88 25.12c.068-.364.11-.736.11-1.12 0-.39-.042-.772-.114-1.142l14.422-8.324c1.048.896 2.392 1.458 3.878 1.458 3.312 0 5.996-2.684 5.996-5.996C42.173 6.684 39.489 4 36.177 4c-3.31 0-5.996 2.684-5.996 5.996 0 .37.044.73.11 1.082l-14.46 8.348c-1.042-.874-2.368-1.422-3.834-1.422C8.685 18.004 6 20.688 6 24c0 3.312 2.684 5.996 5.996 5.996 1.472 0 2.806-.552 3.85-1.436l14.446 8.34c-.068.358-.112.726-.112 1.104 0 3.312 2.686 5.996 5.996 5.996 3.312 0 5.996-2.684 5.996-5.996 0-3.312-2.684-5.996-5.996-5.996"/>
</svg>
