<svg xmlns="http://www.w3.org/2000/svg" width="48" height="48" viewBox="0 0 48 48">
    <path fill="#F2F3F4" fill-rule="evenodd" d="M33.894 30.35c1.66-.632 3.515-.497 5.066.37 1.011.492 1.828 1.309 2.32 2.32.97 1.964.793 4.3-.462 6.095-1.254 1.795-3.387 2.764-5.565 2.527-2.177-.236-4.053-1.64-4.893-3.662H6v-4h24.36c.58-1.68 1.874-3.016 3.534-3.65zM36 34c-1.105 0-2 .895-2 2s.895 2 2 2 2-.895 2-2-.895-2-2-2zM24 18.047c2.524 0 4.779 1.58 5.64 3.953H42v4H29.64c-.861 2.373-3.116 3.953-5.64 3.953-2.524 0-4.779-1.58-5.64-3.953H6v-4h12.36c.861-2.373 3.116-3.953 5.64-3.953zM24 22c-1.105 0-2 .895-2 2s.895 2 2 2 2-.895 2-2-.895-2-2-2zM9.04 6.72c1.55-.867 3.406-1.002 5.066-.37 1.66.634 2.954 1.97 3.534 3.65H42v4H17.64c-.845 2.391-3.103 3.993-5.64 4-2.146.022-4.14-1.104-5.23-2.954-1.09-1.849-1.109-4.14-.05-6.006.492-1.011 1.309-1.828 2.32-2.32zM12 10c-1.105 0-2 .895-2 2s.895 2 2 2c.53 0 1.04-.21 1.414-.586C13.79 13.04 14 12.53 14 12c0-1.105-.895-2-2-2z"/>
</svg>
