<?xml version="1.0" encoding="UTF-8"?>
<svg width="48px" height="48px" viewBox="0 0 48 48" version="1.1" xmlns="http://www.w3.org/2000/svg" xmlns:xlink="http://www.w3.org/1999/xlink">
    <!-- Generator: Sketch 63.1 (92452) - https://sketch.com -->
    <title>icons/360-rotate</title>
    <desc>Created with Sketch.</desc>
    <g id="icons/360-rotate" fill="#000000" fill-rule="evenodd">
        <path d="M23.9996,6.9999 C12.9596,6.9999 3.9996,13.2599 3.9996,20.9999 C4.2766,25.4789 6.8806,29.4859 10.8596,31.5599 C13.6986,33.2119 16.9366,34.0559 20.2206,33.9999 L21.9996,33.9999 L21.9996,37.9999 C21.9996,38.0009 22.0006,38.0019 22.0006,38.0029 L22.0006,40.4959 L30.5326,32.0069 L22.0006,23.5199 L22.0006,25.9969 C22.0006,25.9979 21.9996,25.9989 21.9996,25.9999 L21.9996,29.9999 L20.2206,29.9999 C17.6696,30.0549 15.1516,29.4119 12.9396,28.1399 C10.1656,26.7789 8.2956,24.0759 7.9996,20.9999 C7.9996,15.5799 15.3196,10.9999 23.9996,10.9999 C32.6806,10.9999 39.9996,15.5799 39.9996,20.9999 C39.7316,23.9299 38.0786,26.3909 35.3236,27.9219 L34.5656,28.4059 C34.5656,28.4059 34.9586,29.0409 35.1006,29.2599 L36.7116,31.8299 C36.7116,31.8299 37.0686,31.5829 37.5396,31.2999 C41.3246,29.2099 43.7666,25.3169 43.9996,20.9999 C43.9996,13.2599 35.0396,6.9999 23.9996,6.9999" id="360-rotate" fill="#000000"></path>
    </g>
</svg>