<svg width="19px" height="24px" viewBox="0 0 19 24" version="1.1" xmlns="http://www.w3.org/2000/svg" xmlns:xlink="http://www.w3.org/1999/xlink">
    <defs>
        <path d="M12.1876875,0 C14.6218594,0 16.9125938,0.948375 18.6407344,2.67215625 C20.3744531,4.4015625 21.32925,6.6991875 21.32925,9.14170313 C21.32925,12.2986875 19.68675,15.2344219 17.015625,16.9013438 L17.015625,16.9013438 L17.015625,19.171875 C17.015625,21.8340938 14.8497188,24 12.1875,24 C9.52528125,24 7.359375,21.8340938 7.359375,19.171875 L7.359375,19.171875 L7.359375,16.9013906 C4.69040625,15.2355469 3.04776563,12.3019688 3.04574814,9.1475625 C3.0425625,4.11623438 7.1330625,0.01265625 12.1642031,0 L12.1642031,0 Z M15.6059063,19.30875 L8.76909375,19.30875 C8.84128125,21.1322813 10.3465781,22.59375 12.1875,22.59375 C14.0284219,22.59375 15.5337188,21.1322813 15.6059063,19.30875 L15.6059063,19.30875 Z M12.1875938,1.40625 L12.1677188,1.40625 C7.91057813,1.41698438 4.44928125,4.88929688 4.4519984,9.14671875 C4.45373438,11.9332031 5.96934375,14.5163906 8.4073125,15.8883281 L8.4073125,15.8883281 L8.765625,16.0899375 L8.765625,17.9025 L15.609375,17.9025 L15.609375,16.0899375 L15.9676875,15.8883281 C18.4073906,14.5154063 19.923,11.9302969 19.923,9.14175 C19.923,7.07545313 19.1149219,5.13145313 17.6475938,3.66782813 C16.1851406,2.20898438 14.2466719,1.40625 12.1875938,1.40625 L12.1875938,1.40625 Z M12.890625,2.8108125 L12.890625,4.2691875 C13.7235938,4.3888125 14.4899531,4.71745313 15.1343906,5.2005 L15.1343906,5.2005 L16.167,4.16789063 L17.1613594,5.16225 L16.12875,6.19490625 C16.6117969,6.83934375 16.9404375,7.60570313 17.0600625,8.438625 L17.0600625,8.438625 L18.5184844,8.438625 L18.5184844,9.844875 L17.0601094,9.844875 C16.9404375,10.6778438 16.6117969,11.4442031 16.12875,12.0886406 L16.12875,12.0886406 L17.1613594,13.12125 L16.167,14.1156094 L15.1343906,13.083 C14.4899531,13.5660938 13.7235938,13.8947344 12.890625,14.0143594 L12.890625,14.0143594 L12.890625,15.4727344 L11.484375,15.4727344 L11.484375,14.0143594 C10.6514531,13.8946875 9.88509375,13.5660469 9.24065625,13.083 L9.24065625,13.083 L8.20804688,14.1156094 L7.2136875,13.12125 L8.24629688,12.0886406 C7.76320313,11.44425 7.43460938,10.6778906 7.3149375,9.84492188 L7.3149375,9.84492188 L5.8565625,9.84492188 L5.8565625,8.43867188 L7.31489063,8.43867188 C7.4345625,7.60570313 7.76320313,6.83934375 8.24625,6.19490625 L8.24625,6.19490625 L7.21364063,5.16229688 L8.208,4.1679375 L9.24060938,5.20054688 C9.88504688,4.71745313 10.6514063,4.3888125 11.484375,4.2691875 L11.484375,4.2691875 L11.484375,2.8108125 L12.890625,2.8108125 Z M12.1875,5.625 C10.248375,5.625 8.67075,7.202625 8.67075,9.14175 C8.67075,11.080875 10.248375,12.6585 12.1875,12.6585 C14.126625,12.6585 15.70425,11.0809219 15.70425,9.14175 C15.70425,7.202625 14.126625,5.625 12.1875,5.625 Z M12.1875,7.03125 C13.3512188,7.03125 14.298,7.97803125 14.298,9.14175 C14.298,10.3054688 13.3512188,11.25225 12.1875,11.25225 C11.0237813,11.25225 10.077,10.3054688 10.077,9.14175 C10.077,7.97803125 11.0237813,7.03125 12.1875,7.03125 Z M12.1875,8.4375 C11.7991875,8.4375 11.48325,8.75339063 11.48325,9.14175 C11.48325,9.5300625 11.7991875,9.846 12.1875,9.846 C12.5758125,9.846 12.89175,9.53010938 12.89175,9.14175 C12.89175,8.7534375 12.5758125,8.4375 12.1875,8.4375 Z" id="path-1"></path>
    </defs>
    <g id="USEFUL-SYSTEM" stroke="none" stroke-width="1" fill="none" fill-rule="evenodd">
        <g id="Icons" transform="translate(-529.000000, -494.000000)">
            <g id="Icon-useful" transform="translate(526.000000, 494.000000)">
                <mask id="mask-2" fill="white">
                    <use xlink:href="#path-1"></use>
                </mask>
                <use id="Combined-Shape" fill="#000000" fill-rule="nonzero" xlink:href="#path-1"></use>
                <g id="Group" mask="url(#mask-2)" fill="#999999">
                    <g id="COLOR/-black">
                        <rect id="Rectangle-2" x="0" y="0" width="24" height="24"></rect>
                    </g>
                </g>
            </g>
        </g>
    </g>
</svg>
