<svg xmlns="http://www.w3.org/2000/svg" width="48" height="48" viewBox="0 0 48 48">
    <path fill="#F2F3F4" fill-rule="evenodd" d="M15.475 4l8.181 3.025c.039.013.082.013.12 0l8.09-2.99c.052-.02.11.006.134.057l3.498 7.871 7.962 3.54-3.024 8.182c-.012.038-.012.082 0 .118l2.99 8.09c.02.054-.006.112-.057.134l-7.87 3.498L32 43.395c-.024.055-.082.079-.135.06l-8.089-2.99c-.038-.015-.081-.015-.12 0l-8.181 3.024-3.539-7.964-7.872-3.498c-.051-.022-.075-.08-.057-.135l2.99-8.089c.014-.036.014-.08 0-.118l-2.992-8.09c-.018-.052.006-.11.059-.134l7.872-3.498L15.475 4zm14.55 12.725l-9.254 9.256-3.358-3.35-2.248 2.247 5.604 5.596 11.502-11.502-2.246-2.247z"/>
</svg>
