<svg xmlns="http://www.w3.org/2000/svg" width="48" height="48" viewBox="0 0 48 48">
    <path fill="#F2F3F4" fill-rule="evenodd" d="M15.475 4l8.181 3.025c.039.013.082.013.12 0l8.09-2.99c.052-.02.11.006.134.057l3.498 7.871 7.962 3.54-3.024 8.182c-.012.038-.012.082 0 .118l2.99 8.09c.02.054-.006.112-.057.134l-7.87 3.498L32 43.395c-.024.055-.082.079-.135.06l-8.089-2.99c-.038-.015-.081-.015-.12 0l-8.181 3.024-3.539-7.964-7.872-3.498c-.051-.022-.075-.08-.057-.135l2.99-8.089c.014-.036.014-.08 0-.118l-2.992-8.09c-.018-.052.006-.11.059-.134l7.872-3.498L15.475 4zm1.979 4.744l-2.69 6.05-5.985 2.658c-.04.018-.059.062-.045.102l2.274 6.145c.011.03.011.062 0 .09l-2.272 6.145c-.014.042.004.086.043.102l5.985 2.658 2.69 6.05 6.22-2.297c.029-.011.062-.011.091 0l6.15 2.272c.04.014.084-.004.102-.045l2.66-5.98 5.984-2.658c.038-.016.058-.06.042-.102l-2.272-6.145c-.01-.028-.01-.06 0-.09l2.299-6.216-6.053-2.689-2.66-5.98c-.018-.038-.062-.058-.102-.042l-6.15 2.27c-.029.01-.062.01-.091 0l-6.22-2.298zm3.315 21.73l-5.604-5.596 2.248-2.248 3.358 3.351 9.254-9.256 2.246 2.247-11.502 11.502z"/>
</svg>
