<svg xmlns="http://www.w3.org/2000/svg" width="48" height="48" viewBox="0 0 48 48">
    <path fill="#F2F3F4" fill-rule="evenodd" d="M40 8.98l-2.92-.3c-8.737-.9-17.543-.9-26.28 0l-2.8.3c-3.457.39-6.053 3.341-6 6.82v16.4c-.053 3.479 2.543 6.43 6 6.82l2.92.3c8.737.9 17.543.9 26.28 0l2.8-.3c3.457-.39 6.053-3.341 6-6.82V15.8c.053-3.479-2.543-6.43-6-6.82zM30 25.24l-7.78 5.2c-.453.249-1.002.247-1.453-.005-.452-.252-.741-.719-.767-1.235V18.8c.001-.554.308-1.063.798-1.323.49-.26 1.083-.227 1.542.083l7.78 5.2c.42.273.672.74.672 1.24s-.253.967-.672 1.24H30z"/>
</svg>
