<?xml version="1.0" encoding="UTF-8"?>
<svg viewBox="0 0 48 48" version="1.1" xmlns="http://www.w3.org/2000/svg" xmlns:xlink="http://www.w3.org/1999/xlink">
    <title>icons/chat-outlined2</title>
    <g id="icons/chat-outlined2" fill="#000000" fill-rule="evenodd">
        <path d="M33.4444444,35 C37.6172626,35 41,31.418278 41,27 L41,15 C41,10.581722 37.6172626,7 33.4444444,7 L14.5555556,7 C10.3827374,7 7,10.581722 7,15 L7,40 C7,40.5522847 7.42284218,41 7.94444444,41 C8.19400083,40.9984612 8.43239527,40.8902822 8.60555556,40.7 L12.3833333,36.7 C13.4681738,35.5816172 14.9306048,34.9694368 16.4444444,35 L33.4444444,35 Z M33.4444444,10.7777778 C35.5308535,10.7777778 37.2222222,12.6229073 37.2222222,14.8989899 L37.2222222,27.2626263 C37.2222222,29.5387089 35.5308535,31.3838384 33.4444444,31.3838384 L16.4444444,31.3838384 C14.400948,31.3838384 12.4125749,32.1068831 10.7777778,33.4444444 L10.7777778,14.8989899 C10.7777778,12.6229073 12.4691465,10.7777778 14.5555556,10.7777778 L33.4444444,10.7777778 Z M30.6111111,19.2777778 C29.5679066,19.2777778 28.7222222,20.1234621 28.7222222,21.1666667 C28.7222222,22.2098712 29.5679066,23.0555556 30.6111111,23.0555556 C31.6543156,23.0555556 32.5,22.2098712 32.5,21.1666667 C32.5,20.1234621 31.6543156,19.2777778 30.6111111,19.2777778 Z M24,19.2777778 C22.9567955,19.2777778 22.1111111,20.1234621 22.1111111,21.1666667 C22.1111111,22.2098712 22.9567955,23.0555556 24,23.0555556 C25.0432045,23.0555556 25.8888889,22.2098712 25.8888889,21.1666667 C25.8888889,20.1234621 25.0432045,19.2777778 24,19.2777778 Z M17.3888889,19.2777778 C16.3456844,19.2777778 15.5,20.1234621 15.5,21.1666667 C15.5,22.2098712 16.3456844,23.0555556 17.3888889,23.0555556 C18.4320934,23.0555556 19.2777778,22.2098712 19.2777778,21.1666667 C19.2777778,20.1234621 18.4320934,19.2777778 17.3888889,19.2777778 Z" id="chat-outlined" fill="#000000" transform="translate(24.000000, 24.000000) scale(-1, 1) translate(-24.000000, -24.000000) "></path>
    </g>
</svg>