<?xml version="1.0" encoding="UTF-8"?>
<svg viewBox="0 0 48 48" version="1.1" xmlns="http://www.w3.org/2000/svg" xmlns:xlink="http://www.w3.org/1999/xlink">
    <title>icons/chat-outlined_se</title>
    <g id="icons/chat-outlined_se" fill="#000000" fill-rule="evenodd">
        <path d="M6.0175064,7 L6.0175064,38.6680779 L6,40.7888795 L6,41 L13.2262522,33.8698843 L41.030303,33.8698843 L41.030303,7 L6.0175064,7 Z M36.9090909,11.1212121 L36.9090909,29.9223623 L12.1897668,29.9223623 L10.1212121,31.7272727 L10.1212121,11.1212121 L36.9090909,11.1212121 Z M30.1414141,18 C29.0982096,18 28.2525253,18.8456844 28.2525253,19.8888889 C28.2525253,20.9320934 29.0982096,21.7777778 30.1414141,21.7777778 C31.1846187,21.7777778 32.030303,20.9320934 32.030303,19.8888889 C32.030303,18.8456844 31.1846187,18 30.1414141,18 Z M23.530303,18 C22.4870985,18 21.6414141,18.8456844 21.6414141,19.8888889 C21.6414141,20.9320934 22.4870985,21.7777778 23.530303,21.7777778 C24.5735076,21.7777778 25.4191919,20.9320934 25.4191919,19.8888889 C25.4191919,18.8456844 24.5735076,18 23.530303,18 Z M16.9191919,18 C15.8759874,18 15.030303,18.8456844 15.030303,19.8888889 C15.030303,20.9320934 15.8759874,21.7777778 16.9191919,21.7777778 C17.9623964,21.7777778 18.8080808,20.9320934 18.8080808,19.8888889 C18.8080808,18.8456844 17.9623964,18 16.9191919,18 Z" id="chat-outlined" fill="#000000" transform="translate(23.515152, 24.000000) scale(-1, 1) translate(-23.515152, -24.000000) "></path>
    </g>
</svg>