<svg xmlns="http://www.w3.org/2000/svg" width="48" height="48" viewBox="0 0 48 48">
    <path fill="#F2F3F4" fill-rule="evenodd" d="M24 4c5.304 0 10.391 2.107 14.142 5.858C41.892 13.608 44 18.696 44 24c0 11.046-8.954 20-20 20S4 35.046 4 24 12.954 4 24 4zm0 10c-4.836 0-8.872 3.438-9.798 8H12v4h2.202c.926 4.562 4.962 8 9.798 8 2.358 0 4.528-.818 6.242-2.178l.882-.698-2.49-2.49s-.29.23-.688.532c-1.096.83-2.46 1.334-3.946 1.334-2.878 0-5.3-1.9-6.152-4.5H26l1.996-4.004L17.848 22c.852-2.6 3.274-4.5 6.152-4.5 1.486 0 2.85.504 3.946 1.334.396.3.696.524.696.524l2.484-2.482-.884-.698C28.528 14.818 26.358 14 24 14z"/>
</svg>
