<svg width="20px" height="20px" viewBox="0 0 20 20" version="1.1" xmlns="http://www.w3.org/2000/svg" xmlns:xlink="http://www.w3.org/1999/xlink">
    <defs>
        <path d="M10.0506641,0 C10.0499609,0 10.0492969,0 10.0485938,0 C10.0453906,0 10.0422266,0 10.0390625,0 C10.0385938,0 10.038125,0 10.0376562,0 C10.0364063,0 10.0351172,0 10.0338672,0 C4.52289063,0.00285155693 0,4.46296003 0,9.96091805 C0,11.3052904 0.267773438,12.6145066 0.7959375,13.8522386 C1.81847656,16.2486401 3.74621094,18.1792614 6.14769531,19.2039859 C7.38527344,19.7320708 8.69433594,20 10.0385156,20 C10.0388672,20 10.0392187,20 10.0395703,20 C10.0404688,20 10.0414062,20 10.0423047,20 C15.5716406,19.998125 20,15.4423917 20,9.96091805 C20,4.46381941 15.5563281,0.00636717506 10.0506641,0 Z M8.09832031,1.38448948 C7.0990625,2.33183138 6.28261719,3.44136047 5.6678125,4.68749084 L2.94980469,4.68749084 C4.19632813,3.04530655 6.00925781,1.8486292 8.09832031,1.38448948 Z M2.19867187,5.85155107 L5.16707031,5.85155107 C4.7571875,6.97447857 4.51484375,8.17135123 4.45230469,9.37498169 L1.19207031,9.37498169 C1.27632812,8.11217166 1.63082031,6.91377556 2.19867187,5.85155107 Z M2.22074219,14.1405974 C1.63910156,13.0570057 1.27648438,11.8393128 1.19175781,10.5468544 L4.44832031,10.5468544 C4.50425781,11.7771645 4.74839844,12.9933731 5.16714844,14.1405974 L2.22074219,14.1405974 Z M2.97378906,15.3124701 L5.6678125,15.3124701 C6.28144531,16.5562958 7.09675781,17.6654342 8.09570312,18.6130105 C6.02097656,18.1472692 4.21902344,16.9524278 2.97378906,15.3124701 Z M5.62191406,10.5468544 L9.45308594,10.5468544 L9.45308594,14.1405974 L6.43070313,14.1405974 C5.9628125,13.013334 5.68476563,11.800016 5.62191406,10.5468544 Z M9.45316406,18.246644 C8.45691406,17.4171535 7.63089844,16.4210617 7.00273438,15.3124701 L9.453125,15.3124701 L9.453125,18.246644 L9.45316406,18.246644 Z M9.45316406,9.37498169 L5.62585937,9.37498169 C5.69613281,8.14947627 5.97257812,6.96318953 6.43078125,5.85936356 L9.45316406,5.85936356 L9.45316406,9.37498169 L9.45316406,9.37498169 Z M9.45316406,4.68749084 L7.0028125,4.68749084 C7.6309375,3.57889926 8.45695312,2.58280746 9.45316406,1.75327783 L9.45316406,4.68749084 L9.45316406,4.68749084 Z M17.8103516,5.85936356 C18.3732422,6.92158804 18.7245703,8.11217166 18.808125,9.37498169 L15.6257812,9.37498169 C15.5632422,8.17135123 15.3208984,6.98229105 14.9110156,5.85936356 L17.8103516,5.85936356 Z M17.0658984,4.68749084 L14.4103516,4.68749084 C13.7971875,3.44464171 12.9827734,2.33636262 11.9850391,1.38933322 C14.0462891,1.85706669 15.8347266,3.05116592 17.0658984,4.68749084 Z M10.6250391,1.7535122 C11.62125,2.58304183 12.4475781,3.57889926 13.0757031,4.68749084 L10.6250391,4.68749084 L10.6250391,1.7535122 Z M10.625,5.85936356 L13.648125,5.85936356 C14.10625,6.9631114 14.3820703,8.1495544 14.4523438,9.37498169 L10.625,9.37498169 L10.625,5.85936356 Z M14.4565625,10.5390419 C14.39375,11.7921254 14.1159766,13.0134121 13.648125,14.1405974 L10.625,14.1405974 L10.625,10.5390419 L14.4565625,10.5390419 Z M10.6250391,18.2464487 L10.6250391,15.3046576 L13.0757031,15.3046576 C12.4475781,16.4132492 11.62125,17.41688 10.6250391,18.2464487 Z M11.9876953,18.6080887 C12.9834375,17.6623874 13.7973047,16.5472724 14.4103125,15.3046576 L17.0420703,15.3046576 C15.8123438,16.9386388 14.0347656,18.1387536 11.9876953,18.6080887 Z M14.9110547,14.1405974 C15.3298047,12.9933731 15.5739453,11.769352 15.6298828,10.5390419 L18.8084766,10.5390419 C18.7244922,11.8315003 18.3650781,13.0570057 17.7885547,14.1405974 L14.9110547,14.1405974 Z" id="path-23"/>
    </defs>
    <mask id="mask-2244" fill="white">
        <use xlink:href="#path-23"/>
    </mask>
    <use id="Shape-99" fill="#666666" fill-rule="nonzero" xlink:href="#path-23"/>
    <g id="Group-33" mask="url(#mask-2244)" fill="#999999">
        <g id="COLOR/-black">
            <rect id="Rectangle-2344" x="0" y="0" width="20" height="20"/>
        </g>
    </g>
</svg>