<svg xmlns="http://www.w3.org/2000/svg" width="48" height="48" viewBox="0 0 48 48">
    <path fill="#F2F3F4" fill-rule="evenodd" d="M33 6c-3.436.107-6.683 1.6-9 4.14C21.683 7.6 18.436 6.107 15 6 8.925 6 4 10.925 4 17c0 7.84 9.5 16.5 14 21l4.56 4.56h.1L24 44l1.34-1.34h.1L30 38c4.5-4.5 14-13.16 14-21 0-2.917-1.159-5.715-3.222-7.778C38.715 7.159 35.918 6 33 6zm-4.6 28L24 38.34 19.6 34C15.54 30 8 22.52 8 17c0-3.866 3.134-7 7-7h.54c4.7.12 8.46 5.7 8.46 5.7s3.76-5.58 8.46-5.7H33c3.866 0 7 3.134 7 7 0 5.52-7.54 13-11.6 17z"/>
</svg>
