<svg id="Layer_1"  xmlns="http://www.w3.org/2000/svg" viewBox="0 0 24 24"><title>heart_outlined</title><path d="M16.5,3A6.36,6.36,0,0,0,12,5.07,6.36,6.36,0,0,0,7.5,3,5.5,5.5,0,0,0,2,8.5C2,12.42,6.75,16.75,9,19l2.28,2.28a.75.75,0,0,0,.53.22h.38a.75.75,0,0,0,.53-.22L15,19c2.25-2.25,7-6.58,7-10.5A5.5,5.5,0,0,0,16.5,3ZM14.2,17,12,19.17,9.8,17C7.77,15,4,11.26,4,8.5A3.5,3.5,0,0,1,7.5,5h0a5,5,0,0,1,3.71,2.21.77.77,0,0,0,.6.29h.45a.51.51,0,0,0,.4-.2A5.11,5.11,0,0,1,16.47,5h0A3.5,3.5,0,0,1,20,8.5C20,11.26,16.23,15,14.2,17Z"/></svg>