<svg xmlns="http://www.w3.org/2000/svg" width="48" height="48" viewBox="0 0 48 48">
    <path fill="#F2F3F4" fill-rule="evenodd" d="M24 4C12.954 4 4 12.954 4 24s8.954 20 20 20 20-8.954 20-20c0-5.304-2.107-10.391-5.858-14.142C34.392 6.108 29.304 4 24 4zm2 32h-4v-4h4v4zm5.76-16.88c-.017 2.492-1.629 4.693-4 5.46L26 25.2c-.065.027-.118.047-.16.059V28h-3.52v-5.036l2.356-.847 2.124-.857c.911-.316 1.522-1.175 1.52-2.14V18c0-.608-.247-1.19-.684-1.613-.438-.422-1.028-.649-1.636-.627h-4c-1.237 0-2.24 1.003-2.24 2.24v2h-3.52v-2c0-3.181 2.579-5.76 5.76-5.76h4c1.528 0 2.993.607 4.073 1.687 1.08 1.08 1.687 2.545 1.687 4.073v1.12z"/>
</svg>
