<svg id="Layer_1"  xmlns="http://www.w3.org/2000/svg" viewBox="0 0 24 24"><title>help_outlined</title><path d="M12,2A10,10,0,1,0,22,12,10,10,0,0,0,12,2Zm0,18a8,8,0,1,1,8-8A8,8,0,0,1,12,20Zm.5-4h-1a.5.5,0,0,0-.5.5v1a.5.5,0,0,0,.5.5h1a.5.5,0,0,0,.5-.5v-1A.5.5,0,0,0,12.5,16Zm3.38-7A2.88,2.88,0,0,0,13,6.12H11A2.88,2.88,0,0,0,8.12,9v.5a.5.5,0,0,0,.5.5h.76a.5.5,0,0,0,.5-.5V9A1.12,1.12,0,0,1,11,7.88h2A1.12,1.12,0,0,1,14.12,9v.56a1.13,1.13,0,0,1-.76,1.07l-.95.31a1.88,1.88,0,0,0-1.29,1.78v.78a.5.5,0,0,0,.5.5h.76a.5.5,0,0,0,.5-.5v-.78A.13.13,0,0,1,13,12.6l.95-.31a2.89,2.89,0,0,0,2-2.73Z"/></svg>