<svg xmlns="http://www.w3.org/2000/svg" width="48" height="48" viewBox="0 0 48 48">
    <path fill="#F2F3F4" fill-rule="evenodd" d="M8.358 6l33.716 33.722-2.424 2.426-6.418-6.41c-2.877 1.45-6.046 2.276-9.232 2.276-3.9 0-7.77-1.246-11.117-3.35-2.566-1.55-4.78-3.595-6.4-6C5.466 27.24 4.616 25.704 4 24.076c.61-1.612 1.449-3.135 2.454-4.548 1.376-2.048 3.184-3.844 5.277-5.293L5.926 8.43 8.358 6zm6.223 11.086c-2.74 1.755-4.969 4.193-6.148 6.99 2.355 5.634 8.912 9.816 15.567 9.816 2.116 0 4.23-.426 6.205-1.182l-3.453-3.451c-.826.436-1.755.706-2.752.706-3.259 0-5.89-2.63-5.89-5.889 0-.999.274-1.926.711-2.748zM24 10.335c3.963 0 7.829 1.168 11.117 3.152 2.566 1.551 4.78 3.597 6.4 6.001 1.017 1.424 1.867 2.96 2.483 4.588-.77 2.034-1.89 3.932-3.272 5.636-.552.703-1.137 1.38-1.789 2l-.027-.027-2.76-2.76c1.472-1.394 2.67-3.043 3.415-4.849-2.355-5.634-8.912-9.815-15.567-9.815-.785 0-1.55.059-2.336.176l-3.318-3.317c1.826-.51 3.73-.785 5.654-.785z"/>
</svg>
