<svg xmlns="http://www.w3.org/2000/svg" width="48" height="48" viewBox="0 0 48 48">
    <path fill="#F2F3F4" fill-rule="evenodd" d="M8.356 6l33.72 33.725-2.43 2.424-6.413-6.41c-2.878 1.452-6.046 2.276-9.232 2.276-3.903 0-7.77-1.245-11.118-3.35-2.566-1.55-4.78-3.596-6.4-5.998-1.02-1.426-1.867-2.96-2.483-4.588.61-1.614 1.449-3.137 2.452-4.55 1.376-2.047 3.184-3.843 5.279-5.292L5.926 8.432 8.356 6zM24 10.336c3.964 0 7.83 1.168 11.118 3.153 2.566 1.55 4.78 3.598 6.4 6.001 1.018 1.424 1.867 2.959 2.483 4.588-.77 2.034-1.89 3.932-3.27 5.636-.552.701-1.137 1.379-1.791 2L18.346 11.122c1.825-.51 3.73-.785 5.653-.785zm-5.177 10.992c-.44.825-.71 1.751-.71 2.75 0 3.26 2.63 5.89 5.889 5.89.997 0 1.923-.27 2.752-.707z"/>
</svg>
