<svg xmlns="http://www.w3.org/2000/svg" width="48" height="48" viewBox="0 0 48 48">
    <path fill="#F2F3F4" fill-rule="evenodd" d="M32 6H16C10.477 6 6 10.477 6 16v16c0 5.523 4.477 10 10 10h16c5.523 0 10-4.477 10-10V16c0-5.523-4.477-10-10-10zm6.5 26c-.011 3.585-2.915 6.489-6.5 6.5H16c-3.585-.011-6.489-2.915-6.5-6.5V16c.011-3.585 2.915-6.489 6.5-6.5h16c3.585.011 6.489 2.915 6.5 6.5v16zm-3-17.5c0 1.105-.895 2-2 2s-2-.895-2-2 .895-2 2-2 2 .895 2 2zM24 15c-4.97 0-9 4.03-9 9s4.03 9 9 9 9-4.03 9-9c.005-2.389-.941-4.68-2.63-6.37-1.69-1.689-3.981-2.635-6.37-2.63zm0 14.5c-3.038 0-5.5-2.462-5.5-5.5s2.462-5.5 5.5-5.5 5.5 2.462 5.5 5.5-2.462 5.5-5.5 5.5z"/>
</svg>
