<svg xmlns="http://www.w3.org/2000/svg" width="48" height="48" viewBox="0 0 48 48">
    <path fill="#F2F3F4" fill-rule="evenodd" d="M8.476 5.586L42.83 39.938l-2.474 2.474-8.366-8.362c-1.704.93-3.584 1.56-5.576 1.808V40h4v4h-12v-4h4v-4.142c-5.16-.66-9.58-3.76-12.02-8.138-.158-.288-.512-.948-.512-.948s.712-.334.972-.452l1.8-.84c.252-.128.836-.416.836-.416l.464.814c2.06 3.66 5.98 6.122 10.46 6.122 1.624 0 3.17-.352 4.59-.936l-3.202-3.202c-.452.08-.912.138-1.388.138-4.42 0-8-3.58-8-8v-1.526L6 8.06l2.476-2.474zm26.862 19.476s.586.29.836.418l1.802.84 1 .46s-.4.696-.542.94c-.34.6-.72 1.2-1.14 1.74l-2.86-2.862c.16-.24.3-.478.44-.72l.464-.816zM24.414 4c4.42 0 8 3.58 8 8v8c0 1.32-.32 2.58-.9 3.678L16.976 9.14C18.094 6.12 21.014 4 24.414 4z"/>
</svg>
