<svg xmlns="http://www.w3.org/2000/svg" width="48" height="48" viewBox="0 0 48 48">
    <path fill="#F2F3F4" fill-rule="evenodd" d="M28 20c0 2.21-1.79 4-4 4s-4-1.79-4-4 1.79-4 4-4 4 1.79 4 4zM24 8c-6.627 0-12 5.373-12 12 0 5.6 2.36 7.48 5.64 10 2.758 1.864 4.956 4.442 6.36 7.46 1.41-3.013 3.608-5.59 6.36-7.46C33.64 27.48 36 25.6 36 20c0-6.627-5.373-12-12-12zm0-4C15.163 4 8 11.295 8 20.293c0 7.604 3.147 10.156 7.52 13.578C19.197 36.401 22.128 39.903 24 44c1.88-4.091 4.81-7.59 8.48-10.129C36.853 30.449 40 27.897 40 20.293 40 11.295 32.837 4 24 4z"/>
</svg>
