<svg xmlns="http://www.w3.org/2000/svg" width="48" height="48" viewBox="0 0 48 48">
    <path fill="#F2F3F4" fill-rule="evenodd" d="M4.27 21.597C2.32 11.23 11.243 2.311 21.613 4.273c5.9 1.114 10.615 5.93 11.634 11.849.781 4.528-.511 8.758-3.08 11.91l.006.001 2.127 1.453.905.75 9.122 9.121-2.977 2.977-9.202-9.179-.642-.745-1.577-2.156c-3.156 2.514-7.358 3.777-11.859 2.983-5.9-1.04-10.694-5.753-11.8-11.64zm24.613 0c2.124-8-5.006-15.13-13.006-13.008-3.514.933-6.354 3.775-7.287 7.288-2.124 8 5.007 15.129 13.007 13.007 3.513-.933 6.355-3.773 7.286-7.287z"/>
</svg>
