<svg xmlns="http://www.w3.org/2000/svg" width="48" height="48" viewBox="0 0 48 48">
    <path fill="#F2F3F4" fill-rule="evenodd" d="M43.64 30.536l-4.586-3.776c.17-.896.266-1.816.266-2.76 0-.946-.098-1.87-.266-2.758v-.002l4.586-3.776-4-6.928-5.564 2.084c-1.394-1.194-3.008-2.134-4.778-2.756L28.32 4h-8l-.978 5.864c-1.768.622-3.384 1.56-4.778 2.756L9 10.536l-4 6.928 4.58 3.772c-.162.902-.26 1.82-.26 2.764 0 .946.098 1.866.262 2.764L5 30.536l4 6.928 5.564-2.084c1.394 1.196 3.01 2.134 4.778 2.756L20.32 44h8l.978-5.864c1.768-.622 3.384-1.56 4.778-2.756l5.564 2.084 4-6.928zM24 35c-6.075 0-11-4.925-11-11s4.925-11 11-11 11 4.925 11 11c0 2.917-1.159 5.715-3.222 7.778C29.715 33.841 26.918 35 24 35zm0-15c-2.21 0-4 1.79-4 4s1.79 4 4 4 4-1.79 4-4-1.79-4-4-4z"/>
</svg>
