<svg xmlns="http://www.w3.org/2000/svg" width="48" height="48" viewBox="0 0 48 48">
    <path fill="#F2F3F4" fill-rule="evenodd" d="M28.32 4l.978 5.864c1.77.622 3.384 1.562 4.778 2.756l5.564-2.084 4 6.928-4.586 3.776c.168.89.266 1.814.266 2.76 0 .944-.096 1.864-.266 2.76l4.586 3.776-4 6.928-5.564-2.084c-1.394 1.196-3.01 2.134-4.778 2.756L28.32 44h-8l-.978-5.864c-1.768-.622-3.384-1.56-4.778-2.756L9 37.464l-4-6.928 4.582-3.772c-.164-.898-.262-1.818-.262-2.764 0-.944.098-1.862.26-2.764L5 17.464l4-6.928 5.564 2.084c1.394-1.196 3.01-2.134 4.778-2.756L20.32 4h8zm-4 14c-3.314 0-6 2.686-6 6s2.686 6 6 6 6-2.686 6-6-2.686-6-6-6z"/>
</svg>
