<svg xmlns="http://www.w3.org/2000/svg" width="48" height="48" viewBox="0 0 48 48">
    <path fill="#F2F3F4" fill-rule="evenodd" d="M44 11.848c-1.487.652-3.072 1.084-4.725 1.294 1.7-1.014 2.998-2.61 3.608-4.532-1.586.945-3.336 1.613-5.2 1.985C36.177 8.992 34.032 8 31.692 8c-4.54 0-8.196 3.685-8.196 8.203 0 .65.055 1.274.19 1.87-6.817-.333-12.85-3.6-16.902-8.578-.708 1.228-1.123 2.633-1.123 4.145 0 2.84 1.463 5.357 3.643 6.815-1.317-.025-2.61-.407-3.705-1.01v.09c0 3.985 2.843 7.295 6.57 8.058-.668.182-1.395.27-2.15.27-.525 0-1.055-.03-1.553-.14 1.063 3.247 4.078 5.635 7.663 5.712-2.79 2.182-6.332 3.497-10.167 3.497-.673 0-1.318-.03-1.963-.112 3.633 2.343 7.938 3.68 12.58 3.68 15.09 0 23.34-12.5 23.34-23.335 0-.363-.013-.712-.03-1.06 1.627-1.155 2.995-2.598 4.11-4.258z"/>
</svg>
