<svg width="16px" height="16px" viewBox="0 0 16 16" version="1.1" xmlns="http://www.w3.org/2000/svg" xmlns:xlink="http://www.w3.org/1999/xlink">
    <defs>
        <path d="M13.3831111,3.8191672e-14 C14.632011,3.8191672e-14 15.6444444,1.01243342 15.6444444,2.26133333 L15.6444444,13.3831111 C15.6444444,14.632011 14.632011,15.6444444 13.3831111,15.6444444 L2.26133333,15.6444444 C1.01243342,15.6444444 -3.02868841e-13,14.632011 -3.02868841e-13,13.3831111 L-3.02868841e-13,2.26133333 C-3.02868841e-13,1.01243342 1.01243342,3.8191672e-14 2.26133333,3.8191672e-14 L13.3831111,3.8191672e-14 Z M3.555,12.088 L1.422,12.088 L1.42222222,13.3831111 C1.42222222,13.8465394 1.79790506,14.2222222 2.26133333,14.2222222 L3.555,14.222 L3.555,12.088 Z M10.666,8.533 L4.977,8.533 L4.977,14.222 L10.666,14.222 L10.666,8.533 Z M14.222,12.088 L12.088,12.088 L12.088,14.222 L13.3831111,14.2222222 C13.8465394,14.2222222 14.2222222,13.8465394 14.2222222,13.3831111 L14.222,12.088 Z M14.222,8.533 L12.088,8.533 L12.088,10.666 L14.222,10.666 L14.222,8.533 Z M3.555,8.533 L1.422,8.533 L1.422,10.666 L3.555,10.666 L3.555,8.533 Z M3.555,4.977 L1.422,4.977 L1.422,7.111 L3.555,7.111 L3.555,4.977 Z M10.666,1.422 L4.977,1.422 L4.977,7.111 L10.666,7.111 L10.666,1.422 Z M14.222,4.977 L12.088,4.977 L12.088,7.111 L14.222,7.111 L14.222,4.977 Z M13.3831111,1.42222222 L12.088,1.422 L12.088,3.555 L14.222,3.555 L14.2222222,2.26133333 C14.2222222,1.79790506 13.8465394,1.42222222 13.3831111,1.42222222 Z M3.555,1.422 L2.26133333,1.42222222 C1.79790506,1.42222222 1.42222222,1.79790506 1.42222222,2.26133333 L1.422,3.555 L3.555,3.555 L3.555,1.422 Z" id="path-26"/>
    </defs>
    <mask id="mask-23">
        <use xlink:href="#path-26"/>
    </mask>
    <use xlink:href="#path-26"/>
</svg>
