<svg xmlns="http://www.w3.org/2000/svg" width="48" height="48" viewBox="0 0 48 48">
    <path fill="#F2F3F4" fill-rule="evenodd" d="M23.89 9.952c8.503 0 16.88 5.906 19.891 13.862-3.01 7.956-11.388 13.862-19.89 13.862-8.503 0-16.881-5.906-19.892-13.862C7.01 15.858 15.388 9.952 23.89 9.952zm0 4.1c-6.618 0-13.14 4.159-15.482 9.762 2.343 5.604 8.864 9.762 15.482 9.762 6.619 0 13.14-4.158 15.483-9.762-2.343-5.603-8.864-9.762-15.483-9.762zm0 3.905c3.235 0 5.857 2.622 5.857 5.857 0 3.235-2.622 5.857-5.857 5.857-3.235 0-5.857-2.622-5.857-5.857 0-3.235 2.622-5.857 5.857-5.857z"/>
</svg>
