<svg xmlns="http://www.w3.org/2000/svg" width="48" height="48" viewBox="0 0 48 48">
    <path fill="#F2F3F4" fill-rule="evenodd" d="M26 8v32h-4l-10-9.998H6V18l5.976-.008L22 8h4zm11.347 4.661s.522.596.706.804c5.264 6.012 5.264 15.058 0 21.07l-.708.804-.752-.754-1.418-1.418-.569-.569-.087-.087s.448-.52.602-.702c3.842-4.478 3.842-11.138 0-15.618l-.602-.702.656-.654 1.418-1.418zm-5.663 5.653s.548.662.722.894C33.442 20.582 34 22.248 34 24c0 1.752-.558 3.418-1.594 4.794-.174.23-.674.938-.674.938L28.87 26.87s.352-.486.468-.664C29.77 25.558 30 24.798 30 24c0-.712-.53-1.914-.642-2.16l-.02-.044-.378-.764.506-.496L30.9 19.1c.206-.204.784-.786.784-.786z"/>
</svg>
