<svg xmlns="http://www.w3.org/2000/svg" width="48" height="48" viewBox="0 0 48 48">
    <path fill="#F2F3F4" fill-rule="evenodd" d="M40 8.98l-2.92-.3c-8.737-.907-17.543-.907-26.28 0l-2.8.3c-3.457.39-6.053 3.341-6 6.82v16.4c-.053 3.479 2.543 6.43 6 6.82l2.92.3c4.345.454 8.711.68 13.08.68 4.389.003 8.775-.224 13.14-.68l2.86-.3c3.457-.39 6.053-3.341 6-6.82V15.8c.053-3.479-2.543-6.43-6-6.82zm2 23.22c.056 1.411-.963 2.636-2.36 2.84l-2.92.3c-4.226.44-8.471.66-12.72.66-4.249 0-8.494-.22-12.72-.66l-2.92-.3C6.963 34.836 5.944 33.611 6 32.2V15.8c-.056-1.411.963-2.636 2.36-2.84l2.92-.3c8.457-.88 16.983-.88 25.44 0l2.92.3c1.397.204 2.416 1.429 2.36 2.84v16.4zM22.34 17.56c-.46-.31-1.052-.342-1.542-.083-.49.26-.797.769-.798 1.323v10.4c.001.554.308 1.063.798 1.323.49.26 1.083.227 1.542-.083l7.78-5.2c.42-.273.672-.74.672-1.24s-.253-.967-.672-1.24l-7.78-5.2z"/>
</svg>
