<svg id="FILTERED" version="1.0" xmlns="http://www.w3.org/2000/svg"
 width="441.000000pt" height="441.000000pt" viewBox="0 0 441.000000 441.000000"
 preserveAspectRatio="xMidYMid meet">

<g transform="translate(0.000000,441.000000) scale(0.100000,-0.100000)"
fill="#000000" stroke="none">
<path d="M1011 4038 c470 -798 1175 -1986 1184 -1996 9 -10 139 203 597 980
322 546 596 1010 608 1031 l22 37 -1221 0 -1220 0 30 -52z"/>
<path d="M2023 1720 l-171 -290 349 0 350 0 -28 48 c-162 276 -313 527 -320
529 -5 2 -86 -127 -180 -287z"/>
<path d="M590 1078 c-84 -44 -85 -44 -88 -435 l-3 -343 45 0 46 0 0 245 0 245
90 0 90 0 0 35 0 35 -90 0 -90 0 0 45 c0 55 22 101 52 111 26 8 82 7 109 -1
16 -5 19 -1 19 29 0 43 -6 47 -78 53 -46 4 -65 0 -102 -19z"/>
<path d="M3820 924 l0 -166 -49 44 c-152 137 -374 62 -427 -142 -48 -190 72
-360 255 -360 77 0 135 25 180 76 17 19 33 34 36 34 3 0 5 -22 5 -50 l0 -50
40 0 40 0 0 390 0 390 -40 0 -40 0 0 -166z m-137 -133 c40 -16 99 -73 118
-116 63 -139 -38 -308 -185 -308 -133 0 -223 121 -196 265 14 70 49 120 102
147 46 22 119 28 161 12z"/>
<path d="M1140 690 l0 -390 40 0 40 0 0 390 0 390 -40 0 -40 0 0 -390z"/>
<path d="M1400 738 c0 -322 1 -345 20 -375 30 -49 62 -65 133 -66 82 -1 107
13 107 59 0 32 -2 35 -22 27 -45 -16 -107 -9 -130 15 -22 21 -23 31 -26 207
l-3 185 90 0 91 0 0 35 0 34 -87 3 -88 3 -3 108 -3 107 -39 0 -40 0 0 -342z"/>
<path d="M880 1015 l0 -45 50 0 50 0 0 45 0 45 -50 0 -50 0 0 -45z"/>
<path d="M1872 844 c-89 -44 -144 -140 -144 -253 -1 -124 47 -213 143 -266 48
-27 63 -30 139 -30 91 1 134 16 199 71 l32 27 -22 23 c-26 28 -42 30 -60 8
-18 -21 -77 -50 -119 -58 -52 -9 -129 17 -167 56 -30 30 -63 93 -63 118 0 6
77 10 226 10 l227 0 -7 63 c-13 111 -65 196 -148 238 -58 30 -169 26 -236 -7z
m197 -59 c51 -26 101 -104 101 -157 0 -5 -81 -8 -180 -8 l-180 0 6 28 c14 57
56 111 109 140 29 16 111 14 144 -3z"/>
<path d="M2585 851 c-39 -18 -76 -52 -108 -101 -17 -24 -17 -23 -17 43 l0 67
-40 0 -40 0 0 -280 0 -280 39 0 39 0 4 153 c3 142 5 156 30 207 37 74 103 120
174 120 22 0 24 4 24 45 0 44 -1 45 -32 45 -18 0 -51 -9 -73 -19z"/>
<path d="M2894 846 c-105 -49 -160 -151 -152 -285 6 -90 28 -141 87 -194 57
-52 104 -69 186 -70 79 0 150 25 197 70 l28 27 -21 22 -22 23 -33 -26 c-115
-87 -264 -61 -324 58 -11 21 -20 47 -20 59 0 20 5 20 221 20 l222 0 -5 68 c-5
73 -38 150 -80 189 -69 65 -192 82 -284 39z m158 -47 c63 -17 128 -103 128
-168 0 -8 -52 -11 -180 -11 -200 0 -194 -3 -165 68 21 49 52 81 100 103 46 21
66 23 117 8z"/>
<path d="M890 580 l0 -280 40 0 40 0 0 280 0 280 -40 0 -40 0 0 -280z"/>
</g>
</svg>
